%TF.GenerationSoftware,KiCad,Pcbnew,6.0.11+dfsg-1*%
%TF.CreationDate,2024-04-08T11:49:48+01:00*%
%TF.ProjectId,panel,70616e65-6c2e-46b6-9963-61645f706362,rev?*%
%TF.SameCoordinates,Original*%
%TF.FileFunction,Profile,NP*%
%FSLAX46Y46*%
G04 Gerber Fmt 4.6, Leading zero omitted, Abs format (unit mm)*
G04 Created by KiCad (PCBNEW 6.0.11+dfsg-1) date 2024-04-08 11:49:48*
%MOMM*%
%LPD*%
G01*
G04 APERTURE LIST*
%TA.AperFunction,Profile*%
%ADD10C,0.100000*%
%TD*%
G04 APERTURE END LIST*
D10*
X116233236Y-123858445D02*
X116217229Y-123878075D01*
X180999999Y-80993792D02*
X181000000Y-80993666D01*
X116000310Y-30500812D02*
X116000003Y-30512682D01*
X116002660Y-30487335D02*
X116002610Y-30487588D01*
X116860888Y-123509966D02*
X116836352Y-123513725D01*
X180963170Y-81466753D02*
X180963211Y-81466503D01*
X177993555Y-142999997D02*
X177993684Y-142999996D01*
X178739863Y-142907034D02*
X178763892Y-142900812D01*
X181400259Y-72994826D02*
X181439987Y-72966847D01*
X120805699Y-47908217D02*
X120805839Y-47908408D01*
X179309899Y-142698594D02*
X179332185Y-142687662D01*
X179845937Y-83364479D02*
X179846136Y-83364321D01*
X113892963Y-32970229D02*
X113844737Y-32964281D01*
X166942963Y-86995229D02*
X166894737Y-86989281D01*
X181702619Y-131842631D02*
X181749450Y-131829671D01*
X179053680Y-87191442D02*
X179053443Y-87191351D01*
X116548603Y-64607946D02*
X116548377Y-64608060D01*
X169489679Y-83690654D02*
X169489751Y-83690836D01*
X180940824Y-81591425D02*
X180963170Y-81466753D01*
X188999583Y-20007387D02*
X188999440Y-20006917D01*
X118364315Y-87067288D02*
X118364064Y-87067344D01*
X181439987Y-37633152D02*
X181400259Y-37605173D01*
X120076026Y-64496783D02*
X120075790Y-64496801D01*
X166489987Y-27833152D02*
X166450259Y-27805173D01*
X116339227Y-123749734D02*
X116320433Y-123766714D01*
X113796861Y-42994025D02*
X113844737Y-42985718D01*
X181000000Y-36809877D02*
X181000000Y-31006333D01*
X118699463Y-28015148D02*
X118699206Y-28015171D01*
X179846136Y-83364321D02*
X179944299Y-83284280D01*
X130974637Y-86388855D02*
X130954946Y-86433278D01*
X180966970Y-140441967D02*
X180967005Y-140441716D01*
X116000000Y-46493792D02*
X116000158Y-46506205D01*
X108000201Y-20008344D02*
X108000129Y-20008830D01*
X130108576Y-25001195D02*
X130157036Y-25004770D01*
X133224841Y-143256474D02*
X133260033Y-143289980D01*
X120507030Y-123361555D02*
X120462953Y-123386020D01*
X183203138Y-72819025D02*
X183250549Y-72829671D01*
X180379825Y-82826106D02*
X180454792Y-82724015D01*
X166894737Y-25010718D02*
X166942963Y-25004770D01*
X116525703Y-47380091D02*
X116525926Y-47380212D01*
X116651282Y-29104704D02*
X116569781Y-29207532D01*
X116233674Y-88766216D02*
X116233567Y-88766450D01*
X116942313Y-142182698D02*
X116942499Y-142182871D01*
X130392546Y-84018620D02*
X130439459Y-84029034D01*
X108001122Y-150994487D02*
X108001353Y-150994920D01*
X117487741Y-28401656D02*
X117375225Y-28469156D01*
X115833152Y-102414987D02*
X115859148Y-102456039D01*
X116018282Y-124310922D02*
X116018235Y-124311171D01*
X165985196Y-142979963D02*
X166013185Y-142970867D01*
X118683928Y-83983007D02*
X118684179Y-83983036D01*
X113029671Y-145250595D02*
X113019025Y-145203184D01*
X169656086Y-142900523D02*
X169656510Y-142900831D01*
X120996801Y-122575790D02*
X120996783Y-122576026D01*
X113749450Y-25029671D02*
X113796861Y-25019025D01*
X120991683Y-48373819D02*
X120996783Y-48423973D01*
X169862369Y-83988289D02*
X169871619Y-83990066D01*
X115433278Y-91879946D02*
X115388855Y-91899637D01*
X169570338Y-142821044D02*
X169578491Y-142830589D01*
X169820928Y-83979143D02*
X169833134Y-83982073D01*
X117154062Y-83364479D02*
X117173690Y-83379672D01*
X116863576Y-28873686D02*
X116771942Y-28967596D01*
X117098682Y-87665539D02*
X117098482Y-87665701D01*
X177993666Y-28000000D02*
X167040122Y-28000000D01*
X113029671Y-67950549D02*
X113019025Y-67903138D01*
X169471049Y-83638315D02*
X169471120Y-83638567D01*
X116107946Y-65048603D02*
X116097014Y-65070888D01*
X130992125Y-27343519D02*
X130974637Y-27388855D01*
X183009877Y-25000000D02*
X183058576Y-25001195D01*
X117828696Y-83761572D02*
X117946319Y-83808557D01*
X178441967Y-87033029D02*
X178441716Y-87032994D01*
X120550215Y-106665361D02*
X120591591Y-106694160D01*
X116217072Y-106121725D02*
X116217229Y-106121924D01*
X116003539Y-81139536D02*
X116004796Y-81164326D01*
X120176479Y-106516021D02*
X120225860Y-106526169D01*
X120076026Y-106503216D02*
X120126180Y-106508316D01*
X166752619Y-25042631D02*
X166799450Y-25029671D01*
X115009877Y-137700000D02*
X115058576Y-137701195D01*
X116302256Y-106216011D02*
X116320247Y-106233113D01*
X116617408Y-106423657D02*
X116640930Y-106433052D01*
X166303010Y-142702996D02*
X166307814Y-142691398D01*
X189000000Y-20012272D02*
X188999996Y-20012027D01*
X116018235Y-105688828D02*
X116018282Y-105689077D01*
X183805173Y-25400259D02*
X183833152Y-25439987D01*
X117555322Y-142628905D02*
X117667588Y-142687548D01*
X116064273Y-81616236D02*
X116092904Y-81739617D01*
X180751584Y-88805421D02*
X180698702Y-88690328D01*
X169435796Y-65344569D02*
X169441752Y-65392788D01*
X120462742Y-47613869D02*
X120462953Y-47613979D01*
X166190468Y-83862151D02*
X166199573Y-83853510D01*
X116086228Y-105905635D02*
X116086331Y-105905867D01*
X169539909Y-142782252D02*
X169540021Y-142782413D01*
X131007368Y-27297380D02*
X130992125Y-27343519D01*
X178615988Y-83935780D02*
X178616236Y-83935726D01*
X180817353Y-88970071D02*
X180817268Y-88969833D01*
X113019025Y-32178138D02*
X113010718Y-32130262D01*
X180967005Y-81441716D02*
X180983007Y-81316071D01*
X179846136Y-28635678D02*
X179845937Y-28635520D01*
X165739843Y-84421969D02*
X165756404Y-84376149D01*
X116097014Y-105929111D02*
X116107946Y-105951396D01*
X113892963Y-42979770D02*
X113941423Y-42976195D01*
X116000000Y-65506333D02*
X116000000Y-67709877D01*
X178316071Y-28016992D02*
X178315820Y-28016963D01*
X130883152Y-86560012D02*
X130855173Y-86599740D01*
X118085491Y-28140649D02*
X118085245Y-28140724D01*
X131144736Y-84689301D02*
X131158217Y-84735426D01*
X120670257Y-123241695D02*
X120670081Y-123241854D01*
X115710033Y-102264966D02*
X115743539Y-102300158D01*
X166640570Y-123789887D02*
X166675761Y-123756390D01*
X116997489Y-87749867D02*
X116978544Y-87766498D01*
X130300549Y-25029671D02*
X130347380Y-25042631D01*
X183203138Y-37780974D02*
X183155262Y-37789281D01*
X116664682Y-47441849D02*
X116688649Y-47450041D01*
X180552359Y-88424025D02*
X180552228Y-88423808D01*
X116478223Y-29334980D02*
X116478077Y-29335192D01*
X183998804Y-73741423D02*
X184000000Y-73790122D01*
X116460458Y-64658327D02*
X116439309Y-64672265D01*
X113439987Y-102141847D02*
X113481039Y-102115851D01*
X169714368Y-142937267D02*
X169714541Y-142937359D01*
X116525926Y-106380212D02*
X116548377Y-106391939D01*
X169885064Y-142991697D02*
X169897509Y-142993336D01*
X116393342Y-88466969D02*
X116393207Y-88467188D01*
X163592631Y-145297426D02*
X163579671Y-145250595D01*
X165898111Y-85344137D02*
X165869111Y-85304987D01*
X169667073Y-142908086D02*
X169691756Y-142924114D01*
X178441967Y-142966970D02*
X178466503Y-142963211D01*
X117487741Y-87401656D02*
X117375225Y-87469156D01*
X131050474Y-85500730D02*
X131050377Y-85501212D01*
X178315820Y-142983036D02*
X178316071Y-142983007D01*
X120126415Y-64491653D02*
X120126180Y-64491683D01*
X113224721Y-32613047D02*
X113194826Y-32574740D01*
X180552228Y-141576191D02*
X180552359Y-141575974D01*
X163625362Y-143611190D02*
X163645053Y-143566767D01*
X131091111Y-84555603D02*
X131111143Y-84599284D01*
X180858399Y-81909836D02*
X180865830Y-81886152D01*
X113224721Y-25361952D02*
X113256460Y-25325158D01*
X119006432Y-87000000D02*
X119006304Y-87000000D01*
X116993668Y-123500160D02*
X116962015Y-123500962D01*
X180940824Y-30408574D02*
X180940776Y-30408325D01*
X180966970Y-89558032D02*
X180963211Y-89533496D01*
X116548603Y-47392053D02*
X116570888Y-47402985D01*
X169156507Y-64789900D02*
X169190012Y-64825084D01*
X120945984Y-63823221D02*
X120945907Y-63823446D01*
X116620327Y-141826309D02*
X116635520Y-141845937D01*
X169625391Y-142876091D02*
X169625592Y-142876259D01*
X116233567Y-29766450D02*
X116180917Y-29886633D01*
X116284165Y-64802075D02*
X116283988Y-64802256D01*
X179309899Y-28301405D02*
X179309671Y-28301297D01*
X115009877Y-91975000D02*
X113990122Y-91975000D01*
X116076342Y-46882591D02*
X116076439Y-46882825D01*
X115980974Y-102771861D02*
X115989281Y-102819737D01*
X116993794Y-64500158D02*
X116993668Y-64500160D01*
X181095053Y-132366721D02*
X181116900Y-132323318D01*
X116266714Y-47179566D02*
X116266886Y-47179752D01*
X115388855Y-127624637D02*
X115343519Y-127642125D01*
X183343519Y-145942171D02*
X183297380Y-145957414D01*
X116238524Y-141171537D02*
X116248312Y-141194347D01*
X181611144Y-72875362D02*
X181656480Y-72857874D01*
X113439987Y-91808152D02*
X113400259Y-91780173D01*
X165985008Y-142980022D02*
X165985196Y-142979963D01*
X179944299Y-87715719D02*
X179846136Y-87635678D01*
X113095053Y-68133278D02*
X113075362Y-68088855D01*
X116116332Y-30057473D02*
X116076309Y-30182429D01*
X115560012Y-137866847D02*
X115599740Y-137894826D01*
X180935726Y-140616236D02*
X180935780Y-140615988D01*
X181990122Y-131800000D02*
X183009877Y-131800000D01*
X188999702Y-150992182D02*
X188999798Y-150991701D01*
X130724841Y-86743539D02*
X130688047Y-86775278D01*
X183980974Y-145203184D02*
X183970328Y-145250595D01*
X116302256Y-123783988D02*
X116302075Y-123784165D01*
X116754456Y-87986463D02*
X116667774Y-88084962D01*
X120774841Y-47868352D02*
X120805699Y-47908217D01*
X188998394Y-20004704D02*
X188998121Y-20004296D01*
X120928398Y-63870720D02*
X120928310Y-63870940D01*
X113075362Y-68088855D02*
X113057874Y-68043519D01*
X180983036Y-140315820D02*
X180985547Y-140291125D01*
X116004168Y-65411463D02*
X116002245Y-65436719D01*
X179466603Y-83616738D02*
X179466823Y-83616613D01*
X166425951Y-124110989D02*
X166445647Y-124066576D01*
X169551526Y-142797818D02*
X169551648Y-142797972D01*
X113656480Y-91917125D02*
X113611144Y-91899637D01*
X183833152Y-145560058D02*
X183805173Y-145599786D01*
X113361952Y-127475278D02*
X113325158Y-127443539D01*
X180075677Y-87834402D02*
X180057686Y-87817301D01*
X179444677Y-28371094D02*
X179332411Y-28312451D01*
X180538961Y-88402530D02*
X180469261Y-88296773D01*
X183297380Y-145957414D02*
X183250549Y-145970374D01*
X116086228Y-46905635D02*
X116086331Y-46905867D01*
X167243502Y-123504768D02*
X167291955Y-123501195D01*
X117402743Y-142539098D02*
X117423808Y-142552228D01*
X131050000Y-86009877D02*
X131048804Y-86058576D01*
X183518960Y-145859194D02*
X183476681Y-145883145D01*
X169858711Y-142987524D02*
X169858969Y-142987568D01*
X116000160Y-140006331D02*
X116003529Y-140139283D01*
X179944493Y-142284117D02*
X179963327Y-142267949D01*
X115995229Y-102867963D02*
X115998804Y-102916423D01*
X116569624Y-29207736D02*
X116554479Y-29227888D01*
X169871619Y-83990066D02*
X169872006Y-83990132D01*
X166046712Y-85497597D02*
X166046348Y-85497267D01*
X120012601Y-106500319D02*
X120025443Y-106500644D01*
X116171205Y-88910453D02*
X116124807Y-89033185D01*
X120928398Y-122870720D02*
X120928310Y-122870940D01*
X180539098Y-141597256D02*
X180552228Y-141576191D01*
X166531039Y-25140851D02*
X166573318Y-25116900D01*
X113941423Y-42976195D02*
X113990122Y-42975000D01*
X169762020Y-142959323D02*
X169770699Y-142962984D01*
X180999839Y-30993668D02*
X180996470Y-30860716D01*
X181523318Y-72916900D02*
X181566721Y-72895053D01*
X117805652Y-83751687D02*
X117828462Y-83761475D01*
X183343519Y-131857874D02*
X183388855Y-131875362D01*
X117625973Y-28327373D02*
X117510133Y-28388995D01*
X116158190Y-64960671D02*
X116145060Y-64981736D01*
X113000000Y-102965122D02*
X113000000Y-102965122D01*
X116000390Y-89499780D02*
X116000337Y-89500295D01*
X130610012Y-86833152D02*
X130568960Y-86859148D01*
X181140851Y-132281039D02*
X181166847Y-132239987D01*
X166411952Y-86775278D02*
X166375158Y-86743539D01*
X116570888Y-123597014D02*
X116548603Y-123607946D01*
X120706795Y-64206963D02*
X120670257Y-64241695D01*
X116064219Y-81615988D02*
X116064273Y-81616236D01*
X166049669Y-85503130D02*
X166049573Y-85502648D01*
X183476681Y-96683099D02*
X183433278Y-96704946D01*
X117970071Y-83817353D02*
X118089923Y-83858320D01*
X166345764Y-142513015D02*
X166345775Y-142512755D01*
X118993697Y-87000163D02*
X118993569Y-87000165D01*
X116013766Y-124336102D02*
X116013725Y-124336352D01*
X180628785Y-88555099D02*
X180616738Y-88533396D01*
X120417482Y-47591668D02*
X120462742Y-47613869D01*
X120225860Y-64473830D02*
X120176479Y-64483978D01*
X169897947Y-83993532D02*
X169907341Y-83994209D01*
X166411952Y-27775278D02*
X166375158Y-27743539D01*
X120670257Y-64241695D02*
X120670081Y-64241854D01*
X116249567Y-106160582D02*
X116249734Y-106160772D01*
X133409148Y-143481053D02*
X133433099Y-143523332D01*
X116002229Y-46563028D02*
X116002245Y-46563280D01*
X116283988Y-123802256D02*
X116266886Y-123820247D01*
X115674841Y-91718539D02*
X115638047Y-91750278D01*
X131176073Y-85164158D02*
X131166475Y-85211244D01*
X116860888Y-64509966D02*
X116836352Y-64513725D01*
X116058235Y-105835556D02*
X116066856Y-105858833D01*
X183942125Y-73456480D02*
X183957368Y-73502619D01*
X115743539Y-91649841D02*
X115710033Y-91685033D01*
X116530880Y-82703436D02*
X116545060Y-82723809D01*
X113000000Y-43965122D02*
X113000000Y-43965122D01*
X166047700Y-85498687D02*
X166047389Y-85498307D01*
X116463847Y-88356312D02*
X116393342Y-88466969D01*
X118236107Y-87097521D02*
X118211728Y-87103936D01*
X115599740Y-102169826D02*
X115638047Y-102199721D01*
X117118457Y-28649904D02*
X117098682Y-28665539D01*
X116712816Y-106457624D02*
X116737167Y-106464592D01*
X116049958Y-105811350D02*
X116058150Y-105835317D01*
X120908331Y-48082517D02*
X120908430Y-48082732D01*
X166344209Y-142542658D02*
X166344221Y-142542462D01*
X113116900Y-138223318D02*
X113140851Y-138181039D01*
X180808648Y-88946556D02*
X180808557Y-88946319D01*
X169449952Y-142490056D02*
X169450121Y-142502835D01*
X164031039Y-145859194D02*
X163989987Y-145833198D01*
X166145053Y-27433278D02*
X166125362Y-27388855D01*
X113057874Y-127043519D02*
X113042631Y-126997380D01*
X178441716Y-28032994D02*
X178316071Y-28016992D01*
X169416829Y-124249296D02*
X169427482Y-124296700D01*
X120631831Y-123274691D02*
X120631647Y-123274841D01*
X180616738Y-82466603D02*
X180628785Y-82444900D01*
X115388855Y-78775362D02*
X115433278Y-78795053D01*
X116029059Y-105738312D02*
X116029119Y-105738558D01*
X116761441Y-47470880D02*
X116761687Y-47470940D01*
X180900812Y-89236107D02*
X180900746Y-89235862D01*
X130526681Y-86883099D02*
X130483278Y-86904946D01*
X116761441Y-123529119D02*
X116737412Y-123535341D01*
X130883152Y-25439987D02*
X130909148Y-25481039D01*
X166279292Y-142749610D02*
X166285281Y-142738578D01*
X166321728Y-142654637D02*
X166321854Y-142654265D01*
X118364315Y-28067288D02*
X118364064Y-28067344D01*
X169937297Y-83995777D02*
X169962720Y-83996449D01*
X113566721Y-145904992D02*
X113523318Y-145883145D01*
X164491423Y-145998850D02*
X164442963Y-145995275D01*
X180999839Y-140006331D02*
X180999841Y-140006205D01*
X117296563Y-142469119D02*
X117296773Y-142469261D01*
X179194578Y-28248415D02*
X179194347Y-28248312D01*
X121000000Y-63487394D02*
X120999680Y-63512601D01*
X169689005Y-83922328D02*
X169711659Y-83935406D01*
X169783010Y-83967198D02*
X169783258Y-83967282D01*
X117791416Y-28250004D02*
X117791179Y-28250104D01*
X118211728Y-28103936D02*
X118211480Y-28104005D01*
X116554327Y-29228096D02*
X116478223Y-29334980D01*
X130855173Y-86599740D02*
X130825278Y-86638047D01*
X169190012Y-123825084D02*
X169221750Y-123861870D01*
X116439309Y-47327734D02*
X116460458Y-47341672D01*
X163744826Y-145599786D02*
X163716847Y-145560058D01*
X116249567Y-123839417D02*
X116233398Y-123858251D01*
X180900812Y-30236107D02*
X180900746Y-30235862D01*
X166661144Y-25075362D02*
X166706480Y-25057874D01*
X116049958Y-124188649D02*
X116049879Y-124188890D01*
X180182871Y-83057500D02*
X180267781Y-82963517D01*
X113702619Y-127657368D02*
X113656480Y-127642125D01*
X117375007Y-28469291D02*
X117353730Y-28482811D01*
X113256460Y-138025158D02*
X113289966Y-137989966D01*
X115388855Y-32899637D02*
X115343519Y-32917125D01*
X116006731Y-65386264D02*
X116006702Y-65386516D01*
X166331451Y-142619811D02*
X166338250Y-142587822D01*
X133454946Y-143566735D02*
X133474638Y-143611158D01*
X115674841Y-78956460D02*
X115710033Y-78989966D01*
X169449952Y-83490056D02*
X169450121Y-83502835D01*
X179030166Y-83817268D02*
X179053443Y-83808648D01*
X115560012Y-78866847D02*
X115599740Y-78894826D01*
X178291125Y-83985547D02*
X178315820Y-83983036D01*
X118408574Y-83940824D02*
X118533246Y-83963170D01*
X181361952Y-132024721D02*
X181400259Y-131994826D01*
X113656480Y-78757874D02*
X113702619Y-78742631D01*
X116460901Y-82597256D02*
X116461038Y-82597469D01*
X165940709Y-142990647D02*
X165940902Y-142990615D01*
X116066947Y-105859069D02*
X116076342Y-105882591D01*
X181001195Y-132741423D02*
X181004770Y-132692963D01*
X116009931Y-105638860D02*
X116009966Y-105639111D01*
X183883099Y-37276681D02*
X183859148Y-37318960D01*
X116924322Y-142165597D02*
X116942313Y-142182698D01*
X113095053Y-91408278D02*
X113075362Y-91363855D01*
X166351731Y-65441206D02*
X166355315Y-65392754D01*
X180999841Y-81006205D02*
X180999999Y-80993792D01*
X180900746Y-89235862D02*
X180865902Y-89114090D01*
X116076439Y-65117174D02*
X116076342Y-65117408D01*
X120774841Y-64131647D02*
X120774691Y-64131831D01*
X108007387Y-20000416D02*
X108006917Y-20000559D01*
X181566721Y-37704946D02*
X181523318Y-37683099D01*
X120961140Y-63774893D02*
X120961075Y-63775121D01*
X166051195Y-25941423D02*
X166054770Y-25892963D01*
X116315363Y-29603150D02*
X116315239Y-29603375D01*
X116018282Y-46689077D02*
X116023279Y-46713391D01*
X166161096Y-83888158D02*
X166170640Y-83880005D01*
X130059877Y-28000000D02*
X119006432Y-28000000D01*
X163690851Y-143481085D02*
X163716847Y-143440032D01*
X116000000Y-65506207D02*
X116000000Y-65506333D01*
X180865902Y-140885909D02*
X180900746Y-140764137D01*
X116000000Y-90984877D02*
X115998804Y-91033576D01*
X120991683Y-107373819D02*
X120996783Y-107423973D01*
X188996097Y-20002170D02*
X188995703Y-20001878D01*
X164394738Y-143010763D02*
X164442964Y-143004815D01*
X120417267Y-47591569D02*
X120417482Y-47591668D01*
X116383261Y-82466603D02*
X116383386Y-82466823D01*
X169833134Y-83982073D02*
X169833389Y-83982131D01*
X120507235Y-64361435D02*
X120507030Y-64361555D01*
X178164579Y-83995187D02*
X178290873Y-83985569D01*
X166126712Y-83913587D02*
X166150520Y-83896287D01*
X188996477Y-150997563D02*
X188996840Y-150997234D01*
X116116414Y-30057229D02*
X116116332Y-30057473D01*
X115058576Y-78701195D02*
X115107036Y-78704770D01*
X113400259Y-102169826D02*
X113439987Y-102141847D01*
X180935780Y-30384011D02*
X180935726Y-30383763D01*
X120076026Y-123496783D02*
X120075790Y-123496801D01*
X117375225Y-28469156D02*
X117375007Y-28469291D01*
X116004191Y-124411211D02*
X116004168Y-124411463D01*
X181166847Y-37360012D02*
X181140851Y-37318960D01*
X116201726Y-123898105D02*
X116186734Y-123918520D01*
X113001195Y-32033576D02*
X113000000Y-31984877D01*
X116339417Y-123749567D02*
X116339227Y-123749734D01*
X116099187Y-140763892D02*
X116099253Y-140764137D01*
X120226091Y-64473776D02*
X120225860Y-64473830D01*
X188992136Y-20000297D02*
X188991655Y-20000201D01*
X179963517Y-87732218D02*
X179963327Y-87732050D01*
X166339966Y-27710033D02*
X166306460Y-27674841D01*
X181140851Y-37318960D02*
X181116900Y-37276681D01*
X116201878Y-47102097D02*
X116217072Y-47121725D01*
X167340647Y-123500000D02*
X168456417Y-123500000D01*
X115833152Y-68260012D02*
X115805173Y-68299740D01*
X120631831Y-47725308D02*
X120670081Y-47758145D01*
X113481039Y-145859194D02*
X113439987Y-145833198D01*
X180996460Y-81139536D02*
X180996470Y-81139283D01*
X183009877Y-146000046D02*
X164540122Y-146000046D01*
X130205262Y-27989281D02*
X130157036Y-27995229D01*
X116861139Y-47490068D02*
X116886264Y-47493268D01*
X130347380Y-86957368D02*
X130300549Y-86970328D01*
X180687662Y-88667814D02*
X180687548Y-88667588D01*
X117936804Y-87191630D02*
X117913213Y-87200516D01*
X169714541Y-142937359D02*
X169722906Y-142941690D01*
X166171044Y-142879661D02*
X166180589Y-142871508D01*
X180284280Y-82944299D02*
X180364321Y-82846136D01*
X180284117Y-141944493D02*
X180284280Y-141944299D01*
X120550017Y-47665230D02*
X120550215Y-47665361D01*
X179944493Y-87715882D02*
X179944299Y-87715719D01*
X183980974Y-37003138D02*
X183970328Y-37050549D01*
X169872006Y-83990132D02*
X169881318Y-83991545D01*
X115710033Y-137989966D02*
X115743539Y-138025158D01*
X181481039Y-72940851D02*
X181523318Y-72916900D01*
X167040122Y-25000000D02*
X183009877Y-25000000D01*
X181749450Y-37770328D02*
X181702619Y-37757368D01*
X178763892Y-83900812D02*
X178764137Y-83900746D01*
X116962015Y-106499037D02*
X116993668Y-106499839D01*
X116997489Y-28749867D02*
X116978544Y-28766498D01*
X117648755Y-28315992D02*
X117626201Y-28327255D01*
X116000003Y-89512682D02*
X116000000Y-89512941D01*
X180751687Y-88805652D02*
X180751584Y-88805421D01*
X180469261Y-29296773D02*
X180469119Y-29296563D01*
X115674841Y-102231460D02*
X115710033Y-102264966D01*
X183924637Y-145388901D02*
X183904946Y-145433324D01*
X116023333Y-124286360D02*
X116023279Y-124286608D01*
X113941423Y-145998850D02*
X113892963Y-145995275D01*
X166342450Y-83561804D02*
X166343496Y-83552443D01*
X181224721Y-73161952D02*
X181256460Y-73125158D01*
X113256460Y-91649841D02*
X113224721Y-91613047D01*
X169646127Y-142892882D02*
X169656086Y-142900523D01*
X180267781Y-141963517D02*
X180267949Y-141963327D01*
X120886020Y-107037046D02*
X120886130Y-107037257D01*
X113400259Y-25194826D02*
X113439987Y-25166847D01*
X117912974Y-87200610D02*
X117791416Y-87250004D01*
X120973776Y-122726091D02*
X120961140Y-122774893D01*
X168697061Y-64529664D02*
X168743887Y-64542621D01*
X180817353Y-29970071D02*
X180817268Y-29969833D01*
X116076342Y-124117408D02*
X116066947Y-124140930D01*
X116667607Y-29085158D02*
X116651445Y-29104505D01*
X117423808Y-83552228D02*
X117424025Y-83552359D01*
X115970328Y-32225549D02*
X115957368Y-32272380D01*
X166126697Y-142913907D02*
X166126860Y-142913797D01*
X178315820Y-83983036D02*
X178316071Y-83983007D01*
X180284117Y-88055506D02*
X180267949Y-88036672D01*
X179703436Y-87530880D02*
X179703226Y-87530738D01*
X113004770Y-145107082D02*
X113001195Y-145058622D01*
X181481039Y-37659148D02*
X181439987Y-37633152D01*
X108000000Y-150987773D02*
X108000003Y-150988018D01*
X116504000Y-123631954D02*
X116503780Y-123632080D01*
X113116900Y-25523318D02*
X113140851Y-25481039D01*
X116002660Y-89487335D02*
X116002610Y-89487588D01*
X116000000Y-79690122D02*
X116000000Y-80993666D01*
X180761572Y-141171303D02*
X180808557Y-141053680D01*
X180963211Y-140466503D02*
X180966970Y-140441967D01*
X188987727Y-20000000D02*
X108012272Y-20000000D01*
X166060718Y-25844737D02*
X166069025Y-25796861D01*
X116993794Y-47499841D02*
X117006207Y-47499999D01*
X166329173Y-83629556D02*
X166329269Y-83629175D01*
X120706963Y-106793204D02*
X120741695Y-106829742D01*
X180469119Y-29296563D02*
X180454939Y-29276190D01*
X113166847Y-43414987D02*
X113194826Y-43375259D01*
X180865902Y-89114090D02*
X180865830Y-89113847D01*
X179826309Y-83379672D02*
X179845937Y-83364479D01*
X164206480Y-145942171D02*
X164161144Y-145924683D01*
X169449951Y-142489926D02*
X169449952Y-142490056D01*
X169493299Y-83699561D02*
X169493454Y-83699922D01*
X115859148Y-91493960D02*
X115833152Y-91535012D01*
X115998804Y-32033576D02*
X115995229Y-32082036D01*
X113140851Y-102456039D02*
X113166847Y-102414987D01*
X130649740Y-25194826D02*
X130688047Y-25224721D01*
X165844509Y-84202647D02*
X165871733Y-84162242D01*
X116036788Y-81466503D02*
X116036829Y-81466753D01*
X166607065Y-64825070D02*
X166640570Y-64789887D01*
X169846368Y-142985236D02*
X169858711Y-142987524D01*
X118060983Y-87148466D02*
X117937046Y-87191542D01*
X166150730Y-83896130D02*
X166160689Y-83888488D01*
X180687548Y-88667588D02*
X180628905Y-88555322D01*
X166369588Y-65296668D02*
X166380243Y-65249266D01*
X116664443Y-47441764D02*
X116664682Y-47441849D01*
X120226091Y-123473776D02*
X120225860Y-123473830D01*
X116911211Y-47495808D02*
X116911463Y-47495831D01*
X120991683Y-63626180D02*
X120991653Y-63626415D01*
X169459136Y-83590945D02*
X169461035Y-83600170D01*
X166324763Y-83645101D02*
X166326622Y-83638827D01*
X116092904Y-140739617D02*
X116092965Y-140739863D01*
X120591782Y-106694300D02*
X120631647Y-106725158D01*
X120886130Y-107037257D02*
X120908331Y-107082517D01*
X169587483Y-142840083D02*
X169587665Y-142840270D01*
X169587848Y-83840468D02*
X169596489Y-83849573D01*
X178910076Y-87141679D02*
X178909836Y-87141600D01*
X115957368Y-32272380D02*
X115942125Y-32318519D01*
X115942125Y-79356480D02*
X115957368Y-79402619D01*
X116119787Y-46974073D02*
X116119908Y-46974296D01*
X115883099Y-43498318D02*
X115904946Y-43541721D01*
X164073318Y-145883145D02*
X164031039Y-145859194D01*
X120973830Y-48274139D02*
X120983978Y-48323520D01*
X113140851Y-138181039D02*
X113166847Y-138139987D01*
X178006313Y-142999839D02*
X178006442Y-142999836D01*
X130974637Y-25611144D02*
X130992125Y-25656480D01*
X131030974Y-25796861D02*
X131039281Y-25844737D01*
X166285827Y-83738276D02*
X166297470Y-83715423D01*
X166054770Y-25892963D02*
X166060718Y-25844737D01*
X116014452Y-140291125D02*
X116016963Y-140315820D01*
X116911463Y-106495831D02*
X116936719Y-106497754D01*
X116119908Y-65025703D02*
X116119787Y-65025926D01*
X116116332Y-89057473D02*
X116076309Y-89182429D01*
X169450389Y-83512998D02*
X169450822Y-83522407D01*
X166790582Y-64666800D02*
X166831631Y-64640811D01*
X116141679Y-81910076D02*
X116182646Y-82029928D01*
X180687548Y-29667588D02*
X180628905Y-29555322D01*
X179194347Y-142751687D02*
X179194578Y-142751584D01*
X116029119Y-46738558D02*
X116035341Y-46762587D01*
X116924322Y-83165597D02*
X116942313Y-83182698D01*
X180075858Y-28834579D02*
X180075677Y-28834402D01*
X180075677Y-142165597D02*
X180075858Y-142165420D01*
X120706963Y-64206795D02*
X120706795Y-64206963D01*
X116418520Y-47313265D02*
X116418726Y-47313412D01*
X118408574Y-142940824D02*
X118533246Y-142963170D01*
X181001195Y-73741423D02*
X181004770Y-73692963D01*
X113796861Y-32955974D02*
X113749450Y-32945328D01*
X183710033Y-132089966D02*
X183743539Y-132125158D01*
X116460671Y-64658190D02*
X116460458Y-64658327D01*
X178886152Y-87134169D02*
X178885909Y-87134097D01*
X116076439Y-105882825D02*
X116086228Y-105905635D01*
X180999839Y-89993668D02*
X180996470Y-89860716D01*
X113004770Y-91082036D02*
X113001195Y-91033576D01*
X181400259Y-96605173D02*
X181361952Y-96575278D01*
X178316071Y-83983007D02*
X178441716Y-83967005D01*
X181000000Y-139993666D02*
X181000000Y-132790122D01*
X118835420Y-83995187D02*
X118835673Y-83995203D01*
X130201393Y-84000011D02*
X130249555Y-84001180D01*
X164206480Y-143057919D02*
X164252619Y-143042677D01*
X116000160Y-65493668D02*
X116000158Y-65493794D01*
X116617408Y-123576342D02*
X116617174Y-123576439D01*
X116144929Y-64981953D02*
X116132080Y-65003780D01*
X131050377Y-85501212D02*
X131050305Y-85501699D01*
X169700258Y-142929394D02*
X169708446Y-142934049D01*
X178910076Y-83858320D02*
X179029928Y-83817353D01*
X183560012Y-37633152D02*
X183518960Y-37659148D01*
X115805173Y-127299740D02*
X115775278Y-127338047D01*
X169897556Y-83993496D02*
X169897947Y-83993532D01*
X169456280Y-83574444D02*
X169456336Y-83574832D01*
X108000416Y-150992658D02*
X108000559Y-150993128D01*
X179963327Y-83267949D02*
X179963517Y-83267781D01*
X108000057Y-20009809D02*
X108000003Y-20012027D01*
X116186587Y-64918726D02*
X116172407Y-64939099D01*
X115560012Y-91808152D02*
X115518960Y-91834148D01*
X118674130Y-87017761D02*
X118673875Y-87017791D01*
X183883099Y-73323318D02*
X183904946Y-73366721D01*
X115009877Y-42975000D02*
X115058576Y-42976195D01*
X115995229Y-138592963D02*
X115998804Y-138641423D01*
X116029674Y-30358750D02*
X116029618Y-30359001D01*
X116737412Y-47464658D02*
X116761441Y-47470880D01*
X116201726Y-64898105D02*
X116186734Y-64918520D01*
X108003522Y-150997563D02*
X108003902Y-150997875D01*
X108003159Y-150997234D02*
X108003522Y-150997563D01*
X120908430Y-48082732D02*
X120928310Y-48129059D01*
X181702619Y-37757368D02*
X181656480Y-37742125D01*
X118993794Y-142999841D02*
X119006207Y-142999999D01*
X113439987Y-127533152D02*
X113400259Y-127505173D01*
X115998804Y-79641423D02*
X116000000Y-79690122D01*
X133293539Y-143325172D02*
X133325278Y-143361966D01*
X133492125Y-145343565D02*
X133474637Y-145388901D01*
X117006207Y-64500000D02*
X116993794Y-64500158D01*
X115805173Y-43375259D02*
X115833152Y-43414987D01*
X116018282Y-65310922D02*
X116018235Y-65311171D01*
X166531039Y-86859148D02*
X166489987Y-86833152D01*
X166351731Y-124441206D02*
X166355315Y-124392754D01*
X130483278Y-86904946D02*
X130438855Y-86924637D01*
X116303373Y-88625617D02*
X116303255Y-88625846D01*
X181844737Y-96789281D02*
X181796861Y-96780974D01*
X120996783Y-107423973D02*
X120996801Y-107424209D01*
X180616613Y-141466823D02*
X180616738Y-141466603D01*
X166326622Y-83638827D02*
X166326676Y-83638638D01*
X188992612Y-150999629D02*
X188993082Y-150999486D01*
X166140069Y-142904491D02*
X166140383Y-142904256D01*
X169461035Y-142600170D02*
X169461121Y-142600553D01*
X113000000Y-79690122D02*
X113000000Y-79690122D01*
X117805652Y-142751687D02*
X117828462Y-142761475D01*
X183970328Y-73549450D02*
X183980974Y-73596861D01*
X116664443Y-123558235D02*
X116641166Y-123566856D01*
X116993668Y-47499839D02*
X116993794Y-47499841D01*
X188992136Y-150999748D02*
X188992612Y-150999629D01*
X163554770Y-145107082D02*
X163551195Y-145058622D01*
X116548603Y-123607946D02*
X116548377Y-123608060D01*
X181140851Y-96318960D02*
X181116900Y-96276681D01*
X117791416Y-87250004D02*
X117791179Y-87250104D01*
X180761475Y-29828462D02*
X180751687Y-29805652D01*
X181194826Y-96399740D02*
X181166847Y-96360012D01*
X183904946Y-73366721D02*
X183924637Y-73411144D01*
X131188365Y-85068866D02*
X131183376Y-85116661D01*
X113941423Y-127698804D02*
X113892963Y-127695229D01*
X166338250Y-142587822D02*
X166338289Y-142587630D01*
X116817301Y-83057686D02*
X116834402Y-83075677D01*
X116141600Y-140909836D02*
X116141679Y-140910076D01*
X120834769Y-123050017D02*
X120834638Y-123050215D01*
X116186734Y-47081479D02*
X116201726Y-47101894D01*
X116571117Y-47403093D02*
X116594132Y-47413668D01*
X117244408Y-87556296D02*
X117223855Y-87570893D01*
X188999798Y-20008344D02*
X188999702Y-20007863D01*
X115989281Y-138544737D02*
X115995229Y-138592963D01*
X130439459Y-84029034D02*
X130485811Y-84041713D01*
X183805173Y-96399740D02*
X183775278Y-96438047D01*
X133548804Y-143941436D02*
X133550000Y-143990136D01*
X166675761Y-123756390D02*
X166712553Y-123724659D01*
X178164326Y-83995203D02*
X178164579Y-83995187D01*
X131045229Y-86107036D02*
X131039281Y-86155262D01*
X116009966Y-65360888D02*
X116009931Y-65361139D01*
X188990681Y-150999964D02*
X188991169Y-150999916D01*
X180379825Y-141826106D02*
X180454792Y-141724015D01*
X180858399Y-89090163D02*
X180858320Y-89089923D01*
X120370720Y-123428398D02*
X120323446Y-123445907D01*
X116481953Y-47355070D02*
X116503780Y-47367919D01*
X183599740Y-37605173D02*
X183560012Y-37633152D01*
X166607065Y-123825070D02*
X166640570Y-123789887D01*
X181361952Y-37575278D02*
X181325158Y-37543539D01*
X116092965Y-81739863D02*
X116099187Y-81763892D01*
X183155262Y-145989327D02*
X183107036Y-145995275D01*
X113000000Y-126709877D02*
X113000000Y-102965122D01*
X166132413Y-142909978D02*
X166140069Y-142904491D01*
X166051195Y-27058576D02*
X166050000Y-27009877D01*
X166491451Y-123980913D02*
X166517450Y-123939870D01*
X113656480Y-68642125D02*
X113611144Y-68624637D01*
X178164579Y-28004812D02*
X178164326Y-28004796D01*
X116358251Y-47266601D02*
X116358445Y-47266763D01*
X179846136Y-142364321D02*
X179944299Y-142284280D01*
X115833152Y-91535012D02*
X115805173Y-91574740D01*
X169635747Y-83884918D02*
X169645706Y-83892559D01*
X116191442Y-82053680D02*
X116238427Y-82171303D01*
X115433278Y-102070053D02*
X115476681Y-102091900D01*
X180940824Y-140591425D02*
X180963170Y-140466753D01*
X120370940Y-64428310D02*
X120370720Y-64428398D01*
X169536092Y-142776697D02*
X169536202Y-142776860D01*
X116834579Y-83075858D02*
X116924141Y-83165420D01*
X178164579Y-87004812D02*
X178164326Y-87004796D01*
X113010718Y-102819737D02*
X113019025Y-102771861D01*
X180552228Y-29423808D02*
X180539098Y-29402743D01*
X116301297Y-82309671D02*
X116301405Y-82309899D01*
X130249555Y-84001180D02*
X130297482Y-84004676D01*
X120176246Y-106515979D02*
X120176479Y-106516021D01*
X183998804Y-95858576D02*
X183995229Y-95907036D01*
X130688047Y-27775278D02*
X130649740Y-27805173D01*
X131050737Y-85499782D02*
X131050593Y-85500253D01*
X179944299Y-142284280D02*
X179944493Y-142284117D01*
X166069025Y-25796861D02*
X166079671Y-25749450D01*
X113010718Y-43819737D02*
X113019025Y-43771861D01*
X120834769Y-64050017D02*
X120834638Y-64050215D01*
X188999996Y-20012027D02*
X188999942Y-20009809D01*
X115710033Y-78989966D02*
X115743539Y-79025158D01*
X183155262Y-72810718D02*
X183203138Y-72819025D01*
X116911463Y-64504168D02*
X116911211Y-64504191D01*
X183638047Y-132024721D02*
X183674841Y-132056460D01*
X165859542Y-142999359D02*
X165885640Y-142997989D01*
X115155262Y-78710718D02*
X115203138Y-78719025D01*
X183388855Y-96724637D02*
X183343519Y-96742125D01*
X131030974Y-27203138D02*
X131020328Y-27250549D01*
X116339227Y-106250265D02*
X116339417Y-106250432D01*
X180687662Y-141332185D02*
X180698594Y-141309899D01*
X130253138Y-86980974D02*
X130205262Y-86989281D01*
X178466503Y-142963211D02*
X178466753Y-142963170D01*
X113224721Y-127338047D02*
X113194826Y-127299740D01*
X115904946Y-32408278D02*
X115883099Y-32451681D01*
X130347380Y-25042631D02*
X130393519Y-25057874D01*
X179444677Y-87371094D02*
X179332411Y-87312451D01*
X115155262Y-137710718D02*
X115203138Y-137719025D01*
X179597256Y-87460901D02*
X179576191Y-87447771D01*
X166846861Y-86980974D02*
X166799450Y-86970328D01*
X117006207Y-123500000D02*
X116993794Y-123500158D01*
X180057500Y-142182871D02*
X180057686Y-142182698D01*
X178139283Y-28003529D02*
X178006331Y-28000160D01*
X166324706Y-142645288D02*
X166324763Y-142645101D01*
X108006002Y-20000912D02*
X108005558Y-20001122D01*
X169451649Y-83532183D02*
X169451667Y-83532379D01*
X169667079Y-83908090D02*
X169667292Y-83908241D01*
X180900812Y-81763892D02*
X180907034Y-81739863D01*
X178315820Y-28016963D02*
X178291125Y-28014452D01*
X113611144Y-145924683D02*
X113566721Y-145904992D01*
X113400259Y-91780173D02*
X113361952Y-91750278D01*
X116191442Y-141053680D02*
X116238427Y-141171303D01*
X118684179Y-83983036D02*
X118708874Y-83985547D01*
X120075790Y-106503198D02*
X120076026Y-106503216D01*
X131085015Y-85436686D02*
X131062242Y-85479140D01*
X179575974Y-142552359D02*
X179576191Y-142552228D01*
X108000003Y-150988018D02*
X108000057Y-150990236D01*
X116320433Y-106233285D02*
X116339227Y-106250265D01*
X169504550Y-83723181D02*
X169504733Y-83723528D01*
X165950560Y-142988882D02*
X165959759Y-142986862D01*
X183058576Y-131801195D02*
X183107036Y-131804770D01*
X116667774Y-88084962D02*
X116667607Y-88085158D01*
X180983036Y-30684179D02*
X180983007Y-30683928D01*
X116000972Y-46538238D02*
X116002229Y-46563028D01*
X169121316Y-123756401D02*
X169156507Y-123789900D01*
X113325158Y-43231460D02*
X113361952Y-43199721D01*
X115009877Y-32975000D02*
X113990122Y-32975000D01*
X113140851Y-43456039D02*
X113166847Y-43414987D01*
X116058235Y-65164443D02*
X116058150Y-65164682D01*
X165817060Y-85222646D02*
X165794135Y-85179655D01*
X131020328Y-86250549D02*
X131007368Y-86297380D01*
X113481039Y-91834148D02*
X113439987Y-91808152D01*
X116186587Y-47081273D02*
X116186734Y-47081479D01*
X116393207Y-88467188D02*
X116380212Y-88488790D01*
X113001195Y-126758576D02*
X113000000Y-126709877D01*
X116180817Y-29886870D02*
X116171299Y-29910213D01*
X131050903Y-85499319D02*
X131050737Y-85499782D01*
X116099253Y-140764137D02*
X116134097Y-140885909D01*
X116594132Y-64586331D02*
X116571117Y-64596906D01*
X166297278Y-142715039D02*
X166297394Y-142714804D01*
X169615845Y-142867939D02*
X169625391Y-142876091D01*
X116096906Y-105928882D02*
X116097014Y-105929111D01*
X180907034Y-89260136D02*
X180900812Y-89236107D01*
X163774722Y-143361997D02*
X163806460Y-143325204D01*
X179826309Y-87620327D02*
X179826106Y-87620174D01*
X169046219Y-64694781D02*
X169084523Y-64724669D01*
X113001195Y-43916423D02*
X113004770Y-43867963D01*
X130483278Y-25095053D02*
X130526681Y-25116900D01*
X116439099Y-64672407D02*
X116418726Y-64686587D01*
X181656480Y-131857874D02*
X181702619Y-131842631D01*
X164491424Y-143001241D02*
X164540123Y-143000045D01*
X116688649Y-64549958D02*
X116664682Y-64558150D01*
X116886264Y-106493268D02*
X116886516Y-106493297D01*
X113439987Y-145833198D02*
X113400259Y-145805219D01*
X179309671Y-83698702D02*
X179309899Y-83698594D01*
X178739617Y-83907095D02*
X178739863Y-83907034D01*
X115942125Y-91318519D02*
X115924637Y-91363855D01*
X169551648Y-142797972D02*
X169570171Y-142820843D01*
X120075790Y-64496801D02*
X120025443Y-64499355D01*
X181256460Y-96474841D02*
X181224721Y-96438047D01*
X180817268Y-82030166D02*
X180817353Y-82029928D01*
X113140851Y-25481039D02*
X113166847Y-25439987D01*
X166150520Y-83896287D02*
X166150730Y-83896130D01*
X116233674Y-29766216D02*
X116233567Y-29766450D01*
X169450389Y-142512998D02*
X169450822Y-142522407D01*
X116834579Y-142075858D02*
X116924141Y-142165420D01*
X166166900Y-86476681D02*
X166145053Y-86433278D01*
X120886130Y-63962742D02*
X120886020Y-63962953D01*
X188999440Y-150993128D02*
X188999583Y-150992658D01*
X183833152Y-37360012D02*
X183805173Y-37399740D01*
X116217229Y-64878075D02*
X116217072Y-64878274D01*
X116004191Y-105588788D02*
X116006702Y-105613483D01*
X180999839Y-81006331D02*
X180999841Y-81006205D01*
X120417482Y-106591668D02*
X120462742Y-106613869D01*
X116817301Y-142057686D02*
X116834402Y-142075677D01*
X119006207Y-83999999D02*
X119006333Y-84000000D01*
X113010718Y-32130262D02*
X113004770Y-32082036D01*
X180538961Y-82597469D02*
X180539098Y-82597256D01*
X169221750Y-123861870D02*
X169251646Y-123900169D01*
X164299450Y-145970374D02*
X164252619Y-145957414D01*
X113566721Y-127604946D02*
X113523318Y-127583099D01*
X113656480Y-102032874D02*
X113702619Y-102017631D01*
X169937038Y-142995767D02*
X169937297Y-142995777D01*
X115957368Y-102677619D02*
X115970328Y-102724450D01*
X113892963Y-91970229D02*
X113844737Y-91964281D01*
X113796861Y-91955974D02*
X113749450Y-91945328D01*
X116201726Y-47101894D02*
X116201878Y-47102097D01*
X116460671Y-123658190D02*
X116460458Y-123658327D01*
X120741695Y-106829742D02*
X120741854Y-106829918D01*
X118860716Y-142996470D02*
X118993668Y-142999839D01*
X169569994Y-83820640D02*
X169570166Y-83820837D01*
X113019025Y-102771861D02*
X113029671Y-102724450D01*
X183203138Y-25019025D02*
X183250549Y-25029671D01*
X132753138Y-145981020D02*
X132705262Y-145989327D01*
X118364064Y-28067344D02*
X118236357Y-28097459D01*
X115250549Y-43004671D02*
X115297380Y-43017631D01*
X108006455Y-20000724D02*
X108006002Y-20000912D01*
X133383152Y-145560058D02*
X133355173Y-145599786D01*
X166272332Y-142760988D02*
X166272472Y-142760766D01*
X169371123Y-124111014D02*
X169388616Y-124156342D01*
X180469261Y-141703226D02*
X180538961Y-141597469D01*
X165819305Y-84244343D02*
X165844509Y-84202647D01*
X181749450Y-72829671D02*
X181796861Y-72819025D01*
X181702619Y-96757368D02*
X181656480Y-96742125D01*
X113001195Y-91033576D02*
X113000000Y-90984877D01*
X116145060Y-106018263D02*
X116158190Y-106039328D01*
X117913213Y-87200516D02*
X117912974Y-87200610D01*
X116810922Y-123518282D02*
X116786608Y-123523279D01*
X116911211Y-64504191D02*
X116886516Y-64506702D01*
X116863758Y-87873504D02*
X116863576Y-87873686D01*
X181042631Y-96097380D02*
X181029671Y-96050549D01*
X183155262Y-96789281D02*
X183107036Y-96795229D01*
X116108060Y-124048377D02*
X116107946Y-124048603D01*
X166073521Y-142945102D02*
X166084553Y-142939112D01*
X130568960Y-25140851D02*
X130610012Y-25166847D01*
X116667774Y-29084962D02*
X116667607Y-29085158D01*
X169451649Y-142532183D02*
X169451667Y-142532379D01*
X169479130Y-142663178D02*
X169489679Y-142690654D01*
X166298994Y-83712236D02*
X166299077Y-83712058D01*
X180985547Y-140291125D02*
X180985569Y-140290873D01*
X169461035Y-83600170D02*
X169461121Y-83600553D01*
X115995229Y-32082036D02*
X115989281Y-32130262D01*
X169403863Y-124202473D02*
X169416829Y-124249296D01*
X113075362Y-91363855D02*
X113057874Y-91318519D01*
X180940824Y-89408574D02*
X180940776Y-89408325D01*
X165703160Y-84902930D02*
X165696103Y-84854723D01*
X116786608Y-47476720D02*
X116810922Y-47481717D01*
X165712581Y-84950732D02*
X165703160Y-84902930D01*
X166048749Y-85500343D02*
X166048517Y-85499910D01*
X116688649Y-106450041D02*
X116688890Y-106450120D01*
X130992125Y-25656480D02*
X131007368Y-25702619D01*
X116398105Y-123701726D02*
X116397902Y-123701878D01*
X113796861Y-101994025D02*
X113844737Y-101985718D01*
X118060983Y-28148466D02*
X117937046Y-28191542D01*
X120225860Y-47526169D02*
X120226091Y-47526223D01*
X116836102Y-106486233D02*
X116836352Y-106486274D01*
X115743539Y-79025158D02*
X115775278Y-79061952D01*
X179597256Y-28460901D02*
X179576191Y-28447771D01*
X117276190Y-83454939D02*
X117296563Y-83469119D01*
X113361952Y-68475278D02*
X113325158Y-68443539D01*
X166110268Y-142924267D02*
X166110437Y-142924167D01*
X120670081Y-47758145D02*
X120670257Y-47758304D01*
X120945984Y-107176778D02*
X120961075Y-107224878D01*
X116761687Y-123529059D02*
X116761441Y-123529119D01*
X166341545Y-83568681D02*
X166341572Y-83568486D01*
X113116900Y-68176681D02*
X113095053Y-68133278D01*
X116836352Y-64513725D02*
X116836102Y-64513766D01*
X118558032Y-83966970D02*
X118558283Y-83967005D01*
X116460458Y-47341672D02*
X116460671Y-47341809D01*
X113481039Y-68559148D02*
X113439987Y-68533152D01*
X117423808Y-142552228D02*
X117424025Y-142552359D01*
X116023333Y-105713639D02*
X116029059Y-105738312D01*
X116249734Y-47160772D02*
X116266714Y-47179566D01*
X166046348Y-85497267D02*
X166032343Y-85485186D01*
X113566721Y-25095053D02*
X113611144Y-25075362D01*
X116158327Y-106039541D02*
X116172265Y-106060690D01*
X108006455Y-150999321D02*
X108006917Y-150999486D01*
X117153863Y-83364321D02*
X117154062Y-83364479D01*
X116548377Y-123608060D02*
X116525926Y-123619787D01*
X116000972Y-65461761D02*
X116000962Y-65462015D01*
X116000000Y-30512941D02*
X116000000Y-31984877D01*
X166297470Y-83715423D02*
X166297586Y-83715189D01*
X117353730Y-87482811D02*
X117353514Y-87482952D01*
X116069164Y-89206873D02*
X116069095Y-89207121D01*
X169279627Y-123939889D02*
X169305625Y-123980934D01*
X179944493Y-83284117D02*
X179963327Y-83267949D01*
X120507235Y-106638564D02*
X120550017Y-106665230D01*
X116961761Y-64500972D02*
X116936971Y-64502229D01*
X169457905Y-142584319D02*
X169459098Y-142590752D01*
X169723258Y-142941863D02*
X169731785Y-142945862D01*
X181000000Y-90006333D02*
X180999999Y-90006207D01*
X179309899Y-83698594D02*
X179332185Y-83687662D01*
X169536202Y-142776860D02*
X169539909Y-142782252D01*
X166306460Y-25325158D02*
X166339966Y-25289966D01*
X130883152Y-27560012D02*
X130855173Y-27599740D01*
X180628905Y-88555322D02*
X180628785Y-88555099D01*
X131158217Y-84735426D02*
X131169443Y-84782151D01*
X181481039Y-131940851D02*
X181523318Y-131916900D01*
X120834769Y-47949982D02*
X120861435Y-47992764D01*
X165833333Y-143000046D02*
X165833595Y-143000043D01*
X113224721Y-145638093D02*
X113194826Y-145599786D01*
X179963327Y-28732050D02*
X179944493Y-28715882D01*
X118518585Y-87038538D02*
X118518332Y-87038581D01*
X166408458Y-124156315D02*
X166425951Y-124110989D01*
X181749450Y-131829671D02*
X181796861Y-131819025D01*
X113325158Y-68443539D02*
X113289966Y-68410033D01*
X179444677Y-83628905D02*
X179444900Y-83628785D01*
X169881513Y-83991572D02*
X169888000Y-83992426D01*
X180267781Y-88036482D02*
X180182871Y-87942499D01*
X113256460Y-43300158D02*
X113289966Y-43264966D01*
X167007051Y-64557857D02*
X167053184Y-64542619D01*
X183433278Y-72895053D02*
X183476681Y-72916900D01*
X116635520Y-82845937D02*
X116635678Y-82846136D01*
X116320433Y-64766714D02*
X116320247Y-64766886D01*
X115250549Y-102004671D02*
X115297380Y-102017631D01*
X116962015Y-47499037D02*
X116993668Y-47499839D01*
X113194826Y-145599786D02*
X113166847Y-145560058D01*
X116570888Y-64597014D02*
X116548603Y-64607946D01*
X166049454Y-85502172D02*
X166049312Y-85501702D01*
X169606163Y-142858766D02*
X169606350Y-142858949D01*
X181019025Y-73596861D02*
X181029671Y-73549450D01*
X169435796Y-124344569D02*
X169441752Y-124392788D01*
X166545431Y-64900152D02*
X166575327Y-64861855D01*
X113116900Y-79223318D02*
X113140851Y-79181039D01*
X180364321Y-88153863D02*
X180284280Y-88055700D01*
X120886020Y-122962953D02*
X120861555Y-123007030D01*
X116936971Y-123502229D02*
X116936719Y-123502245D01*
X120274893Y-47538859D02*
X120275121Y-47538924D01*
X166343532Y-142552052D02*
X166344209Y-142542658D01*
X120706963Y-47793204D02*
X120741695Y-47829742D01*
X113095053Y-145433324D02*
X113075362Y-145388901D01*
X132847380Y-145957414D02*
X132800549Y-145970374D01*
X117296563Y-83469119D02*
X117296773Y-83469261D01*
X118993569Y-87000165D02*
X118855971Y-87003706D01*
X116418726Y-64686587D02*
X116418520Y-64686734D01*
X120323221Y-47554015D02*
X120323446Y-47554092D01*
X179332185Y-142687662D02*
X179332411Y-142687548D01*
X166338289Y-142587630D02*
X166340066Y-142578380D01*
X120176479Y-64483978D02*
X120176246Y-64484020D01*
X116886516Y-106493297D02*
X116911211Y-106495808D01*
X117768076Y-87260192D02*
X117767842Y-87260298D01*
X117098482Y-28665701D02*
X116997684Y-28749699D01*
X166050000Y-85512295D02*
X166049996Y-85512050D01*
X166037351Y-142961599D02*
X166037592Y-142961496D01*
X120417267Y-106591569D02*
X120417482Y-106591668D01*
X116418726Y-123686587D02*
X116418520Y-123686734D01*
X180983036Y-89684179D02*
X180983007Y-89683928D01*
X115638047Y-127475278D02*
X115599740Y-127505173D01*
X163625362Y-145388901D02*
X163607874Y-145343565D01*
X113140851Y-127218960D02*
X113116900Y-127176681D01*
X180996460Y-89860463D02*
X180995203Y-89835673D01*
X166425951Y-65110989D02*
X166445647Y-65066576D01*
X166307814Y-142691398D02*
X166307911Y-142691155D01*
X116571117Y-106403093D02*
X116594132Y-106413668D01*
X113075362Y-145388901D02*
X113057874Y-145343565D01*
X116371214Y-141444900D02*
X116383261Y-141466603D01*
X115989281Y-91130262D02*
X115980974Y-91178138D01*
X180284280Y-29055700D02*
X180284117Y-29055506D01*
X113702619Y-78742631D02*
X113749450Y-78729671D01*
X181796861Y-37780974D02*
X181749450Y-37770328D01*
X166092631Y-86297380D02*
X166079671Y-86250549D01*
X113796861Y-78719025D02*
X113844737Y-78710718D01*
X165898936Y-142996931D02*
X165911382Y-142995291D01*
X108002811Y-20003159D02*
X108002482Y-20003522D01*
X120176246Y-64484020D02*
X120126415Y-64491653D01*
X116032994Y-140441716D02*
X116033029Y-140441967D01*
X183107036Y-145995275D02*
X183058576Y-145998850D01*
X163579672Y-143749495D02*
X163592632Y-143702664D01*
X166318526Y-142663495D02*
X166321728Y-142654637D01*
X117970071Y-142817353D02*
X118089923Y-142858320D01*
X166126860Y-142913797D02*
X166132252Y-142910090D01*
X180963170Y-30533246D02*
X180940824Y-30408574D01*
X116248312Y-82194347D02*
X116248415Y-82194578D01*
X116301405Y-82309899D02*
X116312337Y-82332185D01*
X113844737Y-78710718D02*
X113892963Y-78704770D01*
X108002482Y-20003522D02*
X108002170Y-20003902D01*
X120025443Y-47500644D02*
X120075790Y-47503198D01*
X108005558Y-20001122D02*
X108005125Y-20001353D01*
X183775278Y-145638093D02*
X183743539Y-145674887D01*
X116371214Y-82444900D02*
X116383261Y-82466603D01*
X118533496Y-83963211D02*
X118558032Y-83966970D01*
X116002245Y-105563280D02*
X116004168Y-105588536D01*
X116461038Y-141597469D02*
X116530738Y-141703226D01*
X113400259Y-145805219D02*
X113361952Y-145775324D01*
X118114090Y-142865902D02*
X118235862Y-142900746D01*
X183980974Y-132596861D02*
X183989281Y-132644737D01*
X115743539Y-127374841D02*
X115710033Y-127410033D01*
X120462742Y-64386130D02*
X120417482Y-64408331D01*
X113029671Y-138449450D02*
X113042631Y-138402619D01*
X181289966Y-96510033D02*
X181256460Y-96474841D01*
X178591674Y-142940776D02*
X178615988Y-142935780D01*
X180182698Y-142057686D02*
X180182871Y-142057500D01*
X178615988Y-28064219D02*
X178591674Y-28059223D01*
X180469119Y-82703436D02*
X180469261Y-82703226D01*
X180995187Y-140164579D02*
X180995203Y-140164326D01*
X120996783Y-63576026D02*
X120991683Y-63626180D01*
X116013725Y-65336352D02*
X116009966Y-65360888D01*
X118384011Y-83935780D02*
X118408325Y-83940776D01*
X179846136Y-87635678D02*
X179845937Y-87635520D01*
X120462953Y-123386020D02*
X120462742Y-123386130D01*
X166145053Y-86433278D02*
X166125362Y-86388855D01*
X120984020Y-63676246D02*
X120983978Y-63676479D01*
X180687548Y-141332411D02*
X180687662Y-141332185D01*
X179703436Y-83469119D02*
X179723809Y-83454939D01*
X115560012Y-127533152D02*
X115518960Y-127559148D01*
X166047389Y-85498307D02*
X166047059Y-85497944D01*
X115775278Y-91613047D02*
X115743539Y-91649841D01*
X113095053Y-127133278D02*
X113075362Y-127088855D01*
X113941423Y-78701195D02*
X113990122Y-78700000D01*
X166324763Y-142645101D02*
X166326622Y-142638827D01*
X183970328Y-25749450D02*
X183980974Y-25796861D01*
X180983007Y-89683928D02*
X180967005Y-89558283D01*
X166302798Y-142703474D02*
X166303010Y-142702996D01*
X180552359Y-29424025D02*
X180552228Y-29423808D01*
X166226259Y-142824407D02*
X166242720Y-142804078D01*
X179826106Y-83379825D02*
X179826309Y-83379672D01*
X120973776Y-48273908D02*
X120973830Y-48274139D01*
X116942499Y-142182871D02*
X117036482Y-142267781D01*
X181029671Y-73549450D02*
X181042631Y-73502619D01*
X120670257Y-106758304D02*
X120706795Y-106793036D01*
X166575327Y-123861855D02*
X166607065Y-123825070D01*
X116571117Y-123596906D02*
X116570888Y-123597014D01*
X116320247Y-123766886D02*
X116302256Y-123783988D01*
X188999087Y-150994043D02*
X188999275Y-150993590D01*
X166049996Y-85512050D02*
X166049813Y-85504594D01*
X179845937Y-28635520D02*
X179826309Y-28620327D01*
X116000962Y-46537984D02*
X116000972Y-46538238D01*
X169450847Y-83522798D02*
X169451649Y-83532183D01*
X120973830Y-63725860D02*
X120973776Y-63726091D01*
X117946556Y-83808648D02*
X117969833Y-83817268D01*
X116182731Y-141030166D02*
X116191351Y-141053443D01*
X167243502Y-64504768D02*
X167291955Y-64501195D01*
X116302075Y-106215834D02*
X116302256Y-106216011D01*
X116569624Y-88207736D02*
X116554479Y-88227888D01*
X169450847Y-142522798D02*
X169451649Y-142532183D01*
X169833389Y-83982131D02*
X169862177Y-83988250D01*
X113566721Y-32879946D02*
X113523318Y-32858099D01*
X116002245Y-46563280D02*
X116004168Y-46588536D01*
X179944493Y-28715882D02*
X179944299Y-28715719D01*
X131051302Y-85498420D02*
X131051091Y-85498864D01*
X118993697Y-28000163D02*
X118993569Y-28000165D01*
X116811171Y-64518235D02*
X116810922Y-64518282D01*
X166799450Y-86970328D02*
X166752619Y-86957368D01*
X180858399Y-30090163D02*
X180858320Y-30089923D01*
X120861435Y-47992764D02*
X120861555Y-47992969D01*
X117828696Y-142761572D02*
X117946319Y-142808557D01*
X117791179Y-28250104D02*
X117768076Y-28260192D01*
X118061228Y-28148385D02*
X118060983Y-28148466D01*
X116786360Y-64523333D02*
X116761687Y-64529059D01*
X169780063Y-142966514D02*
X169786231Y-142968699D01*
X180182871Y-87942499D02*
X180182698Y-87942313D01*
X116911211Y-123504191D02*
X116886516Y-123506702D01*
X116962015Y-123500962D02*
X116961761Y-123500972D01*
X132705262Y-145989327D02*
X132657036Y-145995275D01*
X168790021Y-64557860D02*
X168835351Y-64575344D01*
X115009877Y-127700000D02*
X113990122Y-127700000D01*
X180995203Y-140164326D02*
X180996460Y-140139536D01*
X133507368Y-145297426D02*
X133492125Y-145343565D01*
X118673875Y-87017791D02*
X118543750Y-87034625D01*
X133149740Y-145805219D02*
X133110012Y-145833198D01*
X169587665Y-142840270D02*
X169606163Y-142858766D01*
X169455088Y-142564903D02*
X169455111Y-142565098D01*
X188991169Y-20000129D02*
X188990681Y-20000081D01*
X179466823Y-83616613D02*
X179575974Y-83552359D01*
X116004168Y-124411463D02*
X116002245Y-124436719D01*
X166345764Y-83513015D02*
X166345775Y-83512755D01*
X178466753Y-83963170D02*
X178591425Y-83940824D01*
X169450121Y-142502835D02*
X169450124Y-142502965D01*
X131169443Y-84782151D02*
X131178390Y-84829366D01*
X115203138Y-68680974D02*
X115155262Y-68689281D01*
X166125362Y-86388855D02*
X166107874Y-86343519D01*
X130933099Y-25523318D02*
X130954946Y-25566721D01*
X180865830Y-140886152D02*
X180865902Y-140885909D01*
X169605965Y-83858584D02*
X169606158Y-83858761D01*
X117223647Y-28571045D02*
X117118661Y-28649747D01*
X120176479Y-47516021D02*
X120225860Y-47526169D01*
X130253138Y-27980974D02*
X130205262Y-27989281D01*
X116761687Y-47470940D02*
X116786360Y-47476666D01*
X183970328Y-145250595D02*
X183957368Y-145297426D01*
X113116900Y-32451681D02*
X113095053Y-32408278D01*
X179826309Y-142379672D02*
X179845937Y-142364479D01*
X179575974Y-87447640D02*
X179466823Y-87383386D01*
X113000000Y-102965122D02*
X113001195Y-102916423D01*
X116936971Y-47497770D02*
X116961761Y-47499027D01*
X116000962Y-65462015D02*
X116000160Y-65493668D01*
X166329269Y-83629175D02*
X166331408Y-83620003D01*
X115924637Y-43586144D02*
X115942125Y-43631480D01*
X180698702Y-29690328D02*
X180698594Y-29690100D01*
X183388855Y-72875362D02*
X183433278Y-72895053D01*
X183775278Y-73161952D02*
X183805173Y-73200259D01*
X115107036Y-91970229D02*
X115058576Y-91973804D01*
X180940776Y-89408325D02*
X180935780Y-89384011D01*
X116249567Y-47160582D02*
X116249734Y-47160772D01*
X120973776Y-107273908D02*
X120973830Y-107274139D01*
X115560012Y-102141847D02*
X115599740Y-102169826D01*
X113256460Y-79025158D02*
X113289966Y-78989966D01*
X116076233Y-30182675D02*
X116069164Y-30206873D01*
X116786360Y-47476666D02*
X116786608Y-47476720D01*
X116737167Y-123535407D02*
X116712816Y-123542375D01*
X116076439Y-46882825D02*
X116086228Y-46905635D01*
X166331451Y-83619811D02*
X166338250Y-83587822D01*
X181439987Y-131966847D02*
X181481039Y-131940851D01*
X115980974Y-67903138D02*
X115970328Y-67950549D01*
X166306460Y-27674841D02*
X166274721Y-27638047D01*
X116771942Y-28967596D02*
X116771765Y-28967782D01*
X181194826Y-132200259D02*
X181224721Y-132161952D01*
X183250549Y-72829671D02*
X183297380Y-72842631D01*
X169474686Y-142650602D02*
X169474848Y-142651100D01*
X169459136Y-142590945D02*
X169461035Y-142600170D01*
X115989281Y-32130262D02*
X115980974Y-32178138D01*
X116545207Y-141724015D02*
X116620174Y-141826106D01*
X113749450Y-68670328D02*
X113702619Y-68657368D01*
X117487964Y-87401527D02*
X117487741Y-87401656D01*
X113095053Y-32408278D02*
X113075362Y-32363855D01*
X117648986Y-87315880D02*
X117648755Y-87315992D01*
X116108060Y-46951622D02*
X116119787Y-46974073D01*
X166147972Y-142898351D02*
X166170843Y-142879828D01*
X183518960Y-72940851D02*
X183560012Y-72966847D01*
X180963211Y-30533496D02*
X180963170Y-30533246D01*
X116786360Y-123523333D02*
X116761687Y-123529059D01*
X183883099Y-145476727D02*
X183859148Y-145519006D01*
X116548603Y-106392053D02*
X116570888Y-106402985D01*
X166032343Y-85485186D02*
X166032343Y-85485186D01*
X116651282Y-88104704D02*
X116569781Y-88207532D01*
X116936971Y-106497770D02*
X116961761Y-106499027D01*
X169962979Y-83996452D02*
X177993555Y-83999997D01*
X183942125Y-96143519D02*
X183924637Y-96188855D01*
X169606158Y-83858761D02*
X169625597Y-83876263D01*
X108001878Y-20004296D02*
X108001605Y-20004704D01*
X120012601Y-47500319D02*
X120025443Y-47500644D01*
X130438855Y-27924637D02*
X130393519Y-27942125D01*
X183560012Y-72966847D02*
X183599740Y-72994826D01*
X179597469Y-28461038D02*
X179597256Y-28460901D01*
X115775278Y-43336952D02*
X115805173Y-43375259D01*
X120774691Y-47868168D02*
X120774841Y-47868352D01*
X116191351Y-82053443D02*
X116191442Y-82053680D01*
X120928398Y-107129279D02*
X120945907Y-107176553D01*
X116302075Y-123784165D02*
X116284165Y-123802075D01*
X169820422Y-83979008D02*
X169820928Y-83979143D01*
X188997829Y-150996143D02*
X188998121Y-150995749D01*
X115476681Y-78816900D02*
X115518960Y-78840851D01*
X116004168Y-105588536D02*
X116004191Y-105588788D01*
X131191361Y-84972832D02*
X131191029Y-85020885D01*
X116962015Y-64500962D02*
X116961761Y-64500972D01*
X178290873Y-142985569D02*
X178291125Y-142985547D01*
X113042631Y-138402619D02*
X113057874Y-138356480D01*
X181224721Y-37438047D02*
X181194826Y-37399740D01*
X181166847Y-132239987D02*
X181194826Y-132200259D01*
X116834402Y-142075677D02*
X116834579Y-142075858D01*
X116712816Y-123542375D02*
X116712573Y-123542448D01*
X169538185Y-83779145D02*
X169538336Y-83779359D01*
X179845937Y-87635520D02*
X179826309Y-87620327D01*
X180454939Y-88276190D02*
X180454792Y-88275984D01*
X180907034Y-30260136D02*
X180900812Y-30236107D01*
X113042631Y-79402619D02*
X113057874Y-79356480D01*
X115297380Y-91932368D02*
X115250549Y-91945328D01*
X166712553Y-64724659D02*
X166750857Y-64694772D01*
X120550215Y-123334638D02*
X120550017Y-123334769D01*
X116018235Y-65311171D02*
X116013766Y-65336102D01*
X180057686Y-142182698D02*
X180075677Y-142165597D01*
X116315363Y-88603150D02*
X116315239Y-88603375D01*
X178290873Y-28014430D02*
X178164579Y-28004812D01*
X116358251Y-106266601D02*
X116358445Y-106266763D01*
X115518960Y-78840851D02*
X115560012Y-78866847D01*
X165959951Y-142986818D02*
X165966313Y-142985290D01*
X118085491Y-87140649D02*
X118085245Y-87140724D01*
X116132080Y-46996219D02*
X116144929Y-47018046D01*
X113042631Y-126997380D02*
X113029671Y-126950549D01*
X181990122Y-72800000D02*
X183009877Y-72800000D01*
X113057874Y-145343565D02*
X113042631Y-145297426D01*
X188993082Y-20000559D02*
X188992612Y-20000416D01*
X166060718Y-86155262D02*
X166054770Y-86107036D01*
X130825278Y-25361952D02*
X130855173Y-25400259D01*
X166125362Y-27388855D02*
X166107874Y-27343519D01*
X178885909Y-28134097D02*
X178764137Y-28099253D01*
X181057874Y-132456480D02*
X181075362Y-132411144D01*
X116266886Y-123820247D02*
X116266714Y-123820433D01*
X163579671Y-145250595D02*
X163569025Y-145203184D01*
X113566721Y-91879946D02*
X113523318Y-91858099D01*
X115775278Y-138061952D02*
X115805173Y-138100259D01*
X113019025Y-138496861D02*
X113029671Y-138449450D01*
X163950259Y-145805219D02*
X163911952Y-145775324D01*
X166170837Y-83879833D02*
X166190275Y-83862329D01*
X116439099Y-47327592D02*
X116439309Y-47327734D01*
X181116900Y-96276681D02*
X181095053Y-96233278D01*
X183942125Y-145343565D02*
X183924637Y-145388901D01*
X169461121Y-83600553D02*
X169463381Y-83609697D01*
X166170843Y-142879828D02*
X166171044Y-142879661D01*
X116086331Y-65094132D02*
X116086228Y-65094364D01*
X116018235Y-124311171D02*
X116013766Y-124336102D01*
X180628785Y-82444900D02*
X180628905Y-82444677D01*
X133188047Y-145775324D02*
X133149740Y-145805219D01*
X178909836Y-87141600D02*
X178886152Y-87134169D01*
X116418726Y-106313412D02*
X116439099Y-106327592D01*
X168743887Y-64542621D02*
X168790021Y-64557860D01*
X183674841Y-37543539D02*
X183638047Y-37575278D01*
X169888000Y-83992426D02*
X169888195Y-83992450D01*
X116009931Y-124361139D02*
X116006731Y-124386264D01*
X169403863Y-65202473D02*
X169416829Y-65249296D01*
X116504000Y-106368045D02*
X116525703Y-106380091D01*
X183904946Y-132366721D02*
X183924637Y-132411144D01*
X113289966Y-78989966D02*
X113325158Y-78956460D01*
X183388855Y-37724637D02*
X183343519Y-37742125D01*
X183743539Y-132125158D02*
X183775278Y-132161952D01*
X116248415Y-141194578D02*
X116301297Y-141309671D01*
X180616613Y-82466823D02*
X180616738Y-82466603D01*
X117006207Y-106499999D02*
X117006333Y-106500000D01*
X183203138Y-131819025D02*
X183250549Y-131829671D01*
X169708617Y-142934145D02*
X169714368Y-142937267D01*
X179053443Y-142808648D02*
X179053680Y-142808557D01*
X116667607Y-88085158D02*
X116651445Y-88104505D01*
X116463847Y-29356312D02*
X116393342Y-29466969D01*
X113004770Y-25892963D02*
X113010718Y-25844737D01*
X113075362Y-138311144D02*
X113095053Y-138266721D01*
X116571117Y-64596906D02*
X116570888Y-64597014D01*
X184000000Y-145009923D02*
X183998804Y-145058622D01*
X120225860Y-106526169D02*
X120226091Y-106526223D01*
X116014430Y-140290873D02*
X116014452Y-140291125D01*
X115250549Y-78729671D02*
X115297380Y-78742631D01*
X180907095Y-89260382D02*
X180907034Y-89260136D01*
X116447771Y-82576191D02*
X116460901Y-82597256D01*
X120591782Y-64305699D02*
X120591591Y-64305839D01*
X115107036Y-137704770D02*
X115155262Y-137710718D01*
X116378075Y-123717229D02*
X116358445Y-123733236D01*
X169455088Y-83564903D02*
X169455111Y-83565098D01*
X180865902Y-81885909D02*
X180900746Y-81764137D01*
X180687662Y-29667814D02*
X180687548Y-29667588D01*
X120126180Y-64491683D02*
X120076026Y-64496783D01*
X115980974Y-126903138D02*
X115970328Y-126950549D01*
X115674841Y-127443539D02*
X115638047Y-127475278D01*
X116180917Y-88886633D02*
X116180817Y-88886870D01*
X116460458Y-123658327D02*
X116439309Y-123672265D01*
X115297380Y-43017631D02*
X115343519Y-43032874D01*
X115107036Y-101979770D02*
X115155262Y-101985718D01*
X113194826Y-91574740D02*
X113166847Y-91535012D01*
X180454792Y-141724015D02*
X180454939Y-141723809D01*
X115203138Y-91955974D02*
X115155262Y-91964281D01*
X117353514Y-87482952D02*
X117244619Y-87556150D01*
X116097014Y-65070888D02*
X116096906Y-65071117D01*
X117690328Y-83698702D02*
X117805421Y-83751584D01*
X130785634Y-84190700D02*
X130823733Y-84219987D01*
X116283988Y-47197743D02*
X116284165Y-47197924D01*
X183433278Y-25095053D02*
X183476681Y-25116900D01*
X180165420Y-28924141D02*
X180075858Y-28834579D01*
X188993544Y-20000724D02*
X188993082Y-20000559D01*
X183058576Y-25001195D02*
X183107036Y-25004770D01*
X179444900Y-87371214D02*
X179444677Y-87371094D01*
X115883099Y-102498318D02*
X115904946Y-102541721D01*
X167040122Y-28000000D02*
X166991423Y-27998804D01*
X178290873Y-83985569D02*
X178291125Y-83985547D01*
X116641166Y-106433143D02*
X116664443Y-106441764D01*
X188999918Y-150990727D02*
X188999942Y-150990236D01*
X169897509Y-142993336D02*
X169898030Y-142993391D01*
X166242882Y-142803872D02*
X166250523Y-142793913D01*
X115970328Y-138449450D02*
X115980974Y-138496861D01*
X120999355Y-63525443D02*
X120996801Y-63575790D01*
X181000000Y-95809877D02*
X181000000Y-90006333D01*
X108001353Y-20005125D02*
X108001122Y-20005558D01*
X183775278Y-132161952D02*
X183805173Y-132200259D01*
X120996783Y-122576026D02*
X120991683Y-122626180D01*
X130345184Y-84010494D02*
X130392546Y-84018620D01*
X116283988Y-106197743D02*
X116284165Y-106197924D01*
X180364321Y-29153863D02*
X180284280Y-29055700D01*
X120550215Y-47665361D02*
X120591591Y-47694160D01*
X166208584Y-83844034D02*
X166208761Y-83843841D01*
X116863758Y-28873504D02*
X116863576Y-28873686D01*
X116732050Y-82963327D02*
X116732218Y-82963517D01*
X117767842Y-28260298D02*
X117648986Y-28315880D01*
X113004770Y-67807036D02*
X113001195Y-67758576D01*
X120805699Y-64091782D02*
X120774841Y-64131647D01*
X116049958Y-46811350D02*
X116058150Y-46835317D01*
X116569781Y-29207532D02*
X116569624Y-29207736D01*
X113566721Y-43070053D02*
X113611144Y-43050362D01*
X180963211Y-89533496D02*
X180963170Y-89533246D01*
X130610012Y-25166847D02*
X130649740Y-25194826D01*
X166531039Y-27859148D02*
X166489987Y-27833152D01*
X113361952Y-137924721D02*
X113400259Y-137894826D01*
X183599740Y-145805219D02*
X183560012Y-145833198D01*
X116688890Y-123549879D02*
X116688649Y-123549958D01*
X117969833Y-142817268D02*
X117970071Y-142817353D01*
X116312337Y-82332185D02*
X116312451Y-82332411D01*
X108009809Y-20000057D02*
X108009809Y-20000057D01*
X115833152Y-138139987D02*
X115859148Y-138181039D01*
X166489987Y-25166847D02*
X166531039Y-25140851D01*
X183924637Y-73411144D02*
X183942125Y-73456480D01*
X117767842Y-87260298D02*
X117648986Y-87315880D01*
X113990122Y-146000046D02*
X113941423Y-145998850D01*
X180983007Y-81316071D02*
X180983036Y-81315820D01*
X169808136Y-83975365D02*
X169808386Y-83975443D01*
X116393207Y-29467188D02*
X116380212Y-29488790D01*
X183250549Y-131829671D02*
X183297380Y-131842631D01*
X180999841Y-30993794D02*
X180999839Y-30993668D01*
X116383261Y-141466603D02*
X116383386Y-141466823D01*
X117118661Y-87649747D02*
X117118457Y-87649904D01*
X180057686Y-83182698D02*
X180075677Y-83165597D01*
X117648755Y-87315992D02*
X117626201Y-87327255D01*
X181481039Y-96659148D02*
X181439987Y-96633152D01*
X180858320Y-140910076D02*
X180858399Y-140909836D01*
X181166847Y-96360012D02*
X181140851Y-96318960D01*
X180999999Y-31006207D02*
X180999841Y-30993794D01*
X130663454Y-84114394D02*
X130705400Y-84137841D01*
X115343519Y-91917125D02*
X115297380Y-91932368D01*
X116144929Y-47018046D02*
X116145060Y-47018263D01*
X120774691Y-123131831D02*
X120741854Y-123170081D01*
X183599740Y-72994826D02*
X183638047Y-73024721D01*
X169497425Y-142708679D02*
X169500242Y-142714585D01*
X183476681Y-37683099D02*
X183433278Y-37704946D01*
X116042375Y-65212816D02*
X116035407Y-65237167D01*
X113844737Y-68689281D02*
X113796861Y-68680974D01*
X113001195Y-145058622D02*
X113000000Y-145009923D01*
X179703226Y-28530738D02*
X179597469Y-28461038D01*
X115638047Y-43199721D02*
X115674841Y-43231460D01*
X120025443Y-123499355D02*
X120012601Y-123499680D01*
X188999870Y-20008830D02*
X188999798Y-20008344D01*
X116266886Y-64820247D02*
X116266714Y-64820433D01*
X178006442Y-83999836D02*
X178139283Y-83996470D01*
X180999841Y-89993794D02*
X180999839Y-89993668D01*
X180907034Y-140739863D02*
X180907095Y-140739617D01*
X166061488Y-142950855D02*
X166061725Y-142950745D01*
X116810922Y-47481717D02*
X116811171Y-47481764D01*
X132705263Y-143010731D02*
X132753139Y-143019039D01*
X116191351Y-141053443D02*
X116191442Y-141053680D01*
X169858969Y-142987568D02*
X169884805Y-142991660D01*
X169084523Y-123724669D02*
X169121316Y-123756401D01*
X116201878Y-106102097D02*
X116217072Y-106121725D01*
X113566721Y-68604946D02*
X113523318Y-68583099D01*
X166049789Y-85504104D02*
X166049741Y-85503615D01*
X179309671Y-28301297D02*
X179194578Y-28248415D01*
X163911952Y-143224767D02*
X163950259Y-143194872D01*
X180364479Y-141845937D02*
X180379672Y-141826309D01*
X169449951Y-83489926D02*
X169449952Y-83490056D01*
X115518960Y-43115851D02*
X115560012Y-43141847D01*
X166331408Y-83620003D02*
X166331451Y-83619811D01*
X120999680Y-63512601D02*
X120999355Y-63525443D01*
X115638047Y-32750278D02*
X115599740Y-32780173D01*
X120550017Y-64334769D02*
X120507235Y-64361435D01*
X163839966Y-145710079D02*
X163806460Y-145674887D01*
X165725556Y-84468548D02*
X165739843Y-84421969D01*
X165975617Y-142982864D02*
X165975995Y-142982757D01*
X116000000Y-43965122D02*
X116000000Y-46493666D01*
X169962720Y-83996449D02*
X169962979Y-83996452D01*
X113140851Y-68218960D02*
X113116900Y-68176681D01*
X183710033Y-145710079D02*
X183674841Y-145743585D01*
X116058150Y-124164682D02*
X116049958Y-124188649D01*
X116594132Y-106413668D02*
X116594364Y-106413771D01*
X180182871Y-142057500D02*
X180267781Y-141963517D01*
X120591591Y-64305839D02*
X120550215Y-64334638D01*
X119987394Y-64500000D02*
X117006333Y-64500000D01*
X116059175Y-140591425D02*
X116059223Y-140591674D01*
X116418520Y-123686734D02*
X116398105Y-123701726D01*
X130688047Y-86775278D02*
X130649740Y-86805173D01*
X169625794Y-83876436D02*
X169635340Y-83884588D01*
X166445647Y-65066576D02*
X166467498Y-65023182D01*
X183599740Y-131994826D02*
X183638047Y-132024721D01*
X166343496Y-83552443D02*
X166343532Y-83552052D01*
X166217589Y-142834543D02*
X166217939Y-142834154D01*
X115203138Y-101994025D02*
X115250549Y-102004671D01*
X116172407Y-123939099D02*
X116172265Y-123939309D01*
X113001195Y-67758576D02*
X113000000Y-67709877D01*
X166274721Y-25361952D02*
X166306460Y-25325158D01*
X115343519Y-78757874D02*
X115388855Y-78775362D01*
X183009877Y-96800000D02*
X181990122Y-96800000D01*
X116132080Y-124003780D02*
X116131954Y-124004000D01*
X132800549Y-145970374D02*
X132753138Y-145981020D01*
X113224721Y-43336952D02*
X113256460Y-43300158D01*
X181029671Y-96050549D02*
X181019025Y-96003138D01*
X113702619Y-43017631D02*
X113749450Y-43004671D01*
X169898030Y-142993391D02*
X169910544Y-142994375D01*
X115343519Y-32917125D02*
X115297380Y-32932368D01*
X116000000Y-46493666D02*
X116000000Y-46493792D01*
X116004796Y-140164326D02*
X116004812Y-140164579D01*
X120631831Y-106725308D02*
X120670081Y-106758145D01*
X115388855Y-43050362D02*
X115433278Y-43070053D01*
X183009877Y-131800000D02*
X183058576Y-131801195D01*
X118860716Y-83996470D02*
X118993668Y-83999839D01*
X113075362Y-127088855D02*
X113057874Y-127043519D01*
X183674841Y-132056460D02*
X183710033Y-132089966D01*
X180538961Y-141597469D02*
X180539098Y-141597256D01*
X166321854Y-142654265D02*
X166324706Y-142645288D01*
X120417482Y-64408331D02*
X120417267Y-64408430D01*
X183924637Y-132411144D02*
X183942125Y-132456480D01*
X116548377Y-64608060D02*
X116525926Y-64619787D01*
X180985569Y-140290873D02*
X180995187Y-140164579D01*
X116640930Y-64566947D02*
X116617408Y-64576342D01*
X120834638Y-47949784D02*
X120834769Y-47949982D01*
X117690328Y-142698702D02*
X117805421Y-142751584D01*
X183518960Y-96659148D02*
X183476681Y-96683099D01*
X181523318Y-37683099D02*
X181481039Y-37659148D01*
X116132080Y-105996219D02*
X116144929Y-106018046D01*
X113844737Y-145989327D02*
X113796861Y-145981020D01*
X166340132Y-142577993D02*
X166341545Y-142568681D01*
X115388855Y-137775362D02*
X115433278Y-137795053D01*
X183518960Y-131940851D02*
X183560012Y-131966847D01*
X113010718Y-145155308D02*
X113004770Y-145107082D01*
X116006702Y-124386516D02*
X116004191Y-124411211D01*
X116000000Y-139993666D02*
X116000000Y-139993792D01*
X183904946Y-96233278D02*
X183883099Y-96276681D01*
X113656480Y-145942171D02*
X113611144Y-145924683D01*
X120025443Y-64499355D02*
X120012601Y-64499680D01*
X163645053Y-145433324D02*
X163625362Y-145388901D01*
X116182646Y-82029928D02*
X116182731Y-82030166D01*
X113702619Y-145957414D02*
X113656480Y-145942171D01*
X116712573Y-106457551D02*
X116712816Y-106457624D01*
X113325158Y-137956460D02*
X113361952Y-137924721D01*
X115476681Y-68583099D02*
X115433278Y-68604946D01*
X179723809Y-142454939D02*
X179724015Y-142454792D01*
X115743539Y-43300158D02*
X115775278Y-43336952D01*
X108001353Y-150994920D02*
X108001605Y-150995341D01*
X116525926Y-123619787D02*
X116525703Y-123619908D01*
X163560718Y-145155308D02*
X163554770Y-145107082D01*
X178006442Y-142999836D02*
X178139283Y-142996470D01*
X168505110Y-123501195D02*
X168553564Y-123504768D01*
X116664682Y-64558150D02*
X116664443Y-64558235D01*
X180751687Y-141194347D02*
X180761475Y-141171537D01*
X116066856Y-124141166D02*
X116058235Y-124164443D01*
X116936719Y-106497754D02*
X116936971Y-106497770D01*
X115388855Y-91899637D02*
X115343519Y-91917125D01*
X113075362Y-43586144D02*
X113095053Y-43541721D01*
X183058576Y-145998850D02*
X183009877Y-146000046D01*
X116029119Y-65261441D02*
X116029059Y-65261687D01*
X116993668Y-64500160D02*
X116962015Y-64500962D01*
X113611144Y-137775362D02*
X113656480Y-137757874D01*
X116478077Y-29335192D02*
X116463988Y-29356097D01*
X169489679Y-142690654D02*
X169489751Y-142690836D01*
X169804779Y-142974463D02*
X169804968Y-142974516D01*
X116881823Y-87855920D02*
X116863758Y-87873504D01*
X117006333Y-106500000D02*
X119987394Y-106500000D01*
X118211480Y-87104005D02*
X118085491Y-87140649D01*
X116651445Y-88104505D02*
X116651282Y-88104704D01*
X167340647Y-64500000D02*
X168456417Y-64500000D01*
X116145060Y-123981736D02*
X116144929Y-123981953D01*
X188997829Y-20003902D02*
X188997517Y-20003522D01*
X178886152Y-142865830D02*
X178909836Y-142858399D01*
X115107036Y-127695229D02*
X115058576Y-127698804D01*
X116158190Y-123960671D02*
X116145060Y-123981736D01*
X177993684Y-83999996D02*
X178006313Y-83999839D01*
X178885909Y-87134097D02*
X178764137Y-87099253D01*
X131183376Y-85116661D02*
X131176073Y-85164158D01*
X113166847Y-91535012D02*
X113140851Y-91493960D01*
X116249734Y-64839227D02*
X116249567Y-64839417D01*
X116554479Y-29227888D02*
X116554327Y-29228096D01*
X130059877Y-87000000D02*
X119006432Y-87000000D01*
X116397902Y-64701878D02*
X116378274Y-64717072D01*
X120805839Y-106908408D02*
X120834638Y-106949784D01*
X163839966Y-143290011D02*
X163875159Y-143256505D01*
X181019025Y-96003138D02*
X181010718Y-95955262D01*
X116171299Y-88910213D02*
X116171205Y-88910453D01*
X116378274Y-64717072D02*
X116378075Y-64717229D01*
X166573318Y-86883099D02*
X166531039Y-86859148D01*
X115775278Y-32613047D02*
X115743539Y-32649841D01*
X116380082Y-29489012D02*
X116315363Y-29603150D01*
X166341545Y-142568681D02*
X166341572Y-142568486D01*
X115805173Y-68299740D02*
X115775278Y-68338047D01*
X131050305Y-85501699D02*
X131050257Y-85502189D01*
X113057874Y-102631480D02*
X113075362Y-102586144D01*
X181256460Y-73125158D02*
X181289966Y-73089966D01*
X116447640Y-141575974D02*
X116447771Y-141576191D01*
X169770689Y-83962821D02*
X169771177Y-83963008D01*
X115343519Y-68642125D02*
X115297380Y-68657368D01*
X169388616Y-65156342D02*
X169403863Y-65202473D01*
X116006731Y-46613735D02*
X116009931Y-46638860D01*
X116000003Y-30512682D02*
X116000000Y-30512941D01*
X179703226Y-87530738D02*
X179597469Y-87461038D01*
X179171537Y-142761475D02*
X179194347Y-142751687D01*
X118683928Y-142983007D02*
X118684179Y-142983036D01*
X113095053Y-79266721D02*
X113116900Y-79223318D01*
X113702619Y-25042631D02*
X113749450Y-25029671D01*
X169722919Y-83941524D02*
X169723386Y-83941761D01*
X166079671Y-27250549D02*
X166069025Y-27203138D01*
X180165597Y-142075677D02*
X180182698Y-142057686D01*
X181019025Y-132596861D02*
X181029671Y-132549450D01*
X116003539Y-140139536D02*
X116004796Y-140164326D01*
X115388855Y-68624637D02*
X115343519Y-68642125D01*
X177993684Y-142999996D02*
X178006313Y-142999839D01*
X116124719Y-30033427D02*
X116116414Y-30057229D01*
X116754629Y-87986272D02*
X116754456Y-87986463D01*
X183989281Y-95955262D02*
X183980974Y-96003138D01*
X115980974Y-43771861D02*
X115989281Y-43819737D01*
X113116900Y-127176681D02*
X113095053Y-127133278D01*
X169625597Y-83876263D02*
X169625794Y-83876436D01*
X115775278Y-68338047D02*
X115743539Y-68374841D01*
X131178390Y-84829366D02*
X131185034Y-84876959D01*
X181566721Y-72895053D02*
X181611144Y-72875362D01*
X165964849Y-84049730D02*
X165999451Y-84015431D01*
X178616236Y-87064273D02*
X178615988Y-87064219D01*
X113400259Y-137894826D02*
X113439987Y-137866847D01*
X180379672Y-29173690D02*
X180364479Y-29154062D01*
X179703226Y-83469261D02*
X179703436Y-83469119D01*
X115942125Y-138356480D02*
X115957368Y-138402619D01*
X108012027Y-151000042D02*
X108012272Y-151000046D01*
X130157036Y-27995229D02*
X130108576Y-27998804D01*
X116594364Y-106413771D02*
X116617174Y-106423560D01*
X108000081Y-150990727D02*
X108000129Y-150991215D01*
X116378274Y-47282927D02*
X116397902Y-47298121D01*
X183805173Y-132200259D02*
X183833152Y-132239987D01*
X163716847Y-143440032D02*
X163744827Y-143400304D01*
X131048804Y-86058576D02*
X131045229Y-86107036D01*
X115904946Y-79266721D02*
X115924637Y-79311144D01*
X113702619Y-32932368D02*
X113656480Y-32917125D01*
X116378075Y-64717229D02*
X116358445Y-64733236D01*
X180616613Y-29533176D02*
X180552359Y-29424025D01*
X120323446Y-47554092D02*
X120370720Y-47571601D01*
X120991653Y-48373584D02*
X120991683Y-48373819D01*
X120999680Y-48487398D02*
X121000000Y-48512605D01*
X181042631Y-37097380D02*
X181029671Y-37050549D01*
X118699206Y-28015171D02*
X118674130Y-28017761D01*
X116312451Y-82332411D02*
X116371094Y-82444677D01*
X116058150Y-65164682D02*
X116049958Y-65188649D01*
X118533246Y-83963170D02*
X118533496Y-83963211D01*
X117625973Y-87327373D02*
X117510133Y-87388995D01*
X181361952Y-96575278D02*
X181325158Y-96543539D01*
X116978544Y-28766498D02*
X116978353Y-28766670D01*
X113481039Y-78840851D02*
X113523318Y-78816900D01*
X117402743Y-83539098D02*
X117423808Y-83552228D01*
X108000003Y-20012027D02*
X108000000Y-20012272D01*
X116664443Y-106441764D02*
X116664682Y-106441849D01*
X118384011Y-142935780D02*
X118408325Y-142940776D01*
X113796861Y-127680974D02*
X113749450Y-127670328D01*
X119006333Y-143000000D02*
X132559878Y-143000013D01*
X116786608Y-64523279D02*
X116786360Y-64523333D01*
X116460901Y-141597256D02*
X116461038Y-141597469D01*
X166258086Y-142782926D02*
X166272332Y-142760988D01*
X116284165Y-106197924D02*
X116302075Y-106215834D01*
X168649655Y-123519020D02*
X168697061Y-123529664D01*
X113439987Y-32808152D02*
X113400259Y-32780173D01*
X181844737Y-131810718D02*
X181892963Y-131804770D01*
X117791179Y-87250104D02*
X117768076Y-87260192D01*
X108000559Y-20006917D02*
X108000416Y-20007387D01*
X166346446Y-83487227D02*
X166346449Y-83486966D01*
X120973776Y-63726091D02*
X120961140Y-63774893D01*
X178591425Y-142940824D02*
X178591674Y-142940776D01*
X183743539Y-145674887D02*
X183710033Y-145710079D01*
X169833650Y-142982197D02*
X169845856Y-142985128D01*
X188999942Y-150990236D02*
X188999996Y-150988018D01*
X116284165Y-123802075D02*
X116283988Y-123802256D01*
X180995187Y-89835420D02*
X180985569Y-89709126D01*
X113140851Y-145519006D02*
X113116900Y-145476727D01*
X113224721Y-138061952D02*
X113256460Y-138025158D01*
X116172407Y-47060900D02*
X116186587Y-47081273D01*
X169457871Y-142584125D02*
X169457905Y-142584319D01*
X116002229Y-124436971D02*
X116000972Y-124461761D01*
X166991423Y-86998804D02*
X166942963Y-86995229D01*
X116418726Y-47313412D02*
X116439099Y-47327592D01*
X113523318Y-145883145D02*
X113481039Y-145859194D01*
X178441716Y-87032994D02*
X178316071Y-87016992D01*
X117555099Y-142628785D02*
X117555322Y-142628905D01*
X120805699Y-123091782D02*
X120774841Y-123131647D01*
X116233398Y-64858251D02*
X116233236Y-64858445D01*
X180698702Y-82309671D02*
X180751584Y-82194578D01*
X181194826Y-37399740D02*
X181166847Y-37360012D01*
X116000000Y-89512941D02*
X116000000Y-90984877D01*
X169731964Y-142945944D02*
X169761840Y-142959245D01*
X116715882Y-141944493D02*
X116732050Y-141963327D01*
X120507030Y-106638444D02*
X120507235Y-106638564D01*
X133026681Y-145883145D02*
X132983278Y-145904992D01*
X188997188Y-20003159D02*
X188996840Y-20002811D01*
X116284165Y-47197924D02*
X116302075Y-47215834D01*
X130205262Y-25010718D02*
X130253138Y-25019025D01*
X166344209Y-83542658D02*
X166344221Y-83542462D01*
X116383386Y-82466823D02*
X116447640Y-82575974D01*
X113256460Y-32649841D02*
X113224721Y-32613047D01*
X166284049Y-83741553D02*
X166284145Y-83741382D01*
X179194578Y-83751584D02*
X179309671Y-83698702D01*
X188998121Y-20004296D02*
X188997829Y-20003902D01*
X115805173Y-102375259D02*
X115833152Y-102414987D01*
X166092631Y-27297380D02*
X166079671Y-27250549D01*
X116545060Y-82723809D02*
X116545207Y-82724015D01*
X113029671Y-102724450D02*
X113042631Y-102677619D01*
X166329173Y-142629556D02*
X166329269Y-142629175D01*
X116069164Y-30206873D02*
X116069095Y-30207121D01*
X120126415Y-47508346D02*
X120176246Y-47515979D01*
X117036482Y-83267781D02*
X117036672Y-83267949D01*
X115924637Y-32363855D02*
X115904946Y-32408278D01*
X120550017Y-106665230D02*
X120550215Y-106665361D01*
X169545508Y-142790069D02*
X169545743Y-142790383D01*
X181095053Y-73366721D02*
X181116900Y-73323318D01*
X115343519Y-127642125D02*
X115297380Y-127657368D01*
X113289966Y-145710079D02*
X113256460Y-145674887D01*
X166285705Y-83738507D02*
X166285827Y-83738276D01*
X118855971Y-28003706D02*
X118855714Y-28003716D01*
X120991653Y-122626415D02*
X120984020Y-122676246D01*
X180999841Y-140006205D02*
X180999999Y-139993792D01*
X130960625Y-84354523D02*
X130990568Y-84392109D01*
X120961140Y-107225106D02*
X120973776Y-107273908D01*
X120741854Y-47829918D02*
X120774691Y-47868168D01*
X108000000Y-20012272D02*
X108000000Y-150987773D01*
X120861435Y-106992764D02*
X120861555Y-106992969D01*
X180284117Y-29055506D02*
X180267949Y-29036672D01*
X117036672Y-142267949D02*
X117055506Y-142284117D01*
X188992612Y-20000416D02*
X188992136Y-20000297D01*
X115107036Y-42979770D02*
X115155262Y-42985718D01*
X180907095Y-81739617D02*
X180935726Y-81616236D01*
X117768076Y-28260192D02*
X117767842Y-28260298D01*
X116066947Y-46859069D02*
X116076342Y-46882591D01*
X166661144Y-27924637D02*
X166616721Y-27904946D01*
X113140851Y-79181039D02*
X113166847Y-79139987D01*
X115995229Y-43867963D02*
X115998804Y-43916423D01*
X116504000Y-47368045D02*
X116525703Y-47380091D01*
X166346449Y-142486966D02*
X166350525Y-124489898D01*
X113075362Y-32363855D02*
X113057874Y-32318519D01*
X178909836Y-28141600D02*
X178886152Y-28134169D01*
X113029671Y-79449450D02*
X113042631Y-79402619D01*
X113116900Y-91451681D02*
X113095053Y-91408278D01*
X115805173Y-91574740D02*
X115775278Y-91613047D01*
X166190270Y-142862334D02*
X166208766Y-142843836D01*
X113042631Y-43677619D02*
X113057874Y-43631480D01*
X116861139Y-123509931D02*
X116860888Y-123509966D01*
X164252619Y-143042677D02*
X164299451Y-143029717D01*
X116035341Y-65237412D02*
X116029119Y-65261441D01*
X132608577Y-143001209D02*
X132657037Y-143004783D01*
X116000470Y-30499269D02*
X116000470Y-30499269D01*
X116303255Y-88625846D02*
X116244492Y-88743161D01*
X116004796Y-81164326D02*
X116004812Y-81164579D01*
X116172265Y-47060690D02*
X116172407Y-47060900D01*
X116786360Y-106476666D02*
X116786608Y-106476720D01*
X115058576Y-101976195D02*
X115107036Y-101979770D01*
X113224721Y-79061952D02*
X113256460Y-79025158D01*
X120861435Y-64007235D02*
X120834769Y-64050017D01*
X180698594Y-29690100D02*
X180687662Y-29667814D01*
X108004296Y-20001878D02*
X108003902Y-20002170D01*
X169445335Y-65441241D02*
X169446539Y-65489935D01*
X178164326Y-87004796D02*
X178139536Y-87003539D01*
X116817128Y-142057500D02*
X116817301Y-142057686D01*
X183833152Y-73239987D02*
X183859148Y-73281039D01*
X166411952Y-25224721D02*
X166450259Y-25194826D01*
X116358445Y-64733236D02*
X116358251Y-64733398D01*
X166350525Y-124489898D02*
X166350525Y-124489898D01*
X165929002Y-85381813D02*
X165898111Y-85344137D01*
X169881318Y-83991545D02*
X169881513Y-83991572D01*
X120908331Y-63917482D02*
X120886130Y-63962742D01*
X115998804Y-43916423D02*
X116000000Y-43965122D01*
X130531493Y-84056626D02*
X130576398Y-84073738D01*
X115518960Y-137840851D02*
X115560012Y-137866847D01*
X118090163Y-142858399D02*
X118113847Y-142865830D01*
X116737412Y-106464658D02*
X116761441Y-106470880D01*
X116942313Y-83182698D02*
X116942499Y-83182871D01*
X169525732Y-142760268D02*
X169525832Y-142760437D01*
X183989281Y-73644737D02*
X183995229Y-73692963D01*
X116009931Y-65361139D02*
X116006731Y-65386264D01*
X131020328Y-25749450D02*
X131030974Y-25796861D01*
X179309899Y-87301405D02*
X179309671Y-87301297D01*
X115599740Y-91780173D02*
X115560012Y-91808152D01*
X120945984Y-48176778D02*
X120961075Y-48224878D01*
X116000000Y-138690122D02*
X116000000Y-139993666D01*
X115343519Y-43032874D02*
X115388855Y-43050362D01*
X163806460Y-145674887D02*
X163774721Y-145638093D01*
X113361952Y-25224721D02*
X113400259Y-25194826D01*
X116339227Y-64749734D02*
X116320433Y-64766714D01*
X169457871Y-83584125D02*
X169457905Y-83584319D01*
X116380212Y-88488790D02*
X116380082Y-88489012D01*
X115904946Y-43541721D02*
X115924637Y-43586144D01*
X130347380Y-27957368D02*
X130300549Y-27970328D01*
X118708874Y-83985547D02*
X118709126Y-83985569D01*
X183995229Y-132692963D02*
X183998804Y-132741423D01*
X116371094Y-82444677D02*
X116371214Y-82444900D01*
X116881823Y-28855920D02*
X116863758Y-28873504D01*
X116000160Y-46506331D02*
X116000962Y-46537984D01*
X169451667Y-83532379D02*
X169455088Y-83564903D01*
X115924637Y-127088855D02*
X115904946Y-127133278D01*
X131105650Y-85393287D02*
X131085015Y-85436686D01*
X166049813Y-85504594D02*
X166049789Y-85504104D01*
X120961075Y-63775121D02*
X120945984Y-63823221D01*
X178739617Y-87092904D02*
X178616236Y-87064273D01*
X113029671Y-43724450D02*
X113042631Y-43677619D01*
X113289966Y-43264966D02*
X113325158Y-43231460D01*
X117533176Y-83616613D02*
X117533396Y-83616738D01*
X116059223Y-81591674D02*
X116064219Y-81615988D01*
X169525832Y-142760437D02*
X169530701Y-142768500D01*
X118558283Y-142967005D02*
X118683928Y-142983007D01*
X116249734Y-123839227D02*
X116249567Y-123839417D01*
X116754456Y-28986463D02*
X116667774Y-29084962D01*
X180751584Y-141194578D02*
X180751687Y-141194347D01*
X120945907Y-122823446D02*
X120928398Y-122870720D01*
X116640930Y-123566947D02*
X116617408Y-123576342D01*
X130928893Y-84318435D02*
X130960625Y-84354523D01*
X183942125Y-25656480D02*
X183957368Y-25702619D01*
X183009877Y-37800000D02*
X181990122Y-37800000D01*
X115998804Y-102916423D02*
X116000000Y-102965122D01*
X166346446Y-142487227D02*
X166346449Y-142486966D01*
X120226091Y-106526223D02*
X120274893Y-106538859D01*
X116096906Y-65071117D02*
X116086331Y-65094132D01*
X179466823Y-87383386D02*
X179466603Y-87383261D01*
X116000160Y-105506331D02*
X116000962Y-105537984D01*
X133539281Y-143844750D02*
X133545229Y-143892976D01*
X116013766Y-105663897D02*
X116018235Y-105688828D01*
X117375225Y-87469156D02*
X117375007Y-87469291D01*
X180817268Y-141030166D02*
X180817353Y-141029928D01*
X169497342Y-83708501D02*
X169497425Y-83708679D01*
X120991653Y-63626415D02*
X120984020Y-63676246D01*
X166048265Y-85499489D02*
X166047992Y-85499081D01*
X113042631Y-25702619D02*
X113057874Y-25656480D01*
X116064273Y-140616236D02*
X116092904Y-140739617D01*
X180996460Y-140139536D02*
X180996470Y-140139283D01*
X181057874Y-73456480D02*
X181075362Y-73411144D01*
X166244826Y-25400259D02*
X166274721Y-25361952D01*
X115203138Y-137719025D02*
X115250549Y-137729671D01*
X181029671Y-37050549D02*
X181019025Y-37003138D01*
X183674841Y-73056460D02*
X183710033Y-73089966D01*
X178006205Y-28000158D02*
X177993792Y-28000000D01*
X166170640Y-83880005D02*
X166170837Y-83879833D01*
X115599740Y-43169826D02*
X115638047Y-43199721D01*
X116481736Y-64645060D02*
X116460671Y-64658190D01*
X116283988Y-64802256D02*
X116266886Y-64820247D01*
X116158327Y-64960458D02*
X116158190Y-64960671D01*
X116023333Y-46713639D02*
X116029059Y-46738312D01*
X183710033Y-37510033D02*
X183674841Y-37543539D01*
X116000000Y-139993792D02*
X116000158Y-140006205D01*
X108000129Y-20008830D02*
X108000081Y-20009318D01*
X116076309Y-89182429D02*
X116076233Y-89182675D01*
X169006494Y-123666808D02*
X169046219Y-123694781D01*
X116000158Y-140006205D02*
X116000160Y-140006331D01*
X166274114Y-83758243D02*
X166274219Y-83758077D01*
X116936971Y-64502229D02*
X116936719Y-64502245D01*
X178466503Y-28036788D02*
X178441967Y-28033029D01*
X179030166Y-142817268D02*
X179053443Y-142808648D01*
X116664682Y-106441849D02*
X116688649Y-106450041D01*
X169474848Y-142651100D02*
X169479039Y-142662933D01*
X116000000Y-126709877D02*
X115998804Y-126758576D01*
X163806460Y-143325204D02*
X163839966Y-143290011D01*
X116266886Y-47179752D02*
X116283988Y-47197743D01*
X166216847Y-27560012D02*
X166190851Y-27518960D01*
X183297380Y-131842631D02*
X183343519Y-131857874D01*
X180165420Y-87924141D02*
X180075858Y-87834579D01*
X117006333Y-47500000D02*
X119987394Y-47500000D01*
X166393209Y-65202444D02*
X166408458Y-65156315D01*
X166084781Y-142938984D02*
X166110268Y-142924267D01*
X180057500Y-28817128D02*
X179963517Y-28732218D01*
X120417267Y-123408430D02*
X120370940Y-123428310D01*
X180817268Y-88969833D02*
X180808648Y-88946556D01*
X116737167Y-64535407D02*
X116712816Y-64542375D01*
X113042631Y-67997380D02*
X113029671Y-67950549D01*
X169456336Y-142574832D02*
X169457871Y-142584125D01*
X180698594Y-82309899D02*
X180698702Y-82309671D01*
X115859148Y-138181039D02*
X115883099Y-138223318D01*
X116049879Y-105811109D02*
X116049958Y-105811350D01*
X130526681Y-25116900D02*
X130568960Y-25140851D01*
X164346861Y-145981020D02*
X164299450Y-145970374D01*
X132657036Y-145995275D02*
X132608576Y-145998850D01*
X121000000Y-48512605D02*
X121000000Y-63487394D01*
X131189362Y-84924818D02*
X131191361Y-84972832D01*
X117937046Y-87191542D02*
X117936804Y-87191630D01*
X116119908Y-105974296D02*
X116131954Y-105995999D01*
X183476681Y-25116900D02*
X183518960Y-25140851D01*
X115250549Y-32945328D02*
X115203138Y-32955974D01*
X167040122Y-87000000D02*
X166991423Y-86998804D01*
X165713579Y-84515774D02*
X165725556Y-84468548D01*
X183599740Y-25194826D02*
X183638047Y-25224721D01*
X166450259Y-86805173D02*
X166411952Y-86775278D01*
X183833152Y-96360012D02*
X183805173Y-96399740D01*
X115203138Y-78719025D02*
X115250549Y-78729671D01*
X116035407Y-124237167D02*
X116035341Y-124237412D01*
X169456336Y-83574832D02*
X169457871Y-83584125D01*
X120945907Y-107176553D02*
X120945984Y-107176778D01*
X117402530Y-83538961D02*
X117402743Y-83539098D01*
X116006731Y-105613735D02*
X116009931Y-105638860D01*
X120126180Y-123491683D02*
X120076026Y-123496783D01*
X116393342Y-29466969D02*
X116393207Y-29467188D01*
X179724015Y-28545207D02*
X179723809Y-28545060D01*
X188990190Y-20000057D02*
X188987972Y-20000003D01*
X116244380Y-88743393D02*
X116233674Y-88766216D01*
X117946556Y-142808648D02*
X117969833Y-142817268D01*
X113194826Y-43375259D02*
X113224721Y-43336952D01*
X108009318Y-150999964D02*
X108009809Y-150999988D01*
X113029671Y-32225549D02*
X113019025Y-32178138D01*
X169451667Y-142532379D02*
X169455088Y-142564903D01*
X169427482Y-124296700D02*
X169435796Y-124344569D01*
X166545431Y-123900152D02*
X166575327Y-123861855D01*
X116882009Y-28855743D02*
X116881823Y-28855920D01*
X179724015Y-87545207D02*
X179723809Y-87545060D01*
X179171537Y-83761475D02*
X179194347Y-83751687D01*
X116238427Y-82171303D02*
X116238524Y-82171537D01*
X116172265Y-106060690D02*
X116172407Y-106060900D01*
X130393519Y-27942125D02*
X130347380Y-27957368D01*
X166339966Y-86710033D02*
X166306460Y-86674841D01*
X178139536Y-83996460D02*
X178164326Y-83995203D01*
X180552359Y-82575974D02*
X180616613Y-82466823D01*
X113001195Y-25941423D02*
X113004770Y-25892963D01*
X177993666Y-87000000D02*
X167040122Y-87000000D01*
X163774721Y-145638093D02*
X163744826Y-145599786D01*
X120805839Y-47908408D02*
X120834638Y-47949784D01*
X169907537Y-83994221D02*
X169937038Y-83995767D01*
X168601785Y-123510715D02*
X168649655Y-123519020D01*
X169678077Y-83915636D02*
X169688780Y-83922194D01*
X120999355Y-122525443D02*
X120996801Y-122575790D01*
X116312337Y-141332185D02*
X116312451Y-141332411D01*
X116548377Y-106391939D02*
X116548603Y-106392053D01*
X181289966Y-37510033D02*
X181256460Y-37474841D01*
X164031040Y-143140896D02*
X164073319Y-143116945D01*
X130974637Y-27388855D02*
X130954946Y-27433278D01*
X166216847Y-25439987D02*
X166244826Y-25400259D01*
X113439987Y-25166847D02*
X113481039Y-25140851D01*
X113361952Y-91750278D02*
X113325158Y-91718539D01*
X113749450Y-127670328D02*
X113702619Y-127657368D01*
X113749450Y-43004671D02*
X113796861Y-42994025D01*
X115155262Y-32964281D02*
X115107036Y-32970229D01*
X180698702Y-88690328D02*
X180698594Y-88690100D01*
X120323446Y-64445907D02*
X120323221Y-64445984D01*
X113990122Y-127700000D02*
X113941423Y-127698804D01*
X115476681Y-32858099D02*
X115433278Y-32879946D01*
X163560718Y-143844782D02*
X163569025Y-143796906D01*
X180996470Y-30860716D02*
X180996460Y-30860463D01*
X180808648Y-82053443D02*
X180817268Y-82030166D01*
X115995229Y-91082036D02*
X115989281Y-91130262D01*
X113481039Y-102115851D02*
X113523318Y-102091900D01*
X116069095Y-89207121D02*
X116035552Y-89333971D01*
X116016963Y-140315820D02*
X116016992Y-140316071D01*
X113004770Y-126807036D02*
X113001195Y-126758576D01*
X116029119Y-105738558D02*
X116035341Y-105762587D01*
X116617174Y-106423560D02*
X116617408Y-106423657D01*
X116380082Y-88489012D02*
X116315363Y-88603150D01*
X180985569Y-89709126D02*
X180985547Y-89708874D01*
X133149740Y-143194840D02*
X133188047Y-143224735D01*
X116238524Y-82171537D02*
X116248312Y-82194347D01*
X113523318Y-78816900D02*
X113566721Y-78795053D01*
X166345775Y-83512755D02*
X166346446Y-83487227D01*
X116861139Y-64509931D02*
X116860888Y-64509966D01*
X166061725Y-142950745D02*
X166073055Y-142945340D01*
X115058576Y-91973804D02*
X115009877Y-91975000D01*
X113523318Y-43091900D02*
X113566721Y-43070053D01*
X166274219Y-83758077D02*
X166279193Y-83750079D01*
X166873905Y-123616867D02*
X166917303Y-123595026D01*
X166345775Y-142512755D02*
X166346446Y-142487227D01*
X116439309Y-123672265D02*
X116439099Y-123672407D01*
X165950174Y-142988958D02*
X165950560Y-142988882D01*
X169531074Y-83768801D02*
X169538185Y-83779145D01*
X116460671Y-106341809D02*
X116481736Y-106354939D01*
X130724841Y-27743539D02*
X130688047Y-27775278D01*
X116096906Y-46928882D02*
X116097014Y-46929111D01*
X130933099Y-86476681D02*
X130909148Y-86518960D01*
X113075362Y-25611144D02*
X113095053Y-25566721D01*
X188996840Y-150997234D02*
X188997188Y-150996886D01*
X115433278Y-43070053D02*
X115476681Y-43091900D01*
X166208949Y-142843649D02*
X166217589Y-142834543D01*
X118236107Y-142900812D02*
X118260136Y-142907034D01*
X113523318Y-91858099D02*
X113481039Y-91834148D01*
X180552228Y-82576191D02*
X180552359Y-82575974D01*
X183743539Y-73125158D02*
X183775278Y-73161952D01*
X116004168Y-46588536D02*
X116004191Y-46588788D01*
X183343519Y-37742125D02*
X183297380Y-37757368D01*
X116086331Y-105905867D02*
X116096906Y-105928882D01*
X180057500Y-87817128D02*
X179963517Y-87732218D01*
X183388855Y-145924683D02*
X183343519Y-145942171D01*
X116548377Y-47391939D02*
X116548603Y-47392053D01*
X179332185Y-28312337D02*
X179309899Y-28301405D01*
X120741695Y-123170257D02*
X120706963Y-123206795D01*
X120805839Y-64091591D02*
X120805699Y-64091782D01*
X115942125Y-68043519D02*
X115924637Y-68088855D01*
X108000912Y-20006002D02*
X108000724Y-20006455D01*
X180940776Y-140591674D02*
X180940824Y-140591425D01*
X116134169Y-140886152D02*
X116141600Y-140909836D01*
X165796183Y-84287228D02*
X165819305Y-84244343D01*
X113140851Y-32493960D02*
X113116900Y-32451681D01*
X168456417Y-64500000D02*
X168505110Y-64501195D01*
X120741854Y-123170081D02*
X120741695Y-123170257D01*
X166942963Y-27995229D02*
X166894737Y-27989281D01*
X180057686Y-28817301D02*
X180057500Y-28817128D01*
X130823733Y-84219987D02*
X130860366Y-84251088D01*
X183297380Y-25042631D02*
X183343519Y-25057874D01*
X113289966Y-68410033D02*
X113256460Y-68374841D01*
X120973830Y-107274139D02*
X120983978Y-107323520D01*
X188997517Y-150996523D02*
X188997829Y-150996143D01*
X180751687Y-29805652D02*
X180751584Y-29805421D01*
X180751584Y-82194578D02*
X180751687Y-82194347D01*
X116439309Y-106327734D02*
X116460458Y-106341672D01*
X132657037Y-143004783D02*
X132705263Y-143010731D01*
X131045229Y-27107036D02*
X131039281Y-27155262D01*
X180985547Y-30708874D02*
X180983036Y-30684179D01*
X115859148Y-127218960D02*
X115833152Y-127260012D01*
X113325158Y-127443539D02*
X113289966Y-127410033D01*
X169450822Y-83522407D02*
X169450847Y-83522798D01*
X131048804Y-27058576D02*
X131045229Y-27107036D01*
X116076342Y-105882591D02*
X116076439Y-105882825D01*
X115343519Y-137757874D02*
X115388855Y-137775362D01*
X179171303Y-87238427D02*
X179053680Y-87191442D01*
X166060718Y-27155262D02*
X166054770Y-27107036D01*
X183297380Y-96757368D02*
X183250549Y-96770328D01*
X118708874Y-142985547D02*
X118709126Y-142985569D01*
X116013725Y-105663647D02*
X116013766Y-105663897D01*
X180900746Y-140764137D02*
X180900812Y-140763892D01*
X108008344Y-150999844D02*
X108008830Y-150999916D01*
X116014452Y-81291125D02*
X116016963Y-81315820D01*
X113095053Y-25566721D02*
X113116900Y-25523318D01*
X115989281Y-102819737D02*
X115995229Y-102867963D01*
X116180917Y-29886633D02*
X116180817Y-29886870D01*
X119987394Y-106500000D02*
X120012601Y-106500319D01*
X181256460Y-132125158D02*
X181289966Y-132089966D01*
X115859148Y-43456039D02*
X115883099Y-43498318D01*
X169833396Y-142982133D02*
X169833650Y-142982197D01*
X116002610Y-89487588D02*
X116000470Y-89499269D01*
X166894737Y-27989281D02*
X166846861Y-27980974D01*
X130108576Y-86998804D02*
X130059877Y-87000000D01*
X180935780Y-140615988D02*
X180940776Y-140591674D01*
X164161144Y-145924683D02*
X164116721Y-145904992D01*
X183859148Y-25481039D02*
X183883099Y-25523318D01*
X181656480Y-37742125D02*
X181611144Y-37724637D01*
X108005125Y-150998692D02*
X108005558Y-150998923D01*
X165842072Y-85264457D02*
X165817060Y-85222646D01*
X181000000Y-80993666D02*
X181000000Y-73790122D01*
X130059877Y-25000000D02*
X130108576Y-25001195D01*
X116029618Y-30359001D02*
X116002660Y-30487335D01*
X183343519Y-96742125D02*
X183297380Y-96757368D01*
X120323221Y-106554015D02*
X120323446Y-106554092D01*
X116134169Y-81886152D02*
X116141600Y-81909836D01*
X166049312Y-85501702D02*
X166049146Y-85501240D01*
X116737412Y-123535341D02*
X116737167Y-123535407D01*
X108000081Y-20009318D02*
X108000057Y-20009809D01*
X166640570Y-64789887D02*
X166675761Y-64756390D01*
X113702619Y-91932368D02*
X113656480Y-91917125D01*
X188996097Y-150997875D02*
X188996477Y-150997563D01*
X166369588Y-124296668D02*
X166380243Y-124249266D01*
X116035407Y-65237167D02*
X116035341Y-65237412D01*
X115924637Y-102586144D02*
X115942125Y-102631480D01*
X120462742Y-106613869D02*
X120462953Y-106613979D01*
X180075858Y-87834579D02*
X180075677Y-87834402D01*
X116732218Y-141963517D02*
X116817128Y-142057500D01*
X117937046Y-28191542D02*
X117936804Y-28191630D01*
X120176246Y-123484020D02*
X120126415Y-123491653D01*
X108002170Y-150996143D02*
X108002482Y-150996523D01*
X180469261Y-88296773D02*
X180469119Y-88296563D01*
X183107036Y-37795229D02*
X183058576Y-37798804D01*
X120176246Y-47515979D02*
X120176479Y-47516021D01*
X115970328Y-126950549D02*
X115957368Y-126997380D01*
X116761441Y-64529119D02*
X116737412Y-64535341D01*
X180966970Y-81441967D02*
X180967005Y-81441716D01*
X116397902Y-47298121D02*
X116398105Y-47298273D01*
X181224721Y-132161952D02*
X181256460Y-132125158D01*
X180858320Y-89089923D02*
X180817353Y-88970071D01*
X116248312Y-141194347D02*
X116248415Y-141194578D01*
X166450259Y-25194826D02*
X166489987Y-25166847D01*
X163690851Y-145519006D02*
X163666900Y-145476727D01*
X116086331Y-46905867D02*
X116096906Y-46928882D01*
X115859148Y-68218960D02*
X115833152Y-68260012D01*
X183250549Y-25029671D02*
X183297380Y-25042631D01*
X115058576Y-32973804D02*
X115009877Y-32975000D01*
X108009318Y-20000081D02*
X108008830Y-20000129D01*
X116993794Y-123500158D02*
X116993668Y-123500160D01*
X116886516Y-47493297D02*
X116911211Y-47495808D01*
X180995203Y-81164326D02*
X180996460Y-81139536D01*
X118235862Y-83900746D02*
X118236107Y-83900812D01*
X116172407Y-64939099D02*
X116172265Y-64939309D01*
X108005125Y-20001353D02*
X108004704Y-20001605D01*
X116525703Y-64619908D02*
X116504000Y-64631954D01*
X180616738Y-29533396D02*
X180616613Y-29533176D01*
X116233567Y-88766450D02*
X116180917Y-88886633D01*
X130992125Y-86343519D02*
X130974637Y-86388855D01*
X178441716Y-83967005D02*
X178441967Y-83966970D01*
X116737167Y-47464592D02*
X116737412Y-47464658D01*
X180967005Y-89558283D02*
X180966970Y-89558032D01*
X166329269Y-142629175D02*
X166331408Y-142620003D01*
X169722906Y-142941690D02*
X169723258Y-142941863D01*
X131007368Y-86297380D02*
X130992125Y-86343519D01*
X169783258Y-83967282D02*
X169808136Y-83975365D01*
X130205262Y-86989281D02*
X130157036Y-86995229D01*
X166049146Y-85501240D02*
X166048959Y-85500787D01*
X116503780Y-64632080D02*
X116481953Y-64644929D01*
X117244408Y-28556296D02*
X117223855Y-28570893D01*
X115970328Y-79449450D02*
X115980974Y-79496861D01*
X131007368Y-25702619D02*
X131020328Y-25749450D01*
X120961075Y-107224878D02*
X120961140Y-107225106D01*
X115638047Y-91750278D02*
X115599740Y-91780173D01*
X183433278Y-37704946D02*
X183388855Y-37724637D01*
X181941423Y-131801195D02*
X181990122Y-131800000D01*
X116029674Y-89358750D02*
X116029618Y-89359001D01*
X169723386Y-83941761D02*
X169734716Y-83947165D01*
X113523318Y-127583099D02*
X113481039Y-127559148D01*
X116233398Y-106141748D02*
X116249567Y-106160582D01*
X166035699Y-83982875D02*
X166073504Y-83952142D01*
X118518332Y-87038581D02*
X118389245Y-87062086D01*
X188993997Y-20000912D02*
X188993544Y-20000724D01*
X181075362Y-132411144D02*
X181095053Y-132366721D01*
X133325278Y-143361966D02*
X133355173Y-143400273D01*
X183924637Y-25611144D02*
X183942125Y-25656480D01*
X113656480Y-25057874D02*
X113702619Y-25042631D01*
X116358251Y-64733398D02*
X116339417Y-64749567D01*
X117055506Y-142284117D02*
X117055700Y-142284280D01*
X166272472Y-142760766D02*
X166279030Y-142750063D01*
X179466823Y-142616613D02*
X179575974Y-142552359D01*
X116545207Y-82724015D02*
X116620174Y-82826106D01*
X166217939Y-142834154D02*
X166226091Y-142824608D01*
X115155262Y-68689281D02*
X115107036Y-68695229D01*
X183560012Y-96633152D02*
X183518960Y-96659148D01*
X116033029Y-140441967D02*
X116036788Y-140466503D01*
X116004812Y-140164579D02*
X116014430Y-140290873D01*
X116186587Y-123918726D02*
X116172407Y-123939099D01*
X116817128Y-83057500D02*
X116817301Y-83057686D01*
X166199943Y-83853140D02*
X166208584Y-83844034D01*
X183058576Y-37798804D02*
X183009877Y-37800000D01*
X188999870Y-150991215D02*
X188999918Y-150990727D01*
X179703436Y-142469119D02*
X179723809Y-142454939D01*
X133520328Y-145250595D02*
X133507368Y-145297426D01*
X169691756Y-142924114D02*
X169691922Y-142924219D01*
X180698702Y-141309671D02*
X180751584Y-141194578D01*
X166032343Y-85485186D02*
X165996154Y-85452382D01*
X116134097Y-81885909D02*
X116134169Y-81886152D01*
X181796861Y-72819025D02*
X181844737Y-72810718D01*
X178764137Y-83900746D02*
X178885909Y-83865902D01*
X130954946Y-27433278D02*
X130933099Y-27476681D01*
X116320433Y-47233285D02*
X116339227Y-47250265D01*
X178139283Y-83996470D02*
X178139536Y-83996460D01*
X116108060Y-105951622D02*
X116119787Y-105974073D01*
X116124807Y-89033185D02*
X116124719Y-89033427D01*
X116099187Y-81763892D02*
X116099253Y-81764137D01*
X178616236Y-142935726D02*
X178739617Y-142907095D01*
X116097014Y-46929111D02*
X116107946Y-46951396D01*
X120631647Y-123274841D02*
X120591782Y-123305699D01*
X115998804Y-138641423D02*
X116000000Y-138690122D01*
X113004770Y-102867963D02*
X113010718Y-102819737D01*
X115957368Y-67997380D02*
X115942125Y-68043519D01*
X118993569Y-28000165D02*
X118855971Y-28003706D01*
X108008344Y-20000201D02*
X108007863Y-20000297D01*
X166092631Y-25702619D02*
X166107874Y-25656480D01*
X116035489Y-30334220D02*
X116029674Y-30358750D01*
X113194826Y-68299740D02*
X113166847Y-68260012D01*
X120886130Y-48037257D02*
X120908331Y-48082517D01*
X180454939Y-29276190D02*
X180454792Y-29275984D01*
X116186734Y-123918520D02*
X116186587Y-123918726D01*
X120834769Y-106949982D02*
X120861435Y-106992764D01*
X165911382Y-142995291D02*
X165911641Y-142995254D01*
X116000000Y-31984877D02*
X115998804Y-32033576D01*
X116860888Y-106490033D02*
X116861139Y-106490068D01*
X131039281Y-25844737D02*
X131045229Y-25892963D01*
X116911211Y-106495808D02*
X116911463Y-106495831D01*
X180900812Y-140763892D02*
X180907034Y-140739863D01*
X183638047Y-96575278D02*
X183599740Y-96605173D01*
X166306460Y-86674841D02*
X166274721Y-86638047D01*
X108000297Y-150992182D02*
X108000416Y-150992658D01*
X180628905Y-29555322D02*
X180628785Y-29555099D01*
X169545743Y-142790383D02*
X169551526Y-142797818D01*
X108003902Y-20002170D02*
X108003522Y-20002482D01*
X180687548Y-82332411D02*
X180687662Y-82332185D01*
X115433278Y-32879946D02*
X115388855Y-32899637D01*
X113116900Y-102498318D02*
X113140851Y-102456039D01*
X166342450Y-142561804D02*
X166343496Y-142552443D01*
X183107036Y-131804770D02*
X183155262Y-131810718D01*
X116301297Y-141309671D02*
X116301405Y-141309899D01*
X180284117Y-82944493D02*
X180284280Y-82944299D01*
X115560012Y-43141847D02*
X115599740Y-43169826D01*
X166344221Y-83542462D02*
X166345764Y-83513015D01*
X115710033Y-91685033D02*
X115674841Y-91718539D01*
X179194347Y-87248312D02*
X179171537Y-87238524D01*
X179194578Y-87248415D02*
X179194347Y-87248312D01*
X166297586Y-83715189D02*
X166298994Y-83712236D01*
X116836352Y-106486274D02*
X116860888Y-106490033D01*
X169779879Y-142966447D02*
X169780063Y-142966514D01*
X179576191Y-87447771D02*
X179575974Y-87447640D01*
X180996470Y-89860716D02*
X180996460Y-89860463D01*
X115743539Y-68374841D02*
X115710033Y-68410033D01*
X116834402Y-83075677D02*
X116834579Y-83075858D01*
X120741854Y-64170081D02*
X120741695Y-64170257D01*
X169708446Y-142934049D02*
X169708617Y-142934145D01*
X181523318Y-96683099D02*
X181481039Y-96659148D01*
X117936804Y-28191630D02*
X117913213Y-28200516D01*
X188999942Y-20009809D02*
X188999918Y-20009318D01*
X117913213Y-28200516D02*
X117912974Y-28200610D01*
X180616738Y-88533396D02*
X180616613Y-88533176D01*
X120370720Y-106571601D02*
X120370940Y-106571689D01*
X120225860Y-123473830D02*
X120176479Y-123483978D01*
X183058576Y-96798804D02*
X183009877Y-96800000D01*
X180995203Y-30835673D02*
X180995187Y-30835420D01*
X168835351Y-123575344D02*
X168879770Y-123595030D01*
X169691922Y-142924219D02*
X169699920Y-142929193D01*
X115883099Y-138223318D02*
X115904946Y-138266721D01*
X108000297Y-20007863D02*
X108000201Y-20008344D01*
X165691761Y-84660181D02*
X165696661Y-84611707D01*
X116013766Y-46663897D02*
X116018235Y-46688828D01*
X180552359Y-141575974D02*
X180616613Y-141466823D01*
X116786608Y-106476720D02*
X116810922Y-106481717D01*
X116059175Y-81591425D02*
X116059223Y-81591674D01*
X179029928Y-142817353D02*
X179030166Y-142817268D01*
X113611144Y-102050362D02*
X113656480Y-102032874D01*
X133325278Y-145638093D02*
X133293539Y-145674887D01*
X120706963Y-123206795D02*
X120706795Y-123206963D01*
X116936719Y-47497754D02*
X116936971Y-47497770D01*
X116358251Y-123733398D02*
X116339417Y-123749567D01*
X178591425Y-28059175D02*
X178466753Y-28036829D01*
X179703226Y-142469261D02*
X179703436Y-142469119D01*
X166467498Y-65023182D02*
X166491451Y-64980913D01*
X163554770Y-143893008D02*
X163560718Y-143844782D01*
X116119908Y-46974296D02*
X116131954Y-46995999D01*
X169474848Y-83651100D02*
X169479039Y-83662933D01*
X116076309Y-30182429D02*
X116076233Y-30182675D01*
X116339417Y-47250432D02*
X116358251Y-47266601D01*
X120984020Y-48323753D02*
X120991653Y-48373584D01*
X116116414Y-89057229D02*
X116116332Y-89057473D01*
X166073504Y-83952142D02*
X166112875Y-83923234D01*
X131111143Y-84599284D02*
X131129032Y-84643885D01*
X183433278Y-131895053D02*
X183476681Y-131916900D01*
X130855173Y-25400259D02*
X130883152Y-25439987D01*
X115250549Y-127670328D02*
X115203138Y-127680974D01*
X180267949Y-82963327D02*
X180284117Y-82944493D01*
X166894737Y-86989281D02*
X166846861Y-86980974D01*
X116732050Y-141963327D02*
X116732218Y-141963517D01*
X181095053Y-37233278D02*
X181075362Y-37188855D01*
X115970328Y-102724450D02*
X115980974Y-102771861D01*
X118236357Y-28097459D02*
X118236107Y-28097521D01*
X178591425Y-87059175D02*
X178466753Y-87036829D01*
X183970328Y-37050549D02*
X183957368Y-37097380D01*
X113892963Y-78704770D02*
X113941423Y-78701195D01*
X116378075Y-47282770D02*
X116378274Y-47282927D01*
X179053680Y-28191442D02*
X179053443Y-28191351D01*
X169450382Y-142512801D02*
X169450389Y-142512998D01*
X130610012Y-27833152D02*
X130568960Y-27859148D01*
X117805421Y-142751584D02*
X117805652Y-142751687D01*
X166054770Y-27107036D02*
X166051195Y-27058576D01*
X118993668Y-83999839D02*
X118993794Y-83999841D01*
X169455111Y-83565098D02*
X169456280Y-83574444D01*
X115833152Y-32535012D02*
X115805173Y-32574740D01*
X116761687Y-64529059D02*
X116761441Y-64529119D01*
X116712573Y-47457551D02*
X116712816Y-47457624D01*
X180985569Y-81290873D02*
X180995187Y-81164579D01*
X116244492Y-29743161D02*
X116244380Y-29743393D01*
X116119787Y-65025926D02*
X116108060Y-65048377D01*
X116554327Y-88228096D02*
X116478223Y-88334980D01*
X118558032Y-142966970D02*
X118558283Y-142967005D01*
X117173893Y-83379825D02*
X117275984Y-83454792D01*
X116035341Y-46762587D02*
X116035407Y-46762832D01*
X130485811Y-84041713D02*
X130531493Y-84056626D01*
X120928310Y-107129059D02*
X120928398Y-107129279D01*
X164540123Y-143000045D02*
X165833333Y-143000046D01*
X178909836Y-83858399D02*
X178910076Y-83858320D01*
X130300549Y-86970328D02*
X130253138Y-86980974D01*
X180761475Y-82171537D02*
X180761572Y-82171303D01*
X120706795Y-47793036D02*
X120706963Y-47793204D01*
X118673875Y-28017791D02*
X118543750Y-28034625D01*
X117118457Y-87649904D02*
X117098682Y-87665539D01*
X178466753Y-87036829D02*
X178466503Y-87036788D01*
X163666900Y-145476727D02*
X163645053Y-145433324D01*
X166160689Y-83888488D02*
X166161096Y-83888158D01*
X165724342Y-84998013D02*
X165712581Y-84950732D01*
X183297380Y-72842631D02*
X183343519Y-72857874D01*
X131185034Y-84876959D02*
X131189362Y-84924818D01*
X120945984Y-122823221D02*
X120945907Y-122823446D01*
X180364479Y-29154062D02*
X180364321Y-29153863D01*
X115942125Y-127043519D02*
X115924637Y-127088855D01*
X169493299Y-142699561D02*
X169493454Y-142699922D01*
X181749450Y-96770328D02*
X181702619Y-96757368D01*
X116201726Y-106101894D02*
X116201878Y-106102097D01*
X116688649Y-123549958D02*
X116664682Y-123558150D01*
X166306738Y-83694210D02*
X166318457Y-83663679D01*
X180858399Y-140909836D02*
X180865830Y-140886152D01*
X180865830Y-30113847D02*
X180858399Y-30090163D01*
X166279193Y-83750079D02*
X166279394Y-83749741D01*
X181439987Y-72966847D02*
X181481039Y-72940851D01*
X118533496Y-142963211D02*
X118558032Y-142966970D01*
X179332185Y-87312337D02*
X179309899Y-87301405D01*
X133545229Y-145107082D02*
X133539281Y-145155308D01*
X180165420Y-83075858D02*
X180165597Y-83075677D01*
X115518960Y-127559148D02*
X115476681Y-127583099D01*
X181116900Y-132323318D02*
X181140851Y-132281039D01*
X120908331Y-107082517D02*
X120908430Y-107082732D01*
X165966504Y-142985242D02*
X165975617Y-142982864D01*
X116993668Y-106499839D02*
X116993794Y-106499841D01*
X179963327Y-142267949D02*
X179963517Y-142267781D01*
X180057686Y-87817301D02*
X180057500Y-87817128D01*
X179944299Y-28715719D02*
X179846136Y-28635678D01*
X181289966Y-132089966D02*
X181325158Y-132056460D01*
X116688890Y-106450120D02*
X116712573Y-106457551D01*
X113057874Y-32318519D02*
X113042631Y-32272380D01*
X166961721Y-64575340D02*
X167007051Y-64557857D01*
X166491451Y-64980913D02*
X166517450Y-64939870D01*
X115904946Y-138266721D02*
X115924637Y-138311144D01*
X179724015Y-83454792D02*
X179826106Y-83379825D01*
X116570888Y-47402985D02*
X116571117Y-47403093D01*
X180907095Y-30260382D02*
X180907034Y-30260136D01*
X165931976Y-84085691D02*
X165964849Y-84049730D01*
X166361273Y-65344536D02*
X166369588Y-65296668D01*
X115980974Y-91178138D02*
X115970328Y-91225549D01*
X120591591Y-47694160D02*
X120591782Y-47694300D01*
X116635678Y-141846136D02*
X116715719Y-141944299D01*
X120774841Y-106868352D02*
X120805699Y-106908217D01*
X180940776Y-81591674D02*
X180940824Y-81591425D01*
X131050000Y-25990122D02*
X131050000Y-27009877D01*
X179466603Y-28383261D02*
X179444900Y-28371214D01*
X118236107Y-28097521D02*
X118211728Y-28103936D01*
X120961075Y-48224878D02*
X120961140Y-48225106D01*
X118388992Y-28062136D02*
X118364315Y-28067288D01*
X113400259Y-32780173D02*
X113361952Y-32750278D01*
X178885909Y-142865902D02*
X178886152Y-142865830D01*
X115710033Y-127410033D02*
X115674841Y-127443539D01*
X180761572Y-82171303D02*
X180808557Y-82053680D01*
X169561511Y-83810689D02*
X169561841Y-83811096D01*
X116035341Y-105762587D02*
X116035407Y-105762832D01*
X166244981Y-83801693D02*
X166245099Y-83801536D01*
X178591425Y-83940824D02*
X178591674Y-83940776D01*
X117006333Y-123500000D02*
X117006207Y-123500000D01*
X178441967Y-83966970D02*
X178466503Y-83963211D01*
X113702619Y-102017631D02*
X113749450Y-102004671D01*
X169474686Y-83650602D02*
X169474848Y-83651100D01*
X169962720Y-142996449D02*
X169962979Y-142996452D01*
X166326622Y-142638827D02*
X166326676Y-142638638D01*
X188996477Y-20002482D02*
X188996097Y-20002170D01*
X116320247Y-64766886D02*
X116302256Y-64783988D01*
X113042631Y-32272380D02*
X113029671Y-32225549D01*
X169459098Y-83590752D02*
X169459136Y-83590945D01*
X167053184Y-64542619D02*
X167100009Y-64529663D01*
X131039281Y-27155262D02*
X131030974Y-27203138D01*
X188998121Y-150995749D02*
X188998394Y-150995341D01*
X116058150Y-105835317D02*
X116058235Y-105835556D01*
X116248415Y-82194578D02*
X116301297Y-82309671D01*
X166831631Y-123640811D02*
X166873905Y-123616867D01*
X113166847Y-127260012D02*
X113140851Y-127218960D01*
X132983278Y-145904992D02*
X132938855Y-145924683D01*
X108007387Y-150999629D02*
X108007863Y-150999748D01*
X133383152Y-143440001D02*
X133409148Y-143481053D01*
X116158190Y-47039328D02*
X116158327Y-47039541D01*
X113042631Y-102677619D02*
X113057874Y-102631480D01*
X113892963Y-145995275D02*
X113844737Y-145989327D01*
X166361273Y-124344536D02*
X166369588Y-124296668D01*
X120507030Y-47638444D02*
X120507235Y-47638564D01*
X118211480Y-28104005D02*
X118085491Y-28140649D01*
X133260033Y-143289980D02*
X133293539Y-143325172D01*
X133474638Y-143611158D02*
X133492125Y-143656493D01*
X118061228Y-87148385D02*
X118060983Y-87148466D01*
X166318526Y-83663495D02*
X166321728Y-83654637D01*
X113611144Y-43050362D02*
X113656480Y-43032874D01*
X166489987Y-86833152D02*
X166450259Y-86805173D01*
X120274893Y-106538859D02*
X120275121Y-106538924D01*
X179597469Y-83538961D02*
X179703226Y-83469261D01*
X181656480Y-96742125D02*
X181611144Y-96724637D01*
X178763892Y-142900812D02*
X178764137Y-142900746D01*
X131050233Y-85502680D02*
X131050003Y-85512050D01*
X133068960Y-143140865D02*
X133110013Y-143166861D01*
X113361952Y-32750278D02*
X113325158Y-32718539D01*
X118830281Y-28005030D02*
X118699463Y-28015148D01*
X118389245Y-28062086D02*
X118388992Y-28062136D01*
X183743539Y-37474841D02*
X183710033Y-37510033D01*
X164299451Y-143029717D02*
X164346862Y-143019071D01*
X177993792Y-28000000D02*
X177993666Y-28000000D01*
X179444900Y-28371214D02*
X179444677Y-28371094D01*
X183203138Y-145981020D02*
X183155262Y-145989327D01*
X120996801Y-48424209D02*
X120999355Y-48474556D01*
X183710033Y-25289966D02*
X183743539Y-25325158D01*
X166256195Y-83785835D02*
X166256304Y-83785671D01*
X188995295Y-150998440D02*
X188995703Y-150998167D01*
X169500329Y-142714761D02*
X169504550Y-142723181D01*
X117533396Y-142616738D02*
X117555099Y-142628785D01*
X166274721Y-86638047D02*
X166244826Y-86599740D01*
X113749450Y-137729671D02*
X113796861Y-137719025D01*
X166575327Y-64861855D02*
X166607065Y-64825070D01*
X120928398Y-48129279D02*
X120945907Y-48176553D01*
X118383763Y-83935726D02*
X118384011Y-83935780D01*
X113702619Y-137742631D02*
X113749450Y-137729671D01*
X133550000Y-145009923D02*
X133548804Y-145058622D01*
X130576398Y-84073738D02*
X130620419Y-84093009D01*
X117055506Y-83284117D02*
X117055700Y-83284280D01*
X115638047Y-68475278D02*
X115599740Y-68505173D01*
X116688890Y-64549879D02*
X116688649Y-64549958D01*
X116217072Y-123878274D02*
X116201878Y-123897902D01*
X164116721Y-145904992D02*
X164073318Y-145883145D01*
X166240998Y-83806885D02*
X166244981Y-83801693D01*
X133188047Y-143224735D02*
X133224841Y-143256474D01*
X130649740Y-86805173D02*
X130610012Y-86833152D01*
X166306666Y-83694393D02*
X166306738Y-83694210D01*
X116554479Y-88227888D02*
X116554327Y-88228096D01*
X113439987Y-137866847D02*
X113481039Y-137840851D01*
X117533396Y-83616738D02*
X117555099Y-83628785D01*
X169489751Y-83690836D02*
X169493299Y-83699561D01*
X180751687Y-82194347D02*
X180761475Y-82171537D01*
X113325158Y-32718539D02*
X113289966Y-32685033D01*
X130909148Y-27518960D02*
X130883152Y-27560012D01*
X166297394Y-142714804D02*
X166302798Y-142703474D01*
X113439987Y-43141847D02*
X113481039Y-43115851D01*
X169761840Y-142959245D02*
X169762020Y-142959323D01*
X166180978Y-142871158D02*
X166190083Y-142862516D01*
X120861555Y-106992969D02*
X120886020Y-107037046D01*
X169786231Y-142968699D02*
X169786417Y-142968762D01*
X188998877Y-20005558D02*
X188998646Y-20005125D01*
X117424025Y-142552359D02*
X117533176Y-142616613D01*
X163950259Y-143194872D02*
X163989987Y-143166892D01*
X113749450Y-91945328D02*
X113702619Y-91932368D01*
X116132080Y-65003780D02*
X116131954Y-65004000D01*
X118260382Y-142907095D02*
X118383763Y-142935726D01*
X120370940Y-106571689D02*
X120417267Y-106591569D01*
X115833152Y-127260012D02*
X115805173Y-127299740D01*
X131050003Y-85512050D02*
X131050000Y-85512295D01*
X183155262Y-131810718D02*
X183203138Y-131819025D01*
X108004296Y-150998167D02*
X108004704Y-150998440D01*
X166054770Y-86107036D02*
X166051195Y-86058576D01*
X115970328Y-67950549D02*
X115957368Y-67997380D01*
X166338250Y-83587822D02*
X166338289Y-83587630D01*
X169677638Y-83915351D02*
X169678077Y-83915636D01*
X118684179Y-142983036D02*
X118708874Y-142985547D01*
X113656480Y-137757874D02*
X113702619Y-137742631D01*
X180165597Y-28924322D02*
X180165420Y-28924141D01*
X116217229Y-47121924D02*
X116233236Y-47141554D01*
X116086228Y-124094364D02*
X116076439Y-124117174D01*
X183942125Y-37143519D02*
X183924637Y-37188855D01*
X179576191Y-28447771D02*
X179575974Y-28447640D01*
X188987972Y-151000042D02*
X188990190Y-150999988D01*
X120983978Y-107323520D02*
X120984020Y-107323753D01*
X180996470Y-140139283D02*
X180999839Y-140006331D01*
X169156507Y-123789900D02*
X169190012Y-123825084D01*
X116266886Y-106179752D02*
X116283988Y-106197743D01*
X178139536Y-142996460D02*
X178164326Y-142995203D01*
X169771063Y-142963129D02*
X169779879Y-142966447D01*
X133433099Y-145476727D02*
X133409148Y-145519006D01*
X188990681Y-20000081D02*
X188990190Y-20000057D01*
X118699463Y-87015148D02*
X118699206Y-87015171D01*
X181010718Y-36955262D02*
X181004770Y-36907036D01*
X113796861Y-68680974D02*
X113749450Y-68670328D01*
X117006333Y-64500000D02*
X117006207Y-64500000D01*
X178290873Y-87014430D02*
X178164579Y-87004812D01*
X166706480Y-27942125D02*
X166661144Y-27924637D01*
X166350525Y-65489898D02*
X166351731Y-65441206D01*
X167195283Y-64510715D02*
X167243502Y-64504768D01*
X108000057Y-150990236D02*
X108000081Y-150990727D01*
X116182731Y-82030166D02*
X116191351Y-82053443D01*
X166048959Y-85500787D02*
X166048749Y-85500343D01*
X169305625Y-123980934D02*
X169329578Y-124023204D01*
X116180817Y-88886870D02*
X116171299Y-88910213D01*
X113019025Y-145203184D02*
X113010718Y-145155308D01*
X120323221Y-123445984D02*
X120275121Y-123461075D01*
X116002245Y-124436719D02*
X116002229Y-124436971D01*
X169084523Y-64724669D02*
X169121316Y-64756401D01*
X116032994Y-81441716D02*
X116033029Y-81441967D01*
X116737412Y-64535341D02*
X116737167Y-64535407D01*
X113749450Y-145970374D02*
X113702619Y-145957414D01*
X166321854Y-83654265D02*
X166324706Y-83645288D01*
X116000158Y-105506205D02*
X116000160Y-105506331D01*
X183775278Y-96438047D02*
X183743539Y-96474841D01*
X116000000Y-124506207D02*
X116000000Y-124506333D01*
X119987394Y-47500000D02*
X120012601Y-47500319D01*
X180907095Y-140739617D02*
X180935726Y-140616236D01*
X116000000Y-105493792D02*
X116000158Y-105506205D01*
X115904946Y-102541721D02*
X115924637Y-102586144D01*
X115998804Y-91033576D02*
X115995229Y-91082036D01*
X169538336Y-83779359D02*
X169553712Y-83800520D01*
X115476681Y-102091900D02*
X115518960Y-102115851D01*
X180698594Y-141309899D02*
X180698702Y-141309671D01*
X116000000Y-105493666D02*
X116000000Y-105493792D01*
X116771765Y-28967782D02*
X116754629Y-28986272D01*
X108008830Y-20000129D02*
X108008344Y-20000201D01*
X116397902Y-106298121D02*
X116398105Y-106298273D01*
X177993555Y-83999997D02*
X177993684Y-83999996D01*
X165869111Y-85304987D02*
X165842072Y-85264457D01*
X183343519Y-25057874D02*
X183388855Y-25075362D01*
X113941423Y-101976195D02*
X113990122Y-101975000D01*
X166343532Y-83552052D02*
X166344209Y-83542658D01*
X183009877Y-25000000D02*
X183009877Y-25000000D01*
X116049879Y-46811109D02*
X116049958Y-46811350D01*
X166234998Y-83814398D02*
X166240877Y-83807039D01*
X120370720Y-64428398D02*
X120323446Y-64445907D01*
X115058576Y-127698804D02*
X115009877Y-127700000D01*
X113656480Y-127642125D02*
X113611144Y-127624637D01*
X116000310Y-89500812D02*
X116000003Y-89512682D01*
X118699206Y-87015171D02*
X118674130Y-87017761D01*
X120741695Y-47829742D02*
X120741854Y-47829918D01*
X167291955Y-123501195D02*
X167340647Y-123500000D01*
X116641166Y-123566856D02*
X116640930Y-123566947D01*
X169656510Y-142900831D02*
X169666855Y-142907941D01*
X169471120Y-83638567D02*
X169474686Y-83650602D01*
X120886020Y-48037046D02*
X120886130Y-48037257D01*
X163911952Y-145775324D02*
X163875158Y-145743585D01*
X178739863Y-28092965D02*
X178739617Y-28092904D01*
X116096906Y-124071117D02*
X116086331Y-124094132D01*
X120323446Y-123445907D02*
X120323221Y-123445984D01*
X179963517Y-83267781D02*
X180057500Y-83182871D01*
X116886264Y-47493268D02*
X116886516Y-47493297D01*
X116035552Y-30333971D02*
X116035489Y-30334220D01*
X165959759Y-142986862D02*
X165959951Y-142986818D01*
X180808648Y-29946556D02*
X180808557Y-29946319D01*
X120706795Y-123206963D02*
X120670257Y-123241695D01*
X183710033Y-73089966D02*
X183743539Y-73125158D01*
X166450259Y-27805173D02*
X166411952Y-27775278D01*
X115297380Y-68657368D02*
X115250549Y-68670328D01*
X115775278Y-79061952D02*
X115805173Y-79100259D01*
X178139283Y-87003529D02*
X178006331Y-87000160D01*
X116461038Y-82597469D02*
X116530738Y-82703226D01*
X188996840Y-20002811D02*
X188996477Y-20002482D01*
X116033029Y-81441967D02*
X116036788Y-81466503D01*
X169910805Y-142994393D02*
X169937038Y-142995767D01*
X120670081Y-123241854D02*
X120631831Y-123274691D01*
X179944299Y-83284280D02*
X179944493Y-83284117D01*
X130954946Y-86433278D02*
X130933099Y-86476681D01*
X113749450Y-78729671D02*
X113796861Y-78719025D01*
X120741854Y-106829918D02*
X120774691Y-106868168D01*
X166190851Y-86518960D02*
X166166900Y-86476681D01*
X165961710Y-85417924D02*
X165929002Y-85381813D01*
X178616236Y-28064273D02*
X178615988Y-28064219D01*
X116023279Y-65286608D02*
X116018282Y-65310922D01*
X166318457Y-83663679D02*
X166318526Y-83663495D01*
X118389245Y-87062086D02*
X118388992Y-87062136D01*
X118860463Y-142996460D02*
X118860716Y-142996470D01*
X166324706Y-83645288D02*
X166324763Y-83645101D01*
X115476681Y-43091900D02*
X115518960Y-43115851D01*
X178139283Y-142996470D02*
X178139536Y-142996460D01*
X178466503Y-83963211D02*
X178466753Y-83963170D01*
X116000390Y-30499780D02*
X116000337Y-30500295D01*
X179466603Y-142616738D02*
X179466823Y-142616613D01*
X188999918Y-20009318D02*
X188999870Y-20008830D01*
X116000470Y-89499269D02*
X116000390Y-89499780D01*
X120999680Y-107487398D02*
X121000000Y-107512605D01*
X113481039Y-32834148D02*
X113439987Y-32808152D01*
X116530738Y-82703226D02*
X116530880Y-82703436D01*
X115924637Y-68088855D02*
X115904946Y-68133278D01*
X115476681Y-91858099D02*
X115433278Y-91879946D01*
X131129032Y-84643885D02*
X131144736Y-84689301D01*
X180628785Y-141444900D02*
X180628905Y-141444677D01*
X116312451Y-141332411D02*
X116371094Y-141444677D01*
X169711659Y-83935406D02*
X169711887Y-83935534D01*
X113844737Y-25010718D02*
X113892963Y-25004770D01*
X116339227Y-47250265D02*
X116339417Y-47250432D01*
X166112875Y-83923234D02*
X166126552Y-83913701D01*
X188999275Y-20006455D02*
X188999087Y-20006002D01*
X113844737Y-127689281D02*
X113796861Y-127680974D01*
X115998804Y-67758576D02*
X115995229Y-67807036D01*
X130760033Y-27710033D02*
X130724841Y-27743539D01*
X113941423Y-25001195D02*
X113990122Y-25000000D01*
X113990122Y-91975000D02*
X113941423Y-91973804D01*
X130157036Y-25004770D02*
X130205262Y-25010718D01*
X178164326Y-142995203D02*
X178164579Y-142995187D01*
X118835673Y-83995203D02*
X118860463Y-83996460D01*
X178006313Y-83999839D02*
X178006442Y-83999836D01*
X113029671Y-91225549D02*
X113019025Y-91178138D01*
X130825278Y-27638047D02*
X130793539Y-27674841D01*
X180454939Y-82723809D02*
X180469119Y-82703436D01*
X116186734Y-64918520D02*
X116186587Y-64918726D01*
X169445335Y-124441241D02*
X169446539Y-124489935D01*
X183560012Y-131966847D02*
X183599740Y-131994826D01*
X169553712Y-83800520D02*
X169553869Y-83800730D01*
X115995229Y-126807036D02*
X115989281Y-126855262D01*
X180698594Y-88690100D02*
X180687662Y-88667814D01*
X116320433Y-123766714D02*
X116320247Y-123766886D01*
X130157036Y-86995229D02*
X130108576Y-86998804D01*
X179030166Y-87182731D02*
X179029928Y-87182646D01*
X166013185Y-142970867D02*
X166013433Y-142970782D01*
X180364321Y-141846136D02*
X180364479Y-141845937D01*
X116064219Y-140615988D02*
X116064273Y-140616236D01*
X117118661Y-28649747D02*
X117118457Y-28649904D01*
X165975995Y-142982757D02*
X165985008Y-142980022D01*
X163744827Y-143400304D02*
X163774722Y-143361997D01*
X188998646Y-20005125D02*
X188998394Y-20004704D01*
X116016963Y-81315820D02*
X116016992Y-81316071D01*
X116503780Y-106367919D02*
X116504000Y-106368045D01*
X180808557Y-88946319D02*
X180761572Y-88828696D01*
X117667588Y-83687548D02*
X117667814Y-83687662D01*
X113566721Y-137795053D02*
X113611144Y-137775362D01*
X116383386Y-141466823D02*
X116447640Y-141575974D01*
X120275121Y-47538924D02*
X120323221Y-47554015D01*
X180999999Y-139993792D02*
X181000000Y-139993666D01*
X181892963Y-131804770D02*
X181941423Y-131801195D01*
X113166847Y-25439987D02*
X113194826Y-25400259D01*
X120075790Y-47503198D02*
X120076026Y-47503216D01*
X166341572Y-142568486D02*
X166342426Y-142561999D01*
X120984020Y-122676246D02*
X120983978Y-122676479D01*
X179826106Y-142379825D02*
X179826309Y-142379672D01*
X180628785Y-29555099D02*
X180616738Y-29533396D01*
X178139536Y-87003539D02*
X178139283Y-87003529D01*
X121000000Y-122487394D02*
X120999680Y-122512601D01*
X108009809Y-150999988D02*
X108012027Y-151000042D01*
X166573318Y-25116900D02*
X166616721Y-25095053D01*
X116836102Y-64513766D02*
X116811171Y-64518235D01*
X166706480Y-25057874D02*
X166752619Y-25042631D01*
X130954946Y-25566721D02*
X130974637Y-25611144D01*
X180165597Y-87924322D02*
X180165420Y-87924141D01*
X116076439Y-124117174D02*
X116076342Y-124117408D01*
X166675761Y-64756390D02*
X166712553Y-64724659D01*
X116036829Y-140466753D02*
X116059175Y-140591425D01*
X113990122Y-101975000D02*
X115009877Y-101975000D01*
X166285281Y-142738578D02*
X166285403Y-142738346D01*
X165885640Y-142997989D02*
X165885902Y-142997972D01*
X116000962Y-105537984D02*
X116000972Y-105538238D01*
X166616721Y-86904946D02*
X166573318Y-86883099D01*
X166408458Y-65156315D02*
X166425951Y-65110989D01*
X169711887Y-83935534D02*
X169722919Y-83941524D01*
X116886264Y-123506731D02*
X116861139Y-123509931D01*
X188991655Y-20000201D02*
X188991169Y-20000129D01*
X116641166Y-47433143D02*
X116664443Y-47441764D01*
X113029671Y-25749450D02*
X113042631Y-25702619D01*
X120323221Y-64445984D02*
X120275121Y-64461075D01*
X179171303Y-142761572D02*
X179171537Y-142761475D01*
X120999355Y-107474556D02*
X120999680Y-107487398D01*
X120274893Y-123461140D02*
X120226091Y-123473776D01*
X116002229Y-65436971D02*
X116000972Y-65461761D01*
X116315239Y-88603375D02*
X116303373Y-88625617D01*
X169427482Y-65296700D02*
X169435796Y-65344569D01*
X180165597Y-83075677D02*
X180182698Y-83057686D01*
X116145060Y-47018263D02*
X116158190Y-47039328D01*
X183995229Y-73692963D02*
X183998804Y-73741423D01*
X116961761Y-47499027D02*
X116962015Y-47499037D01*
X115995229Y-79592963D02*
X115998804Y-79641423D01*
X120908331Y-122917482D02*
X120886130Y-122962742D01*
X116158327Y-123960458D02*
X116158190Y-123960671D01*
X115743539Y-138025158D02*
X115775278Y-138061952D01*
X116000000Y-102965122D02*
X116000000Y-105493666D01*
X166873905Y-64616867D02*
X166917303Y-64595026D01*
X188994441Y-20001122D02*
X188993997Y-20000912D01*
X113990122Y-42975000D02*
X115009877Y-42975000D01*
X183883099Y-25523318D02*
X183904946Y-25566721D01*
X108004704Y-20001605D02*
X108004296Y-20001878D01*
X130483278Y-27904946D02*
X130438855Y-27924637D01*
X113796861Y-145981020D02*
X113749450Y-145970374D01*
X130300549Y-27970328D02*
X130253138Y-27980974D01*
X116000470Y-30499269D02*
X116000390Y-30499780D01*
X169587670Y-83840275D02*
X169587848Y-83840468D01*
X183989281Y-25844737D02*
X183995229Y-25892963D01*
X183859148Y-37318960D02*
X183833152Y-37360012D01*
X116134097Y-140885909D02*
X116134169Y-140886152D01*
X180865830Y-89113847D02*
X180858399Y-89090163D01*
X181224721Y-96438047D02*
X181194826Y-96399740D01*
X169446539Y-124489935D02*
X169449951Y-142489926D01*
X133550000Y-143990136D02*
X133550000Y-145009923D01*
X113224721Y-102336952D02*
X113256460Y-102300158D01*
X178006331Y-28000160D02*
X178006205Y-28000158D01*
X131030974Y-86203138D02*
X131020328Y-86250549D01*
X120805699Y-106908217D02*
X120805839Y-106908408D01*
X169795356Y-142971731D02*
X169795731Y-142971848D01*
X180935780Y-81615988D02*
X180940776Y-81591674D01*
X113990122Y-25000000D02*
X130059877Y-25000000D01*
X116398105Y-106298273D02*
X116418520Y-106313265D01*
X113075362Y-79311144D02*
X113095053Y-79266721D01*
X115942125Y-43631480D02*
X115957368Y-43677619D01*
X183998804Y-145058622D02*
X183995229Y-145107082D01*
X131068983Y-84512946D02*
X131091111Y-84555603D01*
X169479130Y-83663178D02*
X169489679Y-83690654D01*
X166340132Y-83577993D02*
X166341545Y-83568681D01*
X118388992Y-87062136D02*
X118364315Y-87067288D01*
X116172407Y-106060900D02*
X116186587Y-106081273D01*
X180364479Y-82845937D02*
X180379672Y-82826309D01*
X116301405Y-141309899D02*
X116312337Y-141332185D01*
X117244619Y-87556150D02*
X117244408Y-87556296D01*
X116378274Y-106282927D02*
X116397902Y-106298121D01*
X132753139Y-143019039D02*
X132800550Y-143029685D01*
X180267781Y-29036482D02*
X180182871Y-28942499D01*
X116754629Y-28986272D02*
X116754456Y-28986463D01*
X163569025Y-145203184D02*
X163560718Y-145155308D01*
X116036788Y-140466503D02*
X116036829Y-140466753D01*
X183859148Y-73281039D02*
X183883099Y-73323318D01*
X133026681Y-143116914D02*
X133068960Y-143140865D01*
X113523318Y-32858099D02*
X113481039Y-32834148D01*
X115674841Y-68443539D02*
X115638047Y-68475278D01*
X167195283Y-123510715D02*
X167243502Y-123504768D01*
X169910544Y-142994375D02*
X169910805Y-142994393D01*
X120945907Y-63823446D02*
X120928398Y-63870720D01*
X115476681Y-127583099D02*
X115433278Y-127604946D01*
X115433278Y-127604946D02*
X115388855Y-127624637D01*
X116886264Y-64506731D02*
X116861139Y-64509931D01*
X178885909Y-83865902D02*
X178886152Y-83865830D01*
X120012601Y-123499680D02*
X119987394Y-123500000D01*
X166355315Y-124392754D02*
X166361273Y-124344536D01*
X169937297Y-142995777D02*
X169962720Y-142996449D01*
X116594132Y-47413668D02*
X116594364Y-47413771D01*
X132938856Y-143075375D02*
X132983278Y-143095067D01*
X180963211Y-81466503D02*
X180966970Y-81441967D01*
X117626201Y-87327255D02*
X117625973Y-87327373D01*
X116447771Y-141576191D02*
X116460901Y-141597256D01*
X116036829Y-81466753D02*
X116059175Y-81591425D01*
X116049958Y-65188649D02*
X116049879Y-65188890D01*
X166216847Y-86560012D02*
X166190851Y-86518960D01*
X169450822Y-142522407D02*
X169450847Y-142522798D01*
X188995703Y-150998167D02*
X188996097Y-150997875D01*
X179194347Y-83751687D02*
X179194578Y-83751584D01*
X131166475Y-85211244D02*
X131154602Y-85257809D01*
X180469119Y-88296563D02*
X180454939Y-88276190D01*
X116131954Y-46995999D02*
X116132080Y-46996219D01*
X133409148Y-145519006D02*
X133383152Y-145560058D01*
X113611144Y-91899637D02*
X113566721Y-91879946D01*
X117424025Y-83552359D02*
X117533176Y-83616613D01*
X113057874Y-91318519D02*
X113042631Y-91272380D01*
X118674130Y-28017761D02*
X118673875Y-28017791D01*
X115433278Y-78795053D02*
X115476681Y-78816900D01*
X132938855Y-145924683D02*
X132893519Y-145942171D01*
X116545060Y-141723809D02*
X116545207Y-141724015D01*
X166228453Y-83821969D02*
X166228583Y-83821822D01*
X180628905Y-82444677D02*
X180687548Y-82332411D01*
X113194826Y-138100259D02*
X113224721Y-138061952D01*
X183599740Y-96605173D02*
X183560012Y-96633152D01*
X166661144Y-86924637D02*
X166616721Y-86904946D01*
X181325158Y-73056460D02*
X181361952Y-73024721D01*
X183560012Y-25166847D02*
X183599740Y-25194826D01*
X179576191Y-142552228D02*
X179597256Y-142539098D01*
X115560012Y-68533152D02*
X115518960Y-68559148D01*
X178616236Y-83935726D02*
X178739617Y-83907095D01*
X113289966Y-91685033D02*
X113256460Y-91649841D01*
X166047992Y-85499081D02*
X166047700Y-85498687D01*
X168835351Y-64575344D02*
X168879770Y-64595030D01*
X169504733Y-142723528D02*
X169509282Y-142731776D01*
X178591674Y-28059223D02*
X178591425Y-28059175D01*
X169937038Y-83995767D02*
X169937297Y-83995777D01*
X166326676Y-83638638D02*
X166329173Y-83629556D01*
X178615988Y-87064219D02*
X178591674Y-87059223D01*
X115957368Y-79402619D02*
X115970328Y-79449450D01*
X163875158Y-145743585D02*
X163839966Y-145710079D01*
X180966970Y-30558032D02*
X180963211Y-30533496D01*
X179171303Y-28238427D02*
X179053680Y-28191442D01*
X119006207Y-142999999D02*
X119006333Y-143000000D01*
X166073055Y-142945340D02*
X166073521Y-142945102D01*
X113325158Y-78956460D02*
X113361952Y-78924721D01*
X178886152Y-28134169D02*
X178885909Y-28134097D01*
X166285403Y-142738346D02*
X166297278Y-142715039D01*
X120075790Y-123496801D02*
X120025443Y-123499355D01*
X113523318Y-68583099D02*
X113481039Y-68559148D01*
X181656480Y-72857874D02*
X181702619Y-72842631D01*
X113166847Y-102414987D02*
X113194826Y-102375259D01*
X179597469Y-87461038D02*
X179597256Y-87460901D01*
X183638047Y-37575278D02*
X183599740Y-37605173D01*
X169441752Y-65392788D02*
X169445335Y-65441241D01*
X180379825Y-88173893D02*
X180379672Y-88173690D01*
X183957368Y-73502619D02*
X183970328Y-73549450D01*
X116023279Y-105713391D02*
X116023333Y-105713639D01*
X116761441Y-106470880D02*
X116761687Y-106470940D01*
X116418520Y-106313265D02*
X116418726Y-106313412D01*
X113361952Y-78924721D02*
X113400259Y-78894826D01*
X167100009Y-64529663D02*
X167147413Y-64519020D01*
X188987972Y-20000003D02*
X188987727Y-20000000D01*
X116418520Y-64686734D02*
X116398105Y-64701726D01*
X163989987Y-143166892D02*
X164031040Y-143140896D01*
X113523318Y-102091900D02*
X113566721Y-102070053D01*
X183638047Y-25224721D02*
X183674841Y-25256460D01*
X115995229Y-67807036D02*
X115989281Y-67855262D01*
X169699920Y-142929193D02*
X169700258Y-142929394D01*
X181004770Y-36907036D02*
X181001195Y-36858576D01*
X115250549Y-137729671D02*
X115297380Y-137742631D01*
X120323446Y-106554092D02*
X120370720Y-106571601D01*
X108000912Y-150994043D02*
X108001122Y-150994487D01*
X166048517Y-85499910D02*
X166048265Y-85499489D01*
X167147413Y-123519020D02*
X167195283Y-123510715D01*
X180817268Y-29969833D02*
X180808648Y-29946556D01*
X118855714Y-28003716D02*
X118830538Y-28005013D01*
X166084553Y-142939112D02*
X166084781Y-142938984D01*
X180996460Y-30860463D02*
X180995203Y-30835673D01*
X117509908Y-87389119D02*
X117487964Y-87401527D01*
X113116900Y-43498318D02*
X113140851Y-43456039D01*
X115904946Y-68133278D02*
X115883099Y-68176681D01*
X130393519Y-86942125D02*
X130347380Y-86957368D01*
X120928310Y-48129059D02*
X120928398Y-48129279D01*
X115518960Y-68559148D02*
X115476681Y-68583099D01*
X165775199Y-84331199D02*
X165796183Y-84287228D01*
X116233236Y-47141554D02*
X116233398Y-47141748D01*
X131062242Y-85479140D02*
X131051535Y-85497986D01*
X166517450Y-123939870D02*
X166545431Y-123900152D01*
X166279394Y-83749741D02*
X166284049Y-83741553D01*
X118383763Y-142935726D02*
X118384011Y-142935780D01*
X113004770Y-138592963D02*
X113010718Y-138544737D01*
X113256460Y-68374841D02*
X113224721Y-68338047D01*
X166242720Y-142804078D02*
X166242882Y-142803872D01*
X120996801Y-63575790D02*
X120996783Y-63576026D01*
X165898416Y-142996986D02*
X165898936Y-142996931D01*
X183638047Y-145775324D02*
X183599740Y-145805219D01*
X113990122Y-68700000D02*
X113941423Y-68698804D01*
X183476681Y-72916900D02*
X183518960Y-72940851D01*
X169606350Y-142858949D02*
X169615456Y-142867589D01*
X183998804Y-36858576D02*
X183995229Y-36907036D01*
X113892963Y-137704770D02*
X113941423Y-137701195D01*
X113289966Y-32685033D02*
X113256460Y-32649841D01*
X183638047Y-73024721D02*
X183674841Y-73056460D01*
X116761687Y-106470940D02*
X116786360Y-106476666D01*
X116266714Y-123820433D02*
X116249734Y-123839227D01*
X115433278Y-68604946D02*
X115388855Y-68624637D01*
X115805173Y-79100259D02*
X115833152Y-79139987D01*
X116042375Y-124212816D02*
X116035407Y-124237167D01*
X116688649Y-47450041D02*
X116688890Y-47450120D01*
X120370940Y-47571689D02*
X120417267Y-47591569D01*
X178764137Y-142900746D02*
X178885909Y-142865902D01*
X116004191Y-46588788D02*
X116006702Y-46613483D01*
X116171205Y-29910453D02*
X116124807Y-30033185D01*
X133355173Y-145599786D02*
X133325278Y-145638093D01*
X118235862Y-142900746D02*
X118236107Y-142900812D01*
X178466753Y-28036829D02*
X178466503Y-28036788D01*
X169463381Y-142609697D02*
X169463430Y-142609887D01*
X116481953Y-64644929D02*
X116481736Y-64645060D01*
X130793539Y-27674841D02*
X130760033Y-27710033D01*
X164116722Y-143095098D02*
X164161145Y-143075407D01*
X183518960Y-37659148D02*
X183476681Y-37683099D01*
X116481953Y-106355070D02*
X116503780Y-106367919D01*
X115058576Y-42976195D02*
X115107036Y-42979770D01*
X115674841Y-32718539D02*
X115638047Y-32750278D01*
X115743539Y-102300158D02*
X115775278Y-102336952D01*
X188993997Y-150999133D02*
X188994441Y-150998923D01*
X117353514Y-28482952D02*
X117244619Y-28556150D01*
X179171537Y-28238524D02*
X179171303Y-28238427D01*
X116863576Y-87873686D02*
X116771942Y-87967596D01*
X116978353Y-87766670D02*
X116882009Y-87855743D01*
X163875159Y-143256505D02*
X163911952Y-143224767D01*
X180454792Y-29275984D02*
X180379825Y-29173893D01*
X164540122Y-146000046D02*
X164491423Y-145998850D01*
X180935726Y-81616236D02*
X180935780Y-81615988D01*
X120886020Y-63962953D02*
X120861555Y-64007030D01*
X113892963Y-25004770D02*
X113941423Y-25001195D01*
X115924637Y-138311144D02*
X115942125Y-138356480D01*
X113990122Y-137700000D02*
X115009877Y-137700000D01*
X115599740Y-78894826D02*
X115638047Y-78924721D01*
X113256460Y-102300158D02*
X113289966Y-102264966D01*
X178763892Y-28099187D02*
X178739863Y-28092965D01*
X113057874Y-68043519D02*
X113042631Y-67997380D01*
X115989281Y-43819737D02*
X115995229Y-43867963D01*
X116530738Y-141703226D02*
X116530880Y-141703436D01*
X116144929Y-123981953D02*
X116132080Y-124003780D01*
X180267949Y-29036672D02*
X180267781Y-29036482D01*
X116042375Y-105787183D02*
X116042448Y-105787426D01*
X115957368Y-43677619D02*
X115970328Y-43724450D01*
X183859148Y-96318960D02*
X183833152Y-96360012D01*
X130620419Y-84093009D02*
X130663454Y-84114394D01*
X116000158Y-46506205D02*
X116000160Y-46506331D01*
X113000000Y-43965122D02*
X113001195Y-43916423D01*
X115883099Y-68176681D02*
X115859148Y-68218960D01*
X169457905Y-83584319D02*
X169459098Y-83590752D01*
X183995229Y-95907036D02*
X183989281Y-95955262D01*
X180935726Y-89383763D02*
X180907095Y-89260382D01*
X116000160Y-124493668D02*
X116000158Y-124493794D01*
X181095053Y-96233278D02*
X181075362Y-96188855D01*
X116013725Y-46663647D02*
X116013766Y-46663897D01*
X116076233Y-89182675D02*
X116069164Y-89206873D01*
X116302075Y-47215834D02*
X116302256Y-47216011D01*
X164073319Y-143116945D02*
X164116722Y-143095098D01*
X113019025Y-25796861D02*
X113029671Y-25749450D01*
X188993082Y-150999486D02*
X188993544Y-150999321D01*
X188994874Y-20001353D02*
X188994441Y-20001122D01*
X113057874Y-79356480D02*
X113075362Y-79311144D01*
X116266714Y-106179566D02*
X116266886Y-106179752D01*
X120176479Y-123483978D02*
X120176246Y-123484020D01*
X116217229Y-123878075D02*
X116217072Y-123878274D01*
X108002170Y-20003902D02*
X108001878Y-20004296D01*
X163550000Y-143990168D02*
X163551195Y-143941468D01*
X108004704Y-150998440D02*
X108005125Y-150998692D01*
X116997684Y-28749699D02*
X116997489Y-28749867D01*
X118855714Y-87003716D02*
X118830538Y-87005013D01*
X120983978Y-48323520D02*
X120984020Y-48323753D01*
X119987394Y-123500000D02*
X117006333Y-123500000D01*
X131045229Y-25892963D02*
X131048804Y-25941423D01*
X179332411Y-87312451D02*
X179332185Y-87312337D01*
X183904946Y-37233278D02*
X183883099Y-37276681D01*
X183107036Y-96795229D02*
X183058576Y-96798804D01*
X113990122Y-32975000D02*
X113941423Y-32973804D01*
X183924637Y-37188855D02*
X183904946Y-37233278D01*
X169731785Y-142945862D02*
X169731964Y-142945944D01*
X116059223Y-140591674D02*
X116064219Y-140615988D01*
X180761572Y-29828696D02*
X180761475Y-29828462D01*
X116525703Y-123619908D02*
X116504000Y-123631954D01*
X183107036Y-72804770D02*
X183155262Y-72810718D01*
X178006331Y-87000160D02*
X178006205Y-87000158D01*
X180284280Y-141944299D02*
X180364321Y-141846136D01*
X180983007Y-140316071D02*
X180983036Y-140315820D01*
X113019025Y-91178138D02*
X113010718Y-91130262D01*
X133433099Y-143523332D02*
X133454946Y-143566735D01*
X116009931Y-46638860D02*
X116009966Y-46639111D01*
X166257941Y-142783144D02*
X166258086Y-142782926D01*
X165794135Y-85179655D02*
X165773353Y-85135589D01*
X115155262Y-42985718D02*
X115203138Y-42994025D01*
X108006917Y-150999486D02*
X108007387Y-150999629D01*
X116861139Y-106490068D02*
X116886264Y-106493268D01*
X181057874Y-96143519D02*
X181042631Y-96097380D01*
X116594132Y-123586331D02*
X116571117Y-123596906D01*
X120999680Y-122512601D02*
X120999355Y-122525443D01*
X108002482Y-150996523D02*
X108002811Y-150996886D01*
X183833152Y-25439987D02*
X183859148Y-25481039D01*
X180858320Y-30089923D02*
X180817353Y-29970071D01*
X117098682Y-28665539D02*
X117098482Y-28665701D01*
X180761572Y-88828696D02*
X180761475Y-88828462D01*
X166228583Y-83821822D02*
X166234747Y-83814700D01*
X116000337Y-30500295D02*
X116000310Y-30500812D01*
X179444900Y-83628785D02*
X179466603Y-83616738D01*
X113892963Y-101979770D02*
X113941423Y-101976195D01*
X181702619Y-72842631D02*
X181749450Y-72829671D01*
X116029618Y-89359001D02*
X116002660Y-89487335D01*
X116000160Y-81006331D02*
X116003529Y-81139283D01*
X117690100Y-142698594D02*
X117690328Y-142698702D01*
X113166847Y-138139987D02*
X113194826Y-138100259D01*
X118085245Y-87140724D02*
X118061228Y-87148385D01*
X163989987Y-145833198D02*
X163950259Y-145805219D01*
X116936719Y-123502245D02*
X116911463Y-123504168D01*
X179332411Y-83687548D02*
X179444677Y-83628905D01*
X166517450Y-64939870D02*
X166545431Y-64900152D01*
X115998804Y-126758576D02*
X115995229Y-126807036D01*
X117055700Y-83284280D02*
X117153863Y-83364321D01*
X169455111Y-142565098D02*
X169456280Y-142574444D01*
X169596489Y-83849573D02*
X169596859Y-83849943D01*
X163569025Y-143796906D02*
X163579672Y-143749495D01*
X168743887Y-123542621D02*
X168790021Y-123557860D01*
X183970328Y-96050549D02*
X183957368Y-96097380D01*
X183904946Y-25566721D02*
X183924637Y-25611144D01*
X116620174Y-141826106D02*
X116620327Y-141826309D01*
X184000000Y-132790122D02*
X184000000Y-145009923D01*
X120126415Y-106508346D02*
X120176246Y-106515979D01*
X181892963Y-72804770D02*
X181941423Y-72801195D01*
X131039281Y-86155262D02*
X131030974Y-86203138D01*
X116058235Y-124164443D02*
X116058150Y-124164682D01*
X115883099Y-32451681D02*
X115859148Y-32493960D01*
X169530789Y-83768362D02*
X169531074Y-83768801D01*
X120462742Y-123386130D02*
X120417482Y-123408331D01*
X116124807Y-30033185D02*
X116124719Y-30033427D01*
X178291125Y-87014452D02*
X178290873Y-87014430D01*
X120805839Y-123091591D02*
X120805699Y-123091782D01*
X131051535Y-85497986D02*
X131051302Y-85498420D01*
X183009877Y-72800000D02*
X183058576Y-72801195D01*
X180182871Y-28942499D02*
X180182698Y-28942313D01*
X120631647Y-47725158D02*
X120631831Y-47725308D01*
X113439987Y-68533152D02*
X113400259Y-68505173D01*
X115989281Y-79544737D02*
X115995229Y-79592963D01*
X179963517Y-142267781D02*
X180057500Y-142182871D01*
X116978544Y-87766498D02*
X116978353Y-87766670D01*
X116811171Y-47481764D02*
X116836102Y-47486233D01*
X113000000Y-90984877D02*
X113000000Y-79690122D01*
X181400259Y-131994826D02*
X181439987Y-131966847D01*
X118533246Y-142963170D02*
X118533496Y-142963211D01*
X180364479Y-88154062D02*
X180364321Y-88153863D01*
X181194826Y-73200259D02*
X181224721Y-73161952D01*
X116302256Y-47216011D02*
X116320247Y-47233113D01*
X115250549Y-91945328D02*
X115203138Y-91955974D01*
X165859280Y-142999369D02*
X165859542Y-142999359D01*
X166234747Y-83814700D02*
X166234998Y-83814398D01*
X120226091Y-47526223D02*
X120274893Y-47538859D01*
X183980974Y-73596861D02*
X183989281Y-73644737D01*
X167100009Y-123529663D02*
X167147413Y-123519020D01*
X116000337Y-89500295D02*
X116000310Y-89500812D01*
X118518332Y-28038581D02*
X118389245Y-28062086D01*
X120631831Y-64274691D02*
X120631647Y-64274841D01*
X116124719Y-89033427D02*
X116116414Y-89057229D01*
X117223855Y-87570893D02*
X117223647Y-87571045D01*
X116002245Y-65436719D02*
X116002229Y-65436971D01*
X116712573Y-123542448D02*
X116688890Y-123549879D01*
X169497425Y-83708679D02*
X169500242Y-83714585D01*
X130724841Y-25256460D02*
X130760033Y-25289966D01*
X179309671Y-87301297D02*
X179194578Y-87248415D01*
X166126552Y-83913701D02*
X166126712Y-83913587D01*
X115775278Y-102336952D02*
X115805173Y-102375259D01*
X113361952Y-43199721D02*
X113400259Y-43169826D01*
X178316071Y-142983007D02*
X178441716Y-142967005D01*
X169530910Y-142768832D02*
X169536092Y-142776697D01*
X113892963Y-68695229D02*
X113844737Y-68689281D01*
X113566721Y-78795053D02*
X113611144Y-78775362D01*
X116651445Y-29104505D02*
X116651282Y-29104704D01*
X115638047Y-102199721D02*
X115674841Y-102231460D01*
X116737167Y-106464592D02*
X116737412Y-106464658D01*
X166342426Y-83561999D02*
X166342450Y-83561804D01*
X116119787Y-105974073D02*
X116119908Y-105974296D01*
X116086331Y-124094132D02*
X116086228Y-124094364D01*
X115560012Y-32808152D02*
X115518960Y-32834148D01*
X116811171Y-123518235D02*
X116810922Y-123518282D01*
X116108060Y-65048377D02*
X116107946Y-65048603D01*
X113010718Y-79544737D02*
X113019025Y-79496861D01*
X115107036Y-78704770D02*
X115155262Y-78710718D01*
X116460458Y-106341672D02*
X116460671Y-106341809D01*
X116006702Y-65386516D02*
X116004191Y-65411211D01*
X169845856Y-142985128D02*
X169846368Y-142985236D01*
X169795731Y-142971848D02*
X169804779Y-142974463D01*
X169456280Y-142574444D02*
X169456336Y-142574832D01*
X115924637Y-79311144D02*
X115942125Y-79356480D01*
X166079671Y-86250549D02*
X166069025Y-86203138D01*
X118236357Y-87097459D02*
X118236107Y-87097521D01*
X116478223Y-88334980D02*
X116478077Y-88335192D01*
X181844737Y-72810718D02*
X181892963Y-72804770D01*
X166132252Y-142910090D02*
X166132413Y-142909978D01*
X183957368Y-96097380D02*
X183942125Y-96143519D01*
X180267949Y-141963327D02*
X180284117Y-141944493D01*
X183743539Y-25325158D02*
X183775278Y-25361952D01*
X179963327Y-87732050D02*
X179944493Y-87715882D01*
X116201878Y-64897902D02*
X116201726Y-64898105D01*
X169493454Y-142699922D02*
X169497342Y-142708501D01*
X120550017Y-123334769D02*
X120507235Y-123361435D01*
X184000000Y-95809877D02*
X183998804Y-95858576D01*
X130855173Y-27599740D02*
X130825278Y-27638047D01*
X183674841Y-145743585D02*
X183638047Y-145775324D01*
X113000000Y-145009923D02*
X113000000Y-138690122D01*
X166190083Y-142862516D02*
X166190270Y-142862334D01*
X116715719Y-141944299D02*
X116715882Y-141944493D01*
X113042631Y-91272380D02*
X113029671Y-91225549D01*
X180985569Y-30709126D02*
X180985547Y-30708874D01*
X117805421Y-83751584D02*
X117805652Y-83751687D01*
X131124154Y-85348938D02*
X131105650Y-85393287D01*
X116000972Y-124461761D02*
X116000962Y-124462015D01*
X108001878Y-150995749D02*
X108002170Y-150996143D01*
X178739617Y-142907095D02*
X178739863Y-142907034D01*
X169351428Y-65066599D02*
X169371123Y-65111014D01*
X169667292Y-83908241D02*
X169677638Y-83915351D01*
X116092904Y-81739617D02*
X116092965Y-81739863D01*
X163551195Y-143941468D02*
X163554770Y-143893008D01*
X115970328Y-43724450D02*
X115980974Y-43771861D01*
X166445647Y-124066576D02*
X166467498Y-124023182D01*
X113256460Y-145674887D02*
X113224721Y-145638093D01*
X166049573Y-85502648D02*
X166049454Y-85502172D01*
X116097014Y-124070888D02*
X116096906Y-124071117D01*
X116911463Y-123504168D02*
X116911211Y-123504191D01*
X117510133Y-28388995D02*
X117509908Y-28389119D01*
X118089923Y-142858320D02*
X118090163Y-142858399D01*
X120076026Y-47503216D02*
X120126180Y-47508316D01*
X116000158Y-81006205D02*
X116000160Y-81006331D01*
X183388855Y-131875362D02*
X183433278Y-131895053D01*
X108001605Y-20004704D02*
X108001353Y-20005125D01*
X166339966Y-25289966D02*
X166375158Y-25256460D01*
X188999702Y-20007863D02*
X188999583Y-20007387D01*
X169509282Y-142731776D02*
X169509378Y-142731947D01*
X115155262Y-91964281D02*
X115107036Y-91970229D01*
X117828462Y-142761475D02*
X117828696Y-142761572D01*
X183560012Y-145833198D02*
X183518960Y-145859194D01*
X183859148Y-132281039D02*
X183883099Y-132323318D01*
X120507235Y-47638564D02*
X120550017Y-47665230D01*
X183674841Y-25256460D02*
X183710033Y-25289966D01*
X120275121Y-64461075D02*
X120274893Y-64461140D01*
X130526681Y-27883099D02*
X130483278Y-27904946D01*
X180284280Y-88055700D02*
X180284117Y-88055506D01*
X118260136Y-83907034D02*
X118260382Y-83907095D01*
X178006205Y-87000158D02*
X177993792Y-87000000D01*
X169645706Y-83892559D02*
X169645916Y-83892715D01*
X166616721Y-25095053D02*
X166661144Y-25075362D01*
X181256460Y-37474841D02*
X181224721Y-37438047D01*
X169625592Y-142876259D02*
X169645921Y-142892720D01*
X168790021Y-123557860D02*
X168835351Y-123575344D01*
X118993794Y-83999841D02*
X119006207Y-83999999D01*
X181611144Y-96724637D02*
X181566721Y-96704946D01*
X113095053Y-102541721D02*
X113116900Y-102498318D01*
X183883099Y-96276681D02*
X183859148Y-96318960D01*
X120591782Y-123305699D02*
X120591591Y-123305839D01*
X166991423Y-25001195D02*
X167040122Y-25000000D01*
X113844737Y-42985718D02*
X113892963Y-42979770D01*
X116811171Y-106481764D02*
X116836102Y-106486233D01*
X179597469Y-142538961D02*
X179703226Y-142469261D01*
X166110437Y-142924167D02*
X166118500Y-142919298D01*
X179703436Y-28530880D02*
X179703226Y-28530738D01*
X116530880Y-141703436D02*
X116545060Y-141723809D01*
X116886516Y-64506702D02*
X116886264Y-64506731D01*
X116641166Y-64566856D02*
X116640930Y-64566947D01*
X166799450Y-27970328D02*
X166752619Y-27957368D01*
X113166847Y-32535012D02*
X113140851Y-32493960D01*
X116058235Y-46835556D02*
X116066856Y-46858833D01*
X120991683Y-122626180D02*
X120991653Y-122626415D01*
X183058576Y-72801195D02*
X183107036Y-72804770D01*
X117173690Y-142379672D02*
X117173893Y-142379825D01*
X179575974Y-83552359D02*
X179576191Y-83552228D01*
X116107946Y-124048603D02*
X116097014Y-124070888D01*
X166341572Y-83568486D02*
X166342426Y-83561999D01*
X181796861Y-131819025D02*
X181844737Y-131810718D01*
X179029928Y-28182646D02*
X178910076Y-28141679D01*
X116131954Y-65004000D02*
X116119908Y-65025703D01*
X183942125Y-132456480D02*
X183957368Y-132502619D01*
X118236107Y-83900812D02*
X118260136Y-83907034D01*
X117244619Y-28556150D02*
X117244408Y-28556296D01*
X113656480Y-43032874D02*
X113702619Y-43017631D01*
X113289966Y-127410033D02*
X113256460Y-127374841D01*
X166831631Y-64640811D02*
X166873905Y-64616867D01*
X178764137Y-87099253D02*
X178763892Y-87099187D01*
X130297482Y-84004676D02*
X130345184Y-84010494D01*
X166274721Y-27638047D02*
X166244826Y-27599740D01*
X169450382Y-83512801D02*
X169450389Y-83512998D01*
X120774691Y-64131831D02*
X120741854Y-64170081D01*
X166226091Y-142824608D02*
X166226259Y-142824407D01*
X181439987Y-96633152D02*
X181400259Y-96605173D01*
X116249734Y-106160772D02*
X116266714Y-106179566D01*
X115203138Y-32955974D02*
X115155262Y-32964281D01*
X117223647Y-87571045D02*
X117118661Y-87649747D01*
X169479039Y-142662933D02*
X169479130Y-142663178D01*
X113075362Y-102586144D02*
X113095053Y-102541721D01*
X115859148Y-79181039D02*
X115883099Y-79223318D01*
X165703939Y-84563532D02*
X165713579Y-84515774D01*
X116000000Y-80993666D02*
X116000000Y-80993792D01*
X108006917Y-20000559D02*
X108006455Y-20000724D01*
X130860366Y-84251088D02*
X130895447Y-84283930D01*
X178886152Y-83865830D02*
X178909836Y-83858399D01*
X113095053Y-138266721D02*
X113116900Y-138223318D01*
X116009966Y-46639111D02*
X116013725Y-46663647D01*
X179053443Y-83808648D02*
X179053680Y-83808557D01*
X166799450Y-25029671D02*
X166846861Y-25019025D01*
X168879770Y-64595030D02*
X168923169Y-64616872D01*
X166380243Y-65249266D02*
X166393209Y-65202444D01*
X178591674Y-83940776D02*
X178615988Y-83935780D01*
X183980974Y-96003138D02*
X183970328Y-96050549D01*
X164252619Y-145957414D02*
X164206480Y-145942171D01*
X188991169Y-150999916D02*
X188991655Y-150999844D01*
X181075362Y-96188855D02*
X181057874Y-96143519D01*
X179309671Y-142698702D02*
X179309899Y-142698594D01*
X169471120Y-142638567D02*
X169474686Y-142650602D01*
X179723809Y-87545060D02*
X179703436Y-87530880D01*
X178441967Y-28033029D02*
X178441716Y-28032994D01*
X108009809Y-20000057D02*
X108009318Y-20000081D01*
X166240877Y-83807039D02*
X166240998Y-83806885D01*
X183433278Y-145904992D02*
X183388855Y-145924683D01*
X169758851Y-83957914D02*
X169759091Y-83958017D01*
X115203138Y-127680974D02*
X115155262Y-127689281D01*
X116664443Y-64558235D02*
X116641166Y-64566856D01*
X116023279Y-124286608D02*
X116018282Y-124310922D01*
X133260033Y-145710079D02*
X133224841Y-145743585D01*
X130793539Y-86674841D02*
X130760033Y-86710033D01*
X131018652Y-84431103D02*
X131044811Y-84471414D01*
X180469261Y-82703226D02*
X180538961Y-82597469D01*
X115989281Y-126855262D02*
X115980974Y-126903138D01*
X116119908Y-124025703D02*
X116119787Y-124025926D01*
X132893519Y-145942171D02*
X132847380Y-145957414D01*
X116640930Y-106433052D02*
X116641166Y-106433143D01*
X120462953Y-64386020D02*
X120462742Y-64386130D01*
X181004770Y-132692963D02*
X181010718Y-132644737D01*
X180967005Y-140441716D02*
X180983007Y-140316071D01*
X108007863Y-150999748D02*
X108008344Y-150999844D01*
X120706795Y-106793036D02*
X120706963Y-106793204D01*
X165833595Y-143000043D02*
X165859280Y-142999369D01*
X181004770Y-95907036D02*
X181001195Y-95858576D01*
X115942125Y-102631480D02*
X115957368Y-102677619D01*
X117912974Y-28200610D02*
X117791416Y-28250004D01*
X181941423Y-96798804D02*
X181892963Y-96795229D01*
X120631647Y-64274841D02*
X120591782Y-64305699D01*
X120025443Y-106500644D02*
X120075790Y-106503198D01*
X120670081Y-106758145D02*
X120670257Y-106758304D01*
X166256304Y-83785671D02*
X166274114Y-83758243D01*
X116158190Y-106039328D02*
X116158327Y-106039541D01*
X168601785Y-64510715D02*
X168649655Y-64519020D01*
X113224721Y-68338047D02*
X113194826Y-68299740D01*
X183250549Y-145970374D02*
X183203138Y-145981020D01*
X113256460Y-127374841D02*
X113224721Y-127338047D01*
X180963170Y-140466753D02*
X180963211Y-140466503D01*
X183107036Y-25004770D02*
X183155262Y-25010718D01*
X117275984Y-83454792D02*
X117276190Y-83454939D01*
X113749450Y-102004671D02*
X113796861Y-101994025D01*
X183924637Y-96188855D02*
X183904946Y-96233278D01*
X164442964Y-143004815D02*
X164491424Y-143001241D01*
X116049879Y-124188890D02*
X116042448Y-124212573D01*
X116141679Y-140910076D02*
X116182646Y-141029928D01*
X113289966Y-137989966D02*
X113325158Y-137956460D01*
X116302256Y-64783988D02*
X116302075Y-64784165D01*
X113166847Y-79139987D02*
X113194826Y-79100259D01*
X115297380Y-32932368D02*
X115250549Y-32945328D01*
X183859148Y-145519006D02*
X183833152Y-145560058D01*
X116013725Y-124336352D02*
X116009966Y-124360888D01*
X108000201Y-150991701D02*
X108000297Y-150992182D01*
X117555322Y-83628905D02*
X117667588Y-83687548D01*
X169509378Y-142731947D02*
X169525732Y-142760268D01*
X115980974Y-32178138D02*
X115970328Y-32225549D01*
X131140484Y-85303743D02*
X131124154Y-85348938D01*
X120275121Y-106538924D02*
X120323221Y-106554015D01*
X116810922Y-64518282D02*
X116786608Y-64523279D01*
X117648986Y-28315880D02*
X117648755Y-28315992D01*
X116023333Y-65286360D02*
X116023279Y-65286608D01*
X117375007Y-87469291D02*
X117353730Y-87482811D01*
X116006702Y-46613483D02*
X116006731Y-46613735D01*
X166321728Y-83654637D02*
X166321854Y-83654265D01*
X113523318Y-137816900D02*
X113566721Y-137795053D01*
X181004770Y-73692963D02*
X181010718Y-73644737D01*
X169645921Y-142892720D02*
X169646127Y-142892882D01*
X166107874Y-27343519D02*
X166092631Y-27297380D01*
X181796861Y-96780974D02*
X181749450Y-96770328D01*
X120591591Y-106694160D02*
X120591782Y-106694300D01*
X117667814Y-83687662D02*
X117690100Y-83698594D01*
X166025754Y-142966404D02*
X166037351Y-142961599D01*
X180983007Y-30683928D02*
X180967005Y-30558283D01*
X180379672Y-82826309D02*
X180379825Y-82826106D01*
X116478077Y-88335192D02*
X116463988Y-88356097D01*
X178739863Y-87092965D02*
X178739617Y-87092904D01*
X115859148Y-102456039D02*
X115883099Y-102498318D01*
X116018235Y-46688828D02*
X116018282Y-46689077D01*
X179194578Y-142751584D02*
X179309671Y-142698702D01*
X115297380Y-102017631D02*
X115343519Y-102032874D01*
X169862177Y-83988250D02*
X169862369Y-83988289D01*
X117223855Y-28570893D02*
X117223647Y-28571045D01*
X120462953Y-106613979D02*
X120507030Y-106638444D01*
X116339417Y-106250432D02*
X116358251Y-106266601D01*
X113057874Y-25656480D02*
X113075362Y-25611144D01*
X120462953Y-47613979D02*
X120507030Y-47638444D01*
X169509282Y-83731776D02*
X169509378Y-83731947D01*
X180995187Y-81164579D02*
X180995203Y-81164326D01*
X120834638Y-64050215D02*
X120805839Y-64091591D01*
X180182698Y-28942313D02*
X180165597Y-28924322D01*
X116244492Y-88743161D02*
X116244380Y-88743393D01*
X115388855Y-102050362D02*
X115433278Y-102070053D01*
X178910076Y-142858320D02*
X179029928Y-142817353D01*
X116481736Y-106354939D02*
X116481953Y-106355070D01*
X183203138Y-96780974D02*
X183155262Y-96789281D01*
X180761475Y-88828462D02*
X180751687Y-88805652D01*
X115638047Y-137924721D02*
X115674841Y-137956460D01*
X116715719Y-82944299D02*
X116715882Y-82944493D01*
X179029928Y-83817353D02*
X179030166Y-83817268D01*
X166140383Y-142904256D02*
X166147818Y-142898473D01*
X116107946Y-105951396D02*
X116108060Y-105951622D01*
X130705400Y-84137841D02*
X130746158Y-84163297D01*
X120275121Y-123461075D02*
X120274893Y-123461140D01*
X120670081Y-64241854D02*
X120631831Y-64274691D01*
X116003529Y-81139283D02*
X116003539Y-81139536D01*
X181325158Y-96543539D02*
X181289966Y-96510033D01*
X181166847Y-73239987D02*
X181194826Y-73200259D01*
X169504733Y-83723528D02*
X169509282Y-83731776D01*
X183518960Y-25140851D02*
X183560012Y-25166847D01*
X117969833Y-83817268D02*
X117970071Y-83817353D01*
X130909148Y-25481039D02*
X130933099Y-25523318D01*
X116504000Y-64631954D02*
X116503780Y-64632080D01*
X169251646Y-123900169D02*
X169279627Y-123939889D01*
X188994441Y-150998923D02*
X188994874Y-150998692D01*
X116186587Y-106081273D02*
X116186734Y-106081479D01*
X115743539Y-32649841D02*
X115710033Y-32685033D01*
X116371094Y-141444677D02*
X116371214Y-141444900D01*
X180454939Y-141723809D02*
X180469119Y-141703436D01*
X108006002Y-150999133D02*
X108006455Y-150999321D01*
X113523318Y-25116900D02*
X113566721Y-25095053D01*
X118830281Y-87005030D02*
X118699463Y-87015148D01*
X117098482Y-87665701D02*
X116997684Y-87749699D01*
X120274893Y-64461140D02*
X120226091Y-64473776D01*
X169463381Y-83609697D02*
X169463430Y-83609887D01*
X180469119Y-141703436D02*
X180469261Y-141703226D01*
X108003522Y-20002482D02*
X108003159Y-20002811D01*
X169596859Y-83849943D02*
X169605965Y-83858584D01*
X133293539Y-145674887D02*
X133260033Y-145710079D01*
X169500242Y-83714585D02*
X169500329Y-83714761D01*
X166250523Y-142793913D02*
X166250831Y-142793489D01*
X133110012Y-145833198D02*
X133068960Y-145859194D01*
X183998804Y-25941423D02*
X184000000Y-25990122D01*
X116029059Y-46738312D02*
X116029119Y-46738558D01*
X116886516Y-123506702D02*
X116886264Y-123506731D01*
X116066947Y-65140930D02*
X116066856Y-65141166D01*
X169046219Y-123694781D02*
X169084523Y-123724669D01*
X183883099Y-132323318D02*
X183904946Y-132366721D01*
X115518960Y-91834148D02*
X115476681Y-91858099D01*
X116617174Y-123576439D02*
X116594364Y-123586228D01*
X169524095Y-83757434D02*
X169524229Y-83757659D01*
X116066947Y-124140930D02*
X116066856Y-124141166D01*
X120126180Y-106508316D02*
X120126415Y-106508346D01*
X118090163Y-83858399D02*
X118113847Y-83865830D01*
X166340066Y-142578380D02*
X166340132Y-142577993D01*
X166047059Y-85497944D02*
X166046712Y-85497597D01*
X165911641Y-142995254D02*
X165940709Y-142990647D01*
X169561841Y-83811096D02*
X169569994Y-83820640D01*
X118113847Y-142865830D02*
X118114090Y-142865902D01*
X169463430Y-142609887D02*
X169471049Y-142638315D01*
X116042448Y-65212573D02*
X116042375Y-65212816D01*
X113702619Y-68657368D02*
X113656480Y-68642125D01*
X180364321Y-82846136D02*
X180364479Y-82845937D01*
X163645053Y-143566767D02*
X163666900Y-143523364D01*
X117276190Y-142454939D02*
X117296563Y-142469119D01*
X116141600Y-81909836D02*
X116141679Y-81910076D01*
X130793539Y-25325158D02*
X130825278Y-25361952D01*
X116836102Y-123513766D02*
X116811171Y-123518235D01*
X113019025Y-79496861D02*
X113029671Y-79449450D01*
X115297380Y-137742631D02*
X115343519Y-137757874D01*
X183904946Y-145433324D02*
X183883099Y-145476727D01*
X130649740Y-27805173D02*
X130610012Y-27833152D01*
X108000724Y-150993590D02*
X108000912Y-150994043D01*
X116439099Y-106327592D02*
X116439309Y-106327734D01*
X120973830Y-122725860D02*
X120973776Y-122726091D01*
X166049741Y-85503615D02*
X166049669Y-85503130D01*
X118830538Y-28005013D02*
X118830281Y-28005030D01*
X169578841Y-142830978D02*
X169587483Y-142840083D01*
X113611144Y-32899637D02*
X113566721Y-32879946D01*
X117690100Y-83698594D02*
X117690328Y-83698702D01*
X116233398Y-123858251D02*
X116233236Y-123858445D01*
X116058150Y-46835317D02*
X116058235Y-46835556D01*
X116715882Y-82944493D02*
X116732050Y-82963327D01*
X116398105Y-64701726D02*
X116397902Y-64701878D01*
X131050257Y-85502189D02*
X131050233Y-85502680D01*
X115674841Y-43231460D02*
X115710033Y-43264966D01*
X115883099Y-79223318D02*
X115904946Y-79266721D01*
X120741695Y-64170257D02*
X120706963Y-64206795D01*
X181075362Y-37188855D02*
X181057874Y-37143519D01*
X183388855Y-25075362D02*
X183433278Y-25095053D01*
X115203138Y-42994025D02*
X115250549Y-43004671D01*
X113001195Y-79641423D02*
X113004770Y-79592963D01*
X166069025Y-86203138D02*
X166060718Y-86155262D01*
X169006494Y-64666808D02*
X169046219Y-64694781D01*
X120507030Y-64361555D02*
X120462953Y-64386020D01*
X108003159Y-20002811D02*
X108002811Y-20003159D01*
X117353730Y-28482811D02*
X117353514Y-28482952D01*
X169450124Y-83502965D02*
X169450382Y-83512801D01*
X116144929Y-106018046D02*
X116145060Y-106018263D01*
X116463988Y-88356097D02*
X116463847Y-88356312D01*
X118543495Y-87034661D02*
X118518585Y-87038538D01*
X116238427Y-141171303D02*
X116238524Y-141171537D01*
X168923169Y-64616872D02*
X168965444Y-64640818D01*
X116217072Y-64878274D02*
X116201878Y-64897902D01*
X113990122Y-146000046D02*
X113990122Y-146000046D01*
X113000000Y-31984877D02*
X113000000Y-25990122D01*
X183957368Y-37097380D02*
X183942125Y-37143519D01*
X178764137Y-28099253D02*
X178763892Y-28099187D01*
X183805173Y-145599786D02*
X183775278Y-145638093D01*
X120928310Y-63870940D02*
X120908430Y-63917267D01*
X183805173Y-73200259D02*
X183833152Y-73239987D01*
X113001195Y-138641423D02*
X113004770Y-138592963D01*
X181289966Y-73089966D02*
X181325158Y-73056460D01*
X169479039Y-83662933D02*
X169479130Y-83663178D01*
X166917303Y-64595026D02*
X166961721Y-64575340D01*
X179724015Y-142454792D02*
X179826106Y-142379825D01*
X116029059Y-65261687D02*
X116023333Y-65286360D01*
X116378075Y-106282770D02*
X116378274Y-106282927D01*
X166302964Y-83703479D02*
X166303119Y-83703118D01*
X108012272Y-151000046D02*
X188987727Y-151000046D01*
X113844737Y-32964281D02*
X113796861Y-32955974D01*
X168649655Y-64519020D02*
X168697061Y-64529664D01*
X113000000Y-67709877D02*
X113000000Y-43965122D01*
X115805173Y-138100259D02*
X115833152Y-138139987D01*
X116302075Y-64784165D02*
X116284165Y-64802075D01*
X113400259Y-68505173D02*
X113361952Y-68475278D01*
X116000000Y-67709877D02*
X115998804Y-67758576D01*
X120961140Y-122774893D02*
X120961075Y-122775121D01*
X178739617Y-28092904D02*
X178616236Y-28064273D01*
X189000000Y-150987773D02*
X189000000Y-20012272D01*
X168697061Y-123529664D02*
X168743887Y-123542621D01*
X116066856Y-65141166D02*
X116058235Y-65164443D01*
X115009877Y-78700000D02*
X115058576Y-78701195D01*
X116320247Y-47233113D02*
X116320433Y-47233285D01*
X166166900Y-25523318D02*
X166190851Y-25481039D01*
X166199573Y-83853510D02*
X166199943Y-83853140D01*
X120370720Y-47571601D02*
X120370940Y-47571689D01*
X116712573Y-64542448D02*
X116688890Y-64549879D01*
X116000000Y-124506333D02*
X116000000Y-126709877D01*
X166190851Y-27518960D02*
X166166900Y-27476681D01*
X117153863Y-142364321D02*
X117154062Y-142364479D01*
X169524229Y-83757659D02*
X169530789Y-83768362D01*
X169446539Y-65489935D02*
X169449951Y-83489926D01*
X113656480Y-32917125D02*
X113611144Y-32899637D01*
X116002610Y-30487588D02*
X116000470Y-30499269D01*
X117006207Y-47499999D02*
X117006333Y-47500000D01*
X113194826Y-127299740D02*
X113166847Y-127260012D01*
X183433278Y-96704946D02*
X183388855Y-96724637D01*
X120983978Y-122676479D02*
X120973830Y-122725860D01*
X180267781Y-82963517D02*
X180267949Y-82963327D01*
X116358445Y-47266763D02*
X116378075Y-47282770D01*
X166375158Y-25256460D02*
X166411952Y-25224721D01*
X130760033Y-25289966D02*
X130793539Y-25325158D01*
X113010718Y-25844737D02*
X113019025Y-25796861D01*
X181042631Y-73502619D02*
X181057874Y-73456480D01*
X113941423Y-68698804D02*
X113892963Y-68695229D01*
X116006702Y-105613483D02*
X116006731Y-105613735D01*
X115833152Y-79139987D02*
X115859148Y-79181039D01*
X116249567Y-64839417D02*
X116233398Y-64858251D01*
X165996154Y-85452382D02*
X165961710Y-85417924D01*
X116439099Y-123672407D02*
X116418726Y-123686587D01*
X131050000Y-85512295D02*
X131050000Y-86009877D01*
X180900746Y-30235862D02*
X180865902Y-30114090D01*
X116014430Y-81290873D02*
X116014452Y-81291125D01*
X116358445Y-123733236D02*
X116358251Y-123733398D01*
X116303255Y-29625846D02*
X116244492Y-29743161D01*
X116688890Y-47450120D02*
X116712573Y-47457551D01*
X169471049Y-142638315D02*
X169471120Y-142638567D01*
X117533176Y-142616613D02*
X117533396Y-142616738D01*
X116016992Y-81316071D02*
X116032994Y-81441716D01*
X178441716Y-142967005D02*
X178441967Y-142966970D01*
X116978353Y-28766670D02*
X116882009Y-28855743D01*
X188998394Y-150995341D02*
X188998646Y-150994920D01*
X181140851Y-73281039D02*
X181166847Y-73239987D01*
X166750857Y-123694772D02*
X166790582Y-123666800D01*
X116172265Y-64939309D02*
X116158327Y-64960458D01*
X179171303Y-83761572D02*
X179171537Y-83761475D01*
X113289966Y-25289966D02*
X113325158Y-25256460D01*
X180865830Y-81886152D02*
X180865902Y-81885909D01*
X183155262Y-37789281D02*
X183107036Y-37795229D01*
X116447640Y-82575974D02*
X116447771Y-82576191D01*
X120996801Y-107424209D02*
X120999355Y-107474556D01*
X130825278Y-86638047D02*
X130793539Y-86674841D01*
X120774841Y-123131647D02*
X120774691Y-123131831D01*
X132800550Y-143029685D02*
X132847381Y-143042645D01*
X116006731Y-124386264D02*
X116006702Y-124386516D01*
X116617408Y-47423657D02*
X116640930Y-47433052D01*
X166250685Y-83793953D02*
X166250911Y-83793632D01*
X188997517Y-20003522D02*
X188997188Y-20003159D01*
X118993668Y-142999839D02*
X118993794Y-142999841D01*
X180165420Y-142075858D02*
X180165597Y-142075677D01*
X116481736Y-47354939D02*
X116481953Y-47355070D01*
X116035407Y-46762832D02*
X116042375Y-46787183D01*
X178164579Y-142995187D02*
X178290873Y-142985569D01*
X165689141Y-84757559D02*
X165689252Y-84708838D01*
X183674841Y-96543539D02*
X183638047Y-96575278D01*
X117946319Y-83808557D02*
X117946556Y-83808648D01*
X180552228Y-88423808D02*
X180539098Y-88402743D01*
X118089923Y-83858320D02*
X118090163Y-83858399D01*
X117173690Y-83379672D02*
X117173893Y-83379825D01*
X113001195Y-102916423D02*
X113004770Y-102867963D01*
X163550000Y-145009923D02*
X163550000Y-143990168D01*
X132559878Y-143000013D02*
X132608577Y-143001209D01*
X120417267Y-64408430D02*
X120370940Y-64428310D01*
X179466823Y-28383386D02*
X179466603Y-28383261D01*
X183995229Y-25892963D02*
X183998804Y-25941423D01*
X116997684Y-87749699D02*
X116997489Y-87749867D01*
X169500329Y-83714761D02*
X169504550Y-83723181D01*
X179444677Y-142628905D02*
X179444900Y-142628785D01*
X180985547Y-89708874D02*
X180983036Y-89684179D01*
X163592632Y-143702664D02*
X163607874Y-143656525D01*
X115710033Y-43264966D02*
X115743539Y-43300158D01*
X180808557Y-141053680D02*
X180808648Y-141053443D01*
X166706480Y-86942125D02*
X166661144Y-86924637D01*
X115433278Y-137795053D02*
X115476681Y-137816900D01*
X116023279Y-46713391D02*
X116023333Y-46713639D01*
X115599740Y-68505173D02*
X115560012Y-68533152D01*
X115107036Y-68695229D02*
X115058576Y-68698804D01*
X183970328Y-132549450D02*
X183980974Y-132596861D01*
X115833152Y-43414987D02*
X115859148Y-43456039D01*
X116018282Y-105689077D02*
X116023279Y-105713391D01*
X113361952Y-102199721D02*
X113400259Y-102169826D01*
X180985547Y-81291125D02*
X180985569Y-81290873D01*
X120861555Y-64007030D02*
X120861435Y-64007235D01*
X180963170Y-89533246D02*
X180940824Y-89408574D01*
X169759091Y-83958017D02*
X169770689Y-83962821D01*
X115859148Y-32493960D02*
X115833152Y-32535012D01*
X117154062Y-142364479D02*
X117173690Y-142379672D01*
X166208761Y-83843841D02*
X166228453Y-83821969D01*
X116481953Y-123644929D02*
X116481736Y-123645060D01*
X181029671Y-132549450D02*
X181042631Y-132502619D01*
X166942963Y-25004770D02*
X166991423Y-25001195D01*
X113844737Y-101985718D02*
X113892963Y-101979770D01*
X113325158Y-91718539D02*
X113289966Y-91685033D01*
X130990568Y-84392109D02*
X131018652Y-84431103D01*
X166326676Y-142638638D02*
X166329173Y-142629556D01*
X164346862Y-143019071D02*
X164394738Y-143010763D01*
X183775278Y-25361952D02*
X183805173Y-25400259D01*
X166180589Y-142871508D02*
X166180978Y-142871158D01*
X113256460Y-25325158D02*
X113289966Y-25289966D01*
X178315820Y-87016963D02*
X178291125Y-87014452D01*
X117555099Y-83628785D02*
X117555322Y-83628905D01*
X115599740Y-137894826D02*
X115638047Y-137924721D01*
X116000972Y-105538238D02*
X116002229Y-105563028D01*
X116380212Y-29488790D02*
X116380082Y-29489012D01*
X120961075Y-122775121D02*
X120945984Y-122823221D01*
X166037592Y-142961496D02*
X166061488Y-142950855D01*
X184000000Y-36809877D02*
X183998804Y-36858576D01*
X131050000Y-27009877D02*
X131048804Y-27058576D01*
X113990122Y-78700000D02*
X115009877Y-78700000D01*
X167053184Y-123542619D02*
X167100009Y-123529663D01*
X166917303Y-123595026D02*
X166961721Y-123575340D01*
X169666855Y-142907941D02*
X169667073Y-142908086D01*
X169500242Y-142714585D02*
X169500329Y-142714761D01*
X166250831Y-142793489D02*
X166257941Y-142783144D01*
X183155262Y-25010718D02*
X183203138Y-25019025D01*
X116620174Y-82826106D02*
X116620327Y-82826309D01*
X183957368Y-145297426D02*
X183942125Y-145343565D01*
X179845937Y-142364479D02*
X179846136Y-142364321D01*
X166284145Y-83741382D02*
X166285705Y-83738507D01*
X116076342Y-65117408D02*
X116066947Y-65140930D01*
X165900913Y-84123225D02*
X165931976Y-84085691D01*
X113095053Y-43541721D02*
X113116900Y-43498318D01*
X113010718Y-138544737D02*
X113019025Y-138496861D01*
X178591674Y-87059223D02*
X178591425Y-87059175D01*
X113611144Y-78775362D02*
X113656480Y-78757874D01*
X131191029Y-85020885D02*
X131188365Y-85068866D01*
X115518960Y-102115851D02*
X115560012Y-102141847D01*
X168553564Y-64504768D02*
X168601785Y-64510715D01*
X113116900Y-145476727D02*
X113095053Y-145433324D01*
X169771177Y-83963008D02*
X169783010Y-83967198D01*
X180940776Y-30408325D02*
X180935780Y-30384011D01*
X116266714Y-64820433D02*
X116249734Y-64839227D01*
X116398105Y-47298273D02*
X116418520Y-47313265D01*
X108012027Y-20000003D02*
X108009809Y-20000057D01*
X113611144Y-68624637D02*
X113566721Y-68604946D01*
X120945907Y-48176553D02*
X120945984Y-48176778D01*
X132893520Y-143057888D02*
X132938856Y-143075375D01*
X115775278Y-127338047D02*
X115743539Y-127374841D01*
X181010718Y-132644737D02*
X181019025Y-132596861D01*
X120591591Y-123305839D02*
X120550215Y-123334638D01*
X180539098Y-88402743D02*
X180538961Y-88402530D01*
X115805173Y-32574740D02*
X115775278Y-32613047D01*
X116503780Y-123632080D02*
X116481953Y-123644929D01*
X166051195Y-86058576D02*
X166050000Y-86009877D01*
X116712816Y-64542375D02*
X116712573Y-64542448D01*
X116029059Y-124261687D02*
X116023333Y-124286360D01*
X130568960Y-27859148D02*
X130526681Y-27883099D01*
X118085245Y-28140724D02*
X118061228Y-28148385D01*
X180817353Y-82029928D02*
X180858320Y-81910076D01*
X188995295Y-20001605D02*
X188994874Y-20001353D01*
X115009877Y-68700000D02*
X113990122Y-68700000D01*
X169461121Y-142600553D02*
X169463381Y-142609697D01*
X169804968Y-142974516D02*
X169833396Y-142982133D01*
X181000000Y-31006333D02*
X180999999Y-31006207D01*
X166712553Y-123724659D02*
X166750857Y-123694772D01*
X120126415Y-123491653D02*
X120126180Y-123491683D01*
X165691426Y-84806227D02*
X165689141Y-84757559D01*
X113140851Y-91493960D02*
X113116900Y-91451681D01*
X167147413Y-64519020D02*
X167195283Y-64510715D01*
X169351428Y-124066599D02*
X169371123Y-124111014D01*
X117509908Y-28389119D02*
X117487964Y-28401527D01*
X179053680Y-142808557D02*
X179171303Y-142761572D01*
X180182698Y-83057686D02*
X180182871Y-83057500D01*
X180999999Y-90006207D02*
X180999841Y-89993794D01*
X183989281Y-132644737D02*
X183995229Y-132692963D01*
X118855971Y-87003706D02*
X118855714Y-87003716D01*
X130253138Y-25019025D02*
X130300549Y-25029671D01*
X166303119Y-83703118D02*
X166306666Y-83694393D01*
X179597256Y-142539098D02*
X179597469Y-142538961D01*
X116525926Y-47380212D02*
X116548377Y-47391939D01*
X130895447Y-84283930D02*
X130928893Y-84318435D01*
X166050000Y-27009877D02*
X166050000Y-25990122D01*
X113941423Y-32973804D02*
X113892963Y-32970229D01*
X108000559Y-150993128D02*
X108000724Y-150993590D01*
X180808648Y-141053443D02*
X180817268Y-141030166D01*
X169329578Y-65023204D02*
X169351428Y-65066599D01*
X117510133Y-87388995D02*
X117509908Y-87389119D01*
X117055700Y-142284280D02*
X117153863Y-142364321D01*
X116186734Y-106081479D02*
X116201726Y-106101894D01*
X166331408Y-142620003D02*
X166331451Y-142619811D01*
X117667814Y-142687662D02*
X117690100Y-142698594D01*
X108002811Y-150996886D02*
X108003159Y-150997234D01*
X116664682Y-123558150D02*
X116664443Y-123558235D01*
X120928310Y-122870940D02*
X120908430Y-122917267D01*
X179332185Y-83687662D02*
X179332411Y-83687548D01*
X181075362Y-73411144D02*
X181095053Y-73366721D01*
X113481039Y-137840851D02*
X113523318Y-137816900D01*
X118543750Y-87034625D02*
X118543495Y-87034661D01*
X179029928Y-87182646D02*
X178910076Y-87141679D01*
X130108576Y-27998804D02*
X130059877Y-28000000D01*
X180808557Y-82053680D02*
X180808648Y-82053443D01*
X120012601Y-64499680D02*
X119987394Y-64500000D01*
X116035407Y-105762832D02*
X116042375Y-105787183D01*
X178291125Y-28014452D02*
X178290873Y-28014430D01*
X116771765Y-87967782D02*
X116754629Y-87986272D01*
X165885902Y-142997972D02*
X165898416Y-142996986D01*
X166125362Y-25611144D02*
X166145053Y-25566721D01*
X115710033Y-32685033D02*
X115674841Y-32718539D01*
X167007051Y-123557857D02*
X167053184Y-123542619D01*
X116320247Y-106233113D02*
X116320433Y-106233285D01*
X130688047Y-25224721D02*
X130724841Y-25256460D01*
X115058576Y-137701195D02*
X115107036Y-137704770D01*
X163607874Y-145343565D02*
X163592631Y-145297426D01*
X116617174Y-64576439D02*
X116594364Y-64586228D01*
X188999440Y-20006917D02*
X188999275Y-20006455D01*
X113010718Y-67855262D02*
X113004770Y-67807036D01*
X180996470Y-81139283D02*
X180999839Y-81006331D01*
X179597256Y-83539098D02*
X179597469Y-83538961D01*
X181010718Y-95955262D02*
X181004770Y-95907036D01*
X169734954Y-83947275D02*
X169758851Y-83957914D01*
X113166847Y-145560058D02*
X113140851Y-145519006D01*
X116594364Y-123586228D02*
X116594132Y-123586331D01*
X166846861Y-25019025D02*
X166894737Y-25010718D01*
X116503780Y-47367919D02*
X116504000Y-47368045D01*
X116911463Y-47495831D02*
X116936719Y-47497754D01*
X179826106Y-87620174D02*
X179724015Y-87545207D01*
X113057874Y-43631480D02*
X113075362Y-43586144D01*
X115155262Y-101985718D02*
X115203138Y-101994025D01*
X188997188Y-150996886D02*
X188997517Y-150996523D01*
X169121316Y-64756401D02*
X169156507Y-64789900D01*
X133545229Y-143892976D02*
X133548804Y-143941436D01*
X180182698Y-87942313D02*
X180165597Y-87924322D01*
X116712816Y-47457624D02*
X116737167Y-47464592D01*
X116378274Y-123717072D02*
X116378075Y-123717229D01*
X179723809Y-28545060D02*
X179703436Y-28530880D01*
X188998877Y-150994487D02*
X188999087Y-150994043D01*
X169688780Y-83922194D02*
X169689005Y-83922328D01*
X113844737Y-137710718D02*
X113892963Y-137704770D01*
X188999996Y-150988018D02*
X189000000Y-150987773D01*
X116119787Y-124025926D02*
X116108060Y-124048377D01*
X113325158Y-145743585D02*
X113289966Y-145710079D01*
X131044811Y-84471414D02*
X131068983Y-84512946D01*
X166991423Y-27998804D02*
X166942963Y-27995229D01*
X115518960Y-32834148D02*
X115476681Y-32858099D01*
X169221750Y-64861870D02*
X169251646Y-64900169D01*
X166307911Y-142691155D02*
X166318457Y-142663679D01*
X113010718Y-91130262D02*
X113004770Y-91082036D01*
X181892963Y-96795229D02*
X181844737Y-96789281D01*
X169578491Y-142830589D02*
X169578841Y-142830978D01*
X116107946Y-46951396D02*
X116108060Y-46951622D01*
X119006304Y-28000000D02*
X118993697Y-28000163D01*
X113892963Y-127695229D02*
X113844737Y-127689281D01*
X116233236Y-106141554D02*
X116233398Y-106141748D01*
X180761475Y-141171537D02*
X180761572Y-141171303D01*
X181019025Y-37003138D02*
X181010718Y-36955262D01*
X169504550Y-142723181D02*
X169504733Y-142723528D01*
X113749450Y-32945328D02*
X113702619Y-32932368D01*
X113194826Y-102375259D02*
X113224721Y-102336952D01*
X180995203Y-89835673D02*
X180995187Y-89835420D01*
X167291955Y-64501195D02*
X167340647Y-64500000D01*
X133224841Y-145743585D02*
X133188047Y-145775324D01*
X178139536Y-28003539D02*
X178139283Y-28003529D01*
X116042448Y-46787426D02*
X116049879Y-46811109D01*
X166752619Y-27957368D02*
X166706480Y-27942125D01*
X183989281Y-36955262D02*
X183980974Y-37003138D01*
X180379672Y-88173690D02*
X180364479Y-88154062D01*
X178466503Y-87036788D02*
X178441967Y-87033029D01*
X180075858Y-142165420D02*
X180165420Y-142075858D01*
X166750857Y-64694772D02*
X166790582Y-64666800D01*
X168965444Y-123640818D02*
X169006494Y-123666808D01*
X116961761Y-106499027D02*
X116962015Y-106499037D01*
X116066856Y-105858833D02*
X116066947Y-105859069D01*
X113439987Y-78866847D02*
X113481039Y-78840851D01*
X183957368Y-25702619D02*
X183970328Y-25749450D01*
X180454792Y-82724015D02*
X180454939Y-82723809D01*
X165999451Y-84015431D02*
X166035699Y-83982875D01*
X133492125Y-143656493D02*
X133507368Y-143702632D01*
X178164326Y-28004796D02*
X178139536Y-28003539D01*
X169388616Y-124156342D02*
X169403863Y-124202473D01*
X130746158Y-84163297D02*
X130785634Y-84190700D01*
X164442963Y-145995275D02*
X164394737Y-145989327D01*
X113611144Y-127624637D02*
X113566721Y-127604946D01*
X116942499Y-83182871D02*
X117036482Y-83267781D01*
X115970328Y-91225549D02*
X115957368Y-91272380D01*
X116924141Y-83165420D02*
X116924322Y-83165597D01*
X183805173Y-37399740D02*
X183775278Y-37438047D01*
X188998646Y-150994920D02*
X188998877Y-150994487D01*
X165696103Y-84854723D02*
X165691426Y-84806227D01*
X180075677Y-83165597D02*
X180075858Y-83165420D01*
X116042448Y-124212573D02*
X116042375Y-124212816D01*
X131051091Y-85498864D02*
X131050903Y-85499319D01*
X166393209Y-124202444D02*
X166408458Y-124156315D01*
X115009877Y-101975000D02*
X115058576Y-101976195D01*
X166166900Y-27476681D02*
X166145053Y-27433278D01*
X115980974Y-138496861D02*
X115989281Y-138544737D01*
X130909148Y-86518960D02*
X130883152Y-86560012D01*
X179575974Y-28447640D02*
X179466823Y-28383386D01*
X116836352Y-47486274D02*
X116860888Y-47490033D01*
X118260382Y-83907095D02*
X118383763Y-83935726D01*
X115957368Y-126997380D02*
X115942125Y-127043519D01*
X169570171Y-142820843D02*
X169570338Y-142821044D01*
X113019025Y-67903138D02*
X113010718Y-67855262D01*
X169553869Y-83800730D02*
X169561511Y-83810689D01*
X188990190Y-150999988D02*
X188990681Y-150999964D01*
X166375158Y-27743539D02*
X166339966Y-27710033D01*
X120908430Y-107082732D02*
X120928310Y-107129059D01*
X133068960Y-145859194D02*
X133026681Y-145883145D01*
X169808386Y-83975443D02*
X169820422Y-83979008D01*
X117296773Y-83469261D02*
X117402530Y-83538961D01*
X116013766Y-65336102D02*
X116013725Y-65336352D01*
X131050593Y-85500253D02*
X131050474Y-85500730D01*
X116086228Y-65094364D02*
X116076439Y-65117174D01*
X188999087Y-20006002D02*
X188998877Y-20005558D01*
X118518585Y-28038538D02*
X118518332Y-28038581D01*
X181116900Y-37276681D02*
X181095053Y-37233278D01*
X116481736Y-123645060D02*
X116460671Y-123658190D01*
X165738414Y-85044657D02*
X165724342Y-84998013D01*
X169329578Y-124023204D02*
X169351428Y-124066599D01*
X178316071Y-87016992D02*
X178315820Y-87016963D01*
X120417482Y-123408331D02*
X120417267Y-123408430D01*
X183833152Y-132239987D02*
X183859148Y-132281039D01*
X108000724Y-20006455D02*
X108000559Y-20006917D01*
X113042631Y-145297426D02*
X113029671Y-145250595D01*
X168879770Y-123595030D02*
X168923169Y-123616872D01*
X183775278Y-37438047D02*
X183743539Y-37474841D01*
X116635520Y-141845937D02*
X116635678Y-141846136D01*
X118558283Y-83967005D02*
X118683928Y-83983007D01*
X113289966Y-102264966D02*
X113325158Y-102231460D01*
X116786608Y-123523279D02*
X116786360Y-123523333D01*
X166118500Y-142919298D02*
X166118832Y-142919089D01*
X133110013Y-143166861D02*
X133149740Y-143194840D01*
X117402530Y-142538961D02*
X117402743Y-142539098D01*
X180538961Y-29402530D02*
X180469261Y-29296773D01*
X166346449Y-83486966D02*
X166350525Y-65489898D01*
X115989281Y-67855262D02*
X115980974Y-67903138D01*
X180539098Y-29402743D02*
X180538961Y-29402530D01*
X169907341Y-83994209D02*
X169907537Y-83994221D01*
X169251646Y-64900169D02*
X169279627Y-64939889D01*
X169463430Y-83609887D02*
X169471049Y-83638315D01*
X120861555Y-123007030D02*
X120861435Y-123007235D01*
X116303373Y-29625617D02*
X116303255Y-29625846D01*
X130438855Y-86924637D02*
X130393519Y-86942125D01*
X166244826Y-86599740D02*
X166216847Y-86560012D01*
X169540021Y-142782413D02*
X169545508Y-142790069D01*
X180983036Y-81315820D02*
X180985547Y-81291125D01*
X116158327Y-47039541D02*
X116172265Y-47060690D01*
X115957368Y-138402619D02*
X115970328Y-138449450D01*
X119006304Y-87000000D02*
X118993697Y-87000163D01*
X116640930Y-47433052D02*
X116641166Y-47433143D01*
X115924637Y-91363855D02*
X115904946Y-91408278D01*
X166190275Y-83862329D02*
X166190468Y-83862151D01*
X113325158Y-102231460D02*
X113361952Y-102199721D01*
X113000000Y-79690122D02*
X113001195Y-79641423D01*
X169530701Y-142768500D02*
X169530910Y-142768832D01*
X108012272Y-20000000D02*
X108012027Y-20000003D01*
X181325158Y-132056460D02*
X181361952Y-132024721D01*
X180539098Y-82597256D02*
X180552228Y-82576191D01*
X118211728Y-87103936D02*
X118211480Y-87104005D01*
X113194826Y-25400259D02*
X113224721Y-25361952D01*
X183995229Y-145107082D02*
X183989281Y-145155308D01*
X166079671Y-25749450D02*
X166092631Y-25702619D01*
X164394737Y-145989327D02*
X164346861Y-145981020D01*
X133548804Y-145058622D02*
X133545229Y-145107082D01*
X113019025Y-43771861D02*
X113029671Y-43724450D01*
X116961761Y-123500972D02*
X116936971Y-123502229D01*
X118709126Y-142985569D02*
X118835420Y-142995187D01*
X179053443Y-87191351D02*
X179030166Y-87182731D01*
X115599740Y-127505173D02*
X115560012Y-127533152D01*
X178291125Y-142985547D02*
X178315820Y-142983036D01*
X181990122Y-96800000D02*
X181941423Y-96798804D01*
X179826309Y-28620327D02*
X179826106Y-28620174D01*
X133355173Y-143400273D02*
X133383152Y-143440001D01*
X120861555Y-47992969D02*
X120886020Y-48037046D01*
X116201878Y-123897902D02*
X116201726Y-123898105D01*
X180817353Y-141029928D02*
X180858320Y-140910076D01*
X166050000Y-86009877D02*
X166050000Y-85512295D01*
X116002229Y-105563028D02*
X116002245Y-105563280D01*
X181844737Y-37789281D02*
X181796861Y-37780974D01*
X180907034Y-81739863D02*
X180907095Y-81739617D01*
X169770699Y-142962984D02*
X169771063Y-142963129D01*
X116009966Y-105639111D02*
X116013725Y-105663647D01*
X116233398Y-47141748D02*
X116249567Y-47160582D01*
X118260136Y-142907034D02*
X118260382Y-142907095D01*
X116003529Y-140139283D02*
X116003539Y-140139536D01*
X115058576Y-68698804D02*
X115009877Y-68700000D01*
X166340066Y-83578380D02*
X166340132Y-83577993D01*
X178739863Y-83907034D02*
X178763892Y-83900812D01*
X120908430Y-63917267D02*
X120908331Y-63917482D01*
X120861435Y-123007235D02*
X120834769Y-123050017D01*
X132983278Y-143095067D02*
X133026681Y-143116914D01*
X120996783Y-48423973D02*
X120996801Y-48424209D01*
X180379825Y-29173893D02*
X180379672Y-29173690D01*
X169305625Y-64980934D02*
X169329578Y-65023204D01*
X117946319Y-142808557D02*
X117946556Y-142808648D01*
X113941423Y-91973804D02*
X113892963Y-91970229D01*
X183995229Y-36907036D02*
X183989281Y-36955262D01*
X181001195Y-95858576D02*
X181000000Y-95809877D01*
X169489751Y-142690836D02*
X169493299Y-142699561D01*
X169884805Y-142991660D02*
X169885064Y-142991697D01*
X116069095Y-30207121D02*
X116035552Y-30333971D01*
X169371123Y-65111014D02*
X169388616Y-65156342D01*
X120550215Y-64334638D02*
X120550017Y-64334769D01*
X120908430Y-122917267D02*
X120908331Y-122917482D01*
X166145053Y-25566721D02*
X166166900Y-25523318D01*
X116860888Y-47490033D02*
X116861139Y-47490068D01*
X116145060Y-64981736D02*
X116144929Y-64981953D01*
X168923169Y-123616872D02*
X168965444Y-123640818D01*
X113400259Y-43169826D02*
X113439987Y-43141847D01*
X116099253Y-81764137D02*
X116134097Y-81885909D01*
X116397902Y-123701878D02*
X116378274Y-123717072D01*
X179332411Y-142687548D02*
X179444677Y-142628905D01*
X120961140Y-48225106D02*
X120973776Y-48273908D01*
X178615988Y-142935780D02*
X178616236Y-142935726D01*
X166190851Y-25481039D02*
X166216847Y-25439987D01*
X166279030Y-142750063D02*
X166279292Y-142749610D01*
X183476681Y-145883145D02*
X183433278Y-145904992D01*
X116000158Y-65493794D02*
X116000000Y-65506207D01*
X180075858Y-83165420D02*
X180165420Y-83075858D01*
X169459098Y-142590752D02*
X169459136Y-142590945D01*
X169570166Y-83820837D02*
X169587670Y-83840275D01*
X166350525Y-124489898D02*
X166351731Y-124441206D01*
X116594364Y-47413771D02*
X116617174Y-47423560D01*
X113400259Y-127505173D02*
X113361952Y-127475278D01*
X181057874Y-37143519D02*
X181042631Y-37097380D01*
X178910076Y-28141679D02*
X178909836Y-28141600D01*
X116620327Y-82826309D02*
X116635520Y-82845937D01*
X113224721Y-91613047D02*
X113194826Y-91574740D01*
X113194826Y-32574740D02*
X113166847Y-32535012D01*
X120886130Y-122962742D02*
X120886020Y-122962953D01*
X188994874Y-150998692D02*
X188995295Y-150998440D01*
X115476681Y-137816900D02*
X115518960Y-137840851D01*
X116993794Y-106499841D02*
X117006207Y-106499999D01*
X118860463Y-83996460D02*
X118860716Y-83996470D01*
X131154602Y-85257809D02*
X131140484Y-85303743D01*
X116000962Y-124462015D02*
X116000160Y-124493668D01*
X166790582Y-123666800D02*
X166831631Y-123640811D01*
X117828462Y-83761475D02*
X117828696Y-83761572D01*
X180900746Y-81764137D02*
X180900812Y-81763892D01*
X118364064Y-87067344D02*
X118236357Y-87097459D01*
X179576191Y-83552228D02*
X179597256Y-83539098D01*
X120991653Y-107373584D02*
X120991683Y-107373819D01*
X116617408Y-64576342D02*
X116617174Y-64576439D01*
X181000000Y-73790122D02*
X181001195Y-73741423D01*
X118830538Y-87005013D02*
X118830281Y-87005030D01*
X169962979Y-142996452D02*
X177993555Y-142999997D01*
X163607874Y-143656525D02*
X163625362Y-143611190D01*
X165696661Y-84611707D02*
X165703939Y-84563532D01*
X169450121Y-83502835D02*
X169450124Y-83502965D01*
X166299077Y-83712058D02*
X166302964Y-83703479D01*
X115107036Y-32970229D02*
X115058576Y-32973804D01*
X113194826Y-79100259D02*
X113224721Y-79061952D01*
X116569781Y-88207532D02*
X116569624Y-88207736D01*
X179053443Y-28191351D02*
X179030166Y-28182731D01*
X183980974Y-25796861D02*
X183989281Y-25844737D01*
X118114090Y-83865902D02*
X118235862Y-83900746D01*
X133530974Y-145203184D02*
X133520328Y-145250595D01*
X169497342Y-142708501D02*
X169497425Y-142708679D01*
X165773353Y-85135589D02*
X165754765Y-85090553D01*
X113566721Y-102070053D02*
X113611144Y-102050362D01*
X108001605Y-150995341D02*
X108001878Y-150995749D01*
X113029671Y-126950549D02*
X113019025Y-126903138D01*
X116029119Y-124261441D02*
X116029059Y-124261687D01*
X166107874Y-86343519D02*
X166092631Y-86297380D01*
X113481039Y-25140851D02*
X113523318Y-25116900D01*
X169441752Y-124392788D02*
X169445335Y-124441241D01*
X181042631Y-132502619D02*
X181057874Y-132456480D01*
X168505110Y-64501195D02*
X168553564Y-64504768D01*
X116924141Y-142165420D02*
X116924322Y-142165597D01*
X115343519Y-102032874D02*
X115388855Y-102050362D01*
X108007863Y-20000297D02*
X108007387Y-20000416D01*
X166343496Y-142552443D02*
X166343532Y-142552052D01*
X188991655Y-150999844D02*
X188992136Y-150999748D01*
X116525703Y-106380091D02*
X116525926Y-106380212D01*
X188995703Y-20001878D02*
X188995295Y-20001605D01*
X169615456Y-142867589D02*
X169615845Y-142867939D01*
X115942125Y-32318519D02*
X115924637Y-32363855D01*
X181611144Y-131875362D02*
X181656480Y-131857874D01*
X113010718Y-126855262D02*
X113004770Y-126807036D01*
X166344221Y-142542462D02*
X166345764Y-142513015D01*
X113941423Y-137701195D02*
X113990122Y-137700000D01*
X181361952Y-73024721D02*
X181400259Y-72994826D01*
X113004770Y-79592963D02*
X113010718Y-79544737D01*
X181566721Y-131895053D02*
X181611144Y-131875362D01*
X183957368Y-132502619D02*
X183970328Y-132549450D01*
X116000000Y-80993792D02*
X116000158Y-81006205D01*
X118543750Y-28034625D02*
X118543495Y-28034661D01*
X116439309Y-64672265D02*
X116439099Y-64672407D01*
X180967005Y-30558283D02*
X180966970Y-30558032D01*
X180935726Y-30383763D02*
X180907095Y-30260382D01*
X116810922Y-106481717D02*
X116811171Y-106481764D01*
X133474637Y-145388901D02*
X133454946Y-145433324D01*
X116594364Y-64586228D02*
X116594132Y-64586331D01*
X169416829Y-65249296D02*
X169427482Y-65296700D01*
X116035489Y-89334220D02*
X116029674Y-89358750D01*
X116635678Y-82846136D02*
X116715719Y-82944299D01*
X166467498Y-124023182D02*
X166491451Y-123980913D01*
X184000000Y-25990122D02*
X184000000Y-36809877D01*
X166118832Y-142919089D02*
X166126697Y-142913907D01*
X168965444Y-64640818D02*
X169006494Y-64666808D01*
X166244826Y-27599740D02*
X166216847Y-27560012D01*
X166573318Y-27883099D02*
X166531039Y-27859148D01*
X181325158Y-37543539D02*
X181289966Y-37510033D01*
X118408325Y-142940776D02*
X118408574Y-142940824D01*
X181941423Y-37798804D02*
X181892963Y-37795229D01*
X169786417Y-142968762D02*
X169795356Y-142971731D01*
X132559877Y-146000046D02*
X113990122Y-146000046D01*
X179444900Y-142628785D02*
X179466603Y-142616738D01*
X116042375Y-46787183D02*
X116042448Y-46787426D01*
X166752619Y-86957368D02*
X166706480Y-86942125D01*
X116882009Y-87855743D02*
X116881823Y-87855920D01*
X183343519Y-72857874D02*
X183388855Y-72875362D01*
X180628905Y-141444677D02*
X180687548Y-141332411D01*
X131020328Y-27250549D02*
X131007368Y-27297380D01*
X181400259Y-37605173D02*
X181361952Y-37575278D01*
X184000000Y-73790122D02*
X184000000Y-95809877D01*
X166250911Y-83793632D02*
X166256195Y-83785835D01*
X108000416Y-20007387D02*
X108000297Y-20007863D01*
X116049879Y-65188890D02*
X116042448Y-65212573D01*
X180935780Y-89384011D02*
X180935726Y-89383763D01*
X116936719Y-64502245D02*
X116911463Y-64504168D01*
X116066856Y-46858833D02*
X116066947Y-46859069D01*
X166355315Y-65392754D02*
X166361273Y-65344536D01*
X181990122Y-37800000D02*
X181941423Y-37798804D01*
X113325158Y-25256460D02*
X113361952Y-25224721D01*
X180687662Y-82332185D02*
X180698594Y-82309899D01*
X113481039Y-43115851D02*
X113523318Y-43091900D01*
X116570888Y-106402985D02*
X116571117Y-106403093D01*
X165940902Y-142990615D02*
X165950174Y-142988958D01*
X183250549Y-37770328D02*
X183203138Y-37780974D01*
X179466603Y-87383261D02*
X179444900Y-87371214D01*
X169645916Y-83892715D02*
X169667079Y-83908090D01*
X113000000Y-25990122D02*
X113001195Y-25941423D01*
X116315239Y-29603375D02*
X116303373Y-29625617D01*
X116004812Y-81164579D02*
X116014430Y-81290873D01*
X166342426Y-142561999D02*
X166342450Y-142561804D01*
X130393519Y-25057874D02*
X130438855Y-25075362D01*
X130760033Y-86710033D02*
X130724841Y-86743539D01*
X169493454Y-83699922D02*
X169497342Y-83708501D01*
X181941423Y-72801195D02*
X181990122Y-72800000D01*
X166318457Y-142663679D02*
X166318526Y-142663495D01*
X115957368Y-91272380D02*
X115942125Y-91318519D01*
X180454792Y-88275984D02*
X180379825Y-88173893D01*
X115883099Y-127176681D02*
X115859148Y-127218960D01*
X113000000Y-138690122D02*
X113001195Y-138641423D01*
X169888195Y-83992450D02*
X169897556Y-83993496D01*
X166013433Y-142970782D02*
X166025266Y-142966591D01*
X179030166Y-28182731D02*
X179029928Y-28182646D01*
X179053680Y-83808557D02*
X179171303Y-83761572D01*
X116217072Y-47121725D02*
X116217229Y-47121924D01*
X179723809Y-83454939D02*
X179724015Y-83454792D01*
X180865902Y-30114090D02*
X180865830Y-30113847D01*
X166375158Y-86743539D02*
X166339966Y-86710033D01*
X116460671Y-47341809D02*
X116481736Y-47354939D01*
X116035552Y-89333971D02*
X116035489Y-89334220D01*
X166380243Y-124249266D02*
X166393209Y-124202444D01*
X130568960Y-86859148D02*
X130526681Y-86883099D01*
X188999275Y-150993590D02*
X188999440Y-150993128D01*
X166338289Y-83587630D02*
X166340066Y-83578380D01*
X183297380Y-37757368D02*
X183250549Y-37770328D01*
X120370940Y-123428310D02*
X120370720Y-123428398D01*
X116182646Y-141029928D02*
X116182731Y-141030166D01*
X181001195Y-36858576D02*
X181000000Y-36809877D01*
X116358445Y-106266763D02*
X116378075Y-106282770D01*
X117487964Y-28401527D02*
X117487741Y-28401656D01*
X116016992Y-140316071D02*
X116032994Y-140441716D01*
X179826106Y-28620174D02*
X179724015Y-28545207D01*
X115904946Y-127133278D02*
X115883099Y-127176681D01*
X117173893Y-142379825D02*
X117275984Y-142454792D01*
X188999798Y-150991701D02*
X188999870Y-150991215D01*
X120984020Y-107323753D02*
X120991653Y-107373584D01*
X117667588Y-142687548D02*
X117667814Y-142687662D01*
X116732218Y-82963517D02*
X116817128Y-83057500D01*
X133507368Y-143702632D02*
X133520328Y-143749464D01*
X118113847Y-83865830D02*
X118114090Y-83865902D01*
X116171299Y-29910213D02*
X116171205Y-29910453D01*
X181566721Y-96704946D02*
X181523318Y-96683099D01*
X130933099Y-27476681D02*
X130909148Y-27518960D01*
X108001122Y-20005558D02*
X108000912Y-20006002D01*
X180808557Y-29946319D02*
X180761572Y-29828696D01*
X113481039Y-127559148D02*
X113439987Y-127533152D01*
X116771942Y-87967596D02*
X116771765Y-87967782D01*
X117036482Y-142267781D02*
X117036672Y-142267949D01*
X180379672Y-141826309D02*
X180379825Y-141826106D01*
X178763892Y-87099187D02*
X178739863Y-87092965D01*
X166616721Y-27904946D02*
X166573318Y-27883099D01*
X180267949Y-88036672D02*
X180267781Y-88036482D01*
X116004191Y-65411211D02*
X116004168Y-65411463D01*
X120507235Y-123361435D02*
X120507030Y-123361555D01*
X115883099Y-91451681D02*
X115859148Y-91493960D01*
X113611144Y-25075362D02*
X113656480Y-25057874D01*
X180616613Y-88533176D02*
X180552359Y-88424025D01*
X108008830Y-150999916D02*
X108009318Y-150999964D01*
X113057874Y-138356480D02*
X113075362Y-138311144D01*
X168553564Y-123504768D02*
X168601785Y-123510715D01*
X166025266Y-142966591D02*
X166025754Y-142966404D01*
X116092965Y-140739863D02*
X116099187Y-140763892D01*
X180075677Y-28834402D02*
X180057686Y-28817301D01*
X165871733Y-84162242D02*
X165900913Y-84123225D01*
X188999583Y-150992658D02*
X188999702Y-150992182D01*
X115904946Y-91408278D02*
X115883099Y-91451681D01*
X178466753Y-142963170D02*
X178591425Y-142940824D01*
X165966313Y-142985290D02*
X165966504Y-142985242D01*
X117626201Y-28327255D02*
X117625973Y-28327373D01*
X113004770Y-32082036D02*
X113001195Y-32033576D01*
X166069025Y-27203138D02*
X166060718Y-27155262D01*
X116217229Y-106121924D02*
X116233236Y-106141554D01*
X169734716Y-83947165D02*
X169734954Y-83947275D01*
X120999355Y-48474556D02*
X120999680Y-48487398D01*
X116233236Y-64858445D02*
X116217229Y-64878075D01*
X183743539Y-96474841D02*
X183710033Y-96510033D01*
X116131954Y-105995999D02*
X116132080Y-105996219D01*
X118543495Y-28034661D02*
X118518585Y-28038538D01*
X178909836Y-142858399D02*
X178910076Y-142858320D01*
X183989281Y-145155308D02*
X183980974Y-145203184D01*
X166107874Y-25656480D02*
X166125362Y-25611144D01*
X116836352Y-123513725D02*
X116836102Y-123513766D01*
X179963517Y-28732218D02*
X179963327Y-28732050D01*
X119006432Y-28000000D02*
X119006304Y-28000000D01*
X116000158Y-124493794D02*
X116000000Y-124506207D01*
X113400259Y-78894826D02*
X113439987Y-78866847D01*
X115297380Y-78742631D02*
X115343519Y-78757874D01*
X180995187Y-30835420D02*
X180985569Y-30709126D01*
X181116900Y-73323318D02*
X181140851Y-73281039D01*
X120774691Y-106868168D02*
X120774841Y-106868352D01*
X166245099Y-83801536D02*
X166250685Y-83793953D01*
X165756404Y-84376149D02*
X165775199Y-84331199D01*
X113019025Y-126903138D02*
X113010718Y-126855262D01*
X188993544Y-150999321D02*
X188993997Y-150999133D01*
X181000000Y-132790122D02*
X181001195Y-132741423D01*
X115297380Y-127657368D02*
X115250549Y-127670328D01*
X115710033Y-68410033D02*
X115674841Y-68443539D01*
X117275984Y-142454792D02*
X117276190Y-142454939D01*
X166208766Y-142843836D02*
X166208949Y-142843649D01*
X116617174Y-47423560D02*
X116617408Y-47423657D01*
X120631647Y-106725158D02*
X120631831Y-106725308D01*
X116042448Y-105787426D02*
X116049879Y-105811109D01*
X116172265Y-123939309D02*
X116158327Y-123960458D01*
X118709126Y-83985569D02*
X118835420Y-83995187D01*
X120834638Y-123050215D02*
X120805839Y-123091591D01*
X169509378Y-83731947D02*
X169524095Y-83757434D01*
X116131954Y-124004000D02*
X116119908Y-124025703D01*
X120834638Y-106949784D02*
X120834769Y-106949982D01*
X115638047Y-78924721D02*
X115674841Y-78956460D01*
X163716847Y-145560058D02*
X163690851Y-145519006D01*
X115155262Y-127689281D02*
X115107036Y-127695229D01*
X130438855Y-25075362D02*
X130483278Y-25095053D01*
X133530974Y-143796874D02*
X133539281Y-143844750D01*
X120983978Y-63676479D02*
X120973830Y-63725860D01*
X169279627Y-64939889D02*
X169305625Y-64980934D01*
X120126180Y-47508316D02*
X120126415Y-47508346D01*
X115674841Y-137956460D02*
X115710033Y-137989966D01*
X163551195Y-145058622D02*
X163550000Y-145009923D01*
X165689252Y-84708838D02*
X165691761Y-84660181D01*
X183710033Y-96510033D02*
X183674841Y-96543539D01*
X179194347Y-28248312D02*
X179171537Y-28238524D01*
X113796861Y-25019025D02*
X113844737Y-25010718D01*
X169190012Y-64825084D02*
X169221750Y-64861870D01*
X180616738Y-141466603D02*
X180628785Y-141444900D01*
X180057500Y-83182871D02*
X180057686Y-83182698D01*
X163666900Y-143523364D02*
X163690851Y-143481085D01*
X179171537Y-87238524D02*
X179171303Y-87238427D01*
X116244380Y-29743393D02*
X116233674Y-29766216D01*
X181611144Y-37724637D02*
X181566721Y-37704946D01*
X118408325Y-83940776D02*
X118408574Y-83940824D01*
X169450124Y-142502965D02*
X169450382Y-142512801D01*
X133454946Y-145433324D02*
X133433099Y-145476727D01*
X164161145Y-143075407D02*
X164206480Y-143057919D01*
X166846861Y-27980974D02*
X166799450Y-27970328D01*
X120591782Y-47694300D02*
X120631647Y-47725158D01*
X108003902Y-150997875D02*
X108004296Y-150998167D01*
X165754765Y-85090553D02*
X165738414Y-85044657D01*
X133520328Y-143749464D02*
X133530974Y-143796874D01*
X121000000Y-107512605D02*
X121000000Y-122487394D01*
X116009966Y-124360888D02*
X116009931Y-124361139D01*
X131048804Y-25941423D02*
X131050000Y-25990122D01*
X120670257Y-47758304D02*
X120706795Y-47793036D01*
X115250549Y-68670328D02*
X115203138Y-68680974D01*
X166050000Y-25990122D02*
X166051195Y-25941423D01*
X108005558Y-150998923D02*
X108006002Y-150999133D01*
X183476681Y-131916900D02*
X183518960Y-131940851D01*
X168456417Y-123500000D02*
X168505110Y-123501195D01*
X180751584Y-29805421D02*
X180698702Y-29690328D01*
X132847381Y-143042645D02*
X132893520Y-143057888D01*
X116339417Y-64749567D02*
X116339227Y-64749734D01*
X181523318Y-131916900D02*
X181566721Y-131895053D01*
X116525926Y-64619787D02*
X116525703Y-64619908D01*
X181010718Y-73644737D02*
X181019025Y-73596861D01*
X183250549Y-96770328D02*
X183203138Y-96780974D01*
X177993792Y-87000000D02*
X177993666Y-87000000D01*
X116463988Y-29356097D02*
X116463847Y-29356312D01*
X183998804Y-132741423D02*
X184000000Y-132790122D01*
X188987727Y-151000046D02*
X188987972Y-151000042D01*
X113796861Y-137719025D02*
X113844737Y-137710718D01*
X119006333Y-84000000D02*
X130201393Y-84000011D01*
X113844737Y-91964281D02*
X113796861Y-91955974D01*
X115599740Y-32780173D02*
X115560012Y-32808152D01*
X113361952Y-145775324D02*
X113325158Y-145743585D01*
X113166847Y-68260012D02*
X113140851Y-68218960D01*
X133539281Y-145155308D02*
X133530974Y-145203184D01*
X117036672Y-83267949D02*
X117055506Y-83284117D01*
X116035341Y-124237412D02*
X116029119Y-124261441D01*
X181892963Y-37795229D02*
X181844737Y-37789281D01*
X117296773Y-142469261D02*
X117402530Y-142538961D01*
X169635340Y-83884588D02*
X169635747Y-83884918D01*
X113004770Y-43867963D02*
X113010718Y-43819737D01*
X132608576Y-145998850D02*
X132559877Y-146000046D01*
X180858320Y-81910076D02*
X180858399Y-81909836D01*
X118835420Y-142995187D02*
X118835673Y-142995203D01*
X179332411Y-28312451D02*
X179332185Y-28312337D01*
X166961721Y-123575340D02*
X167007051Y-123557857D01*
X108000129Y-150991215D02*
X108000201Y-150991701D01*
X118835673Y-142995203D02*
X118860463Y-142996460D01*
X166147818Y-142898473D02*
X166147972Y-142898351D01*
X115980974Y-79496861D02*
X115989281Y-79544737D01*
X116836102Y-47486233D02*
X116836352Y-47486274D01*
M02*
