%TF.GenerationSoftware,KiCad,Pcbnew,6.0.11+dfsg-1*%
%TF.CreationDate,2024-04-29T12:11:32+01:00*%
%TF.ProjectId,panel,70616e65-6c2e-46b6-9963-61645f706362,rev?*%
%TF.SameCoordinates,Original*%
%TF.FileFunction,Paste,Top*%
%TF.FilePolarity,Positive*%
%FSLAX46Y46*%
G04 Gerber Fmt 4.6, Leading zero omitted, Abs format (unit mm)*
G04 Created by KiCad (PCBNEW 6.0.11+dfsg-1) date 2024-04-29 12:11:32*
%MOMM*%
%LPD*%
G01*
G04 APERTURE LIST*
G04 Aperture macros list*
%AMRoundRect*
0 Rectangle with rounded corners*
0 $1 Rounding radius*
0 $2 $3 $4 $5 $6 $7 $8 $9 X,Y pos of 4 corners*
0 Add a 4 corners polygon primitive as box body*
4,1,4,$2,$3,$4,$5,$6,$7,$8,$9,$2,$3,0*
0 Add four circle primitives for the rounded corners*
1,1,$1+$1,$2,$3*
1,1,$1+$1,$4,$5*
1,1,$1+$1,$6,$7*
1,1,$1+$1,$8,$9*
0 Add four rect primitives between the rounded corners*
20,1,$1+$1,$2,$3,$4,$5,0*
20,1,$1+$1,$4,$5,$6,$7,0*
20,1,$1+$1,$6,$7,$8,$9,0*
20,1,$1+$1,$8,$9,$2,$3,0*%
G04 Aperture macros list end*
%ADD10RoundRect,0.225000X-0.250000X0.225000X-0.250000X-0.225000X0.250000X-0.225000X0.250000X0.225000X0*%
%ADD11RoundRect,0.100000X0.100000X-0.637500X0.100000X0.637500X-0.100000X0.637500X-0.100000X-0.637500X0*%
%ADD12RoundRect,0.243750X0.243750X0.456250X-0.243750X0.456250X-0.243750X-0.456250X0.243750X-0.456250X0*%
%ADD13RoundRect,0.250000X0.325000X0.650000X-0.325000X0.650000X-0.325000X-0.650000X0.325000X-0.650000X0*%
%ADD14RoundRect,0.243750X0.456250X-0.243750X0.456250X0.243750X-0.456250X0.243750X-0.456250X-0.243750X0*%
%ADD15R,3.600000X2.700000*%
%ADD16RoundRect,0.250000X-0.650000X0.325000X-0.650000X-0.325000X0.650000X-0.325000X0.650000X0.325000X0*%
%ADD17RoundRect,0.200000X-0.200000X-0.275000X0.200000X-0.275000X0.200000X0.275000X-0.200000X0.275000X0*%
%ADD18RoundRect,0.250000X0.650000X-0.325000X0.650000X0.325000X-0.650000X0.325000X-0.650000X-0.325000X0*%
%ADD19RoundRect,0.250000X-0.325000X-0.650000X0.325000X-0.650000X0.325000X0.650000X-0.325000X0.650000X0*%
%ADD20R,1.100000X1.100000*%
%ADD21RoundRect,0.222500X0.222500X-0.297500X0.222500X0.297500X-0.222500X0.297500X-0.222500X-0.297500X0*%
%ADD22RoundRect,0.150000X0.150000X-0.737500X0.150000X0.737500X-0.150000X0.737500X-0.150000X-0.737500X0*%
%ADD23R,1.200000X2.250000*%
%ADD24RoundRect,0.200000X0.275000X-0.200000X0.275000X0.200000X-0.275000X0.200000X-0.275000X-0.200000X0*%
%ADD25RoundRect,0.225000X0.225000X0.250000X-0.225000X0.250000X-0.225000X-0.250000X0.225000X-0.250000X0*%
%ADD26RoundRect,0.250000X-0.250000X-0.475000X0.250000X-0.475000X0.250000X0.475000X-0.250000X0.475000X0*%
G04 APERTURE END LIST*
D10*
%TO.C,C23*%
X133800000Y-38175000D03*
X133800000Y-39725000D03*
%TD*%
D11*
%TO.C,U2*%
X141750000Y-45687500D03*
X142400000Y-45687500D03*
X143050000Y-45687500D03*
X143700000Y-45687500D03*
X144350000Y-45687500D03*
X145000000Y-45687500D03*
X145650000Y-45687500D03*
X146300000Y-45687500D03*
X146950000Y-45687500D03*
X147600000Y-45687500D03*
X148250000Y-45687500D03*
X148900000Y-45687500D03*
X149550000Y-45687500D03*
X150200000Y-45687500D03*
X150200000Y-39962500D03*
X149550000Y-39962500D03*
X148900000Y-39962500D03*
X148250000Y-39962500D03*
X147600000Y-39962500D03*
X146950000Y-39962500D03*
X146300000Y-39962500D03*
X145650000Y-39962500D03*
X145000000Y-39962500D03*
X144350000Y-39962500D03*
X143700000Y-39962500D03*
X143050000Y-39962500D03*
X142400000Y-39962500D03*
X141750000Y-39962500D03*
%TD*%
D10*
%TO.C,C23*%
X133800000Y-97175000D03*
X133800000Y-98725000D03*
%TD*%
D12*
%TO.C,D30*%
X180137500Y-66900000D03*
X178262500Y-66900000D03*
%TD*%
%TO.C,D20*%
X180137500Y-108400000D03*
X178262500Y-108400000D03*
%TD*%
D13*
%TO.C,C18*%
X131375000Y-106300000D03*
X128425000Y-106300000D03*
%TD*%
D14*
%TO.C,D4*%
X125100000Y-82837500D03*
X125100000Y-80962500D03*
%TD*%
D15*
%TO.C,L1*%
X122000000Y-95250000D03*
X122000000Y-103550000D03*
%TD*%
D16*
%TO.C,C1*%
X155300000Y-65425000D03*
X155300000Y-68375000D03*
%TD*%
D17*
%TO.C,R39*%
X149175000Y-37500000D03*
X150825000Y-37500000D03*
%TD*%
%TO.C,R44*%
X131425000Y-36400000D03*
X133075000Y-36400000D03*
%TD*%
D18*
%TO.C,C5*%
X134200000Y-44975000D03*
X134200000Y-42025000D03*
%TD*%
D12*
%TO.C,D20*%
X180137500Y-49400000D03*
X178262500Y-49400000D03*
%TD*%
D18*
%TO.C,C5*%
X134200000Y-103975000D03*
X134200000Y-101025000D03*
%TD*%
D14*
%TO.C,D38*%
X173100000Y-141737500D03*
X173100000Y-139862500D03*
%TD*%
D16*
%TO.C,C11*%
X140600000Y-65425000D03*
X140600000Y-68375000D03*
%TD*%
D19*
%TO.C,C16*%
X162225000Y-110200000D03*
X165175000Y-110200000D03*
%TD*%
D16*
%TO.C,C11*%
X140600000Y-124425000D03*
X140600000Y-127375000D03*
%TD*%
D12*
%TO.C,D5*%
X180137500Y-123900000D03*
X178262500Y-123900000D03*
%TD*%
D17*
%TO.C,R44*%
X131425000Y-95400000D03*
X133075000Y-95400000D03*
%TD*%
D20*
%TO.C,D15*%
X156400000Y-52700000D03*
X159200000Y-52700000D03*
%TD*%
D14*
%TO.C,D1*%
X170900000Y-82737500D03*
X170900000Y-80862500D03*
%TD*%
%TO.C,D31*%
X138200000Y-82837500D03*
X138200000Y-80962500D03*
%TD*%
D17*
%TO.C,R40*%
X149175000Y-35200000D03*
X150825000Y-35200000D03*
%TD*%
D14*
%TO.C,D38*%
X173100000Y-82737500D03*
X173100000Y-80862500D03*
%TD*%
D15*
%TO.C,L1*%
X122000000Y-36250000D03*
X122000000Y-44550000D03*
%TD*%
D21*
%TO.C,U1*%
X131330000Y-40350000D03*
X129270000Y-41550000D03*
X129270000Y-40350000D03*
X130300000Y-40350000D03*
X130300000Y-41550000D03*
X131330000Y-41550000D03*
D22*
X128395000Y-43512500D03*
X129665000Y-43512500D03*
X130935000Y-43512500D03*
X132205000Y-43512500D03*
X132205000Y-38387500D03*
X130935000Y-38387500D03*
X129665000Y-38387500D03*
X128395000Y-38387500D03*
%TD*%
D19*
%TO.C,C16*%
X162225000Y-51200000D03*
X165175000Y-51200000D03*
%TD*%
%TO.C,C15*%
X162225000Y-48800000D03*
X165175000Y-48800000D03*
%TD*%
D23*
%TO.C,SW1*%
X125200000Y-53925000D03*
X122660000Y-53925000D03*
X122660000Y-62675000D03*
X125200000Y-62675000D03*
X127740000Y-53925000D03*
X127740000Y-62675000D03*
%TD*%
D20*
%TO.C,D15*%
X156400000Y-111700000D03*
X159200000Y-111700000D03*
%TD*%
D16*
%TO.C,C1*%
X155300000Y-124425000D03*
X155300000Y-127375000D03*
%TD*%
D11*
%TO.C,U2*%
X141750000Y-104687500D03*
X142400000Y-104687500D03*
X143050000Y-104687500D03*
X143700000Y-104687500D03*
X144350000Y-104687500D03*
X145000000Y-104687500D03*
X145650000Y-104687500D03*
X146300000Y-104687500D03*
X146950000Y-104687500D03*
X147600000Y-104687500D03*
X148250000Y-104687500D03*
X148900000Y-104687500D03*
X149550000Y-104687500D03*
X150200000Y-104687500D03*
X150200000Y-98962500D03*
X149550000Y-98962500D03*
X148900000Y-98962500D03*
X148250000Y-98962500D03*
X147600000Y-98962500D03*
X146950000Y-98962500D03*
X146300000Y-98962500D03*
X145650000Y-98962500D03*
X145000000Y-98962500D03*
X144350000Y-98962500D03*
X143700000Y-98962500D03*
X143050000Y-98962500D03*
X142400000Y-98962500D03*
X141750000Y-98962500D03*
%TD*%
D24*
%TO.C,R28*%
X152000000Y-41225000D03*
X152000000Y-39575000D03*
%TD*%
D12*
%TO.C,D37*%
X180137500Y-110400000D03*
X178262500Y-110400000D03*
%TD*%
D16*
%TO.C,C3*%
X138200000Y-65425000D03*
X138200000Y-68375000D03*
%TD*%
D23*
%TO.C,SW1*%
X125200000Y-112925000D03*
X122660000Y-112925000D03*
X122660000Y-121675000D03*
X125200000Y-121675000D03*
X127740000Y-121675000D03*
X127740000Y-112925000D03*
%TD*%
D12*
%TO.C,D30*%
X180137500Y-125900000D03*
X178262500Y-125900000D03*
%TD*%
D19*
%TO.C,C15*%
X162225000Y-107800000D03*
X165175000Y-107800000D03*
%TD*%
D14*
%TO.C,D1*%
X170900000Y-141737500D03*
X170900000Y-139862500D03*
%TD*%
%TO.C,D19*%
X140100000Y-141837500D03*
X140100000Y-139962500D03*
%TD*%
%TO.C,D29*%
X123200000Y-141837500D03*
X123200000Y-139962500D03*
%TD*%
D16*
%TO.C,C3*%
X138200000Y-124425000D03*
X138200000Y-127375000D03*
%TD*%
D25*
%TO.C,C6*%
X129775000Y-104400000D03*
X128225000Y-104400000D03*
%TD*%
D19*
%TO.C,C14*%
X127625000Y-108600000D03*
X130575000Y-108600000D03*
%TD*%
D25*
%TO.C,C6*%
X129775000Y-45400000D03*
X128225000Y-45400000D03*
%TD*%
D12*
%TO.C,D5*%
X180137500Y-64900000D03*
X178262500Y-64900000D03*
%TD*%
D14*
%TO.C,D31*%
X138200000Y-141837500D03*
X138200000Y-139962500D03*
%TD*%
D17*
%TO.C,R39*%
X149175000Y-96500000D03*
X150825000Y-96500000D03*
%TD*%
D12*
%TO.C,D37*%
X180137500Y-51400000D03*
X178262500Y-51400000D03*
%TD*%
D14*
%TO.C,D4*%
X125100000Y-141837500D03*
X125100000Y-139962500D03*
%TD*%
D21*
%TO.C,U1*%
X131330000Y-100550000D03*
X130300000Y-99350000D03*
X129270000Y-99350000D03*
X129270000Y-100550000D03*
X131330000Y-99350000D03*
X130300000Y-100550000D03*
D22*
X128395000Y-102512500D03*
X129665000Y-102512500D03*
X130935000Y-102512500D03*
X132205000Y-102512500D03*
X132205000Y-97387500D03*
X130935000Y-97387500D03*
X129665000Y-97387500D03*
X128395000Y-97387500D03*
%TD*%
D24*
%TO.C,R28*%
X152000000Y-100225000D03*
X152000000Y-98575000D03*
%TD*%
D26*
%TO.C,C22*%
X134600000Y-36200000D03*
X136500000Y-36200000D03*
%TD*%
D14*
%TO.C,D29*%
X123200000Y-82837500D03*
X123200000Y-80962500D03*
%TD*%
D19*
%TO.C,C14*%
X127625000Y-49600000D03*
X130575000Y-49600000D03*
%TD*%
D17*
%TO.C,R40*%
X149175000Y-94200000D03*
X150825000Y-94200000D03*
%TD*%
D13*
%TO.C,C18*%
X131375000Y-47300000D03*
X128425000Y-47300000D03*
%TD*%
D14*
%TO.C,D19*%
X140100000Y-82837500D03*
X140100000Y-80962500D03*
%TD*%
D26*
%TO.C,C22*%
X134600000Y-95200000D03*
X136500000Y-95200000D03*
%TD*%
M02*
