M48
; DRILL file {KiCad 6.0.11+dfsg-1} date Sun 28 Apr 2024 21:21:01 BST
; FORMAT={-:-/ absolute / metric / decimal}
; #@! TF.CreationDate,2024-04-28T21:21:01+01:00
; #@! TF.GenerationSoftware,Kicad,Pcbnew,6.0.11+dfsg-1
; #@! TF.FileFunction,Plated,1,2,PTH
FMAT,2
METRIC
; #@! TA.AperFunction,Plated,PTH,ComponentDrill
T1C0.300
; #@! TA.AperFunction,Plated,PTH,ViaDrill
T2C0.400
; #@! TA.AperFunction,Plated,PTH,ComponentDrill
T3C0.800
; #@! TA.AperFunction,Plated,PTH,ComponentDrill
T4C1.016
; #@! TA.AperFunction,Plated,PTH,ComponentDrill
T5C1.300
%
G90
G05
T1
X129.0Y-41.6
X129.0Y-100.6
X130.3Y-40.3
X130.3Y-41.6
X130.3Y-99.3
X130.3Y-100.6
X131.6Y-40.3
X131.6Y-41.6
X131.6Y-99.3
X131.6Y-100.6
T2
X120.8Y-39.5
X120.8Y-40.8
X120.8Y-42.0
X120.8Y-98.5
X120.8Y-99.8
X120.8Y-101.0
X122.0Y-39.5
X122.0Y-40.8
X122.0Y-42.0
X122.0Y-83.1
X122.0Y-98.5
X122.0Y-99.8
X122.0Y-101.0
X122.0Y-142.1
X122.1Y-55.9
X122.1Y-114.9
X122.5Y-78.5
X122.5Y-137.5
X122.8Y-52.2
X122.8Y-111.2
X123.2Y-39.5
X123.2Y-40.8
X123.2Y-42.0
X123.2Y-98.5
X123.2Y-99.8
X123.2Y-101.0
X124.6Y-64.7
X124.6Y-123.7
X124.95Y-36.8
X124.95Y-79.8
X124.95Y-95.8
X124.95Y-138.8
X125.3Y-51.1
X125.3Y-110.1
X125.8Y-77.5
X125.8Y-136.5
X126.2Y-38.3
X126.2Y-97.3
X126.9Y-77.15
X126.9Y-80.4
X126.9Y-136.15
X126.9Y-139.4
X127.2Y-41.7
X127.2Y-100.7
X128.075Y-35.55
X128.075Y-94.55
X128.688Y-56.698
X128.688Y-115.698
X129.0Y-51.6
X129.0Y-81.8
X129.0Y-110.6
X129.0Y-140.8
X129.15Y-48.425
X129.15Y-107.425
X129.25Y-36.8
X129.25Y-95.8
X129.275Y-60.675
X129.275Y-119.675
X129.5Y-54.6
X129.5Y-113.6
X129.531Y-55.999
X129.531Y-114.999
X129.707Y-44.225
X129.707Y-103.225
X130.284Y-55.299
X130.284Y-114.299
X130.3Y-53.8
X130.3Y-112.8
X130.6Y-61.4
X130.6Y-120.4
X130.925Y-45.0
X130.925Y-104.0
X131.1Y-70.9
X131.1Y-129.9
X131.2Y-76.3
X131.2Y-135.3
X131.6Y-50.0
X131.6Y-109.0
X132.2Y-45.0
X132.2Y-104.0
X132.8Y-68.2
X132.8Y-127.2
X132.85Y-38.85
X132.85Y-97.85
X133.7Y-81.6
X133.7Y-140.6
X133.78Y-40.9
X133.78Y-43.5
X133.78Y-99.9
X133.78Y-102.5
X134.1Y-56.0
X134.1Y-115.0
X134.17Y-47.16
X134.17Y-106.16
X136.3Y-56.0
X136.3Y-115.0
X136.5Y-41.153
X136.5Y-100.153
X136.524Y-37.554
X136.524Y-96.554
X136.6Y-46.35
X136.6Y-105.35
X136.8Y-82.8
X136.8Y-141.8
X137.2Y-81.0
X137.2Y-140.0
X137.3Y-73.5
X137.3Y-132.5
X137.7Y-45.7
X137.7Y-104.7
X138.2Y-64.2
X138.2Y-123.2
X138.35Y-49.521
X138.35Y-108.521
X138.4Y-80.0
X138.4Y-139.0
X138.749Y-37.196
X138.749Y-96.196
X139.0Y-72.2
X139.0Y-131.2
X139.65Y-39.4
X139.65Y-98.4
X139.9Y-38.3
X139.9Y-97.3
X140.155Y-37.055
X140.155Y-96.055
X140.187Y-40.243
X140.187Y-99.243
X140.4Y-80.0
X140.4Y-139.0
X140.6Y-64.2
X140.6Y-123.2
X140.7Y-74.25
X140.7Y-133.25
X141.1Y-77.1
X141.1Y-136.1
X141.201Y-49.668
X141.201Y-108.668
X141.3Y-51.9
X141.3Y-110.9
X141.4Y-70.8
X141.4Y-129.8
X141.7Y-75.2
X141.7Y-76.3
X141.7Y-134.2
X141.7Y-135.3
X141.899Y-41.43
X141.899Y-100.43
X142.4Y-38.3
X142.4Y-97.3
X143.242Y-49.674
X143.242Y-108.674
X143.4Y-43.7
X143.4Y-102.7
X143.75Y-55.2
X143.75Y-56.4
X143.75Y-114.2
X143.75Y-115.4
X144.2Y-38.1
X144.2Y-97.1
X144.3Y-43.0
X144.3Y-102.0
X145.205Y-49.682
X145.205Y-108.682
X145.3Y-43.7
X145.3Y-102.7
X146.2Y-69.9
X146.2Y-128.9
X146.9Y-43.7
X146.9Y-102.7
X147.205Y-49.682
X147.205Y-108.682
X147.8Y-43.0
X147.8Y-102.0
X148.8Y-43.7
X148.8Y-102.7
X149.8Y-36.3
X149.8Y-41.4
X149.8Y-95.3
X149.8Y-100.4
X149.801Y-44.01
X149.801Y-103.01
X150.353Y-50.629
X150.353Y-109.629
X151.0Y-52.25
X151.0Y-53.25
X151.0Y-54.25
X151.0Y-55.25
X151.0Y-111.25
X151.0Y-112.25
X151.0Y-113.25
X151.0Y-114.25
X151.3Y-43.4
X151.3Y-102.4
X151.6Y-38.7
X151.6Y-97.7
X153.35Y-72.3
X153.35Y-131.3
X155.3Y-64.2
X155.3Y-123.2
X155.9Y-56.4
X155.9Y-115.4
X156.4Y-54.4
X156.4Y-113.4
X156.787Y-40.387
X156.787Y-99.387
X158.0Y-47.2
X158.0Y-106.2
X159.95Y-70.6
X159.95Y-129.6
X160.05Y-51.2
X160.05Y-110.2
X160.4Y-45.0
X160.4Y-104.0
X160.9Y-48.8
X160.9Y-107.8
X161.0Y-59.2
X161.0Y-118.2
X162.5Y-46.7
X162.5Y-105.7
X164.6Y-61.9
X164.6Y-63.15
X164.6Y-120.9
X164.6Y-122.15
X165.4Y-70.75
X165.4Y-129.75
X168.9Y-43.0
X168.9Y-49.9
X168.9Y-57.7
X168.9Y-102.0
X168.9Y-108.9
X168.9Y-116.7
X169.0Y-46.8
X169.0Y-105.8
X170.6Y-52.1
X170.6Y-111.1
X170.9Y-75.9
X170.9Y-134.9
X171.8Y-79.3
X171.8Y-138.3
X172.0Y-48.2
X172.0Y-107.2
X173.1Y-51.0
X173.1Y-75.9
X173.1Y-110.0
X173.1Y-134.9
X173.9Y-67.0
X173.9Y-126.0
X174.0Y-62.0
X174.0Y-79.3
X174.0Y-121.0
X174.0Y-138.3
X175.0Y-76.6
X175.0Y-135.6
X175.8Y-47.3
X175.8Y-106.3
X175.9Y-63.9
X175.9Y-122.9
X176.8Y-67.3
X176.8Y-126.3
X177.774Y-47.3
X177.774Y-106.3
X177.8Y-62.6
X177.8Y-121.6
X179.6Y-74.3
X179.6Y-133.3
X179.8Y-69.8
X179.8Y-128.8
T3
X136.25Y-42.8
X136.25Y-101.8
X136.858Y-39.353
X136.858Y-98.353
T4
X118.92Y-67.67
X118.92Y-70.21
X118.92Y-72.75
X118.92Y-75.29
X118.92Y-126.67
X118.92Y-129.21
X118.92Y-131.75
X118.92Y-134.29
X121.48Y-67.67
X121.48Y-70.21
X121.48Y-72.75
X121.48Y-75.29
X121.48Y-126.67
X121.48Y-129.21
X121.48Y-131.75
X121.48Y-134.29
X123.6Y-47.59
X123.6Y-106.59
X124.02Y-67.67
X124.02Y-70.21
X124.02Y-72.75
X124.02Y-75.29
X124.02Y-126.67
X124.02Y-129.21
X124.02Y-131.75
X124.02Y-134.29
X124.37Y-30.23
X124.37Y-32.77
X124.37Y-89.23
X124.37Y-91.77
X126.14Y-47.59
X126.14Y-106.59
X126.91Y-30.23
X126.91Y-32.77
X126.91Y-89.23
X126.91Y-91.77
X129.45Y-30.23
X129.45Y-32.77
X129.45Y-89.23
X129.45Y-91.77
X131.99Y-30.23
X131.99Y-32.77
X131.99Y-89.23
X131.99Y-91.77
X134.53Y-30.23
X134.53Y-32.77
X134.53Y-89.23
X134.53Y-91.77
X137.07Y-30.23
X137.07Y-32.77
X137.07Y-89.23
X137.07Y-91.77
X139.61Y-30.23
X139.61Y-32.77
X139.61Y-89.23
X139.61Y-91.77
X142.15Y-30.23
X142.15Y-32.77
X142.15Y-89.23
X142.15Y-91.77
X144.69Y-30.23
X144.69Y-32.77
X144.69Y-89.23
X144.69Y-91.77
X147.23Y-30.23
X147.23Y-32.77
X147.23Y-89.23
X147.23Y-91.77
X149.77Y-30.23
X149.77Y-32.77
X149.77Y-89.23
X149.77Y-91.77
X152.31Y-30.23
X152.31Y-32.77
X152.31Y-89.23
X152.31Y-91.77
X154.85Y-30.23
X154.85Y-32.77
X154.85Y-89.23
X154.85Y-91.77
X157.39Y-30.23
X157.39Y-32.77
X157.39Y-89.23
X157.39Y-91.77
X159.93Y-30.23
X159.93Y-32.77
X159.93Y-89.23
X159.93Y-91.77
X162.47Y-30.23
X162.47Y-32.77
X162.47Y-89.23
X162.47Y-91.77
X165.01Y-30.23
X165.01Y-32.77
X165.01Y-89.23
X165.01Y-91.77
X167.55Y-30.23
X167.55Y-32.77
X167.55Y-89.23
X167.55Y-91.77
X170.09Y-30.23
X170.09Y-32.77
X170.09Y-89.23
X170.09Y-91.77
X172.63Y-30.23
X172.63Y-32.77
X172.63Y-89.23
X172.63Y-91.77
T5
X129.3Y-79.15
X129.3Y-138.15
X134.3Y-79.15
X134.3Y-138.15
X144.625Y-79.15
X144.625Y-138.15
X149.625Y-79.15
X149.625Y-138.15
X157.7Y-79.15
X157.7Y-138.15
X162.7Y-79.15
X162.7Y-138.15
X176.05Y-39.75
X176.05Y-44.75
X176.05Y-55.2
X176.05Y-60.2
X176.05Y-98.75
X176.05Y-103.75
X176.05Y-114.2
X176.05Y-119.2
T0
M30
