G04 #@! TF.GenerationSoftware,KiCad,Pcbnew,6.0.7+dfsg-1+b1*
G04 #@! TF.CreationDate,2022-09-08T22:48:16+01:00*
G04 #@! TF.ProjectId,panel,70616e65-6c2e-46b6-9963-61645f706362,rev?*
G04 #@! TF.SameCoordinates,Original*
G04 #@! TF.FileFunction,Other,Comment*
%FSLAX46Y46*%
G04 Gerber Fmt 4.6, Leading zero omitted, Abs format (unit mm)*
G04 Created by KiCad (PCBNEW 6.0.7+dfsg-1+b1) date 2022-09-08 22:48:16*
%MOMM*%
%LPD*%
G01*
G04 APERTURE LIST*
%ADD10C,0.400000*%
%ADD11C,0.120000*%
%ADD12C,0.100000*%
G04 APERTURE END LIST*
D10*
X12000000Y-23000000D02*
X99000000Y-23000000D01*
X12000000Y-138000000D02*
X99000000Y-138000000D01*
X88000000Y-12000000D02*
X88000000Y-149000000D01*
X23000000Y-12000000D02*
X23000000Y-149000000D01*
X12000000Y-79000000D02*
X99000000Y-79000000D01*
X12000000Y-82000000D02*
X99000000Y-82000000D01*
X102450476Y-21904761D02*
X103117142Y-23904761D01*
X103783809Y-21904761D01*
X104450476Y-23142857D02*
X105974285Y-23142857D01*
X108069523Y-23714285D02*
X107974285Y-23809523D01*
X107688571Y-23904761D01*
X107498095Y-23904761D01*
X107212380Y-23809523D01*
X107021904Y-23619047D01*
X106926666Y-23428571D01*
X106831428Y-23047619D01*
X106831428Y-22761904D01*
X106926666Y-22380952D01*
X107021904Y-22190476D01*
X107212380Y-22000000D01*
X107498095Y-21904761D01*
X107688571Y-21904761D01*
X107974285Y-22000000D01*
X108069523Y-22095238D01*
X108926666Y-21904761D02*
X108926666Y-23523809D01*
X109021904Y-23714285D01*
X109117142Y-23809523D01*
X109307619Y-23904761D01*
X109688571Y-23904761D01*
X109879047Y-23809523D01*
X109974285Y-23714285D01*
X110069523Y-23523809D01*
X110069523Y-21904761D01*
X110736190Y-21904761D02*
X111879047Y-21904761D01*
X111307619Y-23904761D02*
X111307619Y-21904761D01*
X86904761Y-8549523D02*
X88904761Y-7882857D01*
X86904761Y-7216190D01*
X88142857Y-6549523D02*
X88142857Y-5025714D01*
X88714285Y-2930476D02*
X88809523Y-3025714D01*
X88904761Y-3311428D01*
X88904761Y-3501904D01*
X88809523Y-3787619D01*
X88619047Y-3978095D01*
X88428571Y-4073333D01*
X88047619Y-4168571D01*
X87761904Y-4168571D01*
X87380952Y-4073333D01*
X87190476Y-3978095D01*
X87000000Y-3787619D01*
X86904761Y-3501904D01*
X86904761Y-3311428D01*
X87000000Y-3025714D01*
X87095238Y-2930476D01*
X86904761Y-2073333D02*
X88523809Y-2073333D01*
X88714285Y-1978095D01*
X88809523Y-1882857D01*
X88904761Y-1692380D01*
X88904761Y-1311428D01*
X88809523Y-1120952D01*
X88714285Y-1025714D01*
X88523809Y-930476D01*
X86904761Y-930476D01*
X86904761Y-263809D02*
X86904761Y879047D01*
X88904761Y307619D02*
X86904761Y307619D01*
X102450476Y-77904761D02*
X103117142Y-79904761D01*
X103783809Y-77904761D01*
X104450476Y-79142857D02*
X105974285Y-79142857D01*
X108069523Y-79714285D02*
X107974285Y-79809523D01*
X107688571Y-79904761D01*
X107498095Y-79904761D01*
X107212380Y-79809523D01*
X107021904Y-79619047D01*
X106926666Y-79428571D01*
X106831428Y-79047619D01*
X106831428Y-78761904D01*
X106926666Y-78380952D01*
X107021904Y-78190476D01*
X107212380Y-78000000D01*
X107498095Y-77904761D01*
X107688571Y-77904761D01*
X107974285Y-78000000D01*
X108069523Y-78095238D01*
X108926666Y-77904761D02*
X108926666Y-79523809D01*
X109021904Y-79714285D01*
X109117142Y-79809523D01*
X109307619Y-79904761D01*
X109688571Y-79904761D01*
X109879047Y-79809523D01*
X109974285Y-79714285D01*
X110069523Y-79523809D01*
X110069523Y-77904761D01*
X110736190Y-77904761D02*
X111879047Y-77904761D01*
X111307619Y-79904761D02*
X111307619Y-77904761D01*
D11*
X53053995Y-89235535D02*
X53147745Y-88485535D01*
X53326316Y-88485535D01*
X53428995Y-88521250D01*
X53491495Y-88592678D01*
X53518281Y-88664107D01*
X53536138Y-88806964D01*
X53522745Y-88914107D01*
X53469174Y-89056964D01*
X53424531Y-89128392D01*
X53344174Y-89199821D01*
X53232566Y-89235535D01*
X53053995Y-89235535D01*
X53803995Y-89235535D02*
X53866495Y-88735535D01*
X53897745Y-88485535D02*
X53857566Y-88521250D01*
X53888816Y-88556964D01*
X53928995Y-88521250D01*
X53897745Y-88485535D01*
X53888816Y-88556964D01*
X54161138Y-89235535D02*
X54223638Y-88735535D01*
X54214709Y-88806964D02*
X54254888Y-88771250D01*
X54330781Y-88735535D01*
X54437924Y-88735535D01*
X54504888Y-88771250D01*
X54531674Y-88842678D01*
X54482566Y-89235535D01*
X54531674Y-88842678D02*
X54576316Y-88771250D01*
X54652209Y-88735535D01*
X54759352Y-88735535D01*
X54826316Y-88771250D01*
X54853102Y-88842678D01*
X54803995Y-89235535D01*
X55451316Y-89199821D02*
X55375424Y-89235535D01*
X55232566Y-89235535D01*
X55165602Y-89199821D01*
X55138816Y-89128392D01*
X55174531Y-88842678D01*
X55219174Y-88771250D01*
X55295066Y-88735535D01*
X55437924Y-88735535D01*
X55504888Y-88771250D01*
X55531674Y-88842678D01*
X55522745Y-88914107D01*
X55156674Y-88985535D01*
X55866495Y-88735535D02*
X55803995Y-89235535D01*
X55857566Y-88806964D02*
X55897745Y-88771250D01*
X55973638Y-88735535D01*
X56080781Y-88735535D01*
X56147745Y-88771250D01*
X56174531Y-88842678D01*
X56125424Y-89235535D01*
X56451316Y-89199821D02*
X56518281Y-89235535D01*
X56661138Y-89235535D01*
X56737031Y-89199821D01*
X56781674Y-89128392D01*
X56786138Y-89092678D01*
X56759352Y-89021250D01*
X56692388Y-88985535D01*
X56585245Y-88985535D01*
X56518281Y-88949821D01*
X56491495Y-88878392D01*
X56495959Y-88842678D01*
X56540602Y-88771250D01*
X56616495Y-88735535D01*
X56723638Y-88735535D01*
X56790602Y-88771250D01*
X57089709Y-89235535D02*
X57152209Y-88735535D01*
X57183459Y-88485535D02*
X57143281Y-88521250D01*
X57174531Y-88556964D01*
X57214709Y-88521250D01*
X57183459Y-88485535D01*
X57174531Y-88556964D01*
X57553995Y-89235535D02*
X57487031Y-89199821D01*
X57455781Y-89164107D01*
X57428995Y-89092678D01*
X57455781Y-88878392D01*
X57500424Y-88806964D01*
X57540602Y-88771250D01*
X57616495Y-88735535D01*
X57723638Y-88735535D01*
X57790602Y-88771250D01*
X57821852Y-88806964D01*
X57848638Y-88878392D01*
X57821852Y-89092678D01*
X57777209Y-89164107D01*
X57737031Y-89199821D01*
X57661138Y-89235535D01*
X57553995Y-89235535D01*
X58187924Y-88735535D02*
X58125424Y-89235535D01*
X58178995Y-88806964D02*
X58219174Y-88771250D01*
X58295066Y-88735535D01*
X58402209Y-88735535D01*
X58469174Y-88771250D01*
X58495959Y-88842678D01*
X58446852Y-89235535D01*
X58772745Y-89199821D02*
X58839709Y-89235535D01*
X58982566Y-89235535D01*
X59058459Y-89199821D01*
X59103102Y-89128392D01*
X59107566Y-89092678D01*
X59080781Y-89021250D01*
X59013816Y-88985535D01*
X58906674Y-88985535D01*
X58839709Y-88949821D01*
X58812924Y-88878392D01*
X58817388Y-88842678D01*
X58862031Y-88771250D01*
X58937924Y-88735535D01*
X59045066Y-88735535D01*
X59112031Y-88771250D01*
X59937924Y-88735535D02*
X60223638Y-88735535D01*
X60076316Y-88485535D02*
X59995959Y-89128392D01*
X60022745Y-89199821D01*
X60089709Y-89235535D01*
X60161138Y-89235535D01*
X60732566Y-89235535D02*
X60781674Y-88842678D01*
X60754888Y-88771250D01*
X60687924Y-88735535D01*
X60545066Y-88735535D01*
X60469174Y-88771250D01*
X60737031Y-89199821D02*
X60661138Y-89235535D01*
X60482566Y-89235535D01*
X60415602Y-89199821D01*
X60388816Y-89128392D01*
X60397745Y-89056964D01*
X60442388Y-88985535D01*
X60518281Y-88949821D01*
X60696852Y-88949821D01*
X60772745Y-88914107D01*
X61089709Y-89235535D02*
X61183459Y-88485535D01*
X61196852Y-88949821D02*
X61375424Y-89235535D01*
X61437924Y-88735535D02*
X61116495Y-89021250D01*
X61987031Y-89199821D02*
X61911138Y-89235535D01*
X61768281Y-89235535D01*
X61701316Y-89199821D01*
X61674531Y-89128392D01*
X61710245Y-88842678D01*
X61754888Y-88771250D01*
X61830781Y-88735535D01*
X61973638Y-88735535D01*
X62040602Y-88771250D01*
X62067388Y-88842678D01*
X62058459Y-88914107D01*
X61692388Y-88985535D01*
X62402209Y-88735535D02*
X62339709Y-89235535D01*
X62393281Y-88806964D02*
X62433459Y-88771250D01*
X62509352Y-88735535D01*
X62616495Y-88735535D01*
X62683459Y-88771250D01*
X62710245Y-88842678D01*
X62661138Y-89235535D01*
X63545066Y-88735535D02*
X63830781Y-88735535D01*
X63589709Y-89235535D02*
X63670066Y-88592678D01*
X63714709Y-88521250D01*
X63790602Y-88485535D01*
X63862031Y-88485535D01*
X64018281Y-89235535D02*
X64080781Y-88735535D01*
X64062924Y-88878392D02*
X64107566Y-88806964D01*
X64147745Y-88771250D01*
X64223638Y-88735535D01*
X64295066Y-88735535D01*
X64589709Y-89235535D02*
X64522745Y-89199821D01*
X64491495Y-89164107D01*
X64464709Y-89092678D01*
X64491495Y-88878392D01*
X64536138Y-88806964D01*
X64576316Y-88771250D01*
X64652209Y-88735535D01*
X64759352Y-88735535D01*
X64826316Y-88771250D01*
X64857566Y-88806964D01*
X64884352Y-88878392D01*
X64857566Y-89092678D01*
X64812924Y-89164107D01*
X64772745Y-89199821D01*
X64696852Y-89235535D01*
X64589709Y-89235535D01*
X65161138Y-89235535D02*
X65223638Y-88735535D01*
X65214709Y-88806964D02*
X65254888Y-88771250D01*
X65330781Y-88735535D01*
X65437924Y-88735535D01*
X65504888Y-88771250D01*
X65531674Y-88842678D01*
X65482566Y-89235535D01*
X65531674Y-88842678D02*
X65576316Y-88771250D01*
X65652209Y-88735535D01*
X65759352Y-88735535D01*
X65826316Y-88771250D01*
X65853102Y-88842678D01*
X65803995Y-89235535D01*
X37036138Y-90443035D02*
X37129888Y-89693035D01*
X37357566Y-90443035D02*
X37406674Y-90050178D01*
X37379888Y-89978750D01*
X37312924Y-89943035D01*
X37205781Y-89943035D01*
X37129888Y-89978750D01*
X37089709Y-90014464D01*
X37670066Y-89943035D02*
X37955781Y-89943035D01*
X37808459Y-89693035D02*
X37728102Y-90335892D01*
X37754888Y-90407321D01*
X37821852Y-90443035D01*
X37893281Y-90443035D01*
X38098638Y-89943035D02*
X38384352Y-89943035D01*
X38237031Y-89693035D02*
X38156674Y-90335892D01*
X38183459Y-90407321D01*
X38250424Y-90443035D01*
X38321852Y-90443035D01*
X38634352Y-89943035D02*
X38540602Y-90693035D01*
X38629888Y-89978750D02*
X38705781Y-89943035D01*
X38848638Y-89943035D01*
X38915602Y-89978750D01*
X38946852Y-90014464D01*
X38973638Y-90085892D01*
X38946852Y-90300178D01*
X38902209Y-90371607D01*
X38862031Y-90407321D01*
X38786138Y-90443035D01*
X38643281Y-90443035D01*
X38576316Y-90407321D01*
X39219174Y-90407321D02*
X39286138Y-90443035D01*
X39428995Y-90443035D01*
X39504888Y-90407321D01*
X39549531Y-90335892D01*
X39553995Y-90300178D01*
X39527209Y-90228750D01*
X39460245Y-90193035D01*
X39353102Y-90193035D01*
X39286138Y-90157321D01*
X39259352Y-90085892D01*
X39263816Y-90050178D01*
X39308459Y-89978750D01*
X39384352Y-89943035D01*
X39491495Y-89943035D01*
X39558459Y-89978750D01*
X39866495Y-90371607D02*
X39897745Y-90407321D01*
X39857566Y-90443035D01*
X39826316Y-90407321D01*
X39866495Y-90371607D01*
X39857566Y-90443035D01*
X39915602Y-89978750D02*
X39946852Y-90014464D01*
X39906674Y-90050178D01*
X39875424Y-90014464D01*
X39915602Y-89978750D01*
X39906674Y-90050178D01*
X40848638Y-89657321D02*
X40085245Y-90621607D01*
X41634352Y-89657321D02*
X40870959Y-90621607D01*
X42170066Y-89943035D02*
X42094174Y-90550178D01*
X42049531Y-90621607D01*
X42009352Y-90657321D01*
X41933459Y-90693035D01*
X41826316Y-90693035D01*
X41759352Y-90657321D01*
X42112031Y-90407321D02*
X42036138Y-90443035D01*
X41893281Y-90443035D01*
X41826316Y-90407321D01*
X41795066Y-90371607D01*
X41768281Y-90300178D01*
X41795066Y-90085892D01*
X41839709Y-90014464D01*
X41879888Y-89978750D01*
X41955781Y-89943035D01*
X42098638Y-89943035D01*
X42165602Y-89978750D01*
X42464709Y-90443035D02*
X42527209Y-89943035D01*
X42558459Y-89693035D02*
X42518281Y-89728750D01*
X42549531Y-89764464D01*
X42589709Y-89728750D01*
X42558459Y-89693035D01*
X42549531Y-89764464D01*
X42777209Y-89943035D02*
X43062924Y-89943035D01*
X42915602Y-89693035D02*
X42835245Y-90335892D01*
X42862031Y-90407321D01*
X42928995Y-90443035D01*
X43000424Y-90443035D01*
X43250424Y-90443035D02*
X43344174Y-89693035D01*
X43571852Y-90443035D02*
X43620959Y-90050178D01*
X43594174Y-89978750D01*
X43527209Y-89943035D01*
X43420066Y-89943035D01*
X43344174Y-89978750D01*
X43303995Y-90014464D01*
X44312924Y-89943035D02*
X44250424Y-90443035D01*
X43991495Y-89943035D02*
X43942388Y-90335892D01*
X43969174Y-90407321D01*
X44036138Y-90443035D01*
X44143281Y-90443035D01*
X44219174Y-90407321D01*
X44259352Y-90371607D01*
X44607566Y-90443035D02*
X44701316Y-89693035D01*
X44665602Y-89978750D02*
X44741495Y-89943035D01*
X44884352Y-89943035D01*
X44951316Y-89978750D01*
X44982566Y-90014464D01*
X45009352Y-90085892D01*
X44982566Y-90300178D01*
X44937924Y-90371607D01*
X44897745Y-90407321D01*
X44821852Y-90443035D01*
X44678995Y-90443035D01*
X44612031Y-90407321D01*
X45295066Y-90371607D02*
X45326316Y-90407321D01*
X45286138Y-90443035D01*
X45254888Y-90407321D01*
X45295066Y-90371607D01*
X45286138Y-90443035D01*
X45969174Y-90407321D02*
X45893281Y-90443035D01*
X45750424Y-90443035D01*
X45683459Y-90407321D01*
X45652209Y-90371607D01*
X45625424Y-90300178D01*
X45652209Y-90085892D01*
X45696852Y-90014464D01*
X45737031Y-89978750D01*
X45812924Y-89943035D01*
X45955781Y-89943035D01*
X46022745Y-89978750D01*
X46393281Y-90443035D02*
X46326316Y-90407321D01*
X46295066Y-90371607D01*
X46268281Y-90300178D01*
X46295066Y-90085892D01*
X46339709Y-90014464D01*
X46379888Y-89978750D01*
X46455781Y-89943035D01*
X46562924Y-89943035D01*
X46629888Y-89978750D01*
X46661138Y-90014464D01*
X46687924Y-90085892D01*
X46661138Y-90300178D01*
X46616495Y-90371607D01*
X46576316Y-90407321D01*
X46500424Y-90443035D01*
X46393281Y-90443035D01*
X46964709Y-90443035D02*
X47027209Y-89943035D01*
X47018281Y-90014464D02*
X47058459Y-89978750D01*
X47134352Y-89943035D01*
X47241495Y-89943035D01*
X47308459Y-89978750D01*
X47335245Y-90050178D01*
X47286138Y-90443035D01*
X47335245Y-90050178D02*
X47379888Y-89978750D01*
X47455781Y-89943035D01*
X47562924Y-89943035D01*
X47629888Y-89978750D01*
X47656674Y-90050178D01*
X47607566Y-90443035D01*
X48598638Y-89657321D02*
X47835245Y-90621607D01*
X48750424Y-90443035D02*
X48812924Y-89943035D01*
X48795066Y-90085892D02*
X48839709Y-90014464D01*
X48879888Y-89978750D01*
X48955781Y-89943035D01*
X49027209Y-89943035D01*
X49536138Y-90443035D02*
X49585245Y-90050178D01*
X49558459Y-89978750D01*
X49491495Y-89943035D01*
X49348638Y-89943035D01*
X49272745Y-89978750D01*
X49540602Y-90407321D02*
X49464709Y-90443035D01*
X49286138Y-90443035D01*
X49219174Y-90407321D01*
X49192388Y-90335892D01*
X49201316Y-90264464D01*
X49245959Y-90193035D01*
X49321852Y-90157321D01*
X49500424Y-90157321D01*
X49576316Y-90121607D01*
X49862031Y-90407321D02*
X49928995Y-90443035D01*
X50071852Y-90443035D01*
X50147745Y-90407321D01*
X50192388Y-90335892D01*
X50196852Y-90300178D01*
X50170066Y-90228750D01*
X50103102Y-90193035D01*
X49995959Y-90193035D01*
X49928995Y-90157321D01*
X49902209Y-90085892D01*
X49906674Y-90050178D01*
X49951316Y-89978750D01*
X50027209Y-89943035D01*
X50134352Y-89943035D01*
X50201316Y-89978750D01*
X50562924Y-89943035D02*
X50469174Y-90693035D01*
X50558459Y-89978750D02*
X50634352Y-89943035D01*
X50777209Y-89943035D01*
X50844174Y-89978750D01*
X50875424Y-90014464D01*
X50902209Y-90085892D01*
X50875424Y-90300178D01*
X50830781Y-90371607D01*
X50790602Y-90407321D01*
X50714709Y-90443035D01*
X50571852Y-90443035D01*
X50504888Y-90407321D01*
X51178995Y-90443035D02*
X51272745Y-89693035D01*
X51237031Y-89978750D02*
X51312924Y-89943035D01*
X51455781Y-89943035D01*
X51522745Y-89978750D01*
X51553995Y-90014464D01*
X51580781Y-90085892D01*
X51553995Y-90300178D01*
X51509352Y-90371607D01*
X51469174Y-90407321D01*
X51393281Y-90443035D01*
X51250424Y-90443035D01*
X51183459Y-90407321D01*
X52147745Y-90407321D02*
X52071852Y-90443035D01*
X51928995Y-90443035D01*
X51862031Y-90407321D01*
X51835245Y-90335892D01*
X51870959Y-90050178D01*
X51915602Y-89978750D01*
X51991495Y-89943035D01*
X52134352Y-89943035D01*
X52201316Y-89978750D01*
X52228102Y-90050178D01*
X52219174Y-90121607D01*
X51853102Y-90193035D01*
X52500424Y-90443035D02*
X52562924Y-89943035D01*
X52545066Y-90085892D02*
X52589709Y-90014464D01*
X52629888Y-89978750D01*
X52705781Y-89943035D01*
X52777209Y-89943035D01*
X52964709Y-90443035D02*
X53027209Y-89943035D01*
X53009352Y-90085892D02*
X53053995Y-90014464D01*
X53094174Y-89978750D01*
X53170066Y-89943035D01*
X53241495Y-89943035D01*
X53420066Y-89943035D02*
X53536138Y-90443035D01*
X53777209Y-89943035D02*
X53536138Y-90443035D01*
X53442388Y-90621607D01*
X53402209Y-90657321D01*
X53326316Y-90693035D01*
X54062924Y-89943035D02*
X53969174Y-90693035D01*
X54058459Y-89978750D02*
X54134352Y-89943035D01*
X54277209Y-89943035D01*
X54344174Y-89978750D01*
X54375424Y-90014464D01*
X54402209Y-90085892D01*
X54375424Y-90300178D01*
X54330781Y-90371607D01*
X54290602Y-90407321D01*
X54214709Y-90443035D01*
X54071852Y-90443035D01*
X54004888Y-90407321D01*
X54678995Y-90443035D02*
X54741495Y-89943035D01*
X54772745Y-89693035D02*
X54732566Y-89728750D01*
X54763816Y-89764464D01*
X54803995Y-89728750D01*
X54772745Y-89693035D01*
X54763816Y-89764464D01*
X55670066Y-89657321D02*
X54906674Y-90621607D01*
X55821852Y-90443035D02*
X55915602Y-89693035D01*
X56143281Y-90443035D02*
X56192388Y-90050178D01*
X56165602Y-89978750D01*
X56098638Y-89943035D01*
X55991495Y-89943035D01*
X55915602Y-89978750D01*
X55875424Y-90014464D01*
X56821852Y-90443035D02*
X56870959Y-90050178D01*
X56844174Y-89978750D01*
X56777209Y-89943035D01*
X56634352Y-89943035D01*
X56558459Y-89978750D01*
X56826316Y-90407321D02*
X56750424Y-90443035D01*
X56571852Y-90443035D01*
X56504888Y-90407321D01*
X56478102Y-90335892D01*
X56487031Y-90264464D01*
X56531674Y-90193035D01*
X56607566Y-90157321D01*
X56786138Y-90157321D01*
X56862031Y-90121607D01*
X57134352Y-89943035D02*
X57420066Y-89943035D01*
X57272745Y-89693035D02*
X57192388Y-90335892D01*
X57219174Y-90407321D01*
X57286138Y-90443035D01*
X57357566Y-90443035D01*
X57576316Y-90407321D02*
X57643281Y-90443035D01*
X57786138Y-90443035D01*
X57862031Y-90407321D01*
X57906674Y-90335892D01*
X57911138Y-90300178D01*
X57884352Y-90228750D01*
X57817388Y-90193035D01*
X57710245Y-90193035D01*
X57643281Y-90157321D01*
X57616495Y-90085892D01*
X57620959Y-90050178D01*
X57665602Y-89978750D01*
X57741495Y-89943035D01*
X57848638Y-89943035D01*
X57915602Y-89978750D01*
X58848638Y-89657321D02*
X58085245Y-90621607D01*
X59000424Y-90443035D02*
X59094174Y-89693035D01*
X59058459Y-89978750D02*
X59134352Y-89943035D01*
X59277209Y-89943035D01*
X59344174Y-89978750D01*
X59375424Y-90014464D01*
X59402209Y-90085892D01*
X59375424Y-90300178D01*
X59330781Y-90371607D01*
X59290602Y-90407321D01*
X59214709Y-90443035D01*
X59071852Y-90443035D01*
X59004888Y-90407321D01*
X59786138Y-90443035D02*
X59719174Y-90407321D01*
X59692388Y-90335892D01*
X59772745Y-89693035D01*
X60178995Y-90443035D02*
X60112031Y-90407321D01*
X60080781Y-90371607D01*
X60053995Y-90300178D01*
X60080781Y-90085892D01*
X60125424Y-90014464D01*
X60165602Y-89978750D01*
X60241495Y-89943035D01*
X60348638Y-89943035D01*
X60415602Y-89978750D01*
X60446852Y-90014464D01*
X60473638Y-90085892D01*
X60446852Y-90300178D01*
X60402209Y-90371607D01*
X60362031Y-90407321D01*
X60286138Y-90443035D01*
X60178995Y-90443035D01*
X60750424Y-90443035D02*
X60844174Y-89693035D01*
X60808459Y-89978750D02*
X60884352Y-89943035D01*
X61027209Y-89943035D01*
X61094174Y-89978750D01*
X61125424Y-90014464D01*
X61152209Y-90085892D01*
X61125424Y-90300178D01*
X61080781Y-90371607D01*
X61040602Y-90407321D01*
X60964709Y-90443035D01*
X60821852Y-90443035D01*
X60754888Y-90407321D01*
X62062924Y-89657321D02*
X61299531Y-90621607D01*
X62214709Y-90443035D02*
X62277209Y-89943035D01*
X62268281Y-90014464D02*
X62308459Y-89978750D01*
X62384352Y-89943035D01*
X62491495Y-89943035D01*
X62558459Y-89978750D01*
X62585245Y-90050178D01*
X62536138Y-90443035D01*
X62585245Y-90050178D02*
X62629888Y-89978750D01*
X62705781Y-89943035D01*
X62812924Y-89943035D01*
X62879888Y-89978750D01*
X62906674Y-90050178D01*
X62857566Y-90443035D01*
X63536138Y-90443035D02*
X63585245Y-90050178D01*
X63558459Y-89978750D01*
X63491495Y-89943035D01*
X63348638Y-89943035D01*
X63272745Y-89978750D01*
X63540602Y-90407321D02*
X63464709Y-90443035D01*
X63286138Y-90443035D01*
X63219174Y-90407321D01*
X63192388Y-90335892D01*
X63201316Y-90264464D01*
X63245959Y-90193035D01*
X63321852Y-90157321D01*
X63500424Y-90157321D01*
X63576316Y-90121607D01*
X63862031Y-90407321D02*
X63928995Y-90443035D01*
X64071852Y-90443035D01*
X64147745Y-90407321D01*
X64192388Y-90335892D01*
X64196852Y-90300178D01*
X64170066Y-90228750D01*
X64103102Y-90193035D01*
X63995959Y-90193035D01*
X63928995Y-90157321D01*
X63902209Y-90085892D01*
X63906674Y-90050178D01*
X63951316Y-89978750D01*
X64027209Y-89943035D01*
X64134352Y-89943035D01*
X64201316Y-89978750D01*
X64455781Y-89943035D02*
X64741495Y-89943035D01*
X64594174Y-89693035D02*
X64513816Y-90335892D01*
X64540602Y-90407321D01*
X64607566Y-90443035D01*
X64678995Y-90443035D01*
X65219174Y-90407321D02*
X65143281Y-90443035D01*
X65000424Y-90443035D01*
X64933459Y-90407321D01*
X64906674Y-90335892D01*
X64942388Y-90050178D01*
X64987031Y-89978750D01*
X65062924Y-89943035D01*
X65205781Y-89943035D01*
X65272745Y-89978750D01*
X65299531Y-90050178D01*
X65290602Y-90121607D01*
X64924531Y-90193035D01*
X65571852Y-90443035D02*
X65634352Y-89943035D01*
X65616495Y-90085892D02*
X65661138Y-90014464D01*
X65701316Y-89978750D01*
X65777209Y-89943035D01*
X65848638Y-89943035D01*
X66670066Y-89657321D02*
X65906674Y-90621607D01*
X66821852Y-90443035D02*
X66915602Y-89693035D01*
X67143281Y-90443035D02*
X67192388Y-90050178D01*
X67165602Y-89978750D01*
X67098638Y-89943035D01*
X66991495Y-89943035D01*
X66915602Y-89978750D01*
X66875424Y-90014464D01*
X67821852Y-90443035D02*
X67870959Y-90050178D01*
X67844174Y-89978750D01*
X67777209Y-89943035D01*
X67634352Y-89943035D01*
X67558459Y-89978750D01*
X67826316Y-90407321D02*
X67750424Y-90443035D01*
X67571852Y-90443035D01*
X67504888Y-90407321D01*
X67478102Y-90335892D01*
X67487031Y-90264464D01*
X67531674Y-90193035D01*
X67607566Y-90157321D01*
X67786138Y-90157321D01*
X67862031Y-90121607D01*
X68134352Y-89943035D02*
X68420066Y-89943035D01*
X68272745Y-89693035D02*
X68192388Y-90335892D01*
X68219174Y-90407321D01*
X68286138Y-90443035D01*
X68357566Y-90443035D01*
X68643281Y-90157321D02*
X69214709Y-90157321D01*
X69536138Y-90443035D02*
X69629888Y-89693035D01*
X69594174Y-89978750D02*
X69670066Y-89943035D01*
X69812924Y-89943035D01*
X69879888Y-89978750D01*
X69911138Y-90014464D01*
X69937924Y-90085892D01*
X69911138Y-90300178D01*
X69866495Y-90371607D01*
X69826316Y-90407321D01*
X69750424Y-90443035D01*
X69607566Y-90443035D01*
X69540602Y-90407321D01*
X70321852Y-90443035D02*
X70254888Y-90407321D01*
X70223638Y-90371607D01*
X70196852Y-90300178D01*
X70223638Y-90085892D01*
X70268281Y-90014464D01*
X70308459Y-89978750D01*
X70384352Y-89943035D01*
X70491495Y-89943035D01*
X70558459Y-89978750D01*
X70589709Y-90014464D01*
X70616495Y-90085892D01*
X70589709Y-90300178D01*
X70545066Y-90371607D01*
X70504888Y-90407321D01*
X70428995Y-90443035D01*
X70321852Y-90443035D01*
X71214709Y-90443035D02*
X71263816Y-90050178D01*
X71237031Y-89978750D01*
X71170066Y-89943035D01*
X71027209Y-89943035D01*
X70951316Y-89978750D01*
X71219174Y-90407321D02*
X71143281Y-90443035D01*
X70964709Y-90443035D01*
X70897745Y-90407321D01*
X70870959Y-90335892D01*
X70879888Y-90264464D01*
X70924531Y-90193035D01*
X71000424Y-90157321D01*
X71178995Y-90157321D01*
X71254888Y-90121607D01*
X71571852Y-90443035D02*
X71634352Y-89943035D01*
X71616495Y-90085892D02*
X71661138Y-90014464D01*
X71701316Y-89978750D01*
X71777209Y-89943035D01*
X71848638Y-89943035D01*
X72357566Y-90443035D02*
X72451316Y-89693035D01*
X72362031Y-90407321D02*
X72286138Y-90443035D01*
X72143281Y-90443035D01*
X72076316Y-90407321D01*
X72045066Y-90371607D01*
X72018281Y-90300178D01*
X72045066Y-90085892D01*
X72089709Y-90014464D01*
X72129888Y-89978750D01*
X72205781Y-89943035D01*
X72348638Y-89943035D01*
X72415602Y-89978750D01*
X72750424Y-90157321D02*
X73321852Y-90157321D01*
X73643281Y-90443035D02*
X73705781Y-89943035D01*
X73696852Y-90014464D02*
X73737031Y-89978750D01*
X73812924Y-89943035D01*
X73920066Y-89943035D01*
X73987031Y-89978750D01*
X74013816Y-90050178D01*
X73964709Y-90443035D01*
X74013816Y-90050178D02*
X74058459Y-89978750D01*
X74134352Y-89943035D01*
X74241495Y-89943035D01*
X74308459Y-89978750D01*
X74335245Y-90050178D01*
X74286138Y-90443035D01*
X74933459Y-90407321D02*
X74857566Y-90443035D01*
X74714709Y-90443035D01*
X74647745Y-90407321D01*
X74620959Y-90335892D01*
X74656674Y-90050178D01*
X74701316Y-89978750D01*
X74777209Y-89943035D01*
X74920066Y-89943035D01*
X74987031Y-89978750D01*
X75013816Y-90050178D01*
X75004888Y-90121607D01*
X74638816Y-90193035D01*
X75612031Y-90407321D02*
X75536138Y-90443035D01*
X75393281Y-90443035D01*
X75326316Y-90407321D01*
X75295066Y-90371607D01*
X75268281Y-90300178D01*
X75295066Y-90085892D01*
X75339709Y-90014464D01*
X75379888Y-89978750D01*
X75455781Y-89943035D01*
X75598638Y-89943035D01*
X75665602Y-89978750D01*
X75928995Y-90443035D02*
X76022745Y-89693035D01*
X76250424Y-90443035D02*
X76299531Y-90050178D01*
X76272745Y-89978750D01*
X76205781Y-89943035D01*
X76098638Y-89943035D01*
X76022745Y-89978750D01*
X75982566Y-90014464D01*
X76928995Y-90443035D02*
X76978102Y-90050178D01*
X76951316Y-89978750D01*
X76884352Y-89943035D01*
X76741495Y-89943035D01*
X76665602Y-89978750D01*
X76933459Y-90407321D02*
X76857566Y-90443035D01*
X76678995Y-90443035D01*
X76612031Y-90407321D01*
X76585245Y-90335892D01*
X76594174Y-90264464D01*
X76638816Y-90193035D01*
X76714709Y-90157321D01*
X76893281Y-90157321D01*
X76969174Y-90121607D01*
X77348638Y-89943035D02*
X77286138Y-90443035D01*
X77339709Y-90014464D02*
X77379888Y-89978750D01*
X77455781Y-89943035D01*
X77562924Y-89943035D01*
X77629888Y-89978750D01*
X77656674Y-90050178D01*
X77607566Y-90443035D01*
X77964709Y-90443035D02*
X78027209Y-89943035D01*
X78058459Y-89693035D02*
X78018281Y-89728750D01*
X78049531Y-89764464D01*
X78089709Y-89728750D01*
X78058459Y-89693035D01*
X78049531Y-89764464D01*
X78647745Y-90407321D02*
X78571852Y-90443035D01*
X78428995Y-90443035D01*
X78362031Y-90407321D01*
X78330781Y-90371607D01*
X78303995Y-90300178D01*
X78330781Y-90085892D01*
X78375424Y-90014464D01*
X78415602Y-89978750D01*
X78491495Y-89943035D01*
X78634352Y-89943035D01*
X78701316Y-89978750D01*
X79286138Y-90443035D02*
X79335245Y-90050178D01*
X79308459Y-89978750D01*
X79241495Y-89943035D01*
X79098638Y-89943035D01*
X79022745Y-89978750D01*
X79290602Y-90407321D02*
X79214709Y-90443035D01*
X79036138Y-90443035D01*
X78969174Y-90407321D01*
X78942388Y-90335892D01*
X78951316Y-90264464D01*
X78995959Y-90193035D01*
X79071852Y-90157321D01*
X79250424Y-90157321D01*
X79326316Y-90121607D01*
X79750424Y-90443035D02*
X79683459Y-90407321D01*
X79656674Y-90335892D01*
X79737031Y-89693035D01*
X80045066Y-90371607D02*
X80076316Y-90407321D01*
X80036138Y-90443035D01*
X80004888Y-90407321D01*
X80045066Y-90371607D01*
X80036138Y-90443035D01*
X80455781Y-89943035D02*
X80362031Y-90693035D01*
X80451316Y-89978750D02*
X80527209Y-89943035D01*
X80670066Y-89943035D01*
X80737031Y-89978750D01*
X80768281Y-90014464D01*
X80795066Y-90085892D01*
X80768281Y-90300178D01*
X80723638Y-90371607D01*
X80683459Y-90407321D01*
X80607566Y-90443035D01*
X80464709Y-90443035D01*
X80397745Y-90407321D01*
X81393281Y-90443035D02*
X81487031Y-89693035D01*
X81397745Y-90407321D02*
X81321852Y-90443035D01*
X81178995Y-90443035D01*
X81112031Y-90407321D01*
X81080781Y-90371607D01*
X81053995Y-90300178D01*
X81080781Y-90085892D01*
X81125424Y-90014464D01*
X81165602Y-89978750D01*
X81241495Y-89943035D01*
X81384352Y-89943035D01*
X81451316Y-89978750D01*
X81705781Y-89943035D02*
X81991495Y-89943035D01*
X81750424Y-90443035D02*
X81830781Y-89800178D01*
X81875424Y-89728750D01*
X81951316Y-89693035D01*
X82022745Y-89693035D01*
X53053995Y-148235535D02*
X53147745Y-147485535D01*
X53326316Y-147485535D01*
X53428995Y-147521250D01*
X53491495Y-147592678D01*
X53518281Y-147664107D01*
X53536138Y-147806964D01*
X53522745Y-147914107D01*
X53469174Y-148056964D01*
X53424531Y-148128392D01*
X53344174Y-148199821D01*
X53232566Y-148235535D01*
X53053995Y-148235535D01*
X53803995Y-148235535D02*
X53866495Y-147735535D01*
X53897745Y-147485535D02*
X53857566Y-147521250D01*
X53888816Y-147556964D01*
X53928995Y-147521250D01*
X53897745Y-147485535D01*
X53888816Y-147556964D01*
X54161138Y-148235535D02*
X54223638Y-147735535D01*
X54214709Y-147806964D02*
X54254888Y-147771250D01*
X54330781Y-147735535D01*
X54437924Y-147735535D01*
X54504888Y-147771250D01*
X54531674Y-147842678D01*
X54482566Y-148235535D01*
X54531674Y-147842678D02*
X54576316Y-147771250D01*
X54652209Y-147735535D01*
X54759352Y-147735535D01*
X54826316Y-147771250D01*
X54853102Y-147842678D01*
X54803995Y-148235535D01*
X55451316Y-148199821D02*
X55375424Y-148235535D01*
X55232566Y-148235535D01*
X55165602Y-148199821D01*
X55138816Y-148128392D01*
X55174531Y-147842678D01*
X55219174Y-147771250D01*
X55295066Y-147735535D01*
X55437924Y-147735535D01*
X55504888Y-147771250D01*
X55531674Y-147842678D01*
X55522745Y-147914107D01*
X55156674Y-147985535D01*
X55866495Y-147735535D02*
X55803995Y-148235535D01*
X55857566Y-147806964D02*
X55897745Y-147771250D01*
X55973638Y-147735535D01*
X56080781Y-147735535D01*
X56147745Y-147771250D01*
X56174531Y-147842678D01*
X56125424Y-148235535D01*
X56451316Y-148199821D02*
X56518281Y-148235535D01*
X56661138Y-148235535D01*
X56737031Y-148199821D01*
X56781674Y-148128392D01*
X56786138Y-148092678D01*
X56759352Y-148021250D01*
X56692388Y-147985535D01*
X56585245Y-147985535D01*
X56518281Y-147949821D01*
X56491495Y-147878392D01*
X56495959Y-147842678D01*
X56540602Y-147771250D01*
X56616495Y-147735535D01*
X56723638Y-147735535D01*
X56790602Y-147771250D01*
X57089709Y-148235535D02*
X57152209Y-147735535D01*
X57183459Y-147485535D02*
X57143281Y-147521250D01*
X57174531Y-147556964D01*
X57214709Y-147521250D01*
X57183459Y-147485535D01*
X57174531Y-147556964D01*
X57553995Y-148235535D02*
X57487031Y-148199821D01*
X57455781Y-148164107D01*
X57428995Y-148092678D01*
X57455781Y-147878392D01*
X57500424Y-147806964D01*
X57540602Y-147771250D01*
X57616495Y-147735535D01*
X57723638Y-147735535D01*
X57790602Y-147771250D01*
X57821852Y-147806964D01*
X57848638Y-147878392D01*
X57821852Y-148092678D01*
X57777209Y-148164107D01*
X57737031Y-148199821D01*
X57661138Y-148235535D01*
X57553995Y-148235535D01*
X58187924Y-147735535D02*
X58125424Y-148235535D01*
X58178995Y-147806964D02*
X58219174Y-147771250D01*
X58295066Y-147735535D01*
X58402209Y-147735535D01*
X58469174Y-147771250D01*
X58495959Y-147842678D01*
X58446852Y-148235535D01*
X58772745Y-148199821D02*
X58839709Y-148235535D01*
X58982566Y-148235535D01*
X59058459Y-148199821D01*
X59103102Y-148128392D01*
X59107566Y-148092678D01*
X59080781Y-148021250D01*
X59013816Y-147985535D01*
X58906674Y-147985535D01*
X58839709Y-147949821D01*
X58812924Y-147878392D01*
X58817388Y-147842678D01*
X58862031Y-147771250D01*
X58937924Y-147735535D01*
X59045066Y-147735535D01*
X59112031Y-147771250D01*
X59937924Y-147735535D02*
X60223638Y-147735535D01*
X60076316Y-147485535D02*
X59995959Y-148128392D01*
X60022745Y-148199821D01*
X60089709Y-148235535D01*
X60161138Y-148235535D01*
X60732566Y-148235535D02*
X60781674Y-147842678D01*
X60754888Y-147771250D01*
X60687924Y-147735535D01*
X60545066Y-147735535D01*
X60469174Y-147771250D01*
X60737031Y-148199821D02*
X60661138Y-148235535D01*
X60482566Y-148235535D01*
X60415602Y-148199821D01*
X60388816Y-148128392D01*
X60397745Y-148056964D01*
X60442388Y-147985535D01*
X60518281Y-147949821D01*
X60696852Y-147949821D01*
X60772745Y-147914107D01*
X61089709Y-148235535D02*
X61183459Y-147485535D01*
X61196852Y-147949821D02*
X61375424Y-148235535D01*
X61437924Y-147735535D02*
X61116495Y-148021250D01*
X61987031Y-148199821D02*
X61911138Y-148235535D01*
X61768281Y-148235535D01*
X61701316Y-148199821D01*
X61674531Y-148128392D01*
X61710245Y-147842678D01*
X61754888Y-147771250D01*
X61830781Y-147735535D01*
X61973638Y-147735535D01*
X62040602Y-147771250D01*
X62067388Y-147842678D01*
X62058459Y-147914107D01*
X61692388Y-147985535D01*
X62402209Y-147735535D02*
X62339709Y-148235535D01*
X62393281Y-147806964D02*
X62433459Y-147771250D01*
X62509352Y-147735535D01*
X62616495Y-147735535D01*
X62683459Y-147771250D01*
X62710245Y-147842678D01*
X62661138Y-148235535D01*
X63545066Y-147735535D02*
X63830781Y-147735535D01*
X63589709Y-148235535D02*
X63670066Y-147592678D01*
X63714709Y-147521250D01*
X63790602Y-147485535D01*
X63862031Y-147485535D01*
X64018281Y-148235535D02*
X64080781Y-147735535D01*
X64062924Y-147878392D02*
X64107566Y-147806964D01*
X64147745Y-147771250D01*
X64223638Y-147735535D01*
X64295066Y-147735535D01*
X64589709Y-148235535D02*
X64522745Y-148199821D01*
X64491495Y-148164107D01*
X64464709Y-148092678D01*
X64491495Y-147878392D01*
X64536138Y-147806964D01*
X64576316Y-147771250D01*
X64652209Y-147735535D01*
X64759352Y-147735535D01*
X64826316Y-147771250D01*
X64857566Y-147806964D01*
X64884352Y-147878392D01*
X64857566Y-148092678D01*
X64812924Y-148164107D01*
X64772745Y-148199821D01*
X64696852Y-148235535D01*
X64589709Y-148235535D01*
X65161138Y-148235535D02*
X65223638Y-147735535D01*
X65214709Y-147806964D02*
X65254888Y-147771250D01*
X65330781Y-147735535D01*
X65437924Y-147735535D01*
X65504888Y-147771250D01*
X65531674Y-147842678D01*
X65482566Y-148235535D01*
X65531674Y-147842678D02*
X65576316Y-147771250D01*
X65652209Y-147735535D01*
X65759352Y-147735535D01*
X65826316Y-147771250D01*
X65853102Y-147842678D01*
X65803995Y-148235535D01*
X37036138Y-149443035D02*
X37129888Y-148693035D01*
X37357566Y-149443035D02*
X37406674Y-149050178D01*
X37379888Y-148978750D01*
X37312924Y-148943035D01*
X37205781Y-148943035D01*
X37129888Y-148978750D01*
X37089709Y-149014464D01*
X37670066Y-148943035D02*
X37955781Y-148943035D01*
X37808459Y-148693035D02*
X37728102Y-149335892D01*
X37754888Y-149407321D01*
X37821852Y-149443035D01*
X37893281Y-149443035D01*
X38098638Y-148943035D02*
X38384352Y-148943035D01*
X38237031Y-148693035D02*
X38156674Y-149335892D01*
X38183459Y-149407321D01*
X38250424Y-149443035D01*
X38321852Y-149443035D01*
X38634352Y-148943035D02*
X38540602Y-149693035D01*
X38629888Y-148978750D02*
X38705781Y-148943035D01*
X38848638Y-148943035D01*
X38915602Y-148978750D01*
X38946852Y-149014464D01*
X38973638Y-149085892D01*
X38946852Y-149300178D01*
X38902209Y-149371607D01*
X38862031Y-149407321D01*
X38786138Y-149443035D01*
X38643281Y-149443035D01*
X38576316Y-149407321D01*
X39219174Y-149407321D02*
X39286138Y-149443035D01*
X39428995Y-149443035D01*
X39504888Y-149407321D01*
X39549531Y-149335892D01*
X39553995Y-149300178D01*
X39527209Y-149228750D01*
X39460245Y-149193035D01*
X39353102Y-149193035D01*
X39286138Y-149157321D01*
X39259352Y-149085892D01*
X39263816Y-149050178D01*
X39308459Y-148978750D01*
X39384352Y-148943035D01*
X39491495Y-148943035D01*
X39558459Y-148978750D01*
X39866495Y-149371607D02*
X39897745Y-149407321D01*
X39857566Y-149443035D01*
X39826316Y-149407321D01*
X39866495Y-149371607D01*
X39857566Y-149443035D01*
X39915602Y-148978750D02*
X39946852Y-149014464D01*
X39906674Y-149050178D01*
X39875424Y-149014464D01*
X39915602Y-148978750D01*
X39906674Y-149050178D01*
X40848638Y-148657321D02*
X40085245Y-149621607D01*
X41634352Y-148657321D02*
X40870959Y-149621607D01*
X42170066Y-148943035D02*
X42094174Y-149550178D01*
X42049531Y-149621607D01*
X42009352Y-149657321D01*
X41933459Y-149693035D01*
X41826316Y-149693035D01*
X41759352Y-149657321D01*
X42112031Y-149407321D02*
X42036138Y-149443035D01*
X41893281Y-149443035D01*
X41826316Y-149407321D01*
X41795066Y-149371607D01*
X41768281Y-149300178D01*
X41795066Y-149085892D01*
X41839709Y-149014464D01*
X41879888Y-148978750D01*
X41955781Y-148943035D01*
X42098638Y-148943035D01*
X42165602Y-148978750D01*
X42464709Y-149443035D02*
X42527209Y-148943035D01*
X42558459Y-148693035D02*
X42518281Y-148728750D01*
X42549531Y-148764464D01*
X42589709Y-148728750D01*
X42558459Y-148693035D01*
X42549531Y-148764464D01*
X42777209Y-148943035D02*
X43062924Y-148943035D01*
X42915602Y-148693035D02*
X42835245Y-149335892D01*
X42862031Y-149407321D01*
X42928995Y-149443035D01*
X43000424Y-149443035D01*
X43250424Y-149443035D02*
X43344174Y-148693035D01*
X43571852Y-149443035D02*
X43620959Y-149050178D01*
X43594174Y-148978750D01*
X43527209Y-148943035D01*
X43420066Y-148943035D01*
X43344174Y-148978750D01*
X43303995Y-149014464D01*
X44312924Y-148943035D02*
X44250424Y-149443035D01*
X43991495Y-148943035D02*
X43942388Y-149335892D01*
X43969174Y-149407321D01*
X44036138Y-149443035D01*
X44143281Y-149443035D01*
X44219174Y-149407321D01*
X44259352Y-149371607D01*
X44607566Y-149443035D02*
X44701316Y-148693035D01*
X44665602Y-148978750D02*
X44741495Y-148943035D01*
X44884352Y-148943035D01*
X44951316Y-148978750D01*
X44982566Y-149014464D01*
X45009352Y-149085892D01*
X44982566Y-149300178D01*
X44937924Y-149371607D01*
X44897745Y-149407321D01*
X44821852Y-149443035D01*
X44678995Y-149443035D01*
X44612031Y-149407321D01*
X45295066Y-149371607D02*
X45326316Y-149407321D01*
X45286138Y-149443035D01*
X45254888Y-149407321D01*
X45295066Y-149371607D01*
X45286138Y-149443035D01*
X45969174Y-149407321D02*
X45893281Y-149443035D01*
X45750424Y-149443035D01*
X45683459Y-149407321D01*
X45652209Y-149371607D01*
X45625424Y-149300178D01*
X45652209Y-149085892D01*
X45696852Y-149014464D01*
X45737031Y-148978750D01*
X45812924Y-148943035D01*
X45955781Y-148943035D01*
X46022745Y-148978750D01*
X46393281Y-149443035D02*
X46326316Y-149407321D01*
X46295066Y-149371607D01*
X46268281Y-149300178D01*
X46295066Y-149085892D01*
X46339709Y-149014464D01*
X46379888Y-148978750D01*
X46455781Y-148943035D01*
X46562924Y-148943035D01*
X46629888Y-148978750D01*
X46661138Y-149014464D01*
X46687924Y-149085892D01*
X46661138Y-149300178D01*
X46616495Y-149371607D01*
X46576316Y-149407321D01*
X46500424Y-149443035D01*
X46393281Y-149443035D01*
X46964709Y-149443035D02*
X47027209Y-148943035D01*
X47018281Y-149014464D02*
X47058459Y-148978750D01*
X47134352Y-148943035D01*
X47241495Y-148943035D01*
X47308459Y-148978750D01*
X47335245Y-149050178D01*
X47286138Y-149443035D01*
X47335245Y-149050178D02*
X47379888Y-148978750D01*
X47455781Y-148943035D01*
X47562924Y-148943035D01*
X47629888Y-148978750D01*
X47656674Y-149050178D01*
X47607566Y-149443035D01*
X48598638Y-148657321D02*
X47835245Y-149621607D01*
X48750424Y-149443035D02*
X48812924Y-148943035D01*
X48795066Y-149085892D02*
X48839709Y-149014464D01*
X48879888Y-148978750D01*
X48955781Y-148943035D01*
X49027209Y-148943035D01*
X49536138Y-149443035D02*
X49585245Y-149050178D01*
X49558459Y-148978750D01*
X49491495Y-148943035D01*
X49348638Y-148943035D01*
X49272745Y-148978750D01*
X49540602Y-149407321D02*
X49464709Y-149443035D01*
X49286138Y-149443035D01*
X49219174Y-149407321D01*
X49192388Y-149335892D01*
X49201316Y-149264464D01*
X49245959Y-149193035D01*
X49321852Y-149157321D01*
X49500424Y-149157321D01*
X49576316Y-149121607D01*
X49862031Y-149407321D02*
X49928995Y-149443035D01*
X50071852Y-149443035D01*
X50147745Y-149407321D01*
X50192388Y-149335892D01*
X50196852Y-149300178D01*
X50170066Y-149228750D01*
X50103102Y-149193035D01*
X49995959Y-149193035D01*
X49928995Y-149157321D01*
X49902209Y-149085892D01*
X49906674Y-149050178D01*
X49951316Y-148978750D01*
X50027209Y-148943035D01*
X50134352Y-148943035D01*
X50201316Y-148978750D01*
X50562924Y-148943035D02*
X50469174Y-149693035D01*
X50558459Y-148978750D02*
X50634352Y-148943035D01*
X50777209Y-148943035D01*
X50844174Y-148978750D01*
X50875424Y-149014464D01*
X50902209Y-149085892D01*
X50875424Y-149300178D01*
X50830781Y-149371607D01*
X50790602Y-149407321D01*
X50714709Y-149443035D01*
X50571852Y-149443035D01*
X50504888Y-149407321D01*
X51178995Y-149443035D02*
X51272745Y-148693035D01*
X51237031Y-148978750D02*
X51312924Y-148943035D01*
X51455781Y-148943035D01*
X51522745Y-148978750D01*
X51553995Y-149014464D01*
X51580781Y-149085892D01*
X51553995Y-149300178D01*
X51509352Y-149371607D01*
X51469174Y-149407321D01*
X51393281Y-149443035D01*
X51250424Y-149443035D01*
X51183459Y-149407321D01*
X52147745Y-149407321D02*
X52071852Y-149443035D01*
X51928995Y-149443035D01*
X51862031Y-149407321D01*
X51835245Y-149335892D01*
X51870959Y-149050178D01*
X51915602Y-148978750D01*
X51991495Y-148943035D01*
X52134352Y-148943035D01*
X52201316Y-148978750D01*
X52228102Y-149050178D01*
X52219174Y-149121607D01*
X51853102Y-149193035D01*
X52500424Y-149443035D02*
X52562924Y-148943035D01*
X52545066Y-149085892D02*
X52589709Y-149014464D01*
X52629888Y-148978750D01*
X52705781Y-148943035D01*
X52777209Y-148943035D01*
X52964709Y-149443035D02*
X53027209Y-148943035D01*
X53009352Y-149085892D02*
X53053995Y-149014464D01*
X53094174Y-148978750D01*
X53170066Y-148943035D01*
X53241495Y-148943035D01*
X53420066Y-148943035D02*
X53536138Y-149443035D01*
X53777209Y-148943035D02*
X53536138Y-149443035D01*
X53442388Y-149621607D01*
X53402209Y-149657321D01*
X53326316Y-149693035D01*
X54062924Y-148943035D02*
X53969174Y-149693035D01*
X54058459Y-148978750D02*
X54134352Y-148943035D01*
X54277209Y-148943035D01*
X54344174Y-148978750D01*
X54375424Y-149014464D01*
X54402209Y-149085892D01*
X54375424Y-149300178D01*
X54330781Y-149371607D01*
X54290602Y-149407321D01*
X54214709Y-149443035D01*
X54071852Y-149443035D01*
X54004888Y-149407321D01*
X54678995Y-149443035D02*
X54741495Y-148943035D01*
X54772745Y-148693035D02*
X54732566Y-148728750D01*
X54763816Y-148764464D01*
X54803995Y-148728750D01*
X54772745Y-148693035D01*
X54763816Y-148764464D01*
X55670066Y-148657321D02*
X54906674Y-149621607D01*
X55821852Y-149443035D02*
X55915602Y-148693035D01*
X56143281Y-149443035D02*
X56192388Y-149050178D01*
X56165602Y-148978750D01*
X56098638Y-148943035D01*
X55991495Y-148943035D01*
X55915602Y-148978750D01*
X55875424Y-149014464D01*
X56821852Y-149443035D02*
X56870959Y-149050178D01*
X56844174Y-148978750D01*
X56777209Y-148943035D01*
X56634352Y-148943035D01*
X56558459Y-148978750D01*
X56826316Y-149407321D02*
X56750424Y-149443035D01*
X56571852Y-149443035D01*
X56504888Y-149407321D01*
X56478102Y-149335892D01*
X56487031Y-149264464D01*
X56531674Y-149193035D01*
X56607566Y-149157321D01*
X56786138Y-149157321D01*
X56862031Y-149121607D01*
X57134352Y-148943035D02*
X57420066Y-148943035D01*
X57272745Y-148693035D02*
X57192388Y-149335892D01*
X57219174Y-149407321D01*
X57286138Y-149443035D01*
X57357566Y-149443035D01*
X57576316Y-149407321D02*
X57643281Y-149443035D01*
X57786138Y-149443035D01*
X57862031Y-149407321D01*
X57906674Y-149335892D01*
X57911138Y-149300178D01*
X57884352Y-149228750D01*
X57817388Y-149193035D01*
X57710245Y-149193035D01*
X57643281Y-149157321D01*
X57616495Y-149085892D01*
X57620959Y-149050178D01*
X57665602Y-148978750D01*
X57741495Y-148943035D01*
X57848638Y-148943035D01*
X57915602Y-148978750D01*
X58848638Y-148657321D02*
X58085245Y-149621607D01*
X59000424Y-149443035D02*
X59094174Y-148693035D01*
X59058459Y-148978750D02*
X59134352Y-148943035D01*
X59277209Y-148943035D01*
X59344174Y-148978750D01*
X59375424Y-149014464D01*
X59402209Y-149085892D01*
X59375424Y-149300178D01*
X59330781Y-149371607D01*
X59290602Y-149407321D01*
X59214709Y-149443035D01*
X59071852Y-149443035D01*
X59004888Y-149407321D01*
X59786138Y-149443035D02*
X59719174Y-149407321D01*
X59692388Y-149335892D01*
X59772745Y-148693035D01*
X60178995Y-149443035D02*
X60112031Y-149407321D01*
X60080781Y-149371607D01*
X60053995Y-149300178D01*
X60080781Y-149085892D01*
X60125424Y-149014464D01*
X60165602Y-148978750D01*
X60241495Y-148943035D01*
X60348638Y-148943035D01*
X60415602Y-148978750D01*
X60446852Y-149014464D01*
X60473638Y-149085892D01*
X60446852Y-149300178D01*
X60402209Y-149371607D01*
X60362031Y-149407321D01*
X60286138Y-149443035D01*
X60178995Y-149443035D01*
X60750424Y-149443035D02*
X60844174Y-148693035D01*
X60808459Y-148978750D02*
X60884352Y-148943035D01*
X61027209Y-148943035D01*
X61094174Y-148978750D01*
X61125424Y-149014464D01*
X61152209Y-149085892D01*
X61125424Y-149300178D01*
X61080781Y-149371607D01*
X61040602Y-149407321D01*
X60964709Y-149443035D01*
X60821852Y-149443035D01*
X60754888Y-149407321D01*
X62062924Y-148657321D02*
X61299531Y-149621607D01*
X62214709Y-149443035D02*
X62277209Y-148943035D01*
X62268281Y-149014464D02*
X62308459Y-148978750D01*
X62384352Y-148943035D01*
X62491495Y-148943035D01*
X62558459Y-148978750D01*
X62585245Y-149050178D01*
X62536138Y-149443035D01*
X62585245Y-149050178D02*
X62629888Y-148978750D01*
X62705781Y-148943035D01*
X62812924Y-148943035D01*
X62879888Y-148978750D01*
X62906674Y-149050178D01*
X62857566Y-149443035D01*
X63536138Y-149443035D02*
X63585245Y-149050178D01*
X63558459Y-148978750D01*
X63491495Y-148943035D01*
X63348638Y-148943035D01*
X63272745Y-148978750D01*
X63540602Y-149407321D02*
X63464709Y-149443035D01*
X63286138Y-149443035D01*
X63219174Y-149407321D01*
X63192388Y-149335892D01*
X63201316Y-149264464D01*
X63245959Y-149193035D01*
X63321852Y-149157321D01*
X63500424Y-149157321D01*
X63576316Y-149121607D01*
X63862031Y-149407321D02*
X63928995Y-149443035D01*
X64071852Y-149443035D01*
X64147745Y-149407321D01*
X64192388Y-149335892D01*
X64196852Y-149300178D01*
X64170066Y-149228750D01*
X64103102Y-149193035D01*
X63995959Y-149193035D01*
X63928995Y-149157321D01*
X63902209Y-149085892D01*
X63906674Y-149050178D01*
X63951316Y-148978750D01*
X64027209Y-148943035D01*
X64134352Y-148943035D01*
X64201316Y-148978750D01*
X64455781Y-148943035D02*
X64741495Y-148943035D01*
X64594174Y-148693035D02*
X64513816Y-149335892D01*
X64540602Y-149407321D01*
X64607566Y-149443035D01*
X64678995Y-149443035D01*
X65219174Y-149407321D02*
X65143281Y-149443035D01*
X65000424Y-149443035D01*
X64933459Y-149407321D01*
X64906674Y-149335892D01*
X64942388Y-149050178D01*
X64987031Y-148978750D01*
X65062924Y-148943035D01*
X65205781Y-148943035D01*
X65272745Y-148978750D01*
X65299531Y-149050178D01*
X65290602Y-149121607D01*
X64924531Y-149193035D01*
X65571852Y-149443035D02*
X65634352Y-148943035D01*
X65616495Y-149085892D02*
X65661138Y-149014464D01*
X65701316Y-148978750D01*
X65777209Y-148943035D01*
X65848638Y-148943035D01*
X66670066Y-148657321D02*
X65906674Y-149621607D01*
X66821852Y-149443035D02*
X66915602Y-148693035D01*
X67143281Y-149443035D02*
X67192388Y-149050178D01*
X67165602Y-148978750D01*
X67098638Y-148943035D01*
X66991495Y-148943035D01*
X66915602Y-148978750D01*
X66875424Y-149014464D01*
X67821852Y-149443035D02*
X67870959Y-149050178D01*
X67844174Y-148978750D01*
X67777209Y-148943035D01*
X67634352Y-148943035D01*
X67558459Y-148978750D01*
X67826316Y-149407321D02*
X67750424Y-149443035D01*
X67571852Y-149443035D01*
X67504888Y-149407321D01*
X67478102Y-149335892D01*
X67487031Y-149264464D01*
X67531674Y-149193035D01*
X67607566Y-149157321D01*
X67786138Y-149157321D01*
X67862031Y-149121607D01*
X68134352Y-148943035D02*
X68420066Y-148943035D01*
X68272745Y-148693035D02*
X68192388Y-149335892D01*
X68219174Y-149407321D01*
X68286138Y-149443035D01*
X68357566Y-149443035D01*
X68643281Y-149157321D02*
X69214709Y-149157321D01*
X69536138Y-149443035D02*
X69629888Y-148693035D01*
X69594174Y-148978750D02*
X69670066Y-148943035D01*
X69812924Y-148943035D01*
X69879888Y-148978750D01*
X69911138Y-149014464D01*
X69937924Y-149085892D01*
X69911138Y-149300178D01*
X69866495Y-149371607D01*
X69826316Y-149407321D01*
X69750424Y-149443035D01*
X69607566Y-149443035D01*
X69540602Y-149407321D01*
X70321852Y-149443035D02*
X70254888Y-149407321D01*
X70223638Y-149371607D01*
X70196852Y-149300178D01*
X70223638Y-149085892D01*
X70268281Y-149014464D01*
X70308459Y-148978750D01*
X70384352Y-148943035D01*
X70491495Y-148943035D01*
X70558459Y-148978750D01*
X70589709Y-149014464D01*
X70616495Y-149085892D01*
X70589709Y-149300178D01*
X70545066Y-149371607D01*
X70504888Y-149407321D01*
X70428995Y-149443035D01*
X70321852Y-149443035D01*
X71214709Y-149443035D02*
X71263816Y-149050178D01*
X71237031Y-148978750D01*
X71170066Y-148943035D01*
X71027209Y-148943035D01*
X70951316Y-148978750D01*
X71219174Y-149407321D02*
X71143281Y-149443035D01*
X70964709Y-149443035D01*
X70897745Y-149407321D01*
X70870959Y-149335892D01*
X70879888Y-149264464D01*
X70924531Y-149193035D01*
X71000424Y-149157321D01*
X71178995Y-149157321D01*
X71254888Y-149121607D01*
X71571852Y-149443035D02*
X71634352Y-148943035D01*
X71616495Y-149085892D02*
X71661138Y-149014464D01*
X71701316Y-148978750D01*
X71777209Y-148943035D01*
X71848638Y-148943035D01*
X72357566Y-149443035D02*
X72451316Y-148693035D01*
X72362031Y-149407321D02*
X72286138Y-149443035D01*
X72143281Y-149443035D01*
X72076316Y-149407321D01*
X72045066Y-149371607D01*
X72018281Y-149300178D01*
X72045066Y-149085892D01*
X72089709Y-149014464D01*
X72129888Y-148978750D01*
X72205781Y-148943035D01*
X72348638Y-148943035D01*
X72415602Y-148978750D01*
X72750424Y-149157321D02*
X73321852Y-149157321D01*
X73643281Y-149443035D02*
X73705781Y-148943035D01*
X73696852Y-149014464D02*
X73737031Y-148978750D01*
X73812924Y-148943035D01*
X73920066Y-148943035D01*
X73987031Y-148978750D01*
X74013816Y-149050178D01*
X73964709Y-149443035D01*
X74013816Y-149050178D02*
X74058459Y-148978750D01*
X74134352Y-148943035D01*
X74241495Y-148943035D01*
X74308459Y-148978750D01*
X74335245Y-149050178D01*
X74286138Y-149443035D01*
X74933459Y-149407321D02*
X74857566Y-149443035D01*
X74714709Y-149443035D01*
X74647745Y-149407321D01*
X74620959Y-149335892D01*
X74656674Y-149050178D01*
X74701316Y-148978750D01*
X74777209Y-148943035D01*
X74920066Y-148943035D01*
X74987031Y-148978750D01*
X75013816Y-149050178D01*
X75004888Y-149121607D01*
X74638816Y-149193035D01*
X75612031Y-149407321D02*
X75536138Y-149443035D01*
X75393281Y-149443035D01*
X75326316Y-149407321D01*
X75295066Y-149371607D01*
X75268281Y-149300178D01*
X75295066Y-149085892D01*
X75339709Y-149014464D01*
X75379888Y-148978750D01*
X75455781Y-148943035D01*
X75598638Y-148943035D01*
X75665602Y-148978750D01*
X75928995Y-149443035D02*
X76022745Y-148693035D01*
X76250424Y-149443035D02*
X76299531Y-149050178D01*
X76272745Y-148978750D01*
X76205781Y-148943035D01*
X76098638Y-148943035D01*
X76022745Y-148978750D01*
X75982566Y-149014464D01*
X76928995Y-149443035D02*
X76978102Y-149050178D01*
X76951316Y-148978750D01*
X76884352Y-148943035D01*
X76741495Y-148943035D01*
X76665602Y-148978750D01*
X76933459Y-149407321D02*
X76857566Y-149443035D01*
X76678995Y-149443035D01*
X76612031Y-149407321D01*
X76585245Y-149335892D01*
X76594174Y-149264464D01*
X76638816Y-149193035D01*
X76714709Y-149157321D01*
X76893281Y-149157321D01*
X76969174Y-149121607D01*
X77348638Y-148943035D02*
X77286138Y-149443035D01*
X77339709Y-149014464D02*
X77379888Y-148978750D01*
X77455781Y-148943035D01*
X77562924Y-148943035D01*
X77629888Y-148978750D01*
X77656674Y-149050178D01*
X77607566Y-149443035D01*
X77964709Y-149443035D02*
X78027209Y-148943035D01*
X78058459Y-148693035D02*
X78018281Y-148728750D01*
X78049531Y-148764464D01*
X78089709Y-148728750D01*
X78058459Y-148693035D01*
X78049531Y-148764464D01*
X78647745Y-149407321D02*
X78571852Y-149443035D01*
X78428995Y-149443035D01*
X78362031Y-149407321D01*
X78330781Y-149371607D01*
X78303995Y-149300178D01*
X78330781Y-149085892D01*
X78375424Y-149014464D01*
X78415602Y-148978750D01*
X78491495Y-148943035D01*
X78634352Y-148943035D01*
X78701316Y-148978750D01*
X79286138Y-149443035D02*
X79335245Y-149050178D01*
X79308459Y-148978750D01*
X79241495Y-148943035D01*
X79098638Y-148943035D01*
X79022745Y-148978750D01*
X79290602Y-149407321D02*
X79214709Y-149443035D01*
X79036138Y-149443035D01*
X78969174Y-149407321D01*
X78942388Y-149335892D01*
X78951316Y-149264464D01*
X78995959Y-149193035D01*
X79071852Y-149157321D01*
X79250424Y-149157321D01*
X79326316Y-149121607D01*
X79750424Y-149443035D02*
X79683459Y-149407321D01*
X79656674Y-149335892D01*
X79737031Y-148693035D01*
X80045066Y-149371607D02*
X80076316Y-149407321D01*
X80036138Y-149443035D01*
X80004888Y-149407321D01*
X80045066Y-149371607D01*
X80036138Y-149443035D01*
X80455781Y-148943035D02*
X80362031Y-149693035D01*
X80451316Y-148978750D02*
X80527209Y-148943035D01*
X80670066Y-148943035D01*
X80737031Y-148978750D01*
X80768281Y-149014464D01*
X80795066Y-149085892D01*
X80768281Y-149300178D01*
X80723638Y-149371607D01*
X80683459Y-149407321D01*
X80607566Y-149443035D01*
X80464709Y-149443035D01*
X80397745Y-149407321D01*
X81393281Y-149443035D02*
X81487031Y-148693035D01*
X81397745Y-149407321D02*
X81321852Y-149443035D01*
X81178995Y-149443035D01*
X81112031Y-149407321D01*
X81080781Y-149371607D01*
X81053995Y-149300178D01*
X81080781Y-149085892D01*
X81125424Y-149014464D01*
X81165602Y-148978750D01*
X81241495Y-148943035D01*
X81384352Y-148943035D01*
X81451316Y-148978750D01*
X81705781Y-148943035D02*
X81991495Y-148943035D01*
X81750424Y-149443035D02*
X81830781Y-148800178D01*
X81875424Y-148728750D01*
X81951316Y-148693035D01*
X82022745Y-148693035D01*
D10*
X21904761Y-8549523D02*
X23904761Y-7882857D01*
X21904761Y-7216190D01*
X23142857Y-6549523D02*
X23142857Y-5025714D01*
X23714285Y-2930476D02*
X23809523Y-3025714D01*
X23904761Y-3311428D01*
X23904761Y-3501904D01*
X23809523Y-3787619D01*
X23619047Y-3978095D01*
X23428571Y-4073333D01*
X23047619Y-4168571D01*
X22761904Y-4168571D01*
X22380952Y-4073333D01*
X22190476Y-3978095D01*
X22000000Y-3787619D01*
X21904761Y-3501904D01*
X21904761Y-3311428D01*
X22000000Y-3025714D01*
X22095238Y-2930476D01*
X21904761Y-2073333D02*
X23523809Y-2073333D01*
X23714285Y-1978095D01*
X23809523Y-1882857D01*
X23904761Y-1692380D01*
X23904761Y-1311428D01*
X23809523Y-1120952D01*
X23714285Y-1025714D01*
X23523809Y-930476D01*
X21904761Y-930476D01*
X21904761Y-263809D02*
X21904761Y879047D01*
X23904761Y307619D02*
X21904761Y307619D01*
X102450476Y-80904761D02*
X103117142Y-82904761D01*
X103783809Y-80904761D01*
X104450476Y-82142857D02*
X105974285Y-82142857D01*
X108069523Y-82714285D02*
X107974285Y-82809523D01*
X107688571Y-82904761D01*
X107498095Y-82904761D01*
X107212380Y-82809523D01*
X107021904Y-82619047D01*
X106926666Y-82428571D01*
X106831428Y-82047619D01*
X106831428Y-81761904D01*
X106926666Y-81380952D01*
X107021904Y-81190476D01*
X107212380Y-81000000D01*
X107498095Y-80904761D01*
X107688571Y-80904761D01*
X107974285Y-81000000D01*
X108069523Y-81095238D01*
X108926666Y-80904761D02*
X108926666Y-82523809D01*
X109021904Y-82714285D01*
X109117142Y-82809523D01*
X109307619Y-82904761D01*
X109688571Y-82904761D01*
X109879047Y-82809523D01*
X109974285Y-82714285D01*
X110069523Y-82523809D01*
X110069523Y-80904761D01*
X110736190Y-80904761D02*
X111879047Y-80904761D01*
X111307619Y-82904761D02*
X111307619Y-80904761D01*
X102450476Y-136904761D02*
X103117142Y-138904761D01*
X103783809Y-136904761D01*
X104450476Y-138142857D02*
X105974285Y-138142857D01*
X108069523Y-138714285D02*
X107974285Y-138809523D01*
X107688571Y-138904761D01*
X107498095Y-138904761D01*
X107212380Y-138809523D01*
X107021904Y-138619047D01*
X106926666Y-138428571D01*
X106831428Y-138047619D01*
X106831428Y-137761904D01*
X106926666Y-137380952D01*
X107021904Y-137190476D01*
X107212380Y-137000000D01*
X107498095Y-136904761D01*
X107688571Y-136904761D01*
X107974285Y-137000000D01*
X108069523Y-137095238D01*
X108926666Y-136904761D02*
X108926666Y-138523809D01*
X109021904Y-138714285D01*
X109117142Y-138809523D01*
X109307619Y-138904761D01*
X109688571Y-138904761D01*
X109879047Y-138809523D01*
X109974285Y-138714285D01*
X110069523Y-138523809D01*
X110069523Y-136904761D01*
X110736190Y-136904761D02*
X111879047Y-136904761D01*
X111307619Y-138904761D02*
X111307619Y-136904761D01*
D12*
X58201300Y-78294600D02*
X58328300Y-78040600D01*
X70199998Y-59536548D02*
X70453998Y-59663548D01*
X67345300Y-63105400D02*
X57820300Y-63105400D01*
X67345300Y-63105400D02*
X67345300Y-50900548D01*
X76199999Y-75443448D02*
X76199999Y-59155548D01*
X56804300Y-63359400D02*
X57058300Y-63359400D01*
X56931300Y-69693449D02*
X56804300Y-69439449D01*
X79054700Y-51281548D02*
X78800700Y-51154548D01*
X67345300Y-51281548D02*
X67599300Y-51408548D01*
X58074300Y-63359400D02*
X58328300Y-63359400D01*
X67345300Y-51281548D02*
X79054700Y-51281548D01*
X67345300Y-63105400D02*
X56550300Y-63105400D01*
X58074300Y-78040600D02*
X58328300Y-78040600D01*
X70453998Y-59409548D02*
X70453998Y-59663548D01*
X79054700Y-63105400D02*
X79054700Y-50900548D01*
X70199998Y-75443448D02*
X70199998Y-59155548D01*
X79054700Y-51281548D02*
X78800700Y-51408548D01*
X67345300Y-78294600D02*
X57820300Y-78294600D01*
X76199999Y-59536548D02*
X75945999Y-59409548D01*
X56931300Y-63105400D02*
X56931300Y-69693449D01*
X70199998Y-59536548D02*
X76199999Y-59536548D01*
X78800700Y-51154548D02*
X78800700Y-51408548D01*
X58201300Y-63105400D02*
X58074300Y-63359400D01*
X67599300Y-51154548D02*
X67599300Y-51408548D01*
X75945999Y-59409548D02*
X75945999Y-59663548D01*
X58201300Y-63105400D02*
X58328300Y-63359400D01*
X76199999Y-59536548D02*
X75945999Y-59663548D01*
X58201300Y-78294600D02*
X58074300Y-78040600D01*
X56931300Y-63105400D02*
X57058300Y-63359400D01*
X56931300Y-69693449D02*
X57058300Y-69439449D01*
X56931300Y-63105400D02*
X56804300Y-63359400D01*
X70199998Y-59536548D02*
X70453998Y-59409548D01*
X67345300Y-51281548D02*
X67599300Y-51154548D01*
X56804300Y-69439449D02*
X57058300Y-69439449D01*
X73200000Y-69693449D02*
X56550300Y-69693449D01*
X58201300Y-63105400D02*
X58201300Y-78294600D01*
X72105400Y-126798700D02*
X72359400Y-126925700D01*
X60154548Y-106199300D02*
X60408548Y-106199300D01*
X60281548Y-105945300D02*
X60154548Y-106199300D01*
X72105400Y-117654700D02*
X59900548Y-117654700D01*
X68409548Y-114546002D02*
X68663548Y-114546002D01*
X72105400Y-126798700D02*
X72359400Y-126671700D01*
X87294600Y-126798700D02*
X87040600Y-126671700D01*
X72105400Y-117654700D02*
X72105400Y-128449700D01*
X72105400Y-105945300D02*
X59900548Y-105945300D01*
X60281548Y-117654700D02*
X60154548Y-117400700D01*
X68536548Y-114800002D02*
X68663548Y-114546002D01*
X72105400Y-128068700D02*
X78693449Y-128068700D01*
X60154548Y-117400700D02*
X60408548Y-117400700D01*
X72359400Y-126925700D02*
X72359400Y-126671700D01*
X78693449Y-111800000D02*
X78693449Y-128449700D01*
X68536548Y-108800001D02*
X68663548Y-109054001D01*
X68409548Y-109054001D02*
X68663548Y-109054001D01*
X72105400Y-126798700D02*
X87294600Y-126798700D01*
X60281548Y-105945300D02*
X60408548Y-106199300D01*
X68536548Y-108800001D02*
X68409548Y-109054001D01*
X72359400Y-128195700D02*
X72359400Y-127941700D01*
X60281548Y-117654700D02*
X60281548Y-105945300D01*
X72105400Y-128068700D02*
X72359400Y-128195700D01*
X87294600Y-126798700D02*
X87040600Y-126925700D01*
X78693449Y-128068700D02*
X78439449Y-127941700D01*
X68536548Y-114800002D02*
X68409548Y-114546002D01*
X72105400Y-128068700D02*
X72359400Y-127941700D01*
X78439449Y-128195700D02*
X78439449Y-127941700D01*
X84443448Y-114800002D02*
X68155548Y-114800002D01*
X87294600Y-117654700D02*
X87294600Y-127179700D01*
X87040600Y-126925700D02*
X87040600Y-126671700D01*
X60281548Y-117654700D02*
X60408548Y-117400700D01*
X84443448Y-108800001D02*
X68155548Y-108800001D01*
X68536548Y-114800002D02*
X68536548Y-108800001D01*
X72105400Y-117654700D02*
X72105400Y-127179700D01*
X78693449Y-128068700D02*
X78439449Y-128195700D01*
X78439449Y-112645700D02*
X78439449Y-112391700D01*
X72359400Y-111375700D02*
X72359400Y-111121700D01*
X72105400Y-102104700D02*
X72105400Y-112899700D01*
X60154548Y-90649300D02*
X60408548Y-90649300D01*
X78693449Y-112518700D02*
X78439449Y-112391700D01*
X72105400Y-102104700D02*
X72105400Y-111629700D01*
X72105400Y-112518700D02*
X78693449Y-112518700D01*
X68409548Y-93504001D02*
X68663548Y-93504001D01*
X68409548Y-98996002D02*
X68663548Y-98996002D01*
X72105400Y-112518700D02*
X72359400Y-112645700D01*
X87294600Y-111248700D02*
X87040600Y-111121700D01*
X72105400Y-111248700D02*
X87294600Y-111248700D01*
X68536548Y-93250001D02*
X68409548Y-93504001D01*
X87294600Y-111248700D02*
X87040600Y-111375700D01*
X72105400Y-90395300D02*
X59900548Y-90395300D01*
X72105400Y-111248700D02*
X72359400Y-111121700D01*
X72105400Y-112518700D02*
X72359400Y-112391700D01*
X78693449Y-96250000D02*
X78693449Y-112899700D01*
X60281548Y-90395300D02*
X60154548Y-90649300D01*
X84443448Y-93250001D02*
X68155548Y-93250001D01*
X72105400Y-111248700D02*
X72359400Y-111375700D01*
X84443448Y-99250002D02*
X68155548Y-99250002D01*
X60281548Y-102104700D02*
X60408548Y-101850700D01*
X68536548Y-99250002D02*
X68536548Y-93250001D01*
X72359400Y-112645700D02*
X72359400Y-112391700D01*
X87294600Y-102104700D02*
X87294600Y-111629700D01*
X60154548Y-101850700D02*
X60408548Y-101850700D01*
X68536548Y-93250001D02*
X68663548Y-93504001D01*
X87040600Y-111375700D02*
X87040600Y-111121700D01*
X68536548Y-99250002D02*
X68663548Y-98996002D01*
X72105400Y-102104700D02*
X59900548Y-102104700D01*
X60281548Y-90395300D02*
X60408548Y-90649300D01*
X60281548Y-102104700D02*
X60154548Y-101850700D01*
X78693449Y-112518700D02*
X78439449Y-112645700D01*
X68536548Y-99250002D02*
X68409548Y-98996002D01*
X60281548Y-102104700D02*
X60281548Y-90395300D01*
X32945300Y-122055400D02*
X32945300Y-109850548D01*
X32945300Y-122055400D02*
X22150300Y-122055400D01*
X22531300Y-128643449D02*
X22404300Y-128389449D01*
X32945300Y-122055400D02*
X23420300Y-122055400D01*
X32945300Y-110231548D02*
X33199300Y-110358548D01*
X35799998Y-134393448D02*
X35799998Y-118105548D01*
X35799998Y-118486548D02*
X36053998Y-118613548D01*
X22404300Y-128389449D02*
X22658300Y-128389449D01*
X22531300Y-122055400D02*
X22531300Y-128643449D01*
X32945300Y-110231548D02*
X33199300Y-110104548D01*
X41799999Y-118486548D02*
X41545999Y-118359548D01*
X23801300Y-122055400D02*
X23801300Y-137244600D01*
X22404300Y-122309400D02*
X22658300Y-122309400D01*
X44654700Y-110231548D02*
X44400700Y-110358548D01*
X23801300Y-137244600D02*
X23928300Y-136990600D01*
X23801300Y-122055400D02*
X23928300Y-122309400D01*
X38800000Y-128643449D02*
X22150300Y-128643449D01*
X23674300Y-122309400D02*
X23928300Y-122309400D01*
X44400700Y-110104548D02*
X44400700Y-110358548D01*
X22531300Y-128643449D02*
X22658300Y-128389449D01*
X33199300Y-110104548D02*
X33199300Y-110358548D01*
X23674300Y-136990600D02*
X23928300Y-136990600D01*
X36053998Y-118359548D02*
X36053998Y-118613548D01*
X23801300Y-122055400D02*
X23674300Y-122309400D01*
X44654700Y-110231548D02*
X44400700Y-110104548D01*
X32945300Y-137244600D02*
X23420300Y-137244600D01*
X41799999Y-134393448D02*
X41799999Y-118105548D01*
X35799998Y-118486548D02*
X41799999Y-118486548D01*
X32945300Y-110231548D02*
X44654700Y-110231548D01*
X22531300Y-122055400D02*
X22658300Y-122309400D01*
X41799999Y-118486548D02*
X41545999Y-118613548D01*
X44654700Y-122055400D02*
X44654700Y-109850548D01*
X41545999Y-118359548D02*
X41545999Y-118613548D01*
X35799998Y-118486548D02*
X36053998Y-118359548D01*
X23801300Y-137244600D02*
X23674300Y-136990600D01*
X22531300Y-122055400D02*
X22404300Y-122309400D01*
X58201300Y-137294600D02*
X58074300Y-137040600D01*
X56931300Y-128693449D02*
X56804300Y-128439449D01*
X67345300Y-122105400D02*
X67345300Y-109900548D01*
X76199999Y-134443448D02*
X76199999Y-118155548D01*
X58074300Y-122359400D02*
X58328300Y-122359400D01*
X73200000Y-128693449D02*
X56550300Y-128693449D01*
X76199999Y-118536548D02*
X75945999Y-118663548D01*
X79054700Y-122105400D02*
X79054700Y-109900548D01*
X56804300Y-128439449D02*
X57058300Y-128439449D01*
X56931300Y-122105400D02*
X56804300Y-122359400D01*
X67599300Y-110154548D02*
X67599300Y-110408548D01*
X67345300Y-122105400D02*
X57820300Y-122105400D01*
X67345300Y-110281548D02*
X67599300Y-110408548D01*
X67345300Y-137294600D02*
X57820300Y-137294600D01*
X58201300Y-122105400D02*
X58201300Y-137294600D01*
X56931300Y-128693449D02*
X57058300Y-128439449D01*
X56931300Y-122105400D02*
X57058300Y-122359400D01*
X56804300Y-122359400D02*
X57058300Y-122359400D01*
X79054700Y-110281548D02*
X78800700Y-110408548D01*
X75945999Y-118409548D02*
X75945999Y-118663548D01*
X70199998Y-134443448D02*
X70199998Y-118155548D01*
X58201300Y-122105400D02*
X58074300Y-122359400D01*
X67345300Y-110281548D02*
X79054700Y-110281548D01*
X70199998Y-118536548D02*
X70453998Y-118409548D01*
X78800700Y-110154548D02*
X78800700Y-110408548D01*
X67345300Y-122105400D02*
X56550300Y-122105400D01*
X58201300Y-122105400D02*
X58328300Y-122359400D01*
X70199998Y-118536548D02*
X76199999Y-118536548D01*
X67345300Y-110281548D02*
X67599300Y-110154548D01*
X76199999Y-118536548D02*
X75945999Y-118409548D01*
X70199998Y-118536548D02*
X70453998Y-118663548D01*
X70453998Y-118409548D02*
X70453998Y-118663548D01*
X56931300Y-122105400D02*
X56931300Y-128693449D01*
X58201300Y-137294600D02*
X58328300Y-137040600D01*
X58074300Y-137040600D02*
X58328300Y-137040600D01*
X79054700Y-110281548D02*
X78800700Y-110154548D01*
X37856300Y-122055400D02*
X37983300Y-122309400D01*
X38999300Y-122309400D02*
X39253300Y-122309400D01*
X37856300Y-128643449D02*
X37983300Y-128389449D01*
X39126300Y-137244600D02*
X38999300Y-136990600D01*
X48270300Y-110231548D02*
X48524300Y-110358548D01*
X59979700Y-110231548D02*
X59725700Y-110104548D01*
X39126300Y-122055400D02*
X39126300Y-137244600D01*
X51124998Y-118486548D02*
X51378998Y-118613548D01*
X48270300Y-122055400D02*
X37475300Y-122055400D01*
X48270300Y-110231548D02*
X48524300Y-110104548D01*
X39126300Y-122055400D02*
X38999300Y-122309400D01*
X56870999Y-118359548D02*
X56870999Y-118613548D01*
X39126300Y-137244600D02*
X39253300Y-136990600D01*
X48270300Y-110231548D02*
X59979700Y-110231548D01*
X37856300Y-122055400D02*
X37729300Y-122309400D01*
X59979700Y-110231548D02*
X59725700Y-110358548D01*
X54125000Y-128643449D02*
X37475300Y-128643449D01*
X59979700Y-122055400D02*
X59979700Y-109850548D01*
X48270300Y-122055400D02*
X48270300Y-109850548D01*
X48524300Y-110104548D02*
X48524300Y-110358548D01*
X37729300Y-122309400D02*
X37983300Y-122309400D01*
X48270300Y-122055400D02*
X38745300Y-122055400D01*
X51124998Y-134393448D02*
X51124998Y-118105548D01*
X51378998Y-118359548D02*
X51378998Y-118613548D01*
X57124999Y-118486548D02*
X56870999Y-118359548D01*
X51124998Y-118486548D02*
X51378998Y-118359548D01*
X57124999Y-134393448D02*
X57124999Y-118105548D01*
X39126300Y-122055400D02*
X39253300Y-122309400D01*
X38999300Y-136990600D02*
X39253300Y-136990600D01*
X51124998Y-118486548D02*
X57124999Y-118486548D01*
X57124999Y-118486548D02*
X56870999Y-118613548D01*
X37729300Y-128389449D02*
X37983300Y-128389449D01*
X37856300Y-128643449D02*
X37729300Y-128389449D01*
X37856300Y-122055400D02*
X37856300Y-128643449D01*
X59725700Y-110104548D02*
X59725700Y-110358548D01*
X48270300Y-137244600D02*
X38745300Y-137244600D01*
X22531300Y-63055400D02*
X22404300Y-63309400D01*
X22404300Y-69389449D02*
X22658300Y-69389449D01*
X23674300Y-77990600D02*
X23928300Y-77990600D01*
X23801300Y-63055400D02*
X23674300Y-63309400D01*
X44400700Y-51104548D02*
X44400700Y-51358548D01*
X44654700Y-51231548D02*
X44400700Y-51358548D01*
X22531300Y-63055400D02*
X22658300Y-63309400D01*
X35799998Y-75393448D02*
X35799998Y-59105548D01*
X23801300Y-63055400D02*
X23801300Y-78244600D01*
X41799999Y-59486548D02*
X41545999Y-59359548D01*
X35799998Y-59486548D02*
X41799999Y-59486548D01*
X41545999Y-59359548D02*
X41545999Y-59613548D01*
X44654700Y-51231548D02*
X44400700Y-51104548D01*
X32945300Y-63055400D02*
X23420300Y-63055400D01*
X35799998Y-59486548D02*
X36053998Y-59613548D01*
X23801300Y-78244600D02*
X23928300Y-77990600D01*
X23674300Y-63309400D02*
X23928300Y-63309400D01*
X32945300Y-51231548D02*
X33199300Y-51104548D01*
X22404300Y-63309400D02*
X22658300Y-63309400D01*
X32945300Y-63055400D02*
X32945300Y-50850548D01*
X38800000Y-69643449D02*
X22150300Y-69643449D01*
X32945300Y-63055400D02*
X22150300Y-63055400D01*
X32945300Y-51231548D02*
X44654700Y-51231548D01*
X41799999Y-75393448D02*
X41799999Y-59105548D01*
X44654700Y-63055400D02*
X44654700Y-50850548D01*
X33199300Y-51104548D02*
X33199300Y-51358548D01*
X22531300Y-63055400D02*
X22531300Y-69643449D01*
X23801300Y-63055400D02*
X23928300Y-63309400D01*
X22531300Y-69643449D02*
X22404300Y-69389449D01*
X23801300Y-78244600D02*
X23674300Y-77990600D01*
X36053998Y-59359548D02*
X36053998Y-59613548D01*
X32945300Y-78244600D02*
X23420300Y-78244600D01*
X22531300Y-69643449D02*
X22658300Y-69389449D01*
X32945300Y-51231548D02*
X33199300Y-51358548D01*
X35799998Y-59486548D02*
X36053998Y-59359548D01*
X41799999Y-59486548D02*
X41545999Y-59613548D01*
X60281548Y-46945300D02*
X60408548Y-47199300D01*
X60281548Y-46945300D02*
X60154548Y-47199300D01*
X60281548Y-58654700D02*
X60281548Y-46945300D01*
X72359400Y-69195700D02*
X72359400Y-68941700D01*
X68536548Y-55800002D02*
X68409548Y-55546002D01*
X72105400Y-58654700D02*
X72105400Y-68179700D01*
X68536548Y-49800001D02*
X68663548Y-50054001D01*
X72105400Y-58654700D02*
X72105400Y-69449700D01*
X87040600Y-67925700D02*
X87040600Y-67671700D01*
X72359400Y-67925700D02*
X72359400Y-67671700D01*
X60281548Y-58654700D02*
X60154548Y-58400700D01*
X68536548Y-49800001D02*
X68409548Y-50054001D01*
X72105400Y-46945300D02*
X59900548Y-46945300D01*
X87294600Y-67798700D02*
X87040600Y-67925700D01*
X68409548Y-55546002D02*
X68663548Y-55546002D01*
X84443448Y-55800002D02*
X68155548Y-55800002D01*
X78693449Y-69068700D02*
X78439449Y-69195700D01*
X72105400Y-69068700D02*
X72359400Y-69195700D01*
X72105400Y-58654700D02*
X59900548Y-58654700D01*
X78693449Y-52800000D02*
X78693449Y-69449700D01*
X87294600Y-67798700D02*
X87040600Y-67671700D01*
X72105400Y-69068700D02*
X78693449Y-69068700D01*
X60154548Y-58400700D02*
X60408548Y-58400700D01*
X84443448Y-49800001D02*
X68155548Y-49800001D01*
X72105400Y-67798700D02*
X87294600Y-67798700D01*
X72105400Y-67798700D02*
X72359400Y-67925700D01*
X78693449Y-69068700D02*
X78439449Y-68941700D01*
X72105400Y-67798700D02*
X72359400Y-67671700D01*
X78439449Y-69195700D02*
X78439449Y-68941700D01*
X60281548Y-58654700D02*
X60408548Y-58400700D01*
X87294600Y-58654700D02*
X87294600Y-68179700D01*
X60154548Y-47199300D02*
X60408548Y-47199300D01*
X68536548Y-55800002D02*
X68663548Y-55546002D01*
X68536548Y-55800002D02*
X68536548Y-49800001D01*
X68409548Y-50054001D02*
X68663548Y-50054001D01*
X72105400Y-69068700D02*
X72359400Y-68941700D01*
X68536548Y-40250002D02*
X68536548Y-34250001D01*
X72105400Y-43104700D02*
X72105400Y-53899700D01*
X60154548Y-42850700D02*
X60408548Y-42850700D01*
X68536548Y-40250002D02*
X68409548Y-39996002D01*
X72105400Y-53518700D02*
X72359400Y-53391700D01*
X60281548Y-31395300D02*
X60408548Y-31649300D01*
X72105400Y-52248700D02*
X72359400Y-52121700D01*
X68409548Y-34504001D02*
X68663548Y-34504001D01*
X60281548Y-31395300D02*
X60154548Y-31649300D01*
X72105400Y-43104700D02*
X59900548Y-43104700D01*
X78693449Y-53518700D02*
X78439449Y-53645700D01*
X72359400Y-52375700D02*
X72359400Y-52121700D01*
X68536548Y-34250001D02*
X68663548Y-34504001D01*
X84443448Y-34250001D02*
X68155548Y-34250001D01*
X72105400Y-52248700D02*
X72359400Y-52375700D01*
X87040600Y-52375700D02*
X87040600Y-52121700D01*
X60281548Y-43104700D02*
X60408548Y-42850700D01*
X60281548Y-43104700D02*
X60154548Y-42850700D01*
X68409548Y-39996002D02*
X68663548Y-39996002D01*
X60154548Y-31649300D02*
X60408548Y-31649300D01*
X87294600Y-52248700D02*
X87040600Y-52121700D01*
X68536548Y-34250001D02*
X68409548Y-34504001D01*
X78693449Y-37250000D02*
X78693449Y-53899700D01*
X87294600Y-43104700D02*
X87294600Y-52629700D01*
X68536548Y-40250002D02*
X68663548Y-39996002D01*
X78439449Y-53645700D02*
X78439449Y-53391700D01*
X87294600Y-52248700D02*
X87040600Y-52375700D01*
X72105400Y-43104700D02*
X72105400Y-52629700D01*
X72105400Y-31395300D02*
X59900548Y-31395300D01*
X72105400Y-53518700D02*
X72359400Y-53645700D01*
X72359400Y-53645700D02*
X72359400Y-53391700D01*
X72105400Y-52248700D02*
X87294600Y-52248700D01*
X60281548Y-43104700D02*
X60281548Y-31395300D01*
X72105400Y-53518700D02*
X78693449Y-53518700D01*
X84443448Y-40250002D02*
X68155548Y-40250002D01*
X78693449Y-53518700D02*
X78439449Y-53391700D01*
X39126300Y-63055400D02*
X38999300Y-63309400D01*
X56870999Y-59359548D02*
X56870999Y-59613548D01*
X39126300Y-78244600D02*
X39253300Y-77990600D01*
X48270300Y-63055400D02*
X37475300Y-63055400D01*
X57124999Y-75393448D02*
X57124999Y-59105548D01*
X51378998Y-59359548D02*
X51378998Y-59613548D01*
X51124998Y-59486548D02*
X51378998Y-59359548D01*
X57124999Y-59486548D02*
X56870999Y-59359548D01*
X37856300Y-69643449D02*
X37983300Y-69389449D01*
X59725700Y-51104548D02*
X59725700Y-51358548D01*
X48270300Y-51231548D02*
X59979700Y-51231548D01*
X54125000Y-69643449D02*
X37475300Y-69643449D01*
X38999300Y-77990600D02*
X39253300Y-77990600D01*
X39126300Y-63055400D02*
X39253300Y-63309400D01*
X37729300Y-63309400D02*
X37983300Y-63309400D01*
X51124998Y-59486548D02*
X51378998Y-59613548D01*
X48524300Y-51104548D02*
X48524300Y-51358548D01*
X37856300Y-69643449D02*
X37729300Y-69389449D01*
X48270300Y-63055400D02*
X38745300Y-63055400D01*
X57124999Y-59486548D02*
X56870999Y-59613548D01*
X48270300Y-51231548D02*
X48524300Y-51358548D01*
X37856300Y-63055400D02*
X37856300Y-69643449D01*
X59979700Y-51231548D02*
X59725700Y-51358548D01*
X51124998Y-75393448D02*
X51124998Y-59105548D01*
X38999300Y-63309400D02*
X39253300Y-63309400D01*
X48270300Y-63055400D02*
X48270300Y-50850548D01*
X59979700Y-51231548D02*
X59725700Y-51104548D01*
X59979700Y-63055400D02*
X59979700Y-50850548D01*
X48270300Y-51231548D02*
X48524300Y-51104548D01*
X39126300Y-78244600D02*
X38999300Y-77990600D01*
X51124998Y-59486548D02*
X57124999Y-59486548D01*
X39126300Y-63055400D02*
X39126300Y-78244600D01*
X48270300Y-78244600D02*
X38745300Y-78244600D01*
X37856300Y-63055400D02*
X37983300Y-63309400D01*
X37856300Y-63055400D02*
X37729300Y-63309400D01*
X37729300Y-69389449D02*
X37983300Y-69389449D01*
M02*
