G04 #@! TF.GenerationSoftware,KiCad,Pcbnew,6.0.7+dfsg-1+b1*
G04 #@! TF.CreationDate,2022-09-08T22:48:16+01:00*
G04 #@! TF.ProjectId,panel,70616e65-6c2e-46b6-9963-61645f706362,rev?*
G04 #@! TF.SameCoordinates,Original*
G04 #@! TF.FileFunction,Legend,Bot*
G04 #@! TF.FilePolarity,Positive*
%FSLAX46Y46*%
G04 Gerber Fmt 4.6, Leading zero omitted, Abs format (unit mm)*
G04 Created by KiCad (PCBNEW 6.0.7+dfsg-1+b1) date 2022-09-08 22:48:16*
%MOMM*%
%LPD*%
G01*
G04 APERTURE LIST*
%ADD10C,0.400000*%
%ADD11C,0.120000*%
%ADD12C,0.150000*%
%ADD13C,0.200000*%
G04 APERTURE END LIST*
D10*
X77152380Y-78378571D02*
X75247619Y-78378571D01*
X77152380Y-137378571D02*
X75247619Y-137378571D01*
D11*
X83828035Y-63356571D02*
X83078035Y-63356571D01*
X83613750Y-63606571D01*
X83078035Y-63856571D01*
X83828035Y-63856571D01*
X83613750Y-64178000D02*
X83613750Y-64535142D01*
X83828035Y-64106571D02*
X83078035Y-64356571D01*
X83828035Y-64606571D01*
X83078035Y-64785142D02*
X83828035Y-65285142D01*
X83078035Y-65285142D02*
X83828035Y-64785142D01*
X83542321Y-66142285D02*
X83542321Y-66713714D01*
X83828035Y-66428000D02*
X83256607Y-66428000D01*
X83149464Y-67035142D02*
X83113750Y-67070857D01*
X83078035Y-67142285D01*
X83078035Y-67320857D01*
X83113750Y-67392285D01*
X83149464Y-67428000D01*
X83220892Y-67463714D01*
X83292321Y-67463714D01*
X83399464Y-67428000D01*
X83828035Y-66999428D01*
X83828035Y-67463714D01*
X83078035Y-68106571D02*
X83078035Y-67963714D01*
X83113750Y-67892285D01*
X83149464Y-67856571D01*
X83256607Y-67785142D01*
X83399464Y-67749428D01*
X83685178Y-67749428D01*
X83756607Y-67785142D01*
X83792321Y-67820857D01*
X83828035Y-67892285D01*
X83828035Y-68035142D01*
X83792321Y-68106571D01*
X83756607Y-68142285D01*
X83685178Y-68178000D01*
X83506607Y-68178000D01*
X83435178Y-68142285D01*
X83399464Y-68106571D01*
X83363750Y-68035142D01*
X83363750Y-67892285D01*
X83399464Y-67820857D01*
X83435178Y-67785142D01*
X83506607Y-67749428D01*
X83078035Y-68392285D02*
X83828035Y-68642285D01*
X83078035Y-68892285D01*
X83078035Y-69642285D02*
X83078035Y-70142285D01*
X83828035Y-69820857D01*
X83613750Y-70392285D02*
X83613750Y-70749428D01*
X83828035Y-70320857D02*
X83078035Y-70570857D01*
X83828035Y-70820857D01*
X84356964Y-63320857D02*
X84321250Y-63356571D01*
X84285535Y-63428000D01*
X84285535Y-63606571D01*
X84321250Y-63678000D01*
X84356964Y-63713714D01*
X84428392Y-63749428D01*
X84499821Y-63749428D01*
X84606964Y-63713714D01*
X85035535Y-63285142D01*
X85035535Y-63749428D01*
X84821250Y-64035142D02*
X84821250Y-64392285D01*
X85035535Y-63963714D02*
X84285535Y-64213714D01*
X85035535Y-64463714D01*
X85035535Y-65285142D02*
X84285535Y-65285142D01*
X84285535Y-65570857D01*
X84321250Y-65642285D01*
X84356964Y-65678000D01*
X84428392Y-65713714D01*
X84535535Y-65713714D01*
X84606964Y-65678000D01*
X84642678Y-65642285D01*
X84678392Y-65570857D01*
X84678392Y-65285142D01*
X84642678Y-66035142D02*
X84642678Y-66285142D01*
X85035535Y-66392285D02*
X85035535Y-66035142D01*
X84285535Y-66035142D01*
X84285535Y-66392285D01*
X85035535Y-67142285D02*
X84678392Y-66892285D01*
X85035535Y-66713714D02*
X84285535Y-66713714D01*
X84285535Y-66999428D01*
X84321250Y-67070857D01*
X84356964Y-67106571D01*
X84428392Y-67142285D01*
X84535535Y-67142285D01*
X84606964Y-67106571D01*
X84642678Y-67070857D01*
X84678392Y-66999428D01*
X84678392Y-66713714D01*
X84285535Y-68178000D02*
X84285535Y-68320857D01*
X84321250Y-68392285D01*
X84392678Y-68463714D01*
X84535535Y-68499428D01*
X84785535Y-68499428D01*
X84928392Y-68463714D01*
X84999821Y-68392285D01*
X85035535Y-68320857D01*
X85035535Y-68178000D01*
X84999821Y-68106571D01*
X84928392Y-68035142D01*
X84785535Y-67999428D01*
X84535535Y-67999428D01*
X84392678Y-68035142D01*
X84321250Y-68106571D01*
X84285535Y-68178000D01*
X84285535Y-68820857D02*
X84892678Y-68820857D01*
X84964107Y-68856571D01*
X84999821Y-68892285D01*
X85035535Y-68963714D01*
X85035535Y-69106571D01*
X84999821Y-69178000D01*
X84964107Y-69213714D01*
X84892678Y-69249428D01*
X84285535Y-69249428D01*
X84285535Y-69499428D02*
X84285535Y-69928000D01*
X85035535Y-69713714D02*
X84285535Y-69713714D01*
X85035535Y-70178000D02*
X84285535Y-70178000D01*
X84285535Y-70463714D01*
X84321250Y-70535142D01*
X84356964Y-70570857D01*
X84428392Y-70606571D01*
X84535535Y-70606571D01*
X84606964Y-70570857D01*
X84642678Y-70535142D01*
X84678392Y-70463714D01*
X84678392Y-70178000D01*
X84285535Y-70928000D02*
X84892678Y-70928000D01*
X84964107Y-70963714D01*
X84999821Y-70999428D01*
X85035535Y-71070857D01*
X85035535Y-71213714D01*
X84999821Y-71285142D01*
X84964107Y-71320857D01*
X84892678Y-71356571D01*
X84285535Y-71356571D01*
X84285535Y-71606571D02*
X84285535Y-72035142D01*
X85035535Y-71820857D02*
X84285535Y-71820857D01*
X87414821Y-63320857D02*
X87450535Y-63428000D01*
X87450535Y-63606571D01*
X87414821Y-63678000D01*
X87379107Y-63713714D01*
X87307678Y-63749428D01*
X87236250Y-63749428D01*
X87164821Y-63713714D01*
X87129107Y-63678000D01*
X87093392Y-63606571D01*
X87057678Y-63463714D01*
X87021964Y-63392285D01*
X86986250Y-63356571D01*
X86914821Y-63320857D01*
X86843392Y-63320857D01*
X86771964Y-63356571D01*
X86736250Y-63392285D01*
X86700535Y-63463714D01*
X86700535Y-63642285D01*
X86736250Y-63749428D01*
X86700535Y-63999428D02*
X87450535Y-64178000D01*
X86914821Y-64320857D01*
X87450535Y-64463714D01*
X86700535Y-64642285D01*
X87450535Y-64928000D02*
X86700535Y-64928000D01*
X86700535Y-65178000D02*
X86700535Y-65606571D01*
X87450535Y-65392285D02*
X86700535Y-65392285D01*
X87379107Y-66285142D02*
X87414821Y-66249428D01*
X87450535Y-66142285D01*
X87450535Y-66070857D01*
X87414821Y-65963714D01*
X87343392Y-65892285D01*
X87271964Y-65856571D01*
X87129107Y-65820857D01*
X87021964Y-65820857D01*
X86879107Y-65856571D01*
X86807678Y-65892285D01*
X86736250Y-65963714D01*
X86700535Y-66070857D01*
X86700535Y-66142285D01*
X86736250Y-66249428D01*
X86771964Y-66285142D01*
X87450535Y-66606571D02*
X86700535Y-66606571D01*
X87057678Y-66606571D02*
X87057678Y-67035142D01*
X87450535Y-67035142D02*
X86700535Y-67035142D01*
X87057678Y-67392285D02*
X87057678Y-67642285D01*
X87450535Y-67749428D02*
X87450535Y-67392285D01*
X86700535Y-67392285D01*
X86700535Y-67749428D01*
X87450535Y-68070857D02*
X86700535Y-68070857D01*
X86700535Y-68249428D01*
X86736250Y-68356571D01*
X86807678Y-68428000D01*
X86879107Y-68463714D01*
X87021964Y-68499428D01*
X87129107Y-68499428D01*
X87271964Y-68463714D01*
X87343392Y-68428000D01*
X87414821Y-68356571D01*
X87450535Y-68249428D01*
X87450535Y-68070857D01*
X87164821Y-69392285D02*
X87164821Y-69963714D01*
X87450535Y-69678000D02*
X86879107Y-69678000D01*
X86700535Y-70213714D02*
X87450535Y-70463714D01*
X86700535Y-70713714D01*
X87057678Y-70963714D02*
X87057678Y-71213714D01*
X87450535Y-71320857D02*
X87450535Y-70963714D01*
X86700535Y-70963714D01*
X86700535Y-71320857D01*
X83828035Y-122356571D02*
X83078035Y-122356571D01*
X83613750Y-122606571D01*
X83078035Y-122856571D01*
X83828035Y-122856571D01*
X83613750Y-123178000D02*
X83613750Y-123535142D01*
X83828035Y-123106571D02*
X83078035Y-123356571D01*
X83828035Y-123606571D01*
X83078035Y-123785142D02*
X83828035Y-124285142D01*
X83078035Y-124285142D02*
X83828035Y-123785142D01*
X83542321Y-125142285D02*
X83542321Y-125713714D01*
X83828035Y-125428000D02*
X83256607Y-125428000D01*
X83149464Y-126035142D02*
X83113750Y-126070857D01*
X83078035Y-126142285D01*
X83078035Y-126320857D01*
X83113750Y-126392285D01*
X83149464Y-126428000D01*
X83220892Y-126463714D01*
X83292321Y-126463714D01*
X83399464Y-126428000D01*
X83828035Y-125999428D01*
X83828035Y-126463714D01*
X83078035Y-127106571D02*
X83078035Y-126963714D01*
X83113750Y-126892285D01*
X83149464Y-126856571D01*
X83256607Y-126785142D01*
X83399464Y-126749428D01*
X83685178Y-126749428D01*
X83756607Y-126785142D01*
X83792321Y-126820857D01*
X83828035Y-126892285D01*
X83828035Y-127035142D01*
X83792321Y-127106571D01*
X83756607Y-127142285D01*
X83685178Y-127178000D01*
X83506607Y-127178000D01*
X83435178Y-127142285D01*
X83399464Y-127106571D01*
X83363750Y-127035142D01*
X83363750Y-126892285D01*
X83399464Y-126820857D01*
X83435178Y-126785142D01*
X83506607Y-126749428D01*
X83078035Y-127392285D02*
X83828035Y-127642285D01*
X83078035Y-127892285D01*
X83078035Y-128642285D02*
X83078035Y-129142285D01*
X83828035Y-128820857D01*
X83613750Y-129392285D02*
X83613750Y-129749428D01*
X83828035Y-129320857D02*
X83078035Y-129570857D01*
X83828035Y-129820857D01*
X84356964Y-122320857D02*
X84321250Y-122356571D01*
X84285535Y-122428000D01*
X84285535Y-122606571D01*
X84321250Y-122678000D01*
X84356964Y-122713714D01*
X84428392Y-122749428D01*
X84499821Y-122749428D01*
X84606964Y-122713714D01*
X85035535Y-122285142D01*
X85035535Y-122749428D01*
X84821250Y-123035142D02*
X84821250Y-123392285D01*
X85035535Y-122963714D02*
X84285535Y-123213714D01*
X85035535Y-123463714D01*
X85035535Y-124285142D02*
X84285535Y-124285142D01*
X84285535Y-124570857D01*
X84321250Y-124642285D01*
X84356964Y-124678000D01*
X84428392Y-124713714D01*
X84535535Y-124713714D01*
X84606964Y-124678000D01*
X84642678Y-124642285D01*
X84678392Y-124570857D01*
X84678392Y-124285142D01*
X84642678Y-125035142D02*
X84642678Y-125285142D01*
X85035535Y-125392285D02*
X85035535Y-125035142D01*
X84285535Y-125035142D01*
X84285535Y-125392285D01*
X85035535Y-126142285D02*
X84678392Y-125892285D01*
X85035535Y-125713714D02*
X84285535Y-125713714D01*
X84285535Y-125999428D01*
X84321250Y-126070857D01*
X84356964Y-126106571D01*
X84428392Y-126142285D01*
X84535535Y-126142285D01*
X84606964Y-126106571D01*
X84642678Y-126070857D01*
X84678392Y-125999428D01*
X84678392Y-125713714D01*
X84285535Y-127178000D02*
X84285535Y-127320857D01*
X84321250Y-127392285D01*
X84392678Y-127463714D01*
X84535535Y-127499428D01*
X84785535Y-127499428D01*
X84928392Y-127463714D01*
X84999821Y-127392285D01*
X85035535Y-127320857D01*
X85035535Y-127178000D01*
X84999821Y-127106571D01*
X84928392Y-127035142D01*
X84785535Y-126999428D01*
X84535535Y-126999428D01*
X84392678Y-127035142D01*
X84321250Y-127106571D01*
X84285535Y-127178000D01*
X84285535Y-127820857D02*
X84892678Y-127820857D01*
X84964107Y-127856571D01*
X84999821Y-127892285D01*
X85035535Y-127963714D01*
X85035535Y-128106571D01*
X84999821Y-128178000D01*
X84964107Y-128213714D01*
X84892678Y-128249428D01*
X84285535Y-128249428D01*
X84285535Y-128499428D02*
X84285535Y-128928000D01*
X85035535Y-128713714D02*
X84285535Y-128713714D01*
X85035535Y-129178000D02*
X84285535Y-129178000D01*
X84285535Y-129463714D01*
X84321250Y-129535142D01*
X84356964Y-129570857D01*
X84428392Y-129606571D01*
X84535535Y-129606571D01*
X84606964Y-129570857D01*
X84642678Y-129535142D01*
X84678392Y-129463714D01*
X84678392Y-129178000D01*
X84285535Y-129928000D02*
X84892678Y-129928000D01*
X84964107Y-129963714D01*
X84999821Y-129999428D01*
X85035535Y-130070857D01*
X85035535Y-130213714D01*
X84999821Y-130285142D01*
X84964107Y-130320857D01*
X84892678Y-130356571D01*
X84285535Y-130356571D01*
X84285535Y-130606571D02*
X84285535Y-131035142D01*
X85035535Y-130820857D02*
X84285535Y-130820857D01*
X87414821Y-122320857D02*
X87450535Y-122428000D01*
X87450535Y-122606571D01*
X87414821Y-122678000D01*
X87379107Y-122713714D01*
X87307678Y-122749428D01*
X87236250Y-122749428D01*
X87164821Y-122713714D01*
X87129107Y-122678000D01*
X87093392Y-122606571D01*
X87057678Y-122463714D01*
X87021964Y-122392285D01*
X86986250Y-122356571D01*
X86914821Y-122320857D01*
X86843392Y-122320857D01*
X86771964Y-122356571D01*
X86736250Y-122392285D01*
X86700535Y-122463714D01*
X86700535Y-122642285D01*
X86736250Y-122749428D01*
X86700535Y-122999428D02*
X87450535Y-123178000D01*
X86914821Y-123320857D01*
X87450535Y-123463714D01*
X86700535Y-123642285D01*
X87450535Y-123928000D02*
X86700535Y-123928000D01*
X86700535Y-124178000D02*
X86700535Y-124606571D01*
X87450535Y-124392285D02*
X86700535Y-124392285D01*
X87379107Y-125285142D02*
X87414821Y-125249428D01*
X87450535Y-125142285D01*
X87450535Y-125070857D01*
X87414821Y-124963714D01*
X87343392Y-124892285D01*
X87271964Y-124856571D01*
X87129107Y-124820857D01*
X87021964Y-124820857D01*
X86879107Y-124856571D01*
X86807678Y-124892285D01*
X86736250Y-124963714D01*
X86700535Y-125070857D01*
X86700535Y-125142285D01*
X86736250Y-125249428D01*
X86771964Y-125285142D01*
X87450535Y-125606571D02*
X86700535Y-125606571D01*
X87057678Y-125606571D02*
X87057678Y-126035142D01*
X87450535Y-126035142D02*
X86700535Y-126035142D01*
X87057678Y-126392285D02*
X87057678Y-126642285D01*
X87450535Y-126749428D02*
X87450535Y-126392285D01*
X86700535Y-126392285D01*
X86700535Y-126749428D01*
X87450535Y-127070857D02*
X86700535Y-127070857D01*
X86700535Y-127249428D01*
X86736250Y-127356571D01*
X86807678Y-127428000D01*
X86879107Y-127463714D01*
X87021964Y-127499428D01*
X87129107Y-127499428D01*
X87271964Y-127463714D01*
X87343392Y-127428000D01*
X87414821Y-127356571D01*
X87450535Y-127249428D01*
X87450535Y-127070857D01*
X87164821Y-128392285D02*
X87164821Y-128963714D01*
X87450535Y-128678000D02*
X86879107Y-128678000D01*
X86700535Y-129213714D02*
X87450535Y-129463714D01*
X86700535Y-129713714D01*
X87057678Y-129963714D02*
X87057678Y-130213714D01*
X87450535Y-130320857D02*
X87450535Y-129963714D01*
X86700535Y-129963714D01*
X86700535Y-130320857D01*
D12*
X47785714Y-77910714D02*
X47071428Y-77910714D01*
X47500000Y-77482142D02*
X47785714Y-78767857D01*
X47166666Y-78339285D02*
X47880952Y-78339285D01*
X47452380Y-78767857D02*
X47166666Y-77482142D01*
X46785714Y-77672619D02*
X46738095Y-77625000D01*
X46642857Y-77577380D01*
X46404761Y-77577380D01*
X46309523Y-77625000D01*
X46261904Y-77672619D01*
X46214285Y-77767857D01*
X46214285Y-77863095D01*
X46261904Y-78005952D01*
X46833333Y-78577380D01*
X46214285Y-78577380D01*
X47785714Y-136910714D02*
X47071428Y-136910714D01*
X47500000Y-136482142D02*
X47785714Y-137767857D01*
X47166666Y-137339285D02*
X47880952Y-137339285D01*
X47452380Y-137767857D02*
X47166666Y-136482142D01*
X46785714Y-136672619D02*
X46738095Y-136625000D01*
X46642857Y-136577380D01*
X46404761Y-136577380D01*
X46309523Y-136625000D01*
X46261904Y-136672619D01*
X46214285Y-136767857D01*
X46214285Y-136863095D01*
X46261904Y-137005952D01*
X46833333Y-137577380D01*
X46214285Y-137577380D01*
X86885714Y-42089285D02*
X86885714Y-42803571D01*
X86457142Y-42375000D02*
X87742857Y-42089285D01*
X87314285Y-42708333D02*
X87314285Y-41994047D01*
X87742857Y-42422619D02*
X86457142Y-42708333D01*
X86885714Y-43565476D02*
X87552380Y-43565476D01*
X86504761Y-43327380D02*
X87219047Y-43089285D01*
X87219047Y-43708333D01*
X86885714Y-101089285D02*
X86885714Y-101803571D01*
X86457142Y-101375000D02*
X87742857Y-101089285D01*
X87314285Y-101708333D02*
X87314285Y-100994047D01*
X87742857Y-101422619D02*
X86457142Y-101708333D01*
X86885714Y-102565476D02*
X87552380Y-102565476D01*
X86504761Y-102327380D02*
X87219047Y-102089285D01*
X87219047Y-102708333D01*
D10*
X42752380Y-78178571D02*
X40847619Y-78178571D01*
X42752380Y-137178571D02*
X40847619Y-137178571D01*
X49452380Y-76678571D02*
X47547619Y-76678571D01*
X48500000Y-77630952D02*
X48500000Y-75726190D01*
X49452380Y-135678571D02*
X47547619Y-135678571D01*
X48500000Y-136630952D02*
X48500000Y-134726190D01*
D12*
X68795238Y-77552380D02*
X68461904Y-78552380D01*
X68128571Y-77552380D01*
X67795238Y-78552380D02*
X67795238Y-77552380D01*
X67319047Y-78552380D02*
X67319047Y-77552380D01*
X66747619Y-78552380D01*
X66747619Y-77552380D01*
X68795238Y-136552380D02*
X68461904Y-137552380D01*
X68128571Y-136552380D01*
X67795238Y-137552380D02*
X67795238Y-136552380D01*
X67319047Y-137552380D02*
X67319047Y-136552380D01*
X66747619Y-137552380D01*
X66747619Y-136552380D01*
D10*
X68852380Y-75978571D02*
X66947619Y-75978571D01*
X67900000Y-76930952D02*
X67900000Y-75026190D01*
X68852380Y-134978571D02*
X66947619Y-134978571D01*
X67900000Y-135930952D02*
X67900000Y-134026190D01*
X58052380Y-78278571D02*
X56147619Y-78278571D01*
X58052380Y-137278571D02*
X56147619Y-137278571D01*
D12*
X31960714Y-77885714D02*
X31246428Y-77885714D01*
X31675000Y-77457142D02*
X31960714Y-78742857D01*
X31341666Y-78314285D02*
X32055952Y-78314285D01*
X31627380Y-78742857D02*
X31341666Y-77457142D01*
X30389285Y-78552380D02*
X30960714Y-78552380D01*
X30675000Y-78552380D02*
X30675000Y-77552380D01*
X30770238Y-77695238D01*
X30865476Y-77790476D01*
X30960714Y-77838095D01*
X31960714Y-136885714D02*
X31246428Y-136885714D01*
X31675000Y-136457142D02*
X31960714Y-137742857D01*
X31341666Y-137314285D02*
X32055952Y-137314285D01*
X31627380Y-137742857D02*
X31341666Y-136457142D01*
X30389285Y-137552380D02*
X30960714Y-137552380D01*
X30675000Y-137552380D02*
X30675000Y-136552380D01*
X30770238Y-136695238D01*
X30865476Y-136790476D01*
X30960714Y-136838095D01*
X86885714Y-57514285D02*
X86885714Y-58228571D01*
X86457142Y-57800000D02*
X87742857Y-57514285D01*
X87314285Y-58133333D02*
X87314285Y-57419047D01*
X87742857Y-57847619D02*
X86457142Y-58133333D01*
X86552380Y-58466666D02*
X86552380Y-59085714D01*
X86933333Y-58752380D01*
X86933333Y-58895238D01*
X86980952Y-58990476D01*
X87028571Y-59038095D01*
X87123809Y-59085714D01*
X87361904Y-59085714D01*
X87457142Y-59038095D01*
X87504761Y-58990476D01*
X87552380Y-58895238D01*
X87552380Y-58609523D01*
X87504761Y-58514285D01*
X87457142Y-58466666D01*
X86885714Y-116514285D02*
X86885714Y-117228571D01*
X86457142Y-116800000D02*
X87742857Y-116514285D01*
X87314285Y-117133333D02*
X87314285Y-116419047D01*
X87742857Y-116847619D02*
X86457142Y-117133333D01*
X86552380Y-117466666D02*
X86552380Y-118085714D01*
X86933333Y-117752380D01*
X86933333Y-117895238D01*
X86980952Y-117990476D01*
X87028571Y-118038095D01*
X87123809Y-118085714D01*
X87361904Y-118085714D01*
X87457142Y-118038095D01*
X87504761Y-117990476D01*
X87552380Y-117895238D01*
X87552380Y-117609523D01*
X87504761Y-117514285D01*
X87457142Y-117466666D01*
D10*
X33752380Y-76578571D02*
X31847619Y-76578571D01*
X32800000Y-77530952D02*
X32800000Y-75626190D01*
X33752380Y-135578571D02*
X31847619Y-135578571D01*
X32800000Y-136530952D02*
X32800000Y-134626190D01*
D13*
X87207142Y-99228571D02*
X87207142Y-100371428D01*
X87778571Y-99800000D02*
X86635714Y-99800000D01*
X87207142Y-114728571D02*
X87207142Y-115871428D01*
X87778571Y-115300000D02*
X86635714Y-115300000D01*
X87207142Y-93128571D02*
X87207142Y-94271428D01*
X87207142Y-108728571D02*
X87207142Y-109871428D01*
X87207142Y-34128571D02*
X87207142Y-35271428D01*
X87207142Y-55728571D02*
X87207142Y-56871428D01*
X87778571Y-56300000D02*
X86635714Y-56300000D01*
X87207142Y-40228571D02*
X87207142Y-41371428D01*
X87778571Y-40800000D02*
X86635714Y-40800000D01*
X87207142Y-49728571D02*
X87207142Y-50871428D01*
D11*
X36232142Y-50189285D02*
X36482142Y-49832142D01*
X36660714Y-50189285D02*
X36660714Y-49439285D01*
X36375000Y-49439285D01*
X36303571Y-49475000D01*
X36267857Y-49510714D01*
X36232142Y-49582142D01*
X36232142Y-49689285D01*
X36267857Y-49760714D01*
X36303571Y-49796428D01*
X36375000Y-49832142D01*
X36660714Y-49832142D01*
X35982142Y-49439285D02*
X35517857Y-49439285D01*
X35767857Y-49725000D01*
X35660714Y-49725000D01*
X35589285Y-49760714D01*
X35553571Y-49796428D01*
X35517857Y-49867857D01*
X35517857Y-50046428D01*
X35553571Y-50117857D01*
X35589285Y-50153571D01*
X35660714Y-50189285D01*
X35875000Y-50189285D01*
X35946428Y-50153571D01*
X35982142Y-50117857D01*
X35089285Y-49760714D02*
X35160714Y-49725000D01*
X35196428Y-49689285D01*
X35232142Y-49617857D01*
X35232142Y-49582142D01*
X35196428Y-49510714D01*
X35160714Y-49475000D01*
X35089285Y-49439285D01*
X34946428Y-49439285D01*
X34875000Y-49475000D01*
X34839285Y-49510714D01*
X34803571Y-49582142D01*
X34803571Y-49617857D01*
X34839285Y-49689285D01*
X34875000Y-49725000D01*
X34946428Y-49760714D01*
X35089285Y-49760714D01*
X35160714Y-49796428D01*
X35196428Y-49832142D01*
X35232142Y-49903571D01*
X35232142Y-50046428D01*
X35196428Y-50117857D01*
X35160714Y-50153571D01*
X35089285Y-50189285D01*
X34946428Y-50189285D01*
X34875000Y-50153571D01*
X34839285Y-50117857D01*
X34803571Y-50046428D01*
X34803571Y-49903571D01*
X34839285Y-49832142D01*
X34875000Y-49796428D01*
X34946428Y-49760714D01*
X47835714Y-113514285D02*
X47835714Y-112764285D01*
X47657142Y-112764285D01*
X47550000Y-112800000D01*
X47478571Y-112871428D01*
X47442857Y-112942857D01*
X47407142Y-113085714D01*
X47407142Y-113192857D01*
X47442857Y-113335714D01*
X47478571Y-113407142D01*
X47550000Y-113478571D01*
X47657142Y-113514285D01*
X47835714Y-113514285D01*
X46692857Y-113514285D02*
X47121428Y-113514285D01*
X46907142Y-113514285D02*
X46907142Y-112764285D01*
X46978571Y-112871428D01*
X47050000Y-112942857D01*
X47121428Y-112978571D01*
X46407142Y-112835714D02*
X46371428Y-112800000D01*
X46300000Y-112764285D01*
X46121428Y-112764285D01*
X46050000Y-112800000D01*
X46014285Y-112835714D01*
X45978571Y-112907142D01*
X45978571Y-112978571D01*
X46014285Y-113085714D01*
X46442857Y-113514285D01*
X45978571Y-113514285D01*
X64589285Y-105267857D02*
X64232142Y-105017857D01*
X64589285Y-104839285D02*
X63839285Y-104839285D01*
X63839285Y-105125000D01*
X63875000Y-105196428D01*
X63910714Y-105232142D01*
X63982142Y-105267857D01*
X64089285Y-105267857D01*
X64160714Y-105232142D01*
X64196428Y-105196428D01*
X64232142Y-105125000D01*
X64232142Y-104839285D01*
X63910714Y-105553571D02*
X63875000Y-105589285D01*
X63839285Y-105660714D01*
X63839285Y-105839285D01*
X63875000Y-105910714D01*
X63910714Y-105946428D01*
X63982142Y-105982142D01*
X64053571Y-105982142D01*
X64160714Y-105946428D01*
X64589285Y-105517857D01*
X64589285Y-105982142D01*
X63839285Y-106660714D02*
X63839285Y-106303571D01*
X64196428Y-106267857D01*
X64160714Y-106303571D01*
X64125000Y-106375000D01*
X64125000Y-106553571D01*
X64160714Y-106625000D01*
X64196428Y-106660714D01*
X64267857Y-106696428D01*
X64446428Y-106696428D01*
X64517857Y-106660714D01*
X64553571Y-106625000D01*
X64589285Y-106553571D01*
X64589285Y-106375000D01*
X64553571Y-106303571D01*
X64517857Y-106267857D01*
X60589285Y-46267857D02*
X60232142Y-46017857D01*
X60589285Y-45839285D02*
X59839285Y-45839285D01*
X59839285Y-46125000D01*
X59875000Y-46196428D01*
X59910714Y-46232142D01*
X59982142Y-46267857D01*
X60089285Y-46267857D01*
X60160714Y-46232142D01*
X60196428Y-46196428D01*
X60232142Y-46125000D01*
X60232142Y-45839285D01*
X59910714Y-46553571D02*
X59875000Y-46589285D01*
X59839285Y-46660714D01*
X59839285Y-46839285D01*
X59875000Y-46910714D01*
X59910714Y-46946428D01*
X59982142Y-46982142D01*
X60053571Y-46982142D01*
X60160714Y-46946428D01*
X60589285Y-46517857D01*
X60589285Y-46982142D01*
X59839285Y-47232142D02*
X59839285Y-47732142D01*
X60589285Y-47410714D01*
X46775000Y-98592857D02*
X46810714Y-98628571D01*
X46917857Y-98664285D01*
X46989285Y-98664285D01*
X47096428Y-98628571D01*
X47167857Y-98557142D01*
X47203571Y-98485714D01*
X47239285Y-98342857D01*
X47239285Y-98235714D01*
X47203571Y-98092857D01*
X47167857Y-98021428D01*
X47096428Y-97950000D01*
X46989285Y-97914285D01*
X46917857Y-97914285D01*
X46810714Y-97950000D01*
X46775000Y-97985714D01*
X46096428Y-97914285D02*
X46453571Y-97914285D01*
X46489285Y-98271428D01*
X46453571Y-98235714D01*
X46382142Y-98200000D01*
X46203571Y-98200000D01*
X46132142Y-98235714D01*
X46096428Y-98271428D01*
X46060714Y-98342857D01*
X46060714Y-98521428D01*
X46096428Y-98592857D01*
X46132142Y-98628571D01*
X46203571Y-98664285D01*
X46382142Y-98664285D01*
X46453571Y-98628571D01*
X46489285Y-98592857D01*
X52335714Y-59364285D02*
X52335714Y-58614285D01*
X52157142Y-58614285D01*
X52050000Y-58650000D01*
X51978571Y-58721428D01*
X51942857Y-58792857D01*
X51907142Y-58935714D01*
X51907142Y-59042857D01*
X51942857Y-59185714D01*
X51978571Y-59257142D01*
X52050000Y-59328571D01*
X52157142Y-59364285D01*
X52335714Y-59364285D01*
X51192857Y-59364285D02*
X51621428Y-59364285D01*
X51407142Y-59364285D02*
X51407142Y-58614285D01*
X51478571Y-58721428D01*
X51550000Y-58792857D01*
X51621428Y-58828571D01*
X50942857Y-58614285D02*
X50442857Y-58614285D01*
X50764285Y-59364285D01*
X63125000Y-93517857D02*
X63160714Y-93553571D01*
X63267857Y-93589285D01*
X63339285Y-93589285D01*
X63446428Y-93553571D01*
X63517857Y-93482142D01*
X63553571Y-93410714D01*
X63589285Y-93267857D01*
X63589285Y-93160714D01*
X63553571Y-93017857D01*
X63517857Y-92946428D01*
X63446428Y-92875000D01*
X63339285Y-92839285D01*
X63267857Y-92839285D01*
X63160714Y-92875000D01*
X63125000Y-92910714D01*
X62839285Y-92910714D02*
X62803571Y-92875000D01*
X62732142Y-92839285D01*
X62553571Y-92839285D01*
X62482142Y-92875000D01*
X62446428Y-92910714D01*
X62410714Y-92982142D01*
X62410714Y-93053571D01*
X62446428Y-93160714D01*
X62875000Y-93589285D01*
X62410714Y-93589285D01*
X85800000Y-90196428D02*
X86050000Y-90196428D01*
X86050000Y-90589285D02*
X86050000Y-89839285D01*
X85692857Y-89839285D01*
X85050000Y-89839285D02*
X85407142Y-89839285D01*
X85442857Y-90196428D01*
X85407142Y-90160714D01*
X85335714Y-90125000D01*
X85157142Y-90125000D01*
X85085714Y-90160714D01*
X85050000Y-90196428D01*
X85014285Y-90267857D01*
X85014285Y-90446428D01*
X85050000Y-90517857D01*
X85085714Y-90553571D01*
X85157142Y-90589285D01*
X85335714Y-90589285D01*
X85407142Y-90553571D01*
X85442857Y-90517857D01*
X79210714Y-43389285D02*
X79210714Y-42639285D01*
X79032142Y-42639285D01*
X78925000Y-42675000D01*
X78853571Y-42746428D01*
X78817857Y-42817857D01*
X78782142Y-42960714D01*
X78782142Y-43067857D01*
X78817857Y-43210714D01*
X78853571Y-43282142D01*
X78925000Y-43353571D01*
X79032142Y-43389285D01*
X79210714Y-43389285D01*
X78067857Y-43389285D02*
X78496428Y-43389285D01*
X78282142Y-43389285D02*
X78282142Y-42639285D01*
X78353571Y-42746428D01*
X78425000Y-42817857D01*
X78496428Y-42853571D01*
X77353571Y-43389285D02*
X77782142Y-43389285D01*
X77567857Y-43389285D02*
X77567857Y-42639285D01*
X77639285Y-42746428D01*
X77710714Y-42817857D01*
X77782142Y-42853571D01*
X54589285Y-46517857D02*
X54232142Y-46267857D01*
X54589285Y-46089285D02*
X53839285Y-46089285D01*
X53839285Y-46375000D01*
X53875000Y-46446428D01*
X53910714Y-46482142D01*
X53982142Y-46517857D01*
X54089285Y-46517857D01*
X54160714Y-46482142D01*
X54196428Y-46446428D01*
X54232142Y-46375000D01*
X54232142Y-46089285D01*
X53839285Y-46767857D02*
X53839285Y-47232142D01*
X54125000Y-46982142D01*
X54125000Y-47089285D01*
X54160714Y-47160714D01*
X54196428Y-47196428D01*
X54267857Y-47232142D01*
X54446428Y-47232142D01*
X54517857Y-47196428D01*
X54553571Y-47160714D01*
X54589285Y-47089285D01*
X54589285Y-46875000D01*
X54553571Y-46803571D01*
X54517857Y-46767857D01*
X53839285Y-47482142D02*
X53839285Y-47946428D01*
X54125000Y-47696428D01*
X54125000Y-47803571D01*
X54160714Y-47875000D01*
X54196428Y-47910714D01*
X54267857Y-47946428D01*
X54446428Y-47946428D01*
X54517857Y-47910714D01*
X54553571Y-47875000D01*
X54589285Y-47803571D01*
X54589285Y-47589285D01*
X54553571Y-47517857D01*
X54517857Y-47482142D01*
X48589285Y-46517857D02*
X48232142Y-46267857D01*
X48589285Y-46089285D02*
X47839285Y-46089285D01*
X47839285Y-46375000D01*
X47875000Y-46446428D01*
X47910714Y-46482142D01*
X47982142Y-46517857D01*
X48089285Y-46517857D01*
X48160714Y-46482142D01*
X48196428Y-46446428D01*
X48232142Y-46375000D01*
X48232142Y-46089285D01*
X47839285Y-46767857D02*
X47839285Y-47232142D01*
X48125000Y-46982142D01*
X48125000Y-47089285D01*
X48160714Y-47160714D01*
X48196428Y-47196428D01*
X48267857Y-47232142D01*
X48446428Y-47232142D01*
X48517857Y-47196428D01*
X48553571Y-47160714D01*
X48589285Y-47089285D01*
X48589285Y-46875000D01*
X48553571Y-46803571D01*
X48517857Y-46767857D01*
X47839285Y-47875000D02*
X47839285Y-47732142D01*
X47875000Y-47660714D01*
X47910714Y-47625000D01*
X48017857Y-47553571D01*
X48160714Y-47517857D01*
X48446428Y-47517857D01*
X48517857Y-47553571D01*
X48553571Y-47589285D01*
X48589285Y-47660714D01*
X48589285Y-47803571D01*
X48553571Y-47875000D01*
X48517857Y-47910714D01*
X48446428Y-47946428D01*
X48267857Y-47946428D01*
X48196428Y-47910714D01*
X48160714Y-47875000D01*
X48125000Y-47803571D01*
X48125000Y-47660714D01*
X48160714Y-47589285D01*
X48196428Y-47553571D01*
X48267857Y-47517857D01*
X41460714Y-51139285D02*
X41460714Y-50389285D01*
X41282142Y-50389285D01*
X41175000Y-50425000D01*
X41103571Y-50496428D01*
X41067857Y-50567857D01*
X41032142Y-50710714D01*
X41032142Y-50817857D01*
X41067857Y-50960714D01*
X41103571Y-51032142D01*
X41175000Y-51103571D01*
X41282142Y-51139285D01*
X41460714Y-51139285D01*
X40317857Y-51139285D02*
X40746428Y-51139285D01*
X40532142Y-51139285D02*
X40532142Y-50389285D01*
X40603571Y-50496428D01*
X40675000Y-50567857D01*
X40746428Y-50603571D01*
X39675000Y-50389285D02*
X39817857Y-50389285D01*
X39889285Y-50425000D01*
X39925000Y-50460714D01*
X39996428Y-50567857D01*
X40032142Y-50710714D01*
X40032142Y-50996428D01*
X39996428Y-51067857D01*
X39960714Y-51103571D01*
X39889285Y-51139285D01*
X39746428Y-51139285D01*
X39675000Y-51103571D01*
X39639285Y-51067857D01*
X39603571Y-50996428D01*
X39603571Y-50817857D01*
X39639285Y-50746428D01*
X39675000Y-50710714D01*
X39746428Y-50675000D01*
X39889285Y-50675000D01*
X39960714Y-50710714D01*
X39996428Y-50746428D01*
X40032142Y-50817857D01*
X47835714Y-54514285D02*
X47835714Y-53764285D01*
X47657142Y-53764285D01*
X47550000Y-53800000D01*
X47478571Y-53871428D01*
X47442857Y-53942857D01*
X47407142Y-54085714D01*
X47407142Y-54192857D01*
X47442857Y-54335714D01*
X47478571Y-54407142D01*
X47550000Y-54478571D01*
X47657142Y-54514285D01*
X47835714Y-54514285D01*
X46692857Y-54514285D02*
X47121428Y-54514285D01*
X46907142Y-54514285D02*
X46907142Y-53764285D01*
X46978571Y-53871428D01*
X47050000Y-53942857D01*
X47121428Y-53978571D01*
X46407142Y-53835714D02*
X46371428Y-53800000D01*
X46300000Y-53764285D01*
X46121428Y-53764285D01*
X46050000Y-53800000D01*
X46014285Y-53835714D01*
X45978571Y-53907142D01*
X45978571Y-53978571D01*
X46014285Y-54085714D01*
X46442857Y-54514285D01*
X45978571Y-54514285D01*
X49885714Y-69064285D02*
X49885714Y-68314285D01*
X49707142Y-68314285D01*
X49600000Y-68350000D01*
X49528571Y-68421428D01*
X49492857Y-68492857D01*
X49457142Y-68635714D01*
X49457142Y-68742857D01*
X49492857Y-68885714D01*
X49528571Y-68957142D01*
X49600000Y-69028571D01*
X49707142Y-69064285D01*
X49885714Y-69064285D01*
X48742857Y-69064285D02*
X49171428Y-69064285D01*
X48957142Y-69064285D02*
X48957142Y-68314285D01*
X49028571Y-68421428D01*
X49100000Y-68492857D01*
X49171428Y-68528571D01*
X48278571Y-68314285D02*
X48207142Y-68314285D01*
X48135714Y-68350000D01*
X48100000Y-68385714D01*
X48064285Y-68457142D01*
X48028571Y-68600000D01*
X48028571Y-68778571D01*
X48064285Y-68921428D01*
X48100000Y-68992857D01*
X48135714Y-69028571D01*
X48207142Y-69064285D01*
X48278571Y-69064285D01*
X48350000Y-69028571D01*
X48385714Y-68992857D01*
X48421428Y-68921428D01*
X48457142Y-68778571D01*
X48457142Y-68600000D01*
X48421428Y-68457142D01*
X48385714Y-68385714D01*
X48350000Y-68350000D01*
X48278571Y-68314285D01*
X66589285Y-105267857D02*
X66232142Y-105017857D01*
X66589285Y-104839285D02*
X65839285Y-104839285D01*
X65839285Y-105125000D01*
X65875000Y-105196428D01*
X65910714Y-105232142D01*
X65982142Y-105267857D01*
X66089285Y-105267857D01*
X66160714Y-105232142D01*
X66196428Y-105196428D01*
X66232142Y-105125000D01*
X66232142Y-104839285D01*
X65910714Y-105553571D02*
X65875000Y-105589285D01*
X65839285Y-105660714D01*
X65839285Y-105839285D01*
X65875000Y-105910714D01*
X65910714Y-105946428D01*
X65982142Y-105982142D01*
X66053571Y-105982142D01*
X66160714Y-105946428D01*
X66589285Y-105517857D01*
X66589285Y-105982142D01*
X66089285Y-106625000D02*
X66589285Y-106625000D01*
X65803571Y-106446428D02*
X66339285Y-106267857D01*
X66339285Y-106732142D01*
X60589285Y-105267857D02*
X60232142Y-105017857D01*
X60589285Y-104839285D02*
X59839285Y-104839285D01*
X59839285Y-105125000D01*
X59875000Y-105196428D01*
X59910714Y-105232142D01*
X59982142Y-105267857D01*
X60089285Y-105267857D01*
X60160714Y-105232142D01*
X60196428Y-105196428D01*
X60232142Y-105125000D01*
X60232142Y-104839285D01*
X59910714Y-105553571D02*
X59875000Y-105589285D01*
X59839285Y-105660714D01*
X59839285Y-105839285D01*
X59875000Y-105910714D01*
X59910714Y-105946428D01*
X59982142Y-105982142D01*
X60053571Y-105982142D01*
X60160714Y-105946428D01*
X60589285Y-105517857D01*
X60589285Y-105982142D01*
X59839285Y-106232142D02*
X59839285Y-106732142D01*
X60589285Y-106410714D01*
X70103571Y-58489285D02*
X70103571Y-57739285D01*
X69925000Y-57739285D01*
X69817857Y-57775000D01*
X69746428Y-57846428D01*
X69710714Y-57917857D01*
X69675000Y-58060714D01*
X69675000Y-58167857D01*
X69710714Y-58310714D01*
X69746428Y-58382142D01*
X69817857Y-58453571D01*
X69925000Y-58489285D01*
X70103571Y-58489285D01*
X69425000Y-57739285D02*
X68925000Y-57739285D01*
X69246428Y-58489285D01*
X37525000Y-89167857D02*
X37560714Y-89203571D01*
X37667857Y-89239285D01*
X37739285Y-89239285D01*
X37846428Y-89203571D01*
X37917857Y-89132142D01*
X37953571Y-89060714D01*
X37989285Y-88917857D01*
X37989285Y-88810714D01*
X37953571Y-88667857D01*
X37917857Y-88596428D01*
X37846428Y-88525000D01*
X37739285Y-88489285D01*
X37667857Y-88489285D01*
X37560714Y-88525000D01*
X37525000Y-88560714D01*
X37096428Y-88810714D02*
X37167857Y-88775000D01*
X37203571Y-88739285D01*
X37239285Y-88667857D01*
X37239285Y-88632142D01*
X37203571Y-88560714D01*
X37167857Y-88525000D01*
X37096428Y-88489285D01*
X36953571Y-88489285D01*
X36882142Y-88525000D01*
X36846428Y-88560714D01*
X36810714Y-88632142D01*
X36810714Y-88667857D01*
X36846428Y-88739285D01*
X36882142Y-88775000D01*
X36953571Y-88810714D01*
X37096428Y-88810714D01*
X37167857Y-88846428D01*
X37203571Y-88882142D01*
X37239285Y-88953571D01*
X37239285Y-89096428D01*
X37203571Y-89167857D01*
X37167857Y-89203571D01*
X37096428Y-89239285D01*
X36953571Y-89239285D01*
X36882142Y-89203571D01*
X36846428Y-89167857D01*
X36810714Y-89096428D01*
X36810714Y-88953571D01*
X36846428Y-88882142D01*
X36882142Y-88846428D01*
X36953571Y-88810714D01*
X70478571Y-102364285D02*
X70478571Y-101614285D01*
X70300000Y-101614285D01*
X70192857Y-101650000D01*
X70121428Y-101721428D01*
X70085714Y-101792857D01*
X70050000Y-101935714D01*
X70050000Y-102042857D01*
X70085714Y-102185714D01*
X70121428Y-102257142D01*
X70192857Y-102328571D01*
X70300000Y-102364285D01*
X70478571Y-102364285D01*
X69692857Y-102364285D02*
X69550000Y-102364285D01*
X69478571Y-102328571D01*
X69442857Y-102292857D01*
X69371428Y-102185714D01*
X69335714Y-102042857D01*
X69335714Y-101757142D01*
X69371428Y-101685714D01*
X69407142Y-101650000D01*
X69478571Y-101614285D01*
X69621428Y-101614285D01*
X69692857Y-101650000D01*
X69728571Y-101685714D01*
X69764285Y-101757142D01*
X69764285Y-101935714D01*
X69728571Y-102007142D01*
X69692857Y-102042857D01*
X69621428Y-102078571D01*
X69478571Y-102078571D01*
X69407142Y-102042857D01*
X69371428Y-102007142D01*
X69335714Y-101935714D01*
X55660714Y-39339285D02*
X55660714Y-38589285D01*
X55482142Y-38589285D01*
X55375000Y-38625000D01*
X55303571Y-38696428D01*
X55267857Y-38767857D01*
X55232142Y-38910714D01*
X55232142Y-39017857D01*
X55267857Y-39160714D01*
X55303571Y-39232142D01*
X55375000Y-39303571D01*
X55482142Y-39339285D01*
X55660714Y-39339285D01*
X54982142Y-38589285D02*
X54517857Y-38589285D01*
X54767857Y-38875000D01*
X54660714Y-38875000D01*
X54589285Y-38910714D01*
X54553571Y-38946428D01*
X54517857Y-39017857D01*
X54517857Y-39196428D01*
X54553571Y-39267857D01*
X54589285Y-39303571D01*
X54660714Y-39339285D01*
X54875000Y-39339285D01*
X54946428Y-39303571D01*
X54982142Y-39267857D01*
X54232142Y-38660714D02*
X54196428Y-38625000D01*
X54125000Y-38589285D01*
X53946428Y-38589285D01*
X53875000Y-38625000D01*
X53839285Y-38660714D01*
X53803571Y-38732142D01*
X53803571Y-38803571D01*
X53839285Y-38910714D01*
X54267857Y-39339285D01*
X53803571Y-39339285D01*
X63185714Y-118864285D02*
X63185714Y-118114285D01*
X63007142Y-118114285D01*
X62900000Y-118150000D01*
X62828571Y-118221428D01*
X62792857Y-118292857D01*
X62757142Y-118435714D01*
X62757142Y-118542857D01*
X62792857Y-118685714D01*
X62828571Y-118757142D01*
X62900000Y-118828571D01*
X63007142Y-118864285D01*
X63185714Y-118864285D01*
X62471428Y-118185714D02*
X62435714Y-118150000D01*
X62364285Y-118114285D01*
X62185714Y-118114285D01*
X62114285Y-118150000D01*
X62078571Y-118185714D01*
X62042857Y-118257142D01*
X62042857Y-118328571D01*
X62078571Y-118435714D01*
X62507142Y-118864285D01*
X62042857Y-118864285D01*
X61328571Y-118864285D02*
X61757142Y-118864285D01*
X61542857Y-118864285D02*
X61542857Y-118114285D01*
X61614285Y-118221428D01*
X61685714Y-118292857D01*
X61757142Y-118328571D01*
X30782142Y-91767857D02*
X30817857Y-91803571D01*
X30925000Y-91839285D01*
X30996428Y-91839285D01*
X31103571Y-91803571D01*
X31175000Y-91732142D01*
X31210714Y-91660714D01*
X31246428Y-91517857D01*
X31246428Y-91410714D01*
X31210714Y-91267857D01*
X31175000Y-91196428D01*
X31103571Y-91125000D01*
X30996428Y-91089285D01*
X30925000Y-91089285D01*
X30817857Y-91125000D01*
X30782142Y-91160714D01*
X30067857Y-91839285D02*
X30496428Y-91839285D01*
X30282142Y-91839285D02*
X30282142Y-91089285D01*
X30353571Y-91196428D01*
X30425000Y-91267857D01*
X30496428Y-91303571D01*
X29425000Y-91339285D02*
X29425000Y-91839285D01*
X29603571Y-91053571D02*
X29782142Y-91589285D01*
X29317857Y-91589285D01*
X53460714Y-55814285D02*
X53460714Y-55064285D01*
X53282142Y-55064285D01*
X53175000Y-55100000D01*
X53103571Y-55171428D01*
X53067857Y-55242857D01*
X53032142Y-55385714D01*
X53032142Y-55492857D01*
X53067857Y-55635714D01*
X53103571Y-55707142D01*
X53175000Y-55778571D01*
X53282142Y-55814285D01*
X53460714Y-55814285D01*
X52746428Y-55135714D02*
X52710714Y-55100000D01*
X52639285Y-55064285D01*
X52460714Y-55064285D01*
X52389285Y-55100000D01*
X52353571Y-55135714D01*
X52317857Y-55207142D01*
X52317857Y-55278571D01*
X52353571Y-55385714D01*
X52782142Y-55814285D01*
X52317857Y-55814285D01*
X51639285Y-55064285D02*
X51996428Y-55064285D01*
X52032142Y-55421428D01*
X51996428Y-55385714D01*
X51925000Y-55350000D01*
X51746428Y-55350000D01*
X51675000Y-55385714D01*
X51639285Y-55421428D01*
X51603571Y-55492857D01*
X51603571Y-55671428D01*
X51639285Y-55742857D01*
X51675000Y-55778571D01*
X51746428Y-55814285D01*
X51925000Y-55814285D01*
X51996428Y-55778571D01*
X52032142Y-55742857D01*
X49885714Y-128064285D02*
X49885714Y-127314285D01*
X49707142Y-127314285D01*
X49600000Y-127350000D01*
X49528571Y-127421428D01*
X49492857Y-127492857D01*
X49457142Y-127635714D01*
X49457142Y-127742857D01*
X49492857Y-127885714D01*
X49528571Y-127957142D01*
X49600000Y-128028571D01*
X49707142Y-128064285D01*
X49885714Y-128064285D01*
X48742857Y-128064285D02*
X49171428Y-128064285D01*
X48957142Y-128064285D02*
X48957142Y-127314285D01*
X49028571Y-127421428D01*
X49100000Y-127492857D01*
X49171428Y-127528571D01*
X48278571Y-127314285D02*
X48207142Y-127314285D01*
X48135714Y-127350000D01*
X48100000Y-127385714D01*
X48064285Y-127457142D01*
X48028571Y-127600000D01*
X48028571Y-127778571D01*
X48064285Y-127921428D01*
X48100000Y-127992857D01*
X48135714Y-128028571D01*
X48207142Y-128064285D01*
X48278571Y-128064285D01*
X48350000Y-128028571D01*
X48385714Y-127992857D01*
X48421428Y-127921428D01*
X48457142Y-127778571D01*
X48457142Y-127600000D01*
X48421428Y-127457142D01*
X48385714Y-127385714D01*
X48350000Y-127350000D01*
X48278571Y-127314285D01*
X52860714Y-89164285D02*
X52860714Y-88414285D01*
X52682142Y-88414285D01*
X52575000Y-88450000D01*
X52503571Y-88521428D01*
X52467857Y-88592857D01*
X52432142Y-88735714D01*
X52432142Y-88842857D01*
X52467857Y-88985714D01*
X52503571Y-89057142D01*
X52575000Y-89128571D01*
X52682142Y-89164285D01*
X52860714Y-89164285D01*
X52182142Y-88414285D02*
X51717857Y-88414285D01*
X51967857Y-88700000D01*
X51860714Y-88700000D01*
X51789285Y-88735714D01*
X51753571Y-88771428D01*
X51717857Y-88842857D01*
X51717857Y-89021428D01*
X51753571Y-89092857D01*
X51789285Y-89128571D01*
X51860714Y-89164285D01*
X52075000Y-89164285D01*
X52146428Y-89128571D01*
X52182142Y-89092857D01*
X51075000Y-88664285D02*
X51075000Y-89164285D01*
X51253571Y-88378571D02*
X51432142Y-88914285D01*
X50967857Y-88914285D01*
X36232142Y-53789285D02*
X36482142Y-53432142D01*
X36660714Y-53789285D02*
X36660714Y-53039285D01*
X36375000Y-53039285D01*
X36303571Y-53075000D01*
X36267857Y-53110714D01*
X36232142Y-53182142D01*
X36232142Y-53289285D01*
X36267857Y-53360714D01*
X36303571Y-53396428D01*
X36375000Y-53432142D01*
X36660714Y-53432142D01*
X35982142Y-53039285D02*
X35517857Y-53039285D01*
X35767857Y-53325000D01*
X35660714Y-53325000D01*
X35589285Y-53360714D01*
X35553571Y-53396428D01*
X35517857Y-53467857D01*
X35517857Y-53646428D01*
X35553571Y-53717857D01*
X35589285Y-53753571D01*
X35660714Y-53789285D01*
X35875000Y-53789285D01*
X35946428Y-53753571D01*
X35982142Y-53717857D01*
X35053571Y-53039285D02*
X34982142Y-53039285D01*
X34910714Y-53075000D01*
X34875000Y-53110714D01*
X34839285Y-53182142D01*
X34803571Y-53325000D01*
X34803571Y-53503571D01*
X34839285Y-53646428D01*
X34875000Y-53717857D01*
X34910714Y-53753571D01*
X34982142Y-53789285D01*
X35053571Y-53789285D01*
X35125000Y-53753571D01*
X35160714Y-53717857D01*
X35196428Y-53646428D01*
X35232142Y-53503571D01*
X35232142Y-53325000D01*
X35196428Y-53182142D01*
X35160714Y-53110714D01*
X35125000Y-53075000D01*
X35053571Y-53039285D01*
X31632142Y-93692857D02*
X31667857Y-93728571D01*
X31775000Y-93764285D01*
X31846428Y-93764285D01*
X31953571Y-93728571D01*
X32025000Y-93657142D01*
X32060714Y-93585714D01*
X32096428Y-93442857D01*
X32096428Y-93335714D01*
X32060714Y-93192857D01*
X32025000Y-93121428D01*
X31953571Y-93050000D01*
X31846428Y-93014285D01*
X31775000Y-93014285D01*
X31667857Y-93050000D01*
X31632142Y-93085714D01*
X30917857Y-93764285D02*
X31346428Y-93764285D01*
X31132142Y-93764285D02*
X31132142Y-93014285D01*
X31203571Y-93121428D01*
X31275000Y-93192857D01*
X31346428Y-93228571D01*
X30667857Y-93014285D02*
X30203571Y-93014285D01*
X30453571Y-93300000D01*
X30346428Y-93300000D01*
X30275000Y-93335714D01*
X30239285Y-93371428D01*
X30203571Y-93442857D01*
X30203571Y-93621428D01*
X30239285Y-93692857D01*
X30275000Y-93728571D01*
X30346428Y-93764285D01*
X30560714Y-93764285D01*
X30632142Y-93728571D01*
X30667857Y-93692857D01*
X63185714Y-59864285D02*
X63185714Y-59114285D01*
X63007142Y-59114285D01*
X62900000Y-59150000D01*
X62828571Y-59221428D01*
X62792857Y-59292857D01*
X62757142Y-59435714D01*
X62757142Y-59542857D01*
X62792857Y-59685714D01*
X62828571Y-59757142D01*
X62900000Y-59828571D01*
X63007142Y-59864285D01*
X63185714Y-59864285D01*
X62471428Y-59185714D02*
X62435714Y-59150000D01*
X62364285Y-59114285D01*
X62185714Y-59114285D01*
X62114285Y-59150000D01*
X62078571Y-59185714D01*
X62042857Y-59257142D01*
X62042857Y-59328571D01*
X62078571Y-59435714D01*
X62507142Y-59864285D01*
X62042857Y-59864285D01*
X61328571Y-59864285D02*
X61757142Y-59864285D01*
X61542857Y-59864285D02*
X61542857Y-59114285D01*
X61614285Y-59221428D01*
X61685714Y-59292857D01*
X61757142Y-59328571D01*
X49410714Y-93139285D02*
X49410714Y-92389285D01*
X49232142Y-92389285D01*
X49125000Y-92425000D01*
X49053571Y-92496428D01*
X49017857Y-92567857D01*
X48982142Y-92710714D01*
X48982142Y-92817857D01*
X49017857Y-92960714D01*
X49053571Y-93032142D01*
X49125000Y-93103571D01*
X49232142Y-93139285D01*
X49410714Y-93139285D01*
X48732142Y-92389285D02*
X48267857Y-92389285D01*
X48517857Y-92675000D01*
X48410714Y-92675000D01*
X48339285Y-92710714D01*
X48303571Y-92746428D01*
X48267857Y-92817857D01*
X48267857Y-92996428D01*
X48303571Y-93067857D01*
X48339285Y-93103571D01*
X48410714Y-93139285D01*
X48625000Y-93139285D01*
X48696428Y-93103571D01*
X48732142Y-93067857D01*
X47589285Y-92389285D02*
X47946428Y-92389285D01*
X47982142Y-92746428D01*
X47946428Y-92710714D01*
X47875000Y-92675000D01*
X47696428Y-92675000D01*
X47625000Y-92710714D01*
X47589285Y-92746428D01*
X47553571Y-92817857D01*
X47553571Y-92996428D01*
X47589285Y-93067857D01*
X47625000Y-93103571D01*
X47696428Y-93139285D01*
X47875000Y-93139285D01*
X47946428Y-93103571D01*
X47982142Y-93067857D01*
X69135714Y-69264285D02*
X69135714Y-68514285D01*
X68957142Y-68514285D01*
X68850000Y-68550000D01*
X68778571Y-68621428D01*
X68742857Y-68692857D01*
X68707142Y-68835714D01*
X68707142Y-68942857D01*
X68742857Y-69085714D01*
X68778571Y-69157142D01*
X68850000Y-69228571D01*
X68957142Y-69264285D01*
X69135714Y-69264285D01*
X68421428Y-68585714D02*
X68385714Y-68550000D01*
X68314285Y-68514285D01*
X68135714Y-68514285D01*
X68064285Y-68550000D01*
X68028571Y-68585714D01*
X67992857Y-68657142D01*
X67992857Y-68728571D01*
X68028571Y-68835714D01*
X68457142Y-69264285D01*
X67992857Y-69264285D01*
X67742857Y-68514285D02*
X67278571Y-68514285D01*
X67528571Y-68800000D01*
X67421428Y-68800000D01*
X67350000Y-68835714D01*
X67314285Y-68871428D01*
X67278571Y-68942857D01*
X67278571Y-69121428D01*
X67314285Y-69192857D01*
X67350000Y-69228571D01*
X67421428Y-69264285D01*
X67635714Y-69264285D01*
X67707142Y-69228571D01*
X67742857Y-69192857D01*
X71821428Y-66510714D02*
X71892857Y-66475000D01*
X71964285Y-66403571D01*
X72071428Y-66296428D01*
X72142857Y-66260714D01*
X72214285Y-66260714D01*
X72178571Y-66439285D02*
X72250000Y-66403571D01*
X72321428Y-66332142D01*
X72357142Y-66189285D01*
X72357142Y-65939285D01*
X72321428Y-65796428D01*
X72250000Y-65725000D01*
X72178571Y-65689285D01*
X72035714Y-65689285D01*
X71964285Y-65725000D01*
X71892857Y-65796428D01*
X71857142Y-65939285D01*
X71857142Y-66189285D01*
X71892857Y-66332142D01*
X71964285Y-66403571D01*
X72035714Y-66439285D01*
X72178571Y-66439285D01*
X71142857Y-66439285D02*
X71571428Y-66439285D01*
X71357142Y-66439285D02*
X71357142Y-65689285D01*
X71428571Y-65796428D01*
X71500000Y-65867857D01*
X71571428Y-65903571D01*
X81800000Y-116896428D02*
X82050000Y-116896428D01*
X82050000Y-117289285D02*
X82050000Y-116539285D01*
X81692857Y-116539285D01*
X81478571Y-116539285D02*
X81014285Y-116539285D01*
X81264285Y-116825000D01*
X81157142Y-116825000D01*
X81085714Y-116860714D01*
X81050000Y-116896428D01*
X81014285Y-116967857D01*
X81014285Y-117146428D01*
X81050000Y-117217857D01*
X81085714Y-117253571D01*
X81157142Y-117289285D01*
X81371428Y-117289285D01*
X81442857Y-117253571D01*
X81478571Y-117217857D01*
X58335714Y-30164285D02*
X58335714Y-29414285D01*
X58157142Y-29414285D01*
X58050000Y-29450000D01*
X57978571Y-29521428D01*
X57942857Y-29592857D01*
X57907142Y-29735714D01*
X57907142Y-29842857D01*
X57942857Y-29985714D01*
X57978571Y-30057142D01*
X58050000Y-30128571D01*
X58157142Y-30164285D01*
X58335714Y-30164285D01*
X57621428Y-29485714D02*
X57585714Y-29450000D01*
X57514285Y-29414285D01*
X57335714Y-29414285D01*
X57264285Y-29450000D01*
X57228571Y-29485714D01*
X57192857Y-29557142D01*
X57192857Y-29628571D01*
X57228571Y-29735714D01*
X57657142Y-30164285D01*
X57192857Y-30164285D01*
X56907142Y-29485714D02*
X56871428Y-29450000D01*
X56800000Y-29414285D01*
X56621428Y-29414285D01*
X56550000Y-29450000D01*
X56514285Y-29485714D01*
X56478571Y-29557142D01*
X56478571Y-29628571D01*
X56514285Y-29735714D01*
X56942857Y-30164285D01*
X56478571Y-30164285D01*
X46775000Y-39592857D02*
X46810714Y-39628571D01*
X46917857Y-39664285D01*
X46989285Y-39664285D01*
X47096428Y-39628571D01*
X47167857Y-39557142D01*
X47203571Y-39485714D01*
X47239285Y-39342857D01*
X47239285Y-39235714D01*
X47203571Y-39092857D01*
X47167857Y-39021428D01*
X47096428Y-38950000D01*
X46989285Y-38914285D01*
X46917857Y-38914285D01*
X46810714Y-38950000D01*
X46775000Y-38985714D01*
X46096428Y-38914285D02*
X46453571Y-38914285D01*
X46489285Y-39271428D01*
X46453571Y-39235714D01*
X46382142Y-39200000D01*
X46203571Y-39200000D01*
X46132142Y-39235714D01*
X46096428Y-39271428D01*
X46060714Y-39342857D01*
X46060714Y-39521428D01*
X46096428Y-39592857D01*
X46132142Y-39628571D01*
X46203571Y-39664285D01*
X46382142Y-39664285D01*
X46453571Y-39628571D01*
X46489285Y-39592857D01*
X52335714Y-118364285D02*
X52335714Y-117614285D01*
X52157142Y-117614285D01*
X52050000Y-117650000D01*
X51978571Y-117721428D01*
X51942857Y-117792857D01*
X51907142Y-117935714D01*
X51907142Y-118042857D01*
X51942857Y-118185714D01*
X51978571Y-118257142D01*
X52050000Y-118328571D01*
X52157142Y-118364285D01*
X52335714Y-118364285D01*
X51192857Y-118364285D02*
X51621428Y-118364285D01*
X51407142Y-118364285D02*
X51407142Y-117614285D01*
X51478571Y-117721428D01*
X51550000Y-117792857D01*
X51621428Y-117828571D01*
X50942857Y-117614285D02*
X50442857Y-117614285D01*
X50764285Y-118364285D01*
X30782142Y-32767857D02*
X30817857Y-32803571D01*
X30925000Y-32839285D01*
X30996428Y-32839285D01*
X31103571Y-32803571D01*
X31175000Y-32732142D01*
X31210714Y-32660714D01*
X31246428Y-32517857D01*
X31246428Y-32410714D01*
X31210714Y-32267857D01*
X31175000Y-32196428D01*
X31103571Y-32125000D01*
X30996428Y-32089285D01*
X30925000Y-32089285D01*
X30817857Y-32125000D01*
X30782142Y-32160714D01*
X30067857Y-32839285D02*
X30496428Y-32839285D01*
X30282142Y-32839285D02*
X30282142Y-32089285D01*
X30353571Y-32196428D01*
X30425000Y-32267857D01*
X30496428Y-32303571D01*
X29425000Y-32339285D02*
X29425000Y-32839285D01*
X29603571Y-32053571D02*
X29782142Y-32589285D01*
X29317857Y-32589285D01*
X56589285Y-105505357D02*
X56232142Y-105255357D01*
X56589285Y-105076785D02*
X55839285Y-105076785D01*
X55839285Y-105362500D01*
X55875000Y-105433928D01*
X55910714Y-105469642D01*
X55982142Y-105505357D01*
X56089285Y-105505357D01*
X56160714Y-105469642D01*
X56196428Y-105433928D01*
X56232142Y-105362500D01*
X56232142Y-105076785D01*
X55839285Y-105755357D02*
X55839285Y-106219642D01*
X56125000Y-105969642D01*
X56125000Y-106076785D01*
X56160714Y-106148214D01*
X56196428Y-106183928D01*
X56267857Y-106219642D01*
X56446428Y-106219642D01*
X56517857Y-106183928D01*
X56553571Y-106148214D01*
X56589285Y-106076785D01*
X56589285Y-105862500D01*
X56553571Y-105791071D01*
X56517857Y-105755357D01*
X55910714Y-106505357D02*
X55875000Y-106541071D01*
X55839285Y-106612500D01*
X55839285Y-106791071D01*
X55875000Y-106862500D01*
X55910714Y-106898214D01*
X55982142Y-106933928D01*
X56053571Y-106933928D01*
X56160714Y-106898214D01*
X56589285Y-106469642D01*
X56589285Y-106933928D01*
X64589285Y-46267857D02*
X64232142Y-46017857D01*
X64589285Y-45839285D02*
X63839285Y-45839285D01*
X63839285Y-46125000D01*
X63875000Y-46196428D01*
X63910714Y-46232142D01*
X63982142Y-46267857D01*
X64089285Y-46267857D01*
X64160714Y-46232142D01*
X64196428Y-46196428D01*
X64232142Y-46125000D01*
X64232142Y-45839285D01*
X63910714Y-46553571D02*
X63875000Y-46589285D01*
X63839285Y-46660714D01*
X63839285Y-46839285D01*
X63875000Y-46910714D01*
X63910714Y-46946428D01*
X63982142Y-46982142D01*
X64053571Y-46982142D01*
X64160714Y-46946428D01*
X64589285Y-46517857D01*
X64589285Y-46982142D01*
X63839285Y-47660714D02*
X63839285Y-47303571D01*
X64196428Y-47267857D01*
X64160714Y-47303571D01*
X64125000Y-47375000D01*
X64125000Y-47553571D01*
X64160714Y-47625000D01*
X64196428Y-47660714D01*
X64267857Y-47696428D01*
X64446428Y-47696428D01*
X64517857Y-47660714D01*
X64553571Y-47625000D01*
X64589285Y-47553571D01*
X64589285Y-47375000D01*
X64553571Y-47303571D01*
X64517857Y-47267857D01*
X36803571Y-118839285D02*
X36803571Y-118089285D01*
X36625000Y-118089285D01*
X36517857Y-118125000D01*
X36446428Y-118196428D01*
X36410714Y-118267857D01*
X36375000Y-118410714D01*
X36375000Y-118517857D01*
X36410714Y-118660714D01*
X36446428Y-118732142D01*
X36517857Y-118803571D01*
X36625000Y-118839285D01*
X36803571Y-118839285D01*
X36089285Y-118160714D02*
X36053571Y-118125000D01*
X35982142Y-118089285D01*
X35803571Y-118089285D01*
X35732142Y-118125000D01*
X35696428Y-118160714D01*
X35660714Y-118232142D01*
X35660714Y-118303571D01*
X35696428Y-118410714D01*
X36125000Y-118839285D01*
X35660714Y-118839285D01*
X50589285Y-105505357D02*
X50232142Y-105255357D01*
X50589285Y-105076785D02*
X49839285Y-105076785D01*
X49839285Y-105362500D01*
X49875000Y-105433928D01*
X49910714Y-105469642D01*
X49982142Y-105505357D01*
X50089285Y-105505357D01*
X50160714Y-105469642D01*
X50196428Y-105433928D01*
X50232142Y-105362500D01*
X50232142Y-105076785D01*
X49839285Y-105755357D02*
X49839285Y-106219642D01*
X50125000Y-105969642D01*
X50125000Y-106076785D01*
X50160714Y-106148214D01*
X50196428Y-106183928D01*
X50267857Y-106219642D01*
X50446428Y-106219642D01*
X50517857Y-106183928D01*
X50553571Y-106148214D01*
X50589285Y-106076785D01*
X50589285Y-105862500D01*
X50553571Y-105791071D01*
X50517857Y-105755357D01*
X49839285Y-106898214D02*
X49839285Y-106541071D01*
X50196428Y-106505357D01*
X50160714Y-106541071D01*
X50125000Y-106612500D01*
X50125000Y-106791071D01*
X50160714Y-106862500D01*
X50196428Y-106898214D01*
X50267857Y-106933928D01*
X50446428Y-106933928D01*
X50517857Y-106898214D01*
X50553571Y-106862500D01*
X50589285Y-106791071D01*
X50589285Y-106612500D01*
X50553571Y-106541071D01*
X50517857Y-106505357D01*
X35500000Y-130266428D02*
X35750000Y-130266428D01*
X35750000Y-130659285D02*
X35750000Y-129909285D01*
X35392857Y-129909285D01*
X35142857Y-129980714D02*
X35107142Y-129945000D01*
X35035714Y-129909285D01*
X34857142Y-129909285D01*
X34785714Y-129945000D01*
X34750000Y-129980714D01*
X34714285Y-130052142D01*
X34714285Y-130123571D01*
X34750000Y-130230714D01*
X35178571Y-130659285D01*
X34714285Y-130659285D01*
X70478571Y-43364285D02*
X70478571Y-42614285D01*
X70300000Y-42614285D01*
X70192857Y-42650000D01*
X70121428Y-42721428D01*
X70085714Y-42792857D01*
X70050000Y-42935714D01*
X70050000Y-43042857D01*
X70085714Y-43185714D01*
X70121428Y-43257142D01*
X70192857Y-43328571D01*
X70300000Y-43364285D01*
X70478571Y-43364285D01*
X69692857Y-43364285D02*
X69550000Y-43364285D01*
X69478571Y-43328571D01*
X69442857Y-43292857D01*
X69371428Y-43185714D01*
X69335714Y-43042857D01*
X69335714Y-42757142D01*
X69371428Y-42685714D01*
X69407142Y-42650000D01*
X69478571Y-42614285D01*
X69621428Y-42614285D01*
X69692857Y-42650000D01*
X69728571Y-42685714D01*
X69764285Y-42757142D01*
X69764285Y-42935714D01*
X69728571Y-43007142D01*
X69692857Y-43042857D01*
X69621428Y-43078571D01*
X69478571Y-43078571D01*
X69407142Y-43042857D01*
X69371428Y-43007142D01*
X69335714Y-42935714D01*
X56160714Y-30189285D02*
X56160714Y-29439285D01*
X55982142Y-29439285D01*
X55875000Y-29475000D01*
X55803571Y-29546428D01*
X55767857Y-29617857D01*
X55732142Y-29760714D01*
X55732142Y-29867857D01*
X55767857Y-30010714D01*
X55803571Y-30082142D01*
X55875000Y-30153571D01*
X55982142Y-30189285D01*
X56160714Y-30189285D01*
X55446428Y-29510714D02*
X55410714Y-29475000D01*
X55339285Y-29439285D01*
X55160714Y-29439285D01*
X55089285Y-29475000D01*
X55053571Y-29510714D01*
X55017857Y-29582142D01*
X55017857Y-29653571D01*
X55053571Y-29760714D01*
X55482142Y-30189285D01*
X55017857Y-30189285D01*
X54375000Y-29439285D02*
X54517857Y-29439285D01*
X54589285Y-29475000D01*
X54625000Y-29510714D01*
X54696428Y-29617857D01*
X54732142Y-29760714D01*
X54732142Y-30046428D01*
X54696428Y-30117857D01*
X54660714Y-30153571D01*
X54589285Y-30189285D01*
X54446428Y-30189285D01*
X54375000Y-30153571D01*
X54339285Y-30117857D01*
X54303571Y-30046428D01*
X54303571Y-29867857D01*
X54339285Y-29796428D01*
X54375000Y-29760714D01*
X54446428Y-29725000D01*
X54589285Y-29725000D01*
X54660714Y-29760714D01*
X54696428Y-29796428D01*
X54732142Y-29867857D01*
X46589285Y-105517857D02*
X46232142Y-105267857D01*
X46589285Y-105089285D02*
X45839285Y-105089285D01*
X45839285Y-105375000D01*
X45875000Y-105446428D01*
X45910714Y-105482142D01*
X45982142Y-105517857D01*
X46089285Y-105517857D01*
X46160714Y-105482142D01*
X46196428Y-105446428D01*
X46232142Y-105375000D01*
X46232142Y-105089285D01*
X45839285Y-105767857D02*
X45839285Y-106232142D01*
X46125000Y-105982142D01*
X46125000Y-106089285D01*
X46160714Y-106160714D01*
X46196428Y-106196428D01*
X46267857Y-106232142D01*
X46446428Y-106232142D01*
X46517857Y-106196428D01*
X46553571Y-106160714D01*
X46589285Y-106089285D01*
X46589285Y-105875000D01*
X46553571Y-105803571D01*
X46517857Y-105767857D01*
X45839285Y-106482142D02*
X45839285Y-106982142D01*
X46589285Y-106660714D01*
X51225000Y-71296428D02*
X51475000Y-71296428D01*
X51475000Y-71689285D02*
X51475000Y-70939285D01*
X51117857Y-70939285D01*
X50510714Y-71189285D02*
X50510714Y-71689285D01*
X50689285Y-70903571D02*
X50867857Y-71439285D01*
X50403571Y-71439285D01*
X74821428Y-114660714D02*
X74892857Y-114625000D01*
X74964285Y-114553571D01*
X75071428Y-114446428D01*
X75142857Y-114410714D01*
X75214285Y-114410714D01*
X75178571Y-114589285D02*
X75250000Y-114553571D01*
X75321428Y-114482142D01*
X75357142Y-114339285D01*
X75357142Y-114089285D01*
X75321428Y-113946428D01*
X75250000Y-113875000D01*
X75178571Y-113839285D01*
X75035714Y-113839285D01*
X74964285Y-113875000D01*
X74892857Y-113946428D01*
X74857142Y-114089285D01*
X74857142Y-114339285D01*
X74892857Y-114482142D01*
X74964285Y-114553571D01*
X75035714Y-114589285D01*
X75178571Y-114589285D01*
X74607142Y-113839285D02*
X74142857Y-113839285D01*
X74392857Y-114125000D01*
X74285714Y-114125000D01*
X74214285Y-114160714D01*
X74178571Y-114196428D01*
X74142857Y-114267857D01*
X74142857Y-114446428D01*
X74178571Y-114517857D01*
X74214285Y-114553571D01*
X74285714Y-114589285D01*
X74500000Y-114589285D01*
X74571428Y-114553571D01*
X74607142Y-114517857D01*
X56160714Y-89189285D02*
X56160714Y-88439285D01*
X55982142Y-88439285D01*
X55875000Y-88475000D01*
X55803571Y-88546428D01*
X55767857Y-88617857D01*
X55732142Y-88760714D01*
X55732142Y-88867857D01*
X55767857Y-89010714D01*
X55803571Y-89082142D01*
X55875000Y-89153571D01*
X55982142Y-89189285D01*
X56160714Y-89189285D01*
X55446428Y-88510714D02*
X55410714Y-88475000D01*
X55339285Y-88439285D01*
X55160714Y-88439285D01*
X55089285Y-88475000D01*
X55053571Y-88510714D01*
X55017857Y-88582142D01*
X55017857Y-88653571D01*
X55053571Y-88760714D01*
X55482142Y-89189285D01*
X55017857Y-89189285D01*
X54375000Y-88439285D02*
X54517857Y-88439285D01*
X54589285Y-88475000D01*
X54625000Y-88510714D01*
X54696428Y-88617857D01*
X54732142Y-88760714D01*
X54732142Y-89046428D01*
X54696428Y-89117857D01*
X54660714Y-89153571D01*
X54589285Y-89189285D01*
X54446428Y-89189285D01*
X54375000Y-89153571D01*
X54339285Y-89117857D01*
X54303571Y-89046428D01*
X54303571Y-88867857D01*
X54339285Y-88796428D01*
X54375000Y-88760714D01*
X54446428Y-88725000D01*
X54589285Y-88725000D01*
X54660714Y-88760714D01*
X54696428Y-88796428D01*
X54732142Y-88867857D01*
X48589285Y-105517857D02*
X48232142Y-105267857D01*
X48589285Y-105089285D02*
X47839285Y-105089285D01*
X47839285Y-105375000D01*
X47875000Y-105446428D01*
X47910714Y-105482142D01*
X47982142Y-105517857D01*
X48089285Y-105517857D01*
X48160714Y-105482142D01*
X48196428Y-105446428D01*
X48232142Y-105375000D01*
X48232142Y-105089285D01*
X47839285Y-105767857D02*
X47839285Y-106232142D01*
X48125000Y-105982142D01*
X48125000Y-106089285D01*
X48160714Y-106160714D01*
X48196428Y-106196428D01*
X48267857Y-106232142D01*
X48446428Y-106232142D01*
X48517857Y-106196428D01*
X48553571Y-106160714D01*
X48589285Y-106089285D01*
X48589285Y-105875000D01*
X48553571Y-105803571D01*
X48517857Y-105767857D01*
X47839285Y-106875000D02*
X47839285Y-106732142D01*
X47875000Y-106660714D01*
X47910714Y-106625000D01*
X48017857Y-106553571D01*
X48160714Y-106517857D01*
X48446428Y-106517857D01*
X48517857Y-106553571D01*
X48553571Y-106589285D01*
X48589285Y-106660714D01*
X48589285Y-106803571D01*
X48553571Y-106875000D01*
X48517857Y-106910714D01*
X48446428Y-106946428D01*
X48267857Y-106946428D01*
X48196428Y-106910714D01*
X48160714Y-106875000D01*
X48125000Y-106803571D01*
X48125000Y-106660714D01*
X48160714Y-106589285D01*
X48196428Y-106553571D01*
X48267857Y-106517857D01*
X55660714Y-98339285D02*
X55660714Y-97589285D01*
X55482142Y-97589285D01*
X55375000Y-97625000D01*
X55303571Y-97696428D01*
X55267857Y-97767857D01*
X55232142Y-97910714D01*
X55232142Y-98017857D01*
X55267857Y-98160714D01*
X55303571Y-98232142D01*
X55375000Y-98303571D01*
X55482142Y-98339285D01*
X55660714Y-98339285D01*
X54982142Y-97589285D02*
X54517857Y-97589285D01*
X54767857Y-97875000D01*
X54660714Y-97875000D01*
X54589285Y-97910714D01*
X54553571Y-97946428D01*
X54517857Y-98017857D01*
X54517857Y-98196428D01*
X54553571Y-98267857D01*
X54589285Y-98303571D01*
X54660714Y-98339285D01*
X54875000Y-98339285D01*
X54946428Y-98303571D01*
X54982142Y-98267857D01*
X54232142Y-97660714D02*
X54196428Y-97625000D01*
X54125000Y-97589285D01*
X53946428Y-97589285D01*
X53875000Y-97625000D01*
X53839285Y-97660714D01*
X53803571Y-97732142D01*
X53803571Y-97803571D01*
X53839285Y-97910714D01*
X54267857Y-98339285D01*
X53803571Y-98339285D01*
X51696428Y-66410714D02*
X51767857Y-66375000D01*
X51839285Y-66303571D01*
X51946428Y-66196428D01*
X52017857Y-66160714D01*
X52089285Y-66160714D01*
X52053571Y-66339285D02*
X52125000Y-66303571D01*
X52196428Y-66232142D01*
X52232142Y-66089285D01*
X52232142Y-65839285D01*
X52196428Y-65696428D01*
X52125000Y-65625000D01*
X52053571Y-65589285D01*
X51910714Y-65589285D01*
X51839285Y-65625000D01*
X51767857Y-65696428D01*
X51732142Y-65839285D01*
X51732142Y-66089285D01*
X51767857Y-66232142D01*
X51839285Y-66303571D01*
X51910714Y-66339285D01*
X52053571Y-66339285D01*
X51089285Y-65589285D02*
X51232142Y-65589285D01*
X51303571Y-65625000D01*
X51339285Y-65660714D01*
X51410714Y-65767857D01*
X51446428Y-65910714D01*
X51446428Y-66196428D01*
X51410714Y-66267857D01*
X51375000Y-66303571D01*
X51303571Y-66339285D01*
X51160714Y-66339285D01*
X51089285Y-66303571D01*
X51053571Y-66267857D01*
X51017857Y-66196428D01*
X51017857Y-66017857D01*
X51053571Y-65946428D01*
X51089285Y-65910714D01*
X51160714Y-65875000D01*
X51303571Y-65875000D01*
X51375000Y-65910714D01*
X51410714Y-65946428D01*
X51446428Y-66017857D01*
X82535714Y-30464285D02*
X82535714Y-29714285D01*
X82357142Y-29714285D01*
X82250000Y-29750000D01*
X82178571Y-29821428D01*
X82142857Y-29892857D01*
X82107142Y-30035714D01*
X82107142Y-30142857D01*
X82142857Y-30285714D01*
X82178571Y-30357142D01*
X82250000Y-30428571D01*
X82357142Y-30464285D01*
X82535714Y-30464285D01*
X81821428Y-29785714D02*
X81785714Y-29750000D01*
X81714285Y-29714285D01*
X81535714Y-29714285D01*
X81464285Y-29750000D01*
X81428571Y-29785714D01*
X81392857Y-29857142D01*
X81392857Y-29928571D01*
X81428571Y-30035714D01*
X81857142Y-30464285D01*
X81392857Y-30464285D01*
X80750000Y-29964285D02*
X80750000Y-30464285D01*
X80928571Y-29678571D02*
X81107142Y-30214285D01*
X80642857Y-30214285D01*
X63125000Y-34517857D02*
X63160714Y-34553571D01*
X63267857Y-34589285D01*
X63339285Y-34589285D01*
X63446428Y-34553571D01*
X63517857Y-34482142D01*
X63553571Y-34410714D01*
X63589285Y-34267857D01*
X63589285Y-34160714D01*
X63553571Y-34017857D01*
X63517857Y-33946428D01*
X63446428Y-33875000D01*
X63339285Y-33839285D01*
X63267857Y-33839285D01*
X63160714Y-33875000D01*
X63125000Y-33910714D01*
X62839285Y-33910714D02*
X62803571Y-33875000D01*
X62732142Y-33839285D01*
X62553571Y-33839285D01*
X62482142Y-33875000D01*
X62446428Y-33910714D01*
X62410714Y-33982142D01*
X62410714Y-34053571D01*
X62446428Y-34160714D01*
X62875000Y-34589285D01*
X62410714Y-34589285D01*
X35821428Y-67410714D02*
X35892857Y-67375000D01*
X35964285Y-67303571D01*
X36071428Y-67196428D01*
X36142857Y-67160714D01*
X36214285Y-67160714D01*
X36178571Y-67339285D02*
X36250000Y-67303571D01*
X36321428Y-67232142D01*
X36357142Y-67089285D01*
X36357142Y-66839285D01*
X36321428Y-66696428D01*
X36250000Y-66625000D01*
X36178571Y-66589285D01*
X36035714Y-66589285D01*
X35964285Y-66625000D01*
X35892857Y-66696428D01*
X35857142Y-66839285D01*
X35857142Y-67089285D01*
X35892857Y-67232142D01*
X35964285Y-67303571D01*
X36035714Y-67339285D01*
X36178571Y-67339285D01*
X35571428Y-66660714D02*
X35535714Y-66625000D01*
X35464285Y-66589285D01*
X35285714Y-66589285D01*
X35214285Y-66625000D01*
X35178571Y-66660714D01*
X35142857Y-66732142D01*
X35142857Y-66803571D01*
X35178571Y-66910714D01*
X35607142Y-67339285D01*
X35142857Y-67339285D01*
X66589285Y-46267857D02*
X66232142Y-46017857D01*
X66589285Y-45839285D02*
X65839285Y-45839285D01*
X65839285Y-46125000D01*
X65875000Y-46196428D01*
X65910714Y-46232142D01*
X65982142Y-46267857D01*
X66089285Y-46267857D01*
X66160714Y-46232142D01*
X66196428Y-46196428D01*
X66232142Y-46125000D01*
X66232142Y-45839285D01*
X65910714Y-46553571D02*
X65875000Y-46589285D01*
X65839285Y-46660714D01*
X65839285Y-46839285D01*
X65875000Y-46910714D01*
X65910714Y-46946428D01*
X65982142Y-46982142D01*
X66053571Y-46982142D01*
X66160714Y-46946428D01*
X66589285Y-46517857D01*
X66589285Y-46982142D01*
X66089285Y-47625000D02*
X66589285Y-47625000D01*
X65803571Y-47446428D02*
X66339285Y-47267857D01*
X66339285Y-47732142D01*
X41460714Y-110139285D02*
X41460714Y-109389285D01*
X41282142Y-109389285D01*
X41175000Y-109425000D01*
X41103571Y-109496428D01*
X41067857Y-109567857D01*
X41032142Y-109710714D01*
X41032142Y-109817857D01*
X41067857Y-109960714D01*
X41103571Y-110032142D01*
X41175000Y-110103571D01*
X41282142Y-110139285D01*
X41460714Y-110139285D01*
X40317857Y-110139285D02*
X40746428Y-110139285D01*
X40532142Y-110139285D02*
X40532142Y-109389285D01*
X40603571Y-109496428D01*
X40675000Y-109567857D01*
X40746428Y-109603571D01*
X39675000Y-109389285D02*
X39817857Y-109389285D01*
X39889285Y-109425000D01*
X39925000Y-109460714D01*
X39996428Y-109567857D01*
X40032142Y-109710714D01*
X40032142Y-109996428D01*
X39996428Y-110067857D01*
X39960714Y-110103571D01*
X39889285Y-110139285D01*
X39746428Y-110139285D01*
X39675000Y-110103571D01*
X39639285Y-110067857D01*
X39603571Y-109996428D01*
X39603571Y-109817857D01*
X39639285Y-109746428D01*
X39675000Y-109710714D01*
X39746428Y-109675000D01*
X39889285Y-109675000D01*
X39960714Y-109710714D01*
X39996428Y-109746428D01*
X40032142Y-109817857D01*
X56589285Y-46505357D02*
X56232142Y-46255357D01*
X56589285Y-46076785D02*
X55839285Y-46076785D01*
X55839285Y-46362500D01*
X55875000Y-46433928D01*
X55910714Y-46469642D01*
X55982142Y-46505357D01*
X56089285Y-46505357D01*
X56160714Y-46469642D01*
X56196428Y-46433928D01*
X56232142Y-46362500D01*
X56232142Y-46076785D01*
X55839285Y-46755357D02*
X55839285Y-47219642D01*
X56125000Y-46969642D01*
X56125000Y-47076785D01*
X56160714Y-47148214D01*
X56196428Y-47183928D01*
X56267857Y-47219642D01*
X56446428Y-47219642D01*
X56517857Y-47183928D01*
X56553571Y-47148214D01*
X56589285Y-47076785D01*
X56589285Y-46862500D01*
X56553571Y-46791071D01*
X56517857Y-46755357D01*
X55910714Y-47505357D02*
X55875000Y-47541071D01*
X55839285Y-47612500D01*
X55839285Y-47791071D01*
X55875000Y-47862500D01*
X55910714Y-47898214D01*
X55982142Y-47933928D01*
X56053571Y-47933928D01*
X56160714Y-47898214D01*
X56589285Y-47469642D01*
X56589285Y-47933928D01*
X81800000Y-57896428D02*
X82050000Y-57896428D01*
X82050000Y-58289285D02*
X82050000Y-57539285D01*
X81692857Y-57539285D01*
X81478571Y-57539285D02*
X81014285Y-57539285D01*
X81264285Y-57825000D01*
X81157142Y-57825000D01*
X81085714Y-57860714D01*
X81050000Y-57896428D01*
X81014285Y-57967857D01*
X81014285Y-58146428D01*
X81050000Y-58217857D01*
X81085714Y-58253571D01*
X81157142Y-58289285D01*
X81371428Y-58289285D01*
X81442857Y-58253571D01*
X81478571Y-58217857D01*
X31010714Y-38514285D02*
X31010714Y-37764285D01*
X30832142Y-37764285D01*
X30725000Y-37800000D01*
X30653571Y-37871428D01*
X30617857Y-37942857D01*
X30582142Y-38085714D01*
X30582142Y-38192857D01*
X30617857Y-38335714D01*
X30653571Y-38407142D01*
X30725000Y-38478571D01*
X30832142Y-38514285D01*
X31010714Y-38514285D01*
X30332142Y-37764285D02*
X29867857Y-37764285D01*
X30117857Y-38050000D01*
X30010714Y-38050000D01*
X29939285Y-38085714D01*
X29903571Y-38121428D01*
X29867857Y-38192857D01*
X29867857Y-38371428D01*
X29903571Y-38442857D01*
X29939285Y-38478571D01*
X30010714Y-38514285D01*
X30225000Y-38514285D01*
X30296428Y-38478571D01*
X30332142Y-38442857D01*
X29225000Y-37764285D02*
X29367857Y-37764285D01*
X29439285Y-37800000D01*
X29475000Y-37835714D01*
X29546428Y-37942857D01*
X29582142Y-38085714D01*
X29582142Y-38371428D01*
X29546428Y-38442857D01*
X29510714Y-38478571D01*
X29439285Y-38514285D01*
X29296428Y-38514285D01*
X29225000Y-38478571D01*
X29189285Y-38442857D01*
X29153571Y-38371428D01*
X29153571Y-38192857D01*
X29189285Y-38121428D01*
X29225000Y-38085714D01*
X29296428Y-38050000D01*
X29439285Y-38050000D01*
X29510714Y-38085714D01*
X29546428Y-38121428D01*
X29582142Y-38192857D01*
X36232142Y-114589285D02*
X36482142Y-114232142D01*
X36660714Y-114589285D02*
X36660714Y-113839285D01*
X36375000Y-113839285D01*
X36303571Y-113875000D01*
X36267857Y-113910714D01*
X36232142Y-113982142D01*
X36232142Y-114089285D01*
X36267857Y-114160714D01*
X36303571Y-114196428D01*
X36375000Y-114232142D01*
X36660714Y-114232142D01*
X35982142Y-113839285D02*
X35517857Y-113839285D01*
X35767857Y-114125000D01*
X35660714Y-114125000D01*
X35589285Y-114160714D01*
X35553571Y-114196428D01*
X35517857Y-114267857D01*
X35517857Y-114446428D01*
X35553571Y-114517857D01*
X35589285Y-114553571D01*
X35660714Y-114589285D01*
X35875000Y-114589285D01*
X35946428Y-114553571D01*
X35982142Y-114517857D01*
X34803571Y-114589285D02*
X35232142Y-114589285D01*
X35017857Y-114589285D02*
X35017857Y-113839285D01*
X35089285Y-113946428D01*
X35160714Y-114017857D01*
X35232142Y-114053571D01*
X70500000Y-71046428D02*
X70750000Y-71046428D01*
X70750000Y-71439285D02*
X70750000Y-70689285D01*
X70392857Y-70689285D01*
X69714285Y-71439285D02*
X70142857Y-71439285D01*
X69928571Y-71439285D02*
X69928571Y-70689285D01*
X70000000Y-70796428D01*
X70071428Y-70867857D01*
X70142857Y-70903571D01*
X36232142Y-51989285D02*
X36482142Y-51632142D01*
X36660714Y-51989285D02*
X36660714Y-51239285D01*
X36375000Y-51239285D01*
X36303571Y-51275000D01*
X36267857Y-51310714D01*
X36232142Y-51382142D01*
X36232142Y-51489285D01*
X36267857Y-51560714D01*
X36303571Y-51596428D01*
X36375000Y-51632142D01*
X36660714Y-51632142D01*
X35946428Y-51310714D02*
X35910714Y-51275000D01*
X35839285Y-51239285D01*
X35660714Y-51239285D01*
X35589285Y-51275000D01*
X35553571Y-51310714D01*
X35517857Y-51382142D01*
X35517857Y-51453571D01*
X35553571Y-51560714D01*
X35982142Y-51989285D01*
X35517857Y-51989285D01*
X35160714Y-51989285D02*
X35017857Y-51989285D01*
X34946428Y-51953571D01*
X34910714Y-51917857D01*
X34839285Y-51810714D01*
X34803571Y-51667857D01*
X34803571Y-51382142D01*
X34839285Y-51310714D01*
X34875000Y-51275000D01*
X34946428Y-51239285D01*
X35089285Y-51239285D01*
X35160714Y-51275000D01*
X35196428Y-51310714D01*
X35232142Y-51382142D01*
X35232142Y-51560714D01*
X35196428Y-51632142D01*
X35160714Y-51667857D01*
X35089285Y-51703571D01*
X34946428Y-51703571D01*
X34875000Y-51667857D01*
X34839285Y-51632142D01*
X34803571Y-51560714D01*
X62589285Y-105267857D02*
X62232142Y-105017857D01*
X62589285Y-104839285D02*
X61839285Y-104839285D01*
X61839285Y-105125000D01*
X61875000Y-105196428D01*
X61910714Y-105232142D01*
X61982142Y-105267857D01*
X62089285Y-105267857D01*
X62160714Y-105232142D01*
X62196428Y-105196428D01*
X62232142Y-105125000D01*
X62232142Y-104839285D01*
X61910714Y-105553571D02*
X61875000Y-105589285D01*
X61839285Y-105660714D01*
X61839285Y-105839285D01*
X61875000Y-105910714D01*
X61910714Y-105946428D01*
X61982142Y-105982142D01*
X62053571Y-105982142D01*
X62160714Y-105946428D01*
X62589285Y-105517857D01*
X62589285Y-105982142D01*
X61839285Y-106625000D02*
X61839285Y-106482142D01*
X61875000Y-106410714D01*
X61910714Y-106375000D01*
X62017857Y-106303571D01*
X62160714Y-106267857D01*
X62446428Y-106267857D01*
X62517857Y-106303571D01*
X62553571Y-106339285D01*
X62589285Y-106410714D01*
X62589285Y-106553571D01*
X62553571Y-106625000D01*
X62517857Y-106660714D01*
X62446428Y-106696428D01*
X62267857Y-106696428D01*
X62196428Y-106660714D01*
X62160714Y-106625000D01*
X62125000Y-106553571D01*
X62125000Y-106410714D01*
X62160714Y-106339285D01*
X62196428Y-106303571D01*
X62267857Y-106267857D01*
X70103571Y-117489285D02*
X70103571Y-116739285D01*
X69925000Y-116739285D01*
X69817857Y-116775000D01*
X69746428Y-116846428D01*
X69710714Y-116917857D01*
X69675000Y-117060714D01*
X69675000Y-117167857D01*
X69710714Y-117310714D01*
X69746428Y-117382142D01*
X69817857Y-117453571D01*
X69925000Y-117489285D01*
X70103571Y-117489285D01*
X69425000Y-116739285D02*
X68925000Y-116739285D01*
X69246428Y-117489285D01*
X69135714Y-128264285D02*
X69135714Y-127514285D01*
X68957142Y-127514285D01*
X68850000Y-127550000D01*
X68778571Y-127621428D01*
X68742857Y-127692857D01*
X68707142Y-127835714D01*
X68707142Y-127942857D01*
X68742857Y-128085714D01*
X68778571Y-128157142D01*
X68850000Y-128228571D01*
X68957142Y-128264285D01*
X69135714Y-128264285D01*
X68421428Y-127585714D02*
X68385714Y-127550000D01*
X68314285Y-127514285D01*
X68135714Y-127514285D01*
X68064285Y-127550000D01*
X68028571Y-127585714D01*
X67992857Y-127657142D01*
X67992857Y-127728571D01*
X68028571Y-127835714D01*
X68457142Y-128264285D01*
X67992857Y-128264285D01*
X67742857Y-127514285D02*
X67278571Y-127514285D01*
X67528571Y-127800000D01*
X67421428Y-127800000D01*
X67350000Y-127835714D01*
X67314285Y-127871428D01*
X67278571Y-127942857D01*
X67278571Y-128121428D01*
X67314285Y-128192857D01*
X67350000Y-128228571D01*
X67421428Y-128264285D01*
X67635714Y-128264285D01*
X67707142Y-128228571D01*
X67742857Y-128192857D01*
X63160714Y-98064285D02*
X63160714Y-97314285D01*
X62982142Y-97314285D01*
X62875000Y-97350000D01*
X62803571Y-97421428D01*
X62767857Y-97492857D01*
X62732142Y-97635714D01*
X62732142Y-97742857D01*
X62767857Y-97885714D01*
X62803571Y-97957142D01*
X62875000Y-98028571D01*
X62982142Y-98064285D01*
X63160714Y-98064285D01*
X62017857Y-98064285D02*
X62446428Y-98064285D01*
X62232142Y-98064285D02*
X62232142Y-97314285D01*
X62303571Y-97421428D01*
X62375000Y-97492857D01*
X62446428Y-97528571D01*
X61589285Y-97635714D02*
X61660714Y-97600000D01*
X61696428Y-97564285D01*
X61732142Y-97492857D01*
X61732142Y-97457142D01*
X61696428Y-97385714D01*
X61660714Y-97350000D01*
X61589285Y-97314285D01*
X61446428Y-97314285D01*
X61375000Y-97350000D01*
X61339285Y-97385714D01*
X61303571Y-97457142D01*
X61303571Y-97492857D01*
X61339285Y-97564285D01*
X61375000Y-97600000D01*
X61446428Y-97635714D01*
X61589285Y-97635714D01*
X61660714Y-97671428D01*
X61696428Y-97707142D01*
X61732142Y-97778571D01*
X61732142Y-97921428D01*
X61696428Y-97992857D01*
X61660714Y-98028571D01*
X61589285Y-98064285D01*
X61446428Y-98064285D01*
X61375000Y-98028571D01*
X61339285Y-97992857D01*
X61303571Y-97921428D01*
X61303571Y-97778571D01*
X61339285Y-97707142D01*
X61375000Y-97671428D01*
X61446428Y-97635714D01*
X85800000Y-31196428D02*
X86050000Y-31196428D01*
X86050000Y-31589285D02*
X86050000Y-30839285D01*
X85692857Y-30839285D01*
X85050000Y-30839285D02*
X85407142Y-30839285D01*
X85442857Y-31196428D01*
X85407142Y-31160714D01*
X85335714Y-31125000D01*
X85157142Y-31125000D01*
X85085714Y-31160714D01*
X85050000Y-31196428D01*
X85014285Y-31267857D01*
X85014285Y-31446428D01*
X85050000Y-31517857D01*
X85085714Y-31553571D01*
X85157142Y-31589285D01*
X85335714Y-31589285D01*
X85407142Y-31553571D01*
X85442857Y-31517857D01*
X52860714Y-30164285D02*
X52860714Y-29414285D01*
X52682142Y-29414285D01*
X52575000Y-29450000D01*
X52503571Y-29521428D01*
X52467857Y-29592857D01*
X52432142Y-29735714D01*
X52432142Y-29842857D01*
X52467857Y-29985714D01*
X52503571Y-30057142D01*
X52575000Y-30128571D01*
X52682142Y-30164285D01*
X52860714Y-30164285D01*
X52182142Y-29414285D02*
X51717857Y-29414285D01*
X51967857Y-29700000D01*
X51860714Y-29700000D01*
X51789285Y-29735714D01*
X51753571Y-29771428D01*
X51717857Y-29842857D01*
X51717857Y-30021428D01*
X51753571Y-30092857D01*
X51789285Y-30128571D01*
X51860714Y-30164285D01*
X52075000Y-30164285D01*
X52146428Y-30128571D01*
X52182142Y-30092857D01*
X51075000Y-29664285D02*
X51075000Y-30164285D01*
X51253571Y-29378571D02*
X51432142Y-29914285D01*
X50967857Y-29914285D01*
X36803571Y-59839285D02*
X36803571Y-59089285D01*
X36625000Y-59089285D01*
X36517857Y-59125000D01*
X36446428Y-59196428D01*
X36410714Y-59267857D01*
X36375000Y-59410714D01*
X36375000Y-59517857D01*
X36410714Y-59660714D01*
X36446428Y-59732142D01*
X36517857Y-59803571D01*
X36625000Y-59839285D01*
X36803571Y-59839285D01*
X36089285Y-59160714D02*
X36053571Y-59125000D01*
X35982142Y-59089285D01*
X35803571Y-59089285D01*
X35732142Y-59125000D01*
X35696428Y-59160714D01*
X35660714Y-59232142D01*
X35660714Y-59303571D01*
X35696428Y-59410714D01*
X36125000Y-59839285D01*
X35660714Y-59839285D01*
X64628571Y-114539285D02*
X64628571Y-113789285D01*
X64450000Y-113789285D01*
X64342857Y-113825000D01*
X64271428Y-113896428D01*
X64235714Y-113967857D01*
X64200000Y-114110714D01*
X64200000Y-114217857D01*
X64235714Y-114360714D01*
X64271428Y-114432142D01*
X64342857Y-114503571D01*
X64450000Y-114539285D01*
X64628571Y-114539285D01*
X63950000Y-113789285D02*
X63485714Y-113789285D01*
X63735714Y-114075000D01*
X63628571Y-114075000D01*
X63557142Y-114110714D01*
X63521428Y-114146428D01*
X63485714Y-114217857D01*
X63485714Y-114396428D01*
X63521428Y-114467857D01*
X63557142Y-114503571D01*
X63628571Y-114539285D01*
X63842857Y-114539285D01*
X63914285Y-114503571D01*
X63950000Y-114467857D01*
X36232142Y-55589285D02*
X36482142Y-55232142D01*
X36660714Y-55589285D02*
X36660714Y-54839285D01*
X36375000Y-54839285D01*
X36303571Y-54875000D01*
X36267857Y-54910714D01*
X36232142Y-54982142D01*
X36232142Y-55089285D01*
X36267857Y-55160714D01*
X36303571Y-55196428D01*
X36375000Y-55232142D01*
X36660714Y-55232142D01*
X35982142Y-54839285D02*
X35517857Y-54839285D01*
X35767857Y-55125000D01*
X35660714Y-55125000D01*
X35589285Y-55160714D01*
X35553571Y-55196428D01*
X35517857Y-55267857D01*
X35517857Y-55446428D01*
X35553571Y-55517857D01*
X35589285Y-55553571D01*
X35660714Y-55589285D01*
X35875000Y-55589285D01*
X35946428Y-55553571D01*
X35982142Y-55517857D01*
X34803571Y-55589285D02*
X35232142Y-55589285D01*
X35017857Y-55589285D02*
X35017857Y-54839285D01*
X35089285Y-54946428D01*
X35160714Y-55017857D01*
X35232142Y-55053571D01*
X35500000Y-71266428D02*
X35750000Y-71266428D01*
X35750000Y-71659285D02*
X35750000Y-70909285D01*
X35392857Y-70909285D01*
X35142857Y-70980714D02*
X35107142Y-70945000D01*
X35035714Y-70909285D01*
X34857142Y-70909285D01*
X34785714Y-70945000D01*
X34750000Y-70980714D01*
X34714285Y-71052142D01*
X34714285Y-71123571D01*
X34750000Y-71230714D01*
X35178571Y-71659285D01*
X34714285Y-71659285D01*
X71821428Y-125510714D02*
X71892857Y-125475000D01*
X71964285Y-125403571D01*
X72071428Y-125296428D01*
X72142857Y-125260714D01*
X72214285Y-125260714D01*
X72178571Y-125439285D02*
X72250000Y-125403571D01*
X72321428Y-125332142D01*
X72357142Y-125189285D01*
X72357142Y-124939285D01*
X72321428Y-124796428D01*
X72250000Y-124725000D01*
X72178571Y-124689285D01*
X72035714Y-124689285D01*
X71964285Y-124725000D01*
X71892857Y-124796428D01*
X71857142Y-124939285D01*
X71857142Y-125189285D01*
X71892857Y-125332142D01*
X71964285Y-125403571D01*
X72035714Y-125439285D01*
X72178571Y-125439285D01*
X71142857Y-125439285D02*
X71571428Y-125439285D01*
X71357142Y-125439285D02*
X71357142Y-124689285D01*
X71428571Y-124796428D01*
X71500000Y-124867857D01*
X71571428Y-124903571D01*
X51696428Y-125410714D02*
X51767857Y-125375000D01*
X51839285Y-125303571D01*
X51946428Y-125196428D01*
X52017857Y-125160714D01*
X52089285Y-125160714D01*
X52053571Y-125339285D02*
X52125000Y-125303571D01*
X52196428Y-125232142D01*
X52232142Y-125089285D01*
X52232142Y-124839285D01*
X52196428Y-124696428D01*
X52125000Y-124625000D01*
X52053571Y-124589285D01*
X51910714Y-124589285D01*
X51839285Y-124625000D01*
X51767857Y-124696428D01*
X51732142Y-124839285D01*
X51732142Y-125089285D01*
X51767857Y-125232142D01*
X51839285Y-125303571D01*
X51910714Y-125339285D01*
X52053571Y-125339285D01*
X51089285Y-124589285D02*
X51232142Y-124589285D01*
X51303571Y-124625000D01*
X51339285Y-124660714D01*
X51410714Y-124767857D01*
X51446428Y-124910714D01*
X51446428Y-125196428D01*
X51410714Y-125267857D01*
X51375000Y-125303571D01*
X51303571Y-125339285D01*
X51160714Y-125339285D01*
X51089285Y-125303571D01*
X51053571Y-125267857D01*
X51017857Y-125196428D01*
X51017857Y-125017857D01*
X51053571Y-124946428D01*
X51089285Y-124910714D01*
X51160714Y-124875000D01*
X51303571Y-124875000D01*
X51375000Y-124910714D01*
X51410714Y-124946428D01*
X51446428Y-125017857D01*
X37525000Y-30167857D02*
X37560714Y-30203571D01*
X37667857Y-30239285D01*
X37739285Y-30239285D01*
X37846428Y-30203571D01*
X37917857Y-30132142D01*
X37953571Y-30060714D01*
X37989285Y-29917857D01*
X37989285Y-29810714D01*
X37953571Y-29667857D01*
X37917857Y-29596428D01*
X37846428Y-29525000D01*
X37739285Y-29489285D01*
X37667857Y-29489285D01*
X37560714Y-29525000D01*
X37525000Y-29560714D01*
X37096428Y-29810714D02*
X37167857Y-29775000D01*
X37203571Y-29739285D01*
X37239285Y-29667857D01*
X37239285Y-29632142D01*
X37203571Y-29560714D01*
X37167857Y-29525000D01*
X37096428Y-29489285D01*
X36953571Y-29489285D01*
X36882142Y-29525000D01*
X36846428Y-29560714D01*
X36810714Y-29632142D01*
X36810714Y-29667857D01*
X36846428Y-29739285D01*
X36882142Y-29775000D01*
X36953571Y-29810714D01*
X37096428Y-29810714D01*
X37167857Y-29846428D01*
X37203571Y-29882142D01*
X37239285Y-29953571D01*
X37239285Y-30096428D01*
X37203571Y-30167857D01*
X37167857Y-30203571D01*
X37096428Y-30239285D01*
X36953571Y-30239285D01*
X36882142Y-30203571D01*
X36846428Y-30167857D01*
X36810714Y-30096428D01*
X36810714Y-29953571D01*
X36846428Y-29882142D01*
X36882142Y-29846428D01*
X36953571Y-29810714D01*
X62589285Y-46267857D02*
X62232142Y-46017857D01*
X62589285Y-45839285D02*
X61839285Y-45839285D01*
X61839285Y-46125000D01*
X61875000Y-46196428D01*
X61910714Y-46232142D01*
X61982142Y-46267857D01*
X62089285Y-46267857D01*
X62160714Y-46232142D01*
X62196428Y-46196428D01*
X62232142Y-46125000D01*
X62232142Y-45839285D01*
X61910714Y-46553571D02*
X61875000Y-46589285D01*
X61839285Y-46660714D01*
X61839285Y-46839285D01*
X61875000Y-46910714D01*
X61910714Y-46946428D01*
X61982142Y-46982142D01*
X62053571Y-46982142D01*
X62160714Y-46946428D01*
X62589285Y-46517857D01*
X62589285Y-46982142D01*
X61839285Y-47625000D02*
X61839285Y-47482142D01*
X61875000Y-47410714D01*
X61910714Y-47375000D01*
X62017857Y-47303571D01*
X62160714Y-47267857D01*
X62446428Y-47267857D01*
X62517857Y-47303571D01*
X62553571Y-47339285D01*
X62589285Y-47410714D01*
X62589285Y-47553571D01*
X62553571Y-47625000D01*
X62517857Y-47660714D01*
X62446428Y-47696428D01*
X62267857Y-47696428D01*
X62196428Y-47660714D01*
X62160714Y-47625000D01*
X62125000Y-47553571D01*
X62125000Y-47410714D01*
X62160714Y-47339285D01*
X62196428Y-47303571D01*
X62267857Y-47267857D01*
X49228571Y-120439285D02*
X49228571Y-119689285D01*
X49050000Y-119689285D01*
X48942857Y-119725000D01*
X48871428Y-119796428D01*
X48835714Y-119867857D01*
X48800000Y-120010714D01*
X48800000Y-120117857D01*
X48835714Y-120260714D01*
X48871428Y-120332142D01*
X48942857Y-120403571D01*
X49050000Y-120439285D01*
X49228571Y-120439285D01*
X48371428Y-120010714D02*
X48442857Y-119975000D01*
X48478571Y-119939285D01*
X48514285Y-119867857D01*
X48514285Y-119832142D01*
X48478571Y-119760714D01*
X48442857Y-119725000D01*
X48371428Y-119689285D01*
X48228571Y-119689285D01*
X48157142Y-119725000D01*
X48121428Y-119760714D01*
X48085714Y-119832142D01*
X48085714Y-119867857D01*
X48121428Y-119939285D01*
X48157142Y-119975000D01*
X48228571Y-120010714D01*
X48371428Y-120010714D01*
X48442857Y-120046428D01*
X48478571Y-120082142D01*
X48514285Y-120153571D01*
X48514285Y-120296428D01*
X48478571Y-120367857D01*
X48442857Y-120403571D01*
X48371428Y-120439285D01*
X48228571Y-120439285D01*
X48157142Y-120403571D01*
X48121428Y-120367857D01*
X48085714Y-120296428D01*
X48085714Y-120153571D01*
X48121428Y-120082142D01*
X48157142Y-120046428D01*
X48228571Y-120010714D01*
X52589285Y-46517857D02*
X52232142Y-46267857D01*
X52589285Y-46089285D02*
X51839285Y-46089285D01*
X51839285Y-46375000D01*
X51875000Y-46446428D01*
X51910714Y-46482142D01*
X51982142Y-46517857D01*
X52089285Y-46517857D01*
X52160714Y-46482142D01*
X52196428Y-46446428D01*
X52232142Y-46375000D01*
X52232142Y-46089285D01*
X51839285Y-46767857D02*
X51839285Y-47232142D01*
X52125000Y-46982142D01*
X52125000Y-47089285D01*
X52160714Y-47160714D01*
X52196428Y-47196428D01*
X52267857Y-47232142D01*
X52446428Y-47232142D01*
X52517857Y-47196428D01*
X52553571Y-47160714D01*
X52589285Y-47089285D01*
X52589285Y-46875000D01*
X52553571Y-46803571D01*
X52517857Y-46767857D01*
X52089285Y-47875000D02*
X52589285Y-47875000D01*
X51803571Y-47696428D02*
X52339285Y-47517857D01*
X52339285Y-47982142D01*
X63160714Y-39064285D02*
X63160714Y-38314285D01*
X62982142Y-38314285D01*
X62875000Y-38350000D01*
X62803571Y-38421428D01*
X62767857Y-38492857D01*
X62732142Y-38635714D01*
X62732142Y-38742857D01*
X62767857Y-38885714D01*
X62803571Y-38957142D01*
X62875000Y-39028571D01*
X62982142Y-39064285D01*
X63160714Y-39064285D01*
X62017857Y-39064285D02*
X62446428Y-39064285D01*
X62232142Y-39064285D02*
X62232142Y-38314285D01*
X62303571Y-38421428D01*
X62375000Y-38492857D01*
X62446428Y-38528571D01*
X61589285Y-38635714D02*
X61660714Y-38600000D01*
X61696428Y-38564285D01*
X61732142Y-38492857D01*
X61732142Y-38457142D01*
X61696428Y-38385714D01*
X61660714Y-38350000D01*
X61589285Y-38314285D01*
X61446428Y-38314285D01*
X61375000Y-38350000D01*
X61339285Y-38385714D01*
X61303571Y-38457142D01*
X61303571Y-38492857D01*
X61339285Y-38564285D01*
X61375000Y-38600000D01*
X61446428Y-38635714D01*
X61589285Y-38635714D01*
X61660714Y-38671428D01*
X61696428Y-38707142D01*
X61732142Y-38778571D01*
X61732142Y-38921428D01*
X61696428Y-38992857D01*
X61660714Y-39028571D01*
X61589285Y-39064285D01*
X61446428Y-39064285D01*
X61375000Y-39028571D01*
X61339285Y-38992857D01*
X61303571Y-38921428D01*
X61303571Y-38778571D01*
X61339285Y-38707142D01*
X61375000Y-38671428D01*
X61446428Y-38635714D01*
X46589285Y-46517857D02*
X46232142Y-46267857D01*
X46589285Y-46089285D02*
X45839285Y-46089285D01*
X45839285Y-46375000D01*
X45875000Y-46446428D01*
X45910714Y-46482142D01*
X45982142Y-46517857D01*
X46089285Y-46517857D01*
X46160714Y-46482142D01*
X46196428Y-46446428D01*
X46232142Y-46375000D01*
X46232142Y-46089285D01*
X45839285Y-46767857D02*
X45839285Y-47232142D01*
X46125000Y-46982142D01*
X46125000Y-47089285D01*
X46160714Y-47160714D01*
X46196428Y-47196428D01*
X46267857Y-47232142D01*
X46446428Y-47232142D01*
X46517857Y-47196428D01*
X46553571Y-47160714D01*
X46589285Y-47089285D01*
X46589285Y-46875000D01*
X46553571Y-46803571D01*
X46517857Y-46767857D01*
X45839285Y-47482142D02*
X45839285Y-47982142D01*
X46589285Y-47660714D01*
X36232142Y-110989285D02*
X36482142Y-110632142D01*
X36660714Y-110989285D02*
X36660714Y-110239285D01*
X36375000Y-110239285D01*
X36303571Y-110275000D01*
X36267857Y-110310714D01*
X36232142Y-110382142D01*
X36232142Y-110489285D01*
X36267857Y-110560714D01*
X36303571Y-110596428D01*
X36375000Y-110632142D01*
X36660714Y-110632142D01*
X35946428Y-110310714D02*
X35910714Y-110275000D01*
X35839285Y-110239285D01*
X35660714Y-110239285D01*
X35589285Y-110275000D01*
X35553571Y-110310714D01*
X35517857Y-110382142D01*
X35517857Y-110453571D01*
X35553571Y-110560714D01*
X35982142Y-110989285D01*
X35517857Y-110989285D01*
X35160714Y-110989285D02*
X35017857Y-110989285D01*
X34946428Y-110953571D01*
X34910714Y-110917857D01*
X34839285Y-110810714D01*
X34803571Y-110667857D01*
X34803571Y-110382142D01*
X34839285Y-110310714D01*
X34875000Y-110275000D01*
X34946428Y-110239285D01*
X35089285Y-110239285D01*
X35160714Y-110275000D01*
X35196428Y-110310714D01*
X35232142Y-110382142D01*
X35232142Y-110560714D01*
X35196428Y-110632142D01*
X35160714Y-110667857D01*
X35089285Y-110703571D01*
X34946428Y-110703571D01*
X34875000Y-110667857D01*
X34839285Y-110632142D01*
X34803571Y-110560714D01*
X35821428Y-126410714D02*
X35892857Y-126375000D01*
X35964285Y-126303571D01*
X36071428Y-126196428D01*
X36142857Y-126160714D01*
X36214285Y-126160714D01*
X36178571Y-126339285D02*
X36250000Y-126303571D01*
X36321428Y-126232142D01*
X36357142Y-126089285D01*
X36357142Y-125839285D01*
X36321428Y-125696428D01*
X36250000Y-125625000D01*
X36178571Y-125589285D01*
X36035714Y-125589285D01*
X35964285Y-125625000D01*
X35892857Y-125696428D01*
X35857142Y-125839285D01*
X35857142Y-126089285D01*
X35892857Y-126232142D01*
X35964285Y-126303571D01*
X36035714Y-126339285D01*
X36178571Y-126339285D01*
X35571428Y-125660714D02*
X35535714Y-125625000D01*
X35464285Y-125589285D01*
X35285714Y-125589285D01*
X35214285Y-125625000D01*
X35178571Y-125660714D01*
X35142857Y-125732142D01*
X35142857Y-125803571D01*
X35178571Y-125910714D01*
X35607142Y-126339285D01*
X35142857Y-126339285D01*
X52589285Y-105517857D02*
X52232142Y-105267857D01*
X52589285Y-105089285D02*
X51839285Y-105089285D01*
X51839285Y-105375000D01*
X51875000Y-105446428D01*
X51910714Y-105482142D01*
X51982142Y-105517857D01*
X52089285Y-105517857D01*
X52160714Y-105482142D01*
X52196428Y-105446428D01*
X52232142Y-105375000D01*
X52232142Y-105089285D01*
X51839285Y-105767857D02*
X51839285Y-106232142D01*
X52125000Y-105982142D01*
X52125000Y-106089285D01*
X52160714Y-106160714D01*
X52196428Y-106196428D01*
X52267857Y-106232142D01*
X52446428Y-106232142D01*
X52517857Y-106196428D01*
X52553571Y-106160714D01*
X52589285Y-106089285D01*
X52589285Y-105875000D01*
X52553571Y-105803571D01*
X52517857Y-105767857D01*
X52089285Y-106875000D02*
X52589285Y-106875000D01*
X51803571Y-106696428D02*
X52339285Y-106517857D01*
X52339285Y-106982142D01*
X50589285Y-46505357D02*
X50232142Y-46255357D01*
X50589285Y-46076785D02*
X49839285Y-46076785D01*
X49839285Y-46362500D01*
X49875000Y-46433928D01*
X49910714Y-46469642D01*
X49982142Y-46505357D01*
X50089285Y-46505357D01*
X50160714Y-46469642D01*
X50196428Y-46433928D01*
X50232142Y-46362500D01*
X50232142Y-46076785D01*
X49839285Y-46755357D02*
X49839285Y-47219642D01*
X50125000Y-46969642D01*
X50125000Y-47076785D01*
X50160714Y-47148214D01*
X50196428Y-47183928D01*
X50267857Y-47219642D01*
X50446428Y-47219642D01*
X50517857Y-47183928D01*
X50553571Y-47148214D01*
X50589285Y-47076785D01*
X50589285Y-46862500D01*
X50553571Y-46791071D01*
X50517857Y-46755357D01*
X49839285Y-47898214D02*
X49839285Y-47541071D01*
X50196428Y-47505357D01*
X50160714Y-47541071D01*
X50125000Y-47612500D01*
X50125000Y-47791071D01*
X50160714Y-47862500D01*
X50196428Y-47898214D01*
X50267857Y-47933928D01*
X50446428Y-47933928D01*
X50517857Y-47898214D01*
X50553571Y-47862500D01*
X50589285Y-47791071D01*
X50589285Y-47612500D01*
X50553571Y-47541071D01*
X50517857Y-47505357D01*
X36232142Y-109189285D02*
X36482142Y-108832142D01*
X36660714Y-109189285D02*
X36660714Y-108439285D01*
X36375000Y-108439285D01*
X36303571Y-108475000D01*
X36267857Y-108510714D01*
X36232142Y-108582142D01*
X36232142Y-108689285D01*
X36267857Y-108760714D01*
X36303571Y-108796428D01*
X36375000Y-108832142D01*
X36660714Y-108832142D01*
X35982142Y-108439285D02*
X35517857Y-108439285D01*
X35767857Y-108725000D01*
X35660714Y-108725000D01*
X35589285Y-108760714D01*
X35553571Y-108796428D01*
X35517857Y-108867857D01*
X35517857Y-109046428D01*
X35553571Y-109117857D01*
X35589285Y-109153571D01*
X35660714Y-109189285D01*
X35875000Y-109189285D01*
X35946428Y-109153571D01*
X35982142Y-109117857D01*
X35089285Y-108760714D02*
X35160714Y-108725000D01*
X35196428Y-108689285D01*
X35232142Y-108617857D01*
X35232142Y-108582142D01*
X35196428Y-108510714D01*
X35160714Y-108475000D01*
X35089285Y-108439285D01*
X34946428Y-108439285D01*
X34875000Y-108475000D01*
X34839285Y-108510714D01*
X34803571Y-108582142D01*
X34803571Y-108617857D01*
X34839285Y-108689285D01*
X34875000Y-108725000D01*
X34946428Y-108760714D01*
X35089285Y-108760714D01*
X35160714Y-108796428D01*
X35196428Y-108832142D01*
X35232142Y-108903571D01*
X35232142Y-109046428D01*
X35196428Y-109117857D01*
X35160714Y-109153571D01*
X35089285Y-109189285D01*
X34946428Y-109189285D01*
X34875000Y-109153571D01*
X34839285Y-109117857D01*
X34803571Y-109046428D01*
X34803571Y-108903571D01*
X34839285Y-108832142D01*
X34875000Y-108796428D01*
X34946428Y-108760714D01*
X52160714Y-98339285D02*
X52160714Y-97589285D01*
X51982142Y-97589285D01*
X51875000Y-97625000D01*
X51803571Y-97696428D01*
X51767857Y-97767857D01*
X51732142Y-97910714D01*
X51732142Y-98017857D01*
X51767857Y-98160714D01*
X51803571Y-98232142D01*
X51875000Y-98303571D01*
X51982142Y-98339285D01*
X52160714Y-98339285D01*
X51482142Y-97589285D02*
X51017857Y-97589285D01*
X51267857Y-97875000D01*
X51160714Y-97875000D01*
X51089285Y-97910714D01*
X51053571Y-97946428D01*
X51017857Y-98017857D01*
X51017857Y-98196428D01*
X51053571Y-98267857D01*
X51089285Y-98303571D01*
X51160714Y-98339285D01*
X51375000Y-98339285D01*
X51446428Y-98303571D01*
X51482142Y-98267857D01*
X50767857Y-97589285D02*
X50303571Y-97589285D01*
X50553571Y-97875000D01*
X50446428Y-97875000D01*
X50375000Y-97910714D01*
X50339285Y-97946428D01*
X50303571Y-98017857D01*
X50303571Y-98196428D01*
X50339285Y-98267857D01*
X50375000Y-98303571D01*
X50446428Y-98339285D01*
X50660714Y-98339285D01*
X50732142Y-98303571D01*
X50767857Y-98267857D01*
X54589285Y-105517857D02*
X54232142Y-105267857D01*
X54589285Y-105089285D02*
X53839285Y-105089285D01*
X53839285Y-105375000D01*
X53875000Y-105446428D01*
X53910714Y-105482142D01*
X53982142Y-105517857D01*
X54089285Y-105517857D01*
X54160714Y-105482142D01*
X54196428Y-105446428D01*
X54232142Y-105375000D01*
X54232142Y-105089285D01*
X53839285Y-105767857D02*
X53839285Y-106232142D01*
X54125000Y-105982142D01*
X54125000Y-106089285D01*
X54160714Y-106160714D01*
X54196428Y-106196428D01*
X54267857Y-106232142D01*
X54446428Y-106232142D01*
X54517857Y-106196428D01*
X54553571Y-106160714D01*
X54589285Y-106089285D01*
X54589285Y-105875000D01*
X54553571Y-105803571D01*
X54517857Y-105767857D01*
X53839285Y-106482142D02*
X53839285Y-106946428D01*
X54125000Y-106696428D01*
X54125000Y-106803571D01*
X54160714Y-106875000D01*
X54196428Y-106910714D01*
X54267857Y-106946428D01*
X54446428Y-106946428D01*
X54517857Y-106910714D01*
X54553571Y-106875000D01*
X54589285Y-106803571D01*
X54589285Y-106589285D01*
X54553571Y-106517857D01*
X54517857Y-106482142D01*
X31010714Y-97514285D02*
X31010714Y-96764285D01*
X30832142Y-96764285D01*
X30725000Y-96800000D01*
X30653571Y-96871428D01*
X30617857Y-96942857D01*
X30582142Y-97085714D01*
X30582142Y-97192857D01*
X30617857Y-97335714D01*
X30653571Y-97407142D01*
X30725000Y-97478571D01*
X30832142Y-97514285D01*
X31010714Y-97514285D01*
X30332142Y-96764285D02*
X29867857Y-96764285D01*
X30117857Y-97050000D01*
X30010714Y-97050000D01*
X29939285Y-97085714D01*
X29903571Y-97121428D01*
X29867857Y-97192857D01*
X29867857Y-97371428D01*
X29903571Y-97442857D01*
X29939285Y-97478571D01*
X30010714Y-97514285D01*
X30225000Y-97514285D01*
X30296428Y-97478571D01*
X30332142Y-97442857D01*
X29225000Y-96764285D02*
X29367857Y-96764285D01*
X29439285Y-96800000D01*
X29475000Y-96835714D01*
X29546428Y-96942857D01*
X29582142Y-97085714D01*
X29582142Y-97371428D01*
X29546428Y-97442857D01*
X29510714Y-97478571D01*
X29439285Y-97514285D01*
X29296428Y-97514285D01*
X29225000Y-97478571D01*
X29189285Y-97442857D01*
X29153571Y-97371428D01*
X29153571Y-97192857D01*
X29189285Y-97121428D01*
X29225000Y-97085714D01*
X29296428Y-97050000D01*
X29439285Y-97050000D01*
X29510714Y-97085714D01*
X29546428Y-97121428D01*
X29582142Y-97192857D01*
X53460714Y-114814285D02*
X53460714Y-114064285D01*
X53282142Y-114064285D01*
X53175000Y-114100000D01*
X53103571Y-114171428D01*
X53067857Y-114242857D01*
X53032142Y-114385714D01*
X53032142Y-114492857D01*
X53067857Y-114635714D01*
X53103571Y-114707142D01*
X53175000Y-114778571D01*
X53282142Y-114814285D01*
X53460714Y-114814285D01*
X52746428Y-114135714D02*
X52710714Y-114100000D01*
X52639285Y-114064285D01*
X52460714Y-114064285D01*
X52389285Y-114100000D01*
X52353571Y-114135714D01*
X52317857Y-114207142D01*
X52317857Y-114278571D01*
X52353571Y-114385714D01*
X52782142Y-114814285D01*
X52317857Y-114814285D01*
X51639285Y-114064285D02*
X51996428Y-114064285D01*
X52032142Y-114421428D01*
X51996428Y-114385714D01*
X51925000Y-114350000D01*
X51746428Y-114350000D01*
X51675000Y-114385714D01*
X51639285Y-114421428D01*
X51603571Y-114492857D01*
X51603571Y-114671428D01*
X51639285Y-114742857D01*
X51675000Y-114778571D01*
X51746428Y-114814285D01*
X51925000Y-114814285D01*
X51996428Y-114778571D01*
X52032142Y-114742857D01*
X59785714Y-50864285D02*
X59785714Y-50114285D01*
X59607142Y-50114285D01*
X59500000Y-50150000D01*
X59428571Y-50221428D01*
X59392857Y-50292857D01*
X59357142Y-50435714D01*
X59357142Y-50542857D01*
X59392857Y-50685714D01*
X59428571Y-50757142D01*
X59500000Y-50828571D01*
X59607142Y-50864285D01*
X59785714Y-50864285D01*
X58642857Y-50864285D02*
X59071428Y-50864285D01*
X58857142Y-50864285D02*
X58857142Y-50114285D01*
X58928571Y-50221428D01*
X59000000Y-50292857D01*
X59071428Y-50328571D01*
X58392857Y-50114285D02*
X57928571Y-50114285D01*
X58178571Y-50400000D01*
X58071428Y-50400000D01*
X58000000Y-50435714D01*
X57964285Y-50471428D01*
X57928571Y-50542857D01*
X57928571Y-50721428D01*
X57964285Y-50792857D01*
X58000000Y-50828571D01*
X58071428Y-50864285D01*
X58285714Y-50864285D01*
X58357142Y-50828571D01*
X58392857Y-50792857D01*
X49410714Y-34139285D02*
X49410714Y-33389285D01*
X49232142Y-33389285D01*
X49125000Y-33425000D01*
X49053571Y-33496428D01*
X49017857Y-33567857D01*
X48982142Y-33710714D01*
X48982142Y-33817857D01*
X49017857Y-33960714D01*
X49053571Y-34032142D01*
X49125000Y-34103571D01*
X49232142Y-34139285D01*
X49410714Y-34139285D01*
X48732142Y-33389285D02*
X48267857Y-33389285D01*
X48517857Y-33675000D01*
X48410714Y-33675000D01*
X48339285Y-33710714D01*
X48303571Y-33746428D01*
X48267857Y-33817857D01*
X48267857Y-33996428D01*
X48303571Y-34067857D01*
X48339285Y-34103571D01*
X48410714Y-34139285D01*
X48625000Y-34139285D01*
X48696428Y-34103571D01*
X48732142Y-34067857D01*
X47589285Y-33389285D02*
X47946428Y-33389285D01*
X47982142Y-33746428D01*
X47946428Y-33710714D01*
X47875000Y-33675000D01*
X47696428Y-33675000D01*
X47625000Y-33710714D01*
X47589285Y-33746428D01*
X47553571Y-33817857D01*
X47553571Y-33996428D01*
X47589285Y-34067857D01*
X47625000Y-34103571D01*
X47696428Y-34139285D01*
X47875000Y-34139285D01*
X47946428Y-34103571D01*
X47982142Y-34067857D01*
X51225000Y-130296428D02*
X51475000Y-130296428D01*
X51475000Y-130689285D02*
X51475000Y-129939285D01*
X51117857Y-129939285D01*
X50510714Y-130189285D02*
X50510714Y-130689285D01*
X50689285Y-129903571D02*
X50867857Y-130439285D01*
X50403571Y-130439285D01*
X59785714Y-109864285D02*
X59785714Y-109114285D01*
X59607142Y-109114285D01*
X59500000Y-109150000D01*
X59428571Y-109221428D01*
X59392857Y-109292857D01*
X59357142Y-109435714D01*
X59357142Y-109542857D01*
X59392857Y-109685714D01*
X59428571Y-109757142D01*
X59500000Y-109828571D01*
X59607142Y-109864285D01*
X59785714Y-109864285D01*
X58642857Y-109864285D02*
X59071428Y-109864285D01*
X58857142Y-109864285D02*
X58857142Y-109114285D01*
X58928571Y-109221428D01*
X59000000Y-109292857D01*
X59071428Y-109328571D01*
X58392857Y-109114285D02*
X57928571Y-109114285D01*
X58178571Y-109400000D01*
X58071428Y-109400000D01*
X58000000Y-109435714D01*
X57964285Y-109471428D01*
X57928571Y-109542857D01*
X57928571Y-109721428D01*
X57964285Y-109792857D01*
X58000000Y-109828571D01*
X58071428Y-109864285D01*
X58285714Y-109864285D01*
X58357142Y-109828571D01*
X58392857Y-109792857D01*
X58335714Y-89164285D02*
X58335714Y-88414285D01*
X58157142Y-88414285D01*
X58050000Y-88450000D01*
X57978571Y-88521428D01*
X57942857Y-88592857D01*
X57907142Y-88735714D01*
X57907142Y-88842857D01*
X57942857Y-88985714D01*
X57978571Y-89057142D01*
X58050000Y-89128571D01*
X58157142Y-89164285D01*
X58335714Y-89164285D01*
X57621428Y-88485714D02*
X57585714Y-88450000D01*
X57514285Y-88414285D01*
X57335714Y-88414285D01*
X57264285Y-88450000D01*
X57228571Y-88485714D01*
X57192857Y-88557142D01*
X57192857Y-88628571D01*
X57228571Y-88735714D01*
X57657142Y-89164285D01*
X57192857Y-89164285D01*
X56907142Y-88485714D02*
X56871428Y-88450000D01*
X56800000Y-88414285D01*
X56621428Y-88414285D01*
X56550000Y-88450000D01*
X56514285Y-88485714D01*
X56478571Y-88557142D01*
X56478571Y-88628571D01*
X56514285Y-88735714D01*
X56942857Y-89164285D01*
X56478571Y-89164285D01*
X82535714Y-89464285D02*
X82535714Y-88714285D01*
X82357142Y-88714285D01*
X82250000Y-88750000D01*
X82178571Y-88821428D01*
X82142857Y-88892857D01*
X82107142Y-89035714D01*
X82107142Y-89142857D01*
X82142857Y-89285714D01*
X82178571Y-89357142D01*
X82250000Y-89428571D01*
X82357142Y-89464285D01*
X82535714Y-89464285D01*
X81821428Y-88785714D02*
X81785714Y-88750000D01*
X81714285Y-88714285D01*
X81535714Y-88714285D01*
X81464285Y-88750000D01*
X81428571Y-88785714D01*
X81392857Y-88857142D01*
X81392857Y-88928571D01*
X81428571Y-89035714D01*
X81857142Y-89464285D01*
X81392857Y-89464285D01*
X80750000Y-88964285D02*
X80750000Y-89464285D01*
X80928571Y-88678571D02*
X81107142Y-89214285D01*
X80642857Y-89214285D01*
X79210714Y-102389285D02*
X79210714Y-101639285D01*
X79032142Y-101639285D01*
X78925000Y-101675000D01*
X78853571Y-101746428D01*
X78817857Y-101817857D01*
X78782142Y-101960714D01*
X78782142Y-102067857D01*
X78817857Y-102210714D01*
X78853571Y-102282142D01*
X78925000Y-102353571D01*
X79032142Y-102389285D01*
X79210714Y-102389285D01*
X78067857Y-102389285D02*
X78496428Y-102389285D01*
X78282142Y-102389285D02*
X78282142Y-101639285D01*
X78353571Y-101746428D01*
X78425000Y-101817857D01*
X78496428Y-101853571D01*
X77353571Y-102389285D02*
X77782142Y-102389285D01*
X77567857Y-102389285D02*
X77567857Y-101639285D01*
X77639285Y-101746428D01*
X77710714Y-101817857D01*
X77782142Y-101853571D01*
X70500000Y-130046428D02*
X70750000Y-130046428D01*
X70750000Y-130439285D02*
X70750000Y-129689285D01*
X70392857Y-129689285D01*
X69714285Y-130439285D02*
X70142857Y-130439285D01*
X69928571Y-130439285D02*
X69928571Y-129689285D01*
X70000000Y-129796428D01*
X70071428Y-129867857D01*
X70142857Y-129903571D01*
X74821428Y-100160714D02*
X74892857Y-100125000D01*
X74964285Y-100053571D01*
X75071428Y-99946428D01*
X75142857Y-99910714D01*
X75214285Y-99910714D01*
X75178571Y-100089285D02*
X75250000Y-100053571D01*
X75321428Y-99982142D01*
X75357142Y-99839285D01*
X75357142Y-99589285D01*
X75321428Y-99446428D01*
X75250000Y-99375000D01*
X75178571Y-99339285D01*
X75035714Y-99339285D01*
X74964285Y-99375000D01*
X74892857Y-99446428D01*
X74857142Y-99589285D01*
X74857142Y-99839285D01*
X74892857Y-99982142D01*
X74964285Y-100053571D01*
X75035714Y-100089285D01*
X75178571Y-100089285D01*
X74607142Y-99339285D02*
X74107142Y-99339285D01*
X74428571Y-100089285D01*
X74821428Y-41160714D02*
X74892857Y-41125000D01*
X74964285Y-41053571D01*
X75071428Y-40946428D01*
X75142857Y-40910714D01*
X75214285Y-40910714D01*
X75178571Y-41089285D02*
X75250000Y-41053571D01*
X75321428Y-40982142D01*
X75357142Y-40839285D01*
X75357142Y-40589285D01*
X75321428Y-40446428D01*
X75250000Y-40375000D01*
X75178571Y-40339285D01*
X75035714Y-40339285D01*
X74964285Y-40375000D01*
X74892857Y-40446428D01*
X74857142Y-40589285D01*
X74857142Y-40839285D01*
X74892857Y-40982142D01*
X74964285Y-41053571D01*
X75035714Y-41089285D01*
X75178571Y-41089285D01*
X74607142Y-40339285D02*
X74107142Y-40339285D01*
X74428571Y-41089285D01*
X31632142Y-34692857D02*
X31667857Y-34728571D01*
X31775000Y-34764285D01*
X31846428Y-34764285D01*
X31953571Y-34728571D01*
X32025000Y-34657142D01*
X32060714Y-34585714D01*
X32096428Y-34442857D01*
X32096428Y-34335714D01*
X32060714Y-34192857D01*
X32025000Y-34121428D01*
X31953571Y-34050000D01*
X31846428Y-34014285D01*
X31775000Y-34014285D01*
X31667857Y-34050000D01*
X31632142Y-34085714D01*
X30917857Y-34764285D02*
X31346428Y-34764285D01*
X31132142Y-34764285D02*
X31132142Y-34014285D01*
X31203571Y-34121428D01*
X31275000Y-34192857D01*
X31346428Y-34228571D01*
X30667857Y-34014285D02*
X30203571Y-34014285D01*
X30453571Y-34300000D01*
X30346428Y-34300000D01*
X30275000Y-34335714D01*
X30239285Y-34371428D01*
X30203571Y-34442857D01*
X30203571Y-34621428D01*
X30239285Y-34692857D01*
X30275000Y-34728571D01*
X30346428Y-34764285D01*
X30560714Y-34764285D01*
X30632142Y-34728571D01*
X30667857Y-34692857D01*
X36232142Y-112789285D02*
X36482142Y-112432142D01*
X36660714Y-112789285D02*
X36660714Y-112039285D01*
X36375000Y-112039285D01*
X36303571Y-112075000D01*
X36267857Y-112110714D01*
X36232142Y-112182142D01*
X36232142Y-112289285D01*
X36267857Y-112360714D01*
X36303571Y-112396428D01*
X36375000Y-112432142D01*
X36660714Y-112432142D01*
X35982142Y-112039285D02*
X35517857Y-112039285D01*
X35767857Y-112325000D01*
X35660714Y-112325000D01*
X35589285Y-112360714D01*
X35553571Y-112396428D01*
X35517857Y-112467857D01*
X35517857Y-112646428D01*
X35553571Y-112717857D01*
X35589285Y-112753571D01*
X35660714Y-112789285D01*
X35875000Y-112789285D01*
X35946428Y-112753571D01*
X35982142Y-112717857D01*
X35053571Y-112039285D02*
X34982142Y-112039285D01*
X34910714Y-112075000D01*
X34875000Y-112110714D01*
X34839285Y-112182142D01*
X34803571Y-112325000D01*
X34803571Y-112503571D01*
X34839285Y-112646428D01*
X34875000Y-112717857D01*
X34910714Y-112753571D01*
X34982142Y-112789285D01*
X35053571Y-112789285D01*
X35125000Y-112753571D01*
X35160714Y-112717857D01*
X35196428Y-112646428D01*
X35232142Y-112503571D01*
X35232142Y-112325000D01*
X35196428Y-112182142D01*
X35160714Y-112110714D01*
X35125000Y-112075000D01*
X35053571Y-112039285D01*
X49228571Y-61439285D02*
X49228571Y-60689285D01*
X49050000Y-60689285D01*
X48942857Y-60725000D01*
X48871428Y-60796428D01*
X48835714Y-60867857D01*
X48800000Y-61010714D01*
X48800000Y-61117857D01*
X48835714Y-61260714D01*
X48871428Y-61332142D01*
X48942857Y-61403571D01*
X49050000Y-61439285D01*
X49228571Y-61439285D01*
X48371428Y-61010714D02*
X48442857Y-60975000D01*
X48478571Y-60939285D01*
X48514285Y-60867857D01*
X48514285Y-60832142D01*
X48478571Y-60760714D01*
X48442857Y-60725000D01*
X48371428Y-60689285D01*
X48228571Y-60689285D01*
X48157142Y-60725000D01*
X48121428Y-60760714D01*
X48085714Y-60832142D01*
X48085714Y-60867857D01*
X48121428Y-60939285D01*
X48157142Y-60975000D01*
X48228571Y-61010714D01*
X48371428Y-61010714D01*
X48442857Y-61046428D01*
X48478571Y-61082142D01*
X48514285Y-61153571D01*
X48514285Y-61296428D01*
X48478571Y-61367857D01*
X48442857Y-61403571D01*
X48371428Y-61439285D01*
X48228571Y-61439285D01*
X48157142Y-61403571D01*
X48121428Y-61367857D01*
X48085714Y-61296428D01*
X48085714Y-61153571D01*
X48121428Y-61082142D01*
X48157142Y-61046428D01*
X48228571Y-61010714D01*
X52160714Y-39339285D02*
X52160714Y-38589285D01*
X51982142Y-38589285D01*
X51875000Y-38625000D01*
X51803571Y-38696428D01*
X51767857Y-38767857D01*
X51732142Y-38910714D01*
X51732142Y-39017857D01*
X51767857Y-39160714D01*
X51803571Y-39232142D01*
X51875000Y-39303571D01*
X51982142Y-39339285D01*
X52160714Y-39339285D01*
X51482142Y-38589285D02*
X51017857Y-38589285D01*
X51267857Y-38875000D01*
X51160714Y-38875000D01*
X51089285Y-38910714D01*
X51053571Y-38946428D01*
X51017857Y-39017857D01*
X51017857Y-39196428D01*
X51053571Y-39267857D01*
X51089285Y-39303571D01*
X51160714Y-39339285D01*
X51375000Y-39339285D01*
X51446428Y-39303571D01*
X51482142Y-39267857D01*
X50767857Y-38589285D02*
X50303571Y-38589285D01*
X50553571Y-38875000D01*
X50446428Y-38875000D01*
X50375000Y-38910714D01*
X50339285Y-38946428D01*
X50303571Y-39017857D01*
X50303571Y-39196428D01*
X50339285Y-39267857D01*
X50375000Y-39303571D01*
X50446428Y-39339285D01*
X50660714Y-39339285D01*
X50732142Y-39303571D01*
X50767857Y-39267857D01*
X74821428Y-55660714D02*
X74892857Y-55625000D01*
X74964285Y-55553571D01*
X75071428Y-55446428D01*
X75142857Y-55410714D01*
X75214285Y-55410714D01*
X75178571Y-55589285D02*
X75250000Y-55553571D01*
X75321428Y-55482142D01*
X75357142Y-55339285D01*
X75357142Y-55089285D01*
X75321428Y-54946428D01*
X75250000Y-54875000D01*
X75178571Y-54839285D01*
X75035714Y-54839285D01*
X74964285Y-54875000D01*
X74892857Y-54946428D01*
X74857142Y-55089285D01*
X74857142Y-55339285D01*
X74892857Y-55482142D01*
X74964285Y-55553571D01*
X75035714Y-55589285D01*
X75178571Y-55589285D01*
X74607142Y-54839285D02*
X74142857Y-54839285D01*
X74392857Y-55125000D01*
X74285714Y-55125000D01*
X74214285Y-55160714D01*
X74178571Y-55196428D01*
X74142857Y-55267857D01*
X74142857Y-55446428D01*
X74178571Y-55517857D01*
X74214285Y-55553571D01*
X74285714Y-55589285D01*
X74500000Y-55589285D01*
X74571428Y-55553571D01*
X74607142Y-55517857D01*
X64628571Y-55539285D02*
X64628571Y-54789285D01*
X64450000Y-54789285D01*
X64342857Y-54825000D01*
X64271428Y-54896428D01*
X64235714Y-54967857D01*
X64200000Y-55110714D01*
X64200000Y-55217857D01*
X64235714Y-55360714D01*
X64271428Y-55432142D01*
X64342857Y-55503571D01*
X64450000Y-55539285D01*
X64628571Y-55539285D01*
X63950000Y-54789285D02*
X63485714Y-54789285D01*
X63735714Y-55075000D01*
X63628571Y-55075000D01*
X63557142Y-55110714D01*
X63521428Y-55146428D01*
X63485714Y-55217857D01*
X63485714Y-55396428D01*
X63521428Y-55467857D01*
X63557142Y-55503571D01*
X63628571Y-55539285D01*
X63842857Y-55539285D01*
X63914285Y-55503571D01*
X63950000Y-55467857D01*
X47775000Y-117150000D02*
X42375000Y-117150000D01*
X47775000Y-113850000D02*
X47775000Y-117150000D01*
X47775000Y-113850000D02*
X42375000Y-113850000D01*
X57800000Y-60000000D02*
X53500000Y-60000000D01*
X53500000Y-58000000D02*
X57800000Y-58000000D01*
X57800000Y-58000000D02*
X57800000Y-60000000D01*
X77350000Y-46900000D02*
X82750000Y-46900000D01*
X77350000Y-46900000D02*
X77350000Y-43600000D01*
X77350000Y-43600000D02*
X82750000Y-43600000D01*
X42850000Y-40700000D02*
X42850000Y-48000000D01*
X38550000Y-40700000D02*
X38550000Y-48000000D01*
X38550000Y-40700000D02*
X42850000Y-40700000D01*
X47775000Y-58150000D02*
X42375000Y-58150000D01*
X47775000Y-54850000D02*
X47775000Y-58150000D01*
X47775000Y-54850000D02*
X42375000Y-54850000D01*
X44350000Y-68100000D02*
X44350000Y-73500000D01*
X47650000Y-68100000D02*
X47650000Y-73500000D01*
X44350000Y-68100000D02*
X47650000Y-68100000D01*
X64350000Y-57650000D02*
X68650000Y-57650000D01*
X68650000Y-57650000D02*
X68650000Y-64950000D01*
X64350000Y-57650000D02*
X64350000Y-64950000D01*
X42909959Y-96373113D02*
X43776327Y-94515182D01*
X41392443Y-96504050D02*
X42580001Y-93957326D01*
X43221717Y-96272434D02*
X45645010Y-91075665D01*
X40319326Y-96247494D02*
X43760284Y-88868336D01*
X43676560Y-92173634D02*
X44824814Y-89711195D01*
X40820673Y-96405143D02*
X42072468Y-93720659D01*
X43785317Y-92224348D02*
X44911172Y-89809944D01*
X44727877Y-92663871D02*
X45564239Y-90870288D01*
X43132776Y-91920063D02*
X44365553Y-89276363D01*
X43722529Y-96050272D02*
X45796740Y-91602113D01*
X43096523Y-91903158D02*
X44333527Y-89250395D01*
X43275297Y-96252180D02*
X45663935Y-91129729D01*
X43168560Y-96291782D02*
X45625663Y-91022508D01*
X43640308Y-92156729D02*
X44795746Y-89678883D01*
X44499455Y-95519926D02*
X45889869Y-92538173D01*
X45123858Y-94843427D02*
X45772999Y-93451338D01*
X42185717Y-96506535D02*
X43232542Y-94261611D01*
X44088805Y-95832680D02*
X45865492Y-92022562D01*
X43350290Y-92021491D02*
X44554329Y-89439420D01*
X40701712Y-96373945D02*
X44102944Y-89079980D01*
X42467469Y-96470205D02*
X43450056Y-94363039D01*
X43314037Y-92004586D02*
X44523571Y-89410734D01*
X44582868Y-92596252D02*
X45477128Y-90678505D01*
X43060271Y-91886253D02*
X44301078Y-89225334D01*
X43383724Y-96208954D02*
X45700517Y-91240574D01*
X44653103Y-95379724D02*
X45881231Y-92745993D01*
X41102332Y-96463660D02*
X42326234Y-93838992D01*
X42419806Y-96477770D02*
X43413804Y-94346134D01*
X43712813Y-92190538D02*
X44853882Y-89743507D01*
X43329299Y-96231020D02*
X45682438Y-91184698D01*
X37040137Y-90667883D02*
X37378232Y-89942837D01*
X42278507Y-96496842D02*
X43305047Y-94295420D01*
X43963050Y-95913065D02*
X45846237Y-91874558D01*
X44437859Y-92528633D02*
X45384524Y-90498504D01*
X45259425Y-94647349D02*
X45709936Y-93681225D01*
X44355951Y-95638376D02*
X45888364Y-92352104D01*
X44287157Y-95691257D02*
X45884654Y-92265413D01*
X40170936Y-96187126D02*
X43618655Y-88793467D01*
X41736557Y-96523281D02*
X42870019Y-94092563D01*
X41692697Y-96522690D02*
X42833767Y-94075659D01*
X43841099Y-95985294D02*
X45823179Y-91734710D01*
X40980474Y-96441041D02*
X42217477Y-93788278D01*
X41605824Y-96519695D02*
X42761262Y-94041849D01*
X41649261Y-96521192D02*
X42797514Y-94058754D01*
X44111588Y-92376490D02*
X45158414Y-90131566D01*
X44219631Y-95741419D02*
X45879675Y-92181442D01*
X43567803Y-92122920D02*
X44736343Y-89616978D01*
X40741829Y-96384928D02*
X41999964Y-93686850D01*
X43901863Y-95949633D02*
X45834919Y-91804181D01*
X40508617Y-96314798D02*
X43933516Y-88970080D01*
X36846661Y-90136312D02*
X37571707Y-90474407D01*
X40356846Y-96261680D02*
X43795268Y-88887960D01*
X44426858Y-95580963D02*
X45889962Y-92443326D01*
X42661079Y-96433598D02*
X43595065Y-94430658D01*
X42563640Y-96453261D02*
X43522561Y-94396849D01*
X41350697Y-96498928D02*
X42543748Y-93940421D01*
X40394366Y-96275866D02*
X43830253Y-88907583D01*
X42372565Y-96484429D02*
X43377551Y-94329230D01*
X44002831Y-92325776D02*
X45077972Y-90020129D01*
X43930327Y-92291967D02*
X45023640Y-89947349D01*
X44329102Y-92477919D02*
X45311689Y-90370753D01*
X44734575Y-95299654D02*
X45872263Y-92859873D01*
X42915262Y-91818634D02*
X44170438Y-89126900D01*
X44292850Y-92461014D02*
X45286848Y-90329378D01*
X40940418Y-96432293D02*
X42181225Y-93771373D01*
X42232112Y-96501688D02*
X43268794Y-94278515D01*
X42859338Y-96387022D02*
X43740075Y-94498277D01*
X43063936Y-96326852D02*
X45585277Y-90919820D01*
X41267204Y-96488682D02*
X42471244Y-93906611D01*
X41780416Y-96523872D02*
X42906271Y-94109468D01*
X40860306Y-96414797D02*
X42108720Y-93737564D01*
X41520218Y-96513981D02*
X42688757Y-94008040D01*
X42515132Y-96462639D02*
X43486308Y-94379944D01*
X40244708Y-96218216D02*
X43689892Y-88829995D01*
X44147840Y-92393395D02*
X45184523Y-90170222D01*
X41957967Y-96521705D02*
X43051281Y-94177087D01*
X42139744Y-96510475D02*
X43196290Y-94244706D01*
X44575011Y-95452544D02*
X45886818Y-92639364D01*
X43821570Y-92241253D02*
X44939818Y-89843162D01*
X44820274Y-95210520D02*
X45859069Y-92982816D01*
X43012470Y-96342574D02*
X43848831Y-94548991D01*
X44401607Y-92511728D02*
X45360527Y-90455316D01*
X40781040Y-96395489D02*
X42036216Y-93703755D01*
X44474111Y-92545538D02*
X45408098Y-90542598D01*
X43277785Y-91987682D02*
X44492390Y-89382953D01*
X41184134Y-96477530D02*
X42398739Y-93872802D01*
X44691625Y-92646966D02*
X45543201Y-90820756D01*
X41562810Y-96517291D02*
X42725010Y-94024944D01*
X43494264Y-96161195D02*
X45734986Y-91355952D01*
X40134261Y-96171127D02*
X43582826Y-88775656D01*
X41477204Y-96511577D02*
X42652505Y-93991135D01*
X40281806Y-96233308D02*
X43725299Y-88848712D01*
X41308528Y-96494711D02*
X42507496Y-93923516D01*
X41435035Y-96507361D02*
X42616253Y-93974230D01*
X43550380Y-96135504D02*
X45751375Y-91415453D01*
X43531551Y-92106015D02*
X44706853Y-89585573D01*
X44546616Y-92579347D02*
X45454823Y-90631692D01*
X44655373Y-92630061D02*
X45521740Y-90772130D01*
X43894074Y-92275062D02*
X44995840Y-89912318D01*
X43116248Y-96309317D02*
X45605470Y-90971164D01*
X40061756Y-96137318D02*
X43510321Y-88741846D01*
X43664723Y-96079589D02*
X45782041Y-91538987D01*
X42048644Y-96516543D02*
X43123785Y-94210896D01*
X44365354Y-92494824D02*
X45336531Y-90412128D01*
X44153795Y-95787956D02*
X45873006Y-92101096D01*
X40098008Y-96154222D02*
X43546573Y-88758751D01*
X42759363Y-96412123D02*
X43667570Y-94464467D01*
X44075336Y-92359586D02*
X45131881Y-90093816D01*
X43966579Y-92308872D02*
X45051017Y-89983286D01*
X43386542Y-92038396D02*
X44585510Y-89467201D01*
X40900362Y-96423545D02*
X42144973Y-93754469D01*
X40208033Y-96202218D02*
X43654063Y-88812184D01*
X40662924Y-96362478D02*
X44069227Y-89057637D01*
X40432309Y-96289145D02*
X43864815Y-88928113D01*
X40546560Y-96328077D02*
X43968077Y-88990610D01*
X40623713Y-96351917D02*
X44035933Y-89034388D01*
X44510364Y-92562442D02*
X45431671Y-90586692D01*
X43857822Y-92258157D02*
X44967617Y-89878193D01*
X43495299Y-92089110D02*
X44676517Y-89555980D01*
X44256597Y-92444109D02*
X45261584Y-90288909D01*
X43205280Y-91953872D02*
X44429183Y-89329205D01*
X42987766Y-91852444D02*
X44236181Y-89175211D01*
X42879010Y-91801730D02*
X44137144Y-89103651D01*
X42951514Y-91835539D02*
X44203309Y-89151055D01*
X43024019Y-91869349D02*
X44268630Y-89200272D01*
X42325325Y-96491089D02*
X43341299Y-94312325D01*
X44184093Y-92410300D02*
X45210633Y-90208878D01*
X41913262Y-96522927D02*
X43015028Y-94160182D01*
X41020952Y-96448883D02*
X42253730Y-93805183D01*
X40585348Y-96339544D02*
X44001794Y-89012952D01*
X41143233Y-96470595D02*
X42362487Y-93855897D01*
X43438571Y-96185981D02*
X45718174Y-91297357D01*
X43606918Y-96108906D02*
X45767342Y-91475860D01*
X42003094Y-96519578D02*
X43087533Y-94193992D01*
X44039084Y-92342681D02*
X45104927Y-90056973D01*
X43781603Y-96018236D02*
X45810171Y-91667959D01*
X43749065Y-92207443D02*
X44882527Y-89776726D01*
X43241533Y-91970777D02*
X44460786Y-89356079D01*
X41225458Y-96483559D02*
X42434991Y-93889707D01*
X45011534Y-94989657D02*
X45812818Y-93271298D01*
X44619120Y-92613157D02*
X45499857Y-90724411D01*
X42710010Y-96423314D02*
X43631318Y-94447563D01*
X42094194Y-96513509D02*
X43160038Y-94227801D01*
X44025505Y-95873779D02*
X45856287Y-91947653D01*
X42612148Y-96443883D02*
X43558813Y-94413753D01*
X40470252Y-96302425D02*
X43899376Y-88948643D01*
X41061431Y-96456724D02*
X42289982Y-93822088D01*
X41868980Y-96523242D02*
X42978776Y-94143278D01*
X42961003Y-96358297D02*
X43812579Y-94532086D01*
X43169028Y-91936967D02*
X44397579Y-89302331D01*
X42809562Y-96399119D02*
X43703822Y-94481372D01*
X43422794Y-92055301D02*
X44615846Y-89496794D01*
X43459047Y-92072205D02*
X44646604Y-89525480D01*
X44911889Y-95108699D02*
X45839959Y-93118447D01*
X43604056Y-92139824D02*
X44766256Y-89647478D01*
X44220345Y-92427205D02*
X45236319Y-90248441D01*
X41824276Y-96524463D02*
X42942524Y-94126373D01*
X45906039Y-92439582D02*
G75*
G03*
X45906039Y-92439582I-4120000J0D01*
G01*
X69350000Y-105900000D02*
X69350000Y-102600000D01*
X69350000Y-105900000D02*
X74750000Y-105900000D01*
X69350000Y-102600000D02*
X74750000Y-102600000D01*
X63900000Y-119100000D02*
X63900000Y-124500000D01*
X60600000Y-119100000D02*
X60600000Y-124500000D01*
X60600000Y-119100000D02*
X63900000Y-119100000D01*
X60650000Y-53850000D02*
X55250000Y-53850000D01*
X60650000Y-53850000D02*
X60650000Y-57150000D01*
X60650000Y-57150000D02*
X55250000Y-57150000D01*
X47650000Y-127100000D02*
X47650000Y-132500000D01*
X44350000Y-127100000D02*
X44350000Y-132500000D01*
X44350000Y-127100000D02*
X47650000Y-127100000D01*
X36550000Y-96010000D02*
X32340000Y-96010000D01*
X32340000Y-96010000D02*
X32340000Y-92990000D01*
X32340000Y-92990000D02*
X36550000Y-92990000D01*
X63900000Y-60100000D02*
X63900000Y-65500000D01*
X60600000Y-60100000D02*
X63900000Y-60100000D01*
X60600000Y-60100000D02*
X60600000Y-65500000D01*
X60100000Y-67250000D02*
X65500000Y-67250000D01*
X60100000Y-70550000D02*
X65500000Y-70550000D01*
X60100000Y-70550000D02*
X60100000Y-67250000D01*
X66200000Y-29250000D02*
X71600000Y-29250000D01*
X66200000Y-32550000D02*
X66200000Y-29250000D01*
X66200000Y-32550000D02*
X71600000Y-32550000D01*
X57800000Y-117000000D02*
X57800000Y-119000000D01*
X57800000Y-119000000D02*
X53500000Y-119000000D01*
X53500000Y-117000000D02*
X57800000Y-117000000D01*
X38250000Y-117400000D02*
X42550000Y-117400000D01*
X42550000Y-119400000D02*
X38250000Y-119400000D01*
X42550000Y-117400000D02*
X42550000Y-119400000D01*
X69350000Y-46900000D02*
X69350000Y-43600000D01*
X69350000Y-46900000D02*
X74750000Y-46900000D01*
X69350000Y-43600000D02*
X74750000Y-43600000D01*
X65800000Y-32550000D02*
X60400000Y-32550000D01*
X65800000Y-29250000D02*
X60400000Y-29250000D01*
X65800000Y-29250000D02*
X65800000Y-32550000D01*
X65800000Y-91550000D02*
X60400000Y-91550000D01*
X65800000Y-88250000D02*
X60400000Y-88250000D01*
X65800000Y-88250000D02*
X65800000Y-91550000D01*
X73350000Y-29250000D02*
X78750000Y-29250000D01*
X73350000Y-32550000D02*
X73350000Y-29250000D01*
X73350000Y-32550000D02*
X78750000Y-32550000D01*
X42850000Y-99700000D02*
X42850000Y-107000000D01*
X38550000Y-99700000D02*
X42850000Y-99700000D01*
X38550000Y-99700000D02*
X38550000Y-107000000D01*
X31300000Y-41050000D02*
X31300000Y-37750000D01*
X31300000Y-37750000D02*
X36700000Y-37750000D01*
X31300000Y-41050000D02*
X36700000Y-41050000D01*
X68650000Y-116650000D02*
X68650000Y-123950000D01*
X64350000Y-116650000D02*
X68650000Y-116650000D01*
X64350000Y-116650000D02*
X64350000Y-123950000D01*
X60100000Y-126250000D02*
X65500000Y-126250000D01*
X60100000Y-129550000D02*
X60100000Y-126250000D01*
X60100000Y-129550000D02*
X65500000Y-129550000D01*
X63450000Y-96750000D02*
X67750000Y-96750000D01*
X67750000Y-98750000D02*
X63450000Y-98750000D01*
X63450000Y-98750000D02*
X63450000Y-96750000D01*
X38250000Y-58400000D02*
X42550000Y-58400000D01*
X42550000Y-58400000D02*
X42550000Y-60400000D01*
X42550000Y-60400000D02*
X38250000Y-60400000D01*
X63450000Y-113500000D02*
X63450000Y-111500000D01*
X63450000Y-111500000D02*
X67750000Y-111500000D01*
X67750000Y-113500000D02*
X63450000Y-113500000D01*
X42951514Y-32835539D02*
X44203309Y-30151055D01*
X44088805Y-36832680D02*
X45865492Y-33022562D01*
X42909959Y-37373113D02*
X43776327Y-35515182D01*
X44147840Y-33393395D02*
X45184523Y-31170222D01*
X43821570Y-33241253D02*
X44939818Y-30843162D01*
X45123858Y-35843427D02*
X45772999Y-34451338D01*
X41267204Y-37488682D02*
X42471244Y-34906611D01*
X41392443Y-37504050D02*
X42580001Y-34957326D01*
X44039084Y-33342681D02*
X45104927Y-31056973D01*
X43494264Y-37161195D02*
X45734986Y-32355952D01*
X40394366Y-37275866D02*
X43830253Y-29907583D01*
X40623713Y-37351917D02*
X44035933Y-30034388D01*
X41868980Y-37523242D02*
X42978776Y-35143278D01*
X44256597Y-33444109D02*
X45261584Y-31288909D01*
X43459047Y-33072205D02*
X44646604Y-30525480D01*
X44111588Y-33376490D02*
X45158414Y-31131566D01*
X43901863Y-36949633D02*
X45834919Y-32804181D01*
X41605824Y-37519695D02*
X42761262Y-35041849D01*
X40061756Y-37137318D02*
X43510321Y-29741846D01*
X40319326Y-37247494D02*
X43760284Y-29868336D01*
X43012470Y-37342574D02*
X43848831Y-35548991D01*
X44437859Y-33528633D02*
X45384524Y-31498504D01*
X42003094Y-37519578D02*
X43087533Y-35193992D01*
X43894074Y-33275062D02*
X44995840Y-30912318D01*
X40980474Y-37441041D02*
X42217477Y-34788278D01*
X42278507Y-37496842D02*
X43305047Y-35295420D01*
X40546560Y-37328077D02*
X43968077Y-29990610D01*
X40208033Y-37202218D02*
X43654063Y-29812184D01*
X43664723Y-37079589D02*
X45782041Y-32538987D01*
X41824276Y-37524463D02*
X42942524Y-35126373D01*
X42419806Y-37477770D02*
X43413804Y-35346134D01*
X41780416Y-37523872D02*
X42906271Y-35109468D01*
X42759363Y-37412123D02*
X43667570Y-35464467D01*
X43116248Y-37309317D02*
X45605470Y-31971164D01*
X43169028Y-32936967D02*
X44397579Y-30302331D01*
X43495299Y-33089110D02*
X44676517Y-30555980D01*
X43277785Y-32987682D02*
X44492390Y-30382953D01*
X43275297Y-37252180D02*
X45663935Y-32129729D01*
X42048644Y-37516543D02*
X43123785Y-35210896D01*
X41957967Y-37521705D02*
X43051281Y-35177087D01*
X40662924Y-37362478D02*
X44069227Y-30057637D01*
X42961003Y-37358297D02*
X43812579Y-35532086D01*
X43841099Y-36985294D02*
X45823179Y-32734710D01*
X44355951Y-36638376D02*
X45888364Y-33352104D01*
X40585348Y-37339544D02*
X44001794Y-30012952D01*
X41692697Y-37522690D02*
X42833767Y-35075659D01*
X44329102Y-33477919D02*
X45311689Y-31370753D01*
X44619120Y-33613157D02*
X45499857Y-31724411D01*
X42372565Y-37484429D02*
X43377551Y-35329230D01*
X44499455Y-36519926D02*
X45889869Y-33538173D01*
X44510364Y-33562442D02*
X45431671Y-31586692D01*
X43857822Y-33258157D02*
X44967617Y-30878193D01*
X40741829Y-37384928D02*
X41999964Y-34686850D01*
X42563640Y-37453261D02*
X43522561Y-35396849D01*
X41649261Y-37521192D02*
X42797514Y-35058754D01*
X43606918Y-37108906D02*
X45767342Y-32475860D01*
X41143233Y-37470595D02*
X42362487Y-34855897D01*
X43930327Y-33291967D02*
X45023640Y-30947349D01*
X44820274Y-36210520D02*
X45859069Y-33982816D01*
X41308528Y-37494711D02*
X42507496Y-34923516D01*
X41350697Y-37498928D02*
X42543748Y-34940421D01*
X44691625Y-33646966D02*
X45543201Y-31820756D01*
X43060271Y-32886253D02*
X44301078Y-30225334D01*
X40940418Y-37432293D02*
X42181225Y-34771373D01*
X43640308Y-33156729D02*
X44795746Y-30678883D01*
X40820673Y-37405143D02*
X42072468Y-34720659D01*
X40701712Y-37373945D02*
X44102944Y-30079980D01*
X40781040Y-37395489D02*
X42036216Y-34703755D01*
X42879010Y-32801730D02*
X44137144Y-30103651D01*
X42612148Y-37443883D02*
X43558813Y-35413753D01*
X40470252Y-37302425D02*
X43899376Y-29948643D01*
X43350290Y-33021491D02*
X44554329Y-30439420D01*
X41225458Y-37483559D02*
X42434991Y-34889707D01*
X41562810Y-37517291D02*
X42725010Y-35024944D01*
X43966579Y-33308872D02*
X45051017Y-30983286D01*
X44575011Y-36452544D02*
X45886818Y-33639364D01*
X42325325Y-37491089D02*
X43341299Y-35312325D01*
X42661079Y-37433598D02*
X43595065Y-35430658D01*
X44653103Y-36379724D02*
X45881231Y-33745993D01*
X41477204Y-37511577D02*
X42652505Y-34991135D01*
X43205280Y-32953872D02*
X44429183Y-30329205D01*
X41061431Y-37456724D02*
X42289982Y-34822088D01*
X41520218Y-37513981D02*
X42688757Y-35008040D01*
X43712813Y-33190538D02*
X44853882Y-30743507D01*
X41102332Y-37463660D02*
X42326234Y-34838992D01*
X40356846Y-37261680D02*
X43795268Y-29887960D01*
X42809562Y-37399119D02*
X43703822Y-35481372D01*
X44219631Y-36741419D02*
X45879675Y-33181442D01*
X40508617Y-37314798D02*
X43933516Y-29970080D01*
X44911889Y-36108699D02*
X45839959Y-34118447D01*
X42859338Y-37387022D02*
X43740075Y-35498277D01*
X42915262Y-32818634D02*
X44170438Y-30126900D01*
X42710010Y-37423314D02*
X43631318Y-35447563D01*
X43676560Y-33173634D02*
X44824814Y-30711195D01*
X44153795Y-36787956D02*
X45873006Y-33101096D01*
X43063936Y-37326852D02*
X45585277Y-31919820D01*
X44002831Y-33325776D02*
X45077972Y-31020129D01*
X40098008Y-37154222D02*
X43546573Y-29758751D01*
X43221717Y-37272434D02*
X45645010Y-32075665D01*
X40134261Y-37171127D02*
X43582826Y-29775656D01*
X43132776Y-32920063D02*
X44365553Y-30276363D01*
X44546616Y-33579347D02*
X45454823Y-31631692D01*
X43241533Y-32970777D02*
X44460786Y-30356079D01*
X40432309Y-37289145D02*
X43864815Y-29928113D01*
X44287157Y-36691257D02*
X45884654Y-33265413D01*
X41435035Y-37507361D02*
X42616253Y-34974230D01*
X44075336Y-33359586D02*
X45131881Y-31093816D01*
X42467469Y-37470205D02*
X43450056Y-35363039D01*
X40281806Y-37233308D02*
X43725299Y-29848712D01*
X40170936Y-37187126D02*
X43618655Y-29793467D01*
X41020952Y-37448883D02*
X42253730Y-34805183D01*
X43329299Y-37231020D02*
X45682438Y-32184698D01*
X45259425Y-35647349D02*
X45709936Y-34681225D01*
X44655373Y-33630061D02*
X45521740Y-31772130D01*
X43422794Y-33055301D02*
X44615846Y-30496794D01*
X43024019Y-32869349D02*
X44268630Y-30200272D01*
X44474111Y-33545538D02*
X45408098Y-31542598D01*
X40860306Y-37414797D02*
X42108720Y-34737564D01*
X43785317Y-33224348D02*
X44911172Y-30809944D01*
X44025505Y-36873779D02*
X45856287Y-32947653D01*
X43438571Y-37185981D02*
X45718174Y-32297357D01*
X44365354Y-33494824D02*
X45336531Y-31412128D01*
X36846661Y-31136312D02*
X37571707Y-31474407D01*
X42185717Y-37506535D02*
X43232542Y-35261611D01*
X44184093Y-33410300D02*
X45210633Y-31208878D01*
X45011534Y-35989657D02*
X45812818Y-34271298D01*
X42094194Y-37513509D02*
X43160038Y-35227801D01*
X43604056Y-33139824D02*
X44766256Y-30647478D01*
X40244708Y-37218216D02*
X43689892Y-29829995D01*
X41736557Y-37523281D02*
X42870019Y-35092563D01*
X41913262Y-37522927D02*
X43015028Y-35160182D01*
X40900362Y-37423545D02*
X42144973Y-34754469D01*
X43781603Y-37018236D02*
X45810171Y-32667959D01*
X43314037Y-33004586D02*
X44523571Y-30410734D01*
X42139744Y-37510475D02*
X43196290Y-35244706D01*
X43722529Y-37050272D02*
X45796740Y-32602113D01*
X43383724Y-37208954D02*
X45700517Y-32240574D01*
X44220345Y-33427205D02*
X45236319Y-31248441D01*
X43749065Y-33207443D02*
X44882527Y-30776726D01*
X43386542Y-33038396D02*
X44585510Y-30467201D01*
X41184134Y-37477530D02*
X42398739Y-34872802D01*
X44426858Y-36580963D02*
X45889962Y-33443326D01*
X43531551Y-33106015D02*
X44706853Y-30585573D01*
X42987766Y-32852444D02*
X44236181Y-30175211D01*
X44727877Y-33663871D02*
X45564239Y-31870288D01*
X42515132Y-37462639D02*
X43486308Y-35379944D01*
X43096523Y-32903158D02*
X44333527Y-30250395D01*
X43963050Y-36913065D02*
X45846237Y-32874558D01*
X42232112Y-37501688D02*
X43268794Y-35278515D01*
X43168560Y-37291782D02*
X45625663Y-32022508D01*
X44292850Y-33461014D02*
X45286848Y-31329378D01*
X43567803Y-33122920D02*
X44736343Y-30616978D01*
X43550380Y-37135504D02*
X45751375Y-32415453D01*
X44734575Y-36299654D02*
X45872263Y-33859873D01*
X44582868Y-33596252D02*
X45477128Y-31678505D01*
X37040137Y-31667883D02*
X37378232Y-30942837D01*
X44401607Y-33511728D02*
X45360527Y-31455316D01*
X45906039Y-33439582D02*
G75*
G03*
X45906039Y-33439582I-4120000J0D01*
G01*
X47650000Y-119600000D02*
X47650000Y-125000000D01*
X44350000Y-119600000D02*
X47650000Y-119600000D01*
X44350000Y-119600000D02*
X44350000Y-125000000D01*
X63450000Y-37750000D02*
X67750000Y-37750000D01*
X63450000Y-39750000D02*
X63450000Y-37750000D01*
X67750000Y-39750000D02*
X63450000Y-39750000D01*
X31300000Y-100050000D02*
X36700000Y-100050000D01*
X31300000Y-100050000D02*
X31300000Y-96750000D01*
X31300000Y-96750000D02*
X36700000Y-96750000D01*
X60650000Y-116150000D02*
X55250000Y-116150000D01*
X60650000Y-112850000D02*
X55250000Y-112850000D01*
X60650000Y-112850000D02*
X60650000Y-116150000D01*
X67150000Y-52150000D02*
X61750000Y-52150000D01*
X67150000Y-48850000D02*
X67150000Y-52150000D01*
X67150000Y-48850000D02*
X61750000Y-48850000D01*
X67150000Y-107850000D02*
X67150000Y-111150000D01*
X67150000Y-107850000D02*
X61750000Y-107850000D01*
X67150000Y-111150000D02*
X61750000Y-111150000D01*
X66200000Y-91550000D02*
X71600000Y-91550000D01*
X66200000Y-91550000D02*
X66200000Y-88250000D01*
X66200000Y-88250000D02*
X71600000Y-88250000D01*
X73350000Y-91550000D02*
X73350000Y-88250000D01*
X73350000Y-91550000D02*
X78750000Y-91550000D01*
X73350000Y-88250000D02*
X78750000Y-88250000D01*
X77350000Y-105900000D02*
X82750000Y-105900000D01*
X77350000Y-105900000D02*
X77350000Y-102600000D01*
X77350000Y-102600000D02*
X82750000Y-102600000D01*
X36550000Y-37010000D02*
X32340000Y-37010000D01*
X32340000Y-33990000D02*
X36550000Y-33990000D01*
X32340000Y-37010000D02*
X32340000Y-33990000D01*
X47650000Y-60600000D02*
X47650000Y-66000000D01*
X44350000Y-60600000D02*
X47650000Y-60600000D01*
X44350000Y-60600000D02*
X44350000Y-66000000D01*
X63450000Y-52500000D02*
X67750000Y-52500000D01*
X67750000Y-54500000D02*
X63450000Y-54500000D01*
X63450000Y-54500000D02*
X63450000Y-52500000D01*
M02*
