G04 #@! TF.GenerationSoftware,KiCad,Pcbnew,6.0.7+dfsg-1+b1*
G04 #@! TF.CreationDate,2022-09-08T22:48:16+01:00*
G04 #@! TF.ProjectId,panel,70616e65-6c2e-46b6-9963-61645f706362,rev?*
G04 #@! TF.SameCoordinates,Original*
G04 #@! TF.FileFunction,Soldermask,Bot*
G04 #@! TF.FilePolarity,Negative*
%FSLAX46Y46*%
G04 Gerber Fmt 4.6, Leading zero omitted, Abs format (unit mm)*
G04 Created by KiCad (PCBNEW 6.0.7+dfsg-1+b1) date 2022-09-08 22:48:16*
%MOMM*%
%LPD*%
G01*
G04 APERTURE LIST*
G04 Aperture macros list*
%AMRoundRect*
0 Rectangle with rounded corners*
0 $1 Rounding radius*
0 $2 $3 $4 $5 $6 $7 $8 $9 X,Y pos of 4 corners*
0 Add a 4 corners polygon primitive as box body*
4,1,4,$2,$3,$4,$5,$6,$7,$8,$9,$2,$3,0*
0 Add four circle primitives for the rounded corners*
1,1,$1+$1,$2,$3*
1,1,$1+$1,$4,$5*
1,1,$1+$1,$6,$7*
1,1,$1+$1,$8,$9*
0 Add four rect primitives between the rounded corners*
20,1,$1+$1,$2,$3,$4,$5,0*
20,1,$1+$1,$4,$5,$6,$7,0*
20,1,$1+$1,$6,$7,$8,$9,0*
20,1,$1+$1,$8,$9,$2,$3,0*%
%AMRotRect*
0 Rectangle, with rotation*
0 The origin of the aperture is its center*
0 $1 length*
0 $2 width*
0 $3 Rotation angle, in degrees counterclockwise*
0 Add horizontal line*
21,1,$1,$2,0,0,$3*%
G04 Aperture macros list end*
%ADD10C,1.500000*%
%ADD11C,6.200000*%
%ADD12C,2.082800*%
%ADD13R,1.727200X1.727200*%
%ADD14O,1.727200X1.727200*%
%ADD15RoundRect,0.250000X0.262500X0.450000X-0.262500X0.450000X-0.262500X-0.450000X0.262500X-0.450000X0*%
%ADD16R,2.500000X1.800000*%
%ADD17RoundRect,0.250000X-0.450000X0.262500X-0.450000X-0.262500X0.450000X-0.262500X0.450000X0.262500X0*%
%ADD18RoundRect,0.250000X0.325000X0.650000X-0.325000X0.650000X-0.325000X-0.650000X0.325000X-0.650000X0*%
%ADD19R,1.300000X1.700000*%
%ADD20C,1.000000*%
%ADD21RoundRect,0.250000X-2.475000X0.712500X-2.475000X-0.712500X2.475000X-0.712500X2.475000X0.712500X0*%
%ADD22R,2.300000X3.500000*%
%ADD23R,1.800000X2.500000*%
%ADD24RotRect,1.600000X1.600000X335.000000*%
%ADD25C,1.600000*%
%ADD26RoundRect,0.150000X0.150000X-0.587500X0.150000X0.587500X-0.150000X0.587500X-0.150000X-0.587500X0*%
%ADD27RoundRect,0.250000X-0.325000X-0.650000X0.325000X-0.650000X0.325000X0.650000X-0.325000X0.650000X0*%
%ADD28RoundRect,0.150000X-0.150000X0.587500X-0.150000X-0.587500X0.150000X-0.587500X0.150000X0.587500X0*%
%ADD29RoundRect,0.250000X-0.412500X-0.925000X0.412500X-0.925000X0.412500X0.925000X-0.412500X0.925000X0*%
%ADD30RoundRect,0.150000X0.587500X0.150000X-0.587500X0.150000X-0.587500X-0.150000X0.587500X-0.150000X0*%
%ADD31R,1.200000X2.200000*%
%ADD32R,5.800000X6.400000*%
%ADD33RoundRect,0.250000X0.712500X2.475000X-0.712500X2.475000X-0.712500X-2.475000X0.712500X-2.475000X0*%
%ADD34R,2.200000X1.200000*%
%ADD35R,6.400000X5.800000*%
%ADD36RoundRect,0.250000X-0.712500X-2.475000X0.712500X-2.475000X0.712500X2.475000X-0.712500X2.475000X0*%
G04 APERTURE END LIST*
D10*
X17500000Y-143500000D03*
D11*
X84500000Y-26500000D03*
D10*
X17500000Y-17500000D03*
X93500000Y-17500000D03*
D12*
X64999379Y-77206800D03*
X62459379Y-77206800D03*
X64999379Y-74666800D03*
X62459379Y-74666800D03*
X64999379Y-72126800D03*
X62459379Y-72126800D03*
D13*
X31370000Y-27770000D03*
D14*
X31370000Y-25230000D03*
X33910000Y-27770000D03*
X33910000Y-25230000D03*
X36450000Y-27770000D03*
X36450000Y-25230000D03*
X38990000Y-27770000D03*
X38990000Y-25230000D03*
X41530000Y-27770000D03*
X41530000Y-25230000D03*
X44070000Y-27770000D03*
X44070000Y-25230000D03*
X46610000Y-27770000D03*
X46610000Y-25230000D03*
X49150000Y-27770000D03*
X49150000Y-25230000D03*
X51690000Y-27770000D03*
X51690000Y-25230000D03*
X54230000Y-27770000D03*
X54230000Y-25230000D03*
X56770000Y-27770000D03*
X56770000Y-25230000D03*
X59310000Y-27770000D03*
X59310000Y-25230000D03*
X61850000Y-27770000D03*
X61850000Y-25230000D03*
X64390000Y-27770000D03*
X64390000Y-25230000D03*
X66930000Y-27770000D03*
X66930000Y-25230000D03*
X69470000Y-27770000D03*
X69470000Y-25230000D03*
X72010000Y-27770000D03*
X72010000Y-25230000D03*
X74550000Y-27770000D03*
X74550000Y-25230000D03*
X77090000Y-27770000D03*
X77090000Y-25230000D03*
X79630000Y-27770000D03*
X79630000Y-25230000D03*
D11*
X84500000Y-75500000D03*
D12*
X33140000Y-42590000D03*
X30600000Y-42590000D03*
D13*
X31370000Y-86770000D03*
D14*
X31370000Y-84230000D03*
X33910000Y-86770000D03*
X33910000Y-84230000D03*
X36450000Y-86770000D03*
X36450000Y-84230000D03*
X38990000Y-86770000D03*
X38990000Y-84230000D03*
X41530000Y-86770000D03*
X41530000Y-84230000D03*
X44070000Y-86770000D03*
X44070000Y-84230000D03*
X46610000Y-86770000D03*
X46610000Y-84230000D03*
X49150000Y-86770000D03*
X49150000Y-84230000D03*
X51690000Y-86770000D03*
X51690000Y-84230000D03*
X54230000Y-86770000D03*
X54230000Y-84230000D03*
X56770000Y-86770000D03*
X56770000Y-84230000D03*
X59310000Y-86770000D03*
X59310000Y-84230000D03*
X61850000Y-86770000D03*
X61850000Y-84230000D03*
X64390000Y-86770000D03*
X64390000Y-84230000D03*
X66930000Y-86770000D03*
X66930000Y-84230000D03*
X69470000Y-86770000D03*
X69470000Y-84230000D03*
X72010000Y-86770000D03*
X72010000Y-84230000D03*
X74550000Y-86770000D03*
X74550000Y-84230000D03*
X77090000Y-86770000D03*
X77090000Y-84230000D03*
X79630000Y-86770000D03*
X79630000Y-84230000D03*
D11*
X84500000Y-85500000D03*
X84500000Y-134500000D03*
D12*
X31020000Y-129290000D03*
X28480000Y-129290000D03*
X31020000Y-126750000D03*
X28480000Y-126750000D03*
X31020000Y-124210000D03*
X28480000Y-124210000D03*
X31020000Y-121670000D03*
X28480000Y-121670000D03*
D11*
X26500000Y-26500000D03*
D12*
X64999379Y-136206800D03*
X62459379Y-136206800D03*
X64999379Y-133666800D03*
X62459379Y-133666800D03*
X64999379Y-131126800D03*
X62459379Y-131126800D03*
D11*
X26500000Y-85500000D03*
D12*
X33140000Y-101590000D03*
X30600000Y-101590000D03*
X31020000Y-70290000D03*
X28480000Y-70290000D03*
X31020000Y-67750000D03*
X28480000Y-67750000D03*
X31020000Y-65210000D03*
X28480000Y-65210000D03*
X31020000Y-62670000D03*
X28480000Y-62670000D03*
X25920000Y-62670000D03*
X25920000Y-65210000D03*
X25920000Y-67750000D03*
X25920000Y-70290000D03*
D11*
X26500000Y-75500000D03*
D12*
X25920000Y-121670000D03*
X25920000Y-124210000D03*
X25920000Y-126750000D03*
X25920000Y-129290000D03*
D11*
X26500000Y-134500000D03*
D15*
X33512500Y-49700000D03*
X31687500Y-49700000D03*
D16*
X46375000Y-115500000D03*
X42375000Y-115500000D03*
D17*
X64250000Y-101587500D03*
X64250000Y-103412500D03*
X60250000Y-42587500D03*
X60250000Y-44412500D03*
D18*
X44975000Y-98300000D03*
X42025000Y-98300000D03*
D19*
X57000000Y-59000000D03*
X53500000Y-59000000D03*
D20*
X91000000Y-17500000D03*
D18*
X67975000Y-93100000D03*
X65025000Y-93100000D03*
D21*
X83800000Y-92612500D03*
X83800000Y-99387500D03*
D16*
X78750000Y-45250000D03*
X82750000Y-45250000D03*
D17*
X54200000Y-42850000D03*
X54200000Y-44675000D03*
X48200000Y-42850000D03*
X48200000Y-44675000D03*
D22*
X40700000Y-42600000D03*
X40700000Y-48000000D03*
D16*
X46375000Y-56500000D03*
X42375000Y-56500000D03*
D23*
X46000000Y-69500000D03*
X46000000Y-73500000D03*
D17*
X66250000Y-101587500D03*
X66250000Y-103412500D03*
X60250000Y-101587500D03*
X60250000Y-103412500D03*
D22*
X66500000Y-59550000D03*
X66500000Y-64950000D03*
D24*
X40200000Y-91700000D03*
D25*
X43372077Y-93179164D03*
D16*
X70750000Y-104250000D03*
X74750000Y-104250000D03*
D26*
X55750000Y-37337500D03*
X53850000Y-37337500D03*
X54800000Y-35462500D03*
D23*
X62250000Y-120500000D03*
X62250000Y-124500000D03*
D27*
X32525000Y-91500000D03*
X35475000Y-91500000D03*
D16*
X59250000Y-55500000D03*
X55250000Y-55500000D03*
D23*
X46000000Y-128500000D03*
X46000000Y-132500000D03*
D28*
X51750000Y-90362500D03*
X53650000Y-90362500D03*
X52700000Y-92237500D03*
D15*
X33512500Y-53300000D03*
X31687500Y-53300000D03*
D29*
X33262500Y-94500000D03*
X36337500Y-94500000D03*
D23*
X62250000Y-61500000D03*
X62250000Y-65500000D03*
D30*
X49437500Y-89350000D03*
X49437500Y-91250000D03*
X47562500Y-90300000D03*
D16*
X61500000Y-68900000D03*
X65500000Y-68900000D03*
D31*
X74220000Y-61900000D03*
D32*
X76500000Y-68200000D03*
D31*
X78780000Y-61900000D03*
D21*
X83800000Y-107812500D03*
X83800000Y-114587500D03*
D16*
X67600000Y-30900000D03*
X71600000Y-30900000D03*
D18*
X44975000Y-39300000D03*
X42025000Y-39300000D03*
D19*
X57000000Y-118000000D03*
X53500000Y-118000000D03*
D27*
X32525000Y-32500000D03*
X35475000Y-32500000D03*
D17*
X56200000Y-101837500D03*
X56200000Y-103662500D03*
X64250000Y-42587500D03*
X64250000Y-44412500D03*
D19*
X41750000Y-118400000D03*
X38250000Y-118400000D03*
D17*
X50200000Y-101837500D03*
X50200000Y-103662500D03*
D33*
X42287500Y-134000000D03*
X35512500Y-134000000D03*
D16*
X70750000Y-45250000D03*
X74750000Y-45250000D03*
X64400000Y-30900000D03*
X60400000Y-30900000D03*
D17*
X46200000Y-101087500D03*
X46200000Y-102912500D03*
D33*
X57887500Y-75000000D03*
X51112500Y-75000000D03*
D34*
X70550000Y-112030000D03*
D35*
X76850000Y-109750000D03*
D34*
X70550000Y-107470000D03*
D16*
X64400000Y-89900000D03*
X60400000Y-89900000D03*
D17*
X48200000Y-101850000D03*
X48200000Y-103675000D03*
D26*
X55750000Y-96337500D03*
X53850000Y-96337500D03*
X54800000Y-94462500D03*
D31*
X53845000Y-61800000D03*
D32*
X56125000Y-68100000D03*
D31*
X58405000Y-61800000D03*
D16*
X74750000Y-30900000D03*
X78750000Y-30900000D03*
D18*
X67975000Y-34100000D03*
X65025000Y-34100000D03*
D31*
X38270000Y-61850000D03*
D32*
X40550000Y-68150000D03*
D31*
X42830000Y-61850000D03*
D17*
X66250000Y-42587500D03*
X66250000Y-44412500D03*
D22*
X40700000Y-101600000D03*
X40700000Y-107000000D03*
D17*
X56200000Y-42837500D03*
X56200000Y-44662500D03*
D21*
X83800000Y-48812500D03*
X83800000Y-55587500D03*
D16*
X32700000Y-39400000D03*
X36700000Y-39400000D03*
D15*
X33512500Y-114100000D03*
X31687500Y-114100000D03*
D20*
X20000000Y-17500000D03*
D36*
X70412500Y-75000000D03*
X77187500Y-75000000D03*
D15*
X33512500Y-51500000D03*
X31687500Y-51500000D03*
D20*
X20000000Y-143500000D03*
D17*
X62250000Y-101587500D03*
X62250000Y-103412500D03*
D22*
X66500000Y-118550000D03*
X66500000Y-123950000D03*
D16*
X61500000Y-127900000D03*
X65500000Y-127900000D03*
D19*
X64250000Y-97750000D03*
X67750000Y-97750000D03*
D21*
X83800000Y-33612500D03*
X83800000Y-40387500D03*
D28*
X51750000Y-31362500D03*
X53650000Y-31362500D03*
X52700000Y-33237500D03*
D19*
X41750000Y-59400000D03*
X38250000Y-59400000D03*
X64250000Y-112500000D03*
X67750000Y-112500000D03*
D15*
X33512500Y-55100000D03*
X31687500Y-55100000D03*
D33*
X42287500Y-75000000D03*
X35512500Y-75000000D03*
D31*
X74220000Y-120900000D03*
D32*
X76500000Y-127200000D03*
D31*
X78780000Y-120900000D03*
X53845000Y-120800000D03*
D32*
X56125000Y-127100000D03*
D31*
X58405000Y-120800000D03*
D24*
X40200000Y-32700000D03*
D25*
X43372077Y-34179164D03*
D17*
X62250000Y-42587500D03*
X62250000Y-44412500D03*
D23*
X46000000Y-121000000D03*
X46000000Y-125000000D03*
D17*
X52200000Y-42850000D03*
X52200000Y-44675000D03*
D19*
X64250000Y-38750000D03*
X67750000Y-38750000D03*
D17*
X46200000Y-42087500D03*
X46200000Y-43912500D03*
D15*
X33512500Y-110500000D03*
X31687500Y-110500000D03*
D31*
X38270000Y-120850000D03*
D32*
X40550000Y-127150000D03*
D31*
X42830000Y-120850000D03*
D17*
X52200000Y-101850000D03*
X52200000Y-103675000D03*
X50200000Y-42837500D03*
X50200000Y-44662500D03*
D15*
X33512500Y-108700000D03*
X31687500Y-108700000D03*
D26*
X52250000Y-96337500D03*
X50350000Y-96337500D03*
X51300000Y-94462500D03*
D17*
X54200000Y-101850000D03*
X54200000Y-103675000D03*
D16*
X32700000Y-98400000D03*
X36700000Y-98400000D03*
X59250000Y-114500000D03*
X55250000Y-114500000D03*
X65750000Y-50500000D03*
X61750000Y-50500000D03*
D30*
X49437500Y-30350000D03*
X49437500Y-32250000D03*
X47562500Y-31300000D03*
D33*
X57887500Y-134000000D03*
X51112500Y-134000000D03*
D16*
X65750000Y-109500000D03*
X61750000Y-109500000D03*
X67600000Y-89900000D03*
X71600000Y-89900000D03*
X74750000Y-89900000D03*
X78750000Y-89900000D03*
X78750000Y-104250000D03*
X82750000Y-104250000D03*
D36*
X70412500Y-134000000D03*
X77187500Y-134000000D03*
D34*
X70550000Y-97530000D03*
D35*
X76850000Y-95250000D03*
D34*
X70550000Y-92970000D03*
X70550000Y-38530000D03*
D35*
X76850000Y-36250000D03*
D34*
X70550000Y-33970000D03*
D29*
X33262500Y-35500000D03*
X36337500Y-35500000D03*
D15*
X33512500Y-112300000D03*
X31687500Y-112300000D03*
D23*
X46000000Y-62000000D03*
X46000000Y-66000000D03*
D26*
X52250000Y-37337500D03*
X50350000Y-37337500D03*
X51300000Y-35462500D03*
D34*
X70550000Y-53030000D03*
D35*
X76850000Y-50750000D03*
D34*
X70550000Y-48470000D03*
D19*
X64250000Y-53500000D03*
X67750000Y-53500000D03*
M02*
