M48
; DRILL file {KiCad 6.0.7+dfsg-1+b1} date Thu 08 Sep 2022 22:48:18 BST
; FORMAT={-:-/ absolute / metric / decimal}
; #@! TF.CreationDate,2022-09-08T22:48:18+01:00
; #@! TF.GenerationSoftware,Kicad,Pcbnew,6.0.7+dfsg-1+b1
; #@! TF.FileFunction,Plated,1,2,PTH
FMAT,2
METRIC
; #@! TA.AperFunction,Plated,PTH,ViaDrill
T1C0.400
; #@! TA.AperFunction,Plated,PTH,ViaDrill
T2C0.500
; #@! TA.AperFunction,Plated,PTH,ComponentDrill
T3C0.800
; #@! TA.AperFunction,Plated,PTH,ComponentDrill
T4C1.016
%
G90
G05
T1
X32.7Y-37.7
X32.7Y-96.7
X33.4Y-46.5
X33.4Y-105.5
X34.2Y-37.7
X34.2Y-96.7
X34.5Y-46.5
X34.5Y-105.5
X35.5Y-46.5
X35.5Y-105.5
X36.575Y-46.475
X36.575Y-105.475
X36.96Y-33.233
X36.96Y-92.233
X37.487Y-53.987
X37.487Y-112.987
X37.51Y-55.133
X37.51Y-114.133
X38.25Y-59.4
X38.25Y-118.4
X38.75Y-70.5
X38.75Y-129.5
X38.77Y-53.27
X38.77Y-112.27
X40.038Y-57.35
X40.038Y-116.35
X40.225Y-53.712
X40.225Y-112.712
X40.3Y-39.8
X40.3Y-98.8
X40.6Y-51.9
X40.6Y-110.9
X41.8Y-50.7
X41.8Y-51.9
X41.8Y-109.7
X41.8Y-110.9
X41.862Y-59.35
X41.862Y-118.35
X42.75Y-43.443
X42.75Y-102.443
X43.0Y-50.7
X43.0Y-51.9
X43.0Y-109.7
X43.0Y-110.9
X44.2Y-50.7
X44.2Y-51.9
X44.2Y-109.7
X44.2Y-110.9
X44.25Y-73.25
X44.25Y-74.25
X44.25Y-132.25
X44.25Y-133.25
X45.4Y-50.7
X45.4Y-51.9
X45.4Y-109.7
X45.4Y-110.9
X45.674Y-32.196
X45.674Y-91.196
X46.2Y-42.1
X46.2Y-101.1
X46.25Y-43.913
X46.25Y-102.912
X46.553Y-33.967
X46.553Y-92.967
X47.5Y-32.3
X47.5Y-91.3
X47.92Y-33.33
X47.92Y-92.33
X48.0Y-29.6
X48.0Y-88.6
X48.201Y-44.668
X48.201Y-103.668
X49.25Y-36.5
X49.25Y-95.5
X50.242Y-44.674
X50.242Y-103.674
X50.4Y-38.7
X50.4Y-97.7
X51.25Y-37.25
X51.25Y-96.25
X52.205Y-44.682
X52.205Y-103.682
X52.3Y-38.7
X52.3Y-97.7
X53.5Y-59.0
X53.5Y-118.0
X53.9Y-38.7
X53.9Y-97.7
X54.0Y-70.75
X54.0Y-129.75
X54.2Y-50.7
X54.2Y-51.9
X54.2Y-109.7
X54.2Y-110.9
X54.205Y-44.682
X54.205Y-103.682
X55.25Y-55.412
X55.25Y-114.412
X55.8Y-38.7
X55.8Y-97.7
X56.2Y-50.7
X56.2Y-51.9
X56.2Y-109.7
X56.2Y-110.9
X56.205Y-44.67
X56.205Y-103.67
X56.902Y-59.0
X56.902Y-118.0
X57.0Y-39.0
X57.0Y-98.0
X57.25Y-36.5
X57.25Y-45.75
X57.25Y-95.5
X57.25Y-104.75
X57.5Y-37.75
X57.5Y-96.75
X58.0Y-40.75
X58.0Y-47.25
X58.0Y-48.25
X58.0Y-49.25
X58.0Y-50.25
X58.0Y-99.75
X58.0Y-106.25
X58.0Y-107.25
X58.0Y-108.25
X58.0Y-109.25
X59.5Y-37.25
X59.5Y-96.25
X60.25Y-42.5
X60.25Y-101.5
X60.75Y-31.5
X60.75Y-90.5
X62.0Y-42.587
X62.0Y-101.587
X63.725Y-50.5
X63.725Y-109.5
X64.25Y-42.587
X64.25Y-101.587
X65.0Y-34.0
X65.0Y-93.0
X66.25Y-42.587
X66.25Y-101.587
X67.9Y-53.438
X67.9Y-112.438
X68.0Y-35.75
X68.0Y-39.0
X68.0Y-51.5
X68.0Y-94.75
X68.0Y-98.0
X68.0Y-110.5
X68.75Y-60.0
X68.75Y-119.0
X71.6Y-45.3
X71.6Y-104.3
X72.25Y-60.0
X72.25Y-119.0
X78.944Y-78.002
X78.944Y-137.002
X79.25Y-38.25
X79.25Y-52.75
X79.25Y-97.25
X79.25Y-111.75
X80.413Y-78.005
X80.413Y-137.005
T2
X27.8Y-31.5
X27.8Y-34.5
X27.8Y-90.5
X27.8Y-93.5
X28.9Y-39.4
X28.9Y-98.4
X29.0Y-31.5
X29.0Y-36.3
X29.0Y-90.5
X29.0Y-95.3
X30.1Y-39.4
X30.1Y-98.4
X30.2Y-31.5
X30.2Y-34.5
X30.2Y-90.5
X30.2Y-93.5
X32.5Y-32.6
X32.5Y-91.6
X33.3Y-34.9
X33.3Y-93.9
X34.1Y-30.4
X34.1Y-89.4
X35.4Y-41.9
X35.4Y-43.1
X35.4Y-100.9
X35.4Y-102.1
X35.425Y-62.609
X35.425Y-63.842
X35.425Y-65.075
X35.425Y-121.609
X35.425Y-122.842
X35.425Y-124.075
X35.5Y-73.0
X35.5Y-74.25
X35.5Y-75.5
X35.5Y-76.75
X35.5Y-132.0
X35.5Y-133.25
X35.5Y-134.5
X35.5Y-135.75
X35.9Y-30.9
X35.9Y-89.9
X36.6Y-41.9
X36.6Y-43.1
X36.6Y-100.9
X36.6Y-102.1
X37.9Y-34.2
X37.9Y-35.6
X37.9Y-93.2
X37.9Y-94.6
X38.2Y-30.9
X38.2Y-89.9
X39.0Y-34.9
X39.0Y-36.2
X39.0Y-37.5
X39.0Y-38.7
X39.0Y-64.0
X39.0Y-93.9
X39.0Y-95.2
X39.0Y-96.5
X39.0Y-97.7
X39.0Y-123.0
X39.2Y-73.5
X39.2Y-74.7
X39.2Y-75.9
X39.2Y-77.1
X39.2Y-132.5
X39.2Y-133.7
X39.2Y-134.9
X39.2Y-136.1
X40.5Y-30.9
X40.5Y-89.9
X42.3Y-32.5
X42.3Y-91.5
X43.0Y-36.1
X43.0Y-37.5
X43.0Y-95.1
X43.0Y-96.5
X46.5Y-62.0
X46.5Y-121.0
X51.086Y-72.981
X51.086Y-74.231
X51.086Y-75.424
X51.086Y-76.781
X51.086Y-131.981
X51.086Y-133.231
X51.086Y-134.424
X51.086Y-135.781
X51.128Y-62.561
X51.128Y-63.711
X51.128Y-64.961
X51.128Y-121.561
X51.128Y-122.711
X51.128Y-123.961
X54.8Y-73.5
X54.8Y-74.7
X54.8Y-75.9
X54.8Y-77.1
X54.8Y-132.5
X54.8Y-133.7
X54.8Y-134.9
X54.8Y-136.1
X62.25Y-61.75
X62.25Y-120.75
X70.2Y-62.7
X70.2Y-63.9
X70.2Y-65.1
X70.2Y-73.088
X70.2Y-74.338
X70.2Y-75.661
X70.2Y-76.9
X70.2Y-121.7
X70.2Y-122.9
X70.2Y-124.1
X70.2Y-132.088
X70.2Y-133.338
X70.2Y-134.661
X70.2Y-135.9
X71.4Y-40.5
X71.4Y-99.5
X71.5Y-55.75
X71.5Y-114.75
X72.65Y-40.5
X72.65Y-99.5
X72.75Y-55.75
X72.75Y-114.75
X73.4Y-74.7
X73.4Y-75.9
X73.4Y-77.1
X73.4Y-133.7
X73.4Y-134.9
X73.4Y-136.1
X73.9Y-40.5
X73.9Y-99.5
X74.0Y-55.75
X74.0Y-114.75
X80.75Y-66.0
X80.75Y-125.0
X82.15Y-40.5
X82.15Y-55.75
X82.15Y-99.5
X82.15Y-114.75
X83.4Y-40.5
X83.4Y-55.75
X83.4Y-99.5
X83.4Y-114.75
X84.65Y-40.5
X84.65Y-55.75
X84.65Y-99.5
X84.65Y-114.75
X85.9Y-40.5
X85.9Y-55.75
X85.9Y-99.5
X85.9Y-114.75
T3
X40.2Y-32.7
X40.2Y-91.7
X43.372Y-34.179
X43.372Y-93.179
T4
X25.92Y-62.67
X25.92Y-65.21
X25.92Y-67.75
X25.92Y-70.29
X25.92Y-121.67
X25.92Y-124.21
X25.92Y-126.75
X25.92Y-129.29
X28.48Y-62.67
X28.48Y-65.21
X28.48Y-67.75
X28.48Y-70.29
X28.48Y-121.67
X28.48Y-124.21
X28.48Y-126.75
X28.48Y-129.29
X30.6Y-42.59
X30.6Y-101.59
X31.02Y-62.67
X31.02Y-65.21
X31.02Y-67.75
X31.02Y-70.29
X31.02Y-121.67
X31.02Y-124.21
X31.02Y-126.75
X31.02Y-129.29
X31.37Y-25.23
X31.37Y-27.77
X31.37Y-84.23
X31.37Y-86.77
X33.14Y-42.59
X33.14Y-101.59
X33.91Y-25.23
X33.91Y-27.77
X33.91Y-84.23
X33.91Y-86.77
X36.45Y-25.23
X36.45Y-27.77
X36.45Y-84.23
X36.45Y-86.77
X38.99Y-25.23
X38.99Y-27.77
X38.99Y-84.23
X38.99Y-86.77
X41.53Y-25.23
X41.53Y-27.77
X41.53Y-84.23
X41.53Y-86.77
X44.07Y-25.23
X44.07Y-27.77
X44.07Y-84.23
X44.07Y-86.77
X46.61Y-25.23
X46.61Y-27.77
X46.61Y-84.23
X46.61Y-86.77
X49.15Y-25.23
X49.15Y-27.77
X49.15Y-84.23
X49.15Y-86.77
X51.69Y-25.23
X51.69Y-27.77
X51.69Y-84.23
X51.69Y-86.77
X54.23Y-25.23
X54.23Y-27.77
X54.23Y-84.23
X54.23Y-86.77
X56.77Y-25.23
X56.77Y-27.77
X56.77Y-84.23
X56.77Y-86.77
X59.31Y-25.23
X59.31Y-27.77
X59.31Y-84.23
X59.31Y-86.77
X61.85Y-25.23
X61.85Y-27.77
X61.85Y-84.23
X61.85Y-86.77
X62.459Y-72.127
X62.459Y-74.667
X62.459Y-77.207
X62.459Y-131.127
X62.459Y-133.667
X62.459Y-136.207
X64.39Y-25.23
X64.39Y-27.77
X64.39Y-84.23
X64.39Y-86.77
X64.999Y-72.127
X64.999Y-74.667
X64.999Y-77.207
X64.999Y-131.127
X64.999Y-133.667
X64.999Y-136.207
X66.93Y-25.23
X66.93Y-27.77
X66.93Y-84.23
X66.93Y-86.77
X69.47Y-25.23
X69.47Y-27.77
X69.47Y-84.23
X69.47Y-86.77
X72.01Y-25.23
X72.01Y-27.77
X72.01Y-84.23
X72.01Y-86.77
X74.55Y-25.23
X74.55Y-27.77
X74.55Y-84.23
X74.55Y-86.77
X77.09Y-25.23
X77.09Y-27.77
X77.09Y-84.23
X77.09Y-86.77
X79.63Y-25.23
X79.63Y-27.77
X79.63Y-84.23
X79.63Y-86.77
T0
M30
