%TF.GenerationSoftware,KiCad,Pcbnew,6.0.7+dfsg-1+b1*%
%TF.CreationDate,2022-09-08T22:48:18+01:00*%
%TF.ProjectId,panel,70616e65-6c2e-46b6-9963-61645f706362,rev?*%
%TF.SameCoordinates,Original*%
%TF.FileFunction,Drillmap*%
%TF.FilePolarity,Positive*%
%FSLAX45Y45*%
G04 Gerber Fmt 4.5, Leading zero omitted, Abs format (unit mm)*
G04 Created by KiCad (PCBNEW 6.0.7+dfsg-1+b1) date 2022-09-08 22:48:18*
%MOMM*%
%LPD*%
G01*
G04 APERTURE LIST*
%ADD10C,0.100000*%
%ADD11C,0.200000*%
%ADD12C,0.150000*%
%ADD13C,0.275000*%
G04 APERTURE END LIST*
D10*
X2600630Y-8200000D02*
X2583028Y-8200503D01*
X2799680Y-4342421D02*
X2800000Y-4351261D01*
X7357332Y-14088310D02*
X7353104Y-14085915D01*
X3776003Y-8171003D02*
X3772484Y-8174354D01*
X7333997Y-8171003D02*
X7330646Y-8167484D01*
X2205858Y-13270119D02*
X2210704Y-13270477D01*
X3803097Y-8120314D02*
X3802033Y-8125055D01*
X8819483Y-3239974D02*
X8816685Y-3236001D01*
X7384686Y-13801902D02*
X7389474Y-13801072D01*
X7321685Y-2043999D02*
X7324483Y-2040026D01*
X2732345Y-11844591D02*
X2727512Y-11846107D01*
X2309701Y-11907089D02*
X2307644Y-11911717D01*
X2373222Y-7796352D02*
X2383440Y-7807568D01*
X7370648Y-14094212D02*
X7366114Y-14092464D01*
X2238886Y-9705036D02*
X2243328Y-9707005D01*
X2036195Y-8675028D02*
X2032516Y-8671854D01*
X9067484Y-14074354D02*
X9063805Y-14077528D01*
X2319135Y-7705344D02*
X2323852Y-7717154D01*
X2321707Y-10112173D02*
X2326689Y-10117975D01*
X2346399Y-8335610D02*
X2338021Y-8348879D01*
X2301696Y-7631582D02*
X2303299Y-7644172D01*
X3725314Y-2298097D02*
X3720526Y-2298928D01*
X2040026Y-8678017D02*
X2036195Y-8675028D01*
X2001072Y-8613026D02*
X2000477Y-8608204D01*
X2506123Y-2314839D02*
X2493680Y-2319163D01*
X2298928Y-7454474D02*
X2299523Y-7459296D01*
X7309263Y-14029738D02*
X7307967Y-14025055D01*
X2800000Y-5848739D02*
X2799678Y-5857603D01*
X9067484Y-2025646D02*
X9071003Y-2028997D01*
X2346046Y-4234167D02*
X2352570Y-4238009D01*
X2001072Y-13354474D02*
X2001902Y-13349686D01*
X2074945Y-3800467D02*
X2079686Y-3799402D01*
X2079686Y-6368097D02*
X2074945Y-6367033D01*
X2028997Y-3826497D02*
X2032516Y-3823146D01*
X2011690Y-14047668D02*
X2009505Y-14043328D01*
X3748328Y-8190495D02*
X3743885Y-8192464D01*
X2007536Y-12208885D02*
X2005787Y-12204352D01*
X8899012Y-9180000D02*
X8894142Y-9179880D01*
X2798402Y-5867625D02*
X2797378Y-5872609D01*
X8798555Y-7629112D02*
X8799519Y-7616458D01*
X2074945Y-2794533D02*
X2070262Y-2793237D01*
X2777469Y-11813183D02*
X2774185Y-11817008D01*
X2391146Y-4249583D02*
X2399367Y-4249984D01*
X9083315Y-3236001D02*
X9080517Y-3239974D01*
X7305477Y-8110704D02*
X7305119Y-8105858D01*
X2712618Y-5949168D02*
X2707579Y-5949680D01*
X2294213Y-7435648D02*
X2295737Y-7440262D01*
X2263805Y-3819972D02*
X2267484Y-3823146D01*
X2229738Y-12265737D02*
X2225055Y-12267033D01*
X8801072Y-9095526D02*
X8800477Y-9090704D01*
X9005858Y-2000119D02*
X9010704Y-2000477D01*
X9029738Y-2004263D02*
X9034352Y-2005787D01*
X9094213Y-9114352D02*
X9092464Y-9118886D01*
X2508525Y-8214072D02*
X2493680Y-8219163D01*
X8899012Y-6780000D02*
X9000988Y-6780000D01*
X3800737Y-2070262D02*
X3802033Y-2074945D01*
X8832516Y-6805646D02*
X8836195Y-6802472D01*
X2333942Y-11874957D02*
X2330226Y-11878399D01*
X9063805Y-6802472D02*
X9067484Y-6805646D01*
X2238886Y-6362464D02*
X2234352Y-6364212D01*
X2298097Y-8617814D02*
X2297033Y-8622555D01*
X9100000Y-9080988D02*
X9099880Y-9085858D01*
X8832516Y-9154354D02*
X8828997Y-9151003D01*
X7305477Y-2210704D02*
X7305119Y-2205858D01*
X2300481Y-13516458D02*
X2301696Y-13531582D01*
X9095737Y-14029738D02*
X9094213Y-14034352D01*
X2025646Y-8664984D02*
X2022472Y-8661305D01*
X8736448Y-2415406D02*
X8726795Y-2403667D01*
X2770696Y-10179320D02*
X2774185Y-10182992D01*
X2052332Y-8685810D02*
X2048104Y-8683415D01*
X9000988Y-14100000D02*
X7404012Y-14100000D01*
X2496983Y-13781727D02*
X2511385Y-13786583D01*
X8889296Y-12680477D02*
X8894142Y-12680119D01*
X7319085Y-14051896D02*
X7316690Y-14047668D01*
X2290495Y-7426672D02*
X2292464Y-7431114D01*
X8819483Y-9139974D02*
X8816685Y-9136001D01*
X2205858Y-6369880D02*
X2200988Y-6370000D01*
X8776148Y-7717154D02*
X8781727Y-7703017D01*
X2280517Y-13310026D02*
X2283315Y-13313999D01*
X8696333Y-7826795D02*
X8707568Y-7816560D01*
X7310787Y-2065648D02*
X7312536Y-2061114D01*
X2366468Y-11855815D02*
X2359436Y-11858623D01*
X8499367Y-8200000D02*
X7404012Y-8200000D01*
X2297033Y-7444945D02*
X2298097Y-7449686D01*
X3768805Y-2022472D02*
X3772484Y-2025646D01*
X2362033Y-7782631D02*
X2373222Y-7796352D01*
X2299880Y-13364142D02*
X2300000Y-13369012D01*
X3800737Y-7970262D02*
X3802033Y-7974945D01*
X2392432Y-7816560D02*
X2405570Y-7828428D01*
X8825646Y-9147484D02*
X8822472Y-9143805D01*
X2271003Y-12241003D02*
X2267484Y-12244354D01*
X2001072Y-7454474D02*
X2001902Y-7449686D01*
X2570887Y-13798555D02*
X2586072Y-13799647D01*
X7394296Y-14099523D02*
X7389474Y-14098928D01*
X9015526Y-6781072D02*
X9020314Y-6781902D01*
X2732345Y-10155409D02*
X2737094Y-10157169D01*
X2028997Y-6341003D02*
X2025646Y-6337484D01*
X7314505Y-8143328D02*
X7312536Y-8138885D01*
X2698739Y-4250000D02*
X2707603Y-4250322D01*
X8856672Y-9170495D02*
X8852332Y-9168310D01*
X2048104Y-9711585D02*
X2052332Y-9709190D01*
X8825646Y-12712516D02*
X8828997Y-12708997D01*
X8786583Y-2511385D02*
X8781735Y-2497007D01*
X9098928Y-3195526D02*
X9098097Y-3200314D01*
X2450991Y-2338912D02*
X2437523Y-2346916D01*
X2000000Y-14000988D02*
X2000000Y-13369012D01*
X2417369Y-13737967D02*
X2427619Y-13745494D01*
X2767008Y-5924185D02*
X2763183Y-5927469D01*
X2295737Y-9767762D02*
X2297033Y-9772445D01*
X2215526Y-12268928D02*
X2210704Y-12269523D01*
X2750724Y-5936143D02*
X2746274Y-5938613D01*
X3805000Y-13899012D02*
X3805000Y-14000988D01*
X9100000Y-6879012D02*
X9100000Y-9080988D01*
X8836195Y-12702472D02*
X8840026Y-12699483D01*
X2311641Y-8405723D02*
X2307623Y-8418268D01*
X2036195Y-12247528D02*
X2032516Y-12244354D01*
X7375262Y-2004263D02*
X7379945Y-2002967D01*
X2000000Y-13369012D02*
X2000119Y-13364142D01*
X3715704Y-13800477D02*
X3720526Y-13801072D01*
X8682631Y-13737967D02*
X8694449Y-13728412D01*
X2300670Y-10061348D02*
X2301828Y-10068908D01*
X9098928Y-9095526D02*
X9098097Y-9100314D01*
X3797464Y-13861114D02*
X3799212Y-13865648D01*
X9047668Y-6791690D02*
X9051896Y-6794085D01*
X7312536Y-7961114D02*
X7314505Y-7956672D01*
X2234352Y-7375787D02*
X2238886Y-7377536D01*
X7399142Y-2299880D02*
X7394296Y-2299523D01*
X9034352Y-6785787D02*
X9038886Y-6787536D01*
X2555803Y-13796697D02*
X2570887Y-13798555D01*
X2569946Y-2301515D02*
X2551833Y-2303858D01*
X2297033Y-9772445D02*
X2298097Y-9777186D01*
X9100000Y-2099012D02*
X9100000Y-3180988D01*
X2297033Y-8622555D02*
X2295737Y-8627238D01*
X2032516Y-3823146D02*
X2036195Y-3819972D01*
X2309919Y-7676389D02*
X2314168Y-7691008D01*
X9056001Y-6796685D02*
X9059974Y-6799483D01*
X2036195Y-9719972D02*
X2040026Y-9716983D01*
X8799519Y-13516458D02*
X8800000Y-13499367D01*
X3720526Y-13801072D02*
X3725314Y-13801902D01*
X2295737Y-8627238D02*
X2294213Y-8631852D01*
X3779354Y-8167484D02*
X3776003Y-8171003D01*
X8870262Y-12684263D02*
X8874945Y-12682967D01*
X3803097Y-7979686D02*
X3803928Y-7984474D01*
X2294213Y-8631852D02*
X2292464Y-8636386D01*
X3776003Y-14071003D02*
X3772484Y-14074354D01*
X7305119Y-13894142D02*
X7305477Y-13889296D01*
X2220314Y-3799402D02*
X2225055Y-3800467D01*
X7306902Y-7979686D02*
X7307967Y-7974945D01*
X2011690Y-3849832D02*
X2014085Y-3845604D01*
X8814085Y-12728104D02*
X8816685Y-12723999D01*
X2084474Y-12268928D02*
X2079686Y-12268097D01*
X2304238Y-10078718D02*
X2306695Y-10085907D01*
X2797383Y-4327414D02*
X2798398Y-4332352D01*
X9029738Y-9175737D02*
X9025055Y-9177033D01*
X8786583Y-8411385D02*
X8781727Y-8396983D01*
X2323852Y-7717154D02*
X2330141Y-7730990D01*
X2300000Y-11950633D02*
X2300000Y-12170988D01*
X8499367Y-13800000D02*
X8513954Y-13799646D01*
X7330646Y-2032516D02*
X7333997Y-2028997D01*
X7399142Y-13800119D02*
X7404012Y-13800000D01*
X9097033Y-14025055D02*
X9095737Y-14029738D01*
X2048104Y-2783415D02*
X2043999Y-2780815D01*
X2717625Y-10151598D02*
X2722586Y-10152617D01*
X2271003Y-6341003D02*
X2267484Y-6344354D01*
X8894142Y-3279880D02*
X8889296Y-3279523D01*
X2330141Y-13630990D02*
X2337109Y-13644468D01*
X8644490Y-8237121D02*
X8633219Y-8231234D01*
X2016685Y-13313999D02*
X2019483Y-13310026D01*
X2011690Y-2745168D02*
X2009505Y-2740828D01*
X2330226Y-5978399D02*
X2326689Y-5982025D01*
X3804523Y-7989296D02*
X3804880Y-7994142D01*
X3803097Y-14020314D02*
X3802033Y-14025055D01*
X3795495Y-13856672D02*
X3797464Y-13861114D01*
X2070262Y-6365737D02*
X2065648Y-6364212D01*
X7348999Y-7916685D02*
X7353104Y-7914085D01*
X2259974Y-9716983D02*
X2263805Y-9719972D01*
X3793310Y-2247668D02*
X3790915Y-2251896D01*
X9080517Y-14059974D02*
X9077528Y-14063805D01*
X3772484Y-2274354D02*
X3768805Y-2277528D01*
X8814085Y-3231896D02*
X8811690Y-3227668D01*
X9083315Y-9136001D02*
X9080517Y-9139974D01*
X2205858Y-7370119D02*
X2210704Y-7370477D01*
X2277528Y-7406195D02*
X2280517Y-7410026D01*
X3725314Y-13801902D02*
X3730055Y-13802967D01*
X3743885Y-2007536D02*
X3748328Y-2009505D01*
X8800477Y-6869296D02*
X8801072Y-6864474D01*
X2005787Y-13335648D02*
X2007536Y-13331114D01*
X2405570Y-13728428D02*
X2417369Y-13737967D01*
X8879686Y-9178097D02*
X8874945Y-9177033D01*
X9083315Y-2043999D02*
X9085915Y-2048104D01*
X2005787Y-3863148D02*
X2007536Y-3858614D01*
X1501227Y-14600000D02*
X9598773Y-14600000D01*
X2298097Y-2717814D02*
X2297033Y-2722555D01*
X2000000Y-6270988D02*
X2000000Y-3896512D01*
X2347808Y-2433519D02*
X2339334Y-2446697D01*
X2052332Y-6358310D02*
X2048104Y-6355915D01*
X2000477Y-8608204D02*
X2000119Y-8603358D01*
X2043999Y-12253315D02*
X2040026Y-12250517D01*
X7357332Y-8188310D02*
X7353104Y-8185915D01*
X7394296Y-13800477D02*
X7399142Y-13800119D01*
X2303299Y-13544172D02*
X2306427Y-13561624D01*
X2727489Y-5946114D02*
X2722609Y-5947378D01*
X2780570Y-10190822D02*
X2783477Y-10194998D01*
X2259974Y-2778017D02*
X2256001Y-2780815D01*
X9599909Y-14599400D02*
X9600000Y-14598773D01*
X2796108Y-11777512D02*
X2794598Y-11782322D01*
X8617154Y-2323852D02*
X8605344Y-2319135D01*
X2001072Y-3881974D02*
X2001902Y-3877186D01*
X3761001Y-8183315D02*
X3756896Y-8185915D01*
X2746274Y-4261387D02*
X2750724Y-4263856D01*
X7327472Y-13836195D02*
X7330646Y-13832516D01*
X2300000Y-10049367D02*
X2300223Y-10056303D01*
X2000477Y-13359296D02*
X2001072Y-13354474D01*
X2229738Y-9701763D02*
X2234352Y-9703287D01*
X2303555Y-8433397D02*
X2300039Y-8449978D01*
X7305477Y-14010704D02*
X7305119Y-14005858D01*
X2036195Y-2022472D02*
X2040026Y-2019483D01*
X2011690Y-7422332D02*
X2014085Y-7418104D01*
X3720526Y-14098928D02*
X3715704Y-14099523D01*
X2200988Y-8697500D02*
X2099012Y-8697500D01*
X7384686Y-2001902D02*
X7389474Y-2001072D01*
X2763165Y-10172516D02*
X2767026Y-10175830D01*
X2061114Y-2007536D02*
X2065648Y-2005787D01*
X2220314Y-8695597D02*
X2215526Y-8696428D01*
X3802033Y-8125055D02*
X3800737Y-8129738D01*
X8805787Y-12745648D02*
X8807536Y-12741114D01*
X2079686Y-2795597D02*
X2074945Y-2794533D01*
X2339790Y-4229812D02*
X2346046Y-4234167D01*
X2759178Y-11830570D02*
X2755002Y-11833477D01*
X2089296Y-13270477D02*
X2094142Y-13270119D01*
X2001072Y-12185526D02*
X2000477Y-12180704D01*
X2290495Y-8640828D02*
X2288310Y-8645168D01*
X7366114Y-2007536D02*
X7370648Y-2005787D01*
X8561599Y-2306422D02*
X8544172Y-2303299D01*
X7327472Y-2263805D02*
X7324483Y-2259974D01*
X2341852Y-5968673D02*
X2337827Y-5971707D01*
X2002967Y-3872445D02*
X2004263Y-3867762D01*
X2247668Y-3809190D02*
X2251896Y-3811585D01*
X8870262Y-3275737D02*
X8865648Y-3274212D01*
X2301696Y-13531582D02*
X2303299Y-13544172D01*
X2234352Y-2791713D02*
X2229738Y-2793237D01*
X2435351Y-8248295D02*
X2422386Y-8257089D01*
X2025646Y-9730016D02*
X2028997Y-9726497D01*
X2009505Y-2740828D02*
X2007536Y-2736386D01*
X2000119Y-3891642D02*
X2000477Y-3886796D01*
X2536406Y-8206734D02*
X2521173Y-8210394D01*
X8736448Y-13684594D02*
X8745494Y-13672381D01*
X7353104Y-7914085D02*
X7357332Y-7911690D01*
X2283315Y-7413999D02*
X2285915Y-7418104D01*
X7357332Y-2288310D02*
X7353104Y-2285915D01*
X2303534Y-11923741D02*
X2302328Y-11928661D01*
X9088310Y-9127668D02*
X9085915Y-9131896D01*
X2014085Y-2749396D02*
X2011690Y-2745168D01*
X2365145Y-8310450D02*
X2355448Y-8322789D01*
X2318092Y-2488663D02*
X2311641Y-2505723D01*
X2065648Y-12264212D02*
X2061114Y-12262464D01*
X2297033Y-3872445D02*
X2298097Y-3877186D01*
X8828997Y-6808997D02*
X8832516Y-6805646D01*
X9071003Y-6808997D02*
X9074354Y-6812516D01*
X2355448Y-8322789D02*
X2346399Y-8335610D01*
X9034352Y-14094212D02*
X9029738Y-14095737D01*
X2040026Y-2019483D02*
X2043999Y-2016685D01*
X7306072Y-2084474D02*
X7306902Y-2079686D01*
X2313195Y-10099600D02*
X2315819Y-10103933D01*
X2001902Y-3877186D02*
X2002967Y-3872445D01*
X2746295Y-11838602D02*
X2741727Y-11840843D01*
X2032516Y-7395646D02*
X2036195Y-7392472D01*
X7348999Y-8183315D02*
X7345026Y-8180517D01*
X3756896Y-2014085D02*
X3761001Y-2016685D01*
X2300000Y-6270988D02*
X2299880Y-6275858D01*
X2000000Y-3896512D02*
X2000119Y-3891642D01*
X2427619Y-7845494D02*
X2440274Y-7853910D01*
X3785517Y-8159974D02*
X3782528Y-8163805D01*
X8811690Y-9127668D02*
X8809505Y-9123328D01*
X8670323Y-13746926D02*
X8682631Y-13737967D01*
X3764974Y-13819483D02*
X3768805Y-13822472D01*
X2337109Y-13644468D02*
X2346104Y-13659747D01*
X2014085Y-7418104D02*
X2016685Y-7413999D01*
X3752668Y-13811690D02*
X3756896Y-13814085D01*
X3804523Y-8110704D02*
X3803928Y-8115526D01*
X8804263Y-3209738D02*
X8802967Y-3205055D01*
X3802033Y-14025055D02*
X3800737Y-14029738D01*
X2014085Y-12221896D02*
X2011690Y-12217668D01*
X8559143Y-13794082D02*
X8576389Y-13790081D01*
X9043328Y-6789505D02*
X9047668Y-6791690D01*
X9071003Y-9151003D02*
X9067484Y-9154354D01*
X9025055Y-14097033D02*
X9020314Y-14098097D01*
X2022472Y-14063805D02*
X2019483Y-14059974D01*
X2292464Y-13331114D02*
X2294213Y-13335648D01*
X2383440Y-13707568D02*
X2392432Y-13716560D01*
X2303555Y-2533397D02*
X2300047Y-2549927D01*
X9010704Y-14099523D02*
X9005858Y-14099880D01*
X2521173Y-8210394D02*
X2508525Y-8214072D01*
X8513954Y-8200354D02*
X8499367Y-8200000D01*
X9099523Y-12769296D02*
X9099880Y-12774142D01*
X8807536Y-9118886D02*
X8805787Y-9114352D01*
X2263805Y-13292472D02*
X2267484Y-13295646D01*
X2300000Y-3896512D02*
X2300016Y-4150620D01*
X2482846Y-7876147D02*
X2496983Y-7881727D01*
X2299523Y-2708204D02*
X2298928Y-2713026D01*
X7333997Y-2271003D02*
X7330646Y-2267484D01*
X2043999Y-7386685D02*
X2048104Y-7384085D01*
X2263805Y-7392472D02*
X2267484Y-7395646D01*
X2016685Y-9741499D02*
X2019483Y-9737526D01*
X9095737Y-2070262D02*
X9097033Y-2074945D01*
X2247668Y-2785810D02*
X2243328Y-2787995D01*
X2234352Y-8691713D02*
X2229738Y-8693237D01*
X2001072Y-9781974D02*
X2001902Y-9777186D01*
X8889296Y-9179523D02*
X8884474Y-9178928D01*
X3739352Y-2294213D02*
X3734738Y-2295737D01*
X8705769Y-13718270D02*
X8716560Y-13707568D01*
X3739352Y-2005787D02*
X3743885Y-2007536D01*
X2000119Y-13364142D02*
X2000477Y-13359296D01*
X2790833Y-10208252D02*
X2792840Y-10212928D01*
X2056672Y-14090495D02*
X2052332Y-14088310D01*
X2040026Y-7389483D02*
X2043999Y-7386685D01*
X2025646Y-7402516D02*
X2028997Y-7398997D01*
X2025646Y-12237484D02*
X2022472Y-12233805D01*
X2000119Y-7464142D02*
X2000477Y-7459296D01*
X2056672Y-2787995D02*
X2052332Y-2785810D01*
X8861114Y-3272464D02*
X8856672Y-3270495D01*
X2511385Y-13786583D02*
X2526014Y-13790703D01*
X7321685Y-7943999D02*
X7324483Y-7940026D01*
X9090495Y-9123328D02*
X9088310Y-9127668D01*
X2036195Y-3819972D02*
X2040026Y-3816983D01*
X3734738Y-2295737D02*
X3730055Y-2297033D01*
X2741727Y-10159157D02*
X2746274Y-10161387D01*
X2274354Y-13302516D02*
X2277528Y-13306195D01*
X2526014Y-7890703D02*
X2540833Y-7894078D01*
X7353104Y-2285915D02*
X7348999Y-2283315D01*
X2004263Y-12199738D02*
X2002967Y-12195055D01*
X3782528Y-13836195D02*
X3785517Y-13840026D01*
X2048104Y-2014085D02*
X2052332Y-2011690D01*
X2300000Y-13369012D02*
X2300016Y-13500620D01*
X2210704Y-8697023D02*
X2205858Y-8697380D01*
X7394296Y-7900477D02*
X7399142Y-7900119D01*
X2303534Y-6023741D02*
X2302328Y-6028661D01*
X2056672Y-12260495D02*
X2052332Y-12258310D01*
X3782528Y-2036195D02*
X3785517Y-2040026D01*
X3705988Y-2000000D02*
X3710858Y-2000119D01*
X2285915Y-8649396D02*
X2283315Y-8653501D01*
X2440274Y-7853910D02*
X2453318Y-7861661D01*
X3790915Y-8151896D02*
X3788315Y-8156001D01*
X2074945Y-9700467D02*
X2079686Y-9699403D01*
X8889296Y-3279523D02*
X8884474Y-3278928D01*
X2285915Y-7418104D02*
X2288310Y-7422332D01*
X2297033Y-2722555D02*
X2295737Y-2727238D01*
X9095737Y-12750262D02*
X9097033Y-12754945D01*
X2016685Y-3841499D02*
X2019483Y-3837526D01*
X2263805Y-6347528D02*
X2259974Y-6350517D01*
X3802033Y-2225055D02*
X3800737Y-2229738D01*
X2271003Y-9726497D02*
X2274354Y-9730016D01*
X2283315Y-9741499D02*
X2285915Y-9745604D01*
X2200988Y-9697500D02*
X2205858Y-9697620D01*
X9038886Y-14092464D02*
X9034352Y-14094212D01*
X2298928Y-8613026D02*
X2298097Y-8617814D01*
X9025055Y-6782967D02*
X9029738Y-6784263D01*
X7357332Y-7911690D02*
X7361672Y-7909505D01*
X2318659Y-10108127D02*
X2321707Y-10112173D01*
X7324483Y-2259974D02*
X7321685Y-2256001D01*
X2079686Y-7371902D02*
X2084474Y-7371072D01*
X9085915Y-9131896D02*
X9083315Y-9136001D01*
X2259974Y-13289483D02*
X2263805Y-13292472D01*
X7309263Y-2229738D02*
X7307967Y-2225055D01*
X2770696Y-11820679D02*
X2767008Y-11824185D01*
X9598773Y-14600000D02*
X9599530Y-14599839D01*
X8762879Y-8355510D02*
X8755236Y-8342402D01*
X9000988Y-12680000D02*
X9005858Y-12680119D01*
X7305000Y-7999012D02*
X7305119Y-7994142D01*
X9097033Y-3205055D02*
X9095737Y-3209738D01*
X2707579Y-10150320D02*
X2712618Y-10150832D01*
X7307967Y-13874945D02*
X7309263Y-13870262D01*
X2800000Y-10251261D02*
X2799935Y-11752544D01*
X2790833Y-5891748D02*
X2788613Y-5896274D01*
X2280517Y-2757474D02*
X2277528Y-2761305D01*
X2750724Y-11836143D02*
X2746295Y-11838602D01*
X2040026Y-14080517D02*
X2036195Y-14077528D01*
X2300047Y-2549927D02*
X2300000Y-2698488D01*
X3805000Y-7999012D02*
X3805000Y-8100988D01*
X8546650Y-13796321D02*
X8559143Y-13794082D01*
X9098097Y-2079686D02*
X9098928Y-2084474D01*
X2001072Y-2713026D02*
X2000477Y-2708204D01*
X2295737Y-12199738D02*
X2294213Y-12204352D01*
X3748328Y-14090495D02*
X3743885Y-14092464D01*
X9056001Y-3263315D02*
X9051896Y-3265915D01*
X2320188Y-5989790D02*
X2317241Y-5993910D01*
X2290495Y-6313328D02*
X2288310Y-6317668D01*
X2016685Y-14056001D02*
X2014085Y-14051896D01*
X2000000Y-9796512D02*
X2000119Y-9791642D01*
X2247668Y-6358310D02*
X2243328Y-6360495D01*
X2366777Y-2408496D02*
X2355448Y-2422789D01*
X2280517Y-8657474D02*
X2277528Y-8661305D01*
X9080517Y-2040026D02*
X9083315Y-2043999D01*
X8828997Y-3251003D02*
X8825646Y-3247484D01*
X2297033Y-6295055D02*
X2295737Y-6299738D01*
X3803097Y-2220314D02*
X3802033Y-2225055D01*
X2294213Y-2731852D02*
X2292464Y-2736386D01*
X8865648Y-3274212D02*
X8861114Y-3272464D01*
X3705988Y-7900000D02*
X3710858Y-7900119D01*
X1500217Y-1500390D02*
X1500000Y-1501227D01*
X2774185Y-4282992D02*
X2777469Y-4286817D01*
X2061114Y-2789964D02*
X2056672Y-2787995D01*
X8781735Y-2497007D02*
X8776148Y-2482846D01*
X2600643Y-2300000D02*
X2585571Y-2300372D01*
X2794598Y-5882322D02*
X2792831Y-5887094D01*
X9077528Y-6816195D02*
X9080517Y-6820026D01*
X7366114Y-7907536D02*
X7370648Y-7905787D01*
X2243328Y-8687995D02*
X2238886Y-8689964D01*
X9005858Y-12680119D02*
X9010704Y-12680477D01*
X2032516Y-9723146D02*
X2036195Y-9719972D01*
X9034352Y-2005787D02*
X9038886Y-2007536D01*
X2009505Y-3854172D02*
X2011690Y-3849832D01*
X2586072Y-7899647D02*
X2600633Y-7900000D01*
X2299880Y-2703358D02*
X2299523Y-2708204D01*
X2770696Y-4279320D02*
X2774185Y-4282992D01*
X7345026Y-13819483D02*
X7348999Y-13816685D01*
X9099880Y-6874142D02*
X9100000Y-6879012D01*
X2074945Y-8694533D02*
X2070262Y-8693237D01*
X7307967Y-8125055D02*
X7306902Y-8120314D01*
X2011690Y-2052332D02*
X2014085Y-2048104D01*
X2397854Y-8276650D02*
X2386376Y-8287350D01*
X8790703Y-2526014D02*
X8786583Y-2511385D01*
X2792840Y-10212928D02*
X2794598Y-10217678D01*
X2002967Y-13344945D02*
X2004263Y-13340262D01*
X2326689Y-11882025D02*
X2323340Y-11885825D01*
X2005787Y-12204352D02*
X2004263Y-12199738D01*
X9010704Y-3279523D02*
X9005858Y-3279880D01*
X2285915Y-3845604D02*
X2288310Y-3849832D01*
X2796108Y-10222488D02*
X2797383Y-10227414D01*
X9600000Y-1501227D02*
X9599839Y-1500470D01*
X8799519Y-7616458D02*
X8800000Y-7599367D01*
X2074945Y-2002967D02*
X2079686Y-2001902D01*
X2294213Y-6304352D02*
X2292464Y-6308885D01*
X2052332Y-2011690D02*
X2056672Y-2009505D01*
X3799212Y-7965648D02*
X3800737Y-7970262D01*
X2299880Y-6275858D02*
X2299523Y-6280704D01*
X3734738Y-14095737D02*
X3730055Y-14097033D01*
X2792840Y-11787072D02*
X2790833Y-11791748D01*
X2298097Y-3877186D02*
X2298928Y-3881974D01*
X8591008Y-13785832D02*
X8603017Y-13781727D01*
X2002967Y-12195055D02*
X2001902Y-12190314D01*
X8825646Y-3247484D02*
X8822472Y-3243805D01*
X2200988Y-6370000D02*
X2099012Y-6370000D01*
X7306072Y-7984474D02*
X7306902Y-7979686D01*
X2583028Y-8200503D02*
X2567413Y-8201776D01*
X9051896Y-6794085D02*
X9056001Y-6796685D01*
X2056672Y-3807005D02*
X2061114Y-3805036D01*
X2300000Y-2698488D02*
X2299880Y-2703358D01*
X7316690Y-2247668D02*
X7314505Y-2243328D01*
X2302912Y-10073856D02*
X2304238Y-10078718D01*
X2707579Y-5949680D02*
X2698739Y-5950000D01*
X2005787Y-8631852D02*
X2004263Y-8627238D01*
X2330141Y-7730990D02*
X2337109Y-7744468D01*
X2215526Y-9698572D02*
X2220314Y-9699403D01*
X2274354Y-3830016D02*
X2277528Y-3833695D01*
X2298928Y-2713026D02*
X2298097Y-2717814D01*
X2256001Y-6353315D02*
X2251896Y-6355915D01*
X9071003Y-14071003D02*
X9067484Y-14074354D01*
X2774185Y-11817008D02*
X2770696Y-11820679D01*
X7305119Y-8105858D02*
X7305000Y-8100988D01*
X2294213Y-3863148D02*
X2295737Y-3867762D01*
X2317241Y-11893910D02*
X2314506Y-11898174D01*
X2094142Y-14099880D02*
X2089296Y-14099523D01*
X7337516Y-14074354D02*
X7333997Y-14071003D01*
X9599400Y-1500091D02*
X9598773Y-1500000D01*
X2359413Y-4241367D02*
X2366468Y-4244185D01*
X2354506Y-7772381D02*
X2362033Y-7782631D01*
X2280517Y-6329974D02*
X2277528Y-6333805D01*
X8807536Y-6841114D02*
X8809505Y-6836672D01*
X2011690Y-6317668D02*
X2009505Y-6313328D01*
X7384686Y-7901902D02*
X7389474Y-7901072D01*
X2243328Y-12260495D02*
X2238886Y-12262464D01*
X7404012Y-8200000D02*
X7399142Y-8199880D01*
X9099880Y-2094142D02*
X9100000Y-2099012D01*
X2205858Y-3797619D02*
X2210704Y-3797977D01*
X7341195Y-14077528D02*
X7337516Y-14074354D01*
X3795495Y-7956672D02*
X3797464Y-7961114D01*
X9099523Y-6869296D02*
X9099880Y-6874142D01*
X2043999Y-9714185D02*
X2048104Y-9711585D01*
X2065648Y-8691713D02*
X2061114Y-8689964D01*
X2043999Y-8680815D02*
X2040026Y-8678017D01*
X9067484Y-12705646D02*
X9071003Y-12708997D01*
X7306072Y-8115526D02*
X7305477Y-8110704D01*
X7306902Y-2079686D02*
X7307967Y-2074945D01*
X8776148Y-13617154D02*
X8781727Y-13603017D01*
X3768805Y-14077528D02*
X3764974Y-14080517D01*
X3779354Y-7932516D02*
X3782528Y-7936195D01*
X8737967Y-7782631D02*
X8746912Y-7770344D01*
X2319135Y-13605344D02*
X2323852Y-13617154D01*
X9059974Y-6799483D02*
X9063805Y-6802472D01*
X8559143Y-7894082D02*
X8576389Y-7890081D01*
X2079686Y-9699403D02*
X2084474Y-9698572D01*
X8805787Y-9114352D02*
X8804263Y-9109738D01*
X7312536Y-14038885D02*
X7310787Y-14034352D01*
X2600633Y-13800000D02*
X3705988Y-13800000D01*
X3764974Y-2280517D02*
X3761001Y-2283315D01*
X2036195Y-2775028D02*
X2032516Y-2771854D01*
X7379945Y-13802967D02*
X7384686Y-13801902D01*
X2016685Y-7413999D02*
X2019483Y-7410026D01*
X8544172Y-2303299D02*
X8529113Y-2301445D01*
X7305000Y-2200988D02*
X7305000Y-2099012D01*
X3739352Y-7905787D02*
X3743885Y-7907536D01*
X8684594Y-2363552D02*
X8670323Y-2353074D01*
X2099012Y-3797500D02*
X2200988Y-3797500D01*
X2259974Y-6350517D02*
X2256001Y-6353315D01*
X2354506Y-13672381D02*
X2362033Y-13682631D01*
X3710858Y-2299880D02*
X3705988Y-2300000D01*
X2386114Y-5950993D02*
X2381092Y-5951828D01*
X2084474Y-13271072D02*
X2089296Y-13270477D01*
X8670344Y-8253088D02*
X8659747Y-8246104D01*
X8761674Y-13646660D02*
X8768766Y-13633218D01*
X2084474Y-3798572D02*
X2089296Y-3797977D01*
X2025646Y-2032516D02*
X2028997Y-2028997D01*
X7404012Y-14100000D02*
X7399142Y-14099880D01*
X7333997Y-2028997D02*
X7337516Y-2025646D01*
X2025646Y-13302516D02*
X2028997Y-13298997D01*
X7306902Y-13879686D02*
X7307967Y-13874945D01*
X2288310Y-9749832D02*
X2290495Y-9754172D01*
X2288310Y-12217668D02*
X2285915Y-12221896D01*
X2306686Y-6014117D02*
X2304988Y-6018889D01*
X2422386Y-2357089D02*
X2411846Y-2364990D01*
X9020314Y-2001902D02*
X9025055Y-2002967D01*
X2411846Y-2364990D02*
X2399768Y-2374970D01*
X2462620Y-2332726D02*
X2450991Y-2338912D01*
X9088310Y-6832332D02*
X9090495Y-6836672D01*
X8728412Y-7794449D02*
X8737967Y-7782631D01*
X9095737Y-3209738D02*
X9094213Y-3214352D01*
X2333923Y-4225027D02*
X2339790Y-4229812D01*
X3804880Y-7994142D02*
X3805000Y-7999012D01*
X7353104Y-2014085D02*
X7357332Y-2011690D01*
X2299523Y-8608204D02*
X2298928Y-8613026D01*
X3705988Y-14100000D02*
X2099012Y-14100000D01*
X3743885Y-7907536D02*
X3748328Y-7909505D01*
X9047668Y-9168310D02*
X9043328Y-9170495D01*
X8781727Y-13603017D02*
X8786583Y-13588615D01*
X8657597Y-7855236D02*
X8672381Y-7845494D01*
X2304988Y-6018889D02*
X2303534Y-6023741D01*
X8776148Y-8382846D02*
X8769859Y-8369010D01*
X2238886Y-2789964D02*
X2234352Y-2791713D01*
X2009505Y-2056672D02*
X2011690Y-2052332D01*
X2070262Y-7374263D02*
X2074945Y-7372967D01*
X2386114Y-11850993D02*
X2381092Y-11851828D01*
X2451013Y-8238899D02*
X2435351Y-8248295D01*
X2210704Y-6369523D02*
X2205858Y-6369880D01*
X2011690Y-12217668D02*
X2009505Y-12213328D01*
X3776003Y-7928997D02*
X3779354Y-7932516D01*
X9051896Y-9165915D02*
X9047668Y-9168310D01*
X9095737Y-9109738D02*
X9094213Y-9114352D01*
X7341195Y-2277528D02*
X7337516Y-2274354D01*
X7353104Y-8185915D02*
X7348999Y-8183315D01*
X8800120Y-12774142D02*
X8800477Y-12769296D01*
X9090495Y-12736672D02*
X9092464Y-12741114D01*
X2355448Y-2422789D02*
X2347808Y-2433519D01*
X2079686Y-3799402D02*
X2084474Y-3798572D01*
X2048104Y-3811585D02*
X2052332Y-3809190D01*
X2019483Y-3837526D02*
X2022472Y-3833695D01*
X2277528Y-13306195D02*
X2280517Y-13310026D01*
X2056672Y-2009505D02*
X2061114Y-2007536D01*
X2267484Y-6344354D02*
X2263805Y-6347528D01*
X8659726Y-13753910D02*
X8670323Y-13746926D01*
X8879686Y-6781902D02*
X8884474Y-6781072D01*
X2074945Y-6367033D02*
X2070262Y-6365737D01*
X2383440Y-7807568D02*
X2392432Y-7816560D01*
X8802967Y-12754945D02*
X8804263Y-12750262D01*
X8884474Y-6781072D02*
X8889296Y-6780477D01*
X2453318Y-7861661D02*
X2469010Y-7869859D01*
X8807536Y-3218885D02*
X8805787Y-3214352D01*
X8781727Y-8396983D02*
X8776148Y-8382846D01*
X8576414Y-8209925D02*
X8559167Y-8205922D01*
X9098928Y-2084474D02*
X9099523Y-2089296D01*
X7316690Y-7952332D02*
X7319085Y-7948104D01*
X3720526Y-7901072D02*
X3725314Y-7901902D01*
X9085915Y-2048104D02*
X9088310Y-2052332D01*
X2386376Y-8287350D02*
X2375463Y-8298627D01*
X3800737Y-2229738D02*
X3799212Y-2234352D01*
X8800000Y-6879012D02*
X8800120Y-6874142D01*
X2036195Y-7392472D02*
X2040026Y-7389483D01*
X2300000Y-9796512D02*
X2300000Y-10049367D01*
X2741727Y-4259157D02*
X2746274Y-4261387D01*
X2797383Y-10227414D02*
X2798398Y-10232352D01*
X2600633Y-7900000D02*
X3705988Y-7900000D01*
X3720526Y-8198928D02*
X3715704Y-8199523D01*
X3752668Y-2011690D02*
X3756896Y-2014085D01*
X2089296Y-14099523D02*
X2084474Y-14098928D01*
X2299523Y-12180704D02*
X2298928Y-12185526D01*
X2786144Y-5900723D02*
X2783464Y-5905021D01*
X2357089Y-10140299D02*
X2361717Y-10142356D01*
X2200988Y-13270000D02*
X2205858Y-13270119D01*
X9077528Y-9143805D02*
X9074354Y-9147484D01*
X2759159Y-5930584D02*
X2755022Y-5933464D01*
X7306902Y-2220314D02*
X7306072Y-2215526D01*
X7309263Y-2070262D02*
X7310787Y-2065648D01*
X2298097Y-7449686D02*
X2298928Y-7454474D01*
X2800000Y-4351261D02*
X2800000Y-5848739D01*
X9099523Y-2089296D02*
X9099880Y-2094142D01*
X8786583Y-7688615D02*
X8790703Y-7673986D01*
X2238886Y-12262464D02*
X2234352Y-12264212D01*
X2251896Y-6355915D02*
X2247668Y-6358310D01*
X2712642Y-4250835D02*
X2717648Y-4251602D01*
X2215526Y-7371072D02*
X2220314Y-7371902D01*
X2274354Y-8664984D02*
X2271003Y-8668503D01*
X2540833Y-13794078D02*
X2555803Y-13796697D01*
X2306427Y-7661624D02*
X2309919Y-7676389D01*
X2290495Y-2740828D02*
X2288310Y-2745168D01*
X2786144Y-10199276D02*
X2788602Y-10203705D01*
X9098928Y-12764474D02*
X9099523Y-12769296D01*
X2225055Y-12267033D02*
X2220314Y-12268097D01*
X8790703Y-13573986D02*
X8794078Y-13559167D01*
X3705988Y-8200000D02*
X2600630Y-8200000D01*
X8807536Y-12741114D02*
X8809505Y-12736672D01*
X2061114Y-8689964D02*
X2056672Y-8687995D01*
X2243328Y-13279505D02*
X2247668Y-13281690D01*
X2004263Y-8627238D02*
X2002967Y-8622555D01*
X7337516Y-7925646D02*
X7341195Y-7922472D01*
X3805000Y-8100988D02*
X3804880Y-8105858D01*
X8843999Y-12696685D02*
X8848104Y-12694085D01*
X3748328Y-7909505D02*
X3752668Y-7911690D01*
X1500160Y-14599529D02*
X1500600Y-14599909D01*
X3730055Y-13802967D02*
X3734738Y-13804263D01*
X3788315Y-2256001D02*
X3785517Y-2259974D01*
X2001902Y-6290314D02*
X2001072Y-6285526D01*
X2381092Y-10148172D02*
X2386089Y-10149003D01*
X9005858Y-9179880D02*
X9000988Y-9180000D01*
X2727512Y-11846107D02*
X2722609Y-11847378D01*
X9000988Y-3280000D02*
X8899012Y-3280000D01*
X7327472Y-8163805D02*
X7324483Y-8159974D01*
X2007536Y-2736386D02*
X2005787Y-2731852D01*
X3799212Y-8134352D02*
X3797464Y-8138885D01*
X3788315Y-8156001D02*
X3785517Y-8159974D01*
X2243328Y-9707005D02*
X2247668Y-9709190D01*
X8633219Y-7868766D02*
X8644490Y-7862878D01*
X2707579Y-11849680D02*
X2698739Y-11850000D01*
X2479118Y-8225010D02*
X2464876Y-8231599D01*
X2799165Y-4337358D02*
X2799680Y-4342421D01*
X8786583Y-13588615D02*
X8790703Y-13573986D01*
X8546650Y-8203679D02*
X8531607Y-8201699D01*
X8816685Y-9136001D02*
X8814085Y-9131896D01*
X8633219Y-8231234D02*
X8619458Y-8224841D01*
X2002967Y-8622555D02*
X2001902Y-8617814D01*
X2333923Y-10125027D02*
X2339811Y-10129827D01*
X3768805Y-13822472D02*
X3772484Y-13825646D01*
X9047668Y-2011690D02*
X9051896Y-2014085D01*
X9090495Y-2056672D02*
X9092464Y-2061114D01*
X8804263Y-9109738D02*
X8802967Y-9105055D01*
X2094142Y-6369880D02*
X2089296Y-6369523D01*
X2229738Y-3801763D02*
X2234352Y-3803287D01*
X3793310Y-13852332D02*
X3795495Y-13856672D01*
X9043328Y-9170495D02*
X9038886Y-9172464D01*
X3805000Y-2200988D02*
X3804880Y-2205858D01*
X2234352Y-9703287D02*
X2238886Y-9705036D01*
X7399142Y-14099880D02*
X7394296Y-14099523D01*
X8800000Y-7599367D02*
X8800000Y-6879012D01*
X7379945Y-7902967D02*
X7384686Y-7901902D01*
X2300016Y-13500620D02*
X2300481Y-13516458D01*
X2767008Y-11824185D02*
X2763165Y-11827484D01*
X1500000Y-14598773D02*
X1500160Y-14599529D01*
X3743885Y-14092464D02*
X3739352Y-14094212D01*
X7314505Y-14043328D02*
X7312536Y-14038885D01*
X3772484Y-7925646D02*
X3776003Y-7928997D01*
X7345026Y-8180517D02*
X7341195Y-8177528D01*
X9074354Y-6812516D02*
X9077528Y-6816195D01*
X2056672Y-6360495D02*
X2052332Y-6358310D01*
X2299880Y-9791642D02*
X2300000Y-9796512D01*
X9056001Y-12696685D02*
X9059974Y-12699483D01*
X7394296Y-2000477D02*
X7399142Y-2000119D01*
X2288310Y-13322332D02*
X2290495Y-13326672D01*
X3785517Y-2259974D02*
X3782528Y-2263805D01*
X2352593Y-11861979D02*
X2346067Y-11865819D01*
X2794598Y-4317678D02*
X2796108Y-4322488D01*
X3756896Y-2285915D02*
X3752668Y-2288310D01*
X2737094Y-11842831D02*
X2732345Y-11844591D01*
X9071003Y-3251003D02*
X9067484Y-3254354D01*
X2084474Y-14098928D02*
X2079686Y-14098097D01*
X2251896Y-2783415D02*
X2247668Y-2785810D01*
X9074354Y-9147484D02*
X9071003Y-9151003D01*
X2094142Y-9697620D02*
X2099012Y-9697500D01*
X2000477Y-12180704D02*
X2000119Y-12175858D01*
X2007536Y-3858614D02*
X2009505Y-3854172D01*
X2712618Y-10150832D02*
X2717625Y-10151598D01*
X7389474Y-7901072D02*
X7394296Y-7900477D01*
X9080517Y-12720026D02*
X9083315Y-12723999D01*
X3739352Y-8194212D02*
X3734738Y-8195737D01*
X3730055Y-7902967D02*
X3734738Y-7904263D01*
X2274354Y-7402516D02*
X2277528Y-7406195D01*
X7353104Y-14085915D02*
X7348999Y-14083315D01*
X8884474Y-12681072D02*
X8889296Y-12680477D01*
X2070262Y-14095737D02*
X2065648Y-14094212D01*
X8755236Y-8342402D02*
X8745479Y-8327598D01*
X2070262Y-8693237D02*
X2065648Y-8691713D01*
X2381092Y-11851828D02*
X2373717Y-11853541D01*
X3756896Y-13814085D02*
X3761001Y-13816685D01*
X3804523Y-13889296D02*
X3804880Y-13894142D01*
X2000477Y-2708204D02*
X2000119Y-2703358D01*
X3805000Y-2099012D02*
X3805000Y-2200988D01*
X2084474Y-6368928D02*
X2079686Y-6368097D01*
X8843999Y-6796685D02*
X8848104Y-6794085D01*
X3793310Y-2052332D02*
X3795495Y-2056672D01*
X7337516Y-2274354D02*
X7333997Y-2271003D01*
X7314505Y-7956672D02*
X7316690Y-7952332D01*
X2304988Y-4181111D02*
X2307634Y-4188259D01*
X3800737Y-13870262D02*
X3802033Y-13874945D01*
X2283315Y-12226001D02*
X2280517Y-12229974D01*
X2009505Y-13326672D02*
X2011690Y-13322332D01*
X2256001Y-3814185D02*
X2259974Y-3816983D01*
X2019483Y-2040026D02*
X2022472Y-2036195D01*
X2225055Y-8694533D02*
X2220314Y-8695597D01*
X3795495Y-2243328D02*
X3793310Y-2247668D01*
X2299880Y-3891642D02*
X2300000Y-3896512D01*
X8840026Y-6799483D02*
X8843999Y-6796685D01*
X9090495Y-14043328D02*
X9088310Y-14047668D01*
X3804880Y-2205858D02*
X3804523Y-2210704D01*
X2001072Y-2084474D02*
X2001902Y-2079686D01*
X3804880Y-13894142D02*
X3805000Y-13899012D01*
X8531607Y-8201699D02*
X8513954Y-8200354D01*
X2299523Y-13359296D02*
X2299880Y-13364142D01*
X8776148Y-2482846D02*
X8769870Y-2469033D01*
X2698739Y-10150000D02*
X2707579Y-10150320D01*
X2783477Y-11805002D02*
X2780584Y-11809159D01*
X7312536Y-2238886D02*
X7310787Y-2234352D01*
X2247668Y-9709190D02*
X2251896Y-9711585D01*
X2393672Y-10149775D02*
X2400633Y-10150000D01*
X2011690Y-8645168D02*
X2009505Y-8640828D01*
X2225055Y-13272967D02*
X2229738Y-13274263D01*
X8499367Y-7900000D02*
X8513954Y-7899646D01*
X2767008Y-4275815D02*
X2770696Y-4279320D01*
X8800120Y-9085858D02*
X8800000Y-9080988D01*
X2005787Y-14034352D02*
X2004263Y-14029738D01*
X7348999Y-14083315D02*
X7345026Y-14080517D01*
X7333997Y-7928997D02*
X7337516Y-7925646D01*
X2277528Y-9733695D02*
X2280517Y-9737526D01*
X2317241Y-5993910D02*
X2314506Y-5998174D01*
X3739352Y-14094212D02*
X3734738Y-14095737D01*
X2376169Y-10147094D02*
X2381092Y-10148172D01*
X2314493Y-4201805D02*
X2318659Y-4208127D01*
X2001902Y-13349686D02*
X2002967Y-13344945D01*
X9080517Y-9139974D02*
X9077528Y-9143805D01*
X2493680Y-8219163D02*
X2479118Y-8225010D01*
X8894142Y-6780119D02*
X8899012Y-6780000D01*
X8513954Y-7899646D02*
X8531607Y-7898301D01*
X8531607Y-13798301D02*
X8546650Y-13796321D01*
X2040026Y-3816983D02*
X2043999Y-3814185D01*
X2032516Y-2025646D02*
X2036195Y-2022472D01*
X2337827Y-5971707D02*
X2333942Y-5974957D01*
X8800120Y-3185858D02*
X8800000Y-3180988D01*
X2298097Y-13349686D02*
X2298928Y-13354474D01*
X9094213Y-14034352D02*
X9092464Y-14038885D01*
X9067484Y-3254354D02*
X9063805Y-3257528D01*
X2251896Y-9711585D02*
X2256001Y-9714185D01*
X2014085Y-8649396D02*
X2011690Y-8645168D01*
X2022472Y-2036195D02*
X2025646Y-2032516D01*
X2288310Y-8645168D02*
X2285915Y-8649396D01*
X2786144Y-11800723D02*
X2783477Y-11805002D01*
X2052332Y-12258310D02*
X2048104Y-12255915D01*
X8832516Y-3254354D02*
X8828997Y-3251003D01*
X9059974Y-3260517D02*
X9056001Y-3263315D01*
X2540833Y-7894078D02*
X2555803Y-7896697D01*
X2074945Y-12267033D02*
X2070262Y-12265737D01*
X8694449Y-13728412D02*
X8705769Y-13718270D01*
X3803928Y-7984474D02*
X3804523Y-7989296D01*
X2707603Y-4250322D02*
X2712642Y-4250835D01*
X3803928Y-14015526D02*
X3803097Y-14020314D01*
X2099012Y-8697500D02*
X2094142Y-8697380D01*
X2205858Y-9697620D02*
X2210704Y-9697977D01*
X8646660Y-2338326D02*
X8630967Y-2330130D01*
X9025055Y-2002967D02*
X9029738Y-2004263D01*
X8755223Y-7757619D02*
X8762879Y-7744490D01*
X2229738Y-13274263D02*
X2234352Y-13275787D01*
X2225055Y-3800467D02*
X2229738Y-3801763D01*
X2052332Y-13281690D02*
X2056672Y-13279505D01*
X7307967Y-14025055D02*
X7306902Y-14020314D01*
X2759159Y-4269416D02*
X2763165Y-4272516D01*
X2295737Y-2727238D02*
X2294213Y-2731852D01*
X2283315Y-2753501D02*
X2280517Y-2757474D01*
X7361672Y-8190495D02*
X7357332Y-8188310D01*
X9099880Y-3185858D02*
X9099523Y-3190704D01*
X2025646Y-14067484D02*
X2022472Y-14063805D01*
X2295737Y-6299738D02*
X2294213Y-6304352D01*
X3779354Y-13832516D02*
X3782528Y-13836195D01*
X2302328Y-11928661D02*
X2301373Y-11933635D01*
X2215526Y-3798572D02*
X2220314Y-3799402D01*
X7384686Y-8198097D02*
X7379945Y-8197033D01*
X9010704Y-12680477D02*
X9015526Y-12681072D01*
X3715704Y-14099523D02*
X3710858Y-14099880D01*
X8794078Y-8440833D02*
X8790703Y-8426014D01*
X3705988Y-2300000D02*
X2600643Y-2300000D01*
X3803097Y-13879686D02*
X3803928Y-13884474D01*
X2005787Y-2065648D02*
X2007536Y-2061114D01*
X9059974Y-2019483D02*
X9063805Y-2022472D01*
X2299523Y-7459296D02*
X2299880Y-7464142D01*
X9038886Y-2007536D02*
X9043328Y-2009505D01*
X2285915Y-13318104D02*
X2288310Y-13322332D01*
X2283315Y-3841499D02*
X2285915Y-3845604D01*
X8865648Y-9174213D02*
X8861114Y-9172464D01*
X9080517Y-3239974D02*
X9077528Y-3243805D01*
X8801903Y-12759686D02*
X8802967Y-12754945D01*
X2070262Y-12265737D02*
X2065648Y-12264212D01*
X9063805Y-12702472D02*
X9067484Y-12705646D01*
X8805787Y-6845648D02*
X8807536Y-6841114D01*
X1500600Y-14599909D02*
X1501227Y-14600000D01*
X2000119Y-2094142D02*
X2000477Y-2089296D01*
X2002967Y-6295055D02*
X2001902Y-6290314D01*
X2788602Y-11796295D02*
X2786144Y-11800723D01*
X3743885Y-8192464D02*
X3739352Y-8194212D01*
X2094142Y-3797619D02*
X2099012Y-3797500D01*
X2099012Y-2000000D02*
X3705988Y-2000000D01*
X7306072Y-14015526D02*
X7305477Y-14010704D01*
X2792831Y-5887094D02*
X2790833Y-5891748D01*
X2004263Y-2727238D02*
X2002967Y-2722555D01*
X2001902Y-2717814D02*
X2001072Y-2713026D01*
X9071003Y-2028997D02*
X9074354Y-2032516D01*
X2770680Y-5920696D02*
X2767008Y-5924185D01*
X9077528Y-14063805D02*
X9074354Y-14067484D01*
X3804880Y-14005858D02*
X3804523Y-14010704D01*
X8800477Y-3190704D02*
X8800120Y-3185858D01*
X2799935Y-11752544D02*
X2799678Y-11757603D01*
X2056672Y-13279505D02*
X2061114Y-13277536D01*
X2323852Y-13617154D02*
X2330141Y-13630990D01*
X8746912Y-7770344D02*
X8755223Y-7757619D01*
X3795495Y-2056672D02*
X3797464Y-2061114D01*
X8531607Y-7898301D02*
X8546650Y-7896321D01*
X2056672Y-7379505D02*
X2061114Y-7377536D01*
X2277528Y-12233805D02*
X2274354Y-12237484D01*
X2417369Y-7837967D02*
X2427619Y-7845494D01*
X2002967Y-2074945D02*
X2004263Y-2070262D01*
X2004263Y-9767762D02*
X2005787Y-9763148D01*
X2000477Y-2089296D02*
X2001072Y-2084474D01*
X7404012Y-13800000D02*
X8499367Y-13800000D01*
X2792840Y-4312928D02*
X2794598Y-4317678D01*
X8736448Y-8315406D02*
X8726778Y-8303648D01*
X8794078Y-2540833D02*
X8790703Y-2526014D01*
X2298928Y-12185526D02*
X2298097Y-12190314D01*
X2048104Y-6355915D02*
X2043999Y-6353315D01*
X2763165Y-11827484D02*
X2759178Y-11830570D01*
X2285915Y-2749396D02*
X2283315Y-2753501D01*
X8809505Y-12736672D02*
X8811690Y-12732332D01*
X2400633Y-5950000D02*
X2393697Y-5950223D01*
X7370648Y-7905787D02*
X7375262Y-7904263D01*
X9067484Y-6805646D02*
X9071003Y-6808997D01*
X7370648Y-8194212D02*
X7366114Y-8192464D01*
X3734738Y-2004263D02*
X3739352Y-2005787D01*
X2722609Y-11847378D02*
X2717648Y-11848398D01*
X2774185Y-5917008D02*
X2770680Y-5920696D01*
X3725314Y-8198097D02*
X3720526Y-8198928D01*
X2251896Y-7384085D02*
X2256001Y-7386685D01*
X2002967Y-9772445D02*
X2004263Y-9767762D01*
X2000119Y-6275858D02*
X2000000Y-6270988D01*
X2292464Y-9758614D02*
X2294213Y-9763148D01*
X2022472Y-6333805D02*
X2019483Y-6329974D01*
X2043999Y-3814185D02*
X2048104Y-3811585D01*
X2585571Y-2300372D02*
X2569946Y-2301515D01*
X8633219Y-13768766D02*
X8646682Y-13761661D01*
X7375262Y-7904263D02*
X7379945Y-7902967D01*
X3799212Y-13865648D02*
X3800737Y-13870262D01*
X8644490Y-7862878D02*
X8657597Y-7855236D01*
X2234352Y-12264212D02*
X2229738Y-12265737D01*
X8573986Y-2309297D02*
X8561599Y-2306422D01*
X2234352Y-13275787D02*
X2238886Y-13277536D01*
X2755022Y-5933464D02*
X2750724Y-5936143D01*
X3725314Y-2001902D02*
X3730055Y-2002967D01*
X8804263Y-6850262D02*
X8805787Y-6845648D01*
X2788613Y-5896274D02*
X2786144Y-5900723D01*
X2040026Y-9716983D02*
X2043999Y-9714185D01*
X2007536Y-6308885D02*
X2005787Y-6304352D01*
X2036195Y-6347528D02*
X2032516Y-6344354D01*
X2005787Y-9763148D02*
X2007536Y-9758614D01*
X2251896Y-3811585D02*
X2256001Y-3814185D01*
X2043999Y-13286685D02*
X2048104Y-13284085D01*
X2283315Y-13313999D02*
X2285915Y-13318104D01*
X2070262Y-2004263D02*
X2074945Y-2002967D01*
X8848104Y-3265915D02*
X8843999Y-3263315D01*
X9092464Y-12741114D02*
X9094213Y-12745648D01*
X3804880Y-8105858D02*
X3804523Y-8110704D01*
X3799212Y-2234352D02*
X3797464Y-2238886D01*
X9020314Y-12681902D02*
X9025055Y-12682967D01*
X8769870Y-2469033D02*
X8761661Y-2453318D01*
X3748328Y-2009505D02*
X3752668Y-2011690D01*
X2225055Y-9700467D02*
X2229738Y-9701763D01*
X2048104Y-8683415D02*
X2043999Y-8680815D01*
X9051896Y-3265915D02*
X9047668Y-3268310D01*
X9047668Y-12691690D02*
X9051896Y-12694085D01*
X2297033Y-12195055D02*
X2295737Y-12199738D01*
X8694449Y-8271588D02*
X8682611Y-8262017D01*
X2007536Y-9758614D02*
X2009505Y-9754172D01*
X8809505Y-3223328D02*
X8807536Y-3218885D01*
X3803928Y-8115526D02*
X3803097Y-8120314D01*
X2298097Y-9777186D02*
X2298928Y-9781974D01*
X9098097Y-9100314D02*
X9097033Y-9105055D01*
X7341195Y-8177528D02*
X7337516Y-8174354D01*
X3790915Y-2048104D02*
X3793310Y-2052332D01*
X2084474Y-9698572D02*
X2089296Y-9697977D01*
X2783477Y-4294998D02*
X2786156Y-4299297D01*
X7319085Y-8151896D02*
X7316690Y-8147668D01*
X2247668Y-8685810D02*
X2243328Y-8687995D01*
X7353104Y-13814085D02*
X7357332Y-13811690D01*
X3797464Y-2238886D02*
X3795495Y-2243328D01*
X2004263Y-7440262D02*
X2005787Y-7435648D01*
X2007536Y-8636386D02*
X2005787Y-8631852D01*
X2300000Y-12170988D02*
X2299880Y-12175858D01*
X2698739Y-11850000D02*
X2400633Y-11850000D01*
X2028997Y-2028997D02*
X2032516Y-2025646D01*
X7305000Y-13899012D02*
X7305119Y-13894142D01*
X2210704Y-2797023D02*
X2205858Y-2797380D01*
X2065648Y-7375787D02*
X2070262Y-7374263D01*
X7389474Y-8198928D02*
X7384686Y-8198097D01*
X2386089Y-10149003D02*
X2393672Y-10149775D01*
X2288310Y-6317668D02*
X2285915Y-6321896D01*
X7321685Y-8156001D02*
X7319085Y-8151896D01*
X8769859Y-8369010D02*
X8762879Y-8355510D01*
X7361672Y-2290495D02*
X7357332Y-2288310D01*
X8684594Y-7836448D02*
X8696333Y-7826795D01*
X9056001Y-9163315D02*
X9051896Y-9165915D01*
X9059974Y-12699483D02*
X9063805Y-12702472D01*
X9029738Y-6784263D02*
X9034352Y-6785787D01*
X2737094Y-5942831D02*
X2732322Y-5944598D01*
X9038886Y-12687536D02*
X9043328Y-12689505D01*
X2437523Y-2346916D02*
X2422386Y-2357089D01*
X3800737Y-8129738D02*
X3799212Y-8134352D01*
X7314505Y-2243328D02*
X7312536Y-2238886D01*
X7305119Y-7994142D02*
X7305477Y-7989296D01*
X2215526Y-13271072D02*
X2220314Y-13271902D01*
X2002967Y-7444945D02*
X2004263Y-7440262D01*
X8799519Y-8483542D02*
X8798304Y-8468418D01*
X7305000Y-14000988D02*
X7305000Y-13899012D01*
X2200988Y-7370000D02*
X2205858Y-7370119D01*
X9063805Y-9157528D02*
X9059974Y-9160517D01*
X2314506Y-5998174D02*
X2311991Y-6002570D01*
X8605344Y-2319135D02*
X8588591Y-2313410D01*
X3782528Y-7936195D02*
X3785517Y-7940026D01*
X8716560Y-8292432D02*
X8705769Y-8281730D01*
X3800737Y-14029738D02*
X3799212Y-14034352D01*
X8819483Y-12720026D02*
X8822472Y-12716195D01*
X2567413Y-8201776D02*
X2554350Y-8203466D01*
X8894142Y-9179880D02*
X8889296Y-9179523D01*
X2292464Y-2736386D02*
X2290495Y-2740828D01*
X8529113Y-2301445D02*
X8516433Y-2300480D01*
X3739352Y-13805787D02*
X3743885Y-13807536D01*
X7366114Y-14092464D02*
X7361672Y-14090495D01*
X8801903Y-3200314D02*
X8801072Y-3195526D01*
X2061114Y-13277536D02*
X2065648Y-13275787D01*
X2333942Y-5974957D02*
X2330226Y-5978399D01*
X2698739Y-5950000D02*
X2400633Y-5950000D01*
X8800000Y-2600621D02*
X8799519Y-2583542D01*
X3782528Y-14063805D02*
X3779354Y-14067484D01*
X3790915Y-13848104D02*
X3793310Y-13852332D01*
X2263805Y-2775028D02*
X2259974Y-2778017D01*
X9083315Y-6823999D02*
X9085915Y-6828104D01*
X9092464Y-2061114D02*
X9094213Y-2065648D01*
X2300417Y-4158854D02*
X2301373Y-4166365D01*
X2005787Y-2731852D02*
X2004263Y-2727238D01*
X3790915Y-7948104D02*
X3793310Y-7952332D01*
X7348999Y-2283315D02*
X7345026Y-2280517D01*
X8726795Y-2403667D02*
X8716560Y-2392432D01*
X2300223Y-10056303D02*
X2300670Y-10061348D01*
X2318659Y-4208127D02*
X2323324Y-4214155D01*
X2794598Y-10217678D02*
X2796108Y-10222488D01*
X2314168Y-13591008D02*
X2319135Y-13605344D01*
X3788315Y-7943999D02*
X3790915Y-7948104D01*
X2022472Y-12233805D02*
X2019483Y-12229974D01*
X3764974Y-2019483D02*
X3768805Y-2022472D01*
X7307967Y-2225055D02*
X7306902Y-2220314D01*
X2267484Y-3823146D02*
X2271003Y-3826497D01*
X9097033Y-2074945D02*
X9098097Y-2079686D01*
X2267484Y-9723146D02*
X2271003Y-9726497D01*
X8619458Y-8224841D02*
X8603017Y-8218273D01*
X2234352Y-3803287D02*
X2238886Y-3805036D01*
X2378661Y-4247672D02*
X2383610Y-4248623D01*
X3748328Y-2290495D02*
X3743885Y-2292464D01*
X3788315Y-13843999D02*
X3790915Y-13848104D01*
X2373717Y-5953541D02*
X2366468Y-5955815D01*
X2009505Y-8640828D02*
X2007536Y-8636386D01*
X8802967Y-3205055D02*
X8801903Y-3200314D01*
X2727489Y-10153886D02*
X2732345Y-10155409D01*
X2220314Y-2795597D02*
X2215526Y-2796428D01*
X9598773Y-1500000D02*
X1500981Y-1500006D01*
X2065648Y-3803287D02*
X2070262Y-3801763D01*
X2016685Y-8653501D02*
X2014085Y-8649396D01*
X7333997Y-13828997D02*
X7337516Y-13825646D01*
X8768766Y-13633218D02*
X8776148Y-13617154D01*
X2099012Y-14100000D02*
X2094142Y-14099880D01*
X8816685Y-3236001D02*
X8814085Y-3231896D01*
X7366114Y-2292464D02*
X7361672Y-2290495D01*
X2247668Y-13281690D02*
X2251896Y-13284085D01*
X8603017Y-8218273D02*
X8590984Y-8214160D01*
X2305824Y-11916444D02*
X2303534Y-11923741D01*
X2523636Y-2309746D02*
X2506123Y-2314839D01*
X8805787Y-3214352D02*
X8804263Y-3209738D01*
X3782528Y-2263805D02*
X3779354Y-2267484D01*
X3764974Y-7919483D02*
X3768805Y-7922472D01*
X2307623Y-2518268D02*
X2303555Y-2533397D01*
X9034352Y-12685787D02*
X9038886Y-12687536D01*
X7389474Y-2001072D02*
X7394296Y-2000477D01*
X2229738Y-2793237D02*
X2225055Y-2794533D01*
X2225055Y-2794533D02*
X2220314Y-2795597D01*
X2259974Y-8678017D02*
X2256001Y-8680815D01*
X2025646Y-6337484D02*
X2022472Y-6333805D01*
X2780584Y-11809159D02*
X2777469Y-11813183D01*
X2755022Y-4266536D02*
X2759159Y-4269416D01*
X2001902Y-8617814D02*
X2001072Y-8613026D01*
X8852332Y-12691690D02*
X8856672Y-12689505D01*
X2007536Y-13331114D02*
X2009505Y-13326672D01*
X9010704Y-6780477D02*
X9015526Y-6781072D01*
X3734738Y-7904263D02*
X3739352Y-7905787D01*
X2337827Y-11871707D02*
X2333942Y-11874957D01*
X2330337Y-2462562D02*
X2324438Y-2474339D01*
X2200988Y-2797500D02*
X2099012Y-2797500D01*
X2019483Y-14059974D02*
X2016685Y-14056001D01*
X2469010Y-7869859D02*
X2482846Y-7876147D01*
X2019483Y-8657474D02*
X2016685Y-8653501D01*
X3761001Y-7916685D02*
X3764974Y-7919483D01*
X2288310Y-7422332D02*
X2290495Y-7426672D01*
X2007536Y-14038885D02*
X2005787Y-14034352D01*
X9100000Y-12779012D02*
X9100000Y-14000988D01*
X2028997Y-12241003D02*
X2025646Y-12237484D01*
X8707568Y-7816560D02*
X8718270Y-7805769D01*
X2298928Y-3881974D02*
X2299523Y-3886796D01*
X8801072Y-12764474D02*
X8801903Y-12759686D01*
X9043328Y-3270495D02*
X9038886Y-3272464D01*
X2007536Y-2061114D02*
X2009505Y-2056672D01*
X7366114Y-13807536D02*
X7370648Y-13805787D01*
X2717648Y-11848398D02*
X2712618Y-11849168D01*
X2274354Y-12237484D02*
X2271003Y-12241003D01*
X7327472Y-7936195D02*
X7330646Y-7932516D01*
X2288310Y-2745168D02*
X2285915Y-2749396D01*
X9085915Y-12728104D02*
X9088310Y-12732332D01*
X2790833Y-11791748D02*
X2788602Y-11796295D01*
X2036195Y-13292472D02*
X2040026Y-13289483D01*
X2346067Y-5965819D02*
X2341852Y-5968673D01*
X2263805Y-9719972D02*
X2267484Y-9723146D01*
X7310787Y-13865648D02*
X7312536Y-13861114D01*
X2000119Y-2703358D02*
X2000000Y-2698488D01*
X8796701Y-7644172D02*
X8798555Y-7629112D01*
X8861114Y-12687536D02*
X8865648Y-12685787D01*
X9098097Y-12759686D02*
X9098928Y-12764474D01*
X2229738Y-6365737D02*
X2225055Y-6367033D01*
X2326689Y-5982025D02*
X2323340Y-5985825D01*
X2400633Y-10150000D02*
X2698739Y-10150000D01*
X2741727Y-5940843D02*
X2737094Y-5942831D01*
X2040026Y-6350517D02*
X2036195Y-6347528D01*
X9098097Y-14020314D02*
X9097033Y-14025055D01*
X2267484Y-13295646D02*
X2271003Y-13298997D01*
X7330646Y-8167484D02*
X7327472Y-8163805D01*
X2393697Y-5950223D02*
X2386114Y-5950993D01*
X2326689Y-10117975D02*
X2330226Y-10121601D01*
X2263805Y-8675028D02*
X2259974Y-8678017D01*
X8794078Y-13559167D02*
X8796701Y-13544172D01*
X7321685Y-2256001D02*
X7319085Y-2251896D01*
X2302906Y-4173831D02*
X2304988Y-4181111D01*
X2052332Y-3809190D02*
X2056672Y-3807005D01*
X8828997Y-9151003D02*
X8825646Y-9147484D01*
X7316690Y-13852332D02*
X7319085Y-13848104D01*
X3793310Y-8147668D02*
X3790915Y-8151896D01*
X7389474Y-2298928D02*
X7384686Y-2298097D01*
X3805000Y-14000988D02*
X3804880Y-14005858D01*
X2799168Y-11762618D02*
X2798398Y-11767648D01*
X7345026Y-2280517D02*
X7341195Y-2277528D01*
X2280517Y-9737526D02*
X2283315Y-9741499D01*
X2799678Y-11757603D02*
X2799168Y-11762618D01*
X3730055Y-2002967D02*
X3734738Y-2004263D01*
X2070262Y-13274263D02*
X2074945Y-13272967D01*
X3710858Y-7900119D02*
X3715704Y-7900477D01*
X3730055Y-2297033D02*
X3725314Y-2298097D01*
X2328399Y-4219774D02*
X2333923Y-4225027D01*
X9047668Y-14088310D02*
X9043328Y-14090495D01*
X7370648Y-13805787D02*
X7375262Y-13804263D01*
X3725314Y-14098097D02*
X3720526Y-14098928D01*
X2292464Y-7431114D02*
X2294213Y-7435648D01*
X7309263Y-7970262D02*
X7310787Y-7965648D01*
X8809505Y-6836672D02*
X8811690Y-6832332D01*
X2373741Y-4246466D02*
X2378661Y-4247672D01*
X2774185Y-10182992D02*
X2777469Y-10186817D01*
X9092464Y-3218885D02*
X9090495Y-3223328D01*
X8814085Y-6828104D02*
X8816685Y-6823999D01*
X2309919Y-13576389D02*
X2314168Y-13591008D01*
X2722586Y-4252617D02*
X2727489Y-4253886D01*
X2799168Y-5862618D02*
X2798402Y-5867625D01*
X3779354Y-2032516D02*
X3782528Y-2036195D01*
X8870262Y-9175737D02*
X8865648Y-9174213D01*
X3803928Y-2084474D02*
X3804523Y-2089296D01*
X3804523Y-14010704D02*
X3803928Y-14015526D01*
X7379945Y-14097033D02*
X7375262Y-14095737D01*
X2469010Y-13769859D02*
X2482846Y-13776147D01*
X2247668Y-7381690D02*
X2251896Y-7384085D01*
X9099523Y-9090704D02*
X9098928Y-9095526D01*
X2065648Y-6364212D02*
X2061114Y-6362464D01*
X2009505Y-6313328D02*
X2007536Y-6308885D01*
X7330646Y-13832516D02*
X7333997Y-13828997D01*
X9025055Y-3277033D02*
X9020314Y-3278097D01*
X2022472Y-8661305D02*
X2019483Y-8657474D01*
X2479142Y-2325000D02*
X2462620Y-2332726D01*
X8856672Y-6789505D02*
X8861114Y-6787536D01*
X9097033Y-12754945D02*
X9098097Y-12759686D01*
X2299880Y-7464142D02*
X2300000Y-7469012D01*
X2409848Y-8266570D02*
X2397854Y-8276650D01*
X8707568Y-2383440D02*
X8696333Y-2373205D01*
X2243328Y-2787995D02*
X2238886Y-2789964D01*
X9088310Y-12732332D02*
X9090495Y-12736672D01*
X2750724Y-10163856D02*
X2755022Y-10166536D01*
X2323324Y-4214155D02*
X2328399Y-4219774D01*
X9015526Y-12681072D02*
X9020314Y-12681902D01*
X7399142Y-7900119D02*
X7404012Y-7900000D01*
X2074945Y-13272967D02*
X2079686Y-13271902D01*
X7361672Y-13809505D02*
X7366114Y-13807536D01*
X2002967Y-14025055D02*
X2001902Y-14020314D01*
X9099880Y-14005858D02*
X9099523Y-14010704D01*
X2089296Y-6369523D02*
X2084474Y-6368928D01*
X2323340Y-11885825D02*
X2320188Y-11889790D01*
X2310806Y-10095162D02*
X2313195Y-10099600D01*
X3768805Y-2277528D02*
X3764974Y-2280517D01*
X9015526Y-14098928D02*
X9010704Y-14099523D01*
X2318092Y-8388663D02*
X2311641Y-8405723D01*
X2777469Y-5913183D02*
X2774185Y-5917008D01*
X2089296Y-7370477D02*
X2094142Y-7370119D01*
X9063805Y-3257528D02*
X9059974Y-3260517D01*
X9029738Y-3275737D02*
X9025055Y-3277033D01*
X2299523Y-6280704D02*
X2298928Y-6285526D01*
X8659747Y-8246104D02*
X8644490Y-8237121D01*
X2040026Y-13289483D02*
X2043999Y-13286685D01*
X2493680Y-2319163D02*
X2479142Y-2325000D01*
X8832516Y-12705646D02*
X8836195Y-12702472D01*
X9097033Y-6854945D02*
X9098097Y-6859686D01*
X2210704Y-13270477D02*
X2215526Y-13271072D01*
X2004263Y-2070262D02*
X2005787Y-2065648D01*
X9085915Y-6828104D02*
X9088310Y-6832332D01*
X8546650Y-7896321D02*
X8559143Y-7894082D01*
X8576389Y-7890081D02*
X8591008Y-7885832D01*
X2717625Y-5948402D02*
X2712618Y-5949168D01*
X3730055Y-8197033D02*
X3725314Y-8198097D01*
X7341195Y-7922472D02*
X7345026Y-7919483D01*
X9077528Y-3243805D02*
X9074354Y-3247484D01*
X2032516Y-6344354D02*
X2028997Y-6341003D01*
X3772484Y-13825646D02*
X3776003Y-13828997D01*
X2005787Y-6304352D02*
X2004263Y-6299738D01*
X8800120Y-6874142D02*
X8800477Y-6869296D01*
X9098928Y-6864474D02*
X9099523Y-6869296D01*
X8819483Y-6820026D02*
X8822472Y-6816195D01*
X7330646Y-14067484D02*
X7327472Y-14063805D01*
X7305477Y-2089296D02*
X7306072Y-2084474D01*
X9063805Y-14077528D02*
X9059974Y-14080517D01*
X2225055Y-7372967D02*
X2229738Y-7374263D01*
X2205858Y-8697380D02*
X2200988Y-8697500D01*
X2022472Y-7406195D02*
X2025646Y-7402516D01*
X9094213Y-2065648D02*
X9095737Y-2070262D01*
X2028997Y-7398997D02*
X2032516Y-7395646D01*
X8605344Y-7880865D02*
X8617130Y-7876157D01*
X2440274Y-13753910D02*
X2453318Y-13761661D01*
X3795495Y-14043328D02*
X3793310Y-14047668D01*
X2028997Y-14071003D02*
X2025646Y-14067484D01*
X2306427Y-13561624D02*
X2309919Y-13576389D01*
X7404012Y-2000000D02*
X9000988Y-2000000D01*
X7324483Y-2040026D02*
X7327472Y-2036195D01*
X2000000Y-2698488D02*
X2000000Y-2099012D01*
X2094142Y-13270119D02*
X2099012Y-13270000D01*
X2259974Y-12250517D02*
X2256001Y-12253315D01*
X2070262Y-9701763D02*
X2074945Y-9700467D01*
X3752668Y-7911690D02*
X3756896Y-7914085D01*
X2019483Y-13310026D02*
X2022472Y-13306195D01*
X2000119Y-8603358D02*
X2000000Y-8598488D01*
X7310787Y-8134352D02*
X7309263Y-8129738D01*
X8591008Y-7885832D02*
X8605344Y-7880865D01*
X3743885Y-13807536D02*
X3748328Y-13809505D01*
X8836195Y-9157528D02*
X8832516Y-9154354D01*
X8879686Y-12681902D02*
X8884474Y-12681072D01*
X2215526Y-2796428D02*
X2210704Y-2797023D01*
X3804880Y-2094142D02*
X3805000Y-2099012D01*
X9099880Y-12774142D02*
X9100000Y-12779012D01*
X8822472Y-12716195D02*
X8825646Y-12712516D01*
X2790833Y-4308252D02*
X2792840Y-4312928D01*
X8874945Y-3277033D02*
X8870262Y-3275737D01*
X9038886Y-3272464D02*
X9034352Y-3274212D01*
X3764974Y-14080517D02*
X3761001Y-14083315D01*
X8800000Y-13499367D02*
X8800000Y-12779012D01*
X9083315Y-12723999D02*
X9085915Y-12728104D01*
X2032516Y-8671854D02*
X2028997Y-8668503D01*
X2001902Y-9777186D02*
X2002967Y-9772445D01*
X2205858Y-2797380D02*
X2200988Y-2797500D01*
X9092464Y-6841114D02*
X9094213Y-6845648D01*
X2028997Y-2768503D02*
X2025646Y-2764984D01*
X9074354Y-12712516D02*
X9077528Y-12716195D01*
X2089296Y-2000477D02*
X2094142Y-2000119D01*
X8672381Y-7845494D02*
X8684594Y-7836448D01*
X8822472Y-3243805D02*
X8819483Y-3239974D01*
X2238886Y-13277536D02*
X2243328Y-13279505D01*
X8852332Y-9168310D02*
X8848104Y-9165915D01*
X2251896Y-13284085D02*
X2256001Y-13286685D01*
X2014085Y-2048104D02*
X2016685Y-2043999D01*
X3756896Y-14085915D02*
X3752668Y-14088310D01*
X8800000Y-3180988D02*
X8800000Y-2600621D01*
X7389474Y-13801072D02*
X7394296Y-13800477D01*
X2308623Y-10090564D02*
X2310806Y-10095162D01*
X2056672Y-8687995D02*
X2052332Y-8685810D01*
X2251896Y-12255915D02*
X2247668Y-12258310D01*
X2283315Y-8653501D02*
X2280517Y-8657474D01*
X7330646Y-2267484D02*
X7327472Y-2263805D01*
X2001902Y-2079686D02*
X2002967Y-2074945D01*
X2043999Y-6353315D02*
X2040026Y-6350517D01*
X8499367Y-2300000D02*
X7404012Y-2300000D01*
X2383610Y-4248623D02*
X2391146Y-4249583D01*
X2346104Y-13659747D02*
X2354506Y-13672381D01*
X2032516Y-13295646D02*
X2036195Y-13292472D01*
X9059974Y-9160517D02*
X9056001Y-9163315D01*
X8513954Y-13799646D02*
X8531607Y-13798301D01*
X2267484Y-2771854D02*
X2263805Y-2775028D01*
X3761001Y-2283315D02*
X3756896Y-2285915D01*
X2065648Y-13275787D02*
X2070262Y-13274263D01*
X9085915Y-3231896D02*
X9083315Y-3236001D01*
X2330226Y-10121601D02*
X2333923Y-10125027D01*
X2016685Y-2753501D02*
X2014085Y-2749396D01*
X8682611Y-8262017D02*
X8670344Y-8253088D01*
X2292464Y-8636386D02*
X2290495Y-8640828D01*
X8762879Y-7744490D02*
X8769859Y-7730990D01*
X2009505Y-14043328D02*
X2007536Y-14038885D01*
X3720526Y-2001072D02*
X3725314Y-2001902D01*
X7327472Y-14063805D02*
X7324483Y-14059974D01*
X8801072Y-6864474D02*
X8801903Y-6859686D01*
X2229738Y-8693237D02*
X2225055Y-8694533D01*
X8716560Y-13707568D02*
X8726795Y-13696333D01*
X8894142Y-12680119D02*
X8899012Y-12680000D01*
X2290495Y-3854172D02*
X2292464Y-3858614D01*
X2256001Y-13286685D02*
X2259974Y-13289483D01*
X2755022Y-10166536D02*
X2759159Y-10169416D01*
X2339334Y-2446697D02*
X2330337Y-2462562D01*
X8798304Y-8468418D02*
X8796697Y-8455803D01*
X2061114Y-14092464D02*
X2056672Y-14090495D01*
X2346104Y-7759747D02*
X2354506Y-7772381D01*
X7384686Y-2298097D02*
X7379945Y-2297033D01*
X2099012Y-9697500D02*
X2200988Y-9697500D01*
X2019483Y-12229974D02*
X2016685Y-12226001D01*
X3715704Y-7900477D02*
X3720526Y-7901072D01*
X2048104Y-12255915D02*
X2043999Y-12253315D01*
X2079686Y-14098097D02*
X2074945Y-14097033D01*
X3768805Y-8177528D02*
X3764974Y-8180517D01*
X2280517Y-3837526D02*
X2283315Y-3841499D01*
X2089296Y-9697977D02*
X2094142Y-9697620D01*
X8861114Y-9172464D02*
X8856672Y-9170495D01*
X7312536Y-2061114D02*
X7314505Y-2056672D01*
X2777469Y-10186817D02*
X2780570Y-10190822D01*
X9067484Y-9154354D02*
X9063805Y-9157528D01*
X2292464Y-3858614D02*
X2294213Y-3863148D01*
X2220314Y-6368097D02*
X2215526Y-6368928D01*
X9071003Y-12708997D02*
X9074354Y-12712516D01*
X2427619Y-13745494D02*
X2440274Y-13753910D01*
X9085915Y-14051896D02*
X9083315Y-14056001D01*
X8761661Y-2453318D02*
X8753910Y-2440274D01*
X8769859Y-7730990D02*
X8776148Y-7717154D01*
X2210704Y-9697977D02*
X2215526Y-9698572D01*
X3803928Y-2215526D02*
X3803097Y-2220314D01*
X8800000Y-8500621D02*
X8799519Y-8483542D01*
X2200988Y-3797500D02*
X2205858Y-3797619D01*
X2001902Y-7449686D02*
X2002967Y-7444945D01*
X8801903Y-9100314D02*
X8801072Y-9095526D01*
X2079686Y-2001902D02*
X2084474Y-2001072D01*
X8798555Y-13529112D02*
X8799519Y-13516458D01*
X2722586Y-10152617D02*
X2727489Y-10153886D01*
X2586072Y-13799647D02*
X2600633Y-13800000D01*
X2210704Y-12269523D02*
X2205858Y-12269880D01*
X8745494Y-2427619D02*
X8736448Y-2415406D01*
X9020314Y-6781902D02*
X9025055Y-6782967D01*
X2014085Y-6321896D02*
X2011690Y-6317668D01*
X2570887Y-7898555D02*
X2586072Y-7899647D01*
X2043999Y-14083315D02*
X2040026Y-14080517D01*
X2798398Y-10232352D02*
X2799165Y-10237358D01*
X9038886Y-9172464D02*
X9034352Y-9174213D01*
X3761001Y-14083315D02*
X3756896Y-14085915D01*
X7361672Y-14090495D02*
X7357332Y-14088310D01*
X1500981Y-1500006D02*
X1500217Y-1500390D01*
X2796108Y-4322488D02*
X2797383Y-4327414D01*
X7316690Y-14047668D02*
X7314505Y-14043328D01*
X2352593Y-10138021D02*
X2357089Y-10140299D01*
X2267484Y-7395646D02*
X2271003Y-7398997D01*
X3788315Y-2043999D02*
X3790915Y-2048104D01*
X7319085Y-2251896D02*
X7316690Y-2247668D01*
X7305477Y-13889296D02*
X7306072Y-13884474D01*
X8718270Y-7805769D02*
X8728412Y-7794449D01*
X9005858Y-3279880D02*
X9000988Y-3280000D01*
X3761001Y-2016685D02*
X3764974Y-2019483D01*
X9020314Y-3278097D02*
X9015526Y-3278928D01*
X8843999Y-3263315D02*
X8840026Y-3260517D01*
X2783477Y-10194998D02*
X2786144Y-10199276D01*
X9063805Y-2022472D02*
X9067484Y-2025646D01*
X2290495Y-13326672D02*
X2292464Y-13331114D01*
X2089296Y-12269523D02*
X2084474Y-12268928D01*
X8716560Y-2392432D02*
X8707568Y-2383440D01*
X8816685Y-12723999D02*
X8819483Y-12720026D01*
X2019483Y-2757474D02*
X2016685Y-2753501D01*
X2298928Y-6285526D02*
X2298097Y-6290314D01*
X7306072Y-2215526D02*
X7305477Y-2210704D01*
X2256001Y-9714185D02*
X2259974Y-9716983D01*
X3782528Y-8163805D02*
X3779354Y-8167484D01*
X7337516Y-2025646D02*
X7341195Y-2022472D01*
X7310787Y-14034352D02*
X7309263Y-14029738D01*
X8852332Y-3268310D02*
X8848104Y-3265915D01*
X2346067Y-11865819D02*
X2341852Y-11868673D01*
X2277528Y-8661305D02*
X2274354Y-8664984D01*
X9025055Y-12682967D02*
X9029738Y-12684263D01*
X8696333Y-2373205D02*
X8684594Y-2363552D01*
X2256001Y-7386685D02*
X2259974Y-7389483D01*
X8657619Y-2344777D02*
X8646660Y-2338326D01*
X2274354Y-9730016D02*
X2277528Y-9733695D01*
X9094213Y-3214352D02*
X9092464Y-3218885D01*
X2307623Y-8418268D02*
X2303555Y-8433397D01*
X3715704Y-2299523D02*
X3710858Y-2299880D01*
X2014085Y-14051896D02*
X2011690Y-14047668D01*
X7327472Y-2036195D02*
X7330646Y-2032516D01*
X3795495Y-8143328D02*
X3793310Y-8147668D01*
X3776003Y-2028997D02*
X3779354Y-2032516D01*
X9015526Y-3278928D02*
X9010704Y-3279523D01*
X8889296Y-6780477D02*
X8894142Y-6780119D01*
X2799165Y-10237358D02*
X2799680Y-10242421D01*
X2511385Y-7886583D02*
X2526014Y-7890703D01*
X8630967Y-2330130D02*
X8617154Y-2323852D01*
X7370648Y-2005787D02*
X7375262Y-2004263D01*
X2000119Y-14005858D02*
X2000000Y-14000988D01*
X2084474Y-8696428D02*
X2079686Y-8695597D01*
X2094142Y-12269880D02*
X2089296Y-12269523D01*
X3710858Y-13800119D02*
X3715704Y-13800477D01*
X3772484Y-2025646D02*
X3776003Y-2028997D01*
X2001902Y-12190314D02*
X2001072Y-12185526D01*
X7307967Y-2074945D02*
X7309263Y-2070262D01*
X2099012Y-7370000D02*
X2200988Y-7370000D01*
X8809505Y-9123328D02*
X8807536Y-9118886D01*
X3748328Y-13809505D02*
X3752668Y-13811690D01*
X7324483Y-14059974D02*
X7321685Y-14056001D01*
X9099523Y-14010704D02*
X9098928Y-14015526D01*
X2482846Y-13776147D02*
X2496983Y-13781727D01*
X2299880Y-12175858D02*
X2299523Y-12180704D01*
X3799212Y-14034352D02*
X3797464Y-14038885D01*
X2399768Y-2374970D02*
X2386376Y-2387350D01*
X2002967Y-2722555D02*
X2001902Y-2717814D01*
X2215526Y-6368928D02*
X2210704Y-6369523D01*
X2025646Y-3830016D02*
X2028997Y-3826497D01*
X3797464Y-7961114D02*
X3799212Y-7965648D01*
X9088310Y-14047668D02*
X9085915Y-14051896D01*
X7345026Y-7919483D02*
X7348999Y-7916685D01*
X2794598Y-11782322D02*
X2792840Y-11787072D01*
X9074354Y-3247484D02*
X9071003Y-3251003D01*
X3730055Y-14097033D02*
X3725314Y-14098097D01*
X2019483Y-9737526D02*
X2022472Y-9733695D01*
X2346067Y-10134181D02*
X2352593Y-10138021D01*
X9000988Y-2000000D02*
X9005858Y-2000119D01*
X2386376Y-2387350D02*
X2377177Y-2396778D01*
X2022472Y-13306195D02*
X2025646Y-13302516D01*
X2019483Y-7410026D02*
X2022472Y-7406195D01*
X2299880Y-8603358D02*
X2299523Y-8608204D01*
X2070262Y-3801763D02*
X2074945Y-3800467D01*
X3710858Y-8199880D02*
X3705988Y-8200000D01*
X2300417Y-11941146D02*
X2300000Y-11950633D01*
X3797464Y-14038885D02*
X3795495Y-14043328D01*
X9034352Y-3274212D02*
X9029738Y-3275737D01*
X2526014Y-13790703D02*
X2540833Y-13794078D01*
X7305119Y-14005858D02*
X7305000Y-14000988D01*
X9074354Y-2032516D02*
X9077528Y-2036195D01*
X2016685Y-2043999D02*
X2019483Y-2040026D01*
X9051896Y-2014085D02*
X9056001Y-2016685D01*
X2737094Y-4257169D02*
X2741727Y-4259157D01*
X8828997Y-12708997D02*
X8832516Y-12705646D01*
X7309263Y-13870262D02*
X7310787Y-13865648D01*
X8576389Y-13790081D02*
X8591008Y-13785832D01*
X3790915Y-14051896D02*
X3788315Y-14056001D01*
X2259974Y-7389483D02*
X2263805Y-7392472D01*
X3710858Y-2000119D02*
X3715704Y-2000477D01*
X2009505Y-9754172D02*
X2011690Y-9749832D01*
X3779354Y-2267484D02*
X3776003Y-2271003D01*
X2300481Y-7616458D02*
X2301696Y-7631582D01*
X2220314Y-13271902D02*
X2225055Y-13272967D01*
X2065648Y-2005787D02*
X2070262Y-2004263D01*
X2300000Y-7469012D02*
X2300016Y-7600620D01*
X7404012Y-7900000D02*
X8499367Y-7900000D01*
X2311991Y-11902570D02*
X2309701Y-11907089D01*
X3772484Y-14074354D02*
X3768805Y-14077528D01*
X9083315Y-14056001D02*
X9080517Y-14059974D01*
X2004263Y-6299738D02*
X2002967Y-6295055D01*
X2796108Y-5877512D02*
X2794598Y-5882322D01*
X3734738Y-8195737D02*
X3730055Y-8197033D01*
X2061114Y-7377536D02*
X2065648Y-7375787D01*
X2292464Y-6308885D02*
X2290495Y-6313328D01*
X8802967Y-6854945D02*
X8804263Y-6850262D01*
X2056672Y-9707005D02*
X2061114Y-9705036D01*
X2788602Y-10203705D02*
X2790833Y-10208252D01*
X2315819Y-10103933D02*
X2318659Y-10108127D01*
X2393697Y-11850223D02*
X2386114Y-11850993D01*
X2005787Y-7435648D02*
X2007536Y-7431114D01*
X3802033Y-7974945D02*
X3803097Y-7979686D01*
X2277528Y-3833695D02*
X2280517Y-3837526D01*
X2267484Y-8671854D02*
X2263805Y-8675028D01*
X9056001Y-2016685D02*
X9059974Y-2019483D01*
X1500000Y-1501227D02*
X1500000Y-14598773D01*
X7345026Y-14080517D02*
X7341195Y-14077528D01*
X2040026Y-2778017D02*
X2036195Y-2775028D01*
X2210704Y-3797977D02*
X2215526Y-3798572D01*
X2032516Y-12244354D02*
X2028997Y-12241003D01*
X2788613Y-4303726D02*
X2790833Y-4308252D01*
X2094142Y-7370119D02*
X2099012Y-7370000D01*
X7314505Y-13856672D02*
X7316690Y-13852332D01*
X3788315Y-14056001D02*
X3785517Y-14059974D01*
X8836195Y-3257528D02*
X8832516Y-3254354D01*
X2000477Y-14010704D02*
X2000119Y-14005858D01*
X8814085Y-9131896D02*
X8811690Y-9127668D01*
X9029738Y-14095737D02*
X9025055Y-14097033D01*
X8856672Y-12689505D02*
X8861114Y-12687536D01*
X2323340Y-5985825D02*
X2320188Y-5989790D01*
X3804523Y-2210704D02*
X3803928Y-2215526D01*
X2392432Y-13716560D02*
X2405570Y-13728428D01*
X8726778Y-8303648D02*
X8716560Y-8292432D01*
X2019483Y-6329974D02*
X2016685Y-6326001D01*
X8870262Y-6784263D02*
X8874945Y-6782967D01*
X9080517Y-6820026D02*
X9083315Y-6823999D01*
X7306902Y-14020314D02*
X7306072Y-14015526D01*
X2746274Y-5938613D02*
X2741727Y-5940843D01*
X7319085Y-2048104D02*
X7321685Y-2043999D01*
X2040026Y-12250517D02*
X2036195Y-12247528D01*
X9005858Y-14099880D02*
X9000988Y-14100000D01*
X2797378Y-5872609D02*
X2796108Y-5877512D01*
X7305000Y-8100988D02*
X7305000Y-7999012D01*
X2295737Y-3867762D02*
X2297033Y-3872445D01*
X2238886Y-8689964D02*
X2234352Y-8691713D01*
X8617130Y-7876157D02*
X8633219Y-7868766D01*
X2277528Y-2761305D02*
X2274354Y-2764984D01*
X9000988Y-9180000D02*
X8899012Y-9180000D01*
X3772484Y-8174354D02*
X3768805Y-8177528D01*
X7319085Y-7948104D02*
X7321685Y-7943999D01*
X8852332Y-6791690D02*
X8856672Y-6789505D01*
X2300000Y-8598488D02*
X2299880Y-8603358D01*
X2079686Y-12268097D02*
X2074945Y-12267033D01*
X2048104Y-14085915D02*
X2043999Y-14083315D01*
X9098097Y-3200314D02*
X9097033Y-3205055D01*
X3725314Y-7901902D02*
X3730055Y-7902967D01*
X7379945Y-2002967D02*
X7384686Y-2001902D01*
X3776003Y-2271003D02*
X3772484Y-2274354D01*
X2359413Y-5958633D02*
X2352593Y-5961979D01*
X9098097Y-6859686D02*
X9098928Y-6864474D01*
X3752668Y-8188310D02*
X3748328Y-8190495D01*
X3768805Y-7922472D02*
X3772484Y-7925646D01*
X8617130Y-13776157D02*
X8633219Y-13768766D01*
X2099012Y-12270000D02*
X2094142Y-12269880D01*
X9010704Y-9179523D02*
X9005858Y-9179880D01*
X2028997Y-8668503D02*
X2025646Y-8664984D01*
X7399142Y-8199880D02*
X7394296Y-8199523D01*
X2554350Y-8203466D02*
X2536406Y-8206734D01*
X8840026Y-9160517D02*
X8836195Y-9157528D01*
X2536432Y-2306729D02*
X2523636Y-2309746D01*
X2210704Y-7370477D02*
X2215526Y-7371072D01*
X2036195Y-14077528D02*
X2032516Y-14074354D01*
X2280517Y-7410026D02*
X2283315Y-7413999D01*
X2777469Y-4286817D02*
X2780570Y-4290822D01*
X2361717Y-10142356D02*
X2368865Y-10145004D01*
X7341195Y-13822472D02*
X7345026Y-13819483D01*
X2000477Y-3886796D02*
X2001072Y-3881974D01*
X7375262Y-8195737D02*
X7370648Y-8194212D01*
X8745494Y-13672381D02*
X8753910Y-13659726D01*
X9094213Y-6845648D02*
X9095737Y-6850262D01*
X2780570Y-5909178D02*
X2777469Y-5913183D01*
X2399367Y-4249984D02*
X2698739Y-4250000D01*
X3797464Y-2061114D02*
X3799212Y-2065648D01*
X8794078Y-7659167D02*
X8796701Y-7644172D01*
X2011690Y-9749832D02*
X2014085Y-9745604D01*
X8840026Y-3260517D02*
X8836195Y-3257528D01*
X8899012Y-12680000D02*
X9000988Y-12680000D01*
X2074945Y-7372967D02*
X2079686Y-7371902D01*
X9038886Y-6787536D02*
X9043328Y-6789505D01*
X2368865Y-10145004D02*
X2376169Y-10147094D01*
X2301373Y-4166365D02*
X2302906Y-4173831D01*
X8822472Y-6816195D02*
X8825646Y-6812516D01*
X3785517Y-2040026D02*
X3788315Y-2043999D01*
X2022472Y-3833695D02*
X2025646Y-3830016D01*
X9599839Y-1500470D02*
X9599400Y-1500091D01*
X2028997Y-9726497D02*
X2032516Y-9723146D01*
X2271003Y-13298997D02*
X2274354Y-13302516D01*
X2238886Y-7377536D02*
X2243328Y-7379505D01*
X7337516Y-8174354D02*
X7333997Y-8171003D01*
X9097033Y-9105055D02*
X9095737Y-9109738D01*
X8781727Y-7703017D02*
X8786583Y-7688615D01*
X2043999Y-2780815D02*
X2040026Y-2778017D01*
X2755002Y-11833477D02*
X2750724Y-11836143D01*
X2309701Y-6007089D02*
X2306686Y-6014117D01*
X7305477Y-7989296D02*
X7306072Y-7984474D01*
X2301373Y-11933635D02*
X2300417Y-11941146D01*
X2292464Y-12208885D02*
X2290495Y-12213328D01*
X3785517Y-13840026D02*
X3788315Y-13843999D01*
X3803928Y-13884474D02*
X3804523Y-13889296D01*
X2052332Y-9709190D02*
X2056672Y-9707005D01*
X8790703Y-8426014D02*
X8786583Y-8411385D01*
X3797464Y-8138885D02*
X3795495Y-8143328D01*
X2300417Y-6041146D02*
X2300000Y-6050633D01*
X7312536Y-8138885D02*
X7310787Y-8134352D01*
X3793310Y-14047668D02*
X3790915Y-14051896D01*
X9092464Y-14038885D02*
X9090495Y-14043328D01*
X9092464Y-9118886D02*
X9090495Y-9123328D01*
X2496983Y-7881727D02*
X2511385Y-7886583D01*
X8874945Y-6782967D02*
X8879686Y-6781902D01*
X8840026Y-12699483D02*
X8843999Y-12696685D01*
X2243328Y-6360495D02*
X2238886Y-6362464D01*
X9090495Y-3223328D02*
X9088310Y-3227668D01*
X8825646Y-6812516D02*
X8828997Y-6808997D01*
X2300016Y-7600620D02*
X2300481Y-7616458D01*
X2300039Y-8449978D02*
X2300000Y-8598488D01*
X8836195Y-6802472D02*
X8840026Y-6799483D01*
X8848104Y-6794085D02*
X8852332Y-6791690D01*
X9088310Y-3227668D02*
X9085915Y-3231896D01*
X9094213Y-12745648D02*
X9095737Y-12750262D01*
X8861114Y-6787536D02*
X8865648Y-6785787D01*
X2011690Y-13322332D02*
X2014085Y-13318104D01*
X2330226Y-11878399D02*
X2326689Y-11882025D01*
X9005858Y-6780119D02*
X9010704Y-6780477D01*
X3756896Y-7914085D02*
X3761001Y-7916685D01*
X8646682Y-13761661D02*
X8659726Y-13753910D01*
X2065648Y-14094212D02*
X2061114Y-14092464D01*
X7384686Y-14098097D02*
X7379945Y-14097033D01*
X2274354Y-2764984D02*
X2271003Y-2768503D01*
X2381092Y-5951828D02*
X2373717Y-5953541D01*
X7348999Y-13816685D02*
X7353104Y-13814085D01*
X2000477Y-6280704D02*
X2000119Y-6275858D01*
X2301828Y-10068908D02*
X2302912Y-10073856D01*
X9100000Y-3180988D02*
X9099880Y-3185858D01*
X2259974Y-3816983D02*
X2263805Y-3819972D01*
X2001902Y-14020314D02*
X2001072Y-14015526D01*
X8811690Y-6832332D02*
X8814085Y-6828104D01*
X2763183Y-5927469D02*
X2759159Y-5930584D01*
X8603017Y-13781727D02*
X8617130Y-13776157D01*
X2215526Y-8696428D02*
X2210704Y-8697023D01*
X2366468Y-5955815D02*
X2359413Y-5958633D01*
X2311991Y-6002570D02*
X2309701Y-6007089D01*
X7357332Y-2011690D02*
X7361672Y-2009505D01*
X2251896Y-8683415D02*
X2247668Y-8685810D01*
X2297033Y-13344945D02*
X2298097Y-13349686D01*
X8801903Y-6859686D02*
X8802967Y-6854945D01*
X2422386Y-8257089D02*
X2409848Y-8266570D01*
X2307634Y-4188259D02*
X2310795Y-4195140D01*
X8796701Y-13544172D02*
X8798555Y-13529112D01*
X2324438Y-8374339D02*
X2318092Y-8388663D01*
X9025055Y-9177033D02*
X9020314Y-9178097D01*
X2200988Y-12270000D02*
X2099012Y-12270000D01*
X2300016Y-4150620D02*
X2300417Y-4158854D01*
X8753910Y-13659726D02*
X8761674Y-13646660D01*
X7341195Y-2022472D02*
X7345026Y-2019483D01*
X8800477Y-12769296D02*
X8801072Y-12764474D01*
X7361672Y-7909505D02*
X7366114Y-7907536D01*
X2052332Y-14088310D02*
X2048104Y-14085915D01*
X7316690Y-8147668D02*
X7314505Y-8143328D01*
X2362033Y-13682631D02*
X2373222Y-13696352D01*
X8899012Y-3280000D02*
X8894142Y-3279880D01*
X2767026Y-10175830D02*
X2770696Y-10179320D01*
X8801072Y-3195526D02*
X8800477Y-3190704D01*
X2061114Y-12262464D02*
X2056672Y-12260495D01*
X2300000Y-6050633D02*
X2300000Y-6270988D01*
X2737094Y-10157169D02*
X2741727Y-10159157D01*
X9077528Y-2036195D02*
X9080517Y-2040026D01*
X9100000Y-14000988D02*
X9099880Y-14005858D01*
X2298097Y-12190314D02*
X2297033Y-12195055D01*
X7324483Y-8159974D02*
X7321685Y-8156001D01*
X7310787Y-2234352D02*
X7309263Y-2229738D01*
X2324438Y-2474339D02*
X2318092Y-2488663D01*
X9099523Y-3190704D02*
X9098928Y-3195526D01*
X2225055Y-6367033D02*
X2220314Y-6368097D01*
X7399142Y-2000119D02*
X7404012Y-2000000D01*
X2339811Y-10129827D02*
X2346067Y-10134181D01*
X2234352Y-6364212D02*
X2229738Y-6365737D01*
X2405570Y-7828428D02*
X2417369Y-7837967D01*
X2551833Y-2303858D02*
X2536432Y-2306729D01*
X2089296Y-3797977D02*
X2094142Y-3797619D01*
X2025646Y-2764984D02*
X2022472Y-2761305D01*
X3743885Y-2292464D02*
X3739352Y-2294213D01*
X2464876Y-8231599D02*
X2451013Y-8238899D01*
X2247668Y-12258310D02*
X2243328Y-12260495D01*
X7321685Y-13843999D02*
X7324483Y-13840026D01*
X3799212Y-2065648D02*
X3800737Y-2070262D01*
X2763165Y-4272516D02*
X2767008Y-4275815D01*
X2274354Y-6337484D02*
X2271003Y-6341003D01*
X7375262Y-14095737D02*
X7370648Y-14094212D01*
X7394296Y-2299523D02*
X7389474Y-2298928D01*
X8800000Y-12779012D02*
X8800120Y-12774142D01*
X2004263Y-3867762D02*
X2005787Y-3863148D01*
X2267484Y-12244354D02*
X2263805Y-12247528D01*
X3715704Y-2000477D02*
X3720526Y-2001072D01*
X3715704Y-8199523D02*
X3710858Y-8199880D01*
X2099012Y-2797500D02*
X2094142Y-2797380D01*
X8516433Y-2300480D02*
X8499367Y-2300000D01*
X2746274Y-10161387D02*
X2750724Y-10163856D01*
X8874945Y-12682967D02*
X8879686Y-12681902D01*
X7366114Y-8192464D02*
X7361672Y-8190495D01*
X8811690Y-12732332D02*
X8814085Y-12728104D01*
X2306695Y-10085907D02*
X2308623Y-10090564D01*
X3705988Y-13800000D02*
X3710858Y-13800119D01*
X2263805Y-12247528D02*
X2259974Y-12250517D01*
X2243328Y-7379505D02*
X2247668Y-7381690D01*
X2089296Y-8697023D02*
X2084474Y-8696428D01*
X2780570Y-4290822D02*
X2783477Y-4294998D01*
X3761001Y-13816685D02*
X3764974Y-13819483D01*
X2001072Y-14015526D02*
X2000477Y-14010704D01*
X8559167Y-8205922D02*
X8546650Y-8203679D01*
X2307644Y-11911717D02*
X2305824Y-11916444D01*
X3779354Y-14067484D02*
X3776003Y-14071003D01*
X9056001Y-14083315D02*
X9051896Y-14085915D01*
X2000119Y-9791642D02*
X2000477Y-9786796D01*
X3756896Y-8185915D02*
X3752668Y-8188310D01*
X8726795Y-13696333D02*
X8736448Y-13684594D01*
X7306072Y-13884474D02*
X7306902Y-13879686D01*
X2099012Y-6370000D02*
X2094142Y-6369880D01*
X2750724Y-4263856D02*
X2755022Y-4266536D01*
X2314168Y-7691008D02*
X2319135Y-7705344D01*
X2004263Y-13340262D02*
X2005787Y-13335648D01*
X8856672Y-3270495D02*
X8852332Y-3268310D01*
X2298097Y-6290314D02*
X2297033Y-6295055D01*
X8865648Y-6785787D02*
X8870262Y-6784263D01*
X2032516Y-2771854D02*
X2028997Y-2768503D01*
X2016685Y-12226001D02*
X2014085Y-12221896D01*
X2799680Y-10242421D02*
X2800000Y-10251261D01*
X8800000Y-9080988D02*
X8800000Y-8500621D01*
X7309263Y-8129738D02*
X7307967Y-8125055D01*
X2032516Y-14074354D02*
X2028997Y-14071003D01*
X9043328Y-14090495D02*
X9038886Y-14092464D01*
X2285915Y-6321896D02*
X2283315Y-6326001D01*
X3752668Y-2288310D02*
X3748328Y-2290495D01*
X8865648Y-12685787D02*
X8870262Y-12684263D01*
X2298928Y-13354474D02*
X2299523Y-13359296D01*
X7305000Y-2099012D02*
X7305119Y-2094142D01*
X2022472Y-2761305D02*
X2019483Y-2757474D01*
X2256001Y-2780815D02*
X2251896Y-2783415D01*
X2717648Y-4251602D02*
X2722586Y-4252617D01*
X2555803Y-7896697D02*
X2570887Y-7898555D01*
X2338021Y-8348879D02*
X2330337Y-8362562D01*
X9015526Y-9178928D02*
X9010704Y-9179523D01*
X2732322Y-4255402D02*
X2737094Y-4257169D01*
X2089296Y-2797023D02*
X2084474Y-2796428D01*
X2759159Y-10169416D02*
X2763165Y-10172516D01*
X2061114Y-3805036D02*
X2065648Y-3803287D01*
X7324483Y-13840026D02*
X7327472Y-13836195D01*
X2243328Y-3807005D02*
X2247668Y-3809190D01*
X2000000Y-7469012D02*
X2000119Y-7464142D01*
X2094142Y-2797380D02*
X2089296Y-2797023D01*
X7321685Y-14056001D02*
X7319085Y-14051896D01*
X9043328Y-12689505D02*
X9047668Y-12691690D01*
X2205858Y-12269880D02*
X2200988Y-12270000D01*
X8804263Y-12750262D02*
X8805787Y-12745648D01*
X2084474Y-2001072D02*
X2089296Y-2000477D01*
X7316690Y-2052332D02*
X7319085Y-2048104D01*
X2014085Y-13318104D02*
X2016685Y-13313999D01*
X2052332Y-7381690D02*
X2056672Y-7379505D01*
X2299523Y-9786796D02*
X2299880Y-9791642D01*
X2732322Y-5944598D02*
X2727489Y-5946114D01*
X2094142Y-8697380D02*
X2089296Y-8697023D01*
X2377177Y-2396778D02*
X2366777Y-2408496D01*
X2079686Y-13271902D02*
X2084474Y-13271072D01*
X9599530Y-14599839D02*
X9599909Y-14599400D01*
X7345026Y-2019483D02*
X7348999Y-2016685D01*
X2799678Y-5857603D02*
X2799168Y-5862618D01*
X2373717Y-11853541D02*
X2366468Y-11855815D01*
X2352570Y-4238009D02*
X2359413Y-4241367D01*
X8798304Y-2568418D02*
X8796697Y-2555803D01*
X8753910Y-2440274D02*
X8745494Y-2427619D01*
X8799519Y-2583542D02*
X8798304Y-2568418D01*
X2009505Y-12213328D02*
X2007536Y-12208885D01*
X2084474Y-7371072D02*
X2089296Y-7370477D01*
X7319085Y-13848104D02*
X7321685Y-13843999D01*
X2084474Y-2796428D02*
X2079686Y-2795597D01*
X2341852Y-11868673D02*
X2337827Y-11871707D01*
X2798398Y-11767648D02*
X2797378Y-11772609D01*
X9077528Y-12716195D02*
X9080517Y-12720026D01*
X2256001Y-8680815D02*
X2251896Y-8683415D01*
X7337516Y-13825646D02*
X7341195Y-13822472D01*
X2065648Y-9703287D02*
X2070262Y-9701763D01*
X8670323Y-2353074D02*
X8657619Y-2344777D01*
X2000000Y-12170988D02*
X2000000Y-9796512D01*
X2271003Y-8668503D02*
X2267484Y-8671854D01*
X2786156Y-4299297D02*
X2788613Y-4303726D01*
X9010704Y-2000477D02*
X9015526Y-2001072D01*
X8822472Y-9143805D02*
X8819483Y-9139974D01*
X2271003Y-2768503D02*
X2267484Y-2771854D01*
X9074354Y-14067484D02*
X9071003Y-14071003D01*
X3710858Y-14099880D02*
X3705988Y-14100000D01*
X9600000Y-14598773D02*
X9600000Y-1501227D01*
X9051896Y-14085915D02*
X9047668Y-14088310D01*
X9034352Y-9174213D02*
X9029738Y-9175737D01*
X3802033Y-2074945D02*
X3803097Y-2079686D01*
X3802033Y-13874945D02*
X3803097Y-13879686D01*
X2283315Y-6326001D02*
X2280517Y-6329974D01*
X7370648Y-2294213D02*
X7366114Y-2292464D01*
X2220314Y-7371902D02*
X2225055Y-7372967D01*
X2043999Y-2016685D02*
X2048104Y-2014085D01*
X7379945Y-2297033D02*
X7375262Y-2295737D01*
X2285915Y-9745604D02*
X2288310Y-9749832D01*
X2256001Y-12253315D02*
X2251896Y-12255915D01*
X2028997Y-13298997D02*
X2032516Y-13295646D01*
X7361672Y-2009505D02*
X7366114Y-2007536D01*
X2014085Y-9745604D02*
X2016685Y-9741499D01*
X9059974Y-14080517D02*
X9056001Y-14083315D01*
X9090495Y-6836672D02*
X9092464Y-6841114D01*
X2783464Y-5905021D02*
X2780570Y-5909178D01*
X7379945Y-8197033D02*
X7375262Y-8195737D01*
X2280517Y-12229974D02*
X2277528Y-12233805D01*
X2004263Y-14029738D02*
X2002967Y-14025055D01*
X7348999Y-2016685D02*
X7353104Y-2014085D01*
X3720526Y-2298928D02*
X3715704Y-2299523D01*
X2352593Y-5961979D02*
X2346067Y-5965819D01*
X2000477Y-9786796D02*
X2001072Y-9781974D01*
X7310787Y-7965648D02*
X7312536Y-7961114D01*
X8879686Y-3278097D02*
X8874945Y-3277033D01*
X2220314Y-9699403D02*
X2225055Y-9700467D01*
X8590984Y-8214160D02*
X8576414Y-8209925D01*
X9043328Y-2009505D02*
X9047668Y-2011690D01*
X2022472Y-9733695D02*
X2025646Y-9730016D01*
X7306902Y-8120314D02*
X7306072Y-8115526D01*
X8848104Y-9165915D02*
X8843999Y-9163315D01*
X2288310Y-3849832D02*
X2290495Y-3854172D01*
X7404012Y-2300000D02*
X7399142Y-2299880D01*
X2290495Y-12213328D02*
X2288310Y-12217668D01*
X2285915Y-12221896D02*
X2283315Y-12226001D01*
X2000477Y-7459296D02*
X2001072Y-7454474D01*
X2074945Y-14097033D02*
X2070262Y-14095737D01*
X2052332Y-2785810D02*
X2048104Y-2783415D01*
X2065648Y-2791713D02*
X2061114Y-2789964D01*
X9000988Y-6780000D02*
X9005858Y-6780119D01*
X3804523Y-2089296D02*
X3804880Y-2094142D01*
X7357332Y-13811690D02*
X7361672Y-13809505D01*
X7305119Y-2094142D02*
X7305477Y-2089296D01*
X9088310Y-2052332D02*
X9090495Y-2056672D01*
X2302328Y-6028661D02*
X2301373Y-6033635D01*
X2061114Y-6362464D02*
X2056672Y-6360495D01*
X9095737Y-6850262D02*
X9097033Y-6854945D01*
X2001072Y-6285526D02*
X2000477Y-6280704D01*
X2797378Y-11772609D02*
X2796108Y-11777512D01*
X2000000Y-2099012D02*
X2000119Y-2094142D01*
X2271003Y-7398997D02*
X2274354Y-7402516D01*
X8745479Y-8327598D02*
X8736448Y-8315406D01*
X2298928Y-9781974D02*
X2299523Y-9786796D01*
X2290495Y-9754172D02*
X2292464Y-9758614D01*
X2014085Y-3845604D02*
X2016685Y-3841499D01*
X2070262Y-2793237D02*
X2065648Y-2791713D01*
X2016685Y-6326001D02*
X2014085Y-6321896D01*
X2271003Y-3826497D02*
X2274354Y-3830016D01*
X7333997Y-14071003D02*
X7330646Y-14067484D01*
X7389474Y-14098928D02*
X7384686Y-14098097D01*
X8874945Y-9177033D02*
X8870262Y-9175737D01*
X7375262Y-13804263D02*
X7379945Y-13802967D01*
X2048104Y-13284085D02*
X2052332Y-13281690D01*
X3764974Y-8180517D02*
X3761001Y-8183315D01*
X3803097Y-2079686D02*
X3803928Y-2084474D01*
X2375463Y-8298627D02*
X2365145Y-8310450D01*
X2048104Y-7384085D02*
X2052332Y-7381690D01*
X2373222Y-13696352D02*
X2383440Y-13707568D01*
X8811690Y-3227668D02*
X8809505Y-3223328D01*
X2453318Y-13761661D02*
X2469010Y-13769859D01*
X3734738Y-13804263D02*
X3739352Y-13805787D01*
X8884474Y-9178928D02*
X8879686Y-9178097D01*
X2299523Y-3886796D02*
X2299880Y-3891642D01*
X8588591Y-2313410D02*
X8573986Y-2309297D01*
X2099012Y-13270000D02*
X2200988Y-13270000D01*
X2310795Y-4195140D02*
X2314493Y-4201805D01*
X8705769Y-8281730D02*
X8694449Y-8271588D01*
X2712618Y-11849168D02*
X2707579Y-11849680D01*
X8796697Y-8455803D02*
X8794078Y-8440833D01*
X2741727Y-11840843D02*
X2737094Y-11842831D01*
X8790703Y-7673986D02*
X8794078Y-7659167D01*
X2238886Y-3805036D02*
X2243328Y-3807005D01*
X2094142Y-2000119D02*
X2099012Y-2000000D01*
X8848104Y-12694085D02*
X8852332Y-12691690D01*
X9020314Y-9178097D02*
X9015526Y-9178928D01*
X9029738Y-12684263D02*
X9034352Y-12685787D01*
X2320188Y-11889790D02*
X2317241Y-11893910D01*
X2009505Y-7426672D02*
X2011690Y-7422332D01*
X7305119Y-2205858D02*
X7305000Y-2200988D01*
X7394296Y-8199523D02*
X7389474Y-8198928D01*
X2798398Y-4332352D02*
X2799165Y-4337358D01*
X2294213Y-9763148D02*
X2295737Y-9767762D01*
X2337109Y-7744468D02*
X2346104Y-7759747D01*
X2000000Y-8598488D02*
X2000000Y-7469012D01*
X2294213Y-12204352D02*
X2292464Y-12208885D01*
X3785517Y-14059974D02*
X3782528Y-14063805D01*
X3776003Y-13828997D02*
X3779354Y-13832516D01*
X2079686Y-8695597D02*
X2074945Y-8694533D01*
X8796697Y-2555803D02*
X8794078Y-2540833D01*
X7324483Y-7940026D02*
X7327472Y-7936195D01*
X9099880Y-9085858D02*
X9099523Y-9090704D01*
X3790915Y-2251896D02*
X3788315Y-2256001D01*
X8800477Y-9090704D02*
X8800120Y-9085858D01*
X2295737Y-13340262D02*
X2297033Y-13344945D01*
X7314505Y-2056672D02*
X7316690Y-2052332D01*
X2007536Y-7431114D02*
X2009505Y-7426672D01*
X2301373Y-6033635D02*
X2300417Y-6041146D01*
X9047668Y-3268310D02*
X9043328Y-3270495D01*
X9098928Y-14015526D02*
X9098097Y-14020314D01*
X9051896Y-12694085D02*
X9056001Y-12696685D01*
X3793310Y-7952332D02*
X3795495Y-7956672D01*
X2722609Y-5947378D02*
X2717625Y-5948402D01*
X7375262Y-2295737D02*
X7370648Y-2294213D01*
X9015526Y-2001072D02*
X9020314Y-2001902D01*
X2220314Y-12268097D02*
X2215526Y-12268928D01*
X8884474Y-3278928D02*
X8879686Y-3278097D01*
X2366468Y-4244185D02*
X2373741Y-4246466D01*
X2303299Y-7644172D02*
X2306427Y-7661624D01*
X2294213Y-13335648D02*
X2295737Y-13340262D01*
X2229738Y-7374263D02*
X2234352Y-7375787D01*
X2295737Y-7440262D02*
X2297033Y-7444945D01*
X2277528Y-6333805D02*
X2274354Y-6337484D01*
X2314506Y-11898174D02*
X2311991Y-11902570D01*
X2727489Y-4253886D02*
X2732322Y-4255402D01*
X7307967Y-7974945D02*
X7309263Y-7970262D01*
X2311641Y-2505723D02*
X2307623Y-2518268D01*
X3785517Y-7940026D02*
X3788315Y-7943999D01*
X2330337Y-8362562D02*
X2324438Y-8374339D01*
X8843999Y-9163315D02*
X8840026Y-9160517D01*
X7312536Y-13861114D02*
X7314505Y-13856672D01*
X8802967Y-9105055D02*
X8801903Y-9100314D01*
X2400633Y-11850000D02*
X2393697Y-11850223D01*
X2359436Y-11858623D02*
X2352593Y-11861979D01*
X9020314Y-14098097D02*
X9015526Y-14098928D01*
X7330646Y-7932516D02*
X7333997Y-7928997D01*
X3752668Y-14088310D02*
X3748328Y-14090495D01*
X2061114Y-9705036D02*
X2065648Y-9703287D01*
X2000119Y-12175858D02*
X2000000Y-12170988D01*
X8816685Y-6823999D02*
X8819483Y-6820026D01*
D11*
D12*
X1675000Y-1675000D02*
X1825000Y-1825000D01*
X1825000Y-1675000D02*
X1675000Y-1825000D01*
X1675000Y-14275000D02*
X1825000Y-14425000D01*
X1825000Y-14275000D02*
X1675000Y-14425000D01*
X9275000Y-1675000D02*
X9425000Y-1825000D01*
X9425000Y-1675000D02*
X9275000Y-1825000D01*
D13*
X2787500Y-2650000D02*
G75*
G03*
X2787500Y-2650000I-137500J0D01*
G01*
X2787500Y-7550000D02*
G75*
G03*
X2787500Y-7550000I-137500J0D01*
G01*
X2787500Y-8550000D02*
G75*
G03*
X2787500Y-8550000I-137500J0D01*
G01*
X2787500Y-13450000D02*
G75*
G03*
X2787500Y-13450000I-137500J0D01*
G01*
X8587500Y-2650000D02*
G75*
G03*
X8587500Y-2650000I-137500J0D01*
G01*
X8587500Y-7550000D02*
G75*
G03*
X8587500Y-7550000I-137500J0D01*
G01*
X8587500Y-8550000D02*
G75*
G03*
X8587500Y-8550000I-137500J0D01*
G01*
X8587500Y-13450000D02*
G75*
G03*
X8587500Y-13450000I-137500J0D01*
G01*
D11*
X1752619Y-14915476D02*
X1752619Y-14715476D01*
X1800238Y-14715476D01*
X1828809Y-14725000D01*
X1847857Y-14744048D01*
X1857381Y-14763095D01*
X1866905Y-14801190D01*
X1866905Y-14829762D01*
X1857381Y-14867857D01*
X1847857Y-14886905D01*
X1828809Y-14905952D01*
X1800238Y-14915476D01*
X1752619Y-14915476D01*
X1952619Y-14915476D02*
X1952619Y-14782143D01*
X1952619Y-14820238D02*
X1962143Y-14801190D01*
X1971667Y-14791667D01*
X1990714Y-14782143D01*
X2009762Y-14782143D01*
X2076428Y-14915476D02*
X2076428Y-14782143D01*
X2076428Y-14715476D02*
X2066905Y-14725000D01*
X2076428Y-14734524D01*
X2085952Y-14725000D01*
X2076428Y-14715476D01*
X2076428Y-14734524D01*
X2200238Y-14915476D02*
X2181190Y-14905952D01*
X2171667Y-14886905D01*
X2171667Y-14715476D01*
X2305000Y-14915476D02*
X2285952Y-14905952D01*
X2276429Y-14886905D01*
X2276429Y-14715476D01*
X2533571Y-14915476D02*
X2533571Y-14715476D01*
X2600238Y-14858333D01*
X2666905Y-14715476D01*
X2666905Y-14915476D01*
X2847857Y-14915476D02*
X2847857Y-14810714D01*
X2838333Y-14791667D01*
X2819286Y-14782143D01*
X2781190Y-14782143D01*
X2762143Y-14791667D01*
X2847857Y-14905952D02*
X2828809Y-14915476D01*
X2781190Y-14915476D01*
X2762143Y-14905952D01*
X2752619Y-14886905D01*
X2752619Y-14867857D01*
X2762143Y-14848809D01*
X2781190Y-14839286D01*
X2828809Y-14839286D01*
X2847857Y-14829762D01*
X2943095Y-14782143D02*
X2943095Y-14982143D01*
X2943095Y-14791667D02*
X2962143Y-14782143D01*
X3000238Y-14782143D01*
X3019286Y-14791667D01*
X3028809Y-14801190D01*
X3038333Y-14820238D01*
X3038333Y-14877381D01*
X3028809Y-14896428D01*
X3019286Y-14905952D01*
X3000238Y-14915476D01*
X2962143Y-14915476D01*
X2943095Y-14905952D01*
X3124048Y-14896428D02*
X3133571Y-14905952D01*
X3124048Y-14915476D01*
X3114524Y-14905952D01*
X3124048Y-14896428D01*
X3124048Y-14915476D01*
X3124048Y-14791667D02*
X3133571Y-14801190D01*
X3124048Y-14810714D01*
X3114524Y-14801190D01*
X3124048Y-14791667D01*
X3124048Y-14810714D01*
D12*
X1345000Y-15170000D02*
X1495000Y-15320000D01*
X1495000Y-15170000D02*
X1345000Y-15320000D01*
D11*
X1857381Y-15335476D02*
X1743095Y-15335476D01*
X1800238Y-15335476D02*
X1800238Y-15135476D01*
X1781190Y-15164048D01*
X1762143Y-15183095D01*
X1743095Y-15192619D01*
X1943095Y-15316428D02*
X1952619Y-15325952D01*
X1943095Y-15335476D01*
X1933571Y-15325952D01*
X1943095Y-15316428D01*
X1943095Y-15335476D01*
X2133571Y-15135476D02*
X2038333Y-15135476D01*
X2028809Y-15230714D01*
X2038333Y-15221190D01*
X2057381Y-15211667D01*
X2105000Y-15211667D01*
X2124048Y-15221190D01*
X2133571Y-15230714D01*
X2143095Y-15249762D01*
X2143095Y-15297381D01*
X2133571Y-15316428D01*
X2124048Y-15325952D01*
X2105000Y-15335476D01*
X2057381Y-15335476D01*
X2038333Y-15325952D01*
X2028809Y-15316428D01*
X2266905Y-15135476D02*
X2285952Y-15135476D01*
X2305000Y-15145000D01*
X2314524Y-15154524D01*
X2324048Y-15173571D01*
X2333571Y-15211667D01*
X2333571Y-15259286D01*
X2324048Y-15297381D01*
X2314524Y-15316428D01*
X2305000Y-15325952D01*
X2285952Y-15335476D01*
X2266905Y-15335476D01*
X2247857Y-15325952D01*
X2238333Y-15316428D01*
X2228810Y-15297381D01*
X2219286Y-15259286D01*
X2219286Y-15211667D01*
X2228810Y-15173571D01*
X2238333Y-15154524D01*
X2247857Y-15145000D01*
X2266905Y-15135476D01*
X2457381Y-15135476D02*
X2476429Y-15135476D01*
X2495476Y-15145000D01*
X2505000Y-15154524D01*
X2514524Y-15173571D01*
X2524048Y-15211667D01*
X2524048Y-15259286D01*
X2514524Y-15297381D01*
X2505000Y-15316428D01*
X2495476Y-15325952D01*
X2476429Y-15335476D01*
X2457381Y-15335476D01*
X2438333Y-15325952D01*
X2428810Y-15316428D01*
X2419286Y-15297381D01*
X2409762Y-15259286D01*
X2409762Y-15211667D01*
X2419286Y-15173571D01*
X2428810Y-15154524D01*
X2438333Y-15145000D01*
X2457381Y-15135476D01*
X2609762Y-15335476D02*
X2609762Y-15202143D01*
X2609762Y-15221190D02*
X2619286Y-15211667D01*
X2638333Y-15202143D01*
X2666905Y-15202143D01*
X2685952Y-15211667D01*
X2695476Y-15230714D01*
X2695476Y-15335476D01*
X2695476Y-15230714D02*
X2705000Y-15211667D01*
X2724048Y-15202143D01*
X2752619Y-15202143D01*
X2771667Y-15211667D01*
X2781190Y-15230714D01*
X2781190Y-15335476D01*
X2876428Y-15335476D02*
X2876428Y-15202143D01*
X2876428Y-15221190D02*
X2885952Y-15211667D01*
X2905000Y-15202143D01*
X2933571Y-15202143D01*
X2952619Y-15211667D01*
X2962143Y-15230714D01*
X2962143Y-15335476D01*
X2962143Y-15230714D02*
X2971667Y-15211667D01*
X2990714Y-15202143D01*
X3019286Y-15202143D01*
X3038333Y-15211667D01*
X3047857Y-15230714D01*
X3047857Y-15335476D01*
X3438333Y-15125952D02*
X3266905Y-15383095D01*
X3695476Y-15135476D02*
X3714524Y-15135476D01*
X3733571Y-15145000D01*
X3743095Y-15154524D01*
X3752619Y-15173571D01*
X3762143Y-15211667D01*
X3762143Y-15259286D01*
X3752619Y-15297381D01*
X3743095Y-15316428D01*
X3733571Y-15325952D01*
X3714524Y-15335476D01*
X3695476Y-15335476D01*
X3676428Y-15325952D01*
X3666905Y-15316428D01*
X3657381Y-15297381D01*
X3647857Y-15259286D01*
X3647857Y-15211667D01*
X3657381Y-15173571D01*
X3666905Y-15154524D01*
X3676428Y-15145000D01*
X3695476Y-15135476D01*
X3847857Y-15316428D02*
X3857381Y-15325952D01*
X3847857Y-15335476D01*
X3838333Y-15325952D01*
X3847857Y-15316428D01*
X3847857Y-15335476D01*
X3981190Y-15135476D02*
X4000238Y-15135476D01*
X4019286Y-15145000D01*
X4028809Y-15154524D01*
X4038333Y-15173571D01*
X4047857Y-15211667D01*
X4047857Y-15259286D01*
X4038333Y-15297381D01*
X4028809Y-15316428D01*
X4019286Y-15325952D01*
X4000238Y-15335476D01*
X3981190Y-15335476D01*
X3962143Y-15325952D01*
X3952619Y-15316428D01*
X3943095Y-15297381D01*
X3933571Y-15259286D01*
X3933571Y-15211667D01*
X3943095Y-15173571D01*
X3952619Y-15154524D01*
X3962143Y-15145000D01*
X3981190Y-15135476D01*
X4228810Y-15135476D02*
X4133571Y-15135476D01*
X4124048Y-15230714D01*
X4133571Y-15221190D01*
X4152619Y-15211667D01*
X4200238Y-15211667D01*
X4219286Y-15221190D01*
X4228810Y-15230714D01*
X4238333Y-15249762D01*
X4238333Y-15297381D01*
X4228810Y-15316428D01*
X4219286Y-15325952D01*
X4200238Y-15335476D01*
X4152619Y-15335476D01*
X4133571Y-15325952D01*
X4124048Y-15316428D01*
X4333571Y-15335476D02*
X4371667Y-15335476D01*
X4390714Y-15325952D01*
X4400238Y-15316428D01*
X4419286Y-15287857D01*
X4428810Y-15249762D01*
X4428810Y-15173571D01*
X4419286Y-15154524D01*
X4409762Y-15145000D01*
X4390714Y-15135476D01*
X4352619Y-15135476D01*
X4333571Y-15145000D01*
X4324048Y-15154524D01*
X4314524Y-15173571D01*
X4314524Y-15221190D01*
X4324048Y-15240238D01*
X4333571Y-15249762D01*
X4352619Y-15259286D01*
X4390714Y-15259286D01*
X4409762Y-15249762D01*
X4419286Y-15240238D01*
X4428810Y-15221190D01*
X4619286Y-15335476D02*
X4505000Y-15335476D01*
X4562143Y-15335476D02*
X4562143Y-15135476D01*
X4543095Y-15164048D01*
X4524048Y-15183095D01*
X4505000Y-15192619D01*
X4695476Y-15135476D02*
X4695476Y-15173571D01*
X4771667Y-15135476D02*
X4771667Y-15173571D01*
X5066905Y-15411667D02*
X5057381Y-15402143D01*
X5038333Y-15373571D01*
X5028810Y-15354524D01*
X5019286Y-15325952D01*
X5009762Y-15278333D01*
X5009762Y-15240238D01*
X5019286Y-15192619D01*
X5028810Y-15164048D01*
X5038333Y-15145000D01*
X5057381Y-15116428D01*
X5066905Y-15106905D01*
X5124048Y-15135476D02*
X5247857Y-15135476D01*
X5181190Y-15211667D01*
X5209762Y-15211667D01*
X5228810Y-15221190D01*
X5238333Y-15230714D01*
X5247857Y-15249762D01*
X5247857Y-15297381D01*
X5238333Y-15316428D01*
X5228810Y-15325952D01*
X5209762Y-15335476D01*
X5152619Y-15335476D01*
X5133571Y-15325952D01*
X5124048Y-15316428D01*
X5485952Y-15335476D02*
X5485952Y-15135476D01*
X5571667Y-15335476D02*
X5571667Y-15230714D01*
X5562143Y-15211667D01*
X5543095Y-15202143D01*
X5514524Y-15202143D01*
X5495476Y-15211667D01*
X5485952Y-15221190D01*
X5695476Y-15335476D02*
X5676428Y-15325952D01*
X5666905Y-15316428D01*
X5657381Y-15297381D01*
X5657381Y-15240238D01*
X5666905Y-15221190D01*
X5676428Y-15211667D01*
X5695476Y-15202143D01*
X5724048Y-15202143D01*
X5743095Y-15211667D01*
X5752619Y-15221190D01*
X5762143Y-15240238D01*
X5762143Y-15297381D01*
X5752619Y-15316428D01*
X5743095Y-15325952D01*
X5724048Y-15335476D01*
X5695476Y-15335476D01*
X5876428Y-15335476D02*
X5857381Y-15325952D01*
X5847857Y-15306905D01*
X5847857Y-15135476D01*
X6028809Y-15325952D02*
X6009762Y-15335476D01*
X5971667Y-15335476D01*
X5952619Y-15325952D01*
X5943095Y-15306905D01*
X5943095Y-15230714D01*
X5952619Y-15211667D01*
X5971667Y-15202143D01*
X6009762Y-15202143D01*
X6028809Y-15211667D01*
X6038333Y-15230714D01*
X6038333Y-15249762D01*
X5943095Y-15268809D01*
X6114524Y-15325952D02*
X6133571Y-15335476D01*
X6171667Y-15335476D01*
X6190714Y-15325952D01*
X6200238Y-15306905D01*
X6200238Y-15297381D01*
X6190714Y-15278333D01*
X6171667Y-15268809D01*
X6143095Y-15268809D01*
X6124048Y-15259286D01*
X6114524Y-15240238D01*
X6114524Y-15230714D01*
X6124048Y-15211667D01*
X6143095Y-15202143D01*
X6171667Y-15202143D01*
X6190714Y-15211667D01*
X6266905Y-15411667D02*
X6276428Y-15402143D01*
X6295476Y-15373571D01*
X6305000Y-15354524D01*
X6314524Y-15325952D01*
X6324048Y-15278333D01*
X6324048Y-15240238D01*
X6314524Y-15192619D01*
X6305000Y-15164048D01*
X6295476Y-15145000D01*
X6276428Y-15116428D01*
X6266905Y-15106905D01*
X6628809Y-15411667D02*
X6619286Y-15402143D01*
X6600238Y-15373571D01*
X6590714Y-15354524D01*
X6581190Y-15325952D01*
X6571667Y-15278333D01*
X6571667Y-15240238D01*
X6581190Y-15192619D01*
X6590714Y-15164048D01*
X6600238Y-15145000D01*
X6619286Y-15116428D01*
X6628809Y-15106905D01*
X6705000Y-15202143D02*
X6705000Y-15335476D01*
X6705000Y-15221190D02*
X6714524Y-15211667D01*
X6733571Y-15202143D01*
X6762143Y-15202143D01*
X6781190Y-15211667D01*
X6790714Y-15230714D01*
X6790714Y-15335476D01*
X6914524Y-15335476D02*
X6895476Y-15325952D01*
X6885952Y-15316428D01*
X6876428Y-15297381D01*
X6876428Y-15240238D01*
X6885952Y-15221190D01*
X6895476Y-15211667D01*
X6914524Y-15202143D01*
X6943095Y-15202143D01*
X6962143Y-15211667D01*
X6971667Y-15221190D01*
X6981190Y-15240238D01*
X6981190Y-15297381D01*
X6971667Y-15316428D01*
X6962143Y-15325952D01*
X6943095Y-15335476D01*
X6914524Y-15335476D01*
X7038333Y-15202143D02*
X7114524Y-15202143D01*
X7066905Y-15135476D02*
X7066905Y-15306905D01*
X7076428Y-15325952D01*
X7095476Y-15335476D01*
X7114524Y-15335476D01*
X7333571Y-15202143D02*
X7333571Y-15402143D01*
X7333571Y-15211667D02*
X7352619Y-15202143D01*
X7390714Y-15202143D01*
X7409762Y-15211667D01*
X7419286Y-15221190D01*
X7428809Y-15240238D01*
X7428809Y-15297381D01*
X7419286Y-15316428D01*
X7409762Y-15325952D01*
X7390714Y-15335476D01*
X7352619Y-15335476D01*
X7333571Y-15325952D01*
X7543095Y-15335476D02*
X7524048Y-15325952D01*
X7514524Y-15306905D01*
X7514524Y-15135476D01*
X7705000Y-15335476D02*
X7705000Y-15230714D01*
X7695476Y-15211667D01*
X7676428Y-15202143D01*
X7638333Y-15202143D01*
X7619286Y-15211667D01*
X7705000Y-15325952D02*
X7685952Y-15335476D01*
X7638333Y-15335476D01*
X7619286Y-15325952D01*
X7609762Y-15306905D01*
X7609762Y-15287857D01*
X7619286Y-15268809D01*
X7638333Y-15259286D01*
X7685952Y-15259286D01*
X7705000Y-15249762D01*
X7771667Y-15202143D02*
X7847857Y-15202143D01*
X7800238Y-15135476D02*
X7800238Y-15306905D01*
X7809762Y-15325952D01*
X7828809Y-15335476D01*
X7847857Y-15335476D01*
X7990714Y-15325952D02*
X7971667Y-15335476D01*
X7933571Y-15335476D01*
X7914524Y-15325952D01*
X7905000Y-15306905D01*
X7905000Y-15230714D01*
X7914524Y-15211667D01*
X7933571Y-15202143D01*
X7971667Y-15202143D01*
X7990714Y-15211667D01*
X8000238Y-15230714D01*
X8000238Y-15249762D01*
X7905000Y-15268809D01*
X8171667Y-15335476D02*
X8171667Y-15135476D01*
X8171667Y-15325952D02*
X8152619Y-15335476D01*
X8114524Y-15335476D01*
X8095476Y-15325952D01*
X8085952Y-15316428D01*
X8076428Y-15297381D01*
X8076428Y-15240238D01*
X8085952Y-15221190D01*
X8095476Y-15211667D01*
X8114524Y-15202143D01*
X8152619Y-15202143D01*
X8171667Y-15211667D01*
X8247857Y-15411667D02*
X8257381Y-15402143D01*
X8276428Y-15373571D01*
X8285952Y-15354524D01*
X8295476Y-15325952D01*
X8305000Y-15278333D01*
X8305000Y-15240238D01*
X8295476Y-15192619D01*
X8285952Y-15164048D01*
X8276428Y-15145000D01*
X8257381Y-15116428D01*
X8247857Y-15106905D01*
X1495000Y-15515000D02*
G75*
G03*
X1495000Y-15515000I-100000J0D01*
G01*
X1743095Y-15424524D02*
X1752619Y-15415000D01*
X1771667Y-15405476D01*
X1819286Y-15405476D01*
X1838333Y-15415000D01*
X1847857Y-15424524D01*
X1857381Y-15443571D01*
X1857381Y-15462619D01*
X1847857Y-15491190D01*
X1733571Y-15605476D01*
X1857381Y-15605476D01*
X1943095Y-15586428D02*
X1952619Y-15595952D01*
X1943095Y-15605476D01*
X1933571Y-15595952D01*
X1943095Y-15586428D01*
X1943095Y-15605476D01*
X2019286Y-15405476D02*
X2152619Y-15405476D01*
X2066905Y-15605476D01*
X2324048Y-15405476D02*
X2228810Y-15405476D01*
X2219286Y-15500714D01*
X2228810Y-15491190D01*
X2247857Y-15481667D01*
X2295476Y-15481667D01*
X2314524Y-15491190D01*
X2324048Y-15500714D01*
X2333571Y-15519762D01*
X2333571Y-15567381D01*
X2324048Y-15586428D01*
X2314524Y-15595952D01*
X2295476Y-15605476D01*
X2247857Y-15605476D01*
X2228810Y-15595952D01*
X2219286Y-15586428D01*
X2457381Y-15405476D02*
X2476429Y-15405476D01*
X2495476Y-15415000D01*
X2505000Y-15424524D01*
X2514524Y-15443571D01*
X2524048Y-15481667D01*
X2524048Y-15529286D01*
X2514524Y-15567381D01*
X2505000Y-15586428D01*
X2495476Y-15595952D01*
X2476429Y-15605476D01*
X2457381Y-15605476D01*
X2438333Y-15595952D01*
X2428810Y-15586428D01*
X2419286Y-15567381D01*
X2409762Y-15529286D01*
X2409762Y-15481667D01*
X2419286Y-15443571D01*
X2428810Y-15424524D01*
X2438333Y-15415000D01*
X2457381Y-15405476D01*
X2609762Y-15605476D02*
X2609762Y-15472143D01*
X2609762Y-15491190D02*
X2619286Y-15481667D01*
X2638333Y-15472143D01*
X2666905Y-15472143D01*
X2685952Y-15481667D01*
X2695476Y-15500714D01*
X2695476Y-15605476D01*
X2695476Y-15500714D02*
X2705000Y-15481667D01*
X2724048Y-15472143D01*
X2752619Y-15472143D01*
X2771667Y-15481667D01*
X2781190Y-15500714D01*
X2781190Y-15605476D01*
X2876428Y-15605476D02*
X2876428Y-15472143D01*
X2876428Y-15491190D02*
X2885952Y-15481667D01*
X2905000Y-15472143D01*
X2933571Y-15472143D01*
X2952619Y-15481667D01*
X2962143Y-15500714D01*
X2962143Y-15605476D01*
X2962143Y-15500714D02*
X2971667Y-15481667D01*
X2990714Y-15472143D01*
X3019286Y-15472143D01*
X3038333Y-15481667D01*
X3047857Y-15500714D01*
X3047857Y-15605476D01*
X3438333Y-15395952D02*
X3266905Y-15653095D01*
X3695476Y-15405476D02*
X3714524Y-15405476D01*
X3733571Y-15415000D01*
X3743095Y-15424524D01*
X3752619Y-15443571D01*
X3762143Y-15481667D01*
X3762143Y-15529286D01*
X3752619Y-15567381D01*
X3743095Y-15586428D01*
X3733571Y-15595952D01*
X3714524Y-15605476D01*
X3695476Y-15605476D01*
X3676428Y-15595952D01*
X3666905Y-15586428D01*
X3657381Y-15567381D01*
X3647857Y-15529286D01*
X3647857Y-15481667D01*
X3657381Y-15443571D01*
X3666905Y-15424524D01*
X3676428Y-15415000D01*
X3695476Y-15405476D01*
X3847857Y-15586428D02*
X3857381Y-15595952D01*
X3847857Y-15605476D01*
X3838333Y-15595952D01*
X3847857Y-15586428D01*
X3847857Y-15605476D01*
X4047857Y-15605476D02*
X3933571Y-15605476D01*
X3990714Y-15605476D02*
X3990714Y-15405476D01*
X3971667Y-15434048D01*
X3952619Y-15453095D01*
X3933571Y-15462619D01*
X4171667Y-15405476D02*
X4190714Y-15405476D01*
X4209762Y-15415000D01*
X4219286Y-15424524D01*
X4228810Y-15443571D01*
X4238333Y-15481667D01*
X4238333Y-15529286D01*
X4228810Y-15567381D01*
X4219286Y-15586428D01*
X4209762Y-15595952D01*
X4190714Y-15605476D01*
X4171667Y-15605476D01*
X4152619Y-15595952D01*
X4143095Y-15586428D01*
X4133571Y-15567381D01*
X4124048Y-15529286D01*
X4124048Y-15481667D01*
X4133571Y-15443571D01*
X4143095Y-15424524D01*
X4152619Y-15415000D01*
X4171667Y-15405476D01*
X4352619Y-15491190D02*
X4333571Y-15481667D01*
X4324048Y-15472143D01*
X4314524Y-15453095D01*
X4314524Y-15443571D01*
X4324048Y-15424524D01*
X4333571Y-15415000D01*
X4352619Y-15405476D01*
X4390714Y-15405476D01*
X4409762Y-15415000D01*
X4419286Y-15424524D01*
X4428810Y-15443571D01*
X4428810Y-15453095D01*
X4419286Y-15472143D01*
X4409762Y-15481667D01*
X4390714Y-15491190D01*
X4352619Y-15491190D01*
X4333571Y-15500714D01*
X4324048Y-15510238D01*
X4314524Y-15529286D01*
X4314524Y-15567381D01*
X4324048Y-15586428D01*
X4333571Y-15595952D01*
X4352619Y-15605476D01*
X4390714Y-15605476D01*
X4409762Y-15595952D01*
X4419286Y-15586428D01*
X4428810Y-15567381D01*
X4428810Y-15529286D01*
X4419286Y-15510238D01*
X4409762Y-15500714D01*
X4390714Y-15491190D01*
X4495476Y-15405476D02*
X4619286Y-15405476D01*
X4552619Y-15481667D01*
X4581190Y-15481667D01*
X4600238Y-15491190D01*
X4609762Y-15500714D01*
X4619286Y-15519762D01*
X4619286Y-15567381D01*
X4609762Y-15586428D01*
X4600238Y-15595952D01*
X4581190Y-15605476D01*
X4524048Y-15605476D01*
X4505000Y-15595952D01*
X4495476Y-15586428D01*
X4695476Y-15405476D02*
X4695476Y-15443571D01*
X4771667Y-15405476D02*
X4771667Y-15443571D01*
X5066905Y-15681667D02*
X5057381Y-15672143D01*
X5038333Y-15643571D01*
X5028810Y-15624524D01*
X5019286Y-15595952D01*
X5009762Y-15548333D01*
X5009762Y-15510238D01*
X5019286Y-15462619D01*
X5028810Y-15434048D01*
X5038333Y-15415000D01*
X5057381Y-15386428D01*
X5066905Y-15376905D01*
X5171667Y-15491190D02*
X5152619Y-15481667D01*
X5143095Y-15472143D01*
X5133571Y-15453095D01*
X5133571Y-15443571D01*
X5143095Y-15424524D01*
X5152619Y-15415000D01*
X5171667Y-15405476D01*
X5209762Y-15405476D01*
X5228810Y-15415000D01*
X5238333Y-15424524D01*
X5247857Y-15443571D01*
X5247857Y-15453095D01*
X5238333Y-15472143D01*
X5228810Y-15481667D01*
X5209762Y-15491190D01*
X5171667Y-15491190D01*
X5152619Y-15500714D01*
X5143095Y-15510238D01*
X5133571Y-15529286D01*
X5133571Y-15567381D01*
X5143095Y-15586428D01*
X5152619Y-15595952D01*
X5171667Y-15605476D01*
X5209762Y-15605476D01*
X5228810Y-15595952D01*
X5238333Y-15586428D01*
X5247857Y-15567381D01*
X5247857Y-15529286D01*
X5238333Y-15510238D01*
X5228810Y-15500714D01*
X5209762Y-15491190D01*
X5485952Y-15605476D02*
X5485952Y-15405476D01*
X5571667Y-15605476D02*
X5571667Y-15500714D01*
X5562143Y-15481667D01*
X5543095Y-15472143D01*
X5514524Y-15472143D01*
X5495476Y-15481667D01*
X5485952Y-15491190D01*
X5695476Y-15605476D02*
X5676428Y-15595952D01*
X5666905Y-15586428D01*
X5657381Y-15567381D01*
X5657381Y-15510238D01*
X5666905Y-15491190D01*
X5676428Y-15481667D01*
X5695476Y-15472143D01*
X5724048Y-15472143D01*
X5743095Y-15481667D01*
X5752619Y-15491190D01*
X5762143Y-15510238D01*
X5762143Y-15567381D01*
X5752619Y-15586428D01*
X5743095Y-15595952D01*
X5724048Y-15605476D01*
X5695476Y-15605476D01*
X5876428Y-15605476D02*
X5857381Y-15595952D01*
X5847857Y-15576905D01*
X5847857Y-15405476D01*
X6028809Y-15595952D02*
X6009762Y-15605476D01*
X5971667Y-15605476D01*
X5952619Y-15595952D01*
X5943095Y-15576905D01*
X5943095Y-15500714D01*
X5952619Y-15481667D01*
X5971667Y-15472143D01*
X6009762Y-15472143D01*
X6028809Y-15481667D01*
X6038333Y-15500714D01*
X6038333Y-15519762D01*
X5943095Y-15538809D01*
X6114524Y-15595952D02*
X6133571Y-15605476D01*
X6171667Y-15605476D01*
X6190714Y-15595952D01*
X6200238Y-15576905D01*
X6200238Y-15567381D01*
X6190714Y-15548333D01*
X6171667Y-15538809D01*
X6143095Y-15538809D01*
X6124048Y-15529286D01*
X6114524Y-15510238D01*
X6114524Y-15500714D01*
X6124048Y-15481667D01*
X6143095Y-15472143D01*
X6171667Y-15472143D01*
X6190714Y-15481667D01*
X6266905Y-15681667D02*
X6276428Y-15672143D01*
X6295476Y-15643571D01*
X6305000Y-15624524D01*
X6314524Y-15595952D01*
X6324048Y-15548333D01*
X6324048Y-15510238D01*
X6314524Y-15462619D01*
X6305000Y-15434048D01*
X6295476Y-15415000D01*
X6276428Y-15386428D01*
X6266905Y-15376905D01*
X6628809Y-15681667D02*
X6619286Y-15672143D01*
X6600238Y-15643571D01*
X6590714Y-15624524D01*
X6581190Y-15595952D01*
X6571667Y-15548333D01*
X6571667Y-15510238D01*
X6581190Y-15462619D01*
X6590714Y-15434048D01*
X6600238Y-15415000D01*
X6619286Y-15386428D01*
X6628809Y-15376905D01*
X6705000Y-15472143D02*
X6705000Y-15605476D01*
X6705000Y-15491190D02*
X6714524Y-15481667D01*
X6733571Y-15472143D01*
X6762143Y-15472143D01*
X6781190Y-15481667D01*
X6790714Y-15500714D01*
X6790714Y-15605476D01*
X6914524Y-15605476D02*
X6895476Y-15595952D01*
X6885952Y-15586428D01*
X6876428Y-15567381D01*
X6876428Y-15510238D01*
X6885952Y-15491190D01*
X6895476Y-15481667D01*
X6914524Y-15472143D01*
X6943095Y-15472143D01*
X6962143Y-15481667D01*
X6971667Y-15491190D01*
X6981190Y-15510238D01*
X6981190Y-15567381D01*
X6971667Y-15586428D01*
X6962143Y-15595952D01*
X6943095Y-15605476D01*
X6914524Y-15605476D01*
X7038333Y-15472143D02*
X7114524Y-15472143D01*
X7066905Y-15405476D02*
X7066905Y-15576905D01*
X7076428Y-15595952D01*
X7095476Y-15605476D01*
X7114524Y-15605476D01*
X7333571Y-15472143D02*
X7333571Y-15672143D01*
X7333571Y-15481667D02*
X7352619Y-15472143D01*
X7390714Y-15472143D01*
X7409762Y-15481667D01*
X7419286Y-15491190D01*
X7428809Y-15510238D01*
X7428809Y-15567381D01*
X7419286Y-15586428D01*
X7409762Y-15595952D01*
X7390714Y-15605476D01*
X7352619Y-15605476D01*
X7333571Y-15595952D01*
X7543095Y-15605476D02*
X7524048Y-15595952D01*
X7514524Y-15576905D01*
X7514524Y-15405476D01*
X7705000Y-15605476D02*
X7705000Y-15500714D01*
X7695476Y-15481667D01*
X7676428Y-15472143D01*
X7638333Y-15472143D01*
X7619286Y-15481667D01*
X7705000Y-15595952D02*
X7685952Y-15605476D01*
X7638333Y-15605476D01*
X7619286Y-15595952D01*
X7609762Y-15576905D01*
X7609762Y-15557857D01*
X7619286Y-15538809D01*
X7638333Y-15529286D01*
X7685952Y-15529286D01*
X7705000Y-15519762D01*
X7771667Y-15472143D02*
X7847857Y-15472143D01*
X7800238Y-15405476D02*
X7800238Y-15576905D01*
X7809762Y-15595952D01*
X7828809Y-15605476D01*
X7847857Y-15605476D01*
X7990714Y-15595952D02*
X7971667Y-15605476D01*
X7933571Y-15605476D01*
X7914524Y-15595952D01*
X7905000Y-15576905D01*
X7905000Y-15500714D01*
X7914524Y-15481667D01*
X7933571Y-15472143D01*
X7971667Y-15472143D01*
X7990714Y-15481667D01*
X8000238Y-15500714D01*
X8000238Y-15519762D01*
X7905000Y-15538809D01*
X8171667Y-15605476D02*
X8171667Y-15405476D01*
X8171667Y-15595952D02*
X8152619Y-15605476D01*
X8114524Y-15605476D01*
X8095476Y-15595952D01*
X8085952Y-15586428D01*
X8076428Y-15567381D01*
X8076428Y-15510238D01*
X8085952Y-15491190D01*
X8095476Y-15481667D01*
X8114524Y-15472143D01*
X8152619Y-15472143D01*
X8171667Y-15481667D01*
X8247857Y-15681667D02*
X8257381Y-15672143D01*
X8276428Y-15643571D01*
X8285952Y-15624524D01*
X8295476Y-15595952D01*
X8305000Y-15548333D01*
X8305000Y-15510238D01*
X8295476Y-15462619D01*
X8285952Y-15434048D01*
X8276428Y-15415000D01*
X8257381Y-15386428D01*
X8247857Y-15376905D01*
M02*
