G04 #@! TF.GenerationSoftware,KiCad,Pcbnew,6.0.7+dfsg-1+b1*
G04 #@! TF.CreationDate,2022-09-08T22:48:16+01:00*
G04 #@! TF.ProjectId,panel,70616e65-6c2e-46b6-9963-61645f706362,rev?*
G04 #@! TF.SameCoordinates,Original*
G04 #@! TF.FileFunction,Paste,Top*
G04 #@! TF.FilePolarity,Positive*
%FSLAX46Y46*%
G04 Gerber Fmt 4.6, Leading zero omitted, Abs format (unit mm)*
G04 Created by KiCad (PCBNEW 6.0.7+dfsg-1+b1) date 2022-09-08 22:48:16*
%MOMM*%
%LPD*%
G01*
G04 APERTURE LIST*
G04 Aperture macros list*
%AMRoundRect*
0 Rectangle with rounded corners*
0 $1 Rounding radius*
0 $2 $3 $4 $5 $6 $7 $8 $9 X,Y pos of 4 corners*
0 Add a 4 corners polygon primitive as box body*
4,1,4,$2,$3,$4,$5,$6,$7,$8,$9,$2,$3,0*
0 Add four circle primitives for the rounded corners*
1,1,$1+$1,$2,$3*
1,1,$1+$1,$4,$5*
1,1,$1+$1,$6,$7*
1,1,$1+$1,$8,$9*
0 Add four rect primitives between the rounded corners*
20,1,$1+$1,$2,$3,$4,$5,0*
20,1,$1+$1,$4,$5,$6,$7,0*
20,1,$1+$1,$6,$7,$8,$9,0*
20,1,$1+$1,$8,$9,$2,$3,0*%
G04 Aperture macros list end*
%ADD10RoundRect,0.250000X-0.262500X-0.450000X0.262500X-0.450000X0.262500X0.450000X-0.262500X0.450000X0*%
%ADD11R,2.500000X1.800000*%
%ADD12RoundRect,0.250000X0.262500X0.450000X-0.262500X0.450000X-0.262500X-0.450000X0.262500X-0.450000X0*%
%ADD13RoundRect,0.243750X0.243750X0.456250X-0.243750X0.456250X-0.243750X-0.456250X0.243750X-0.456250X0*%
%ADD14RoundRect,0.250000X0.450000X-0.262500X0.450000X0.262500X-0.450000X0.262500X-0.450000X-0.262500X0*%
%ADD15R,1.800000X2.500000*%
%ADD16RoundRect,0.243750X0.456250X-0.243750X0.456250X0.243750X-0.456250X0.243750X-0.456250X-0.243750X0*%
%ADD17R,2.387600X6.502400*%
%ADD18R,2.387600X4.495800*%
%ADD19R,3.600000X2.700000*%
%ADD20R,6.502400X2.387600*%
%ADD21R,4.495800X2.387600*%
%ADD22RoundRect,0.225000X-0.225000X-0.250000X0.225000X-0.250000X0.225000X0.250000X-0.225000X0.250000X0*%
%ADD23RoundRect,0.250000X-0.325000X-0.650000X0.325000X-0.650000X0.325000X0.650000X-0.325000X0.650000X0*%
%ADD24RoundRect,0.150000X-0.587500X-0.150000X0.587500X-0.150000X0.587500X0.150000X-0.587500X0.150000X0*%
%ADD25RoundRect,0.250000X-0.650000X0.325000X-0.650000X-0.325000X0.650000X-0.325000X0.650000X0.325000X0*%
%ADD26RoundRect,0.150000X-0.150000X0.587500X-0.150000X-0.587500X0.150000X-0.587500X0.150000X0.587500X0*%
%ADD27RoundRect,0.250000X-0.450000X0.262500X-0.450000X-0.262500X0.450000X-0.262500X0.450000X0.262500X0*%
%ADD28RoundRect,0.100000X0.100000X-0.637500X0.100000X0.637500X-0.100000X0.637500X-0.100000X-0.637500X0*%
%ADD29RoundRect,0.150000X-0.825000X-0.150000X0.825000X-0.150000X0.825000X0.150000X-0.825000X0.150000X0*%
%ADD30R,1.300000X1.700000*%
G04 APERTURE END LIST*
D10*
X40037500Y-59350000D03*
X41862500Y-59350000D03*
D11*
X64000000Y-108000000D03*
X68000000Y-108000000D03*
D12*
X56912500Y-57250000D03*
X55087500Y-57250000D03*
X41862500Y-57350000D03*
X40037500Y-57350000D03*
D13*
X87137500Y-60250000D03*
X85262500Y-60250000D03*
D11*
X63250000Y-91450000D03*
X67250000Y-91450000D03*
D14*
X67900000Y-53437500D03*
X67900000Y-51612500D03*
X66000000Y-122412500D03*
X66000000Y-120587500D03*
X67900000Y-115862500D03*
X67900000Y-114037500D03*
D15*
X44500000Y-55250000D03*
X44500000Y-59250000D03*
D14*
X55250000Y-114412500D03*
X55250000Y-112587500D03*
D16*
X31000000Y-136937500D03*
X31000000Y-135062500D03*
D14*
X67900000Y-56862500D03*
X67900000Y-55037500D03*
D17*
X70199998Y-75443448D03*
X76200002Y-75443448D03*
D18*
X70199998Y-63943450D03*
X76200002Y-63943450D03*
D13*
X87137500Y-119250000D03*
X85262500Y-119250000D03*
D19*
X29000000Y-98550000D03*
X29000000Y-90250000D03*
D12*
X83612500Y-60250000D03*
X81787500Y-60250000D03*
D20*
X84443448Y-114800002D03*
X84443448Y-108799998D03*
D21*
X72943450Y-114800002D03*
X72943450Y-108799998D03*
D22*
X35325000Y-40400000D03*
X36875000Y-40400000D03*
D23*
X71625000Y-45250000D03*
X74575000Y-45250000D03*
D24*
X64062500Y-39050000D03*
X64062500Y-40950000D03*
X65937500Y-40000000D03*
D10*
X36424472Y-118345799D03*
X38249472Y-118345799D03*
D14*
X31000000Y-133312500D03*
X31000000Y-131487500D03*
D10*
X55087500Y-59250000D03*
X56912500Y-59250000D03*
D13*
X87087500Y-103750000D03*
X85212500Y-103750000D03*
D25*
X46500000Y-62025000D03*
X46500000Y-64975000D03*
D14*
X68000000Y-37462500D03*
X68000000Y-35637500D03*
D10*
X36424472Y-59345799D03*
X38249472Y-59345799D03*
D24*
X64012500Y-114000000D03*
X64012500Y-115900000D03*
X65887500Y-114950000D03*
D14*
X40225000Y-55537500D03*
X40225000Y-53712500D03*
D12*
X64137500Y-112250000D03*
X62312500Y-112250000D03*
D13*
X87087500Y-44750000D03*
X85212500Y-44750000D03*
D20*
X84443448Y-99250002D03*
X84443448Y-93249998D03*
D21*
X72943450Y-99250002D03*
X72943450Y-93249998D03*
D10*
X55087500Y-118250000D03*
X56912500Y-118250000D03*
D17*
X35799998Y-134393448D03*
X41800002Y-134393448D03*
D18*
X35799998Y-122893450D03*
X41800002Y-122893450D03*
D12*
X83612500Y-119250000D03*
X81787500Y-119250000D03*
D26*
X53450000Y-114312500D03*
X51550000Y-114312500D03*
X52500000Y-116187500D03*
D27*
X66025000Y-35637500D03*
X66025000Y-37462500D03*
D28*
X48750000Y-99687500D03*
X49400000Y-99687500D03*
X50050000Y-99687500D03*
X50700000Y-99687500D03*
X51350000Y-99687500D03*
X52000000Y-99687500D03*
X52650000Y-99687500D03*
X53300000Y-99687500D03*
X53950000Y-99687500D03*
X54600000Y-99687500D03*
X55250000Y-99687500D03*
X55900000Y-99687500D03*
X56550000Y-99687500D03*
X57200000Y-99687500D03*
X57200000Y-93962500D03*
X56550000Y-93962500D03*
X55900000Y-93962500D03*
X55250000Y-93962500D03*
X54600000Y-93962500D03*
X53950000Y-93962500D03*
X53300000Y-93962500D03*
X52650000Y-93962500D03*
X52000000Y-93962500D03*
X51350000Y-93962500D03*
X50700000Y-93962500D03*
X50050000Y-93962500D03*
X49400000Y-93962500D03*
X48750000Y-93962500D03*
D10*
X51587500Y-59250000D03*
X53412500Y-59250000D03*
D14*
X68000000Y-96462500D03*
X68000000Y-94637500D03*
D12*
X57412500Y-90750000D03*
X55587500Y-90750000D03*
D27*
X65925000Y-110612500D03*
X65925000Y-112437500D03*
D24*
X64012500Y-55000000D03*
X64012500Y-56900000D03*
X65887500Y-55950000D03*
D17*
X70199998Y-134443448D03*
X76200002Y-134443448D03*
D18*
X70199998Y-122943450D03*
X76200002Y-122943450D03*
D27*
X66025000Y-94637500D03*
X66025000Y-96462500D03*
D15*
X59500000Y-114000000D03*
X59500000Y-118000000D03*
D10*
X51587500Y-118250000D03*
X53412500Y-118250000D03*
D12*
X64212500Y-96250000D03*
X62387500Y-96250000D03*
D24*
X64062500Y-98050000D03*
X64062500Y-99950000D03*
X65937500Y-99000000D03*
D14*
X40225000Y-114537500D03*
X40225000Y-112712500D03*
D11*
X64000000Y-49000000D03*
X68000000Y-49000000D03*
D29*
X35925000Y-34895000D03*
X35925000Y-36165000D03*
X35925000Y-37435000D03*
X35925000Y-38705000D03*
X40875000Y-38705000D03*
X40875000Y-37435000D03*
X40875000Y-36165000D03*
X40875000Y-34895000D03*
D14*
X31000000Y-74312500D03*
X31000000Y-72487500D03*
X46750000Y-74462500D03*
X46750000Y-72637500D03*
D17*
X51124998Y-134393448D03*
X57125002Y-134393448D03*
D18*
X51124998Y-122893450D03*
X57125002Y-122893450D03*
D14*
X68000000Y-40887500D03*
X68000000Y-39062500D03*
D27*
X65925000Y-51612500D03*
X65925000Y-53437500D03*
D17*
X35799998Y-75393448D03*
X41800002Y-75393448D03*
D18*
X35799998Y-63893450D03*
X41800002Y-63893450D03*
D22*
X35425000Y-92200000D03*
X36975000Y-92200000D03*
D14*
X66000000Y-63412500D03*
X66000000Y-61587500D03*
D25*
X62250000Y-61775000D03*
X62250000Y-64725000D03*
D12*
X57412500Y-31750000D03*
X55587500Y-31750000D03*
D22*
X35325000Y-99400000D03*
X36875000Y-99400000D03*
D28*
X48750000Y-40687500D03*
X49400000Y-40687500D03*
X50050000Y-40687500D03*
X50700000Y-40687500D03*
X51350000Y-40687500D03*
X52000000Y-40687500D03*
X52650000Y-40687500D03*
X53300000Y-40687500D03*
X53950000Y-40687500D03*
X54600000Y-40687500D03*
X55250000Y-40687500D03*
X55900000Y-40687500D03*
X56550000Y-40687500D03*
X57200000Y-40687500D03*
X57200000Y-34962500D03*
X56550000Y-34962500D03*
X55900000Y-34962500D03*
X55250000Y-34962500D03*
X54600000Y-34962500D03*
X53950000Y-34962500D03*
X53300000Y-34962500D03*
X52650000Y-34962500D03*
X52000000Y-34962500D03*
X51350000Y-34962500D03*
X50700000Y-34962500D03*
X50050000Y-34962500D03*
X49400000Y-34962500D03*
X48750000Y-34962500D03*
D20*
X84443448Y-55800002D03*
X84443448Y-49799998D03*
D21*
X72943450Y-55800002D03*
X72943450Y-49799998D03*
D22*
X35425000Y-33200000D03*
X36975000Y-33200000D03*
D30*
X72250000Y-60000000D03*
X68750000Y-60000000D03*
D12*
X41862500Y-116350000D03*
X40037500Y-116350000D03*
D11*
X63250000Y-32450000D03*
X67250000Y-32450000D03*
D16*
X80400000Y-77991815D03*
X80400000Y-76116815D03*
X80400000Y-136991815D03*
X80400000Y-135116815D03*
D14*
X68000000Y-99887500D03*
X68000000Y-98062500D03*
D12*
X83562500Y-103750000D03*
X81737500Y-103750000D03*
D16*
X31000000Y-77937500D03*
X31000000Y-76062500D03*
D23*
X71625000Y-104250000D03*
X74575000Y-104250000D03*
D20*
X84443448Y-40250002D03*
X84443448Y-34249998D03*
D21*
X72943450Y-40250002D03*
X72943450Y-34249998D03*
D25*
X62250000Y-120775000D03*
X62250000Y-123725000D03*
D14*
X80400000Y-74412500D03*
X80400000Y-72587500D03*
D16*
X46750000Y-137087500D03*
X46750000Y-135212500D03*
D26*
X38475000Y-114437500D03*
X36575000Y-114437500D03*
X37525000Y-116312500D03*
D19*
X29000000Y-39550000D03*
X29000000Y-31250000D03*
D15*
X59500000Y-55000000D03*
X59500000Y-59000000D03*
D14*
X67900000Y-112437500D03*
X67900000Y-110612500D03*
D12*
X64137500Y-53250000D03*
X62312500Y-53250000D03*
X64212500Y-37250000D03*
X62387500Y-37250000D03*
D29*
X35925000Y-93895000D03*
X35925000Y-95165000D03*
X35925000Y-96435000D03*
X35925000Y-97705000D03*
X40875000Y-97705000D03*
X40875000Y-96435000D03*
X40875000Y-95165000D03*
X40875000Y-93895000D03*
D14*
X80400000Y-133412500D03*
X80400000Y-131587500D03*
D12*
X56912500Y-116250000D03*
X55087500Y-116250000D03*
D14*
X46750000Y-133462500D03*
X46750000Y-131637500D03*
D16*
X46750000Y-78087500D03*
X46750000Y-76212500D03*
D17*
X51124998Y-75393448D03*
X57125002Y-75393448D03*
D18*
X51124998Y-63893450D03*
X57125002Y-63893450D03*
D10*
X40037500Y-118350000D03*
X41862500Y-118350000D03*
D14*
X55250000Y-55412500D03*
X55250000Y-53587500D03*
D12*
X83562500Y-44750000D03*
X81737500Y-44750000D03*
D30*
X72250000Y-119000000D03*
X68750000Y-119000000D03*
D25*
X46500000Y-121025000D03*
X46500000Y-123975000D03*
D15*
X44500000Y-114250000D03*
X44500000Y-118250000D03*
D26*
X53450000Y-55312500D03*
X51550000Y-55312500D03*
X52500000Y-57187500D03*
X38475000Y-55437500D03*
X36575000Y-55437500D03*
X37525000Y-57312500D03*
M02*
