%TF.GenerationSoftware,KiCad,Pcbnew,8.0.2+dfsg-1*%
%TF.CreationDate,2024-06-08T17:30:32+01:00*%
%TF.ProjectId,panel,70616e65-6c2e-46b6-9963-61645f706362,rev?*%
%TF.SameCoordinates,Original*%
%TF.FileFunction,Profile,NP*%
%FSLAX46Y46*%
G04 Gerber Fmt 4.6, Leading zero omitted, Abs format (unit mm)*
G04 Created by KiCad (PCBNEW 8.0.2+dfsg-1) date 2024-06-08 17:30:32*
%MOMM*%
%LPD*%
G01*
G04 APERTURE LIST*
%TA.AperFunction,Profile*%
%ADD10C,0.100000*%
%TD*%
G04 APERTURE END LIST*
D10*
X116119787Y-46974073D02*
X116132079Y-46996219D01*
X164354909Y-143019260D02*
X164403269Y-143010869D01*
X113292892Y-78992892D02*
X113328440Y-78959048D01*
X164122444Y-145904035D02*
X164078602Y-145881967D01*
X115707107Y-43267892D02*
X115740951Y-43303440D01*
X120025020Y-64499365D02*
X120012664Y-64499679D01*
X183995184Y-95898018D02*
X183989176Y-95946731D01*
X179703226Y-142469261D02*
X179724015Y-142454792D01*
X179944299Y-83284280D02*
X179963517Y-83267781D01*
X167203812Y-123510820D02*
X167252518Y-123504813D01*
X133021397Y-27881921D02*
X132977555Y-27903989D01*
X183956940Y-132509714D02*
X183970031Y-132557019D01*
X166795022Y-123668483D02*
X166836486Y-123642231D01*
X183098018Y-72804815D02*
X183146731Y-72810823D01*
X163593059Y-25709714D02*
X163608455Y-25663109D01*
X116761687Y-106470940D02*
X116786360Y-106476666D01*
X115000000Y-137700000D02*
X115049068Y-137701204D01*
X116754456Y-87986463D02*
X116667774Y-88084962D01*
X113096010Y-102547444D02*
X113118078Y-102503602D01*
X178910076Y-28141679D02*
X178885909Y-28134097D01*
X166468674Y-124028465D02*
X166492870Y-123985769D01*
X113365606Y-137926989D02*
X113404300Y-137896792D01*
X183290285Y-25043059D02*
X183336890Y-25058455D01*
X169635541Y-83884755D02*
X169645916Y-83892715D01*
X115989176Y-138553268D02*
X115995184Y-138601981D01*
X180364321Y-29153863D02*
X180284280Y-29055700D01*
X133550000Y-145000046D02*
X133548795Y-145049114D01*
X113444429Y-78868530D02*
X113485896Y-78842271D01*
X183195091Y-96780785D02*
X183146731Y-96789176D01*
X164259714Y-27956940D02*
X164213109Y-27941544D01*
X113404300Y-91778207D02*
X113365606Y-91748010D01*
X113901981Y-137704815D02*
X113950931Y-137701204D01*
X117006333Y-123500000D02*
X116993668Y-123500160D01*
X181226989Y-73165606D02*
X181259048Y-73128440D01*
X119006333Y-143000000D02*
X132550001Y-143000013D01*
X115740951Y-32646559D02*
X115707107Y-32682107D01*
X183098018Y-145995230D02*
X183049068Y-145998841D01*
X169450382Y-83512802D02*
X169450833Y-83522603D01*
X164354908Y-25019214D02*
X164403268Y-25010823D01*
X115998795Y-79650931D02*
X116000000Y-79699999D01*
X116244492Y-88743161D02*
X116233567Y-88766450D01*
X163692271Y-84485942D02*
X163718530Y-84444474D01*
X113404300Y-127503207D02*
X113365606Y-127473010D01*
X132550000Y-25000000D02*
X132599068Y-25001204D01*
X166217767Y-142834351D02*
X166226259Y-142824407D01*
X113663109Y-91916544D02*
X113617315Y-91898879D01*
X117555322Y-142628905D02*
X117667588Y-142687548D01*
X180379825Y-82826106D02*
X180454792Y-82724015D01*
X164259714Y-86956940D02*
X164213109Y-86941544D01*
X181292892Y-96507107D02*
X181259048Y-96471559D01*
X183941544Y-37136890D02*
X183923879Y-37182684D01*
X116503780Y-47367920D02*
X116525926Y-47380212D01*
X113029968Y-145243026D02*
X113019214Y-145195137D01*
X169403437Y-65209567D02*
X169416534Y-65256863D01*
X116217229Y-47121924D02*
X116233236Y-47141554D01*
X164078602Y-86881921D02*
X164035896Y-86857728D01*
X113999999Y-42975000D02*
X115000000Y-42975000D01*
X113528602Y-91856921D02*
X113485896Y-91832728D01*
X113328440Y-78959048D02*
X113365606Y-78926989D01*
X117937046Y-87191542D02*
X117912974Y-87200610D01*
X133381469Y-145555616D02*
X133353207Y-145595745D01*
X163626120Y-86382684D02*
X163608455Y-86336890D01*
X180628905Y-141444677D02*
X180687548Y-141332411D01*
X115000000Y-91975000D02*
X113999999Y-91975000D01*
X163551204Y-25950931D02*
X163554815Y-25901981D01*
X183831469Y-145555616D02*
X183803207Y-145595745D01*
X132599068Y-145998841D02*
X132550000Y-146000046D01*
X113196792Y-32570699D02*
X113168530Y-32530570D01*
X115382684Y-32898879D02*
X115336890Y-32916544D01*
X181328440Y-73059048D02*
X181365606Y-73026989D01*
X166355358Y-65401770D02*
X166361376Y-65353065D01*
X116158327Y-64960458D02*
X116144929Y-64981953D01*
X179466823Y-28383386D02*
X179444677Y-28371094D01*
X163842892Y-86707107D02*
X163809048Y-86671559D01*
X164354908Y-86980785D02*
X164307019Y-86970031D01*
X164354909Y-84019260D02*
X164403269Y-84010869D01*
X116069095Y-89207121D02*
X116035552Y-89333971D01*
X132792980Y-86970031D02*
X132745091Y-86980785D01*
X113004815Y-32073018D02*
X113001204Y-32024068D01*
X183989176Y-132653268D02*
X183995184Y-132701981D01*
X166180786Y-142871335D02*
X166190270Y-142862334D01*
X181168530Y-73244429D02*
X181196792Y-73204300D01*
X133491544Y-84663123D02*
X133506940Y-84709728D01*
X113004815Y-43876981D02*
X113010823Y-43828268D01*
X163809048Y-143328486D02*
X163842893Y-143292938D01*
X183290285Y-131843059D02*
X183336890Y-131858455D01*
X133473879Y-27382684D02*
X133453989Y-27427555D01*
X181019214Y-95995091D02*
X181010823Y-95946731D01*
X115970031Y-138457019D02*
X115980785Y-138504908D01*
X113757019Y-145970077D02*
X113709714Y-145956986D01*
X113001204Y-126749068D02*
X113000000Y-126700000D01*
X115671559Y-78959048D02*
X115707107Y-78992892D01*
X113950931Y-68698795D02*
X113901981Y-68695184D01*
X166716205Y-123726926D02*
X166754897Y-123696737D01*
X116886264Y-123506731D02*
X116861139Y-123509931D01*
X117055700Y-83284280D02*
X117153863Y-83364321D01*
X180963170Y-81466752D02*
X180967005Y-81441716D01*
X119987331Y-123500000D02*
X117006333Y-123500000D01*
X115595699Y-78896792D02*
X115634393Y-78926989D01*
X183146731Y-25010823D02*
X183195091Y-25019214D01*
X116018235Y-105688828D02*
X116023333Y-105713638D01*
X132792980Y-27970031D02*
X132745091Y-27980785D01*
X163569214Y-145195137D02*
X163560823Y-145146777D01*
X133407728Y-86514103D02*
X133381469Y-86555570D01*
X164500932Y-84001250D02*
X164550000Y-84000045D01*
X166346449Y-83486966D02*
X166350522Y-65499772D01*
X116525926Y-64619787D02*
X116503780Y-64632079D01*
X181950931Y-37798795D02*
X181901981Y-37795184D01*
X115555570Y-68531469D02*
X115514103Y-68557728D01*
X163560823Y-27146731D02*
X163554815Y-27098018D01*
X166226259Y-142824407D02*
X166242720Y-142804078D01*
X116371094Y-141444677D02*
X116383386Y-141466823D01*
X169888000Y-83992426D02*
X169897751Y-83993516D01*
X169761840Y-142959245D02*
X169770880Y-142963058D01*
X183831469Y-96355570D02*
X183803207Y-96395699D01*
X133453989Y-84572458D02*
X133473879Y-84617329D01*
X167155459Y-123519209D02*
X167203812Y-123510820D01*
X179053680Y-142808557D02*
X179171303Y-142761572D01*
X163560823Y-143853314D02*
X163569214Y-143804954D01*
X183671559Y-132059048D02*
X183707107Y-132092892D01*
X115989176Y-32121731D02*
X115980785Y-32170091D01*
X169471049Y-83638315D02*
X169474764Y-83650852D01*
X117296773Y-142469261D02*
X117402530Y-142538961D01*
X120266917Y-106536680D02*
X120313830Y-106550937D01*
X116000160Y-140006331D02*
X116003529Y-140139283D01*
X178616236Y-87064273D02*
X178591425Y-87059175D01*
X180538961Y-29402530D02*
X180469261Y-29296773D01*
X115290285Y-32931940D02*
X115242980Y-32945031D01*
X164078603Y-84118123D02*
X164122444Y-84096055D01*
X118518332Y-87038581D02*
X118389245Y-87062086D01*
X113572444Y-78796010D02*
X113617315Y-78776120D01*
X181076120Y-132417315D02*
X181096010Y-132372444D01*
X113485896Y-91832728D02*
X113444429Y-91806469D01*
X163560823Y-86146731D02*
X163554815Y-86098018D01*
X115857728Y-43460896D02*
X115881921Y-43503602D01*
X113142271Y-79185896D02*
X113168530Y-79144429D01*
X181168530Y-132244429D02*
X181196792Y-132204300D01*
X116158327Y-123960458D02*
X116144929Y-123981953D01*
X180182871Y-142057500D02*
X180267781Y-141963517D01*
X116172265Y-123939309D02*
X116158327Y-123960458D01*
X117946319Y-142808557D02*
X117970071Y-142817353D01*
X166609652Y-64828351D02*
X166643495Y-64792812D01*
X169962979Y-83996452D02*
X177993555Y-83999997D01*
X169493375Y-83699742D02*
X169497425Y-83708679D01*
X183881921Y-73328602D02*
X183903989Y-73372444D01*
X169783258Y-83967282D02*
X169808136Y-83975365D01*
X116058150Y-46835317D02*
X116066947Y-46859069D01*
X169450124Y-83502965D02*
X169450382Y-83512801D01*
X183980785Y-25804908D02*
X183989176Y-25853268D01*
X115803207Y-102379300D02*
X115831469Y-102419429D01*
X169457905Y-83584319D02*
X169459098Y-83590752D01*
X115980785Y-91170091D02*
X115970031Y-91217980D01*
X119006333Y-84000000D02*
X132550001Y-84000013D01*
X115773010Y-79065606D02*
X115803207Y-79104300D01*
X116667774Y-29084962D02*
X116651282Y-29104704D01*
X117173893Y-142379825D02*
X117275984Y-142454792D01*
X120219362Y-47524739D02*
X120266917Y-47536680D01*
X181663109Y-37741544D02*
X181617315Y-37723879D01*
X116023333Y-65286361D02*
X116018235Y-65311171D01*
X169615648Y-142867767D02*
X169625592Y-142876259D01*
X183740951Y-145671605D02*
X183707107Y-145707153D01*
X113000000Y-138699999D02*
X113001204Y-138650931D01*
X113259048Y-68371559D02*
X113226989Y-68334393D01*
X116096906Y-105928882D02*
X116108060Y-105951622D01*
X165950334Y-83988776D02*
X165963049Y-83985722D01*
X179332411Y-87312451D02*
X179309671Y-87301297D01*
X169042179Y-123696746D02*
X169080871Y-123726936D01*
X115857728Y-102460896D02*
X115881921Y-102503602D01*
X115382684Y-78776120D02*
X115427555Y-78796010D01*
X181404300Y-96603207D02*
X181365606Y-96573010D01*
X166110268Y-142924267D02*
X166118667Y-142919195D01*
X116882009Y-87855743D02*
X116863576Y-87873686D01*
X120817168Y-64075641D02*
X120787954Y-64115019D01*
X164213109Y-27941544D02*
X164167315Y-27923879D01*
X113485896Y-137842271D02*
X113528602Y-137818078D01*
X113365606Y-78926989D02*
X113404300Y-78896792D01*
X164500931Y-145998841D02*
X164451981Y-145995230D01*
X183471397Y-131918078D02*
X183514103Y-131942271D01*
X116191442Y-82053680D02*
X116238427Y-82171303D01*
X164035896Y-25142271D02*
X164078602Y-25118078D01*
X183773010Y-145634439D02*
X183740951Y-145671605D01*
X113096010Y-43547444D02*
X113118078Y-43503602D01*
X118543750Y-87034625D02*
X118518332Y-87038581D01*
X178591425Y-142940824D02*
X178616236Y-142935726D01*
X116320433Y-64766714D02*
X116302075Y-64784165D01*
X132648018Y-27995184D02*
X132599068Y-27998795D01*
X178290873Y-142985569D02*
X178316071Y-142983007D01*
X163842893Y-84292938D02*
X163878441Y-84259093D01*
X116732218Y-141963517D02*
X116817128Y-142057500D01*
X116014430Y-140290873D02*
X116016992Y-140316071D01*
X120073990Y-64496922D02*
X120025020Y-64499365D01*
X180985569Y-89709126D02*
X180983007Y-89683928D01*
X113076120Y-43592315D02*
X113096010Y-43547444D01*
X166643495Y-64792812D02*
X166679042Y-64758977D01*
X181528602Y-96681921D02*
X181485896Y-96657728D01*
X113142271Y-68214103D02*
X113118078Y-68171397D01*
X168495604Y-123501204D02*
X168544548Y-123504814D01*
X116108060Y-124048377D02*
X116096906Y-124071117D01*
X116312451Y-82332411D02*
X116371094Y-82444677D01*
X163551204Y-145049114D02*
X163550000Y-145000046D01*
X133550000Y-144000012D02*
X133550000Y-145000046D01*
X115881921Y-138228602D02*
X115903989Y-138272444D01*
X163608455Y-84663154D02*
X163626120Y-84617361D01*
X163692271Y-143485942D02*
X163718530Y-143444474D01*
X132648018Y-25004815D02*
X132696731Y-25010823D01*
X166350522Y-124499772D02*
X166351738Y-124450712D01*
X166577592Y-64865507D02*
X166609652Y-64828351D01*
X163608455Y-86336890D02*
X163593059Y-86290285D01*
X115146731Y-101985823D02*
X115195091Y-101994214D01*
X115242980Y-127670031D02*
X115195091Y-127680785D01*
X183242980Y-72829968D02*
X183290285Y-72843059D01*
X164078602Y-25118078D02*
X164122444Y-25096010D01*
X183471397Y-37681921D02*
X183427555Y-37703989D01*
X178885909Y-142865902D02*
X178910076Y-142858320D01*
X167107576Y-64529960D02*
X167155459Y-64519209D01*
X113404300Y-102171792D02*
X113444429Y-102143530D01*
X116664682Y-106441849D02*
X116688649Y-106450041D01*
X115195091Y-32955785D02*
X115146731Y-32964176D01*
X180284280Y-82944299D02*
X180364321Y-82846136D01*
X116302075Y-123784165D02*
X116284165Y-123802075D01*
X167060278Y-123543047D02*
X167107576Y-123529960D01*
X113901981Y-68695184D02*
X113853268Y-68689176D01*
X113058455Y-25663109D02*
X113076120Y-25617315D01*
X116029059Y-65261687D02*
X116023333Y-65286360D01*
X132840285Y-27956940D02*
X132792980Y-27970031D01*
X188999705Y-150999750D02*
X188999999Y-150987773D01*
X180628905Y-29555322D02*
X180616613Y-29533176D01*
X132792981Y-84029982D02*
X132840286Y-84043073D01*
X116418520Y-47313265D02*
X116439309Y-47327734D01*
X120689246Y-106776083D02*
X120723916Y-106810753D01*
X169723081Y-142941778D02*
X169731964Y-142945944D01*
X180698702Y-82309671D02*
X180751584Y-82194578D01*
X115970031Y-91217980D02*
X115956940Y-91265285D01*
X113328440Y-137959048D02*
X113365606Y-137926989D01*
X116000000Y-65506333D02*
X116000000Y-67700000D01*
X116640930Y-123566947D02*
X116617408Y-123576342D01*
X183382684Y-25076120D02*
X183427555Y-25096010D01*
X116158327Y-47039541D02*
X116172265Y-47060690D01*
X183195091Y-145980831D02*
X183146731Y-145989222D01*
X132696732Y-143010837D02*
X132745091Y-143019228D01*
X165963049Y-83985722D02*
X165988315Y-83978950D01*
X113853268Y-25010823D02*
X113901981Y-25004815D01*
X120492830Y-47630364D02*
X120534879Y-47655582D01*
X166061488Y-142950855D02*
X166073290Y-142945224D01*
X133021397Y-143118092D02*
X133064103Y-143142285D01*
X183049068Y-72801204D02*
X183098018Y-72804815D01*
X181226989Y-37434393D02*
X181196792Y-37395699D01*
X116132079Y-124003780D02*
X116119787Y-124025926D01*
X117173893Y-83379825D02*
X117275984Y-83454792D01*
X116418520Y-123686734D02*
X116398105Y-123701726D01*
X164078602Y-145881967D02*
X164035896Y-145857774D01*
X117828696Y-142761572D02*
X117946319Y-142808557D01*
X113019214Y-102779908D02*
X113029968Y-102732019D01*
X180907095Y-89260382D02*
X180900746Y-89235862D01*
X115903989Y-127127555D02*
X115881921Y-127171397D01*
X169786231Y-142968699D02*
X169795543Y-142971791D01*
X166345764Y-83513015D02*
X166346449Y-83486966D01*
X115980785Y-126895091D02*
X115970031Y-126942980D01*
X180075858Y-142165420D02*
X180165420Y-142075858D01*
X181118078Y-132328602D02*
X181142271Y-132285896D01*
X113572444Y-145904035D02*
X113528602Y-145881967D01*
X181004815Y-95898018D02*
X181001204Y-95849068D01*
X180761572Y-82171303D02*
X180808557Y-82053680D01*
X183740951Y-96471559D02*
X183707107Y-96507107D01*
X113853268Y-145989222D02*
X113804908Y-145980831D01*
X115595699Y-102171792D02*
X115634393Y-102201989D01*
X118673875Y-28017791D02*
X118543750Y-28034625D01*
X120012664Y-123499679D02*
X119987331Y-123500000D01*
X113365606Y-127473010D02*
X113328440Y-127440951D01*
X116461038Y-82597469D02*
X116530738Y-82703226D01*
X166380537Y-65256833D02*
X166393635Y-65209538D01*
X120932523Y-122859987D02*
X120913741Y-122905278D01*
X179194578Y-87248415D02*
X179171303Y-87238427D01*
X113804908Y-137719214D02*
X113853268Y-137710823D01*
X113999999Y-91975000D02*
X113950931Y-91973795D01*
X166285705Y-83738507D02*
X166297586Y-83715189D01*
X183995184Y-73701981D02*
X183998795Y-73750931D01*
X183831469Y-132244429D02*
X183857728Y-132285896D01*
X116439309Y-123672265D02*
X116418520Y-123686734D01*
X116186734Y-47081479D02*
X116201726Y-47101894D01*
X167013678Y-64558439D02*
X167060278Y-64543047D01*
X115956940Y-32265285D02*
X115941544Y-32311890D01*
X115995184Y-138601981D02*
X115998795Y-138650931D01*
X116732218Y-82963517D02*
X116817128Y-83057500D01*
X116320433Y-47233285D02*
X116339227Y-47250265D01*
X113001204Y-25950931D02*
X113004815Y-25901981D01*
X183989176Y-36946731D02*
X183980785Y-36995091D01*
X116715719Y-141944299D02*
X116732218Y-141963517D01*
X115146731Y-78710823D02*
X115195091Y-78719214D01*
X133184394Y-84227003D02*
X133221559Y-84259062D01*
X163626120Y-143617361D02*
X163646010Y-143572489D01*
X113043059Y-126990285D02*
X113029968Y-126942980D01*
X116249734Y-106160772D02*
X116266714Y-106179566D01*
X115098018Y-101979815D02*
X115146731Y-101985823D01*
X180698702Y-29690328D02*
X180687548Y-29667588D01*
X113029968Y-138457019D02*
X113043059Y-138409714D01*
X116320433Y-106233285D02*
X116339227Y-106250265D01*
X179171303Y-87238427D02*
X179053680Y-87191442D01*
X163579968Y-143757064D02*
X163593059Y-143709760D01*
X113118078Y-43503602D02*
X113142271Y-43460896D01*
X116000962Y-124462015D02*
X116000160Y-124493668D01*
X166329223Y-83629366D02*
X166331451Y-83619811D01*
X168829182Y-64576102D02*
X168874049Y-64595987D01*
X113999999Y-127700000D02*
X113950931Y-127698795D01*
X132599068Y-25001204D02*
X132648018Y-25004815D01*
X183941544Y-73463109D02*
X183956940Y-73509714D01*
X113292892Y-102267892D02*
X113328440Y-102234048D01*
X133545184Y-86098018D02*
X133539176Y-86146731D01*
X116066947Y-46859069D02*
X116076342Y-46882591D01*
X181001204Y-36849068D02*
X181000000Y-36800000D01*
X166346449Y-142486966D02*
X166350522Y-124499772D01*
X132886891Y-143058469D02*
X132932684Y-143076134D01*
X133221559Y-25259048D02*
X133257107Y-25292892D01*
X120999365Y-122525020D02*
X120996922Y-122573990D01*
X115634393Y-91748010D02*
X115595699Y-91778207D01*
X183941544Y-145336936D02*
X183923879Y-145382730D01*
X181365606Y-96573010D02*
X181328440Y-96540951D01*
X113226989Y-68334393D02*
X113196792Y-68295699D01*
X163626120Y-84617361D02*
X163646010Y-84572489D01*
X133530785Y-27195091D02*
X133520031Y-27242980D01*
X133290951Y-143328454D02*
X133323010Y-143365620D01*
X180996470Y-30860716D02*
X180995187Y-30835420D01*
X117006333Y-47500000D02*
X119987331Y-47500000D01*
X116000160Y-105506331D02*
X116000962Y-105537984D01*
X180999839Y-140006331D02*
X180999999Y-139993666D01*
X133323010Y-86634393D02*
X133290951Y-86671559D01*
X116000334Y-30500034D02*
X116000000Y-30512941D01*
X181043059Y-37090285D02*
X181029968Y-37042980D01*
X180538961Y-141597469D02*
X180552359Y-141575974D01*
X116003529Y-81139283D02*
X116004812Y-81164579D01*
X179194578Y-83751584D02*
X179309671Y-83698702D01*
X113226989Y-79065606D02*
X113259048Y-79028440D01*
X116688649Y-64549958D02*
X116664682Y-64558150D01*
X179466823Y-83616613D02*
X179575974Y-83552359D01*
X120266917Y-123463319D02*
X120219362Y-123475260D01*
X179846136Y-87635678D02*
X179826106Y-87620174D01*
X166468674Y-65028465D02*
X166492870Y-64985769D01*
X169539909Y-142782252D02*
X169545624Y-142790227D01*
X132745091Y-86980785D02*
X132696731Y-86989176D01*
X166426708Y-65117159D02*
X166446603Y-65072297D01*
X180935726Y-140616236D02*
X180940824Y-140591425D01*
X169118035Y-64758988D02*
X169153581Y-64792825D01*
X113950931Y-32973795D02*
X113901981Y-32970184D01*
X116617408Y-106423657D02*
X116640930Y-106433052D01*
X133145699Y-145803253D02*
X133105570Y-145831515D01*
X116548377Y-106391939D02*
X116571117Y-106403093D01*
X116811171Y-106481764D02*
X116836102Y-106486233D01*
X179309671Y-28301297D02*
X179194578Y-28248415D01*
X120975260Y-122719362D02*
X120963319Y-122766917D01*
X120999365Y-107474979D02*
X120999679Y-107487335D01*
X166326622Y-83638827D02*
X166329223Y-83629366D01*
X120984855Y-122671278D02*
X120975260Y-122719362D01*
X113096010Y-91402555D02*
X113076120Y-91357684D01*
X133290951Y-27671559D02*
X133257107Y-27707107D01*
X116886264Y-64506731D02*
X116861139Y-64509931D01*
X180995187Y-89835420D02*
X180985569Y-89709126D01*
X115881921Y-102503602D02*
X115903989Y-102547444D01*
X113010823Y-126846731D02*
X113004815Y-126798018D01*
X179703226Y-83469261D02*
X179724015Y-83454792D01*
X181000000Y-95800000D02*
X181000000Y-90006333D01*
X133550000Y-25999999D02*
X133550000Y-27000000D01*
X116863576Y-28873686D02*
X116771942Y-28967596D01*
X179029928Y-83817353D02*
X179053680Y-83808557D01*
X120984855Y-48328721D02*
X120992081Y-48377217D01*
X115555570Y-43143530D02*
X115595699Y-43171792D01*
X181950931Y-131801204D02*
X181999999Y-131800000D01*
X183000000Y-37800000D02*
X181999999Y-37800000D01*
X132648018Y-143004828D02*
X132696732Y-143010837D01*
X169461076Y-83600362D02*
X169463430Y-83609887D01*
X116993668Y-123500160D02*
X116962015Y-123500962D01*
X113328440Y-43234048D02*
X113365606Y-43201989D01*
X183595699Y-145803253D02*
X183555570Y-145831515D01*
X181142271Y-132285896D02*
X181168530Y-132244429D01*
X169459098Y-142590752D02*
X169461076Y-142600362D01*
X116248415Y-82194578D02*
X116301297Y-82309671D01*
X113617315Y-68623879D02*
X113572444Y-68603989D01*
X181365606Y-132026989D02*
X181404300Y-131996792D01*
X117946319Y-83808557D02*
X117970071Y-83817353D01*
X164403268Y-25010823D02*
X164451981Y-25004815D01*
X169479130Y-142663178D02*
X169489679Y-142690654D01*
X115671559Y-102234048D02*
X115707107Y-102267892D01*
X181058455Y-73463109D02*
X181076120Y-73417315D01*
X118533247Y-142963170D02*
X118558283Y-142967005D01*
X113572444Y-43071010D02*
X113617315Y-43051120D01*
X132648018Y-86995184D02*
X132599068Y-86998795D01*
X116569781Y-88207532D02*
X116554327Y-88228096D01*
X118709126Y-83985569D02*
X118835420Y-83995187D01*
X113709714Y-68656940D02*
X113663109Y-68641544D01*
X116006731Y-65386264D02*
X116004168Y-65411463D01*
X117036482Y-83267781D02*
X117055700Y-83284280D01*
X113226989Y-32609393D02*
X113196792Y-32570699D01*
X118699463Y-28015148D02*
X118673875Y-28017791D01*
X113259048Y-43303440D02*
X113292892Y-43267892D01*
X179053680Y-83808557D02*
X179171303Y-83761572D01*
X115998795Y-32024068D02*
X115995184Y-32073018D01*
X115941544Y-138363109D02*
X115956940Y-138409714D01*
X183382684Y-131876120D02*
X183427555Y-131896010D01*
X181019214Y-73604908D02*
X181029968Y-73557019D01*
X113853268Y-137710823D02*
X113901981Y-137704815D01*
X116548377Y-64608060D02*
X116525926Y-64619787D01*
X115998795Y-67749068D02*
X115995184Y-67798018D01*
X113019214Y-91170091D02*
X113010823Y-91121731D01*
X178139283Y-87003529D02*
X178006331Y-87000160D01*
X113901981Y-42979815D02*
X113950931Y-42976204D01*
X163718530Y-25444429D02*
X163746792Y-25404300D01*
X184000000Y-36800000D02*
X183998795Y-36849068D01*
X180698702Y-141309671D02*
X180751584Y-141194578D01*
X180963170Y-140466752D02*
X180967005Y-140441716D01*
X113617315Y-145923925D02*
X113572444Y-145904035D01*
X120689246Y-47776083D02*
X120723916Y-47810753D01*
X116186734Y-123918520D02*
X116172265Y-123939309D01*
X169219484Y-64865523D02*
X169249682Y-64904209D01*
X165988315Y-83978950D02*
X166000852Y-83975235D01*
X116099253Y-81764137D02*
X116134097Y-81885909D01*
X115989176Y-91121731D02*
X115980785Y-91170091D01*
X181076120Y-73417315D02*
X181096010Y-73372444D01*
X120492830Y-123369635D02*
X120449595Y-123392761D01*
X164035896Y-145857774D02*
X163994429Y-145831515D01*
X113853268Y-91964176D02*
X113804908Y-91955785D01*
X166446603Y-124072297D02*
X166468674Y-124028465D01*
X116439309Y-64672265D02*
X116418520Y-64686734D01*
X117098482Y-87665701D02*
X116997684Y-87749699D01*
X116023333Y-46713639D02*
X116029059Y-46738312D01*
X116378075Y-64717229D02*
X116358445Y-64733236D01*
X178466753Y-142963170D02*
X178591425Y-142940824D01*
X117690328Y-142698702D02*
X117805421Y-142751584D01*
X133491544Y-145336936D02*
X133473879Y-145382730D01*
X115956940Y-43684714D02*
X115970031Y-43732019D01*
X113528602Y-68581921D02*
X113485896Y-68557728D01*
X116035407Y-124237167D02*
X116029059Y-124261687D01*
X169509378Y-83731947D02*
X169524095Y-83757434D01*
X118683928Y-142983007D02*
X118709126Y-142985569D01*
X116092904Y-81739617D02*
X116099253Y-81764137D01*
X113804908Y-127680785D02*
X113757019Y-127670031D01*
X169820674Y-83979079D02*
X169833389Y-83982131D01*
X166234874Y-83814550D02*
X166240998Y-83806885D01*
X181444429Y-72968530D02*
X181485896Y-72942271D01*
X115923879Y-68082684D02*
X115903989Y-68127555D01*
X116301297Y-141309671D02*
X116312451Y-141332411D01*
X113663109Y-78758455D02*
X113709714Y-78743059D01*
X113853268Y-68689176D02*
X113804908Y-68680785D01*
X133539176Y-143853282D02*
X133545184Y-143901995D01*
X120219362Y-106524739D02*
X120266917Y-106536680D01*
X183382684Y-37723879D02*
X183336890Y-37741544D01*
X115956940Y-102684714D02*
X115970031Y-102732019D01*
X183998795Y-132750931D02*
X184000000Y-132799999D01*
X133221559Y-27740951D02*
X133184393Y-27773010D01*
X164035897Y-143142316D02*
X164078603Y-143118123D01*
X179703226Y-28530738D02*
X179597469Y-28461038D01*
X181226989Y-132165606D02*
X181259048Y-132128440D01*
X180900746Y-81764137D02*
X180907095Y-81739617D01*
X115555570Y-91806469D02*
X115514103Y-91832728D01*
X169449951Y-142489926D02*
X169450124Y-142502965D01*
X115980785Y-43779908D02*
X115989176Y-43828268D01*
X113999999Y-25000000D02*
X132550000Y-25000000D01*
X116108060Y-46951622D02*
X116119787Y-46974073D01*
X115336890Y-68641544D02*
X115290285Y-68656940D01*
X183290285Y-145956986D02*
X183242980Y-145970077D01*
X181709714Y-72843059D02*
X181757019Y-72829968D01*
X116447640Y-141575974D02*
X116461038Y-141597469D01*
X113096010Y-127127555D02*
X113076120Y-127082684D01*
X113019214Y-145195137D02*
X113010823Y-145146777D01*
X133453989Y-25572444D02*
X133473879Y-25617315D01*
X113196792Y-79104300D02*
X113226989Y-79065606D01*
X113853268Y-78710823D02*
X113901981Y-78704815D01*
X178290873Y-87014430D02*
X178164579Y-87004812D01*
X163593059Y-27290285D02*
X163579968Y-27242980D01*
X116058150Y-105835317D02*
X116066947Y-105859069D01*
X115740951Y-127371559D02*
X115707107Y-127407107D01*
X166306738Y-83694210D02*
X166318457Y-83663679D01*
X116064273Y-81616236D02*
X116092904Y-81739617D01*
X115049068Y-137701204D02*
X115098018Y-137704815D01*
X183555570Y-72968530D02*
X183595699Y-72996792D01*
X179944299Y-142284280D02*
X179963517Y-142267781D01*
X183956940Y-145290331D02*
X183941544Y-145336936D01*
X169804968Y-142974516D02*
X169833396Y-142982133D01*
X163668078Y-25528602D02*
X163692271Y-25485896D01*
X120844417Y-123034879D02*
X120817168Y-123075641D01*
X117555322Y-83628905D02*
X117667588Y-83687548D01*
X116911463Y-106495831D02*
X116936719Y-106497754D01*
X115471397Y-68581921D02*
X115427555Y-68603989D01*
X180858320Y-30089923D02*
X180817353Y-29970071D01*
X180940824Y-30408574D02*
X180935726Y-30383763D01*
X116119787Y-124025926D02*
X116108060Y-124048377D01*
X183857728Y-25485896D02*
X183881921Y-25528602D01*
X183970031Y-73557019D02*
X183980785Y-73604908D01*
X164167316Y-143076165D02*
X164213110Y-143058501D01*
X183707107Y-73092892D02*
X183740951Y-73128440D01*
X164167315Y-145923925D02*
X164122444Y-145904035D01*
X116066947Y-124140930D02*
X116058150Y-124164682D01*
X115049068Y-78701204D02*
X115098018Y-78704815D01*
X116119787Y-105974073D02*
X116132079Y-105996219D01*
X120171278Y-64484855D02*
X120122782Y-64492081D01*
X115923879Y-138317315D02*
X115941544Y-138363109D01*
X113444429Y-145831515D02*
X113404300Y-145803253D01*
X133520031Y-27242980D02*
X133506940Y-27290285D01*
X118389245Y-87062086D02*
X118364064Y-87067344D01*
X183290285Y-96756940D02*
X183242980Y-96770031D01*
X118673875Y-87017791D02*
X118543750Y-87034625D01*
X180538961Y-88402530D02*
X180469261Y-88296773D01*
X180817353Y-82029928D02*
X180858320Y-81910076D01*
X115881921Y-127171397D02*
X115857728Y-127214103D01*
X181485896Y-72942271D02*
X181528602Y-72918078D01*
X169328401Y-124028487D02*
X169350472Y-124072321D01*
X121000000Y-48512668D02*
X121000000Y-63487331D01*
X181058455Y-96136890D02*
X181043059Y-96090285D01*
X169862177Y-83988250D02*
X169871812Y-83990101D01*
X116009931Y-46638860D02*
X116013766Y-46663897D01*
X116339227Y-106250265D02*
X116358445Y-106266763D01*
X115671559Y-91715951D02*
X115634393Y-91748010D01*
X178591425Y-83940824D02*
X178616236Y-83935726D01*
X116302075Y-64784165D02*
X116284165Y-64802075D01*
X180454792Y-88275984D02*
X180379825Y-88173893D01*
X116737167Y-123535407D02*
X116712816Y-123542375D01*
X116302075Y-47215834D02*
X116320433Y-47233285D01*
X113019214Y-25804908D02*
X113029968Y-25757019D01*
X115941544Y-79363109D02*
X115956940Y-79409714D01*
X183555570Y-131968530D02*
X183595699Y-131996792D01*
X115634393Y-43201989D02*
X115671559Y-43234048D01*
X179194578Y-28248415D02*
X179171303Y-28238427D01*
X169388035Y-124162970D02*
X169403437Y-124209567D01*
X164500931Y-86998795D02*
X164451981Y-86995184D01*
X115803207Y-138104300D02*
X115831469Y-138144429D01*
X116688649Y-123549958D02*
X116664682Y-123558150D01*
X165885640Y-83997989D02*
X165898676Y-83996962D01*
X113010823Y-91121731D02*
X113004815Y-91073018D01*
X115831469Y-102419429D02*
X115857728Y-102460896D01*
X108000000Y-20012272D02*
X108000000Y-150987773D01*
X180865902Y-30114090D02*
X180858320Y-30089923D01*
X166132252Y-142910090D02*
X166140227Y-142904375D01*
X113004815Y-102876981D02*
X113010823Y-102828268D01*
X115740951Y-138028440D02*
X115773010Y-138065606D01*
X113168530Y-68255570D02*
X113142271Y-68214103D01*
X133520031Y-145243026D02*
X133506940Y-145290331D01*
X132886890Y-25058455D02*
X132932684Y-25076120D01*
X166361376Y-124353065D02*
X166369776Y-124304714D01*
X169471049Y-142638315D02*
X169474764Y-142650852D01*
X133184393Y-86773010D02*
X133145699Y-86803207D01*
X166256304Y-83785671D02*
X166274114Y-83758243D01*
X178441716Y-83967005D02*
X178466752Y-83963170D01*
X113617315Y-137776120D02*
X113663109Y-137758455D01*
X113000000Y-31975000D02*
X113000000Y-25999999D01*
X163746792Y-145595745D02*
X163718530Y-145555616D01*
X116134097Y-140885909D02*
X116141679Y-140910076D01*
X164307019Y-27970031D02*
X164259714Y-27956940D01*
X115956940Y-138409714D02*
X115970031Y-138457019D01*
X133407728Y-143485910D02*
X133431921Y-143528616D01*
X113001204Y-79650931D02*
X113004815Y-79601981D01*
X169445328Y-124450747D02*
X169446541Y-124499809D01*
X180057500Y-87817128D02*
X179963517Y-87732218D01*
X113118078Y-138228602D02*
X113142271Y-138185896D01*
X181010823Y-73653268D02*
X181019214Y-73604908D01*
X116180917Y-88886633D02*
X116171205Y-88910453D01*
X120359987Y-47567476D02*
X120405278Y-47586258D01*
X166087703Y-83937495D02*
X166096356Y-83932869D01*
X183634393Y-73026989D02*
X183671559Y-73059048D01*
X169667079Y-83908090D02*
X169677855Y-83915496D01*
X180817353Y-88970071D02*
X180808557Y-88946319D01*
X181757019Y-131829968D02*
X181804908Y-131819214D01*
X183595699Y-96603207D02*
X183555570Y-96631469D01*
X115382684Y-102051120D02*
X115427555Y-102071010D01*
X183098018Y-131804815D02*
X183146731Y-131810823D01*
X164549999Y-87000000D02*
X164500931Y-86998795D01*
X115903989Y-79272444D02*
X115923879Y-79317315D01*
X178739617Y-142907095D02*
X178764137Y-142900746D01*
X183998795Y-95849068D02*
X183995184Y-95898018D01*
X181058455Y-132463109D02*
X181076120Y-132417315D01*
X115555570Y-32806469D02*
X115514103Y-32832728D01*
X133323010Y-145634439D02*
X133290951Y-145671605D01*
X116461038Y-141597469D02*
X116530738Y-141703226D01*
X115941544Y-43638109D02*
X115956940Y-43684714D01*
X116339227Y-47250265D02*
X116358445Y-47266763D01*
X183803207Y-37395699D02*
X183773010Y-37434393D01*
X113757019Y-91945031D02*
X113709714Y-91931940D01*
X178885909Y-83865902D02*
X178910076Y-83858320D01*
X113572444Y-91878989D02*
X113528602Y-91856921D01*
X120575641Y-47682831D02*
X120615019Y-47712045D01*
X164259715Y-143043105D02*
X164307019Y-143030014D01*
X166577592Y-123865507D02*
X166609652Y-123828351D01*
X118060983Y-87148466D02*
X117937046Y-87191542D01*
X120984855Y-107328721D02*
X120992081Y-107377217D01*
X181853268Y-96789176D02*
X181804908Y-96780785D01*
X163994429Y-145831515D02*
X163954300Y-145803253D01*
X163608455Y-143663154D02*
X163626120Y-143617361D01*
X180858320Y-89089923D02*
X180817353Y-88970071D01*
X116978353Y-28766670D02*
X116882009Y-28855743D01*
X168960589Y-123642237D02*
X169002053Y-123668490D01*
X166324763Y-142645101D02*
X166326622Y-142638827D01*
X120652918Y-106743154D02*
X120689246Y-106776083D01*
X163608455Y-25663109D02*
X163626120Y-25617315D01*
X179944299Y-28715719D02*
X179846136Y-28635678D01*
X133530785Y-84804922D02*
X133539176Y-84853282D01*
X115980785Y-138504908D02*
X115989176Y-138553268D01*
X113001204Y-102925931D02*
X113004815Y-102876981D01*
X169455088Y-83564903D02*
X169456306Y-83574638D01*
X168593255Y-64510820D02*
X168641609Y-64519210D01*
X116302075Y-106215834D02*
X116320433Y-106233285D01*
X166073290Y-142945224D02*
X166084781Y-142938984D01*
X116000000Y-102974999D02*
X116000000Y-105493666D01*
X166338250Y-142587822D02*
X166340101Y-142578187D01*
X178441716Y-28032994D02*
X178316071Y-28016992D01*
X178466752Y-28036829D02*
X178441716Y-28032994D01*
X115831469Y-43419429D02*
X115857728Y-43460896D01*
X121000000Y-107512668D02*
X121000000Y-122487331D01*
X113804908Y-78719214D02*
X113853268Y-78710823D01*
X168736793Y-64543049D02*
X168783393Y-64558441D01*
X116962015Y-64500962D02*
X116936719Y-64502245D01*
X181096010Y-73372444D02*
X181118078Y-73328602D01*
X183881921Y-37271397D02*
X183857728Y-37314103D01*
X183634393Y-37573010D02*
X183595699Y-37603207D01*
X113709714Y-145956986D02*
X113663109Y-145941590D01*
X116013766Y-65336102D02*
X116009931Y-65361139D01*
X164403268Y-27989176D02*
X164354908Y-27980785D01*
X115290285Y-127656940D02*
X115242980Y-127670031D01*
X118408574Y-83940824D02*
X118533246Y-83963170D01*
X163554815Y-27098018D02*
X163551204Y-27049068D01*
X116594132Y-123586331D02*
X116571117Y-123596906D01*
X116000000Y-139993666D02*
X116000160Y-140006331D01*
X113663109Y-43033455D02*
X113709714Y-43018059D01*
X133530785Y-143804922D02*
X133539176Y-143853282D01*
X120999679Y-63512664D02*
X120999365Y-63525020D01*
X119987331Y-64500000D02*
X117006333Y-64500000D01*
X132977555Y-86903989D02*
X132932684Y-86923879D01*
X179309671Y-142698702D02*
X179332411Y-142687548D01*
X188987727Y-20000000D02*
X108012272Y-20000000D01*
X115803207Y-79104300D02*
X115831469Y-79144429D01*
X116233567Y-29766450D02*
X116180917Y-29886633D01*
X108000000Y-150987773D02*
X108000294Y-150999750D01*
X113196792Y-68295699D02*
X113168530Y-68255570D01*
X120219362Y-64475260D02*
X120171278Y-64484855D01*
X113168530Y-25444429D02*
X113196792Y-25404300D01*
X183970031Y-25757019D02*
X183980785Y-25804908D01*
X183857728Y-37314103D02*
X183831469Y-37355570D01*
X133381469Y-86555570D02*
X133353207Y-86595699D01*
X120992081Y-63622782D02*
X120984855Y-63671278D01*
X115941544Y-32311890D02*
X115923879Y-32357684D01*
X113485896Y-145857774D02*
X113444429Y-145831515D01*
X133431921Y-25528602D02*
X133453989Y-25572444D01*
X116018235Y-124311171D02*
X116013766Y-124336102D01*
X169881513Y-83991572D02*
X169888000Y-83992426D01*
X133548795Y-84950944D02*
X133550000Y-85000012D01*
X115707107Y-68407107D02*
X115671559Y-68440951D01*
X178290873Y-83985569D02*
X178316071Y-83983007D01*
X133548795Y-27049068D02*
X133545184Y-27098018D01*
X179944299Y-87715719D02*
X179846136Y-87635678D01*
X181328440Y-37540951D02*
X181292892Y-37507107D01*
X133353207Y-143404314D02*
X133381469Y-143444443D01*
X163776989Y-143365651D02*
X163809048Y-143328486D01*
X166492870Y-64985769D02*
X166519131Y-64944311D01*
X169219484Y-123865523D02*
X169249682Y-123904209D01*
X183970031Y-132557019D02*
X183980785Y-132604908D01*
X115740951Y-43303440D02*
X115773010Y-43340606D01*
X166025511Y-142966501D02*
X166037592Y-142961496D01*
X117625973Y-28327373D02*
X117510133Y-28388995D01*
X120963319Y-63766917D02*
X120949062Y-63813830D01*
X116029059Y-46738312D02*
X116035407Y-46762832D01*
X169524095Y-83757434D02*
X169530928Y-83768583D01*
X132840286Y-84043073D02*
X132886891Y-84058469D01*
X164307019Y-143030014D02*
X164354909Y-143019260D01*
X116554327Y-29228096D02*
X116478223Y-29334980D01*
X133353207Y-25404300D02*
X133381469Y-25444429D01*
X180698702Y-88690328D02*
X180687548Y-88667588D01*
X115881921Y-91446397D02*
X115857728Y-91489103D01*
X183195091Y-72819214D02*
X183242980Y-72829968D01*
X166190270Y-142862334D02*
X166208766Y-142843836D01*
X116266714Y-47179566D02*
X116284165Y-47197924D01*
X163550000Y-25999999D02*
X163551204Y-25950931D01*
X115671559Y-43234048D02*
X115707107Y-43267892D01*
X115995184Y-43876981D02*
X115998795Y-43925931D01*
X132977555Y-25096010D02*
X133021397Y-25118078D01*
X179444677Y-142628905D02*
X179466823Y-142616613D01*
X179724015Y-142454792D02*
X179826106Y-142379825D01*
X116249734Y-47160772D02*
X116266714Y-47179566D01*
X116248415Y-141194578D02*
X116301297Y-141309671D01*
X117223647Y-28571045D02*
X117118661Y-28649747D01*
X113617315Y-127623879D02*
X113572444Y-127603989D01*
X169606163Y-142858766D02*
X169615648Y-142867767D01*
X183514103Y-25142271D02*
X183555570Y-25168530D01*
X169937038Y-142995767D02*
X169962979Y-142996452D01*
X113292892Y-25292892D02*
X113328440Y-25259048D01*
X166426708Y-124117159D02*
X166446603Y-124072297D01*
X180057500Y-142182871D02*
X180075858Y-142165420D01*
X116383386Y-82466823D02*
X116447640Y-82575974D01*
X163842893Y-143292938D02*
X163878441Y-143259093D01*
X116463847Y-88356312D02*
X116393342Y-88466969D01*
X133381469Y-84444443D02*
X133407728Y-84485910D01*
X120449595Y-47607238D02*
X120492830Y-47630364D01*
X169474764Y-83650852D02*
X169479130Y-83663178D01*
X115970031Y-79457019D02*
X115980785Y-79504908D01*
X116035552Y-89333971D02*
X116029618Y-89359001D01*
X181617315Y-131876120D02*
X181663109Y-131858455D01*
X167060278Y-64543047D02*
X167107576Y-64529960D01*
X113999999Y-146000046D02*
X113950931Y-145998841D01*
X180935726Y-81616236D02*
X180940824Y-81591425D01*
X181010823Y-95946731D02*
X181004815Y-95898018D01*
X166285403Y-142738346D02*
X166297278Y-142715039D01*
X183427555Y-72896010D02*
X183471397Y-72918078D01*
X178316071Y-83983007D02*
X178441716Y-83967005D01*
X183998795Y-36849068D02*
X183995184Y-36898018D01*
X116004168Y-65411463D02*
X116002245Y-65436719D01*
X120999679Y-107487335D02*
X121000000Y-107512668D01*
X113196792Y-138104300D02*
X113226989Y-138065606D01*
X120405278Y-64413741D02*
X120359987Y-64432523D01*
X166250800Y-83793793D02*
X166256304Y-83785671D01*
X133381469Y-25444429D02*
X133407728Y-25485896D01*
X116284165Y-47197924D02*
X116302075Y-47215834D01*
X113029968Y-43732019D02*
X113043059Y-43684714D01*
X115290285Y-102018059D02*
X115336890Y-102033455D01*
X181853268Y-72810823D02*
X181901981Y-72804815D01*
X116000962Y-105537984D02*
X116002245Y-105563280D01*
X116834579Y-83075858D02*
X116924141Y-83165420D01*
X180985569Y-140290873D02*
X180995187Y-140164579D01*
X183336890Y-72858455D02*
X183382684Y-72876120D01*
X113804908Y-101994214D02*
X113853268Y-101985823D01*
X163915606Y-86773010D02*
X163878440Y-86740951D01*
X180364321Y-141846136D02*
X180379825Y-141826106D01*
X116393342Y-29466969D02*
X116380082Y-29489012D01*
X113804908Y-145980831D02*
X113757019Y-145970077D01*
X165859542Y-142999359D02*
X165885640Y-142997989D01*
X132599069Y-143001218D02*
X132648018Y-143004828D01*
X133548795Y-86049068D02*
X133545184Y-86098018D01*
X116525926Y-123619787D02*
X116503780Y-123632079D01*
X169153581Y-64792825D02*
X169187425Y-64828366D01*
X115923879Y-127082684D02*
X115903989Y-127127555D01*
X113328440Y-127440951D02*
X113292892Y-127407107D01*
X113226989Y-43340606D02*
X113259048Y-43303440D01*
X116006731Y-46613735D02*
X116009931Y-46638860D01*
X166240998Y-83806885D02*
X166244981Y-83801693D01*
X116635678Y-141846136D02*
X116715719Y-141944299D01*
X116761687Y-123529059D02*
X116737167Y-123535407D01*
X166321793Y-83654452D02*
X166324763Y-83645101D01*
X163776989Y-27634393D02*
X163746792Y-27595699D01*
X178006331Y-28000160D02*
X177993666Y-28000000D01*
X178910076Y-87141679D02*
X178885909Y-87134097D01*
X113663109Y-68641544D02*
X113617315Y-68623879D01*
X115903989Y-91402555D02*
X115881921Y-91446397D01*
X117424025Y-142552359D02*
X117533176Y-142616613D01*
X166126712Y-83913587D02*
X166150520Y-83896287D01*
X117510133Y-87388995D02*
X117487741Y-87401656D01*
X180469261Y-88296773D02*
X180454792Y-88275984D01*
X113999999Y-68700000D02*
X113950931Y-68698795D01*
X118860716Y-83996470D02*
X118993668Y-83999839D01*
X169489679Y-142690654D02*
X169493375Y-142699742D01*
X181196792Y-73204300D02*
X181226989Y-73165606D01*
X163560823Y-25853268D02*
X163569214Y-25804908D01*
X180075858Y-87834579D02*
X180057500Y-87817128D01*
X115382684Y-91898879D02*
X115336890Y-91916544D01*
X133381469Y-143444443D02*
X133407728Y-143485910D01*
X113001204Y-91024068D02*
X113000000Y-90975000D01*
X163718530Y-86555570D02*
X163692271Y-86514103D01*
X163809048Y-84328486D02*
X163842893Y-84292938D01*
X166084781Y-142938984D02*
X166110268Y-142924267D01*
X116754456Y-28986463D02*
X116667774Y-29084962D01*
X116000000Y-105493666D02*
X116000160Y-105506331D01*
X133105570Y-27831469D02*
X133064103Y-27857728D01*
X116554327Y-88228096D02*
X116478223Y-88334980D01*
X181096010Y-37227555D02*
X181076120Y-37182684D01*
X179171303Y-142761572D02*
X179194578Y-142751584D01*
X183471397Y-96681921D02*
X183427555Y-96703989D01*
X113118078Y-68171397D02*
X113096010Y-68127555D01*
X183773010Y-73165606D02*
X183803207Y-73204300D01*
X183857728Y-73285896D02*
X183881921Y-73328602D01*
X133431921Y-86471397D02*
X133407728Y-86514103D01*
X117118661Y-28649747D02*
X117098482Y-28665701D01*
X116042375Y-65212816D02*
X116035407Y-65237167D01*
X120756845Y-64152918D02*
X120723916Y-64189246D01*
X116000000Y-90975000D02*
X115998795Y-91024068D01*
X116006731Y-124386264D02*
X116004168Y-124411463D01*
X180817353Y-141029928D02*
X180858320Y-140910076D01*
X116861139Y-123509931D02*
X116836102Y-123513766D01*
X115146731Y-68689176D02*
X115098018Y-68695184D01*
X117791416Y-87250004D02*
X117767842Y-87260298D01*
X183707107Y-96507107D02*
X183671559Y-96540951D01*
X181572444Y-131896010D02*
X181617315Y-131876120D01*
X178466752Y-87036829D02*
X178441716Y-87032994D01*
X168689493Y-123529961D02*
X168736793Y-123543049D01*
X169497425Y-83708679D02*
X169500242Y-83714585D01*
X115857728Y-79185896D02*
X115881921Y-79228602D01*
X180687548Y-29667588D02*
X180628905Y-29555322D01*
X113901981Y-101979815D02*
X113950931Y-101976204D01*
X180983007Y-81316071D02*
X180985569Y-81290873D01*
X115471397Y-91856921D02*
X115427555Y-91878989D01*
X113328440Y-32715951D02*
X113292892Y-32682107D01*
X115956940Y-67990285D02*
X115941544Y-68036890D01*
X169456306Y-83574638D02*
X169457905Y-83584319D01*
X113950931Y-78701204D02*
X113999999Y-78700000D01*
X115773010Y-32609393D02*
X115740951Y-32646559D01*
X163842892Y-25292892D02*
X163878440Y-25259048D01*
X167155459Y-64519209D02*
X167203812Y-64510820D01*
X116481953Y-64644929D02*
X116460458Y-64658327D01*
X116481953Y-106355070D02*
X116503780Y-106367919D01*
X183195091Y-37780785D02*
X183146731Y-37789176D01*
X133530785Y-145195137D02*
X133520031Y-145243026D01*
X133257107Y-86707107D02*
X133221559Y-86740951D01*
X117510133Y-28388995D02*
X117487741Y-28401656D01*
X166150520Y-83896287D02*
X166160894Y-83888326D01*
X178910076Y-83858320D02*
X179029928Y-83817353D01*
X116712816Y-64542375D02*
X116688649Y-64549958D01*
X180995187Y-140164579D02*
X180996470Y-140139283D01*
X166342426Y-83561999D02*
X166343516Y-83552248D01*
X181292892Y-73092892D02*
X181328440Y-73059048D01*
X120025020Y-47500634D02*
X120073990Y-47503077D01*
X168544548Y-64504814D02*
X168593255Y-64510820D01*
X168917886Y-123618050D02*
X168960589Y-123642237D01*
X166879187Y-123618045D02*
X166923024Y-123595983D01*
X180284280Y-141944299D02*
X180364321Y-141846136D01*
X113950931Y-145998841D02*
X113901981Y-145995230D01*
X180761572Y-141171303D02*
X180808557Y-141053680D01*
X115881921Y-68171397D02*
X115857728Y-68214103D01*
X169042179Y-64696746D02*
X169080871Y-64726936D01*
X116936719Y-47497754D02*
X116962015Y-47499037D01*
X116439309Y-106327734D02*
X116460458Y-106341672D01*
X116004168Y-105588536D02*
X116006731Y-105613735D01*
X116023333Y-124286361D02*
X116018235Y-124311171D01*
X132932684Y-84076134D02*
X132977556Y-84096024D01*
X133021397Y-86881921D02*
X132977555Y-86903989D01*
X181196792Y-132204300D02*
X181226989Y-132165606D01*
X116924141Y-83165420D02*
X116942499Y-83182871D01*
X169451667Y-83532379D02*
X169455088Y-83564903D01*
X120817168Y-47924358D02*
X120844417Y-47965120D01*
X181617315Y-72876120D02*
X181663109Y-72858455D01*
X183923879Y-145382730D02*
X183903989Y-145427601D01*
X181901981Y-131804815D02*
X181950931Y-131801204D01*
X169435693Y-65353098D02*
X169441709Y-65401805D01*
X116014430Y-81290873D02*
X116016992Y-81316071D01*
X181999999Y-131800000D02*
X183000000Y-131800000D01*
X180858320Y-81910076D02*
X180865902Y-81885909D01*
X113292892Y-137992892D02*
X113328440Y-137959048D01*
X179826106Y-142379825D02*
X179846136Y-142364321D01*
X113292892Y-145707153D02*
X113259048Y-145671605D01*
X166342426Y-142561999D02*
X166343516Y-142552248D01*
X179597469Y-87461038D02*
X179575974Y-87447640D01*
X113528602Y-145881967D02*
X113485896Y-145857774D01*
X113168530Y-32530570D02*
X113142271Y-32489103D01*
X113029968Y-25757019D02*
X113043059Y-25709714D01*
X113757019Y-68670031D02*
X113709714Y-68656940D01*
X115970031Y-32217980D02*
X115956940Y-32265285D01*
X116035552Y-30333971D02*
X116029618Y-30359001D01*
X164403268Y-145989222D02*
X164354908Y-145980831D01*
X116737167Y-106464592D02*
X116761687Y-106470940D01*
X188999704Y-20000294D02*
X188987727Y-20000000D01*
X116076342Y-46882591D02*
X116086331Y-46905867D01*
X166795022Y-64668483D02*
X166836486Y-64642231D01*
X117244619Y-87556150D02*
X117223647Y-87571045D01*
X120122782Y-47507918D02*
X120171278Y-47515144D01*
X118236357Y-28097459D02*
X118211480Y-28104005D01*
X181096010Y-132372444D02*
X181118078Y-132328602D01*
X183773010Y-132165606D02*
X183803207Y-132204300D01*
X179846136Y-28635678D02*
X179826106Y-28620174D01*
X164403269Y-143010869D02*
X164451982Y-143004860D01*
X164122444Y-84096055D02*
X164167316Y-84076165D01*
X133021397Y-145881967D02*
X132977555Y-145904035D01*
X166272332Y-142760988D02*
X166279164Y-142749838D01*
X116383386Y-141466823D02*
X116447640Y-141575974D01*
X183000000Y-131800000D02*
X183049068Y-131801204D01*
X116594132Y-64586331D02*
X116571117Y-64596906D01*
X180995187Y-81164579D02*
X180996470Y-81139283D01*
X133105571Y-143168544D02*
X133145700Y-143196806D01*
X133431921Y-84528616D02*
X133453989Y-84572458D01*
X115803207Y-43379300D02*
X115831469Y-43419429D01*
X113196792Y-91570699D02*
X113168530Y-91530570D01*
X165911641Y-142995254D02*
X165940709Y-142990647D01*
X133221559Y-86740951D02*
X133184393Y-86773010D01*
X180364321Y-88153863D02*
X180284280Y-88055700D01*
X117402530Y-83538961D02*
X117424025Y-83552359D01*
X113076120Y-79317315D02*
X113096010Y-79272444D01*
X113485896Y-127557728D02*
X113444429Y-127531469D01*
X132840286Y-143043073D02*
X132886891Y-143058469D01*
X113226989Y-91609393D02*
X113196792Y-91570699D01*
X183671559Y-96540951D02*
X183634393Y-96573010D01*
X113043059Y-43684714D02*
X113058455Y-43638109D01*
X169691756Y-142924114D02*
X169700088Y-142929295D01*
X183595699Y-37603207D02*
X183555570Y-37631469D01*
X115595699Y-91778207D02*
X115555570Y-91806469D01*
X116124807Y-89033185D02*
X116116332Y-89057473D01*
X169731964Y-142945944D02*
X169761840Y-142959245D01*
X118830281Y-87005030D02*
X118699463Y-87015148D01*
X116640930Y-47433052D02*
X116664682Y-47441849D01*
X181404300Y-131996792D02*
X181444429Y-131968530D01*
X133473879Y-145382730D02*
X133453989Y-145427601D01*
X180940824Y-89408574D02*
X180935726Y-89383763D01*
X179309671Y-87301297D02*
X179194578Y-87248415D01*
X169758851Y-83957914D02*
X169770932Y-83962918D01*
X163626120Y-145382730D02*
X163608455Y-145336936D01*
X120492830Y-106630364D02*
X120534879Y-106655582D01*
X133545184Y-84901995D02*
X133548795Y-84950944D01*
X132550001Y-143000013D02*
X132599069Y-143001218D01*
X115970031Y-43732019D02*
X115980785Y-43779908D01*
X115634393Y-102201989D02*
X115671559Y-102234048D01*
X183049068Y-145998841D02*
X183000000Y-146000046D01*
X181950931Y-72801204D02*
X181999999Y-72800000D01*
X166344221Y-142542462D02*
X166345764Y-142513015D01*
X116481953Y-47355070D02*
X116503780Y-47367919D01*
X132599068Y-86998795D02*
X132550000Y-87000000D01*
X120025020Y-123499365D02*
X120012664Y-123499679D01*
X180999839Y-89993668D02*
X180996470Y-89860716D01*
X183634393Y-132026989D02*
X183671559Y-132059048D01*
X133145699Y-25196792D02*
X133184393Y-25226989D01*
X183000000Y-25000000D02*
X183049068Y-25001204D01*
X183903989Y-25572444D02*
X183923879Y-25617315D01*
X115773010Y-43340606D02*
X115803207Y-43379300D01*
X169002053Y-64668490D02*
X169042179Y-64696746D01*
X116571117Y-47403093D02*
X116594132Y-47413668D01*
X113043059Y-91265285D02*
X113029968Y-91217980D01*
X113328440Y-145740997D02*
X113292892Y-145707153D01*
X116249734Y-123839227D02*
X116233236Y-123858445D01*
X180865902Y-81885909D02*
X180900746Y-81764137D01*
X166329223Y-142629366D02*
X166331451Y-142619811D01*
X169708617Y-142934145D02*
X169714368Y-142937267D01*
X133491544Y-25663109D02*
X133506940Y-25709714D01*
X166679042Y-64758977D02*
X166716205Y-64726926D01*
X116545207Y-82724015D02*
X116620174Y-82826106D01*
X115290285Y-68656940D02*
X115242980Y-68670031D01*
X133221559Y-143259062D02*
X133257107Y-143292906D01*
X133064103Y-25142271D02*
X133105570Y-25168530D01*
X163878441Y-143259093D02*
X163915606Y-143227034D01*
X113572444Y-68603989D02*
X113528602Y-68581921D01*
X120932523Y-48140012D02*
X120949062Y-48186169D01*
X115471397Y-127581921D02*
X115427555Y-127603989D01*
X116086331Y-46905867D02*
X116096906Y-46928882D01*
X133545184Y-25901981D02*
X133548795Y-25950931D01*
X132792980Y-145970077D02*
X132745091Y-145980831D01*
X169441709Y-124401805D02*
X169445328Y-124450747D01*
X181804908Y-37780785D02*
X181757019Y-37770031D01*
X120756845Y-123152918D02*
X120723916Y-123189246D01*
X116942499Y-83182871D02*
X117036482Y-83267781D01*
X164451981Y-145995230D02*
X164403268Y-145989222D01*
X118389245Y-28062086D02*
X118364064Y-28067344D01*
X180963170Y-89533246D02*
X180940824Y-89408574D01*
X118089923Y-142858320D02*
X118114090Y-142865902D01*
X116786361Y-47476666D02*
X116811171Y-47481764D01*
X181444429Y-131968530D02*
X181485896Y-131942271D01*
X183382684Y-145923925D02*
X183336890Y-145941590D01*
X169479130Y-83663178D02*
X169489679Y-83690654D01*
X115000000Y-127700000D02*
X113999999Y-127700000D01*
X181485896Y-96657728D02*
X181444429Y-96631469D01*
X116000334Y-89500034D02*
X116000000Y-89512941D01*
X179029928Y-142817353D02*
X179053680Y-142808557D01*
X183970031Y-145243026D02*
X183956940Y-145290331D01*
X180808557Y-88946319D02*
X180761572Y-88828696D01*
X180165420Y-142075858D02*
X180182871Y-142057500D01*
X163569214Y-84804954D02*
X163579968Y-84757064D01*
X163579968Y-84757064D02*
X163593059Y-84709760D01*
X163809048Y-27671559D02*
X163776989Y-27634393D01*
X183903989Y-145427601D02*
X183881921Y-145471443D01*
X183989176Y-145146777D02*
X183980785Y-145195137D01*
X115595699Y-127503207D02*
X115555570Y-127531469D01*
X117667588Y-142687548D02*
X117690328Y-142698702D01*
X181528602Y-131918078D02*
X181572444Y-131896010D01*
X117828696Y-83761572D02*
X117946319Y-83808557D01*
X133407728Y-145514149D02*
X133381469Y-145555616D01*
X183857728Y-96314103D02*
X183831469Y-96355570D01*
X164403268Y-86989176D02*
X164354908Y-86980785D01*
X116978353Y-87766670D02*
X116882009Y-87855743D01*
X132745091Y-25019214D02*
X132792980Y-25029968D01*
X115049068Y-32973795D02*
X115000000Y-32975000D01*
X120949062Y-48186169D02*
X120963319Y-48233082D01*
X115290285Y-78743059D02*
X115336890Y-78758455D01*
X116069095Y-30207121D02*
X116035552Y-30333971D01*
X163646010Y-27427555D02*
X163626120Y-27382684D01*
X164213110Y-143058501D02*
X164259715Y-143043105D01*
X163776989Y-86634393D02*
X163746792Y-86595699D01*
X116000000Y-138699999D02*
X116000000Y-139993666D01*
X113999999Y-101975000D02*
X115000000Y-101975000D01*
X116761687Y-64529059D02*
X116737167Y-64535407D01*
X133353207Y-86595699D02*
X133323010Y-86634393D01*
X183707107Y-132092892D02*
X183740951Y-132128440D01*
X168446542Y-123500000D02*
X168495604Y-123501204D01*
X117375225Y-28469156D02*
X117353514Y-28482952D01*
X132696731Y-145989222D02*
X132648018Y-145995230D01*
X120073990Y-123496922D02*
X120025020Y-123499365D01*
X169450124Y-142502965D02*
X169450382Y-142512801D01*
X181901981Y-72804815D02*
X181950931Y-72801204D01*
X115555570Y-127531469D02*
X115514103Y-127557728D01*
X166037598Y-83961493D02*
X166049679Y-83956488D01*
X166104820Y-83927907D02*
X166110399Y-83924488D01*
X113709714Y-91931940D02*
X113663109Y-91916544D01*
X169445328Y-65450747D02*
X169446541Y-65499809D01*
X164167315Y-86923879D02*
X164122444Y-86903989D01*
X166923024Y-123595983D02*
X166967891Y-123576098D01*
X116571117Y-106403093D02*
X116594132Y-106413668D01*
X181804908Y-96780785D02*
X181757019Y-96770031D01*
X169500242Y-142714585D02*
X169504640Y-142723356D01*
X118085491Y-87140649D02*
X118060984Y-87148466D01*
X169493375Y-142699742D02*
X169497425Y-142708679D01*
X178591425Y-28059175D02*
X178466753Y-28036829D01*
X179724015Y-87545207D02*
X179703226Y-87530738D01*
X133064103Y-27857728D02*
X133021397Y-27881921D01*
X180865902Y-89114090D02*
X180858320Y-89089923D01*
X115427555Y-102071010D02*
X115471397Y-102093078D01*
X116000962Y-46537984D02*
X116002245Y-46563280D01*
X163692271Y-25485896D02*
X163718530Y-25444429D01*
X120999679Y-48487335D02*
X121000000Y-48512668D01*
X116525926Y-106380212D02*
X116548377Y-106391939D01*
X169456306Y-142574638D02*
X169457905Y-142584319D01*
X117375225Y-87469156D02*
X117353514Y-87482952D01*
X183146731Y-131810823D02*
X183195091Y-131819214D01*
X183803207Y-96395699D02*
X183773010Y-96434393D01*
X113404300Y-137896792D02*
X113444429Y-137868530D01*
X166279295Y-83749911D02*
X166284145Y-83741382D01*
X180284280Y-29055700D02*
X180267781Y-29036482D01*
X183707107Y-25292892D02*
X183740951Y-25328440D01*
X115707107Y-78992892D02*
X115740951Y-79028440D01*
X115773010Y-68334393D02*
X115740951Y-68371559D01*
X116096906Y-46928882D02*
X116108060Y-46951622D01*
X113999999Y-137700000D02*
X115000000Y-137700000D01*
X115098018Y-42979815D02*
X115146731Y-42985823D01*
X120913741Y-107094721D02*
X120932523Y-107140012D01*
X113444429Y-137868530D02*
X113485896Y-137842271D01*
X133539176Y-84853282D02*
X133545184Y-84901995D01*
X179332411Y-142687548D02*
X179444677Y-142628905D01*
X116000000Y-89512941D02*
X116000000Y-90975000D01*
X179575974Y-83552359D02*
X179597469Y-83538961D01*
X181043059Y-132509714D02*
X181058455Y-132463109D01*
X180907095Y-81739617D02*
X180935726Y-81616236D01*
X115980785Y-32170091D02*
X115970031Y-32217980D01*
X133221559Y-145740997D02*
X133184393Y-145773056D01*
X115970031Y-67942980D02*
X115956940Y-67990285D01*
X113804908Y-32955785D02*
X113757019Y-32945031D01*
X181010823Y-132653268D02*
X181019214Y-132604908D01*
X116076309Y-89182429D02*
X116069095Y-89207121D01*
X180182871Y-83057500D02*
X180267781Y-82963517D01*
X183146731Y-96789176D02*
X183098018Y-96795184D01*
X113118078Y-79228602D02*
X113142271Y-79185896D01*
X115803207Y-32570699D02*
X115773010Y-32609393D01*
X177993555Y-142999997D02*
X178006442Y-142999836D01*
X113617315Y-78776120D02*
X113663109Y-78758455D01*
X115634393Y-68473010D02*
X115595699Y-68503207D01*
X113757019Y-25029968D02*
X113804908Y-25019214D01*
X113029968Y-102732019D02*
X113043059Y-102684714D01*
X181010823Y-36946731D02*
X181004815Y-36898018D01*
X115707107Y-137992892D02*
X115740951Y-138028440D01*
X132792981Y-143029982D02*
X132840286Y-143043073D01*
X166519131Y-64944311D02*
X166547395Y-64904192D01*
X166110399Y-83924488D02*
X166118662Y-83919198D01*
X181853268Y-131810823D02*
X181901981Y-131804815D01*
X163554815Y-84902027D02*
X163560823Y-84853314D01*
X113901981Y-78704815D02*
X113950931Y-78701204D01*
X116058150Y-124164682D02*
X116049958Y-124188649D01*
X116715719Y-82944299D02*
X116732218Y-82963517D01*
X183881921Y-96271397D02*
X183857728Y-96314103D01*
X163626120Y-25617315D02*
X163646010Y-25572444D01*
X180538961Y-82597469D02*
X180552359Y-82575974D01*
X179826106Y-83379825D02*
X179846136Y-83364321D01*
X116096906Y-124071117D02*
X116086331Y-124094132D01*
X118993569Y-87000165D02*
X118855971Y-87003706D01*
X116186734Y-106081479D02*
X116201726Y-106101894D01*
X113168530Y-43419429D02*
X113196792Y-43379300D01*
X169277945Y-123944330D02*
X169304206Y-123985790D01*
X113950931Y-91973795D02*
X113901981Y-91970184D01*
X120975260Y-63719362D02*
X120963319Y-63766917D01*
X183000000Y-96800000D02*
X181999999Y-96800000D01*
X116312451Y-141332411D02*
X116371094Y-141444677D01*
X183671559Y-73059048D02*
X183707107Y-73092892D01*
X113950931Y-25001204D02*
X113999999Y-25000000D01*
X116233567Y-88766450D02*
X116180917Y-88886633D01*
X116042375Y-105787183D02*
X116049958Y-105811350D01*
X117118661Y-87649747D02*
X117098482Y-87665701D01*
X181118078Y-37271397D02*
X181096010Y-37227555D01*
X169388035Y-65162970D02*
X169403437Y-65209567D01*
X113076120Y-25617315D02*
X113096010Y-25572444D01*
X115555570Y-78868530D02*
X115595699Y-78896792D01*
X116315363Y-29603150D02*
X116303255Y-29625846D01*
X117006333Y-64500000D02*
X116993668Y-64500160D01*
X117424025Y-83552359D02*
X117533176Y-83616613D01*
X115242980Y-102004968D02*
X115290285Y-102018059D01*
X180075858Y-28834579D02*
X180057500Y-28817128D01*
X116032994Y-140441716D02*
X116036829Y-140466752D01*
X116761687Y-47470940D02*
X116786360Y-47476666D01*
X116000160Y-124493668D02*
X116000000Y-124506333D01*
X115831469Y-32530570D02*
X115803207Y-32570699D01*
X113617315Y-25076120D02*
X113663109Y-25058455D01*
X181019214Y-132604908D02*
X181029968Y-132557019D01*
X169304206Y-123985790D02*
X169328401Y-124028487D01*
X108000295Y-150999751D02*
X108012272Y-151000045D01*
X116358445Y-64733236D02*
X116339227Y-64749734D01*
X115634393Y-137926989D02*
X115671559Y-137959048D01*
X116530738Y-82703226D02*
X116545207Y-82724015D01*
X116530738Y-141703226D02*
X116545207Y-141724015D01*
X169328401Y-65028487D02*
X169350472Y-65072321D01*
X117970071Y-142817353D02*
X118089923Y-142858320D01*
X183995184Y-132701981D02*
X183998795Y-132750931D01*
X115941544Y-102638109D02*
X115956940Y-102684714D01*
X166242720Y-142804078D02*
X166250680Y-142793703D01*
X113485896Y-102117271D02*
X113528602Y-102093078D01*
X166096356Y-83932869D02*
X166104820Y-83927907D01*
X169350472Y-65072321D02*
X169370366Y-65117184D01*
X183998795Y-73750931D02*
X184000000Y-73799999D01*
X166836486Y-64642231D02*
X166879187Y-64618045D01*
X116036829Y-140466753D02*
X116059175Y-140591425D01*
X169962979Y-142996452D02*
X177993555Y-142999997D01*
X133539176Y-86146731D02*
X133530785Y-86195091D01*
X183671559Y-145740997D02*
X183634393Y-145773056D01*
X165898676Y-142996962D02*
X165911641Y-142995254D01*
X169249682Y-123904209D02*
X169277945Y-123944330D01*
X108012272Y-151000046D02*
X188987727Y-151000046D01*
X116244492Y-29743161D02*
X116233567Y-29766450D01*
X181292892Y-37507107D02*
X181259048Y-37471559D01*
X168446542Y-64500000D02*
X168495604Y-64501204D01*
X115195091Y-42994214D02*
X115242980Y-43004968D01*
X116358445Y-106266763D02*
X116378075Y-106282770D01*
X183831469Y-25444429D02*
X183857728Y-25485896D01*
X166160894Y-83888326D02*
X166170837Y-83879833D01*
X116284165Y-64802075D02*
X116266714Y-64820433D01*
X164259714Y-25043059D02*
X164307019Y-25029968D01*
X116398105Y-106298273D02*
X116418520Y-106313265D01*
X133105571Y-84168544D02*
X133145700Y-84196806D01*
X163550000Y-145000046D02*
X163550000Y-144000044D01*
X163954300Y-86803207D02*
X163915606Y-86773010D01*
X169187425Y-64828366D02*
X169219484Y-64865523D01*
X181404300Y-72996792D02*
X181444429Y-72968530D01*
X163746792Y-25404300D02*
X163776989Y-25365606D01*
X184000000Y-95800000D02*
X183998795Y-95849068D01*
X168641609Y-123519210D02*
X168689493Y-123529961D01*
X183707107Y-37507107D02*
X183671559Y-37540951D01*
X181001204Y-95849068D02*
X181000000Y-95800000D01*
X116076342Y-105882591D02*
X116086331Y-105905867D01*
X132648018Y-84004828D02*
X132696732Y-84010837D01*
X116651282Y-29104704D02*
X116569781Y-29207532D01*
X183803207Y-25404300D02*
X183831469Y-25444429D01*
X113663109Y-127641544D02*
X113617315Y-127623879D01*
X163554815Y-86098018D02*
X163551204Y-86049068D01*
X113196792Y-102379300D02*
X113226989Y-102340606D01*
X179846136Y-142364321D02*
X179944299Y-142284280D01*
X180808557Y-29946319D02*
X180761572Y-29828696D01*
X113259048Y-102303440D02*
X113292892Y-102267892D01*
X113010823Y-79553268D02*
X113019214Y-79504908D01*
X116086331Y-65094132D02*
X116076342Y-65117408D01*
X118543750Y-28034625D02*
X118518332Y-28038581D01*
X167252518Y-64504813D02*
X167301461Y-64501204D01*
X116911463Y-47495831D02*
X116936719Y-47497754D01*
X115514103Y-68557728D02*
X115471397Y-68581921D01*
X181709714Y-96756940D02*
X181663109Y-96741544D01*
X113328440Y-25259048D02*
X113365606Y-25226989D01*
X179309671Y-83698702D02*
X179332411Y-83687548D01*
X180364321Y-82846136D02*
X180379825Y-82826106D01*
X115740951Y-102303440D02*
X115773010Y-102340606D01*
X115049068Y-91973795D02*
X115000000Y-91975000D01*
X180379825Y-141826106D02*
X180454792Y-141724015D01*
X116000160Y-65493668D02*
X116000000Y-65506333D01*
X118855971Y-28003706D02*
X118830281Y-28005030D01*
X183098018Y-96795184D02*
X183049068Y-96798795D01*
X113950931Y-127698795D02*
X113901981Y-127695184D01*
X183000000Y-146000046D02*
X164549999Y-146000046D01*
X120575641Y-123317168D02*
X120534879Y-123344417D01*
X113000000Y-102974999D02*
X113001204Y-102925931D01*
X183555570Y-145831515D02*
X183514103Y-145857774D01*
X116201726Y-123898105D02*
X116186734Y-123918520D01*
X168495604Y-64501204D02*
X168544548Y-64504814D01*
X183773010Y-37434393D02*
X183740951Y-37471559D01*
X183336890Y-131858455D02*
X183382684Y-131876120D01*
X183671559Y-25259048D02*
X183707107Y-25292892D01*
X120817168Y-123075641D02*
X120787954Y-123115019D01*
X180751584Y-29805421D02*
X180698702Y-29690328D01*
X113572444Y-127603989D02*
X113528602Y-127581921D01*
X120534879Y-106655582D02*
X120575641Y-106682831D01*
X113444429Y-91806469D02*
X113404300Y-91778207D01*
X180182871Y-87942499D02*
X180165420Y-87924141D01*
X181019214Y-36995091D02*
X181010823Y-36946731D01*
X180751584Y-141194578D02*
X180761572Y-141171303D01*
X116836102Y-123513766D02*
X116811171Y-123518235D01*
X183146731Y-72810823D02*
X183195091Y-72819214D01*
X183242980Y-25029968D02*
X183290285Y-25043059D01*
X164307019Y-84030014D02*
X164354909Y-84019260D01*
X116993668Y-106499839D02*
X117006333Y-106499999D01*
X183995184Y-145098064D02*
X183989176Y-145146777D01*
X115195091Y-78719214D02*
X115242980Y-78729968D01*
X166409038Y-124162942D02*
X166426708Y-124117159D01*
X115336890Y-32916544D02*
X115290285Y-32931940D01*
X181043059Y-96090285D02*
X181029968Y-96042980D01*
X120449595Y-64392761D02*
X120405278Y-64413741D01*
X116993668Y-47499839D02*
X117006333Y-47499999D01*
X116786360Y-64523333D02*
X116761687Y-64529059D01*
X118558283Y-83967005D02*
X118683928Y-83983007D01*
X116617408Y-64576342D02*
X116594132Y-64586331D01*
X167301461Y-64501204D02*
X167350521Y-64500000D01*
X113999999Y-32975000D02*
X113950931Y-32973795D01*
X163593059Y-145290331D02*
X163579968Y-145243026D01*
X113365606Y-102201989D02*
X113404300Y-102171792D01*
X180751584Y-88805421D02*
X180698702Y-88690328D01*
X113226989Y-102340606D02*
X113259048Y-102303440D01*
X169667073Y-142908086D02*
X169691756Y-142924114D01*
X116936719Y-106497754D02*
X116962015Y-106499037D01*
X113076120Y-145382730D02*
X113058455Y-145336936D01*
X178616236Y-142935726D02*
X178739617Y-142907095D01*
X183956940Y-37090285D02*
X183941544Y-37136890D01*
X115740951Y-79028440D02*
X115773010Y-79065606D01*
X118060983Y-28148466D02*
X117937046Y-28191542D01*
X133506940Y-143709728D02*
X133520031Y-143757032D01*
X113196792Y-43379300D02*
X113226989Y-43340606D01*
X120313830Y-123449062D02*
X120266917Y-123463319D01*
X120405278Y-123413741D02*
X120359987Y-123432523D01*
X180469261Y-141703226D02*
X180538961Y-141597469D01*
X166307911Y-142691155D02*
X166318457Y-142663679D01*
X120844417Y-47965120D02*
X120869635Y-48007169D01*
X115595699Y-137896792D02*
X115634393Y-137926989D01*
X178006442Y-83999836D02*
X178139283Y-83996470D01*
X183923879Y-73417315D02*
X183941544Y-73463109D01*
X118860716Y-142996470D02*
X118993668Y-142999839D01*
X164307019Y-145970077D02*
X164259714Y-145956986D01*
X133548795Y-145049114D02*
X133545184Y-145098064D01*
X179332411Y-28312451D02*
X179309671Y-28301297D01*
X165937476Y-83991160D02*
X165950334Y-83988776D01*
X181757019Y-96770031D02*
X181709714Y-96756940D01*
X113528602Y-25118078D02*
X113572444Y-25096010D01*
X120122782Y-64492081D02*
X120073990Y-64496922D01*
X179597469Y-83538961D02*
X179703226Y-83469261D01*
X181004815Y-36898018D02*
X181001204Y-36849068D01*
X116141679Y-140910076D02*
X116182646Y-141029928D01*
X113076120Y-68082684D02*
X113058455Y-68036890D01*
X133064103Y-145857774D02*
X133021397Y-145881967D01*
X179826106Y-28620174D02*
X179724015Y-28545207D01*
X120689246Y-64223916D02*
X120652918Y-64256845D01*
X164213109Y-86941544D02*
X164167315Y-86923879D01*
X169937038Y-83995767D02*
X169962979Y-83996452D01*
X116000160Y-46506331D02*
X116000962Y-46537984D01*
X115514103Y-102117271D02*
X115555570Y-102143530D01*
X115195091Y-101994214D02*
X115242980Y-102004968D01*
X115773010Y-91609393D02*
X115740951Y-91646559D01*
X181804908Y-131819214D02*
X181853268Y-131810823D01*
X133473879Y-86382684D02*
X133453989Y-86427555D01*
X181001204Y-73750931D02*
X181004815Y-73701981D01*
X132977556Y-84096024D02*
X133021397Y-84118092D01*
X183980785Y-145195137D02*
X183970031Y-145243026D01*
X133257107Y-143292906D02*
X133290951Y-143328454D01*
X163954300Y-25196792D02*
X163994429Y-25168530D01*
X181757019Y-72829968D02*
X181804908Y-72819214D01*
X163994429Y-27831469D02*
X163954300Y-27803207D01*
X183555570Y-37631469D02*
X183514103Y-37657728D01*
X180267781Y-29036482D02*
X180182871Y-28942499D01*
X163593059Y-86290285D02*
X163579968Y-86242980D01*
X116013766Y-46663897D02*
X116018235Y-46688828D01*
X118558283Y-142967005D02*
X118683928Y-142983007D01*
X116737167Y-47464592D02*
X116761687Y-47470940D01*
X116398105Y-64701726D02*
X116378075Y-64717229D01*
X113292892Y-68407107D02*
X113259048Y-68371559D01*
X113096010Y-68127555D02*
X113076120Y-68082684D01*
X108000294Y-20000295D02*
X108000000Y-20012272D01*
X181950931Y-96798795D02*
X181901981Y-96795184D01*
X181853268Y-37789176D02*
X181804908Y-37780785D01*
X115195091Y-127680785D02*
X115146731Y-127689176D01*
X120992081Y-107377217D02*
X120996922Y-107426009D01*
X132745091Y-84019228D02*
X132792981Y-84029982D01*
X179444677Y-28371094D02*
X179332411Y-28312451D01*
X113168530Y-79144429D02*
X113196792Y-79104300D01*
X120012664Y-64499679D02*
X119987331Y-64500000D01*
X116029059Y-124261687D02*
X116023333Y-124286360D01*
X163954300Y-84196837D02*
X163994429Y-84168575D01*
X116863576Y-87873686D02*
X116771942Y-87967596D01*
X115989176Y-102828268D02*
X115995184Y-102876981D01*
X113029968Y-91217980D02*
X113019214Y-91170091D01*
X163554815Y-145098064D02*
X163551204Y-145049114D01*
X166244981Y-83801693D02*
X166250800Y-83793793D01*
X183881921Y-25528602D02*
X183903989Y-25572444D01*
X180808557Y-141053680D02*
X180817353Y-141029928D01*
X115336890Y-137758455D02*
X115382684Y-137776120D01*
X166351738Y-65450712D02*
X166355358Y-65401770D01*
X166318457Y-83663679D02*
X166321793Y-83654452D01*
X183382684Y-72876120D02*
X183427555Y-72896010D01*
X165940709Y-142990647D02*
X165950367Y-142988922D01*
X115195091Y-137719214D02*
X115242980Y-137729968D01*
X116339227Y-123749734D02*
X116320433Y-123766714D01*
X118260382Y-83907095D02*
X118383763Y-83935726D01*
X116380082Y-88489012D02*
X116315363Y-88603150D01*
X166361376Y-65353065D02*
X166369776Y-65304714D01*
X116171205Y-29910453D02*
X116124807Y-30033185D01*
X163994429Y-25168530D02*
X164035896Y-25142271D01*
X116018235Y-65311171D02*
X116013766Y-65336102D01*
X120171278Y-106515144D02*
X120219362Y-106524739D01*
X166208766Y-142843836D02*
X166217767Y-142834351D01*
X181118078Y-73328602D02*
X181142271Y-73285896D01*
X113000000Y-25999999D02*
X113001204Y-25950931D01*
X183195091Y-25019214D02*
X183242980Y-25029968D01*
X113757019Y-137729968D02*
X113804908Y-137719214D01*
X180552359Y-29424025D02*
X180538961Y-29402530D01*
X117805421Y-83751584D02*
X117828696Y-83761572D01*
X133431921Y-145471443D02*
X133407728Y-145514149D01*
X113226989Y-138065606D02*
X113259048Y-138028440D01*
X181365606Y-37573010D02*
X181328440Y-37540951D01*
X179575974Y-142552359D02*
X179597469Y-142538961D01*
X116076342Y-124117408D02*
X116066947Y-124140930D01*
X169734954Y-83947275D02*
X169758851Y-83957914D01*
X117912974Y-87200610D02*
X117791416Y-87250004D01*
X118364064Y-87067344D02*
X118236357Y-87097459D01*
X118683928Y-83983007D02*
X118709126Y-83985569D01*
X113292892Y-32682107D02*
X113259048Y-32646559D01*
X166609652Y-123828351D02*
X166643495Y-123792812D01*
X113853268Y-42985823D02*
X113901981Y-42979815D01*
X115471397Y-102093078D02*
X115514103Y-102117271D01*
X178316071Y-87016992D02*
X178290873Y-87014430D01*
X120122782Y-123492081D02*
X120073990Y-123496922D01*
X166303043Y-83703299D02*
X166306738Y-83694210D01*
X133221559Y-84259062D02*
X133257107Y-84292906D01*
X115098018Y-32970184D02*
X115049068Y-32973795D01*
X113004815Y-145098064D02*
X113001204Y-145049114D01*
X164451981Y-27995184D02*
X164403268Y-27989176D01*
X116378075Y-47282770D02*
X116398105Y-47298273D01*
X115000000Y-101975000D02*
X115049068Y-101976204D01*
X178739617Y-28092904D02*
X178616236Y-28064273D01*
X116004168Y-124411463D02*
X116002245Y-124436719D01*
X118518332Y-28038581D02*
X118389245Y-28062086D01*
X116936719Y-64502245D02*
X116911463Y-64504168D01*
X166350522Y-65499772D02*
X166351738Y-65450712D01*
X179963517Y-87732218D02*
X179944299Y-87715719D01*
X169463430Y-142609887D02*
X169471049Y-142638315D01*
X113043059Y-67990285D02*
X113029968Y-67942980D01*
X133290951Y-84328454D02*
X133323010Y-84365620D01*
X166679042Y-123758977D02*
X166716205Y-123726926D01*
X120913741Y-122905278D02*
X120892761Y-122949595D01*
X115857728Y-138185896D02*
X115881921Y-138228602D01*
X181485896Y-131942271D02*
X181528602Y-131918078D01*
X120615019Y-64287954D02*
X120575641Y-64317168D01*
X133407728Y-25485896D02*
X133431921Y-25528602D01*
X163579968Y-25757019D02*
X163593059Y-25709714D01*
X116059175Y-81591425D02*
X116064273Y-81616236D01*
X120892761Y-63949595D02*
X120869635Y-63992830D01*
X120405278Y-106586258D02*
X120449595Y-106607238D01*
X166380537Y-124256833D02*
X166393635Y-124209538D01*
X118235862Y-142900746D02*
X118260382Y-142907095D01*
X116023333Y-105713639D02*
X116029059Y-105738312D01*
X180996470Y-89860716D02*
X180995187Y-89835420D01*
X113142271Y-138185896D02*
X113168530Y-138144429D01*
X121000000Y-122487331D02*
X120999679Y-122512664D01*
X169416534Y-124256863D02*
X169427294Y-124304746D01*
X133145699Y-86803207D02*
X133105570Y-86831469D01*
X117153863Y-83364321D02*
X117173893Y-83379825D01*
X115000000Y-42975000D02*
X115049068Y-42976204D01*
X164307019Y-25029968D02*
X164354908Y-25019214D01*
X180967005Y-140441716D02*
X180983007Y-140316071D01*
X169153581Y-123792825D02*
X169187425Y-123828366D01*
X115098018Y-78704815D02*
X115146731Y-78710823D01*
X113168530Y-102419429D02*
X113196792Y-102379300D01*
X113444429Y-102143530D02*
X113485896Y-102117271D01*
X164500932Y-143001250D02*
X164550000Y-143000045D01*
X120405278Y-47586258D02*
X120449595Y-47607238D01*
X132792980Y-25029968D02*
X132840285Y-25043059D01*
X181709714Y-37756940D02*
X181663109Y-37741544D01*
X113259048Y-25328440D02*
X113292892Y-25292892D01*
X115956940Y-91265285D02*
X115941544Y-91311890D01*
X180983007Y-30683928D02*
X180967005Y-30558283D01*
X169530804Y-142768667D02*
X169536202Y-142776860D01*
X169645921Y-142892720D02*
X169656296Y-142900680D01*
X183941544Y-96136890D02*
X183923879Y-96182684D01*
X113226989Y-25365606D02*
X113259048Y-25328440D01*
X169504640Y-142723356D02*
X169509378Y-142731947D01*
X180075858Y-83165420D02*
X180165420Y-83075858D01*
X179575974Y-87447640D02*
X179466823Y-87383386D01*
X120575641Y-64317168D02*
X120534879Y-64344417D01*
X120869635Y-107007169D02*
X120892761Y-107050404D01*
X163554815Y-25901981D02*
X163560823Y-25853268D01*
X180985569Y-81290873D02*
X180995187Y-81164579D01*
X113118078Y-91446397D02*
X113096010Y-91402555D01*
X178764137Y-87099253D02*
X178739617Y-87092904D01*
X179846136Y-83364321D02*
X179944299Y-83284280D01*
X169370366Y-124117184D02*
X169388035Y-124162970D01*
X113096010Y-25572444D02*
X113118078Y-25528602D01*
X113709714Y-78743059D02*
X113757019Y-78729968D01*
X116548377Y-47391939D02*
X116571117Y-47403093D01*
X115514103Y-78842271D02*
X115555570Y-78868530D01*
X113000000Y-67700000D02*
X113000000Y-43974999D01*
X116049958Y-105811350D02*
X116058150Y-105835317D01*
X113663109Y-137758455D02*
X113709714Y-137743059D01*
X133473879Y-25617315D02*
X133491544Y-25663109D01*
X115595699Y-68503207D02*
X115555570Y-68531469D01*
X116004812Y-140164579D02*
X116014430Y-140290873D01*
X183336890Y-96741544D02*
X183290285Y-96756940D01*
X113292892Y-127407107D02*
X113259048Y-127371559D01*
X116233236Y-47141554D02*
X116249734Y-47160772D01*
X118408574Y-142940824D02*
X118533246Y-142963170D01*
X133257107Y-145707153D02*
X133221559Y-145740997D01*
X133473879Y-143617329D02*
X133491544Y-143663123D01*
X184000000Y-73799999D02*
X184000000Y-95800000D01*
X116886264Y-47493268D02*
X116911463Y-47495831D01*
X178316071Y-28016992D02*
X178290873Y-28014430D01*
X166754897Y-123696737D02*
X166795022Y-123668483D01*
X183995184Y-25901981D02*
X183998795Y-25950931D01*
X132696731Y-27989176D02*
X132648018Y-27995184D01*
X181043059Y-73509714D02*
X181058455Y-73463109D01*
X115555570Y-102143530D02*
X115595699Y-102171792D01*
X181168530Y-37355570D02*
X181142271Y-37314103D01*
X166338250Y-83587822D02*
X166340101Y-83578187D01*
X116962015Y-47499037D02*
X116993668Y-47499839D01*
X169457905Y-142584319D02*
X169459098Y-142590752D01*
X120122782Y-106507918D02*
X120171278Y-106515144D01*
X181999999Y-96800000D02*
X181950931Y-96798795D01*
X108012272Y-20000000D02*
X108000295Y-20000294D01*
X113617315Y-91898879D02*
X113572444Y-91878989D01*
X178441716Y-142967005D02*
X178466752Y-142963170D01*
X183049068Y-37798795D02*
X183000000Y-37800000D01*
X119006432Y-28000000D02*
X118993569Y-28000165D01*
X132840285Y-145956986D02*
X132792980Y-145970077D01*
X120756845Y-106847081D02*
X120787954Y-106884980D01*
X115923879Y-79317315D02*
X115941544Y-79363109D01*
X180552359Y-88424025D02*
X180538961Y-88402530D01*
X180999999Y-90006333D02*
X180999839Y-89993668D01*
X115980785Y-79504908D02*
X115989176Y-79553268D01*
X183471397Y-25118078D02*
X183514103Y-25142271D01*
X115471397Y-137818078D02*
X115514103Y-137842271D01*
X169596672Y-83849760D02*
X169606158Y-83858761D01*
X116836102Y-106486233D02*
X116861139Y-106490068D01*
X183290285Y-37756940D02*
X183242980Y-37770031D01*
X116962015Y-123500962D02*
X116936719Y-123502245D01*
X116378075Y-123717229D02*
X116358445Y-123733236D01*
X183471397Y-145881967D02*
X183427555Y-145904035D01*
X116478223Y-29334980D02*
X116463847Y-29356312D01*
X183740951Y-25328440D02*
X183773010Y-25365606D01*
X169714368Y-142937267D02*
X169723081Y-142941778D01*
X116132079Y-65003780D02*
X116119787Y-65025926D01*
X118835420Y-142995187D02*
X118860716Y-142996470D01*
X133520031Y-86242980D02*
X133506940Y-86290285D01*
X183595699Y-131996792D02*
X183634393Y-132026989D01*
X115000000Y-68700000D02*
X113999999Y-68700000D01*
X183290285Y-72843059D02*
X183336890Y-72858455D01*
X116712816Y-123542375D02*
X116688649Y-123549958D01*
X120449595Y-106607238D02*
X120492830Y-106630364D01*
X120723916Y-106810753D02*
X120756845Y-106847081D01*
X181485896Y-37657728D02*
X181444429Y-37631469D01*
X113709714Y-137743059D02*
X113757019Y-137729968D01*
X116911463Y-123504168D02*
X116886264Y-123506731D01*
X178739617Y-83907095D02*
X178764137Y-83900746D01*
X113404300Y-145803253D02*
X113365606Y-145773056D01*
X181029968Y-132557019D02*
X181043059Y-132509714D01*
X183803207Y-145595745D02*
X183773010Y-145634439D01*
X183903989Y-73372444D02*
X183923879Y-73417315D01*
X180454792Y-141724015D02*
X180469261Y-141703226D01*
X118260382Y-142907095D02*
X118383763Y-142935726D01*
X164167315Y-25076120D02*
X164213109Y-25058455D01*
X181000000Y-139993666D02*
X181000000Y-132799999D01*
X180057500Y-83182871D02*
X180075858Y-83165420D01*
X113901981Y-127695184D02*
X113853268Y-127689176D01*
X165975807Y-142982812D02*
X165985195Y-142979963D01*
X164167316Y-84076165D02*
X164213110Y-84058501D01*
X120999679Y-122512664D02*
X120999365Y-122525020D01*
X178139283Y-83996470D02*
X178164579Y-83995187D01*
X179053680Y-87191442D02*
X179029928Y-87182646D01*
X167203812Y-64510820D02*
X167252518Y-64504813D01*
X165985196Y-142979963D02*
X166013185Y-142970867D01*
X166297278Y-142715039D02*
X166302907Y-142703236D01*
X180935726Y-30383763D02*
X180907095Y-30260382D01*
X163746792Y-143404345D02*
X163776989Y-143365651D01*
X120787954Y-64115019D02*
X120756845Y-64152918D01*
X181000000Y-132799999D02*
X181001204Y-132750931D01*
X116635678Y-82846136D02*
X116715719Y-82944299D01*
X183336890Y-145941590D02*
X183290285Y-145956986D01*
X178885909Y-28134097D02*
X178764137Y-28099253D01*
X183740951Y-37471559D02*
X183707107Y-37507107D01*
X113000000Y-90975000D02*
X113000000Y-79699999D01*
X120313830Y-64449062D02*
X120266917Y-64463319D01*
X166302907Y-142703236D02*
X166307911Y-142691155D01*
X133431921Y-143528616D02*
X133453989Y-143572458D01*
X113663109Y-102033455D02*
X113709714Y-102018059D01*
X133453989Y-145427601D02*
X133431921Y-145471443D01*
X116201726Y-64898105D02*
X116186734Y-64918520D01*
X116064273Y-140616236D02*
X116092904Y-140739617D01*
X181004815Y-73701981D02*
X181010823Y-73653268D01*
X113901981Y-145995230D02*
X113853268Y-145989222D01*
X181901981Y-37795184D02*
X181853268Y-37789176D01*
X163915606Y-25226989D02*
X163954300Y-25196792D01*
X115471397Y-78818078D02*
X115514103Y-78842271D01*
X166199760Y-83853327D02*
X166208761Y-83843841D01*
X133520031Y-84757032D02*
X133530785Y-84804922D01*
X116303255Y-88625846D02*
X116244492Y-88743161D01*
X116786361Y-106476666D02*
X116811171Y-106481764D01*
X163718530Y-143444474D02*
X163746792Y-143404345D01*
X113001204Y-145049114D02*
X113000000Y-145000046D01*
X133323010Y-25365606D02*
X133353207Y-25404300D01*
X166446603Y-65072297D02*
X166468674Y-65028465D01*
X113096010Y-32402555D02*
X113076120Y-32357684D01*
X116144929Y-123981953D02*
X116132080Y-124003780D01*
X116911463Y-64504168D02*
X116886264Y-64506731D01*
X179444677Y-83628905D02*
X179466823Y-83616613D01*
X166170843Y-142879828D02*
X166180786Y-142871335D01*
X113076120Y-138317315D02*
X113096010Y-138272444D01*
X120844417Y-106965120D02*
X120869635Y-107007169D01*
X183595699Y-72996792D02*
X183634393Y-73026989D01*
X166343516Y-142552248D02*
X166344221Y-142542462D01*
X116086331Y-105905867D02*
X116096906Y-105928882D01*
X115995184Y-126798018D02*
X115989176Y-126846731D01*
X113617315Y-43051120D02*
X113663109Y-43033455D01*
X118364064Y-28067344D02*
X118236357Y-28097459D01*
X116303255Y-29625846D02*
X116244492Y-29743161D01*
X113259048Y-127371559D02*
X113226989Y-127334393D01*
X169500242Y-83714585D02*
X169504640Y-83723356D01*
X115857728Y-127214103D02*
X115831469Y-127255570D01*
X116398105Y-123701726D02*
X116378075Y-123717229D01*
X178764137Y-83900746D02*
X178885909Y-83865902D01*
X181528602Y-37681921D02*
X181485896Y-37657728D01*
X113853268Y-101985823D02*
X113901981Y-101979815D01*
X115242980Y-43004968D02*
X115290285Y-43018059D01*
X113663109Y-32916544D02*
X113617315Y-32898879D01*
X166716205Y-64726926D02*
X166754897Y-64696737D01*
X164307019Y-86970031D02*
X164259714Y-86956940D01*
X118235862Y-83900746D02*
X118260382Y-83907095D01*
X117690328Y-83698702D02*
X117805421Y-83751584D01*
X113950931Y-137701204D02*
X113999999Y-137700000D01*
X169570171Y-142820843D02*
X169578664Y-142830786D01*
X166879187Y-64618045D02*
X166923024Y-64595983D01*
X169002053Y-123668490D02*
X169042179Y-123696746D01*
X120817168Y-106924358D02*
X120844417Y-106965120D01*
X120313830Y-47550937D02*
X120359987Y-47567476D01*
X115634393Y-78926989D02*
X115671559Y-78959048D01*
X183989176Y-25853268D02*
X183995184Y-25901981D01*
X183242980Y-37770031D02*
X183195091Y-37780785D01*
X133491544Y-143663123D02*
X133506940Y-143709728D01*
X120652918Y-123256845D02*
X120615019Y-123287954D01*
X117275984Y-142454792D02*
X117296773Y-142469261D01*
X116418520Y-106313265D02*
X116439309Y-106327734D01*
X165859542Y-83999359D02*
X165885640Y-83997989D01*
X116180917Y-29886633D02*
X116171205Y-29910453D01*
X120534879Y-123344417D02*
X120492830Y-123369635D01*
X164451981Y-25004815D02*
X164500931Y-25001204D01*
X178591425Y-87059175D02*
X178466753Y-87036829D01*
X116029618Y-30359001D02*
X116002660Y-30487335D01*
X116525926Y-47380212D02*
X116548377Y-47391939D01*
X163878440Y-25259048D02*
X163915606Y-25226989D01*
X169656296Y-142900680D02*
X169667073Y-142908086D01*
X120012664Y-106500320D02*
X120025020Y-106500634D01*
X169446541Y-124499809D02*
X169449951Y-142489926D01*
X133539176Y-145146777D02*
X133530785Y-145195137D01*
X116116332Y-30057473D02*
X116076309Y-30182429D01*
X132648018Y-145995230D02*
X132599068Y-145998841D01*
X116002660Y-89487335D02*
X116000334Y-89500034D01*
X178764137Y-142900746D02*
X178885909Y-142865902D01*
X183427555Y-96703989D02*
X183382684Y-96723879D01*
X113058455Y-43638109D02*
X113076120Y-43592315D01*
X116049958Y-46811350D02*
X116058150Y-46835317D01*
X115707107Y-32682107D02*
X115671559Y-32715951D01*
X164549999Y-25000000D02*
X183000000Y-25000000D01*
X180900746Y-30235862D02*
X180865902Y-30114090D01*
X113019214Y-79504908D02*
X113029968Y-79457019D01*
X113444429Y-68531469D02*
X113404300Y-68503207D01*
X115707107Y-102267892D02*
X115740951Y-102303440D01*
X132886890Y-86941544D02*
X132840285Y-86956940D01*
X118114090Y-83865902D02*
X118235862Y-83900746D01*
X113142271Y-91489103D02*
X113118078Y-91446397D01*
X116924141Y-142165420D02*
X116942499Y-142182871D01*
X166126860Y-142913797D02*
X166132252Y-142910090D01*
X133323010Y-143365620D02*
X133353207Y-143404314D01*
X116144929Y-64981953D02*
X116132080Y-65003780D01*
X178006331Y-87000160D02*
X177993666Y-87000000D01*
X166409038Y-65162942D02*
X166426708Y-65117159D01*
X115998795Y-43925931D02*
X116000000Y-43974999D01*
X116617408Y-47423657D02*
X116640930Y-47433052D01*
X115998795Y-91024068D02*
X115995184Y-91073018D01*
X183740951Y-132128440D02*
X183773010Y-132165606D01*
X113365606Y-91748010D02*
X113328440Y-91715951D01*
X113019214Y-32170091D02*
X113010823Y-32121731D01*
X113142271Y-25485896D02*
X113168530Y-25444429D01*
X116817128Y-142057500D02*
X116834579Y-142075858D01*
X133290951Y-25328440D02*
X133323010Y-25365606D01*
X183382684Y-96723879D02*
X183336890Y-96741544D01*
X183146731Y-145989222D02*
X183098018Y-145995230D01*
X113019214Y-138504908D02*
X113029968Y-138457019D01*
X116393342Y-88466969D02*
X116380082Y-88489012D01*
X180165420Y-28924141D02*
X180075858Y-28834579D01*
X113226989Y-145634439D02*
X113196792Y-145595745D01*
X132932684Y-25076120D02*
X132977555Y-25096010D01*
X115634393Y-127473010D02*
X115595699Y-127503207D01*
X183980785Y-132604908D02*
X183989176Y-132653268D01*
X169570166Y-83820837D02*
X169587670Y-83840275D01*
X120844417Y-64034879D02*
X120817168Y-64075641D01*
X168960589Y-64642237D02*
X169002053Y-64668490D01*
X133539176Y-25853268D02*
X133545184Y-25901981D01*
X113076120Y-91357684D02*
X113058455Y-91311890D01*
X117353514Y-28482952D02*
X117244619Y-28556150D01*
X169450833Y-142522603D02*
X169451667Y-142532379D01*
X116035407Y-105762832D02*
X116042375Y-105787183D01*
X183634393Y-96573010D02*
X183595699Y-96603207D01*
X179466823Y-142616613D02*
X179575974Y-142552359D01*
X113142271Y-127214103D02*
X113118078Y-127171397D01*
X181000000Y-80993666D02*
X181000000Y-73799999D01*
X116882009Y-28855743D02*
X116863576Y-28873686D01*
X168829182Y-123576102D02*
X168874049Y-123595987D01*
X164122444Y-86903989D02*
X164078602Y-86881921D01*
X113118078Y-32446397D02*
X113096010Y-32402555D01*
X116571117Y-64596906D02*
X116548377Y-64608060D01*
X115555570Y-137868530D02*
X115595699Y-137896792D01*
X188987727Y-151000045D02*
X188999704Y-150999751D01*
X132599069Y-84001218D02*
X132648018Y-84004828D01*
X118236357Y-87097459D02*
X118211480Y-87104005D01*
X115773010Y-102340606D02*
X115803207Y-102379300D01*
X133323010Y-84365620D02*
X133353207Y-84404314D01*
X132886890Y-27941544D02*
X132840285Y-27956940D01*
X189000000Y-150987773D02*
X189000000Y-20012272D01*
X169249682Y-64904209D02*
X169277945Y-64944330D01*
X132840285Y-25043059D02*
X132886890Y-25058455D01*
X116339227Y-64749734D02*
X116320433Y-64766714D01*
X115995184Y-91073018D02*
X115989176Y-91121731D01*
X169677856Y-83915496D02*
X169689005Y-83922328D01*
X163954300Y-143196837D02*
X163994429Y-143168575D01*
X113004815Y-25901981D02*
X113010823Y-25853268D01*
X166492870Y-123985769D02*
X166519131Y-123944311D01*
X113010823Y-138553268D02*
X113019214Y-138504908D01*
X116886264Y-106493268D02*
X116911463Y-106495831D01*
X116108060Y-105951622D02*
X116119787Y-105974073D01*
X115803207Y-91570699D02*
X115773010Y-91609393D01*
X169441709Y-65401805D02*
X169445328Y-65450747D01*
X183989176Y-73653268D02*
X183995184Y-73701981D01*
X163569214Y-143804954D02*
X163579968Y-143757064D01*
X133145700Y-143196806D02*
X133184394Y-143227003D01*
X179029928Y-28182646D02*
X178910076Y-28141679D01*
X115427555Y-68603989D02*
X115382684Y-68623879D01*
X164078603Y-143118123D02*
X164122444Y-143096055D01*
X183049068Y-25001204D02*
X183098018Y-25004815D01*
X133353207Y-84404314D02*
X133381469Y-84444443D01*
X184000000Y-145000046D02*
X183998795Y-145049114D01*
X116092904Y-140739617D02*
X116099253Y-140764137D01*
X120025020Y-106500634D02*
X120073990Y-106503077D01*
X115903989Y-43547444D02*
X115923879Y-43592315D01*
X116481953Y-123644929D02*
X116460458Y-123658327D01*
X163954300Y-27803207D02*
X163915606Y-27773010D01*
X169451667Y-142532379D02*
X169455088Y-142564903D01*
X181096010Y-96227555D02*
X181076120Y-96182684D01*
X117805421Y-142751584D02*
X117828696Y-142761572D01*
X132745091Y-143019228D02*
X132792981Y-143029982D01*
X115831469Y-79144429D02*
X115857728Y-79185896D01*
X166341572Y-83568486D02*
X166342426Y-83561999D01*
X118383763Y-142935726D02*
X118408574Y-142940824D01*
X116284165Y-123802075D02*
X116266714Y-123820433D01*
X163842892Y-27707107D02*
X163809048Y-27671559D01*
X115956940Y-126990285D02*
X115941544Y-127036890D01*
X115427555Y-91878989D02*
X115382684Y-91898879D01*
X179332411Y-83687548D02*
X179444677Y-83628905D01*
X163915606Y-143227034D02*
X163954300Y-143196837D01*
X117153863Y-142364321D02*
X117173893Y-142379825D01*
X168783393Y-123558441D02*
X168829182Y-123576102D01*
X169450382Y-142512802D02*
X169450833Y-142522603D01*
X169446541Y-65499809D02*
X169449951Y-83489926D01*
X181196792Y-96395699D02*
X181168530Y-96355570D01*
X118993668Y-142999839D02*
X119006333Y-143000000D01*
X183634393Y-145773056D02*
X183595699Y-145803253D01*
X113058455Y-102638109D02*
X113076120Y-102592315D01*
X115427555Y-43071010D02*
X115471397Y-43093078D01*
X115098018Y-137704815D02*
X115146731Y-137710823D01*
X166061481Y-83950858D02*
X166087703Y-83937495D01*
X179466823Y-87383386D02*
X179444677Y-87371094D01*
X183857728Y-145514149D02*
X183831469Y-145555616D01*
X132745091Y-145980831D02*
X132696731Y-145989222D01*
X179194578Y-142751584D02*
X179309671Y-142698702D01*
X181076120Y-37182684D02*
X181058455Y-37136890D01*
X183555570Y-96631469D02*
X183514103Y-96657728D01*
X118085491Y-28140649D02*
X118060984Y-28148466D01*
X115773010Y-127334393D02*
X115740951Y-127371559D01*
X116811171Y-64518235D02*
X116786361Y-64523333D01*
X163646010Y-143572489D02*
X163668078Y-143528648D01*
X164035896Y-86857728D02*
X163994429Y-86831469D01*
X115923879Y-91357684D02*
X115903989Y-91402555D01*
X183242980Y-145970077D02*
X183195091Y-145980831D01*
X116002245Y-46563280D02*
X116004168Y-46588536D01*
X116667774Y-88084962D02*
X116651282Y-88104704D01*
X163569214Y-25804908D02*
X163579968Y-25757019D01*
X113076120Y-102592315D02*
X113096010Y-102547444D01*
X116861139Y-106490068D02*
X116886264Y-106493268D01*
X183956940Y-73509714D02*
X183970031Y-73557019D01*
X169871812Y-83990101D02*
X169881513Y-83991572D01*
X133530785Y-86195091D02*
X133520031Y-86242980D01*
X117055700Y-142284280D02*
X117153863Y-142364321D01*
X113058455Y-32311890D02*
X113043059Y-32265285D01*
X113043059Y-25709714D02*
X113058455Y-25663109D01*
X115242980Y-68670031D02*
X115195091Y-68680785D01*
X133145699Y-27803207D02*
X133105570Y-27831469D01*
X183970031Y-37042980D02*
X183956940Y-37090285D01*
X163718530Y-145555616D02*
X163692271Y-145514149D01*
X115923879Y-102592315D02*
X115941544Y-102638109D01*
X113226989Y-127334393D02*
X113196792Y-127295699D01*
X180996470Y-81139283D02*
X180999839Y-81006331D01*
X166967891Y-64576098D02*
X167013678Y-64558439D01*
X183336890Y-25058455D02*
X183382684Y-25076120D01*
X113485896Y-78842271D02*
X113528602Y-78818078D01*
X169770932Y-83962918D02*
X169783258Y-83967282D01*
X164167315Y-27923879D02*
X164122444Y-27903989D01*
X117275984Y-83454792D02*
X117296773Y-83469261D01*
X116000962Y-65462015D02*
X116000160Y-65493668D01*
X120171278Y-47515144D02*
X120219362Y-47524739D01*
X120073990Y-106503077D02*
X120122782Y-106507918D01*
X118089923Y-83858320D02*
X118114090Y-83865902D01*
X115740951Y-91646559D02*
X115707107Y-91682107D01*
X180858320Y-140910076D02*
X180865902Y-140885909D01*
X163776989Y-145634439D02*
X163746792Y-145595745D01*
X116049958Y-65188649D02*
X116042375Y-65212816D01*
X183707107Y-145707153D02*
X183671559Y-145740997D01*
X163692271Y-86514103D02*
X163668078Y-86471397D01*
X133520031Y-143757032D02*
X133530785Y-143804922D01*
X181444429Y-37631469D02*
X181404300Y-37603207D01*
X116132080Y-105996219D02*
X116144929Y-106018046D01*
X183970031Y-96042980D02*
X183956940Y-96090285D01*
X180967005Y-30558283D02*
X180963170Y-30533247D01*
X113118078Y-127171397D02*
X113096010Y-127127555D01*
X183049068Y-131801204D02*
X183098018Y-131804815D01*
X183903989Y-37227555D02*
X183881921Y-37271397D01*
X116378075Y-106282770D02*
X116398105Y-106298273D01*
X115923879Y-32357684D02*
X115903989Y-32402555D01*
X120359987Y-123432523D02*
X120313830Y-123449062D01*
X116076342Y-65117408D02*
X116066947Y-65140930D01*
X181076120Y-96182684D02*
X181058455Y-96136890D01*
X132977555Y-27903989D02*
X132932684Y-27923879D01*
X115195091Y-91955785D02*
X115146731Y-91964176D01*
X181572444Y-96703989D02*
X181528602Y-96681921D01*
X181999999Y-72800000D02*
X183000000Y-72800000D01*
X163608455Y-145336936D02*
X163593059Y-145290331D01*
X180999839Y-30993668D02*
X180996470Y-30860716D01*
X169846111Y-142985185D02*
X169858969Y-142987568D01*
X113292892Y-91682107D02*
X113259048Y-91646559D01*
X116158327Y-106039541D02*
X116172265Y-106060690D01*
X115242980Y-78729968D02*
X115290285Y-78743059D01*
X120723916Y-123189246D02*
X120689246Y-123223916D01*
X113901981Y-32970184D02*
X113853268Y-32964176D01*
X115146731Y-127689176D02*
X115098018Y-127695184D01*
X133064103Y-86857728D02*
X133021397Y-86881921D01*
X166013178Y-83970869D02*
X166037598Y-83961493D01*
X115146731Y-32964176D02*
X115098018Y-32970184D01*
X116664682Y-47441849D02*
X116688649Y-47450041D01*
X113142271Y-102460896D02*
X113168530Y-102419429D01*
X180616613Y-141466823D02*
X180628905Y-141444677D01*
X183881921Y-145471443D02*
X183857728Y-145514149D01*
X132886890Y-145941590D02*
X132840285Y-145956986D01*
X120932523Y-107140012D02*
X120949062Y-107186169D01*
X115242980Y-32945031D02*
X115195091Y-32955785D01*
X165966313Y-142985290D02*
X165975807Y-142982812D01*
X180935726Y-89383763D02*
X180907095Y-89260382D01*
X180999999Y-31006333D02*
X180999839Y-30993668D01*
X113096010Y-79272444D02*
X113118078Y-79228602D01*
X116371094Y-82444677D02*
X116383386Y-82466823D01*
X116503780Y-64632080D02*
X116481953Y-64644929D01*
X169450833Y-83522603D02*
X169451667Y-83532379D01*
X115980785Y-102779908D02*
X115989176Y-102828268D01*
X163646010Y-84572489D02*
X163668078Y-84528648D01*
X116004168Y-46588536D02*
X116006731Y-46613735D01*
X167107576Y-123529960D02*
X167155459Y-123519209D01*
X168874049Y-123595987D02*
X168917886Y-123618050D01*
X115707107Y-127407107D02*
X115671559Y-127440951D01*
X113142271Y-32489103D02*
X113118078Y-32446397D01*
X180628905Y-88555322D02*
X180616613Y-88533176D01*
X113804908Y-25019214D02*
X113853268Y-25010823D01*
X163551204Y-143950977D02*
X163554815Y-143902027D01*
X164549999Y-28000000D02*
X164500931Y-27998795D01*
X180165420Y-83075858D02*
X180182871Y-83057500D01*
X133473879Y-84617329D02*
X133491544Y-84663123D01*
X166344221Y-83542462D02*
X166345764Y-83513015D01*
X163809048Y-145671605D02*
X163776989Y-145634439D01*
X183989176Y-95946731D02*
X183980785Y-95995091D01*
X116358445Y-123733236D02*
X116339227Y-123749734D01*
X115941544Y-68036890D02*
X115923879Y-68082684D01*
X169625592Y-142876259D02*
X169645921Y-142892720D01*
X133545184Y-27098018D02*
X133539176Y-27146731D01*
X116997684Y-87749699D02*
X116978353Y-87766670D01*
X133407728Y-84485910D02*
X133431921Y-84528616D01*
X166013185Y-142970867D02*
X166025511Y-142966501D01*
X183941544Y-25663109D02*
X183956940Y-25709714D01*
X181663109Y-131858455D02*
X181709714Y-131843059D01*
X181259048Y-73128440D02*
X181292892Y-73092892D01*
X178616236Y-83935726D02*
X178739617Y-83907095D01*
X169780063Y-142966514D02*
X169786231Y-142968699D01*
X164078602Y-27881921D02*
X164035896Y-27857728D01*
X167350521Y-64500000D02*
X168446542Y-64500000D01*
X113444429Y-43143530D02*
X113485896Y-43117271D01*
X115998795Y-102925931D02*
X116000000Y-102974999D01*
X116016992Y-140316071D02*
X116032994Y-140441716D01*
X113259048Y-145671605D02*
X113226989Y-145634439D01*
X113709714Y-102018059D02*
X113757019Y-102004968D01*
X120869635Y-63992830D02*
X120844417Y-64034879D01*
X115803207Y-127295699D02*
X115773010Y-127334393D01*
X163746792Y-86595699D02*
X163718530Y-86555570D01*
X120949062Y-63813830D02*
X120932523Y-63859987D01*
X116712816Y-47457624D02*
X116737167Y-47464592D01*
X183956940Y-25709714D02*
X183970031Y-25757019D01*
X169587670Y-83840275D02*
X169596672Y-83849760D01*
X115290285Y-91931940D02*
X115242980Y-91945031D01*
X113001204Y-138650931D02*
X113004815Y-138601981D01*
X120787954Y-47884980D02*
X120817168Y-47924358D01*
X115049068Y-42976204D02*
X115098018Y-42979815D01*
X116000000Y-30512941D02*
X116000000Y-31975000D01*
X183595699Y-25196792D02*
X183634393Y-25226989D01*
X115514103Y-32832728D02*
X115471397Y-32856921D01*
X116000000Y-126700000D02*
X115998795Y-126749068D01*
X164403269Y-84010869D02*
X164451982Y-84004860D01*
X133257107Y-25292892D02*
X133290951Y-25328440D01*
X180907095Y-30260382D02*
X180900746Y-30235862D01*
X115831469Y-68255570D02*
X115803207Y-68295699D01*
X116144929Y-106018046D02*
X116158327Y-106039541D01*
X120012664Y-47500320D02*
X120025020Y-47500634D01*
X113010823Y-32121731D02*
X113004815Y-32073018D01*
X163626120Y-27382684D02*
X163608455Y-27336890D01*
X183634393Y-25226989D02*
X183671559Y-25259048D01*
X116002245Y-65436719D02*
X116000962Y-65462015D01*
X163692271Y-145514149D02*
X163668078Y-145471443D01*
X116993668Y-64500160D02*
X116962015Y-64500962D01*
X116191442Y-141053680D02*
X116238427Y-141171303D01*
X113010823Y-102828268D02*
X113019214Y-102779908D01*
X120992081Y-122622782D02*
X120984855Y-122671278D01*
X115803207Y-68295699D02*
X115773010Y-68334393D01*
X118211480Y-28104005D02*
X118085491Y-28140649D01*
X116315363Y-88603150D02*
X116303255Y-88625846D01*
X120869635Y-48007169D02*
X120892761Y-48050404D01*
X113029968Y-126942980D02*
X113019214Y-126895091D01*
X133431921Y-27471397D02*
X133407728Y-27514103D01*
X183980785Y-95995091D02*
X183970031Y-96042980D01*
X113572444Y-137796010D02*
X113617315Y-137776120D01*
X113259048Y-32646559D02*
X113226989Y-32609393D01*
X133506940Y-25709714D02*
X133520031Y-25757019D01*
X113004815Y-138601981D02*
X113010823Y-138553268D01*
X180469261Y-29296773D02*
X180454792Y-29275984D01*
X113029968Y-32217980D02*
X113019214Y-32170091D01*
X163809048Y-25328440D02*
X163842892Y-25292892D01*
X116503780Y-106367920D02*
X116525926Y-106380212D01*
X120756845Y-47847081D02*
X120787954Y-47884980D01*
X164035897Y-84142316D02*
X164078603Y-84118123D01*
X118383763Y-83935726D02*
X118408574Y-83940824D01*
X183195091Y-131819214D02*
X183242980Y-131829968D01*
X132932684Y-143076134D02*
X132977556Y-143096024D01*
X113118078Y-102503602D02*
X113142271Y-102460896D01*
X115382684Y-43051120D02*
X115427555Y-43071010D01*
X117767842Y-28260298D02*
X117648986Y-28315880D01*
X169545624Y-142790227D02*
X169551648Y-142797972D01*
X116688649Y-47450041D02*
X116712816Y-47457624D01*
X180182871Y-28942499D02*
X180165420Y-28924141D01*
X180967005Y-89558283D02*
X180963170Y-89533247D01*
X180865902Y-140885909D02*
X180900746Y-140764137D01*
X117296773Y-83469261D02*
X117402530Y-83538961D01*
X113328440Y-68440951D02*
X113292892Y-68407107D01*
X113757019Y-32945031D02*
X113709714Y-32931940D01*
X166340101Y-142578187D02*
X166341572Y-142568486D01*
X183514103Y-131942271D02*
X183555570Y-131968530D01*
X181029968Y-73557019D02*
X181043059Y-73509714D01*
X116447640Y-82575974D02*
X116461038Y-82597469D01*
X133545184Y-143901995D02*
X133548795Y-143950944D01*
X120689246Y-123223916D02*
X120652918Y-123256845D01*
X181804908Y-72819214D02*
X181853268Y-72810823D01*
X180616613Y-29533176D02*
X180552359Y-29424025D01*
X183427555Y-131896010D02*
X183471397Y-131918078D01*
X120652918Y-47743154D02*
X120689246Y-47776083D01*
X163579968Y-86242980D02*
X163569214Y-86195091D01*
X163569214Y-86195091D02*
X163560823Y-86146731D01*
X117244619Y-28556150D02*
X117223647Y-28571045D01*
X163746792Y-84404345D02*
X163776989Y-84365651D01*
X115881921Y-32446397D02*
X115857728Y-32489103D01*
X120615019Y-123287954D02*
X120575641Y-123317168D01*
X113804908Y-91955785D02*
X113757019Y-91945031D01*
X113485896Y-32832728D02*
X113444429Y-32806469D01*
X116594132Y-47413668D02*
X116617408Y-47423657D01*
X113010823Y-67846731D02*
X113004815Y-67798018D01*
X116861139Y-47490068D02*
X116886264Y-47493268D01*
X115049068Y-101976204D02*
X115098018Y-101979815D01*
X115427555Y-32878989D02*
X115382684Y-32898879D01*
X133453989Y-86427555D02*
X133431921Y-86471397D01*
X133550000Y-27000000D02*
X133548795Y-27049068D01*
X132696731Y-86989176D02*
X132648018Y-86995184D01*
X181292892Y-132092892D02*
X181328440Y-132059048D01*
X120534879Y-47655582D02*
X120575641Y-47682831D01*
X180985569Y-30709126D02*
X180983007Y-30683928D01*
X120359987Y-106567476D02*
X120405278Y-106586258D01*
X178164579Y-83995187D02*
X178290873Y-83985569D01*
X163554815Y-143902027D02*
X163560823Y-143853314D01*
X181328440Y-96540951D02*
X181292892Y-96507107D01*
X116186734Y-64918520D02*
X116172265Y-64939309D01*
X165885640Y-142997989D02*
X165898676Y-142996962D01*
X183098018Y-37795184D02*
X183049068Y-37798795D01*
X166000852Y-83975235D02*
X166013178Y-83970869D01*
X169561673Y-83810894D02*
X169570166Y-83820837D01*
X181058455Y-37136890D02*
X181043059Y-37090285D01*
X116201726Y-47101894D02*
X116217229Y-47121924D01*
X113259048Y-138028440D02*
X113292892Y-137992892D01*
X120313830Y-106550937D02*
X120359987Y-106567476D01*
X113019214Y-67895091D02*
X113010823Y-67846731D01*
X168689493Y-64529961D02*
X168736793Y-64543049D01*
X116002245Y-105563280D02*
X116004168Y-105588536D01*
X180379825Y-29173893D02*
X180364321Y-29153863D01*
X113010823Y-43828268D02*
X113019214Y-43779908D01*
X167252518Y-123504813D02*
X167301461Y-123501204D01*
X113404300Y-43171792D02*
X113444429Y-43143530D01*
X163593059Y-143709760D02*
X163608455Y-143663154D01*
X116003529Y-140139283D02*
X116004812Y-140164579D01*
X132886891Y-84058469D02*
X132932684Y-84076134D01*
X169080871Y-64726936D02*
X169118035Y-64758988D01*
X184000000Y-132799999D02*
X184000000Y-145000046D01*
X183857728Y-132285896D02*
X183881921Y-132328602D01*
X116029618Y-89359001D02*
X116002660Y-89487335D01*
X179724015Y-28545207D02*
X179703226Y-28530738D01*
X116066947Y-65140930D02*
X116058150Y-65164682D01*
X166547395Y-123904192D02*
X166577592Y-123865507D01*
X179029928Y-87182646D02*
X178910076Y-87141679D01*
X113404300Y-78896792D02*
X113444429Y-78868530D01*
X115989176Y-43828268D02*
X115995184Y-43876981D01*
X183923879Y-37182684D02*
X183903989Y-37227555D01*
X115989176Y-126846731D02*
X115980785Y-126895091D01*
X116132080Y-46996219D02*
X116144929Y-47018046D01*
X180687548Y-141332411D02*
X180698702Y-141309671D01*
X116380082Y-29489012D02*
X116315363Y-29603150D01*
X179171303Y-28238427D02*
X179053680Y-28191442D01*
X113168530Y-127255570D02*
X113142271Y-127214103D01*
X113043059Y-32265285D02*
X113029968Y-32217980D01*
X163593059Y-84709760D02*
X163608455Y-84663154D01*
X115671559Y-68440951D02*
X115634393Y-68473010D01*
X163579968Y-145243026D02*
X163569214Y-145195137D01*
X179171303Y-83761572D02*
X179194578Y-83751584D01*
X180900746Y-89235862D02*
X180865902Y-89114090D01*
X178006442Y-142999836D02*
X178139283Y-142996470D01*
X115514103Y-91832728D02*
X115471397Y-91856921D01*
X133506940Y-84709728D02*
X133520031Y-84757032D01*
X181029968Y-37042980D02*
X181019214Y-36995091D01*
X180761572Y-88828696D02*
X180751584Y-88805421D01*
X113196792Y-127295699D02*
X113168530Y-127255570D01*
X133353207Y-27595699D02*
X133323010Y-27634393D01*
X181663109Y-72858455D02*
X181709714Y-72843059D01*
X113709714Y-32931940D02*
X113663109Y-32916544D01*
X181226989Y-96434393D02*
X181196792Y-96395699D01*
X115998795Y-138650931D02*
X116000000Y-138699999D01*
X164259715Y-84043105D02*
X164307019Y-84030014D01*
X115382684Y-68623879D02*
X115336890Y-68641544D01*
X115831469Y-91530570D02*
X115803207Y-91570699D01*
X115995184Y-67798018D02*
X115989176Y-67846731D01*
X183831469Y-37355570D02*
X183803207Y-37395699D01*
X120492830Y-64369635D02*
X120449595Y-64392761D01*
X116548377Y-123608060D02*
X116525926Y-123619787D01*
X166519131Y-123944311D02*
X166547395Y-123904192D01*
X120949062Y-122813830D02*
X120932523Y-122859987D01*
X133184393Y-145773056D02*
X133145699Y-145803253D01*
X116997684Y-28749699D02*
X116978353Y-28766670D01*
X183923879Y-132417315D02*
X183941544Y-132463109D01*
X117402530Y-142538961D02*
X117424025Y-142552359D01*
X169645916Y-83892715D02*
X169667079Y-83908090D01*
X180687548Y-88667588D02*
X180628905Y-88555322D01*
X169350472Y-124072321D02*
X169370366Y-124117184D01*
X167013678Y-123558439D02*
X167060278Y-123543047D01*
X118993569Y-28000165D02*
X118855971Y-28003706D01*
X115903989Y-138272444D02*
X115923879Y-138317315D01*
X180469261Y-82703226D02*
X180538961Y-82597469D01*
X113485896Y-25142271D02*
X113528602Y-25118078D01*
X166250680Y-142793703D02*
X166258086Y-142782926D01*
X115634393Y-32748010D02*
X115595699Y-32778207D01*
X169463430Y-83609887D02*
X169471049Y-83638315D01*
X113142271Y-145514149D02*
X113118078Y-145471443D01*
X163569214Y-27195091D02*
X163560823Y-27146731D01*
X115427555Y-137796010D02*
X115471397Y-137818078D01*
X169509378Y-142731947D02*
X169525732Y-142760268D01*
X132932684Y-145923925D02*
X132886890Y-145941590D01*
X183980785Y-36995091D02*
X183970031Y-37042980D01*
X169689005Y-83922328D02*
X169711659Y-83935406D01*
X115595699Y-43171792D02*
X115634393Y-43201989D01*
X113365606Y-145773056D02*
X113328440Y-145740997D01*
X113001204Y-43925931D02*
X113004815Y-43876981D01*
X183242980Y-131829968D02*
X183290285Y-131843059D01*
X116786360Y-123523333D02*
X116761687Y-123529059D01*
X120652918Y-64256845D02*
X120615019Y-64287954D01*
X116233236Y-123858445D02*
X116217229Y-123878075D01*
X120892761Y-48050404D02*
X120913741Y-48094721D01*
X164451982Y-143004860D02*
X164500932Y-143001250D01*
X179826106Y-87620174D02*
X179724015Y-87545207D01*
X183427555Y-145904035D02*
X183382684Y-145923925D01*
X180900746Y-140764137D02*
X180907095Y-140739617D01*
X183980785Y-73604908D02*
X183989176Y-73653268D01*
X169497425Y-142708679D02*
X169500242Y-142714585D01*
X113058455Y-68036890D02*
X113043059Y-67990285D01*
X116238427Y-141171303D02*
X116248415Y-141194578D01*
X115941544Y-91311890D02*
X115923879Y-91357684D01*
X120999365Y-63525020D02*
X120996922Y-63573990D01*
X169907537Y-83994221D02*
X169937038Y-83995767D01*
X163994429Y-84168575D02*
X164035897Y-84142316D01*
X166274114Y-83758243D02*
X166279295Y-83749911D01*
X117648986Y-28315880D02*
X117625973Y-28327373D01*
X180616613Y-82466823D02*
X180628905Y-82444677D01*
X133257107Y-84292906D02*
X133290951Y-84328454D01*
X181142271Y-96314103D02*
X181118078Y-96271397D01*
X163560823Y-84853314D02*
X163569214Y-84804954D01*
X113029968Y-67942980D02*
X113019214Y-67895091D01*
X169504640Y-83723356D02*
X169509378Y-83731947D01*
X120992081Y-48377217D02*
X120996922Y-48426009D01*
X113804908Y-42994214D02*
X113853268Y-42985823D01*
X178139283Y-142996470D02*
X178164579Y-142995187D01*
X116861139Y-64509931D02*
X116836102Y-64513766D01*
X117487741Y-28401656D02*
X117375225Y-28469156D01*
X181663109Y-96741544D02*
X181617315Y-96723879D01*
X115970031Y-126942980D02*
X115956940Y-126990285D01*
X166324763Y-83645101D02*
X166326622Y-83638827D01*
X183671559Y-37540951D02*
X183634393Y-37573010D01*
X115427555Y-78796010D02*
X115471397Y-78818078D01*
X133064103Y-84142285D02*
X133105571Y-84168544D01*
X113010823Y-145146777D02*
X113004815Y-145098064D01*
X181617315Y-96723879D02*
X181572444Y-96703989D01*
X115970031Y-102732019D02*
X115980785Y-102779908D01*
X178466753Y-83963170D02*
X178591425Y-83940824D01*
X166754897Y-64696737D02*
X166795022Y-64668483D01*
X116942499Y-142182871D02*
X117036482Y-142267781D01*
X116811171Y-47481764D02*
X116836102Y-47486233D01*
X163878441Y-84259093D02*
X163915606Y-84227034D01*
X113528602Y-102093078D02*
X113572444Y-102071010D01*
X115995184Y-32073018D02*
X115989176Y-32121731D01*
X113709714Y-127656940D02*
X113663109Y-127641544D01*
X163551204Y-86049068D02*
X163550000Y-86000000D01*
X113444429Y-25168530D02*
X113485896Y-25142271D01*
X118855971Y-87003706D02*
X118830281Y-87005030D01*
X166037592Y-142961496D02*
X166061488Y-142950855D01*
X132599068Y-27998795D02*
X132550000Y-28000000D01*
X165898676Y-83996962D02*
X165911641Y-83995254D01*
X113528602Y-43093078D02*
X113572444Y-43071010D01*
X180761572Y-29828696D02*
X180751584Y-29805421D01*
X115857728Y-32489103D02*
X115831469Y-32530570D01*
X116058150Y-65164682D02*
X116049958Y-65188649D01*
X178164579Y-142995187D02*
X178290873Y-142985569D01*
X180751584Y-82194578D02*
X180761572Y-82171303D01*
X116836102Y-64513766D02*
X116811171Y-64518235D01*
X115290285Y-43018059D02*
X115336890Y-43033455D01*
X116124807Y-30033185D02*
X116116332Y-30057473D01*
X183941544Y-132463109D02*
X183956940Y-132509714D01*
X180983007Y-140316071D02*
X180985569Y-140290873D01*
X115098018Y-127695184D02*
X115049068Y-127698795D01*
X183831469Y-73244429D02*
X183857728Y-73285896D01*
X113259048Y-91646559D02*
X113226989Y-91609393D01*
X113058455Y-91311890D02*
X113043059Y-91265285D01*
X179703226Y-87530738D02*
X179597469Y-87461038D01*
X116594132Y-106413668D02*
X116617408Y-106423657D01*
X181572444Y-72896010D02*
X181617315Y-72876120D01*
X133105570Y-86831469D02*
X133064103Y-86857728D01*
X163915606Y-27773010D02*
X163878440Y-27740951D01*
X163994429Y-86831469D02*
X163954300Y-86803207D01*
X116233236Y-64858445D02*
X116217229Y-64878075D01*
X179575974Y-28447640D02*
X179466823Y-28383386D01*
X181142271Y-73285896D02*
X181168530Y-73244429D01*
X169858969Y-142987568D02*
X169884805Y-142991660D01*
X115707107Y-91682107D02*
X115671559Y-91715951D01*
X113853268Y-127689176D02*
X113804908Y-127680785D01*
X166147972Y-142898351D02*
X166170843Y-142879828D01*
X180817353Y-29970071D02*
X180808557Y-29946319D01*
X116029059Y-105738312D02*
X116035407Y-105762832D01*
X177993666Y-28000000D02*
X164549999Y-28000000D01*
X116217229Y-106121924D02*
X116233236Y-106141554D01*
X169551648Y-142797972D02*
X169570171Y-142820843D01*
X179963517Y-28732218D02*
X179944299Y-28715719D01*
X120615019Y-47712045D02*
X120652918Y-47743154D01*
X178739617Y-87092904D02*
X178616236Y-87064273D01*
X116266714Y-64820433D02*
X116249734Y-64839227D01*
X183773010Y-96434393D02*
X183740951Y-96471559D01*
X120975260Y-48280637D02*
X120984855Y-48328721D01*
X116771942Y-87967596D02*
X116754456Y-87986463D01*
X169808136Y-83975365D02*
X169820674Y-83979079D01*
X166547395Y-64904192D02*
X166577592Y-64865507D01*
X183923879Y-25617315D02*
X183941544Y-25663109D01*
X120171278Y-123484855D02*
X120122782Y-123492081D01*
X116099253Y-140764137D02*
X116134097Y-140885909D01*
X116013766Y-124336102D02*
X116009931Y-124361139D01*
X183000000Y-72800000D02*
X183049068Y-72801204D01*
X163915606Y-145773056D02*
X163878440Y-145740997D01*
X183773010Y-25365606D02*
X183803207Y-25404300D01*
X115881921Y-79228602D02*
X115903989Y-79272444D01*
X133290951Y-145671605D02*
X133257107Y-145707153D01*
X115998795Y-126749068D02*
X115995184Y-126798018D01*
X132977555Y-145904035D02*
X132932684Y-145923925D01*
X169080871Y-123726936D02*
X169118035Y-123758988D01*
X166643495Y-123792812D02*
X166679042Y-123758977D01*
X116172265Y-47060690D02*
X116186734Y-47081479D01*
X133407728Y-27514103D02*
X133381469Y-27555570D01*
X132977556Y-143096024D02*
X133021397Y-143118092D01*
X180379825Y-88173893D02*
X180364321Y-88153863D01*
X116036829Y-81466753D02*
X116059175Y-81591425D01*
X113058455Y-138363109D02*
X113076120Y-138317315D01*
X166298994Y-83712236D02*
X166303043Y-83703299D01*
X120984855Y-63671278D02*
X120975260Y-63719362D01*
X183903989Y-132372444D02*
X183923879Y-132417315D01*
X169538336Y-83779359D02*
X169553712Y-83800520D01*
X181004815Y-132701981D02*
X181010823Y-132653268D01*
X169187425Y-123828366D02*
X169219484Y-123865523D01*
X183471397Y-72918078D02*
X183514103Y-72942271D01*
X116066947Y-105859069D02*
X116076342Y-105882591D01*
X115857728Y-91489103D02*
X115831469Y-91530570D01*
X164259714Y-145956986D02*
X164213109Y-145941590D01*
X133021397Y-84118092D02*
X133064103Y-84142285D01*
X117487741Y-87401656D02*
X117375225Y-87469156D01*
X166923024Y-64595983D02*
X166967891Y-64576098D01*
X115989176Y-79553268D02*
X115995184Y-79601981D01*
X180963170Y-30533246D02*
X180940824Y-30408574D01*
X116000000Y-43974999D02*
X116000000Y-46493666D01*
X169910805Y-142994393D02*
X169937038Y-142995767D01*
X178316071Y-142983007D02*
X178441716Y-142967005D01*
X163550000Y-85000044D02*
X163551204Y-84950977D01*
X117648986Y-87315880D02*
X117625973Y-87327373D01*
X180628905Y-82444677D02*
X180687548Y-82332411D01*
X179963517Y-83267781D02*
X180057500Y-83182871D01*
X113444429Y-32806469D02*
X113404300Y-32778207D01*
X113757019Y-127670031D02*
X113709714Y-127656940D01*
X113004815Y-126798018D02*
X113001204Y-126749068D01*
X181168530Y-96355570D02*
X181142271Y-96314103D01*
X165959951Y-142986818D02*
X165966313Y-142985290D01*
X113168530Y-138144429D02*
X113196792Y-138104300D01*
X116035407Y-46762832D02*
X116042375Y-46787183D01*
X116284165Y-106197924D02*
X116302075Y-106215834D01*
X116545207Y-141724015D02*
X116620174Y-141826106D01*
X118211480Y-87104005D02*
X118085491Y-87140649D01*
X164550000Y-143000045D02*
X165833333Y-143000046D01*
X116640930Y-106433052D02*
X116664682Y-106441849D01*
X119987331Y-106500000D02*
X120012664Y-106500320D01*
X133506940Y-86290285D02*
X133491544Y-86336890D01*
X116042375Y-46787183D02*
X116049958Y-46811350D01*
X115980785Y-67895091D02*
X115970031Y-67942980D01*
X169277945Y-64944330D02*
X169304206Y-64985790D01*
X113617315Y-102051120D02*
X113663109Y-102033455D01*
X181709714Y-131843059D02*
X181757019Y-131829968D01*
X113901981Y-91970184D02*
X113853268Y-91964176D01*
X164213110Y-84058501D02*
X164259715Y-84043105D01*
X117625973Y-87327373D02*
X117510133Y-87388995D01*
X181999999Y-37800000D02*
X181950931Y-37798795D01*
X169770880Y-142963058D02*
X169780063Y-142966514D01*
X116266714Y-123820433D02*
X116249734Y-123839227D01*
X113196792Y-25404300D02*
X113226989Y-25365606D01*
X118835420Y-83995187D02*
X118860716Y-83996470D01*
X163692271Y-27514103D02*
X163668078Y-27471397D01*
X113528602Y-137818078D02*
X113572444Y-137796010D01*
X183803207Y-73204300D02*
X183831469Y-73244429D01*
X164500931Y-25001204D02*
X164549999Y-25000000D01*
X118993668Y-83999839D02*
X119006333Y-84000000D01*
X113757019Y-102004968D02*
X113804908Y-101994214D01*
X116172265Y-106060690D02*
X116186734Y-106081479D01*
X115671559Y-127440951D02*
X115634393Y-127473010D01*
X166170837Y-83879833D02*
X166190275Y-83862329D01*
X188999999Y-20012272D02*
X188999705Y-20000295D01*
X116141679Y-81910076D02*
X116182646Y-82029928D01*
X115740951Y-68371559D02*
X115707107Y-68407107D01*
X113019214Y-126895091D02*
X113010823Y-126846731D01*
X178441716Y-87032994D02*
X178316071Y-87016992D01*
X119006432Y-87000000D02*
X118993569Y-87000165D01*
X133520031Y-25757019D02*
X133530785Y-25804908D01*
X163776989Y-84365651D02*
X163809048Y-84328486D01*
X115242980Y-137729968D02*
X115290285Y-137743059D01*
X164213109Y-25058455D02*
X164259714Y-25043059D01*
X117667588Y-83687548D02*
X117690328Y-83698702D01*
X113043059Y-79409714D02*
X113058455Y-79363109D01*
X183923879Y-96182684D02*
X183903989Y-96227555D01*
X113168530Y-145555616D02*
X113142271Y-145514149D01*
X181365606Y-73026989D02*
X181404300Y-72996792D01*
X113365606Y-68473010D02*
X113328440Y-68440951D01*
X116076309Y-30182429D02*
X116069095Y-30207121D01*
X169884805Y-142991660D02*
X169897769Y-142993367D01*
X113029968Y-79457019D02*
X113043059Y-79409714D01*
X181757019Y-37770031D02*
X181709714Y-37756940D01*
X180996470Y-140139283D02*
X180999839Y-140006331D01*
X116042375Y-124212816D02*
X116035407Y-124237167D01*
X133145700Y-84196806D02*
X133184394Y-84227003D01*
X169530928Y-83768583D02*
X169538336Y-83779359D01*
X166140227Y-142904375D02*
X166147972Y-142898351D01*
X120949062Y-107186169D02*
X120963319Y-107233082D01*
X117912974Y-28200610D02*
X117791416Y-28250004D01*
X183803207Y-132204300D02*
X183831469Y-132244429D01*
X163954300Y-145803253D02*
X163915606Y-145773056D01*
X115336890Y-127641544D02*
X115290285Y-127656940D01*
X116002245Y-124436719D02*
X116000962Y-124462015D01*
X120932523Y-63859987D02*
X120913741Y-63905278D01*
X115989176Y-67846731D02*
X115980785Y-67895091D01*
X116836102Y-47486233D02*
X116861139Y-47490068D01*
X115000000Y-32975000D02*
X113999999Y-32975000D01*
X115000000Y-78700000D02*
X115049068Y-78701204D01*
X120996922Y-122573990D02*
X120992081Y-122622782D01*
X120963319Y-107233082D02*
X120975260Y-107280637D01*
X115471397Y-43093078D02*
X115514103Y-43117271D01*
X166369776Y-124304714D02*
X166380537Y-124256833D01*
X179963517Y-142267781D02*
X180057500Y-142182871D01*
X169370366Y-65117184D02*
X169388035Y-65162970D01*
X181404300Y-37603207D02*
X181365606Y-37573010D01*
X113019214Y-43779908D02*
X113029968Y-43732019D01*
X113004815Y-67798018D02*
X113001204Y-67749068D01*
X116032994Y-81441716D02*
X116036829Y-81466752D01*
X133545184Y-145098064D02*
X133539176Y-145146777D01*
X164500931Y-27998795D02*
X164451981Y-27995184D01*
X166345764Y-142513015D02*
X166346449Y-142486966D01*
X118830281Y-28005030D02*
X118699463Y-28015148D01*
X116172265Y-64939309D02*
X116158327Y-64960458D01*
X113404300Y-25196792D02*
X113444429Y-25168530D01*
X169606158Y-83858761D02*
X169625597Y-83876263D01*
X178885909Y-87134097D02*
X178764137Y-87099253D01*
X113328440Y-91715951D02*
X113292892Y-91682107D01*
X164549999Y-146000046D02*
X164500931Y-145998841D01*
X113043059Y-138409714D02*
X113058455Y-138363109D01*
X167301461Y-123501204D02*
X167350521Y-123500000D01*
X116018235Y-46688828D02*
X116023333Y-46713638D01*
X163646010Y-145427601D02*
X163626120Y-145382730D01*
X180552359Y-141575974D02*
X180616613Y-141466823D01*
X164122444Y-25096010D02*
X164167315Y-25076120D01*
X180284280Y-88055700D02*
X180267781Y-88036482D01*
X163668078Y-86471397D02*
X163646010Y-86427555D01*
X169897769Y-142993367D02*
X169910805Y-142994393D01*
X132696731Y-25010823D02*
X132745091Y-25019214D01*
X166190275Y-83862329D02*
X166199760Y-83853327D01*
X181259048Y-96471559D02*
X181226989Y-96434393D01*
X113001204Y-67749068D02*
X113000000Y-67700000D01*
X163560823Y-145146777D02*
X163554815Y-145098064D01*
X113043059Y-145290331D02*
X113029968Y-145243026D01*
X163668078Y-27471397D02*
X163646010Y-27427555D01*
X113950931Y-101976204D02*
X113999999Y-101975000D01*
X120999365Y-48474979D02*
X120999679Y-48487335D01*
X116936719Y-123502245D02*
X116911463Y-123504168D01*
X169578664Y-142830786D02*
X169587665Y-142840270D01*
X113757019Y-78729968D02*
X113804908Y-78719214D01*
X133105570Y-25168530D02*
X133145699Y-25196792D01*
X116737167Y-64535407D02*
X116712816Y-64542375D01*
X113043059Y-102684714D02*
X113058455Y-102638109D01*
X181444429Y-96631469D02*
X181404300Y-96603207D01*
X118709126Y-142985569D02*
X118835420Y-142995187D01*
X180165420Y-87924141D02*
X180075858Y-87834579D01*
X133491544Y-86336890D02*
X133473879Y-86382684D01*
X169625597Y-83876263D02*
X169635541Y-83884755D01*
X113709714Y-43018059D02*
X113757019Y-43004968D01*
X120963319Y-48233082D02*
X120975260Y-48280637D01*
X116000000Y-46493666D02*
X116000160Y-46506331D01*
X133530785Y-25804908D02*
X133539176Y-25853268D01*
X120963319Y-122766917D02*
X120949062Y-122813830D01*
X163608455Y-27336890D02*
X163593059Y-27290285D01*
X118533247Y-83963170D02*
X118558283Y-83967005D01*
X165911641Y-83995254D02*
X165937476Y-83991160D01*
X183998795Y-25950931D02*
X184000000Y-25999999D01*
X117791416Y-28250004D02*
X117767842Y-28260298D01*
X113096010Y-145427601D02*
X113076120Y-145382730D01*
X113058455Y-79363109D02*
X113076120Y-79317315D01*
X168874049Y-64595987D02*
X168917886Y-64618050D01*
X116620174Y-82826106D02*
X116635678Y-82846136D01*
X183427555Y-25096010D02*
X183471397Y-25118078D01*
X169536202Y-142776860D02*
X169539909Y-142782252D01*
X113901981Y-25004815D02*
X113950931Y-25001204D01*
X133539176Y-27146731D02*
X133530785Y-27195091D01*
X116217229Y-64878075D02*
X116201726Y-64898105D01*
X163550000Y-86000000D02*
X163550000Y-85000044D01*
X183427555Y-37703989D02*
X183382684Y-37723879D01*
X169795543Y-142971791D02*
X169804968Y-142974516D01*
X116116332Y-89057473D02*
X116076309Y-89182429D01*
X120219362Y-123475260D02*
X120171278Y-123484855D01*
X115049068Y-127698795D02*
X115000000Y-127700000D01*
X113617315Y-32898879D02*
X113572444Y-32878989D01*
X180454792Y-29275984D02*
X180379825Y-29173893D01*
X116004812Y-81164579D02*
X116014430Y-81290873D01*
X116962015Y-106499037D02*
X116993668Y-106499839D01*
X180267781Y-82963517D02*
X180284280Y-82944299D01*
X183514103Y-37657728D02*
X183471397Y-37681921D01*
X113168530Y-91530570D02*
X113142271Y-91489103D01*
X115903989Y-102547444D02*
X115923879Y-102592315D01*
X113000000Y-43974999D02*
X113001204Y-43925931D01*
X132932684Y-86923879D02*
X132886890Y-86941544D01*
X113142271Y-43460896D02*
X113168530Y-43419429D01*
X132932684Y-27923879D02*
X132886890Y-27941544D01*
X166258086Y-142782926D02*
X166272332Y-142760988D01*
X116712816Y-106457624D02*
X116737167Y-106464592D01*
X169455088Y-142564903D02*
X169456306Y-142574638D01*
X132550000Y-146000046D02*
X113999999Y-146000046D01*
X120996922Y-63573990D02*
X120992081Y-63622782D01*
X115903989Y-32402555D02*
X115881921Y-32446397D01*
X166321793Y-142654452D02*
X166324763Y-142645101D01*
X132745091Y-27980785D02*
X132696731Y-27989176D01*
X120787954Y-106884980D02*
X120817168Y-106924358D01*
X166331451Y-83619811D02*
X166338250Y-83587822D01*
X115995184Y-102876981D02*
X115998795Y-102925931D01*
X115049068Y-68698795D02*
X115000000Y-68700000D01*
X179597469Y-28461038D02*
X179575974Y-28447640D01*
X178164579Y-87004812D02*
X178139283Y-87003529D01*
X116006731Y-105613735D02*
X116009931Y-105638860D01*
X116439309Y-47327734D02*
X116460458Y-47341672D01*
X181328440Y-132059048D02*
X181365606Y-132026989D01*
X120449595Y-123392761D02*
X120405278Y-123413741D01*
X113572444Y-25096010D02*
X113617315Y-25076120D01*
X115923879Y-43592315D02*
X115941544Y-43638109D01*
X133453989Y-27427555D02*
X133431921Y-27471397D01*
X163668078Y-143528648D02*
X163692271Y-143485942D01*
X120073990Y-47503077D02*
X120122782Y-47507918D01*
X183881921Y-132328602D02*
X183903989Y-132372444D01*
X113076120Y-32357684D02*
X113058455Y-32311890D01*
X168544548Y-123504814D02*
X168593255Y-123510820D01*
X117036482Y-142267781D02*
X117055700Y-142284280D01*
X120534879Y-64344417D02*
X120492830Y-64369635D01*
X181001204Y-132750931D02*
X181004815Y-132701981D01*
X181029968Y-96042980D02*
X181019214Y-95995091D01*
X113004815Y-79601981D02*
X113010823Y-79553268D01*
X116688649Y-106450041D02*
X116712816Y-106457624D01*
X180983007Y-89683928D02*
X180967005Y-89558283D01*
X163579968Y-27242980D02*
X163569214Y-27195091D01*
X113853268Y-32964176D02*
X113804908Y-32955785D01*
X163878440Y-27740951D02*
X163842892Y-27707107D01*
X169474764Y-142650852D02*
X169479130Y-142663178D01*
X120359987Y-64432523D02*
X120313830Y-64449062D01*
X115427555Y-127603989D02*
X115382684Y-127623879D01*
X178290873Y-28014430D02*
X178164579Y-28004812D01*
X116478223Y-88334980D02*
X116463847Y-88356312D01*
X113365606Y-25226989D02*
X113404300Y-25196792D01*
X163809048Y-86671559D02*
X163776989Y-86634393D01*
X117533176Y-83616613D02*
X117555322Y-83628905D01*
X132550001Y-84000013D02*
X132599069Y-84001218D01*
X119987331Y-47500000D02*
X120012664Y-47500320D01*
X169897751Y-83993516D02*
X169907537Y-83994221D01*
X113444429Y-127531469D02*
X113404300Y-127503207D01*
X116000000Y-79699999D02*
X116000000Y-80993666D01*
X116249734Y-64839227D02*
X116233236Y-64858445D01*
X163994429Y-143168575D02*
X164035897Y-143142316D01*
X180940824Y-140591425D02*
X180963170Y-140466753D01*
X115514103Y-127557728D02*
X115471397Y-127581921D01*
X120869635Y-122992830D02*
X120844417Y-123034879D01*
X169304206Y-64985790D02*
X169328401Y-65028487D01*
X169587665Y-142840270D02*
X169606163Y-142858766D01*
X133506940Y-27290285D02*
X133491544Y-27336890D01*
X116569781Y-29207532D02*
X116554327Y-29228096D01*
X166393635Y-65209538D02*
X166409038Y-65162942D01*
X120975260Y-107280637D02*
X120984855Y-107328721D01*
X168641609Y-64519210D02*
X168689493Y-64529961D01*
X113365606Y-43201989D02*
X113404300Y-43171792D01*
X166351738Y-124450712D02*
X166355358Y-124401770D01*
X116418520Y-64686734D02*
X116398105Y-64701726D01*
X118114090Y-142865902D02*
X118235862Y-142900746D01*
X116571117Y-123596906D02*
X116548377Y-123608060D01*
X166118667Y-142919195D02*
X166126860Y-142913797D01*
X180940824Y-81591425D02*
X180963170Y-81466753D01*
X116460458Y-106341672D02*
X116481953Y-106355070D01*
X113663109Y-145941590D02*
X113617315Y-145923925D01*
X183242980Y-96770031D02*
X183195091Y-96780785D01*
X115831469Y-138144429D02*
X115857728Y-138185896D01*
X169427294Y-65304746D02*
X169435693Y-65353098D01*
X180907095Y-140739617D02*
X180935726Y-140616236D01*
X169833389Y-83982131D02*
X169862177Y-83988250D01*
X180995187Y-30835420D02*
X180985569Y-30709126D01*
X116134097Y-81885909D02*
X116141679Y-81910076D01*
X169449951Y-83489926D02*
X169450124Y-83502965D01*
X178139283Y-28003529D02*
X178006331Y-28000160D01*
X115857728Y-68214103D02*
X115831469Y-68255570D01*
X116108060Y-65048377D02*
X116096906Y-65071117D01*
X116463847Y-29356312D02*
X116393342Y-29466969D01*
X117353514Y-87482952D02*
X117244619Y-87556150D01*
X113572444Y-102071010D02*
X113617315Y-102051120D01*
X118699463Y-87015148D02*
X118673875Y-87017791D01*
X183903989Y-96227555D02*
X183881921Y-96271397D01*
X116059175Y-140591425D02*
X116064273Y-140616236D01*
X180616613Y-88533176D02*
X180552359Y-88424025D01*
X115995184Y-79601981D02*
X115998795Y-79650931D01*
X113328440Y-102234048D02*
X113365606Y-102201989D01*
X120996922Y-48426009D02*
X120999365Y-48474979D01*
X115336890Y-43033455D02*
X115382684Y-43051120D01*
X120892761Y-122949595D02*
X120869635Y-122992830D01*
X116000000Y-31975000D02*
X115998795Y-32024068D01*
X113804908Y-68680785D02*
X113757019Y-68670031D01*
X181901981Y-96795184D02*
X181853268Y-96789176D01*
X113096010Y-138272444D02*
X113118078Y-138228602D01*
X183514103Y-145857774D02*
X183471397Y-145881967D01*
X179444677Y-87371094D02*
X179332411Y-87312451D01*
X169118035Y-123758988D02*
X169153581Y-123792825D01*
X133548795Y-143950944D02*
X133550000Y-144000012D01*
X116503780Y-123632080D02*
X116481953Y-123644929D01*
X163878440Y-86740951D02*
X163842892Y-86707107D01*
X133064103Y-143142285D02*
X133105571Y-143168544D01*
X133184394Y-143227003D02*
X133221559Y-143259062D01*
X133506940Y-145290331D02*
X133491544Y-145336936D01*
X178164579Y-28004812D02*
X178139283Y-28003529D01*
X169427294Y-124304746D02*
X169435693Y-124353098D01*
X115671559Y-137959048D02*
X115707107Y-137992892D01*
X113404300Y-32778207D02*
X113365606Y-32748010D01*
X115336890Y-91916544D02*
X115290285Y-91931940D01*
X132696732Y-84010837D02*
X132745091Y-84019228D01*
X116035407Y-65237167D02*
X116029059Y-65261687D01*
X163718530Y-84444474D02*
X163746792Y-84404345D01*
X133550000Y-85000012D02*
X133550000Y-86000000D01*
X115514103Y-43117271D02*
X115555570Y-43143530D01*
X165950367Y-142988922D02*
X165959951Y-142986818D01*
X113118078Y-145471443D02*
X113096010Y-145427601D01*
X115146731Y-137710823D02*
X115195091Y-137719214D01*
X120723916Y-64189246D02*
X120689246Y-64223916D01*
X183514103Y-72942271D02*
X183555570Y-72968530D01*
X116651282Y-88104704D02*
X116569781Y-88207532D01*
X115382684Y-137776120D02*
X115427555Y-137796010D01*
X168917886Y-64618050D02*
X168960589Y-64642237D01*
X179053680Y-28191442D02*
X179029928Y-28182646D01*
X120787954Y-123115019D02*
X120756845Y-123152918D01*
X166967891Y-123576098D02*
X167013678Y-123558439D01*
X169459098Y-83590752D02*
X169461076Y-83600362D01*
X183514103Y-96657728D02*
X183471397Y-96681921D01*
X183995184Y-36898018D02*
X183989176Y-36946731D01*
X113528602Y-127581921D02*
X113485896Y-127557728D01*
X180967005Y-81441716D02*
X180983007Y-81316071D01*
X116009931Y-124361139D02*
X116006731Y-124386264D01*
X116771942Y-28967596D02*
X116754456Y-28986463D01*
X168736793Y-123543049D02*
X168783393Y-123558441D01*
X116664682Y-64558150D02*
X116640930Y-64566947D01*
X113001204Y-32024068D02*
X113000000Y-31975000D01*
X116460458Y-47341672D02*
X116481953Y-47355070D01*
X113709714Y-25043059D02*
X113757019Y-25029968D01*
X163878440Y-145740997D02*
X163842892Y-145707153D01*
X120913741Y-48094721D02*
X120932523Y-48140012D01*
X183956940Y-96090285D02*
X183941544Y-96136890D01*
X178616236Y-28064273D02*
X178591425Y-28059175D01*
X115941544Y-127036890D02*
X115923879Y-127082684D01*
X113485896Y-43117271D02*
X113528602Y-43093078D01*
X184000000Y-25999999D02*
X184000000Y-36800000D01*
X116640930Y-64566947D02*
X116617408Y-64576342D01*
X169525732Y-142760268D02*
X169530804Y-142768667D01*
X163550000Y-27000000D02*
X163550000Y-25999999D01*
X121000000Y-63487331D02*
X120999679Y-63512664D01*
X113259048Y-79028440D02*
X113292892Y-78992892D01*
X115773010Y-138065606D02*
X115803207Y-138104300D01*
X116009931Y-105638860D02*
X116013766Y-105663897D01*
X163551204Y-84950977D02*
X163554815Y-84902027D01*
X115956940Y-79409714D02*
X115970031Y-79457019D01*
X133184393Y-25226989D02*
X133221559Y-25259048D01*
X113950931Y-42976204D02*
X113999999Y-42975000D01*
X116009931Y-65361139D02*
X116006731Y-65386264D01*
X166228453Y-83821969D02*
X166234874Y-83814550D01*
X115242980Y-91945031D02*
X115195091Y-91955785D01*
X167350521Y-123500000D02*
X168446542Y-123500000D01*
X132840285Y-86956940D02*
X132792980Y-86970031D01*
X120266917Y-47536680D02*
X120313830Y-47550937D01*
X116049958Y-124188649D02*
X116042375Y-124212816D01*
X120892761Y-107050404D02*
X120913741Y-107094721D01*
X116144929Y-47018046D02*
X116158327Y-47039541D01*
X166340101Y-83578187D02*
X166341572Y-83568486D01*
X117970071Y-83817353D02*
X118089923Y-83858320D01*
X169833396Y-142982133D02*
X169846111Y-142985185D01*
X115098018Y-68695184D02*
X115049068Y-68698795D01*
X113485896Y-68557728D02*
X113444429Y-68531469D01*
X113528602Y-78818078D02*
X113572444Y-78796010D01*
X133381469Y-27555570D02*
X133353207Y-27595699D01*
X169403437Y-124209567D02*
X169416534Y-124256863D01*
X120615019Y-106712045D02*
X120652918Y-106743154D01*
X181259048Y-132128440D02*
X181292892Y-132092892D01*
X113000000Y-126700000D02*
X113000000Y-102974999D01*
X116301297Y-82309671D02*
X116312451Y-82332411D01*
X115290285Y-137743059D02*
X115336890Y-137758455D01*
X163776989Y-25365606D02*
X163809048Y-25328440D01*
X166331451Y-142619811D02*
X166338250Y-142587822D01*
X116086331Y-124094132D02*
X116076342Y-124117408D01*
X169700088Y-142929295D02*
X169708617Y-142934145D01*
X115471397Y-32856921D02*
X115427555Y-32878989D01*
X115336890Y-102033455D02*
X115382684Y-102051120D01*
X181118078Y-96271397D02*
X181096010Y-96227555D01*
X177993666Y-87000000D02*
X164549999Y-87000000D01*
X116320433Y-123766714D02*
X116302075Y-123784165D01*
X164213109Y-145941590D02*
X164167315Y-145923925D01*
X166318457Y-142663679D02*
X166321793Y-142654452D01*
X116171205Y-88910453D02*
X116124807Y-89033185D01*
X166343516Y-83552248D02*
X166344221Y-83542462D01*
X180999839Y-81006331D02*
X180999999Y-80993666D01*
X132550000Y-87000000D02*
X119006432Y-87000000D01*
X181572444Y-37703989D02*
X181528602Y-37681921D01*
X116617408Y-123576342D02*
X116594132Y-123586331D01*
X166118662Y-83919198D02*
X166126712Y-83913587D01*
X166355358Y-124401770D02*
X166361376Y-124353065D01*
X164451982Y-84004860D02*
X164500932Y-84001250D01*
X164451981Y-86995184D02*
X164403268Y-86989176D01*
X133184393Y-27773010D02*
X133145699Y-27803207D01*
X113000000Y-79699999D02*
X113001204Y-79650931D01*
X116811171Y-123518235D02*
X116786361Y-123523333D01*
X166326622Y-142638827D02*
X166329223Y-142629366D01*
X180267781Y-141963517D02*
X180284280Y-141944299D01*
X180687548Y-82332411D02*
X180698702Y-82309671D01*
X133323010Y-27634393D02*
X133290951Y-27671559D01*
X164035896Y-27857728D02*
X163994429Y-27831469D01*
X181000000Y-73799999D02*
X181001204Y-73750931D01*
X113528602Y-32856921D02*
X113485896Y-32832728D01*
X166836486Y-123642231D02*
X166879187Y-123618045D01*
X116217229Y-123878075D02*
X116201726Y-123898105D01*
X115146731Y-91964176D02*
X115098018Y-91970184D01*
X179724015Y-83454792D02*
X179826106Y-83379825D01*
X116002660Y-30487335D02*
X116000334Y-30500034D01*
X168783393Y-64558441D02*
X168829182Y-64576102D01*
X183336890Y-37741544D02*
X183290285Y-37756940D01*
X164122444Y-27903989D02*
X164078602Y-27881921D01*
X113365606Y-32748010D02*
X113328440Y-32715951D01*
X116119787Y-65025926D02*
X116108060Y-65048377D01*
X163915606Y-84227034D02*
X163954300Y-84196837D01*
X115098018Y-91970184D02*
X115049068Y-91973795D01*
X163668078Y-145471443D02*
X163646010Y-145427601D01*
X169489679Y-83690654D02*
X169493375Y-83699742D01*
X113404300Y-68503207D02*
X113365606Y-68473010D01*
X181259048Y-37471559D02*
X181226989Y-37434393D01*
X132550000Y-28000000D02*
X119006432Y-28000000D01*
X164122444Y-143096055D02*
X164167316Y-143076165D01*
X183740951Y-73128440D02*
X183773010Y-73165606D01*
X116460458Y-123658327D02*
X116439309Y-123672265D01*
X113292892Y-43267892D02*
X113328440Y-43234048D01*
X116620174Y-141826106D02*
X116635678Y-141846136D01*
X113004815Y-91073018D02*
X113001204Y-91024068D01*
X113663109Y-25058455D02*
X113709714Y-25043059D01*
X180454792Y-82724015D02*
X180469261Y-82703226D01*
X116000000Y-124506333D02*
X116000000Y-126700000D01*
X120723916Y-47810753D02*
X120756845Y-47847081D01*
X166279164Y-142749838D02*
X166285403Y-142738346D01*
X116000160Y-81006331D02*
X116003529Y-81139283D01*
X116201726Y-106101894D02*
X116217229Y-106121924D01*
X116000000Y-80993666D02*
X116000160Y-81006331D01*
X133453989Y-143572458D02*
X133473879Y-143617329D01*
X169553712Y-83800520D02*
X169561673Y-83810894D01*
X116266714Y-106179566D02*
X116284165Y-106197924D01*
X115595699Y-32778207D02*
X115555570Y-32806469D01*
X166049679Y-83956488D02*
X166061481Y-83950858D01*
X181617315Y-37723879D02*
X181572444Y-37703989D01*
X169711659Y-83935406D02*
X169723151Y-83941646D01*
X116182646Y-141029928D02*
X116191442Y-141053680D01*
X113196792Y-145595745D02*
X113168530Y-145555616D01*
X115881921Y-43503602D02*
X115903989Y-43547444D01*
X180267781Y-88036482D02*
X180182871Y-87942499D01*
X115831469Y-127255570D02*
X115803207Y-127295699D01*
X133353207Y-145595745D02*
X133323010Y-145634439D01*
X133290951Y-86671559D02*
X133257107Y-86707107D01*
X117223647Y-87571045D02*
X117118661Y-87649747D01*
X117937046Y-28191542D02*
X117912974Y-28200610D01*
X165833333Y-84000046D02*
X165859542Y-83999359D01*
X178910076Y-142858320D02*
X179029928Y-142817353D01*
X116834579Y-142075858D02*
X116924141Y-142165420D01*
X113076120Y-127082684D02*
X113058455Y-127036890D01*
X180552359Y-82575974D02*
X180616613Y-82466823D01*
X113000000Y-145000046D02*
X113000000Y-138699999D01*
X165833333Y-143000046D02*
X165859542Y-142999359D01*
X116817128Y-83057500D02*
X116834579Y-83075858D01*
X166341572Y-142568486D02*
X166342426Y-142561999D01*
X117767842Y-87260298D02*
X117648986Y-87315880D01*
X113757019Y-43004968D02*
X113804908Y-42994214D01*
X181528602Y-72918078D02*
X181572444Y-72896010D01*
X163646010Y-86427555D02*
X163626120Y-86382684D01*
X113999999Y-78700000D02*
X115000000Y-78700000D01*
X179597469Y-142538961D02*
X179703226Y-142469261D01*
X166208761Y-83843841D02*
X166228453Y-83821969D01*
X117533176Y-142616613D02*
X117555322Y-142628905D01*
X169723151Y-83941646D02*
X169734954Y-83947275D01*
X116096906Y-65071117D02*
X116086331Y-65094132D01*
X113058455Y-145336936D02*
X113043059Y-145290331D01*
X163746792Y-27595699D02*
X163718530Y-27555570D01*
X116238427Y-82171303D02*
X116248415Y-82194578D01*
X113058455Y-127036890D02*
X113043059Y-126990285D01*
X133021397Y-25118078D02*
X133064103Y-25142271D01*
X115195091Y-68680785D02*
X115146731Y-68689176D01*
X116000000Y-67700000D02*
X115998795Y-67749068D01*
X163646010Y-25572444D02*
X163668078Y-25528602D01*
X116398105Y-47298273D02*
X116418520Y-47313265D01*
X166284145Y-83741382D02*
X166285705Y-83738507D01*
X116460458Y-64658327D02*
X116439309Y-64672265D01*
X180057500Y-28817128D02*
X179963517Y-28732218D01*
X178764137Y-28099253D02*
X178739617Y-28092904D01*
X177993555Y-83999997D02*
X178006442Y-83999836D01*
X133491544Y-27336890D02*
X133473879Y-27382684D01*
X115382684Y-127623879D02*
X115336890Y-127641544D01*
X133548795Y-25950931D02*
X133550000Y-25999999D01*
X166369776Y-65304714D02*
X166380537Y-65256833D01*
X183555570Y-25168530D02*
X183595699Y-25196792D01*
X168593255Y-123510820D02*
X168641609Y-123519210D01*
X117006333Y-106500000D02*
X119987331Y-106500000D01*
X169461076Y-142600362D02*
X169463430Y-142609887D01*
X163550000Y-144000044D02*
X163551204Y-143950977D01*
X115514103Y-137842271D02*
X115555570Y-137868530D01*
X166393635Y-124209538D02*
X166409038Y-124162942D01*
X115671559Y-32715951D02*
X115634393Y-32748010D01*
X115336890Y-78758455D02*
X115382684Y-78776120D01*
X164354908Y-27980785D02*
X164307019Y-27970031D01*
X120266917Y-64463319D02*
X120219362Y-64475260D01*
X116233236Y-106141554D02*
X116249734Y-106160772D01*
X163842892Y-145707153D02*
X163809048Y-145671605D01*
X115903989Y-68127555D02*
X115881921Y-68171397D01*
X113118078Y-25528602D02*
X113142271Y-25485896D01*
X180808557Y-82053680D02*
X180817353Y-82029928D01*
X169416534Y-65256863D02*
X169427294Y-65304746D01*
X133550000Y-86000000D02*
X133548795Y-86049068D01*
X164354908Y-145980831D02*
X164307019Y-145970077D01*
X116016992Y-81316071D02*
X116032994Y-81441716D01*
X113572444Y-32878989D02*
X113528602Y-32856921D01*
X181000000Y-36800000D02*
X181000000Y-31006333D01*
X181142271Y-37314103D02*
X181118078Y-37271397D01*
X116664682Y-123558150D02*
X116640930Y-123566947D01*
X117098482Y-28665701D02*
X116997684Y-28749699D01*
X120996922Y-107426009D02*
X120999365Y-107474979D01*
X164550000Y-84000045D02*
X165833333Y-84000046D01*
X116182646Y-82029928D02*
X116191442Y-82053680D01*
X115146731Y-42985823D02*
X115195091Y-42994214D01*
X133257107Y-27707107D02*
X133221559Y-27740951D01*
X183049068Y-96798795D02*
X183000000Y-96800000D01*
X163718530Y-27555570D02*
X163692271Y-27514103D01*
X120913741Y-63905278D02*
X120892761Y-63949595D01*
X113010823Y-25853268D02*
X113019214Y-25804908D01*
X133105570Y-145831515D02*
X133064103Y-145857774D01*
X166297586Y-83715189D02*
X166298994Y-83712236D01*
X183146731Y-37789176D02*
X183098018Y-37795184D01*
X163551204Y-27049068D02*
X163550000Y-27000000D01*
X183998795Y-145049114D02*
X183995184Y-145098064D01*
X169435693Y-124353098D02*
X169441709Y-124401805D01*
X163668078Y-84528648D02*
X163692271Y-84485942D01*
X120575641Y-106682831D02*
X120615019Y-106712045D01*
X181196792Y-37395699D02*
X181168530Y-37355570D01*
X116358445Y-47266763D02*
X116378075Y-47282770D01*
X183098018Y-25004815D02*
X183146731Y-25010823D01*
X116013766Y-105663897D02*
X116018235Y-105688828D01*
M02*
