M48
; DRILL file {KiCad 8.0.2+dfsg-1} date 2024-06-08T17:30:34+0100
; FORMAT={-:-/ absolute / metric / decimal}
; #@! TF.CreationDate,2024-06-08T17:30:34+01:00
; #@! TF.GenerationSoftware,Kicad,Pcbnew,8.0.2+dfsg-1
; #@! TF.FileFunction,Plated,1,2,PTH
FMAT,2
METRIC
; #@! TA.AperFunction,Plated,PTH,ComponentDrill
T1C0.300
; #@! TA.AperFunction,Plated,PTH,ViaDrill
T2C0.400
; #@! TA.AperFunction,Plated,PTH,ComponentDrill
T3C0.800
; #@! TA.AperFunction,Plated,PTH,ComponentDrill
T4C1.000
; #@! TA.AperFunction,Plated,PTH,ComponentDrill
T5C1.016
; #@! TA.AperFunction,Plated,PTH,ComponentDrill
T6C1.300
%
G90
G05
T1
X129.0Y-41.6
X129.0Y-100.6
X130.3Y-40.3
X130.3Y-41.6
X130.3Y-99.3
X130.3Y-100.6
X131.6Y-40.3
X131.6Y-41.6
X131.6Y-99.3
X131.6Y-100.6
T2
X120.8Y-39.5
X120.8Y-40.8
X120.8Y-42.0
X120.8Y-98.5
X120.8Y-99.8
X120.8Y-101.0
X122.0Y-39.5
X122.0Y-40.8
X122.0Y-42.0
X122.0Y-83.1
X122.0Y-98.5
X122.0Y-99.8
X122.0Y-101.0
X122.0Y-142.1
X122.1Y-55.9
X122.1Y-114.9
X122.2Y-66.05
X122.2Y-125.05
X122.8Y-52.2
X122.8Y-111.2
X122.9Y-60.3
X122.9Y-119.3
X123.2Y-39.5
X123.2Y-40.8
X123.2Y-42.0
X123.2Y-98.5
X123.2Y-99.8
X123.2Y-101.0
X123.45Y-80.35
X123.45Y-139.35
X124.066Y-60.621
X124.066Y-119.621
X124.16Y-62.65
X124.16Y-121.65
X124.95Y-36.8
X124.95Y-38.0
X124.95Y-79.8
X124.95Y-95.8
X124.95Y-97.0
X124.95Y-138.8
X125.3Y-51.1
X125.3Y-110.1
X125.41Y-65.3
X125.41Y-124.3
X125.755Y-76.955
X125.755Y-135.955
X126.2Y-36.8
X126.2Y-38.0
X126.2Y-95.8
X126.2Y-97.0
X126.9Y-72.45
X126.9Y-77.15
X126.9Y-80.4
X126.9Y-131.45
X126.9Y-136.15
X126.9Y-139.4
X127.101Y-64.745
X127.101Y-123.745
X127.2Y-41.7
X127.2Y-100.7
X127.4Y-38.0
X127.4Y-97.0
X128.688Y-56.698
X128.688Y-115.698
X129.0Y-51.6
X129.0Y-81.8
X129.0Y-110.6
X129.0Y-140.8
X129.15Y-48.425
X129.15Y-107.425
X129.275Y-60.675
X129.275Y-119.675
X129.5Y-54.6
X129.5Y-113.6
X129.531Y-55.999
X129.531Y-114.999
X129.707Y-44.225
X129.707Y-103.225
X130.1Y-36.0
X130.1Y-95.0
X130.284Y-55.299
X130.284Y-114.299
X130.3Y-53.8
X130.3Y-112.8
X130.6Y-61.4
X130.6Y-120.4
X130.925Y-45.0
X130.925Y-104.0
X131.1Y-70.9
X131.1Y-129.9
X131.2Y-76.3
X131.2Y-135.3
X131.9Y-50.2
X131.9Y-109.2
X132.2Y-45.0
X132.2Y-104.0
X132.85Y-38.85
X132.85Y-97.85
X133.6Y-72.3
X133.6Y-74.3
X133.6Y-76.3
X133.6Y-131.3
X133.6Y-133.3
X133.6Y-135.3
X133.7Y-81.6
X133.7Y-140.6
X133.78Y-40.9
X133.78Y-43.5
X133.78Y-99.9
X133.78Y-102.5
X134.1Y-56.0
X134.1Y-115.0
X134.4Y-46.3
X134.4Y-105.3
X135.7Y-47.2
X135.7Y-106.2
X135.75Y-56.0
X135.75Y-115.0
X136.5Y-41.153
X136.5Y-100.153
X136.524Y-37.554
X136.524Y-96.554
X136.8Y-82.8
X136.8Y-141.8
X137.3Y-73.5
X137.3Y-80.741
X137.3Y-132.5
X137.3Y-139.741
X138.15Y-53.6
X138.15Y-112.6
X138.2Y-64.2
X138.2Y-123.2
X138.35Y-49.521
X138.35Y-108.521
X138.749Y-37.196
X138.749Y-96.196
X139.0Y-72.2
X139.0Y-131.2
X139.118Y-80.105
X139.118Y-139.105
X139.65Y-39.4
X139.65Y-98.4
X139.9Y-38.3
X139.9Y-97.3
X140.155Y-37.055
X140.155Y-96.055
X140.187Y-40.243
X140.187Y-99.243
X140.361Y-80.173
X140.361Y-139.173
X140.6Y-64.2
X140.6Y-123.2
X140.7Y-74.25
X140.7Y-133.25
X140.895Y-76.946
X140.895Y-135.946
X141.201Y-49.668
X141.201Y-108.668
X141.25Y-70.8
X141.25Y-129.8
X141.7Y-75.2
X141.7Y-134.2
X141.899Y-41.43
X141.899Y-100.43
X141.9Y-78.8
X141.9Y-137.8
X142.4Y-38.3
X142.4Y-97.3
X143.242Y-49.674
X143.242Y-108.674
X143.4Y-43.7
X143.4Y-102.7
X143.75Y-55.2
X143.75Y-56.4
X143.75Y-114.2
X143.75Y-115.4
X144.2Y-38.1
X144.2Y-97.1
X144.3Y-43.0
X144.3Y-102.0
X145.205Y-49.682
X145.205Y-108.682
X145.3Y-43.7
X145.3Y-102.7
X146.2Y-69.9
X146.2Y-128.9
X146.6Y-67.9
X146.6Y-126.9
X146.9Y-43.7
X146.9Y-102.7
X147.205Y-49.682
X147.205Y-108.682
X147.7Y-67.65
X147.7Y-126.65
X147.8Y-43.0
X147.8Y-102.0
X147.9Y-74.3
X147.9Y-76.0
X147.9Y-133.3
X147.9Y-135.0
X148.8Y-43.7
X148.8Y-102.7
X149.8Y-36.3
X149.8Y-41.4
X149.8Y-95.3
X149.8Y-100.4
X149.801Y-42.9
X149.801Y-101.9
X149.9Y-74.3
X149.9Y-76.0
X149.9Y-133.3
X149.9Y-135.0
X150.353Y-50.629
X150.353Y-109.629
X151.0Y-52.25
X151.0Y-53.25
X151.0Y-54.25
X151.0Y-55.25
X151.0Y-111.25
X151.0Y-112.25
X151.0Y-113.25
X151.0Y-114.25
X151.3Y-43.4
X151.3Y-102.4
X151.6Y-38.7
X151.6Y-97.7
X151.9Y-76.0
X151.9Y-135.0
X153.35Y-72.3
X153.35Y-131.3
X155.0Y-61.45
X155.0Y-120.45
X155.3Y-64.2
X155.3Y-123.2
X155.9Y-56.4
X155.9Y-60.15
X155.9Y-115.4
X155.9Y-119.15
X156.4Y-54.4
X156.4Y-113.4
X156.9Y-39.05
X156.9Y-98.05
X157.135Y-61.9
X157.135Y-120.9
X158.15Y-49.9
X158.15Y-108.9
X158.75Y-48.25
X158.75Y-107.25
X159.75Y-66.7
X159.75Y-68.9
X159.75Y-125.7
X159.75Y-127.9
X160.05Y-51.2
X160.05Y-110.2
X160.4Y-45.0
X160.4Y-104.0
X161.0Y-59.2
X161.0Y-118.2
X162.5Y-46.7
X162.5Y-105.7
X163.65Y-63.35
X163.65Y-122.35
X164.6Y-61.9
X164.6Y-120.9
X164.65Y-62.85
X164.65Y-121.85
X165.4Y-70.75
X165.4Y-129.75
X168.769Y-46.537
X168.769Y-105.537
X168.9Y-43.0
X168.9Y-49.9
X168.9Y-57.7
X168.9Y-102.0
X168.9Y-108.9
X168.9Y-116.7
X169.8Y-63.0
X169.8Y-122.0
X170.5Y-66.3
X170.5Y-72.9
X170.5Y-125.3
X170.5Y-131.9
X170.6Y-52.1
X170.6Y-111.1
X170.9Y-63.0
X170.9Y-122.0
X171.3Y-78.6
X171.3Y-137.6
X172.0Y-48.2
X172.0Y-107.2
X173.7Y-67.0
X173.7Y-126.0
X174.675Y-62.905
X174.675Y-121.905
X175.847Y-46.74
X175.847Y-105.74
X176.15Y-48.0
X176.15Y-107.0
X176.3Y-61.8
X176.3Y-120.8
X177.692Y-63.105
X177.692Y-122.105
X177.774Y-47.3
X177.774Y-106.3
X179.6Y-74.3
X179.6Y-133.3
X179.8Y-69.8
X179.8Y-128.8
T3
X136.25Y-42.8
X136.25Y-101.8
X136.858Y-39.353
X136.858Y-98.353
T4
X123.46Y-47.7
X123.46Y-106.7
X126.0Y-47.7
X126.0Y-106.7
X173.25Y-79.235
X173.25Y-81.775
X173.25Y-138.235
X173.25Y-140.775
T5
X118.92Y-67.67
X118.92Y-70.21
X118.92Y-72.75
X118.92Y-75.29
X118.92Y-126.67
X118.92Y-129.21
X118.92Y-131.75
X118.92Y-134.29
X121.48Y-67.67
X121.48Y-70.21
X121.48Y-72.75
X121.48Y-75.29
X121.48Y-126.67
X121.48Y-129.21
X121.48Y-131.75
X121.48Y-134.29
X124.02Y-67.67
X124.02Y-70.21
X124.02Y-72.75
X124.02Y-75.29
X124.02Y-126.67
X124.02Y-129.21
X124.02Y-131.75
X124.02Y-134.29
X124.37Y-30.23
X124.37Y-32.77
X124.37Y-89.23
X124.37Y-91.77
X126.91Y-30.23
X126.91Y-32.77
X126.91Y-89.23
X126.91Y-91.77
X129.45Y-30.23
X129.45Y-32.77
X129.45Y-89.23
X129.45Y-91.77
X131.99Y-30.23
X131.99Y-32.77
X131.99Y-89.23
X131.99Y-91.77
X134.53Y-30.23
X134.53Y-32.77
X134.53Y-89.23
X134.53Y-91.77
X137.07Y-30.23
X137.07Y-32.77
X137.07Y-89.23
X137.07Y-91.77
X139.61Y-30.23
X139.61Y-32.77
X139.61Y-89.23
X139.61Y-91.77
X142.15Y-30.23
X142.15Y-32.77
X142.15Y-89.23
X142.15Y-91.77
X144.69Y-30.23
X144.69Y-32.77
X144.69Y-89.23
X144.69Y-91.77
X147.23Y-30.23
X147.23Y-32.77
X147.23Y-89.23
X147.23Y-91.77
X149.77Y-30.23
X149.77Y-32.77
X149.77Y-89.23
X149.77Y-91.77
X152.31Y-30.23
X152.31Y-32.77
X152.31Y-89.23
X152.31Y-91.77
X154.85Y-30.23
X154.85Y-32.77
X154.85Y-89.23
X154.85Y-91.77
X157.39Y-30.23
X157.39Y-32.77
X157.39Y-89.23
X157.39Y-91.77
X159.93Y-30.23
X159.93Y-32.77
X159.93Y-89.23
X159.93Y-91.77
X162.47Y-30.23
X162.47Y-32.77
X162.47Y-89.23
X162.47Y-91.77
X165.01Y-30.23
X165.01Y-32.77
X165.01Y-89.23
X165.01Y-91.77
X167.55Y-30.23
X167.55Y-32.77
X167.55Y-89.23
X167.55Y-91.77
X170.09Y-30.23
X170.09Y-32.77
X170.09Y-89.23
X170.09Y-91.77
X172.63Y-30.23
X172.63Y-32.77
X172.63Y-89.23
X172.63Y-91.77
T6
X129.3Y-79.15
X129.3Y-138.15
X134.3Y-79.15
X134.3Y-138.15
X144.625Y-79.15
X144.625Y-138.15
X149.625Y-79.15
X149.625Y-138.15
X157.7Y-79.15
X157.7Y-138.15
X162.7Y-79.15
X162.7Y-138.15
X176.012Y-69.7
X176.012Y-74.7
X176.012Y-128.7
X176.012Y-133.7
X176.05Y-39.75
X176.05Y-44.75
X176.05Y-54.7
X176.05Y-59.7
X176.05Y-98.75
X176.05Y-103.75
X176.05Y-113.7
X176.05Y-118.7
M30
