%TF.GenerationSoftware,KiCad,Pcbnew,8.0.2+dfsg-1*%
%TF.CreationDate,2024-06-08T17:30:32+01:00*%
%TF.ProjectId,panel,70616e65-6c2e-46b6-9963-61645f706362,rev?*%
%TF.SameCoordinates,Original*%
%TF.FileFunction,Other,Comment*%
%FSLAX46Y46*%
G04 Gerber Fmt 4.6, Leading zero omitted, Abs format (unit mm)*
G04 Created by KiCad (PCBNEW 8.0.2+dfsg-1) date 2024-06-08 17:30:32*
%MOMM*%
%LPD*%
G01*
G04 APERTURE LIST*
%ADD10C,0.400000*%
%ADD11C,0.120000*%
G04 APERTURE END LIST*
D10*
X105000000Y-143000000D02*
X192000000Y-143000000D01*
X116000000Y-17000000D02*
X116000000Y-154000046D01*
X105000000Y-84000000D02*
X192000000Y-84000000D01*
X105000000Y-87000000D02*
X192000000Y-87000000D01*
X105000000Y-28000000D02*
X192000000Y-28000000D01*
X181000000Y-17000000D02*
X181000000Y-154000046D01*
X195453633Y-82904438D02*
X196120299Y-84904438D01*
X196120299Y-84904438D02*
X196786966Y-82904438D01*
X197453633Y-84142533D02*
X198977443Y-84142533D01*
X201072680Y-84713961D02*
X200977442Y-84809200D01*
X200977442Y-84809200D02*
X200691728Y-84904438D01*
X200691728Y-84904438D02*
X200501252Y-84904438D01*
X200501252Y-84904438D02*
X200215537Y-84809200D01*
X200215537Y-84809200D02*
X200025061Y-84618723D01*
X200025061Y-84618723D02*
X199929823Y-84428247D01*
X199929823Y-84428247D02*
X199834585Y-84047295D01*
X199834585Y-84047295D02*
X199834585Y-83761580D01*
X199834585Y-83761580D02*
X199929823Y-83380628D01*
X199929823Y-83380628D02*
X200025061Y-83190152D01*
X200025061Y-83190152D02*
X200215537Y-82999676D01*
X200215537Y-82999676D02*
X200501252Y-82904438D01*
X200501252Y-82904438D02*
X200691728Y-82904438D01*
X200691728Y-82904438D02*
X200977442Y-82999676D01*
X200977442Y-82999676D02*
X201072680Y-83094914D01*
X201929823Y-82904438D02*
X201929823Y-84523485D01*
X201929823Y-84523485D02*
X202025061Y-84713961D01*
X202025061Y-84713961D02*
X202120299Y-84809200D01*
X202120299Y-84809200D02*
X202310775Y-84904438D01*
X202310775Y-84904438D02*
X202691728Y-84904438D01*
X202691728Y-84904438D02*
X202882204Y-84809200D01*
X202882204Y-84809200D02*
X202977442Y-84713961D01*
X202977442Y-84713961D02*
X203072680Y-84523485D01*
X203072680Y-84523485D02*
X203072680Y-82904438D01*
X203739347Y-82904438D02*
X204882204Y-82904438D01*
X204310775Y-84904438D02*
X204310775Y-82904438D01*
X195453633Y-85904438D02*
X196120299Y-87904438D01*
X196120299Y-87904438D02*
X196786966Y-85904438D01*
X197453633Y-87142533D02*
X198977443Y-87142533D01*
X201072680Y-87713961D02*
X200977442Y-87809200D01*
X200977442Y-87809200D02*
X200691728Y-87904438D01*
X200691728Y-87904438D02*
X200501252Y-87904438D01*
X200501252Y-87904438D02*
X200215537Y-87809200D01*
X200215537Y-87809200D02*
X200025061Y-87618723D01*
X200025061Y-87618723D02*
X199929823Y-87428247D01*
X199929823Y-87428247D02*
X199834585Y-87047295D01*
X199834585Y-87047295D02*
X199834585Y-86761580D01*
X199834585Y-86761580D02*
X199929823Y-86380628D01*
X199929823Y-86380628D02*
X200025061Y-86190152D01*
X200025061Y-86190152D02*
X200215537Y-85999676D01*
X200215537Y-85999676D02*
X200501252Y-85904438D01*
X200501252Y-85904438D02*
X200691728Y-85904438D01*
X200691728Y-85904438D02*
X200977442Y-85999676D01*
X200977442Y-85999676D02*
X201072680Y-86094914D01*
X201929823Y-85904438D02*
X201929823Y-87523485D01*
X201929823Y-87523485D02*
X202025061Y-87713961D01*
X202025061Y-87713961D02*
X202120299Y-87809200D01*
X202120299Y-87809200D02*
X202310775Y-87904438D01*
X202310775Y-87904438D02*
X202691728Y-87904438D01*
X202691728Y-87904438D02*
X202882204Y-87809200D01*
X202882204Y-87809200D02*
X202977442Y-87713961D01*
X202977442Y-87713961D02*
X203072680Y-87523485D01*
X203072680Y-87523485D02*
X203072680Y-85904438D01*
X203739347Y-85904438D02*
X204882204Y-85904438D01*
X204310775Y-87904438D02*
X204310775Y-85904438D01*
D11*
X146120537Y-153236995D02*
X146214287Y-152486995D01*
X146214287Y-152486995D02*
X146392858Y-152486995D01*
X146392858Y-152486995D02*
X146495537Y-152522709D01*
X146495537Y-152522709D02*
X146558037Y-152594138D01*
X146558037Y-152594138D02*
X146584822Y-152665566D01*
X146584822Y-152665566D02*
X146602680Y-152808423D01*
X146602680Y-152808423D02*
X146589287Y-152915566D01*
X146589287Y-152915566D02*
X146535715Y-153058423D01*
X146535715Y-153058423D02*
X146491072Y-153129852D01*
X146491072Y-153129852D02*
X146410715Y-153201281D01*
X146410715Y-153201281D02*
X146299108Y-153236995D01*
X146299108Y-153236995D02*
X146120537Y-153236995D01*
X146870537Y-153236995D02*
X146933037Y-152736995D01*
X146964287Y-152486995D02*
X146924108Y-152522709D01*
X146924108Y-152522709D02*
X146955358Y-152558423D01*
X146955358Y-152558423D02*
X146995537Y-152522709D01*
X146995537Y-152522709D02*
X146964287Y-152486995D01*
X146964287Y-152486995D02*
X146955358Y-152558423D01*
X147227680Y-153236995D02*
X147290180Y-152736995D01*
X147281251Y-152808423D02*
X147321430Y-152772709D01*
X147321430Y-152772709D02*
X147397323Y-152736995D01*
X147397323Y-152736995D02*
X147504465Y-152736995D01*
X147504465Y-152736995D02*
X147571430Y-152772709D01*
X147571430Y-152772709D02*
X147598215Y-152844138D01*
X147598215Y-152844138D02*
X147549108Y-153236995D01*
X147598215Y-152844138D02*
X147642858Y-152772709D01*
X147642858Y-152772709D02*
X147718751Y-152736995D01*
X147718751Y-152736995D02*
X147825894Y-152736995D01*
X147825894Y-152736995D02*
X147892858Y-152772709D01*
X147892858Y-152772709D02*
X147919644Y-152844138D01*
X147919644Y-152844138D02*
X147870537Y-153236995D01*
X148517858Y-153201281D02*
X148441965Y-153236995D01*
X148441965Y-153236995D02*
X148299108Y-153236995D01*
X148299108Y-153236995D02*
X148232144Y-153201281D01*
X148232144Y-153201281D02*
X148205358Y-153129852D01*
X148205358Y-153129852D02*
X148241073Y-152844138D01*
X148241073Y-152844138D02*
X148285715Y-152772709D01*
X148285715Y-152772709D02*
X148361608Y-152736995D01*
X148361608Y-152736995D02*
X148504465Y-152736995D01*
X148504465Y-152736995D02*
X148571430Y-152772709D01*
X148571430Y-152772709D02*
X148598215Y-152844138D01*
X148598215Y-152844138D02*
X148589287Y-152915566D01*
X148589287Y-152915566D02*
X148223215Y-152986995D01*
X148933037Y-152736995D02*
X148870537Y-153236995D01*
X148924108Y-152808423D02*
X148964287Y-152772709D01*
X148964287Y-152772709D02*
X149040180Y-152736995D01*
X149040180Y-152736995D02*
X149147322Y-152736995D01*
X149147322Y-152736995D02*
X149214287Y-152772709D01*
X149214287Y-152772709D02*
X149241072Y-152844138D01*
X149241072Y-152844138D02*
X149191965Y-153236995D01*
X149517858Y-153201281D02*
X149584822Y-153236995D01*
X149584822Y-153236995D02*
X149727679Y-153236995D01*
X149727679Y-153236995D02*
X149803572Y-153201281D01*
X149803572Y-153201281D02*
X149848215Y-153129852D01*
X149848215Y-153129852D02*
X149852679Y-153094138D01*
X149852679Y-153094138D02*
X149825893Y-153022709D01*
X149825893Y-153022709D02*
X149758929Y-152986995D01*
X149758929Y-152986995D02*
X149651786Y-152986995D01*
X149651786Y-152986995D02*
X149584822Y-152951281D01*
X149584822Y-152951281D02*
X149558036Y-152879852D01*
X149558036Y-152879852D02*
X149562501Y-152844138D01*
X149562501Y-152844138D02*
X149607143Y-152772709D01*
X149607143Y-152772709D02*
X149683036Y-152736995D01*
X149683036Y-152736995D02*
X149790179Y-152736995D01*
X149790179Y-152736995D02*
X149857143Y-152772709D01*
X150156251Y-153236995D02*
X150218751Y-152736995D01*
X150250001Y-152486995D02*
X150209822Y-152522709D01*
X150209822Y-152522709D02*
X150241072Y-152558423D01*
X150241072Y-152558423D02*
X150281251Y-152522709D01*
X150281251Y-152522709D02*
X150250001Y-152486995D01*
X150250001Y-152486995D02*
X150241072Y-152558423D01*
X150620537Y-153236995D02*
X150553572Y-153201281D01*
X150553572Y-153201281D02*
X150522322Y-153165566D01*
X150522322Y-153165566D02*
X150495537Y-153094138D01*
X150495537Y-153094138D02*
X150522322Y-152879852D01*
X150522322Y-152879852D02*
X150566965Y-152808423D01*
X150566965Y-152808423D02*
X150607144Y-152772709D01*
X150607144Y-152772709D02*
X150683037Y-152736995D01*
X150683037Y-152736995D02*
X150790179Y-152736995D01*
X150790179Y-152736995D02*
X150857144Y-152772709D01*
X150857144Y-152772709D02*
X150888394Y-152808423D01*
X150888394Y-152808423D02*
X150915179Y-152879852D01*
X150915179Y-152879852D02*
X150888394Y-153094138D01*
X150888394Y-153094138D02*
X150843751Y-153165566D01*
X150843751Y-153165566D02*
X150803572Y-153201281D01*
X150803572Y-153201281D02*
X150727679Y-153236995D01*
X150727679Y-153236995D02*
X150620537Y-153236995D01*
X151254465Y-152736995D02*
X151191965Y-153236995D01*
X151245536Y-152808423D02*
X151285715Y-152772709D01*
X151285715Y-152772709D02*
X151361608Y-152736995D01*
X151361608Y-152736995D02*
X151468750Y-152736995D01*
X151468750Y-152736995D02*
X151535715Y-152772709D01*
X151535715Y-152772709D02*
X151562500Y-152844138D01*
X151562500Y-152844138D02*
X151513393Y-153236995D01*
X151839286Y-153201281D02*
X151906250Y-153236995D01*
X151906250Y-153236995D02*
X152049107Y-153236995D01*
X152049107Y-153236995D02*
X152125000Y-153201281D01*
X152125000Y-153201281D02*
X152169643Y-153129852D01*
X152169643Y-153129852D02*
X152174107Y-153094138D01*
X152174107Y-153094138D02*
X152147321Y-153022709D01*
X152147321Y-153022709D02*
X152080357Y-152986995D01*
X152080357Y-152986995D02*
X151973214Y-152986995D01*
X151973214Y-152986995D02*
X151906250Y-152951281D01*
X151906250Y-152951281D02*
X151879464Y-152879852D01*
X151879464Y-152879852D02*
X151883929Y-152844138D01*
X151883929Y-152844138D02*
X151928571Y-152772709D01*
X151928571Y-152772709D02*
X152004464Y-152736995D01*
X152004464Y-152736995D02*
X152111607Y-152736995D01*
X152111607Y-152736995D02*
X152178571Y-152772709D01*
X153004465Y-152736995D02*
X153290179Y-152736995D01*
X153142858Y-152486995D02*
X153062501Y-153129852D01*
X153062501Y-153129852D02*
X153089286Y-153201281D01*
X153089286Y-153201281D02*
X153156251Y-153236995D01*
X153156251Y-153236995D02*
X153227679Y-153236995D01*
X153799107Y-153236995D02*
X153848214Y-152844138D01*
X153848214Y-152844138D02*
X153821429Y-152772709D01*
X153821429Y-152772709D02*
X153754464Y-152736995D01*
X153754464Y-152736995D02*
X153611607Y-152736995D01*
X153611607Y-152736995D02*
X153535714Y-152772709D01*
X153803572Y-153201281D02*
X153727679Y-153236995D01*
X153727679Y-153236995D02*
X153549107Y-153236995D01*
X153549107Y-153236995D02*
X153482143Y-153201281D01*
X153482143Y-153201281D02*
X153455357Y-153129852D01*
X153455357Y-153129852D02*
X153464286Y-153058423D01*
X153464286Y-153058423D02*
X153508929Y-152986995D01*
X153508929Y-152986995D02*
X153584822Y-152951281D01*
X153584822Y-152951281D02*
X153763393Y-152951281D01*
X153763393Y-152951281D02*
X153839286Y-152915566D01*
X154156250Y-153236995D02*
X154250000Y-152486995D01*
X154263393Y-152951281D02*
X154441964Y-153236995D01*
X154504464Y-152736995D02*
X154183035Y-153022709D01*
X155053571Y-153201281D02*
X154977678Y-153236995D01*
X154977678Y-153236995D02*
X154834821Y-153236995D01*
X154834821Y-153236995D02*
X154767857Y-153201281D01*
X154767857Y-153201281D02*
X154741071Y-153129852D01*
X154741071Y-153129852D02*
X154776786Y-152844138D01*
X154776786Y-152844138D02*
X154821428Y-152772709D01*
X154821428Y-152772709D02*
X154897321Y-152736995D01*
X154897321Y-152736995D02*
X155040178Y-152736995D01*
X155040178Y-152736995D02*
X155107143Y-152772709D01*
X155107143Y-152772709D02*
X155133928Y-152844138D01*
X155133928Y-152844138D02*
X155125000Y-152915566D01*
X155125000Y-152915566D02*
X154758928Y-152986995D01*
X155468750Y-152736995D02*
X155406250Y-153236995D01*
X155459821Y-152808423D02*
X155500000Y-152772709D01*
X155500000Y-152772709D02*
X155575893Y-152736995D01*
X155575893Y-152736995D02*
X155683035Y-152736995D01*
X155683035Y-152736995D02*
X155750000Y-152772709D01*
X155750000Y-152772709D02*
X155776785Y-152844138D01*
X155776785Y-152844138D02*
X155727678Y-153236995D01*
X156611607Y-152736995D02*
X156897321Y-152736995D01*
X156656250Y-153236995D02*
X156736607Y-152594138D01*
X156736607Y-152594138D02*
X156781250Y-152522709D01*
X156781250Y-152522709D02*
X156857143Y-152486995D01*
X156857143Y-152486995D02*
X156928571Y-152486995D01*
X157084821Y-153236995D02*
X157147321Y-152736995D01*
X157129464Y-152879852D02*
X157174106Y-152808423D01*
X157174106Y-152808423D02*
X157214285Y-152772709D01*
X157214285Y-152772709D02*
X157290178Y-152736995D01*
X157290178Y-152736995D02*
X157361606Y-152736995D01*
X157656250Y-153236995D02*
X157589285Y-153201281D01*
X157589285Y-153201281D02*
X157558035Y-153165566D01*
X157558035Y-153165566D02*
X157531250Y-153094138D01*
X157531250Y-153094138D02*
X157558035Y-152879852D01*
X157558035Y-152879852D02*
X157602678Y-152808423D01*
X157602678Y-152808423D02*
X157642857Y-152772709D01*
X157642857Y-152772709D02*
X157718750Y-152736995D01*
X157718750Y-152736995D02*
X157825892Y-152736995D01*
X157825892Y-152736995D02*
X157892857Y-152772709D01*
X157892857Y-152772709D02*
X157924107Y-152808423D01*
X157924107Y-152808423D02*
X157950892Y-152879852D01*
X157950892Y-152879852D02*
X157924107Y-153094138D01*
X157924107Y-153094138D02*
X157879464Y-153165566D01*
X157879464Y-153165566D02*
X157839285Y-153201281D01*
X157839285Y-153201281D02*
X157763392Y-153236995D01*
X157763392Y-153236995D02*
X157656250Y-153236995D01*
X158227678Y-153236995D02*
X158290178Y-152736995D01*
X158281249Y-152808423D02*
X158321428Y-152772709D01*
X158321428Y-152772709D02*
X158397321Y-152736995D01*
X158397321Y-152736995D02*
X158504463Y-152736995D01*
X158504463Y-152736995D02*
X158571428Y-152772709D01*
X158571428Y-152772709D02*
X158598213Y-152844138D01*
X158598213Y-152844138D02*
X158549106Y-153236995D01*
X158598213Y-152844138D02*
X158642856Y-152772709D01*
X158642856Y-152772709D02*
X158718749Y-152736995D01*
X158718749Y-152736995D02*
X158825892Y-152736995D01*
X158825892Y-152736995D02*
X158892856Y-152772709D01*
X158892856Y-152772709D02*
X158919642Y-152844138D01*
X158919642Y-152844138D02*
X158870535Y-153236995D01*
X130102687Y-154444453D02*
X130196437Y-153694453D01*
X130424115Y-154444453D02*
X130473222Y-154051596D01*
X130473222Y-154051596D02*
X130446437Y-153980167D01*
X130446437Y-153980167D02*
X130379472Y-153944453D01*
X130379472Y-153944453D02*
X130272330Y-153944453D01*
X130272330Y-153944453D02*
X130196437Y-153980167D01*
X130196437Y-153980167D02*
X130156258Y-154015881D01*
X130736615Y-153944453D02*
X131022329Y-153944453D01*
X130875008Y-153694453D02*
X130794651Y-154337310D01*
X130794651Y-154337310D02*
X130821436Y-154408739D01*
X130821436Y-154408739D02*
X130888401Y-154444453D01*
X130888401Y-154444453D02*
X130959829Y-154444453D01*
X131165186Y-153944453D02*
X131450900Y-153944453D01*
X131303579Y-153694453D02*
X131223222Y-154337310D01*
X131223222Y-154337310D02*
X131250007Y-154408739D01*
X131250007Y-154408739D02*
X131316972Y-154444453D01*
X131316972Y-154444453D02*
X131388400Y-154444453D01*
X131700900Y-153944453D02*
X131607150Y-154694453D01*
X131696435Y-153980167D02*
X131772328Y-153944453D01*
X131772328Y-153944453D02*
X131915185Y-153944453D01*
X131915185Y-153944453D02*
X131982150Y-153980167D01*
X131982150Y-153980167D02*
X132013400Y-154015881D01*
X132013400Y-154015881D02*
X132040185Y-154087310D01*
X132040185Y-154087310D02*
X132013400Y-154301596D01*
X132013400Y-154301596D02*
X131968757Y-154373024D01*
X131968757Y-154373024D02*
X131928578Y-154408739D01*
X131928578Y-154408739D02*
X131852685Y-154444453D01*
X131852685Y-154444453D02*
X131709828Y-154444453D01*
X131709828Y-154444453D02*
X131642864Y-154408739D01*
X132285721Y-154408739D02*
X132352685Y-154444453D01*
X132352685Y-154444453D02*
X132495542Y-154444453D01*
X132495542Y-154444453D02*
X132571435Y-154408739D01*
X132571435Y-154408739D02*
X132616078Y-154337310D01*
X132616078Y-154337310D02*
X132620542Y-154301596D01*
X132620542Y-154301596D02*
X132593756Y-154230167D01*
X132593756Y-154230167D02*
X132526792Y-154194453D01*
X132526792Y-154194453D02*
X132419649Y-154194453D01*
X132419649Y-154194453D02*
X132352685Y-154158739D01*
X132352685Y-154158739D02*
X132325899Y-154087310D01*
X132325899Y-154087310D02*
X132330364Y-154051596D01*
X132330364Y-154051596D02*
X132375006Y-153980167D01*
X132375006Y-153980167D02*
X132450899Y-153944453D01*
X132450899Y-153944453D02*
X132558042Y-153944453D01*
X132558042Y-153944453D02*
X132625006Y-153980167D01*
X132933042Y-154373024D02*
X132964292Y-154408739D01*
X132964292Y-154408739D02*
X132924114Y-154444453D01*
X132924114Y-154444453D02*
X132892864Y-154408739D01*
X132892864Y-154408739D02*
X132933042Y-154373024D01*
X132933042Y-154373024D02*
X132924114Y-154444453D01*
X132982149Y-153980167D02*
X133013399Y-154015881D01*
X133013399Y-154015881D02*
X132973221Y-154051596D01*
X132973221Y-154051596D02*
X132941971Y-154015881D01*
X132941971Y-154015881D02*
X132982149Y-153980167D01*
X132982149Y-153980167D02*
X132973221Y-154051596D01*
X133915185Y-153658739D02*
X133151792Y-154623024D01*
X134700899Y-153658739D02*
X133937506Y-154623024D01*
X135236613Y-153944453D02*
X135160720Y-154551596D01*
X135160720Y-154551596D02*
X135116078Y-154623024D01*
X135116078Y-154623024D02*
X135075899Y-154658739D01*
X135075899Y-154658739D02*
X135000006Y-154694453D01*
X135000006Y-154694453D02*
X134892863Y-154694453D01*
X134892863Y-154694453D02*
X134825899Y-154658739D01*
X135178578Y-154408739D02*
X135102685Y-154444453D01*
X135102685Y-154444453D02*
X134959828Y-154444453D01*
X134959828Y-154444453D02*
X134892863Y-154408739D01*
X134892863Y-154408739D02*
X134861613Y-154373024D01*
X134861613Y-154373024D02*
X134834828Y-154301596D01*
X134834828Y-154301596D02*
X134861613Y-154087310D01*
X134861613Y-154087310D02*
X134906256Y-154015881D01*
X134906256Y-154015881D02*
X134946435Y-153980167D01*
X134946435Y-153980167D02*
X135022328Y-153944453D01*
X135022328Y-153944453D02*
X135165185Y-153944453D01*
X135165185Y-153944453D02*
X135232149Y-153980167D01*
X135531256Y-154444453D02*
X135593756Y-153944453D01*
X135625006Y-153694453D02*
X135584827Y-153730167D01*
X135584827Y-153730167D02*
X135616077Y-153765881D01*
X135616077Y-153765881D02*
X135656256Y-153730167D01*
X135656256Y-153730167D02*
X135625006Y-153694453D01*
X135625006Y-153694453D02*
X135616077Y-153765881D01*
X135843756Y-153944453D02*
X136129470Y-153944453D01*
X135982149Y-153694453D02*
X135901792Y-154337310D01*
X135901792Y-154337310D02*
X135928577Y-154408739D01*
X135928577Y-154408739D02*
X135995542Y-154444453D01*
X135995542Y-154444453D02*
X136066970Y-154444453D01*
X136316970Y-154444453D02*
X136410720Y-153694453D01*
X136638398Y-154444453D02*
X136687505Y-154051596D01*
X136687505Y-154051596D02*
X136660720Y-153980167D01*
X136660720Y-153980167D02*
X136593755Y-153944453D01*
X136593755Y-153944453D02*
X136486613Y-153944453D01*
X136486613Y-153944453D02*
X136410720Y-153980167D01*
X136410720Y-153980167D02*
X136370541Y-154015881D01*
X137379469Y-153944453D02*
X137316969Y-154444453D01*
X137058041Y-153944453D02*
X137008934Y-154337310D01*
X137008934Y-154337310D02*
X137035719Y-154408739D01*
X137035719Y-154408739D02*
X137102684Y-154444453D01*
X137102684Y-154444453D02*
X137209826Y-154444453D01*
X137209826Y-154444453D02*
X137285719Y-154408739D01*
X137285719Y-154408739D02*
X137325898Y-154373024D01*
X137674112Y-154444453D02*
X137767862Y-153694453D01*
X137732147Y-153980167D02*
X137808040Y-153944453D01*
X137808040Y-153944453D02*
X137950897Y-153944453D01*
X137950897Y-153944453D02*
X138017862Y-153980167D01*
X138017862Y-153980167D02*
X138049112Y-154015881D01*
X138049112Y-154015881D02*
X138075897Y-154087310D01*
X138075897Y-154087310D02*
X138049112Y-154301596D01*
X138049112Y-154301596D02*
X138004469Y-154373024D01*
X138004469Y-154373024D02*
X137964290Y-154408739D01*
X137964290Y-154408739D02*
X137888397Y-154444453D01*
X137888397Y-154444453D02*
X137745540Y-154444453D01*
X137745540Y-154444453D02*
X137678576Y-154408739D01*
X138361611Y-154373024D02*
X138392861Y-154408739D01*
X138392861Y-154408739D02*
X138352683Y-154444453D01*
X138352683Y-154444453D02*
X138321433Y-154408739D01*
X138321433Y-154408739D02*
X138361611Y-154373024D01*
X138361611Y-154373024D02*
X138352683Y-154444453D01*
X139035719Y-154408739D02*
X138959826Y-154444453D01*
X138959826Y-154444453D02*
X138816969Y-154444453D01*
X138816969Y-154444453D02*
X138750004Y-154408739D01*
X138750004Y-154408739D02*
X138718754Y-154373024D01*
X138718754Y-154373024D02*
X138691969Y-154301596D01*
X138691969Y-154301596D02*
X138718754Y-154087310D01*
X138718754Y-154087310D02*
X138763397Y-154015881D01*
X138763397Y-154015881D02*
X138803576Y-153980167D01*
X138803576Y-153980167D02*
X138879469Y-153944453D01*
X138879469Y-153944453D02*
X139022326Y-153944453D01*
X139022326Y-153944453D02*
X139089290Y-153980167D01*
X139459826Y-154444453D02*
X139392861Y-154408739D01*
X139392861Y-154408739D02*
X139361611Y-154373024D01*
X139361611Y-154373024D02*
X139334826Y-154301596D01*
X139334826Y-154301596D02*
X139361611Y-154087310D01*
X139361611Y-154087310D02*
X139406254Y-154015881D01*
X139406254Y-154015881D02*
X139446433Y-153980167D01*
X139446433Y-153980167D02*
X139522326Y-153944453D01*
X139522326Y-153944453D02*
X139629468Y-153944453D01*
X139629468Y-153944453D02*
X139696433Y-153980167D01*
X139696433Y-153980167D02*
X139727683Y-154015881D01*
X139727683Y-154015881D02*
X139754468Y-154087310D01*
X139754468Y-154087310D02*
X139727683Y-154301596D01*
X139727683Y-154301596D02*
X139683040Y-154373024D01*
X139683040Y-154373024D02*
X139642861Y-154408739D01*
X139642861Y-154408739D02*
X139566968Y-154444453D01*
X139566968Y-154444453D02*
X139459826Y-154444453D01*
X140031254Y-154444453D02*
X140093754Y-153944453D01*
X140084825Y-154015881D02*
X140125004Y-153980167D01*
X140125004Y-153980167D02*
X140200897Y-153944453D01*
X140200897Y-153944453D02*
X140308039Y-153944453D01*
X140308039Y-153944453D02*
X140375004Y-153980167D01*
X140375004Y-153980167D02*
X140401789Y-154051596D01*
X140401789Y-154051596D02*
X140352682Y-154444453D01*
X140401789Y-154051596D02*
X140446432Y-153980167D01*
X140446432Y-153980167D02*
X140522325Y-153944453D01*
X140522325Y-153944453D02*
X140629468Y-153944453D01*
X140629468Y-153944453D02*
X140696432Y-153980167D01*
X140696432Y-153980167D02*
X140723218Y-154051596D01*
X140723218Y-154051596D02*
X140674111Y-154444453D01*
X141665182Y-153658739D02*
X140901789Y-154623024D01*
X141816968Y-154444453D02*
X141879468Y-153944453D01*
X141861611Y-154087310D02*
X141906253Y-154015881D01*
X141906253Y-154015881D02*
X141946432Y-153980167D01*
X141946432Y-153980167D02*
X142022325Y-153944453D01*
X142022325Y-153944453D02*
X142093753Y-153944453D01*
X142602682Y-154444453D02*
X142651789Y-154051596D01*
X142651789Y-154051596D02*
X142625004Y-153980167D01*
X142625004Y-153980167D02*
X142558039Y-153944453D01*
X142558039Y-153944453D02*
X142415182Y-153944453D01*
X142415182Y-153944453D02*
X142339289Y-153980167D01*
X142607147Y-154408739D02*
X142531254Y-154444453D01*
X142531254Y-154444453D02*
X142352682Y-154444453D01*
X142352682Y-154444453D02*
X142285718Y-154408739D01*
X142285718Y-154408739D02*
X142258932Y-154337310D01*
X142258932Y-154337310D02*
X142267861Y-154265881D01*
X142267861Y-154265881D02*
X142312504Y-154194453D01*
X142312504Y-154194453D02*
X142388397Y-154158739D01*
X142388397Y-154158739D02*
X142566968Y-154158739D01*
X142566968Y-154158739D02*
X142642861Y-154123024D01*
X142928575Y-154408739D02*
X142995539Y-154444453D01*
X142995539Y-154444453D02*
X143138396Y-154444453D01*
X143138396Y-154444453D02*
X143214289Y-154408739D01*
X143214289Y-154408739D02*
X143258932Y-154337310D01*
X143258932Y-154337310D02*
X143263396Y-154301596D01*
X143263396Y-154301596D02*
X143236610Y-154230167D01*
X143236610Y-154230167D02*
X143169646Y-154194453D01*
X143169646Y-154194453D02*
X143062503Y-154194453D01*
X143062503Y-154194453D02*
X142995539Y-154158739D01*
X142995539Y-154158739D02*
X142968753Y-154087310D01*
X142968753Y-154087310D02*
X142973218Y-154051596D01*
X142973218Y-154051596D02*
X143017860Y-153980167D01*
X143017860Y-153980167D02*
X143093753Y-153944453D01*
X143093753Y-153944453D02*
X143200896Y-153944453D01*
X143200896Y-153944453D02*
X143267860Y-153980167D01*
X143629468Y-153944453D02*
X143535718Y-154694453D01*
X143625003Y-153980167D02*
X143700896Y-153944453D01*
X143700896Y-153944453D02*
X143843753Y-153944453D01*
X143843753Y-153944453D02*
X143910718Y-153980167D01*
X143910718Y-153980167D02*
X143941968Y-154015881D01*
X143941968Y-154015881D02*
X143968753Y-154087310D01*
X143968753Y-154087310D02*
X143941968Y-154301596D01*
X143941968Y-154301596D02*
X143897325Y-154373024D01*
X143897325Y-154373024D02*
X143857146Y-154408739D01*
X143857146Y-154408739D02*
X143781253Y-154444453D01*
X143781253Y-154444453D02*
X143638396Y-154444453D01*
X143638396Y-154444453D02*
X143571432Y-154408739D01*
X144245539Y-154444453D02*
X144339289Y-153694453D01*
X144303574Y-153980167D02*
X144379467Y-153944453D01*
X144379467Y-153944453D02*
X144522324Y-153944453D01*
X144522324Y-153944453D02*
X144589289Y-153980167D01*
X144589289Y-153980167D02*
X144620539Y-154015881D01*
X144620539Y-154015881D02*
X144647324Y-154087310D01*
X144647324Y-154087310D02*
X144620539Y-154301596D01*
X144620539Y-154301596D02*
X144575896Y-154373024D01*
X144575896Y-154373024D02*
X144535717Y-154408739D01*
X144535717Y-154408739D02*
X144459824Y-154444453D01*
X144459824Y-154444453D02*
X144316967Y-154444453D01*
X144316967Y-154444453D02*
X144250003Y-154408739D01*
X145214288Y-154408739D02*
X145138395Y-154444453D01*
X145138395Y-154444453D02*
X144995538Y-154444453D01*
X144995538Y-154444453D02*
X144928574Y-154408739D01*
X144928574Y-154408739D02*
X144901788Y-154337310D01*
X144901788Y-154337310D02*
X144937503Y-154051596D01*
X144937503Y-154051596D02*
X144982145Y-153980167D01*
X144982145Y-153980167D02*
X145058038Y-153944453D01*
X145058038Y-153944453D02*
X145200895Y-153944453D01*
X145200895Y-153944453D02*
X145267860Y-153980167D01*
X145267860Y-153980167D02*
X145294645Y-154051596D01*
X145294645Y-154051596D02*
X145285717Y-154123024D01*
X145285717Y-154123024D02*
X144919645Y-154194453D01*
X145566967Y-154444453D02*
X145629467Y-153944453D01*
X145611610Y-154087310D02*
X145656252Y-154015881D01*
X145656252Y-154015881D02*
X145696431Y-153980167D01*
X145696431Y-153980167D02*
X145772324Y-153944453D01*
X145772324Y-153944453D02*
X145843752Y-153944453D01*
X146031253Y-154444453D02*
X146093753Y-153944453D01*
X146075896Y-154087310D02*
X146120538Y-154015881D01*
X146120538Y-154015881D02*
X146160717Y-153980167D01*
X146160717Y-153980167D02*
X146236610Y-153944453D01*
X146236610Y-153944453D02*
X146308038Y-153944453D01*
X146486610Y-153944453D02*
X146602682Y-154444453D01*
X146843753Y-153944453D02*
X146602682Y-154444453D01*
X146602682Y-154444453D02*
X146508932Y-154623024D01*
X146508932Y-154623024D02*
X146468753Y-154658739D01*
X146468753Y-154658739D02*
X146392860Y-154694453D01*
X147129468Y-153944453D02*
X147035718Y-154694453D01*
X147125003Y-153980167D02*
X147200896Y-153944453D01*
X147200896Y-153944453D02*
X147343753Y-153944453D01*
X147343753Y-153944453D02*
X147410718Y-153980167D01*
X147410718Y-153980167D02*
X147441968Y-154015881D01*
X147441968Y-154015881D02*
X147468753Y-154087310D01*
X147468753Y-154087310D02*
X147441968Y-154301596D01*
X147441968Y-154301596D02*
X147397325Y-154373024D01*
X147397325Y-154373024D02*
X147357146Y-154408739D01*
X147357146Y-154408739D02*
X147281253Y-154444453D01*
X147281253Y-154444453D02*
X147138396Y-154444453D01*
X147138396Y-154444453D02*
X147071432Y-154408739D01*
X147745539Y-154444453D02*
X147808039Y-153944453D01*
X147839289Y-153694453D02*
X147799110Y-153730167D01*
X147799110Y-153730167D02*
X147830360Y-153765881D01*
X147830360Y-153765881D02*
X147870539Y-153730167D01*
X147870539Y-153730167D02*
X147839289Y-153694453D01*
X147839289Y-153694453D02*
X147830360Y-153765881D01*
X148736610Y-153658739D02*
X147973217Y-154623024D01*
X148888396Y-154444453D02*
X148982146Y-153694453D01*
X149209824Y-154444453D02*
X149258931Y-154051596D01*
X149258931Y-154051596D02*
X149232146Y-153980167D01*
X149232146Y-153980167D02*
X149165181Y-153944453D01*
X149165181Y-153944453D02*
X149058039Y-153944453D01*
X149058039Y-153944453D02*
X148982146Y-153980167D01*
X148982146Y-153980167D02*
X148941967Y-154015881D01*
X149888395Y-154444453D02*
X149937502Y-154051596D01*
X149937502Y-154051596D02*
X149910717Y-153980167D01*
X149910717Y-153980167D02*
X149843752Y-153944453D01*
X149843752Y-153944453D02*
X149700895Y-153944453D01*
X149700895Y-153944453D02*
X149625002Y-153980167D01*
X149892860Y-154408739D02*
X149816967Y-154444453D01*
X149816967Y-154444453D02*
X149638395Y-154444453D01*
X149638395Y-154444453D02*
X149571431Y-154408739D01*
X149571431Y-154408739D02*
X149544645Y-154337310D01*
X149544645Y-154337310D02*
X149553574Y-154265881D01*
X149553574Y-154265881D02*
X149598217Y-154194453D01*
X149598217Y-154194453D02*
X149674110Y-154158739D01*
X149674110Y-154158739D02*
X149852681Y-154158739D01*
X149852681Y-154158739D02*
X149928574Y-154123024D01*
X150200895Y-153944453D02*
X150486609Y-153944453D01*
X150339288Y-153694453D02*
X150258931Y-154337310D01*
X150258931Y-154337310D02*
X150285716Y-154408739D01*
X150285716Y-154408739D02*
X150352681Y-154444453D01*
X150352681Y-154444453D02*
X150424109Y-154444453D01*
X150642859Y-154408739D02*
X150709823Y-154444453D01*
X150709823Y-154444453D02*
X150852680Y-154444453D01*
X150852680Y-154444453D02*
X150928573Y-154408739D01*
X150928573Y-154408739D02*
X150973216Y-154337310D01*
X150973216Y-154337310D02*
X150977680Y-154301596D01*
X150977680Y-154301596D02*
X150950894Y-154230167D01*
X150950894Y-154230167D02*
X150883930Y-154194453D01*
X150883930Y-154194453D02*
X150776787Y-154194453D01*
X150776787Y-154194453D02*
X150709823Y-154158739D01*
X150709823Y-154158739D02*
X150683037Y-154087310D01*
X150683037Y-154087310D02*
X150687502Y-154051596D01*
X150687502Y-154051596D02*
X150732144Y-153980167D01*
X150732144Y-153980167D02*
X150808037Y-153944453D01*
X150808037Y-153944453D02*
X150915180Y-153944453D01*
X150915180Y-153944453D02*
X150982144Y-153980167D01*
X151915180Y-153658739D02*
X151151787Y-154623024D01*
X152066966Y-154444453D02*
X152160716Y-153694453D01*
X152125001Y-153980167D02*
X152200894Y-153944453D01*
X152200894Y-153944453D02*
X152343751Y-153944453D01*
X152343751Y-153944453D02*
X152410716Y-153980167D01*
X152410716Y-153980167D02*
X152441966Y-154015881D01*
X152441966Y-154015881D02*
X152468751Y-154087310D01*
X152468751Y-154087310D02*
X152441966Y-154301596D01*
X152441966Y-154301596D02*
X152397323Y-154373024D01*
X152397323Y-154373024D02*
X152357144Y-154408739D01*
X152357144Y-154408739D02*
X152281251Y-154444453D01*
X152281251Y-154444453D02*
X152138394Y-154444453D01*
X152138394Y-154444453D02*
X152071430Y-154408739D01*
X152852680Y-154444453D02*
X152785715Y-154408739D01*
X152785715Y-154408739D02*
X152758930Y-154337310D01*
X152758930Y-154337310D02*
X152839287Y-153694453D01*
X153245537Y-154444453D02*
X153178572Y-154408739D01*
X153178572Y-154408739D02*
X153147322Y-154373024D01*
X153147322Y-154373024D02*
X153120537Y-154301596D01*
X153120537Y-154301596D02*
X153147322Y-154087310D01*
X153147322Y-154087310D02*
X153191965Y-154015881D01*
X153191965Y-154015881D02*
X153232144Y-153980167D01*
X153232144Y-153980167D02*
X153308037Y-153944453D01*
X153308037Y-153944453D02*
X153415179Y-153944453D01*
X153415179Y-153944453D02*
X153482144Y-153980167D01*
X153482144Y-153980167D02*
X153513394Y-154015881D01*
X153513394Y-154015881D02*
X153540179Y-154087310D01*
X153540179Y-154087310D02*
X153513394Y-154301596D01*
X153513394Y-154301596D02*
X153468751Y-154373024D01*
X153468751Y-154373024D02*
X153428572Y-154408739D01*
X153428572Y-154408739D02*
X153352679Y-154444453D01*
X153352679Y-154444453D02*
X153245537Y-154444453D01*
X153816965Y-154444453D02*
X153910715Y-153694453D01*
X153875000Y-153980167D02*
X153950893Y-153944453D01*
X153950893Y-153944453D02*
X154093750Y-153944453D01*
X154093750Y-153944453D02*
X154160715Y-153980167D01*
X154160715Y-153980167D02*
X154191965Y-154015881D01*
X154191965Y-154015881D02*
X154218750Y-154087310D01*
X154218750Y-154087310D02*
X154191965Y-154301596D01*
X154191965Y-154301596D02*
X154147322Y-154373024D01*
X154147322Y-154373024D02*
X154107143Y-154408739D01*
X154107143Y-154408739D02*
X154031250Y-154444453D01*
X154031250Y-154444453D02*
X153888393Y-154444453D01*
X153888393Y-154444453D02*
X153821429Y-154408739D01*
X155129464Y-153658739D02*
X154366071Y-154623024D01*
X155281250Y-154444453D02*
X155343750Y-153944453D01*
X155334821Y-154015881D02*
X155375000Y-153980167D01*
X155375000Y-153980167D02*
X155450893Y-153944453D01*
X155450893Y-153944453D02*
X155558035Y-153944453D01*
X155558035Y-153944453D02*
X155625000Y-153980167D01*
X155625000Y-153980167D02*
X155651785Y-154051596D01*
X155651785Y-154051596D02*
X155602678Y-154444453D01*
X155651785Y-154051596D02*
X155696428Y-153980167D01*
X155696428Y-153980167D02*
X155772321Y-153944453D01*
X155772321Y-153944453D02*
X155879464Y-153944453D01*
X155879464Y-153944453D02*
X155946428Y-153980167D01*
X155946428Y-153980167D02*
X155973214Y-154051596D01*
X155973214Y-154051596D02*
X155924107Y-154444453D01*
X156602678Y-154444453D02*
X156651785Y-154051596D01*
X156651785Y-154051596D02*
X156625000Y-153980167D01*
X156625000Y-153980167D02*
X156558035Y-153944453D01*
X156558035Y-153944453D02*
X156415178Y-153944453D01*
X156415178Y-153944453D02*
X156339285Y-153980167D01*
X156607143Y-154408739D02*
X156531250Y-154444453D01*
X156531250Y-154444453D02*
X156352678Y-154444453D01*
X156352678Y-154444453D02*
X156285714Y-154408739D01*
X156285714Y-154408739D02*
X156258928Y-154337310D01*
X156258928Y-154337310D02*
X156267857Y-154265881D01*
X156267857Y-154265881D02*
X156312500Y-154194453D01*
X156312500Y-154194453D02*
X156388393Y-154158739D01*
X156388393Y-154158739D02*
X156566964Y-154158739D01*
X156566964Y-154158739D02*
X156642857Y-154123024D01*
X156928571Y-154408739D02*
X156995535Y-154444453D01*
X156995535Y-154444453D02*
X157138392Y-154444453D01*
X157138392Y-154444453D02*
X157214285Y-154408739D01*
X157214285Y-154408739D02*
X157258928Y-154337310D01*
X157258928Y-154337310D02*
X157263392Y-154301596D01*
X157263392Y-154301596D02*
X157236606Y-154230167D01*
X157236606Y-154230167D02*
X157169642Y-154194453D01*
X157169642Y-154194453D02*
X157062499Y-154194453D01*
X157062499Y-154194453D02*
X156995535Y-154158739D01*
X156995535Y-154158739D02*
X156968749Y-154087310D01*
X156968749Y-154087310D02*
X156973214Y-154051596D01*
X156973214Y-154051596D02*
X157017856Y-153980167D01*
X157017856Y-153980167D02*
X157093749Y-153944453D01*
X157093749Y-153944453D02*
X157200892Y-153944453D01*
X157200892Y-153944453D02*
X157267856Y-153980167D01*
X157522321Y-153944453D02*
X157808035Y-153944453D01*
X157660714Y-153694453D02*
X157580357Y-154337310D01*
X157580357Y-154337310D02*
X157607142Y-154408739D01*
X157607142Y-154408739D02*
X157674107Y-154444453D01*
X157674107Y-154444453D02*
X157745535Y-154444453D01*
X158285713Y-154408739D02*
X158209820Y-154444453D01*
X158209820Y-154444453D02*
X158066963Y-154444453D01*
X158066963Y-154444453D02*
X157999999Y-154408739D01*
X157999999Y-154408739D02*
X157973213Y-154337310D01*
X157973213Y-154337310D02*
X158008928Y-154051596D01*
X158008928Y-154051596D02*
X158053570Y-153980167D01*
X158053570Y-153980167D02*
X158129463Y-153944453D01*
X158129463Y-153944453D02*
X158272320Y-153944453D01*
X158272320Y-153944453D02*
X158339285Y-153980167D01*
X158339285Y-153980167D02*
X158366070Y-154051596D01*
X158366070Y-154051596D02*
X158357142Y-154123024D01*
X158357142Y-154123024D02*
X157991070Y-154194453D01*
X158638392Y-154444453D02*
X158700892Y-153944453D01*
X158683035Y-154087310D02*
X158727677Y-154015881D01*
X158727677Y-154015881D02*
X158767856Y-153980167D01*
X158767856Y-153980167D02*
X158843749Y-153944453D01*
X158843749Y-153944453D02*
X158915177Y-153944453D01*
X159736606Y-153658739D02*
X158973213Y-154623024D01*
X159888392Y-154444453D02*
X159982142Y-153694453D01*
X160209820Y-154444453D02*
X160258927Y-154051596D01*
X160258927Y-154051596D02*
X160232142Y-153980167D01*
X160232142Y-153980167D02*
X160165177Y-153944453D01*
X160165177Y-153944453D02*
X160058035Y-153944453D01*
X160058035Y-153944453D02*
X159982142Y-153980167D01*
X159982142Y-153980167D02*
X159941963Y-154015881D01*
X160888391Y-154444453D02*
X160937498Y-154051596D01*
X160937498Y-154051596D02*
X160910713Y-153980167D01*
X160910713Y-153980167D02*
X160843748Y-153944453D01*
X160843748Y-153944453D02*
X160700891Y-153944453D01*
X160700891Y-153944453D02*
X160624998Y-153980167D01*
X160892856Y-154408739D02*
X160816963Y-154444453D01*
X160816963Y-154444453D02*
X160638391Y-154444453D01*
X160638391Y-154444453D02*
X160571427Y-154408739D01*
X160571427Y-154408739D02*
X160544641Y-154337310D01*
X160544641Y-154337310D02*
X160553570Y-154265881D01*
X160553570Y-154265881D02*
X160598213Y-154194453D01*
X160598213Y-154194453D02*
X160674106Y-154158739D01*
X160674106Y-154158739D02*
X160852677Y-154158739D01*
X160852677Y-154158739D02*
X160928570Y-154123024D01*
X161200891Y-153944453D02*
X161486605Y-153944453D01*
X161339284Y-153694453D02*
X161258927Y-154337310D01*
X161258927Y-154337310D02*
X161285712Y-154408739D01*
X161285712Y-154408739D02*
X161352677Y-154444453D01*
X161352677Y-154444453D02*
X161424105Y-154444453D01*
X161709819Y-154158739D02*
X162281248Y-154158739D01*
X162602676Y-154444453D02*
X162696426Y-153694453D01*
X162660711Y-153980167D02*
X162736604Y-153944453D01*
X162736604Y-153944453D02*
X162879461Y-153944453D01*
X162879461Y-153944453D02*
X162946426Y-153980167D01*
X162946426Y-153980167D02*
X162977676Y-154015881D01*
X162977676Y-154015881D02*
X163004461Y-154087310D01*
X163004461Y-154087310D02*
X162977676Y-154301596D01*
X162977676Y-154301596D02*
X162933033Y-154373024D01*
X162933033Y-154373024D02*
X162892854Y-154408739D01*
X162892854Y-154408739D02*
X162816961Y-154444453D01*
X162816961Y-154444453D02*
X162674104Y-154444453D01*
X162674104Y-154444453D02*
X162607140Y-154408739D01*
X163388390Y-154444453D02*
X163321425Y-154408739D01*
X163321425Y-154408739D02*
X163290175Y-154373024D01*
X163290175Y-154373024D02*
X163263390Y-154301596D01*
X163263390Y-154301596D02*
X163290175Y-154087310D01*
X163290175Y-154087310D02*
X163334818Y-154015881D01*
X163334818Y-154015881D02*
X163374997Y-153980167D01*
X163374997Y-153980167D02*
X163450890Y-153944453D01*
X163450890Y-153944453D02*
X163558032Y-153944453D01*
X163558032Y-153944453D02*
X163624997Y-153980167D01*
X163624997Y-153980167D02*
X163656247Y-154015881D01*
X163656247Y-154015881D02*
X163683032Y-154087310D01*
X163683032Y-154087310D02*
X163656247Y-154301596D01*
X163656247Y-154301596D02*
X163611604Y-154373024D01*
X163611604Y-154373024D02*
X163571425Y-154408739D01*
X163571425Y-154408739D02*
X163495532Y-154444453D01*
X163495532Y-154444453D02*
X163388390Y-154444453D01*
X164281246Y-154444453D02*
X164330353Y-154051596D01*
X164330353Y-154051596D02*
X164303568Y-153980167D01*
X164303568Y-153980167D02*
X164236603Y-153944453D01*
X164236603Y-153944453D02*
X164093746Y-153944453D01*
X164093746Y-153944453D02*
X164017853Y-153980167D01*
X164285711Y-154408739D02*
X164209818Y-154444453D01*
X164209818Y-154444453D02*
X164031246Y-154444453D01*
X164031246Y-154444453D02*
X163964282Y-154408739D01*
X163964282Y-154408739D02*
X163937496Y-154337310D01*
X163937496Y-154337310D02*
X163946425Y-154265881D01*
X163946425Y-154265881D02*
X163991068Y-154194453D01*
X163991068Y-154194453D02*
X164066961Y-154158739D01*
X164066961Y-154158739D02*
X164245532Y-154158739D01*
X164245532Y-154158739D02*
X164321425Y-154123024D01*
X164638389Y-154444453D02*
X164700889Y-153944453D01*
X164683032Y-154087310D02*
X164727674Y-154015881D01*
X164727674Y-154015881D02*
X164767853Y-153980167D01*
X164767853Y-153980167D02*
X164843746Y-153944453D01*
X164843746Y-153944453D02*
X164915174Y-153944453D01*
X165424103Y-154444453D02*
X165517853Y-153694453D01*
X165428568Y-154408739D02*
X165352675Y-154444453D01*
X165352675Y-154444453D02*
X165209818Y-154444453D01*
X165209818Y-154444453D02*
X165142853Y-154408739D01*
X165142853Y-154408739D02*
X165111603Y-154373024D01*
X165111603Y-154373024D02*
X165084818Y-154301596D01*
X165084818Y-154301596D02*
X165111603Y-154087310D01*
X165111603Y-154087310D02*
X165156246Y-154015881D01*
X165156246Y-154015881D02*
X165196425Y-153980167D01*
X165196425Y-153980167D02*
X165272318Y-153944453D01*
X165272318Y-153944453D02*
X165415175Y-153944453D01*
X165415175Y-153944453D02*
X165482139Y-153980167D01*
X165816960Y-154158739D02*
X166388389Y-154158739D01*
X166709817Y-154444453D02*
X166772317Y-153944453D01*
X166763388Y-154015881D02*
X166803567Y-153980167D01*
X166803567Y-153980167D02*
X166879460Y-153944453D01*
X166879460Y-153944453D02*
X166986602Y-153944453D01*
X166986602Y-153944453D02*
X167053567Y-153980167D01*
X167053567Y-153980167D02*
X167080352Y-154051596D01*
X167080352Y-154051596D02*
X167031245Y-154444453D01*
X167080352Y-154051596D02*
X167124995Y-153980167D01*
X167124995Y-153980167D02*
X167200888Y-153944453D01*
X167200888Y-153944453D02*
X167308031Y-153944453D01*
X167308031Y-153944453D02*
X167374995Y-153980167D01*
X167374995Y-153980167D02*
X167401781Y-154051596D01*
X167401781Y-154051596D02*
X167352674Y-154444453D01*
X167999995Y-154408739D02*
X167924102Y-154444453D01*
X167924102Y-154444453D02*
X167781245Y-154444453D01*
X167781245Y-154444453D02*
X167714281Y-154408739D01*
X167714281Y-154408739D02*
X167687495Y-154337310D01*
X167687495Y-154337310D02*
X167723210Y-154051596D01*
X167723210Y-154051596D02*
X167767852Y-153980167D01*
X167767852Y-153980167D02*
X167843745Y-153944453D01*
X167843745Y-153944453D02*
X167986602Y-153944453D01*
X167986602Y-153944453D02*
X168053567Y-153980167D01*
X168053567Y-153980167D02*
X168080352Y-154051596D01*
X168080352Y-154051596D02*
X168071424Y-154123024D01*
X168071424Y-154123024D02*
X167705352Y-154194453D01*
X168678567Y-154408739D02*
X168602674Y-154444453D01*
X168602674Y-154444453D02*
X168459817Y-154444453D01*
X168459817Y-154444453D02*
X168392852Y-154408739D01*
X168392852Y-154408739D02*
X168361602Y-154373024D01*
X168361602Y-154373024D02*
X168334817Y-154301596D01*
X168334817Y-154301596D02*
X168361602Y-154087310D01*
X168361602Y-154087310D02*
X168406245Y-154015881D01*
X168406245Y-154015881D02*
X168446424Y-153980167D01*
X168446424Y-153980167D02*
X168522317Y-153944453D01*
X168522317Y-153944453D02*
X168665174Y-153944453D01*
X168665174Y-153944453D02*
X168732138Y-153980167D01*
X168995531Y-154444453D02*
X169089281Y-153694453D01*
X169316959Y-154444453D02*
X169366066Y-154051596D01*
X169366066Y-154051596D02*
X169339281Y-153980167D01*
X169339281Y-153980167D02*
X169272316Y-153944453D01*
X169272316Y-153944453D02*
X169165174Y-153944453D01*
X169165174Y-153944453D02*
X169089281Y-153980167D01*
X169089281Y-153980167D02*
X169049102Y-154015881D01*
X169995530Y-154444453D02*
X170044637Y-154051596D01*
X170044637Y-154051596D02*
X170017852Y-153980167D01*
X170017852Y-153980167D02*
X169950887Y-153944453D01*
X169950887Y-153944453D02*
X169808030Y-153944453D01*
X169808030Y-153944453D02*
X169732137Y-153980167D01*
X169999995Y-154408739D02*
X169924102Y-154444453D01*
X169924102Y-154444453D02*
X169745530Y-154444453D01*
X169745530Y-154444453D02*
X169678566Y-154408739D01*
X169678566Y-154408739D02*
X169651780Y-154337310D01*
X169651780Y-154337310D02*
X169660709Y-154265881D01*
X169660709Y-154265881D02*
X169705352Y-154194453D01*
X169705352Y-154194453D02*
X169781245Y-154158739D01*
X169781245Y-154158739D02*
X169959816Y-154158739D01*
X169959816Y-154158739D02*
X170035709Y-154123024D01*
X170415173Y-153944453D02*
X170352673Y-154444453D01*
X170406244Y-154015881D02*
X170446423Y-153980167D01*
X170446423Y-153980167D02*
X170522316Y-153944453D01*
X170522316Y-153944453D02*
X170629458Y-153944453D01*
X170629458Y-153944453D02*
X170696423Y-153980167D01*
X170696423Y-153980167D02*
X170723208Y-154051596D01*
X170723208Y-154051596D02*
X170674101Y-154444453D01*
X171031244Y-154444453D02*
X171093744Y-153944453D01*
X171124994Y-153694453D02*
X171084815Y-153730167D01*
X171084815Y-153730167D02*
X171116065Y-153765881D01*
X171116065Y-153765881D02*
X171156244Y-153730167D01*
X171156244Y-153730167D02*
X171124994Y-153694453D01*
X171124994Y-153694453D02*
X171116065Y-153765881D01*
X171714280Y-154408739D02*
X171638387Y-154444453D01*
X171638387Y-154444453D02*
X171495530Y-154444453D01*
X171495530Y-154444453D02*
X171428565Y-154408739D01*
X171428565Y-154408739D02*
X171397315Y-154373024D01*
X171397315Y-154373024D02*
X171370530Y-154301596D01*
X171370530Y-154301596D02*
X171397315Y-154087310D01*
X171397315Y-154087310D02*
X171441958Y-154015881D01*
X171441958Y-154015881D02*
X171482137Y-153980167D01*
X171482137Y-153980167D02*
X171558030Y-153944453D01*
X171558030Y-153944453D02*
X171700887Y-153944453D01*
X171700887Y-153944453D02*
X171767851Y-153980167D01*
X172352672Y-154444453D02*
X172401779Y-154051596D01*
X172401779Y-154051596D02*
X172374994Y-153980167D01*
X172374994Y-153980167D02*
X172308029Y-153944453D01*
X172308029Y-153944453D02*
X172165172Y-153944453D01*
X172165172Y-153944453D02*
X172089279Y-153980167D01*
X172357137Y-154408739D02*
X172281244Y-154444453D01*
X172281244Y-154444453D02*
X172102672Y-154444453D01*
X172102672Y-154444453D02*
X172035708Y-154408739D01*
X172035708Y-154408739D02*
X172008922Y-154337310D01*
X172008922Y-154337310D02*
X172017851Y-154265881D01*
X172017851Y-154265881D02*
X172062494Y-154194453D01*
X172062494Y-154194453D02*
X172138387Y-154158739D01*
X172138387Y-154158739D02*
X172316958Y-154158739D01*
X172316958Y-154158739D02*
X172392851Y-154123024D01*
X172816958Y-154444453D02*
X172749993Y-154408739D01*
X172749993Y-154408739D02*
X172723208Y-154337310D01*
X172723208Y-154337310D02*
X172803565Y-153694453D01*
X173111600Y-154373024D02*
X173142850Y-154408739D01*
X173142850Y-154408739D02*
X173102672Y-154444453D01*
X173102672Y-154444453D02*
X173071422Y-154408739D01*
X173071422Y-154408739D02*
X173111600Y-154373024D01*
X173111600Y-154373024D02*
X173102672Y-154444453D01*
X173522315Y-153944453D02*
X173428565Y-154694453D01*
X173517850Y-153980167D02*
X173593743Y-153944453D01*
X173593743Y-153944453D02*
X173736600Y-153944453D01*
X173736600Y-153944453D02*
X173803565Y-153980167D01*
X173803565Y-153980167D02*
X173834815Y-154015881D01*
X173834815Y-154015881D02*
X173861600Y-154087310D01*
X173861600Y-154087310D02*
X173834815Y-154301596D01*
X173834815Y-154301596D02*
X173790172Y-154373024D01*
X173790172Y-154373024D02*
X173749993Y-154408739D01*
X173749993Y-154408739D02*
X173674100Y-154444453D01*
X173674100Y-154444453D02*
X173531243Y-154444453D01*
X173531243Y-154444453D02*
X173464279Y-154408739D01*
X174459814Y-154444453D02*
X174553564Y-153694453D01*
X174464279Y-154408739D02*
X174388386Y-154444453D01*
X174388386Y-154444453D02*
X174245529Y-154444453D01*
X174245529Y-154444453D02*
X174178564Y-154408739D01*
X174178564Y-154408739D02*
X174147314Y-154373024D01*
X174147314Y-154373024D02*
X174120529Y-154301596D01*
X174120529Y-154301596D02*
X174147314Y-154087310D01*
X174147314Y-154087310D02*
X174191957Y-154015881D01*
X174191957Y-154015881D02*
X174232136Y-153980167D01*
X174232136Y-153980167D02*
X174308029Y-153944453D01*
X174308029Y-153944453D02*
X174450886Y-153944453D01*
X174450886Y-153944453D02*
X174517850Y-153980167D01*
X174772314Y-153944453D02*
X175058028Y-153944453D01*
X174816957Y-154444453D02*
X174897314Y-153801596D01*
X174897314Y-153801596D02*
X174941957Y-153730167D01*
X174941957Y-153730167D02*
X175017850Y-153694453D01*
X175017850Y-153694453D02*
X175089278Y-153694453D01*
D10*
X195453633Y-26904438D02*
X196120299Y-28904438D01*
X196120299Y-28904438D02*
X196786966Y-26904438D01*
X197453633Y-28142533D02*
X198977443Y-28142533D01*
X201072680Y-28713961D02*
X200977442Y-28809200D01*
X200977442Y-28809200D02*
X200691728Y-28904438D01*
X200691728Y-28904438D02*
X200501252Y-28904438D01*
X200501252Y-28904438D02*
X200215537Y-28809200D01*
X200215537Y-28809200D02*
X200025061Y-28618723D01*
X200025061Y-28618723D02*
X199929823Y-28428247D01*
X199929823Y-28428247D02*
X199834585Y-28047295D01*
X199834585Y-28047295D02*
X199834585Y-27761580D01*
X199834585Y-27761580D02*
X199929823Y-27380628D01*
X199929823Y-27380628D02*
X200025061Y-27190152D01*
X200025061Y-27190152D02*
X200215537Y-26999676D01*
X200215537Y-26999676D02*
X200501252Y-26904438D01*
X200501252Y-26904438D02*
X200691728Y-26904438D01*
X200691728Y-26904438D02*
X200977442Y-26999676D01*
X200977442Y-26999676D02*
X201072680Y-27094914D01*
X201929823Y-26904438D02*
X201929823Y-28523485D01*
X201929823Y-28523485D02*
X202025061Y-28713961D01*
X202025061Y-28713961D02*
X202120299Y-28809200D01*
X202120299Y-28809200D02*
X202310775Y-28904438D01*
X202310775Y-28904438D02*
X202691728Y-28904438D01*
X202691728Y-28904438D02*
X202882204Y-28809200D01*
X202882204Y-28809200D02*
X202977442Y-28713961D01*
X202977442Y-28713961D02*
X203072680Y-28523485D01*
X203072680Y-28523485D02*
X203072680Y-26904438D01*
X203739347Y-26904438D02*
X204882204Y-26904438D01*
X204310775Y-28904438D02*
X204310775Y-26904438D01*
X179904438Y-13546366D02*
X181904438Y-12879700D01*
X181904438Y-12879700D02*
X179904438Y-12213033D01*
X181142533Y-11546366D02*
X181142533Y-10022557D01*
X181713961Y-7927319D02*
X181809200Y-8022557D01*
X181809200Y-8022557D02*
X181904438Y-8308271D01*
X181904438Y-8308271D02*
X181904438Y-8498747D01*
X181904438Y-8498747D02*
X181809200Y-8784462D01*
X181809200Y-8784462D02*
X181618723Y-8974938D01*
X181618723Y-8974938D02*
X181428247Y-9070176D01*
X181428247Y-9070176D02*
X181047295Y-9165414D01*
X181047295Y-9165414D02*
X180761580Y-9165414D01*
X180761580Y-9165414D02*
X180380628Y-9070176D01*
X180380628Y-9070176D02*
X180190152Y-8974938D01*
X180190152Y-8974938D02*
X179999676Y-8784462D01*
X179999676Y-8784462D02*
X179904438Y-8498747D01*
X179904438Y-8498747D02*
X179904438Y-8308271D01*
X179904438Y-8308271D02*
X179999676Y-8022557D01*
X179999676Y-8022557D02*
X180094914Y-7927319D01*
X179904438Y-7070176D02*
X181523485Y-7070176D01*
X181523485Y-7070176D02*
X181713961Y-6974938D01*
X181713961Y-6974938D02*
X181809200Y-6879700D01*
X181809200Y-6879700D02*
X181904438Y-6689224D01*
X181904438Y-6689224D02*
X181904438Y-6308271D01*
X181904438Y-6308271D02*
X181809200Y-6117795D01*
X181809200Y-6117795D02*
X181713961Y-6022557D01*
X181713961Y-6022557D02*
X181523485Y-5927319D01*
X181523485Y-5927319D02*
X179904438Y-5927319D01*
X179904438Y-5260652D02*
X179904438Y-4117795D01*
X181904438Y-4689224D02*
X179904438Y-4689224D01*
X114904438Y-13546366D02*
X116904438Y-12879700D01*
X116904438Y-12879700D02*
X114904438Y-12213033D01*
X116142533Y-11546366D02*
X116142533Y-10022557D01*
X116713961Y-7927319D02*
X116809200Y-8022557D01*
X116809200Y-8022557D02*
X116904438Y-8308271D01*
X116904438Y-8308271D02*
X116904438Y-8498747D01*
X116904438Y-8498747D02*
X116809200Y-8784462D01*
X116809200Y-8784462D02*
X116618723Y-8974938D01*
X116618723Y-8974938D02*
X116428247Y-9070176D01*
X116428247Y-9070176D02*
X116047295Y-9165414D01*
X116047295Y-9165414D02*
X115761580Y-9165414D01*
X115761580Y-9165414D02*
X115380628Y-9070176D01*
X115380628Y-9070176D02*
X115190152Y-8974938D01*
X115190152Y-8974938D02*
X114999676Y-8784462D01*
X114999676Y-8784462D02*
X114904438Y-8498747D01*
X114904438Y-8498747D02*
X114904438Y-8308271D01*
X114904438Y-8308271D02*
X114999676Y-8022557D01*
X114999676Y-8022557D02*
X115094914Y-7927319D01*
X114904438Y-7070176D02*
X116523485Y-7070176D01*
X116523485Y-7070176D02*
X116713961Y-6974938D01*
X116713961Y-6974938D02*
X116809200Y-6879700D01*
X116809200Y-6879700D02*
X116904438Y-6689224D01*
X116904438Y-6689224D02*
X116904438Y-6308271D01*
X116904438Y-6308271D02*
X116809200Y-6117795D01*
X116809200Y-6117795D02*
X116713961Y-6022557D01*
X116713961Y-6022557D02*
X116523485Y-5927319D01*
X116523485Y-5927319D02*
X114904438Y-5927319D01*
X114904438Y-5260652D02*
X114904438Y-4117795D01*
X116904438Y-4689224D02*
X114904438Y-4689224D01*
D11*
X146120537Y-94236995D02*
X146214287Y-93486995D01*
X146214287Y-93486995D02*
X146392858Y-93486995D01*
X146392858Y-93486995D02*
X146495537Y-93522709D01*
X146495537Y-93522709D02*
X146558037Y-93594138D01*
X146558037Y-93594138D02*
X146584822Y-93665566D01*
X146584822Y-93665566D02*
X146602680Y-93808423D01*
X146602680Y-93808423D02*
X146589287Y-93915566D01*
X146589287Y-93915566D02*
X146535715Y-94058423D01*
X146535715Y-94058423D02*
X146491072Y-94129852D01*
X146491072Y-94129852D02*
X146410715Y-94201281D01*
X146410715Y-94201281D02*
X146299108Y-94236995D01*
X146299108Y-94236995D02*
X146120537Y-94236995D01*
X146870537Y-94236995D02*
X146933037Y-93736995D01*
X146964287Y-93486995D02*
X146924108Y-93522709D01*
X146924108Y-93522709D02*
X146955358Y-93558423D01*
X146955358Y-93558423D02*
X146995537Y-93522709D01*
X146995537Y-93522709D02*
X146964287Y-93486995D01*
X146964287Y-93486995D02*
X146955358Y-93558423D01*
X147227680Y-94236995D02*
X147290180Y-93736995D01*
X147281251Y-93808423D02*
X147321430Y-93772709D01*
X147321430Y-93772709D02*
X147397323Y-93736995D01*
X147397323Y-93736995D02*
X147504465Y-93736995D01*
X147504465Y-93736995D02*
X147571430Y-93772709D01*
X147571430Y-93772709D02*
X147598215Y-93844138D01*
X147598215Y-93844138D02*
X147549108Y-94236995D01*
X147598215Y-93844138D02*
X147642858Y-93772709D01*
X147642858Y-93772709D02*
X147718751Y-93736995D01*
X147718751Y-93736995D02*
X147825894Y-93736995D01*
X147825894Y-93736995D02*
X147892858Y-93772709D01*
X147892858Y-93772709D02*
X147919644Y-93844138D01*
X147919644Y-93844138D02*
X147870537Y-94236995D01*
X148517858Y-94201281D02*
X148441965Y-94236995D01*
X148441965Y-94236995D02*
X148299108Y-94236995D01*
X148299108Y-94236995D02*
X148232144Y-94201281D01*
X148232144Y-94201281D02*
X148205358Y-94129852D01*
X148205358Y-94129852D02*
X148241073Y-93844138D01*
X148241073Y-93844138D02*
X148285715Y-93772709D01*
X148285715Y-93772709D02*
X148361608Y-93736995D01*
X148361608Y-93736995D02*
X148504465Y-93736995D01*
X148504465Y-93736995D02*
X148571430Y-93772709D01*
X148571430Y-93772709D02*
X148598215Y-93844138D01*
X148598215Y-93844138D02*
X148589287Y-93915566D01*
X148589287Y-93915566D02*
X148223215Y-93986995D01*
X148933037Y-93736995D02*
X148870537Y-94236995D01*
X148924108Y-93808423D02*
X148964287Y-93772709D01*
X148964287Y-93772709D02*
X149040180Y-93736995D01*
X149040180Y-93736995D02*
X149147322Y-93736995D01*
X149147322Y-93736995D02*
X149214287Y-93772709D01*
X149214287Y-93772709D02*
X149241072Y-93844138D01*
X149241072Y-93844138D02*
X149191965Y-94236995D01*
X149517858Y-94201281D02*
X149584822Y-94236995D01*
X149584822Y-94236995D02*
X149727679Y-94236995D01*
X149727679Y-94236995D02*
X149803572Y-94201281D01*
X149803572Y-94201281D02*
X149848215Y-94129852D01*
X149848215Y-94129852D02*
X149852679Y-94094138D01*
X149852679Y-94094138D02*
X149825893Y-94022709D01*
X149825893Y-94022709D02*
X149758929Y-93986995D01*
X149758929Y-93986995D02*
X149651786Y-93986995D01*
X149651786Y-93986995D02*
X149584822Y-93951281D01*
X149584822Y-93951281D02*
X149558036Y-93879852D01*
X149558036Y-93879852D02*
X149562501Y-93844138D01*
X149562501Y-93844138D02*
X149607143Y-93772709D01*
X149607143Y-93772709D02*
X149683036Y-93736995D01*
X149683036Y-93736995D02*
X149790179Y-93736995D01*
X149790179Y-93736995D02*
X149857143Y-93772709D01*
X150156251Y-94236995D02*
X150218751Y-93736995D01*
X150250001Y-93486995D02*
X150209822Y-93522709D01*
X150209822Y-93522709D02*
X150241072Y-93558423D01*
X150241072Y-93558423D02*
X150281251Y-93522709D01*
X150281251Y-93522709D02*
X150250001Y-93486995D01*
X150250001Y-93486995D02*
X150241072Y-93558423D01*
X150620537Y-94236995D02*
X150553572Y-94201281D01*
X150553572Y-94201281D02*
X150522322Y-94165566D01*
X150522322Y-94165566D02*
X150495537Y-94094138D01*
X150495537Y-94094138D02*
X150522322Y-93879852D01*
X150522322Y-93879852D02*
X150566965Y-93808423D01*
X150566965Y-93808423D02*
X150607144Y-93772709D01*
X150607144Y-93772709D02*
X150683037Y-93736995D01*
X150683037Y-93736995D02*
X150790179Y-93736995D01*
X150790179Y-93736995D02*
X150857144Y-93772709D01*
X150857144Y-93772709D02*
X150888394Y-93808423D01*
X150888394Y-93808423D02*
X150915179Y-93879852D01*
X150915179Y-93879852D02*
X150888394Y-94094138D01*
X150888394Y-94094138D02*
X150843751Y-94165566D01*
X150843751Y-94165566D02*
X150803572Y-94201281D01*
X150803572Y-94201281D02*
X150727679Y-94236995D01*
X150727679Y-94236995D02*
X150620537Y-94236995D01*
X151254465Y-93736995D02*
X151191965Y-94236995D01*
X151245536Y-93808423D02*
X151285715Y-93772709D01*
X151285715Y-93772709D02*
X151361608Y-93736995D01*
X151361608Y-93736995D02*
X151468750Y-93736995D01*
X151468750Y-93736995D02*
X151535715Y-93772709D01*
X151535715Y-93772709D02*
X151562500Y-93844138D01*
X151562500Y-93844138D02*
X151513393Y-94236995D01*
X151839286Y-94201281D02*
X151906250Y-94236995D01*
X151906250Y-94236995D02*
X152049107Y-94236995D01*
X152049107Y-94236995D02*
X152125000Y-94201281D01*
X152125000Y-94201281D02*
X152169643Y-94129852D01*
X152169643Y-94129852D02*
X152174107Y-94094138D01*
X152174107Y-94094138D02*
X152147321Y-94022709D01*
X152147321Y-94022709D02*
X152080357Y-93986995D01*
X152080357Y-93986995D02*
X151973214Y-93986995D01*
X151973214Y-93986995D02*
X151906250Y-93951281D01*
X151906250Y-93951281D02*
X151879464Y-93879852D01*
X151879464Y-93879852D02*
X151883929Y-93844138D01*
X151883929Y-93844138D02*
X151928571Y-93772709D01*
X151928571Y-93772709D02*
X152004464Y-93736995D01*
X152004464Y-93736995D02*
X152111607Y-93736995D01*
X152111607Y-93736995D02*
X152178571Y-93772709D01*
X153004465Y-93736995D02*
X153290179Y-93736995D01*
X153142858Y-93486995D02*
X153062501Y-94129852D01*
X153062501Y-94129852D02*
X153089286Y-94201281D01*
X153089286Y-94201281D02*
X153156251Y-94236995D01*
X153156251Y-94236995D02*
X153227679Y-94236995D01*
X153799107Y-94236995D02*
X153848214Y-93844138D01*
X153848214Y-93844138D02*
X153821429Y-93772709D01*
X153821429Y-93772709D02*
X153754464Y-93736995D01*
X153754464Y-93736995D02*
X153611607Y-93736995D01*
X153611607Y-93736995D02*
X153535714Y-93772709D01*
X153803572Y-94201281D02*
X153727679Y-94236995D01*
X153727679Y-94236995D02*
X153549107Y-94236995D01*
X153549107Y-94236995D02*
X153482143Y-94201281D01*
X153482143Y-94201281D02*
X153455357Y-94129852D01*
X153455357Y-94129852D02*
X153464286Y-94058423D01*
X153464286Y-94058423D02*
X153508929Y-93986995D01*
X153508929Y-93986995D02*
X153584822Y-93951281D01*
X153584822Y-93951281D02*
X153763393Y-93951281D01*
X153763393Y-93951281D02*
X153839286Y-93915566D01*
X154156250Y-94236995D02*
X154250000Y-93486995D01*
X154263393Y-93951281D02*
X154441964Y-94236995D01*
X154504464Y-93736995D02*
X154183035Y-94022709D01*
X155053571Y-94201281D02*
X154977678Y-94236995D01*
X154977678Y-94236995D02*
X154834821Y-94236995D01*
X154834821Y-94236995D02*
X154767857Y-94201281D01*
X154767857Y-94201281D02*
X154741071Y-94129852D01*
X154741071Y-94129852D02*
X154776786Y-93844138D01*
X154776786Y-93844138D02*
X154821428Y-93772709D01*
X154821428Y-93772709D02*
X154897321Y-93736995D01*
X154897321Y-93736995D02*
X155040178Y-93736995D01*
X155040178Y-93736995D02*
X155107143Y-93772709D01*
X155107143Y-93772709D02*
X155133928Y-93844138D01*
X155133928Y-93844138D02*
X155125000Y-93915566D01*
X155125000Y-93915566D02*
X154758928Y-93986995D01*
X155468750Y-93736995D02*
X155406250Y-94236995D01*
X155459821Y-93808423D02*
X155500000Y-93772709D01*
X155500000Y-93772709D02*
X155575893Y-93736995D01*
X155575893Y-93736995D02*
X155683035Y-93736995D01*
X155683035Y-93736995D02*
X155750000Y-93772709D01*
X155750000Y-93772709D02*
X155776785Y-93844138D01*
X155776785Y-93844138D02*
X155727678Y-94236995D01*
X156611607Y-93736995D02*
X156897321Y-93736995D01*
X156656250Y-94236995D02*
X156736607Y-93594138D01*
X156736607Y-93594138D02*
X156781250Y-93522709D01*
X156781250Y-93522709D02*
X156857143Y-93486995D01*
X156857143Y-93486995D02*
X156928571Y-93486995D01*
X157084821Y-94236995D02*
X157147321Y-93736995D01*
X157129464Y-93879852D02*
X157174106Y-93808423D01*
X157174106Y-93808423D02*
X157214285Y-93772709D01*
X157214285Y-93772709D02*
X157290178Y-93736995D01*
X157290178Y-93736995D02*
X157361606Y-93736995D01*
X157656250Y-94236995D02*
X157589285Y-94201281D01*
X157589285Y-94201281D02*
X157558035Y-94165566D01*
X157558035Y-94165566D02*
X157531250Y-94094138D01*
X157531250Y-94094138D02*
X157558035Y-93879852D01*
X157558035Y-93879852D02*
X157602678Y-93808423D01*
X157602678Y-93808423D02*
X157642857Y-93772709D01*
X157642857Y-93772709D02*
X157718750Y-93736995D01*
X157718750Y-93736995D02*
X157825892Y-93736995D01*
X157825892Y-93736995D02*
X157892857Y-93772709D01*
X157892857Y-93772709D02*
X157924107Y-93808423D01*
X157924107Y-93808423D02*
X157950892Y-93879852D01*
X157950892Y-93879852D02*
X157924107Y-94094138D01*
X157924107Y-94094138D02*
X157879464Y-94165566D01*
X157879464Y-94165566D02*
X157839285Y-94201281D01*
X157839285Y-94201281D02*
X157763392Y-94236995D01*
X157763392Y-94236995D02*
X157656250Y-94236995D01*
X158227678Y-94236995D02*
X158290178Y-93736995D01*
X158281249Y-93808423D02*
X158321428Y-93772709D01*
X158321428Y-93772709D02*
X158397321Y-93736995D01*
X158397321Y-93736995D02*
X158504463Y-93736995D01*
X158504463Y-93736995D02*
X158571428Y-93772709D01*
X158571428Y-93772709D02*
X158598213Y-93844138D01*
X158598213Y-93844138D02*
X158549106Y-94236995D01*
X158598213Y-93844138D02*
X158642856Y-93772709D01*
X158642856Y-93772709D02*
X158718749Y-93736995D01*
X158718749Y-93736995D02*
X158825892Y-93736995D01*
X158825892Y-93736995D02*
X158892856Y-93772709D01*
X158892856Y-93772709D02*
X158919642Y-93844138D01*
X158919642Y-93844138D02*
X158870535Y-94236995D01*
X130102687Y-95444453D02*
X130196437Y-94694453D01*
X130424115Y-95444453D02*
X130473222Y-95051596D01*
X130473222Y-95051596D02*
X130446437Y-94980167D01*
X130446437Y-94980167D02*
X130379472Y-94944453D01*
X130379472Y-94944453D02*
X130272330Y-94944453D01*
X130272330Y-94944453D02*
X130196437Y-94980167D01*
X130196437Y-94980167D02*
X130156258Y-95015881D01*
X130736615Y-94944453D02*
X131022329Y-94944453D01*
X130875008Y-94694453D02*
X130794651Y-95337310D01*
X130794651Y-95337310D02*
X130821436Y-95408739D01*
X130821436Y-95408739D02*
X130888401Y-95444453D01*
X130888401Y-95444453D02*
X130959829Y-95444453D01*
X131165186Y-94944453D02*
X131450900Y-94944453D01*
X131303579Y-94694453D02*
X131223222Y-95337310D01*
X131223222Y-95337310D02*
X131250007Y-95408739D01*
X131250007Y-95408739D02*
X131316972Y-95444453D01*
X131316972Y-95444453D02*
X131388400Y-95444453D01*
X131700900Y-94944453D02*
X131607150Y-95694453D01*
X131696435Y-94980167D02*
X131772328Y-94944453D01*
X131772328Y-94944453D02*
X131915185Y-94944453D01*
X131915185Y-94944453D02*
X131982150Y-94980167D01*
X131982150Y-94980167D02*
X132013400Y-95015881D01*
X132013400Y-95015881D02*
X132040185Y-95087310D01*
X132040185Y-95087310D02*
X132013400Y-95301596D01*
X132013400Y-95301596D02*
X131968757Y-95373024D01*
X131968757Y-95373024D02*
X131928578Y-95408739D01*
X131928578Y-95408739D02*
X131852685Y-95444453D01*
X131852685Y-95444453D02*
X131709828Y-95444453D01*
X131709828Y-95444453D02*
X131642864Y-95408739D01*
X132285721Y-95408739D02*
X132352685Y-95444453D01*
X132352685Y-95444453D02*
X132495542Y-95444453D01*
X132495542Y-95444453D02*
X132571435Y-95408739D01*
X132571435Y-95408739D02*
X132616078Y-95337310D01*
X132616078Y-95337310D02*
X132620542Y-95301596D01*
X132620542Y-95301596D02*
X132593756Y-95230167D01*
X132593756Y-95230167D02*
X132526792Y-95194453D01*
X132526792Y-95194453D02*
X132419649Y-95194453D01*
X132419649Y-95194453D02*
X132352685Y-95158739D01*
X132352685Y-95158739D02*
X132325899Y-95087310D01*
X132325899Y-95087310D02*
X132330364Y-95051596D01*
X132330364Y-95051596D02*
X132375006Y-94980167D01*
X132375006Y-94980167D02*
X132450899Y-94944453D01*
X132450899Y-94944453D02*
X132558042Y-94944453D01*
X132558042Y-94944453D02*
X132625006Y-94980167D01*
X132933042Y-95373024D02*
X132964292Y-95408739D01*
X132964292Y-95408739D02*
X132924114Y-95444453D01*
X132924114Y-95444453D02*
X132892864Y-95408739D01*
X132892864Y-95408739D02*
X132933042Y-95373024D01*
X132933042Y-95373024D02*
X132924114Y-95444453D01*
X132982149Y-94980167D02*
X133013399Y-95015881D01*
X133013399Y-95015881D02*
X132973221Y-95051596D01*
X132973221Y-95051596D02*
X132941971Y-95015881D01*
X132941971Y-95015881D02*
X132982149Y-94980167D01*
X132982149Y-94980167D02*
X132973221Y-95051596D01*
X133915185Y-94658739D02*
X133151792Y-95623024D01*
X134700899Y-94658739D02*
X133937506Y-95623024D01*
X135236613Y-94944453D02*
X135160720Y-95551596D01*
X135160720Y-95551596D02*
X135116078Y-95623024D01*
X135116078Y-95623024D02*
X135075899Y-95658739D01*
X135075899Y-95658739D02*
X135000006Y-95694453D01*
X135000006Y-95694453D02*
X134892863Y-95694453D01*
X134892863Y-95694453D02*
X134825899Y-95658739D01*
X135178578Y-95408739D02*
X135102685Y-95444453D01*
X135102685Y-95444453D02*
X134959828Y-95444453D01*
X134959828Y-95444453D02*
X134892863Y-95408739D01*
X134892863Y-95408739D02*
X134861613Y-95373024D01*
X134861613Y-95373024D02*
X134834828Y-95301596D01*
X134834828Y-95301596D02*
X134861613Y-95087310D01*
X134861613Y-95087310D02*
X134906256Y-95015881D01*
X134906256Y-95015881D02*
X134946435Y-94980167D01*
X134946435Y-94980167D02*
X135022328Y-94944453D01*
X135022328Y-94944453D02*
X135165185Y-94944453D01*
X135165185Y-94944453D02*
X135232149Y-94980167D01*
X135531256Y-95444453D02*
X135593756Y-94944453D01*
X135625006Y-94694453D02*
X135584827Y-94730167D01*
X135584827Y-94730167D02*
X135616077Y-94765881D01*
X135616077Y-94765881D02*
X135656256Y-94730167D01*
X135656256Y-94730167D02*
X135625006Y-94694453D01*
X135625006Y-94694453D02*
X135616077Y-94765881D01*
X135843756Y-94944453D02*
X136129470Y-94944453D01*
X135982149Y-94694453D02*
X135901792Y-95337310D01*
X135901792Y-95337310D02*
X135928577Y-95408739D01*
X135928577Y-95408739D02*
X135995542Y-95444453D01*
X135995542Y-95444453D02*
X136066970Y-95444453D01*
X136316970Y-95444453D02*
X136410720Y-94694453D01*
X136638398Y-95444453D02*
X136687505Y-95051596D01*
X136687505Y-95051596D02*
X136660720Y-94980167D01*
X136660720Y-94980167D02*
X136593755Y-94944453D01*
X136593755Y-94944453D02*
X136486613Y-94944453D01*
X136486613Y-94944453D02*
X136410720Y-94980167D01*
X136410720Y-94980167D02*
X136370541Y-95015881D01*
X137379469Y-94944453D02*
X137316969Y-95444453D01*
X137058041Y-94944453D02*
X137008934Y-95337310D01*
X137008934Y-95337310D02*
X137035719Y-95408739D01*
X137035719Y-95408739D02*
X137102684Y-95444453D01*
X137102684Y-95444453D02*
X137209826Y-95444453D01*
X137209826Y-95444453D02*
X137285719Y-95408739D01*
X137285719Y-95408739D02*
X137325898Y-95373024D01*
X137674112Y-95444453D02*
X137767862Y-94694453D01*
X137732147Y-94980167D02*
X137808040Y-94944453D01*
X137808040Y-94944453D02*
X137950897Y-94944453D01*
X137950897Y-94944453D02*
X138017862Y-94980167D01*
X138017862Y-94980167D02*
X138049112Y-95015881D01*
X138049112Y-95015881D02*
X138075897Y-95087310D01*
X138075897Y-95087310D02*
X138049112Y-95301596D01*
X138049112Y-95301596D02*
X138004469Y-95373024D01*
X138004469Y-95373024D02*
X137964290Y-95408739D01*
X137964290Y-95408739D02*
X137888397Y-95444453D01*
X137888397Y-95444453D02*
X137745540Y-95444453D01*
X137745540Y-95444453D02*
X137678576Y-95408739D01*
X138361611Y-95373024D02*
X138392861Y-95408739D01*
X138392861Y-95408739D02*
X138352683Y-95444453D01*
X138352683Y-95444453D02*
X138321433Y-95408739D01*
X138321433Y-95408739D02*
X138361611Y-95373024D01*
X138361611Y-95373024D02*
X138352683Y-95444453D01*
X139035719Y-95408739D02*
X138959826Y-95444453D01*
X138959826Y-95444453D02*
X138816969Y-95444453D01*
X138816969Y-95444453D02*
X138750004Y-95408739D01*
X138750004Y-95408739D02*
X138718754Y-95373024D01*
X138718754Y-95373024D02*
X138691969Y-95301596D01*
X138691969Y-95301596D02*
X138718754Y-95087310D01*
X138718754Y-95087310D02*
X138763397Y-95015881D01*
X138763397Y-95015881D02*
X138803576Y-94980167D01*
X138803576Y-94980167D02*
X138879469Y-94944453D01*
X138879469Y-94944453D02*
X139022326Y-94944453D01*
X139022326Y-94944453D02*
X139089290Y-94980167D01*
X139459826Y-95444453D02*
X139392861Y-95408739D01*
X139392861Y-95408739D02*
X139361611Y-95373024D01*
X139361611Y-95373024D02*
X139334826Y-95301596D01*
X139334826Y-95301596D02*
X139361611Y-95087310D01*
X139361611Y-95087310D02*
X139406254Y-95015881D01*
X139406254Y-95015881D02*
X139446433Y-94980167D01*
X139446433Y-94980167D02*
X139522326Y-94944453D01*
X139522326Y-94944453D02*
X139629468Y-94944453D01*
X139629468Y-94944453D02*
X139696433Y-94980167D01*
X139696433Y-94980167D02*
X139727683Y-95015881D01*
X139727683Y-95015881D02*
X139754468Y-95087310D01*
X139754468Y-95087310D02*
X139727683Y-95301596D01*
X139727683Y-95301596D02*
X139683040Y-95373024D01*
X139683040Y-95373024D02*
X139642861Y-95408739D01*
X139642861Y-95408739D02*
X139566968Y-95444453D01*
X139566968Y-95444453D02*
X139459826Y-95444453D01*
X140031254Y-95444453D02*
X140093754Y-94944453D01*
X140084825Y-95015881D02*
X140125004Y-94980167D01*
X140125004Y-94980167D02*
X140200897Y-94944453D01*
X140200897Y-94944453D02*
X140308039Y-94944453D01*
X140308039Y-94944453D02*
X140375004Y-94980167D01*
X140375004Y-94980167D02*
X140401789Y-95051596D01*
X140401789Y-95051596D02*
X140352682Y-95444453D01*
X140401789Y-95051596D02*
X140446432Y-94980167D01*
X140446432Y-94980167D02*
X140522325Y-94944453D01*
X140522325Y-94944453D02*
X140629468Y-94944453D01*
X140629468Y-94944453D02*
X140696432Y-94980167D01*
X140696432Y-94980167D02*
X140723218Y-95051596D01*
X140723218Y-95051596D02*
X140674111Y-95444453D01*
X141665182Y-94658739D02*
X140901789Y-95623024D01*
X141816968Y-95444453D02*
X141879468Y-94944453D01*
X141861611Y-95087310D02*
X141906253Y-95015881D01*
X141906253Y-95015881D02*
X141946432Y-94980167D01*
X141946432Y-94980167D02*
X142022325Y-94944453D01*
X142022325Y-94944453D02*
X142093753Y-94944453D01*
X142602682Y-95444453D02*
X142651789Y-95051596D01*
X142651789Y-95051596D02*
X142625004Y-94980167D01*
X142625004Y-94980167D02*
X142558039Y-94944453D01*
X142558039Y-94944453D02*
X142415182Y-94944453D01*
X142415182Y-94944453D02*
X142339289Y-94980167D01*
X142607147Y-95408739D02*
X142531254Y-95444453D01*
X142531254Y-95444453D02*
X142352682Y-95444453D01*
X142352682Y-95444453D02*
X142285718Y-95408739D01*
X142285718Y-95408739D02*
X142258932Y-95337310D01*
X142258932Y-95337310D02*
X142267861Y-95265881D01*
X142267861Y-95265881D02*
X142312504Y-95194453D01*
X142312504Y-95194453D02*
X142388397Y-95158739D01*
X142388397Y-95158739D02*
X142566968Y-95158739D01*
X142566968Y-95158739D02*
X142642861Y-95123024D01*
X142928575Y-95408739D02*
X142995539Y-95444453D01*
X142995539Y-95444453D02*
X143138396Y-95444453D01*
X143138396Y-95444453D02*
X143214289Y-95408739D01*
X143214289Y-95408739D02*
X143258932Y-95337310D01*
X143258932Y-95337310D02*
X143263396Y-95301596D01*
X143263396Y-95301596D02*
X143236610Y-95230167D01*
X143236610Y-95230167D02*
X143169646Y-95194453D01*
X143169646Y-95194453D02*
X143062503Y-95194453D01*
X143062503Y-95194453D02*
X142995539Y-95158739D01*
X142995539Y-95158739D02*
X142968753Y-95087310D01*
X142968753Y-95087310D02*
X142973218Y-95051596D01*
X142973218Y-95051596D02*
X143017860Y-94980167D01*
X143017860Y-94980167D02*
X143093753Y-94944453D01*
X143093753Y-94944453D02*
X143200896Y-94944453D01*
X143200896Y-94944453D02*
X143267860Y-94980167D01*
X143629468Y-94944453D02*
X143535718Y-95694453D01*
X143625003Y-94980167D02*
X143700896Y-94944453D01*
X143700896Y-94944453D02*
X143843753Y-94944453D01*
X143843753Y-94944453D02*
X143910718Y-94980167D01*
X143910718Y-94980167D02*
X143941968Y-95015881D01*
X143941968Y-95015881D02*
X143968753Y-95087310D01*
X143968753Y-95087310D02*
X143941968Y-95301596D01*
X143941968Y-95301596D02*
X143897325Y-95373024D01*
X143897325Y-95373024D02*
X143857146Y-95408739D01*
X143857146Y-95408739D02*
X143781253Y-95444453D01*
X143781253Y-95444453D02*
X143638396Y-95444453D01*
X143638396Y-95444453D02*
X143571432Y-95408739D01*
X144245539Y-95444453D02*
X144339289Y-94694453D01*
X144303574Y-94980167D02*
X144379467Y-94944453D01*
X144379467Y-94944453D02*
X144522324Y-94944453D01*
X144522324Y-94944453D02*
X144589289Y-94980167D01*
X144589289Y-94980167D02*
X144620539Y-95015881D01*
X144620539Y-95015881D02*
X144647324Y-95087310D01*
X144647324Y-95087310D02*
X144620539Y-95301596D01*
X144620539Y-95301596D02*
X144575896Y-95373024D01*
X144575896Y-95373024D02*
X144535717Y-95408739D01*
X144535717Y-95408739D02*
X144459824Y-95444453D01*
X144459824Y-95444453D02*
X144316967Y-95444453D01*
X144316967Y-95444453D02*
X144250003Y-95408739D01*
X145214288Y-95408739D02*
X145138395Y-95444453D01*
X145138395Y-95444453D02*
X144995538Y-95444453D01*
X144995538Y-95444453D02*
X144928574Y-95408739D01*
X144928574Y-95408739D02*
X144901788Y-95337310D01*
X144901788Y-95337310D02*
X144937503Y-95051596D01*
X144937503Y-95051596D02*
X144982145Y-94980167D01*
X144982145Y-94980167D02*
X145058038Y-94944453D01*
X145058038Y-94944453D02*
X145200895Y-94944453D01*
X145200895Y-94944453D02*
X145267860Y-94980167D01*
X145267860Y-94980167D02*
X145294645Y-95051596D01*
X145294645Y-95051596D02*
X145285717Y-95123024D01*
X145285717Y-95123024D02*
X144919645Y-95194453D01*
X145566967Y-95444453D02*
X145629467Y-94944453D01*
X145611610Y-95087310D02*
X145656252Y-95015881D01*
X145656252Y-95015881D02*
X145696431Y-94980167D01*
X145696431Y-94980167D02*
X145772324Y-94944453D01*
X145772324Y-94944453D02*
X145843752Y-94944453D01*
X146031253Y-95444453D02*
X146093753Y-94944453D01*
X146075896Y-95087310D02*
X146120538Y-95015881D01*
X146120538Y-95015881D02*
X146160717Y-94980167D01*
X146160717Y-94980167D02*
X146236610Y-94944453D01*
X146236610Y-94944453D02*
X146308038Y-94944453D01*
X146486610Y-94944453D02*
X146602682Y-95444453D01*
X146843753Y-94944453D02*
X146602682Y-95444453D01*
X146602682Y-95444453D02*
X146508932Y-95623024D01*
X146508932Y-95623024D02*
X146468753Y-95658739D01*
X146468753Y-95658739D02*
X146392860Y-95694453D01*
X147129468Y-94944453D02*
X147035718Y-95694453D01*
X147125003Y-94980167D02*
X147200896Y-94944453D01*
X147200896Y-94944453D02*
X147343753Y-94944453D01*
X147343753Y-94944453D02*
X147410718Y-94980167D01*
X147410718Y-94980167D02*
X147441968Y-95015881D01*
X147441968Y-95015881D02*
X147468753Y-95087310D01*
X147468753Y-95087310D02*
X147441968Y-95301596D01*
X147441968Y-95301596D02*
X147397325Y-95373024D01*
X147397325Y-95373024D02*
X147357146Y-95408739D01*
X147357146Y-95408739D02*
X147281253Y-95444453D01*
X147281253Y-95444453D02*
X147138396Y-95444453D01*
X147138396Y-95444453D02*
X147071432Y-95408739D01*
X147745539Y-95444453D02*
X147808039Y-94944453D01*
X147839289Y-94694453D02*
X147799110Y-94730167D01*
X147799110Y-94730167D02*
X147830360Y-94765881D01*
X147830360Y-94765881D02*
X147870539Y-94730167D01*
X147870539Y-94730167D02*
X147839289Y-94694453D01*
X147839289Y-94694453D02*
X147830360Y-94765881D01*
X148736610Y-94658739D02*
X147973217Y-95623024D01*
X148888396Y-95444453D02*
X148982146Y-94694453D01*
X149209824Y-95444453D02*
X149258931Y-95051596D01*
X149258931Y-95051596D02*
X149232146Y-94980167D01*
X149232146Y-94980167D02*
X149165181Y-94944453D01*
X149165181Y-94944453D02*
X149058039Y-94944453D01*
X149058039Y-94944453D02*
X148982146Y-94980167D01*
X148982146Y-94980167D02*
X148941967Y-95015881D01*
X149888395Y-95444453D02*
X149937502Y-95051596D01*
X149937502Y-95051596D02*
X149910717Y-94980167D01*
X149910717Y-94980167D02*
X149843752Y-94944453D01*
X149843752Y-94944453D02*
X149700895Y-94944453D01*
X149700895Y-94944453D02*
X149625002Y-94980167D01*
X149892860Y-95408739D02*
X149816967Y-95444453D01*
X149816967Y-95444453D02*
X149638395Y-95444453D01*
X149638395Y-95444453D02*
X149571431Y-95408739D01*
X149571431Y-95408739D02*
X149544645Y-95337310D01*
X149544645Y-95337310D02*
X149553574Y-95265881D01*
X149553574Y-95265881D02*
X149598217Y-95194453D01*
X149598217Y-95194453D02*
X149674110Y-95158739D01*
X149674110Y-95158739D02*
X149852681Y-95158739D01*
X149852681Y-95158739D02*
X149928574Y-95123024D01*
X150200895Y-94944453D02*
X150486609Y-94944453D01*
X150339288Y-94694453D02*
X150258931Y-95337310D01*
X150258931Y-95337310D02*
X150285716Y-95408739D01*
X150285716Y-95408739D02*
X150352681Y-95444453D01*
X150352681Y-95444453D02*
X150424109Y-95444453D01*
X150642859Y-95408739D02*
X150709823Y-95444453D01*
X150709823Y-95444453D02*
X150852680Y-95444453D01*
X150852680Y-95444453D02*
X150928573Y-95408739D01*
X150928573Y-95408739D02*
X150973216Y-95337310D01*
X150973216Y-95337310D02*
X150977680Y-95301596D01*
X150977680Y-95301596D02*
X150950894Y-95230167D01*
X150950894Y-95230167D02*
X150883930Y-95194453D01*
X150883930Y-95194453D02*
X150776787Y-95194453D01*
X150776787Y-95194453D02*
X150709823Y-95158739D01*
X150709823Y-95158739D02*
X150683037Y-95087310D01*
X150683037Y-95087310D02*
X150687502Y-95051596D01*
X150687502Y-95051596D02*
X150732144Y-94980167D01*
X150732144Y-94980167D02*
X150808037Y-94944453D01*
X150808037Y-94944453D02*
X150915180Y-94944453D01*
X150915180Y-94944453D02*
X150982144Y-94980167D01*
X151915180Y-94658739D02*
X151151787Y-95623024D01*
X152066966Y-95444453D02*
X152160716Y-94694453D01*
X152125001Y-94980167D02*
X152200894Y-94944453D01*
X152200894Y-94944453D02*
X152343751Y-94944453D01*
X152343751Y-94944453D02*
X152410716Y-94980167D01*
X152410716Y-94980167D02*
X152441966Y-95015881D01*
X152441966Y-95015881D02*
X152468751Y-95087310D01*
X152468751Y-95087310D02*
X152441966Y-95301596D01*
X152441966Y-95301596D02*
X152397323Y-95373024D01*
X152397323Y-95373024D02*
X152357144Y-95408739D01*
X152357144Y-95408739D02*
X152281251Y-95444453D01*
X152281251Y-95444453D02*
X152138394Y-95444453D01*
X152138394Y-95444453D02*
X152071430Y-95408739D01*
X152852680Y-95444453D02*
X152785715Y-95408739D01*
X152785715Y-95408739D02*
X152758930Y-95337310D01*
X152758930Y-95337310D02*
X152839287Y-94694453D01*
X153245537Y-95444453D02*
X153178572Y-95408739D01*
X153178572Y-95408739D02*
X153147322Y-95373024D01*
X153147322Y-95373024D02*
X153120537Y-95301596D01*
X153120537Y-95301596D02*
X153147322Y-95087310D01*
X153147322Y-95087310D02*
X153191965Y-95015881D01*
X153191965Y-95015881D02*
X153232144Y-94980167D01*
X153232144Y-94980167D02*
X153308037Y-94944453D01*
X153308037Y-94944453D02*
X153415179Y-94944453D01*
X153415179Y-94944453D02*
X153482144Y-94980167D01*
X153482144Y-94980167D02*
X153513394Y-95015881D01*
X153513394Y-95015881D02*
X153540179Y-95087310D01*
X153540179Y-95087310D02*
X153513394Y-95301596D01*
X153513394Y-95301596D02*
X153468751Y-95373024D01*
X153468751Y-95373024D02*
X153428572Y-95408739D01*
X153428572Y-95408739D02*
X153352679Y-95444453D01*
X153352679Y-95444453D02*
X153245537Y-95444453D01*
X153816965Y-95444453D02*
X153910715Y-94694453D01*
X153875000Y-94980167D02*
X153950893Y-94944453D01*
X153950893Y-94944453D02*
X154093750Y-94944453D01*
X154093750Y-94944453D02*
X154160715Y-94980167D01*
X154160715Y-94980167D02*
X154191965Y-95015881D01*
X154191965Y-95015881D02*
X154218750Y-95087310D01*
X154218750Y-95087310D02*
X154191965Y-95301596D01*
X154191965Y-95301596D02*
X154147322Y-95373024D01*
X154147322Y-95373024D02*
X154107143Y-95408739D01*
X154107143Y-95408739D02*
X154031250Y-95444453D01*
X154031250Y-95444453D02*
X153888393Y-95444453D01*
X153888393Y-95444453D02*
X153821429Y-95408739D01*
X155129464Y-94658739D02*
X154366071Y-95623024D01*
X155281250Y-95444453D02*
X155343750Y-94944453D01*
X155334821Y-95015881D02*
X155375000Y-94980167D01*
X155375000Y-94980167D02*
X155450893Y-94944453D01*
X155450893Y-94944453D02*
X155558035Y-94944453D01*
X155558035Y-94944453D02*
X155625000Y-94980167D01*
X155625000Y-94980167D02*
X155651785Y-95051596D01*
X155651785Y-95051596D02*
X155602678Y-95444453D01*
X155651785Y-95051596D02*
X155696428Y-94980167D01*
X155696428Y-94980167D02*
X155772321Y-94944453D01*
X155772321Y-94944453D02*
X155879464Y-94944453D01*
X155879464Y-94944453D02*
X155946428Y-94980167D01*
X155946428Y-94980167D02*
X155973214Y-95051596D01*
X155973214Y-95051596D02*
X155924107Y-95444453D01*
X156602678Y-95444453D02*
X156651785Y-95051596D01*
X156651785Y-95051596D02*
X156625000Y-94980167D01*
X156625000Y-94980167D02*
X156558035Y-94944453D01*
X156558035Y-94944453D02*
X156415178Y-94944453D01*
X156415178Y-94944453D02*
X156339285Y-94980167D01*
X156607143Y-95408739D02*
X156531250Y-95444453D01*
X156531250Y-95444453D02*
X156352678Y-95444453D01*
X156352678Y-95444453D02*
X156285714Y-95408739D01*
X156285714Y-95408739D02*
X156258928Y-95337310D01*
X156258928Y-95337310D02*
X156267857Y-95265881D01*
X156267857Y-95265881D02*
X156312500Y-95194453D01*
X156312500Y-95194453D02*
X156388393Y-95158739D01*
X156388393Y-95158739D02*
X156566964Y-95158739D01*
X156566964Y-95158739D02*
X156642857Y-95123024D01*
X156928571Y-95408739D02*
X156995535Y-95444453D01*
X156995535Y-95444453D02*
X157138392Y-95444453D01*
X157138392Y-95444453D02*
X157214285Y-95408739D01*
X157214285Y-95408739D02*
X157258928Y-95337310D01*
X157258928Y-95337310D02*
X157263392Y-95301596D01*
X157263392Y-95301596D02*
X157236606Y-95230167D01*
X157236606Y-95230167D02*
X157169642Y-95194453D01*
X157169642Y-95194453D02*
X157062499Y-95194453D01*
X157062499Y-95194453D02*
X156995535Y-95158739D01*
X156995535Y-95158739D02*
X156968749Y-95087310D01*
X156968749Y-95087310D02*
X156973214Y-95051596D01*
X156973214Y-95051596D02*
X157017856Y-94980167D01*
X157017856Y-94980167D02*
X157093749Y-94944453D01*
X157093749Y-94944453D02*
X157200892Y-94944453D01*
X157200892Y-94944453D02*
X157267856Y-94980167D01*
X157522321Y-94944453D02*
X157808035Y-94944453D01*
X157660714Y-94694453D02*
X157580357Y-95337310D01*
X157580357Y-95337310D02*
X157607142Y-95408739D01*
X157607142Y-95408739D02*
X157674107Y-95444453D01*
X157674107Y-95444453D02*
X157745535Y-95444453D01*
X158285713Y-95408739D02*
X158209820Y-95444453D01*
X158209820Y-95444453D02*
X158066963Y-95444453D01*
X158066963Y-95444453D02*
X157999999Y-95408739D01*
X157999999Y-95408739D02*
X157973213Y-95337310D01*
X157973213Y-95337310D02*
X158008928Y-95051596D01*
X158008928Y-95051596D02*
X158053570Y-94980167D01*
X158053570Y-94980167D02*
X158129463Y-94944453D01*
X158129463Y-94944453D02*
X158272320Y-94944453D01*
X158272320Y-94944453D02*
X158339285Y-94980167D01*
X158339285Y-94980167D02*
X158366070Y-95051596D01*
X158366070Y-95051596D02*
X158357142Y-95123024D01*
X158357142Y-95123024D02*
X157991070Y-95194453D01*
X158638392Y-95444453D02*
X158700892Y-94944453D01*
X158683035Y-95087310D02*
X158727677Y-95015881D01*
X158727677Y-95015881D02*
X158767856Y-94980167D01*
X158767856Y-94980167D02*
X158843749Y-94944453D01*
X158843749Y-94944453D02*
X158915177Y-94944453D01*
X159736606Y-94658739D02*
X158973213Y-95623024D01*
X159888392Y-95444453D02*
X159982142Y-94694453D01*
X160209820Y-95444453D02*
X160258927Y-95051596D01*
X160258927Y-95051596D02*
X160232142Y-94980167D01*
X160232142Y-94980167D02*
X160165177Y-94944453D01*
X160165177Y-94944453D02*
X160058035Y-94944453D01*
X160058035Y-94944453D02*
X159982142Y-94980167D01*
X159982142Y-94980167D02*
X159941963Y-95015881D01*
X160888391Y-95444453D02*
X160937498Y-95051596D01*
X160937498Y-95051596D02*
X160910713Y-94980167D01*
X160910713Y-94980167D02*
X160843748Y-94944453D01*
X160843748Y-94944453D02*
X160700891Y-94944453D01*
X160700891Y-94944453D02*
X160624998Y-94980167D01*
X160892856Y-95408739D02*
X160816963Y-95444453D01*
X160816963Y-95444453D02*
X160638391Y-95444453D01*
X160638391Y-95444453D02*
X160571427Y-95408739D01*
X160571427Y-95408739D02*
X160544641Y-95337310D01*
X160544641Y-95337310D02*
X160553570Y-95265881D01*
X160553570Y-95265881D02*
X160598213Y-95194453D01*
X160598213Y-95194453D02*
X160674106Y-95158739D01*
X160674106Y-95158739D02*
X160852677Y-95158739D01*
X160852677Y-95158739D02*
X160928570Y-95123024D01*
X161200891Y-94944453D02*
X161486605Y-94944453D01*
X161339284Y-94694453D02*
X161258927Y-95337310D01*
X161258927Y-95337310D02*
X161285712Y-95408739D01*
X161285712Y-95408739D02*
X161352677Y-95444453D01*
X161352677Y-95444453D02*
X161424105Y-95444453D01*
X161709819Y-95158739D02*
X162281248Y-95158739D01*
X162602676Y-95444453D02*
X162696426Y-94694453D01*
X162660711Y-94980167D02*
X162736604Y-94944453D01*
X162736604Y-94944453D02*
X162879461Y-94944453D01*
X162879461Y-94944453D02*
X162946426Y-94980167D01*
X162946426Y-94980167D02*
X162977676Y-95015881D01*
X162977676Y-95015881D02*
X163004461Y-95087310D01*
X163004461Y-95087310D02*
X162977676Y-95301596D01*
X162977676Y-95301596D02*
X162933033Y-95373024D01*
X162933033Y-95373024D02*
X162892854Y-95408739D01*
X162892854Y-95408739D02*
X162816961Y-95444453D01*
X162816961Y-95444453D02*
X162674104Y-95444453D01*
X162674104Y-95444453D02*
X162607140Y-95408739D01*
X163388390Y-95444453D02*
X163321425Y-95408739D01*
X163321425Y-95408739D02*
X163290175Y-95373024D01*
X163290175Y-95373024D02*
X163263390Y-95301596D01*
X163263390Y-95301596D02*
X163290175Y-95087310D01*
X163290175Y-95087310D02*
X163334818Y-95015881D01*
X163334818Y-95015881D02*
X163374997Y-94980167D01*
X163374997Y-94980167D02*
X163450890Y-94944453D01*
X163450890Y-94944453D02*
X163558032Y-94944453D01*
X163558032Y-94944453D02*
X163624997Y-94980167D01*
X163624997Y-94980167D02*
X163656247Y-95015881D01*
X163656247Y-95015881D02*
X163683032Y-95087310D01*
X163683032Y-95087310D02*
X163656247Y-95301596D01*
X163656247Y-95301596D02*
X163611604Y-95373024D01*
X163611604Y-95373024D02*
X163571425Y-95408739D01*
X163571425Y-95408739D02*
X163495532Y-95444453D01*
X163495532Y-95444453D02*
X163388390Y-95444453D01*
X164281246Y-95444453D02*
X164330353Y-95051596D01*
X164330353Y-95051596D02*
X164303568Y-94980167D01*
X164303568Y-94980167D02*
X164236603Y-94944453D01*
X164236603Y-94944453D02*
X164093746Y-94944453D01*
X164093746Y-94944453D02*
X164017853Y-94980167D01*
X164285711Y-95408739D02*
X164209818Y-95444453D01*
X164209818Y-95444453D02*
X164031246Y-95444453D01*
X164031246Y-95444453D02*
X163964282Y-95408739D01*
X163964282Y-95408739D02*
X163937496Y-95337310D01*
X163937496Y-95337310D02*
X163946425Y-95265881D01*
X163946425Y-95265881D02*
X163991068Y-95194453D01*
X163991068Y-95194453D02*
X164066961Y-95158739D01*
X164066961Y-95158739D02*
X164245532Y-95158739D01*
X164245532Y-95158739D02*
X164321425Y-95123024D01*
X164638389Y-95444453D02*
X164700889Y-94944453D01*
X164683032Y-95087310D02*
X164727674Y-95015881D01*
X164727674Y-95015881D02*
X164767853Y-94980167D01*
X164767853Y-94980167D02*
X164843746Y-94944453D01*
X164843746Y-94944453D02*
X164915174Y-94944453D01*
X165424103Y-95444453D02*
X165517853Y-94694453D01*
X165428568Y-95408739D02*
X165352675Y-95444453D01*
X165352675Y-95444453D02*
X165209818Y-95444453D01*
X165209818Y-95444453D02*
X165142853Y-95408739D01*
X165142853Y-95408739D02*
X165111603Y-95373024D01*
X165111603Y-95373024D02*
X165084818Y-95301596D01*
X165084818Y-95301596D02*
X165111603Y-95087310D01*
X165111603Y-95087310D02*
X165156246Y-95015881D01*
X165156246Y-95015881D02*
X165196425Y-94980167D01*
X165196425Y-94980167D02*
X165272318Y-94944453D01*
X165272318Y-94944453D02*
X165415175Y-94944453D01*
X165415175Y-94944453D02*
X165482139Y-94980167D01*
X165816960Y-95158739D02*
X166388389Y-95158739D01*
X166709817Y-95444453D02*
X166772317Y-94944453D01*
X166763388Y-95015881D02*
X166803567Y-94980167D01*
X166803567Y-94980167D02*
X166879460Y-94944453D01*
X166879460Y-94944453D02*
X166986602Y-94944453D01*
X166986602Y-94944453D02*
X167053567Y-94980167D01*
X167053567Y-94980167D02*
X167080352Y-95051596D01*
X167080352Y-95051596D02*
X167031245Y-95444453D01*
X167080352Y-95051596D02*
X167124995Y-94980167D01*
X167124995Y-94980167D02*
X167200888Y-94944453D01*
X167200888Y-94944453D02*
X167308031Y-94944453D01*
X167308031Y-94944453D02*
X167374995Y-94980167D01*
X167374995Y-94980167D02*
X167401781Y-95051596D01*
X167401781Y-95051596D02*
X167352674Y-95444453D01*
X167999995Y-95408739D02*
X167924102Y-95444453D01*
X167924102Y-95444453D02*
X167781245Y-95444453D01*
X167781245Y-95444453D02*
X167714281Y-95408739D01*
X167714281Y-95408739D02*
X167687495Y-95337310D01*
X167687495Y-95337310D02*
X167723210Y-95051596D01*
X167723210Y-95051596D02*
X167767852Y-94980167D01*
X167767852Y-94980167D02*
X167843745Y-94944453D01*
X167843745Y-94944453D02*
X167986602Y-94944453D01*
X167986602Y-94944453D02*
X168053567Y-94980167D01*
X168053567Y-94980167D02*
X168080352Y-95051596D01*
X168080352Y-95051596D02*
X168071424Y-95123024D01*
X168071424Y-95123024D02*
X167705352Y-95194453D01*
X168678567Y-95408739D02*
X168602674Y-95444453D01*
X168602674Y-95444453D02*
X168459817Y-95444453D01*
X168459817Y-95444453D02*
X168392852Y-95408739D01*
X168392852Y-95408739D02*
X168361602Y-95373024D01*
X168361602Y-95373024D02*
X168334817Y-95301596D01*
X168334817Y-95301596D02*
X168361602Y-95087310D01*
X168361602Y-95087310D02*
X168406245Y-95015881D01*
X168406245Y-95015881D02*
X168446424Y-94980167D01*
X168446424Y-94980167D02*
X168522317Y-94944453D01*
X168522317Y-94944453D02*
X168665174Y-94944453D01*
X168665174Y-94944453D02*
X168732138Y-94980167D01*
X168995531Y-95444453D02*
X169089281Y-94694453D01*
X169316959Y-95444453D02*
X169366066Y-95051596D01*
X169366066Y-95051596D02*
X169339281Y-94980167D01*
X169339281Y-94980167D02*
X169272316Y-94944453D01*
X169272316Y-94944453D02*
X169165174Y-94944453D01*
X169165174Y-94944453D02*
X169089281Y-94980167D01*
X169089281Y-94980167D02*
X169049102Y-95015881D01*
X169995530Y-95444453D02*
X170044637Y-95051596D01*
X170044637Y-95051596D02*
X170017852Y-94980167D01*
X170017852Y-94980167D02*
X169950887Y-94944453D01*
X169950887Y-94944453D02*
X169808030Y-94944453D01*
X169808030Y-94944453D02*
X169732137Y-94980167D01*
X169999995Y-95408739D02*
X169924102Y-95444453D01*
X169924102Y-95444453D02*
X169745530Y-95444453D01*
X169745530Y-95444453D02*
X169678566Y-95408739D01*
X169678566Y-95408739D02*
X169651780Y-95337310D01*
X169651780Y-95337310D02*
X169660709Y-95265881D01*
X169660709Y-95265881D02*
X169705352Y-95194453D01*
X169705352Y-95194453D02*
X169781245Y-95158739D01*
X169781245Y-95158739D02*
X169959816Y-95158739D01*
X169959816Y-95158739D02*
X170035709Y-95123024D01*
X170415173Y-94944453D02*
X170352673Y-95444453D01*
X170406244Y-95015881D02*
X170446423Y-94980167D01*
X170446423Y-94980167D02*
X170522316Y-94944453D01*
X170522316Y-94944453D02*
X170629458Y-94944453D01*
X170629458Y-94944453D02*
X170696423Y-94980167D01*
X170696423Y-94980167D02*
X170723208Y-95051596D01*
X170723208Y-95051596D02*
X170674101Y-95444453D01*
X171031244Y-95444453D02*
X171093744Y-94944453D01*
X171124994Y-94694453D02*
X171084815Y-94730167D01*
X171084815Y-94730167D02*
X171116065Y-94765881D01*
X171116065Y-94765881D02*
X171156244Y-94730167D01*
X171156244Y-94730167D02*
X171124994Y-94694453D01*
X171124994Y-94694453D02*
X171116065Y-94765881D01*
X171714280Y-95408739D02*
X171638387Y-95444453D01*
X171638387Y-95444453D02*
X171495530Y-95444453D01*
X171495530Y-95444453D02*
X171428565Y-95408739D01*
X171428565Y-95408739D02*
X171397315Y-95373024D01*
X171397315Y-95373024D02*
X171370530Y-95301596D01*
X171370530Y-95301596D02*
X171397315Y-95087310D01*
X171397315Y-95087310D02*
X171441958Y-95015881D01*
X171441958Y-95015881D02*
X171482137Y-94980167D01*
X171482137Y-94980167D02*
X171558030Y-94944453D01*
X171558030Y-94944453D02*
X171700887Y-94944453D01*
X171700887Y-94944453D02*
X171767851Y-94980167D01*
X172352672Y-95444453D02*
X172401779Y-95051596D01*
X172401779Y-95051596D02*
X172374994Y-94980167D01*
X172374994Y-94980167D02*
X172308029Y-94944453D01*
X172308029Y-94944453D02*
X172165172Y-94944453D01*
X172165172Y-94944453D02*
X172089279Y-94980167D01*
X172357137Y-95408739D02*
X172281244Y-95444453D01*
X172281244Y-95444453D02*
X172102672Y-95444453D01*
X172102672Y-95444453D02*
X172035708Y-95408739D01*
X172035708Y-95408739D02*
X172008922Y-95337310D01*
X172008922Y-95337310D02*
X172017851Y-95265881D01*
X172017851Y-95265881D02*
X172062494Y-95194453D01*
X172062494Y-95194453D02*
X172138387Y-95158739D01*
X172138387Y-95158739D02*
X172316958Y-95158739D01*
X172316958Y-95158739D02*
X172392851Y-95123024D01*
X172816958Y-95444453D02*
X172749993Y-95408739D01*
X172749993Y-95408739D02*
X172723208Y-95337310D01*
X172723208Y-95337310D02*
X172803565Y-94694453D01*
X173111600Y-95373024D02*
X173142850Y-95408739D01*
X173142850Y-95408739D02*
X173102672Y-95444453D01*
X173102672Y-95444453D02*
X173071422Y-95408739D01*
X173071422Y-95408739D02*
X173111600Y-95373024D01*
X173111600Y-95373024D02*
X173102672Y-95444453D01*
X173522315Y-94944453D02*
X173428565Y-95694453D01*
X173517850Y-94980167D02*
X173593743Y-94944453D01*
X173593743Y-94944453D02*
X173736600Y-94944453D01*
X173736600Y-94944453D02*
X173803565Y-94980167D01*
X173803565Y-94980167D02*
X173834815Y-95015881D01*
X173834815Y-95015881D02*
X173861600Y-95087310D01*
X173861600Y-95087310D02*
X173834815Y-95301596D01*
X173834815Y-95301596D02*
X173790172Y-95373024D01*
X173790172Y-95373024D02*
X173749993Y-95408739D01*
X173749993Y-95408739D02*
X173674100Y-95444453D01*
X173674100Y-95444453D02*
X173531243Y-95444453D01*
X173531243Y-95444453D02*
X173464279Y-95408739D01*
X174459814Y-95444453D02*
X174553564Y-94694453D01*
X174464279Y-95408739D02*
X174388386Y-95444453D01*
X174388386Y-95444453D02*
X174245529Y-95444453D01*
X174245529Y-95444453D02*
X174178564Y-95408739D01*
X174178564Y-95408739D02*
X174147314Y-95373024D01*
X174147314Y-95373024D02*
X174120529Y-95301596D01*
X174120529Y-95301596D02*
X174147314Y-95087310D01*
X174147314Y-95087310D02*
X174191957Y-95015881D01*
X174191957Y-95015881D02*
X174232136Y-94980167D01*
X174232136Y-94980167D02*
X174308029Y-94944453D01*
X174308029Y-94944453D02*
X174450886Y-94944453D01*
X174450886Y-94944453D02*
X174517850Y-94980167D01*
X174772314Y-94944453D02*
X175058028Y-94944453D01*
X174816957Y-95444453D02*
X174897314Y-94801596D01*
X174897314Y-94801596D02*
X174941957Y-94730167D01*
X174941957Y-94730167D02*
X175017850Y-94694453D01*
X175017850Y-94694453D02*
X175089278Y-94694453D01*
D10*
X195453633Y-141904438D02*
X196120299Y-143904438D01*
X196120299Y-143904438D02*
X196786966Y-141904438D01*
X197453633Y-143142533D02*
X198977443Y-143142533D01*
X201072680Y-143713961D02*
X200977442Y-143809200D01*
X200977442Y-143809200D02*
X200691728Y-143904438D01*
X200691728Y-143904438D02*
X200501252Y-143904438D01*
X200501252Y-143904438D02*
X200215537Y-143809200D01*
X200215537Y-143809200D02*
X200025061Y-143618723D01*
X200025061Y-143618723D02*
X199929823Y-143428247D01*
X199929823Y-143428247D02*
X199834585Y-143047295D01*
X199834585Y-143047295D02*
X199834585Y-142761580D01*
X199834585Y-142761580D02*
X199929823Y-142380628D01*
X199929823Y-142380628D02*
X200025061Y-142190152D01*
X200025061Y-142190152D02*
X200215537Y-141999676D01*
X200215537Y-141999676D02*
X200501252Y-141904438D01*
X200501252Y-141904438D02*
X200691728Y-141904438D01*
X200691728Y-141904438D02*
X200977442Y-141999676D01*
X200977442Y-141999676D02*
X201072680Y-142094914D01*
X201929823Y-141904438D02*
X201929823Y-143523485D01*
X201929823Y-143523485D02*
X202025061Y-143713961D01*
X202025061Y-143713961D02*
X202120299Y-143809200D01*
X202120299Y-143809200D02*
X202310775Y-143904438D01*
X202310775Y-143904438D02*
X202691728Y-143904438D01*
X202691728Y-143904438D02*
X202882204Y-143809200D01*
X202882204Y-143809200D02*
X202977442Y-143713961D01*
X202977442Y-143713961D02*
X203072680Y-143523485D01*
X203072680Y-143523485D02*
X203072680Y-141904438D01*
X203739347Y-141904438D02*
X204882204Y-141904438D01*
X204310775Y-143904438D02*
X204310775Y-141904438D01*
M02*
