%TF.GenerationSoftware,KiCad,Pcbnew,9.0.0+dfsg-1*%
%TF.CreationDate,2025-04-17T15:34:37+01:00*%
%TF.ProjectId,panel-16,70616e65-6c2d-4313-962e-6b696361645f,rev?*%
%TF.SameCoordinates,Original*%
%TF.FileFunction,Soldermask,Top*%
%TF.FilePolarity,Negative*%
%FSLAX46Y46*%
G04 Gerber Fmt 4.6, Leading zero omitted, Abs format (unit mm)*
G04 Created by KiCad (PCBNEW 9.0.0+dfsg-1) date 2025-04-17 15:34:37*
%MOMM*%
%LPD*%
G01*
G04 APERTURE LIST*
G04 Aperture macros list*
%AMRoundRect*
0 Rectangle with rounded corners*
0 $1 Rounding radius*
0 $2 $3 $4 $5 $6 $7 $8 $9 X,Y pos of 4 corners*
0 Add a 4 corners polygon primitive as box body*
4,1,4,$2,$3,$4,$5,$6,$7,$8,$9,$2,$3,0*
0 Add four circle primitives for the rounded corners*
1,1,$1+$1,$2,$3*
1,1,$1+$1,$4,$5*
1,1,$1+$1,$6,$7*
1,1,$1+$1,$8,$9*
0 Add four rect primitives between the rounded corners*
20,1,$1+$1,$2,$3,$4,$5,0*
20,1,$1+$1,$4,$5,$6,$7,0*
20,1,$1+$1,$6,$7,$8,$9,0*
20,1,$1+$1,$8,$9,$2,$3,0*%
G04 Aperture macros list end*
%ADD10RoundRect,0.243750X0.456250X-0.243750X0.456250X0.243750X-0.456250X0.243750X-0.456250X-0.243750X0*%
%ADD11RoundRect,0.243750X-0.456250X0.243750X-0.456250X-0.243750X0.456250X-0.243750X0.456250X0.243750X0*%
%ADD12C,1.000000*%
%ADD13RoundRect,0.250001X-1.099999X-1.099999X1.099999X-1.099999X1.099999X1.099999X-1.099999X1.099999X0*%
%ADD14C,2.700000*%
%ADD15RoundRect,0.250001X1.099999X1.099999X-1.099999X1.099999X-1.099999X-1.099999X1.099999X-1.099999X0*%
%ADD16RoundRect,0.250000X0.325000X0.650000X-0.325000X0.650000X-0.325000X-0.650000X0.325000X-0.650000X0*%
%ADD17RoundRect,0.250000X-0.325000X-0.650000X0.325000X-0.650000X0.325000X0.650000X-0.325000X0.650000X0*%
%ADD18R,1.727200X1.727200*%
%ADD19O,1.727200X1.727200*%
%ADD20C,2.750000*%
%ADD21RoundRect,0.200000X-0.200000X-0.275000X0.200000X-0.275000X0.200000X0.275000X-0.200000X0.275000X0*%
%ADD22RoundRect,0.225000X-0.225000X-0.250000X0.225000X-0.250000X0.225000X0.250000X-0.225000X0.250000X0*%
%ADD23R,1.700000X1.700000*%
%ADD24O,1.700000X1.700000*%
%ADD25C,4.950000*%
%ADD26R,3.100000X2.400000*%
%ADD27RoundRect,0.150000X0.150000X-0.737500X0.150000X0.737500X-0.150000X0.737500X-0.150000X-0.737500X0*%
%ADD28RoundRect,0.243750X-0.243750X-0.456250X0.243750X-0.456250X0.243750X0.456250X-0.243750X0.456250X0*%
%ADD29R,3.600000X2.700000*%
%ADD30RoundRect,0.250000X-1.750000X-1.000000X1.750000X-1.000000X1.750000X1.000000X-1.750000X1.000000X0*%
%ADD31RoundRect,0.225000X-0.250000X0.225000X-0.250000X-0.225000X0.250000X-0.225000X0.250000X0.225000X0*%
%ADD32C,2.780000*%
%ADD33RoundRect,0.243750X0.243750X0.456250X-0.243750X0.456250X-0.243750X-0.456250X0.243750X-0.456250X0*%
%ADD34C,1.500000*%
%ADD35RoundRect,0.250000X0.650000X-0.325000X0.650000X0.325000X-0.650000X0.325000X-0.650000X-0.325000X0*%
%ADD36RoundRect,0.250000X-1.000000X1.750000X-1.000000X-1.750000X1.000000X-1.750000X1.000000X1.750000X0*%
G04 APERTURE END LIST*
D10*
%TO.C,D118*%
X182011844Y-82187500D03*
X182011844Y-80312500D03*
%TD*%
%TO.C,D29*%
X39796850Y-141187500D03*
X39796850Y-139312500D03*
%TD*%
D11*
%TO.C,D111*%
X171996844Y-88812500D03*
X171996844Y-90687500D03*
%TD*%
D12*
%TO.C,KiKit_FID_T_1*%
X28310650Y-22500000D03*
%TD*%
D13*
%TO.C,J4*%
X46689350Y-78500000D03*
D14*
X50649350Y-78500000D03*
%TD*%
D11*
%TO.C,D65*%
X113896844Y-88812500D03*
X113896844Y-90687500D03*
%TD*%
D15*
%TO.C,J19*%
X147004344Y-33500000D03*
D14*
X143044344Y-33500000D03*
%TD*%
D16*
%TO.C,C11*%
X86464350Y-99900000D03*
X83514350Y-99900000D03*
%TD*%
D17*
%TO.C,C14*%
X213114350Y-110400000D03*
X216064350Y-110400000D03*
%TD*%
D18*
%TO.C,J2*%
X209059350Y-32770000D03*
D19*
X209059350Y-30230000D03*
X211599350Y-32770000D03*
X211599350Y-30230000D03*
X214139350Y-32770000D03*
X214139350Y-30230000D03*
X216679350Y-32770000D03*
X216679350Y-30230000D03*
X219219350Y-32770000D03*
X219219350Y-30230000D03*
X221759350Y-32770000D03*
X221759350Y-30230000D03*
X224299350Y-32770000D03*
X224299350Y-30230000D03*
X226839350Y-32770000D03*
X226839350Y-30230000D03*
X229379350Y-32770000D03*
X229379350Y-30230000D03*
X231919350Y-32770000D03*
X231919350Y-30230000D03*
X234459350Y-32770000D03*
X234459350Y-30230000D03*
X236999350Y-32770000D03*
X236999350Y-30230000D03*
X239539350Y-32770000D03*
X239539350Y-30230000D03*
X242079350Y-32770000D03*
X242079350Y-30230000D03*
X244619350Y-32770000D03*
X244619350Y-30230000D03*
X247159350Y-32770000D03*
X247159350Y-30230000D03*
X249699350Y-32770000D03*
X249699350Y-30230000D03*
X252239350Y-32770000D03*
X252239350Y-30230000D03*
X254779350Y-32770000D03*
X254779350Y-30230000D03*
X257319350Y-32770000D03*
X257319350Y-30230000D03*
%TD*%
D20*
%TO.C,NPTH10*%
X95689350Y-117500000D03*
%TD*%
%TO.C,NPTH7*%
X55689350Y-112500000D03*
%TD*%
D11*
%TO.C,D51*%
X93896844Y-29812500D03*
X93896844Y-31687500D03*
%TD*%
%TO.C,D5*%
X51681850Y-88812500D03*
X51681850Y-90687500D03*
%TD*%
D17*
%TO.C,C43*%
X170864350Y-107550000D03*
X173814350Y-107550000D03*
%TD*%
D15*
%TO.C,J5*%
X46689350Y-92500000D03*
D14*
X42729350Y-92500000D03*
%TD*%
D13*
%TO.C,J18*%
X147004344Y-78500000D03*
D14*
X150964344Y-78500000D03*
%TD*%
D16*
%TO.C,C12*%
X166564350Y-99900000D03*
X163614350Y-99900000D03*
%TD*%
D13*
%TO.C,J3*%
X82329350Y-114900000D03*
D14*
X86289350Y-114900000D03*
%TD*%
D17*
%TO.C,C41*%
X150864350Y-48500000D03*
X153814350Y-48500000D03*
%TD*%
D10*
%TO.C,D42*%
X80111844Y-141187500D03*
X80111844Y-139312500D03*
%TD*%
D21*
%TO.C,R26*%
X151684350Y-120150000D03*
X153334350Y-120150000D03*
%TD*%
D22*
%TO.C,C22*%
X216164350Y-34850000D03*
X217714350Y-34850000D03*
%TD*%
D11*
%TO.C,D55*%
X91996844Y-29812500D03*
X91996844Y-31687500D03*
%TD*%
D13*
%TO.C,J14*%
X107004344Y-137500000D03*
D14*
X110964344Y-137500000D03*
%TD*%
D23*
%TO.C,J29*%
X254489350Y-60300000D03*
D24*
X254489350Y-57760000D03*
X257029350Y-60300000D03*
X257029350Y-57760000D03*
X259569350Y-60300000D03*
X259569350Y-57760000D03*
X262109350Y-60300000D03*
X262109350Y-57760000D03*
%TD*%
D17*
%TO.C,C30*%
X217764350Y-107100000D03*
X220714350Y-107100000D03*
%TD*%
D13*
%TO.C,J22*%
X187004344Y-78500000D03*
D14*
X190964344Y-78500000D03*
%TD*%
D16*
%TO.C,C11*%
X86464350Y-40900000D03*
X83514350Y-40900000D03*
%TD*%
D25*
%TO.C,PI3*%
X204189350Y-31500000D03*
%TD*%
D16*
%TO.C,C42*%
X163464350Y-122350000D03*
X160514350Y-122350000D03*
%TD*%
D10*
%TO.C,D31*%
X60111844Y-82187500D03*
X60111844Y-80312500D03*
%TD*%
D21*
%TO.C,R44*%
X216114350Y-95400000D03*
X217764350Y-95400000D03*
%TD*%
D10*
%TO.C,D43*%
X82011844Y-82187500D03*
X82011844Y-80312500D03*
%TD*%
D21*
%TO.C,R24*%
X111274350Y-120150000D03*
X112924350Y-120150000D03*
%TD*%
D10*
%TO.C,D90*%
X142011844Y-141187500D03*
X142011844Y-139312500D03*
%TD*%
D13*
%TO.C,J7*%
X67004344Y-78500000D03*
D14*
X70964344Y-78500000D03*
%TD*%
D13*
%TO.C,J10*%
X212929350Y-78500000D03*
D14*
X216889350Y-78500000D03*
%TD*%
D20*
%TO.C,NPTH14*%
X175689350Y-58500000D03*
%TD*%
D16*
%TO.C,C26*%
X146464350Y-40850000D03*
X143514350Y-40850000D03*
%TD*%
D10*
%TO.C,D4*%
X41696850Y-82187500D03*
X41696850Y-80312500D03*
%TD*%
D26*
%TO.C,U1*%
X214989350Y-99950000D03*
D27*
X213084350Y-102512500D03*
X214354350Y-102512500D03*
X215624350Y-102512500D03*
X216894350Y-102512500D03*
X216894350Y-97387500D03*
X215624350Y-97387500D03*
X214354350Y-97387500D03*
X213084350Y-97387500D03*
%TD*%
D15*
%TO.C,J19*%
X147004344Y-92500000D03*
D14*
X143044344Y-92500000D03*
%TD*%
D17*
%TO.C,C41*%
X150864350Y-107500000D03*
X153814350Y-107500000D03*
%TD*%
D16*
%TO.C,C2*%
X46164350Y-99900000D03*
X43214350Y-99900000D03*
%TD*%
%TO.C,C40*%
X143214350Y-63350000D03*
X140264350Y-63350000D03*
%TD*%
%TO.C,C40*%
X143214350Y-122350000D03*
X140264350Y-122350000D03*
%TD*%
D13*
%TO.C,J4*%
X46689350Y-137500000D03*
D14*
X50649350Y-137500000D03*
%TD*%
D17*
%TO.C,C39*%
X130864350Y-107500000D03*
X133814350Y-107500000D03*
%TD*%
D13*
%TO.C,J20*%
X167004344Y-78500000D03*
D14*
X170964344Y-78500000D03*
%TD*%
D28*
%TO.C,D32*%
X107861850Y-61150000D03*
X109736850Y-61150000D03*
%TD*%
D29*
%TO.C,L1*%
X206689350Y-36250000D03*
X206689350Y-44550000D03*
%TD*%
D11*
%TO.C,D24*%
X71996844Y-29812500D03*
X71996844Y-31687500D03*
%TD*%
D16*
%TO.C,C46*%
X170764350Y-129850000D03*
X167814350Y-129850000D03*
%TD*%
%TO.C,C4*%
X70464350Y-70875000D03*
X67514350Y-70875000D03*
%TD*%
%TO.C,C47*%
X130864350Y-129850000D03*
X127914350Y-129850000D03*
%TD*%
D30*
%TO.C,C8*%
X224989350Y-41500000D03*
X232989350Y-41500000D03*
%TD*%
D11*
%TO.C,D97*%
X151996844Y-88812500D03*
X151996844Y-90687500D03*
%TD*%
D17*
%TO.C,C33*%
X70864350Y-107600000D03*
X73814350Y-107600000D03*
%TD*%
D16*
%TO.C,C7*%
X66664350Y-40900000D03*
X63714350Y-40900000D03*
%TD*%
D31*
%TO.C,C23*%
X218639350Y-97175000D03*
X218639350Y-98725000D03*
%TD*%
D15*
%TO.C,J13*%
X87004344Y-33500000D03*
D14*
X83044344Y-33500000D03*
%TD*%
D21*
%TO.C,R1*%
X71164350Y-120250000D03*
X72814350Y-120250000D03*
%TD*%
D20*
%TO.C,NPTH13*%
X175689350Y-53500000D03*
%TD*%
D23*
%TO.C,J11*%
X213679350Y-131700000D03*
D24*
X216219350Y-131700000D03*
%TD*%
D16*
%TO.C,C38*%
X123064350Y-122300000D03*
X120114350Y-122300000D03*
%TD*%
D13*
%TO.C,J12*%
X87004344Y-137500000D03*
D14*
X90964344Y-137500000D03*
%TD*%
D23*
%TO.C,J6*%
X220569350Y-60300000D03*
D24*
X220569350Y-57760000D03*
X223109350Y-60300000D03*
X223109350Y-57760000D03*
X225649350Y-60300000D03*
X225649350Y-57760000D03*
X228189350Y-60300000D03*
X228189350Y-57760000D03*
%TD*%
D20*
%TO.C,NPTH14*%
X175689350Y-117500000D03*
%TD*%
D32*
%TO.C,F1*%
X73489350Y-117200000D03*
X73489350Y-113800000D03*
X63569350Y-117200000D03*
X63569350Y-113800000D03*
%TD*%
%TO.C,F20*%
X229329350Y-76450000D03*
X229329350Y-79850000D03*
X239249350Y-76450000D03*
X239249350Y-79850000D03*
%TD*%
D16*
%TO.C,C32*%
X63064350Y-63300000D03*
X60114350Y-63300000D03*
%TD*%
D20*
%TO.C,NPTH12*%
X135689350Y-58500000D03*
%TD*%
%TO.C,NPTH5*%
X34689350Y-53500000D03*
%TD*%
D16*
%TO.C,C28*%
X50289350Y-129850000D03*
X47339350Y-129850000D03*
%TD*%
%TO.C,C29*%
X42714350Y-63250000D03*
X39764350Y-63250000D03*
%TD*%
%TO.C,C18*%
X216064350Y-48950000D03*
X213114350Y-48950000D03*
%TD*%
D10*
%TO.C,D72*%
X120111844Y-82187500D03*
X120111844Y-80312500D03*
%TD*%
D11*
%TO.C,D93*%
X153896844Y-29812500D03*
X153896844Y-31687500D03*
%TD*%
%TO.C,D5*%
X51681850Y-29812500D03*
X51681850Y-31687500D03*
%TD*%
D23*
%TO.C,J27*%
X243189350Y-60300000D03*
D24*
X243189350Y-57760000D03*
X245729350Y-60300000D03*
X245729350Y-57760000D03*
X248269350Y-60300000D03*
X248269350Y-57760000D03*
X250809350Y-60300000D03*
X250809350Y-57760000D03*
%TD*%
D15*
%TO.C,J21*%
X167004344Y-33500000D03*
D14*
X163044344Y-33500000D03*
%TD*%
D15*
%TO.C,J13*%
X87004344Y-92500000D03*
D14*
X83044344Y-92500000D03*
%TD*%
D32*
%TO.C,F18*%
X113599350Y-58100000D03*
X113599350Y-54700000D03*
X103679350Y-58100000D03*
X103679350Y-54700000D03*
%TD*%
D13*
%TO.C,J24*%
X122439350Y-55800000D03*
D14*
X126399350Y-55800000D03*
%TD*%
D32*
%TO.C,F18*%
X113599350Y-117100000D03*
X113599350Y-113700000D03*
X103679350Y-117100000D03*
X103679350Y-113700000D03*
%TD*%
D20*
%TO.C,NPTH11*%
X135689350Y-53500000D03*
%TD*%
D10*
%TO.C,D41*%
X208379350Y-79512500D03*
X208379350Y-77637500D03*
%TD*%
%TO.C,D58*%
X100111844Y-141187500D03*
X100111844Y-139312500D03*
%TD*%
D21*
%TO.C,R26*%
X151684350Y-61150000D03*
X153334350Y-61150000D03*
%TD*%
D23*
%TO.C,J25*%
X231849350Y-60300000D03*
D24*
X231849350Y-57760000D03*
X234389350Y-60300000D03*
X234389350Y-57760000D03*
X236929350Y-60300000D03*
X236929350Y-57760000D03*
X239469350Y-60300000D03*
X239469350Y-57760000D03*
%TD*%
D16*
%TO.C,C12*%
X166564350Y-40900000D03*
X163614350Y-40900000D03*
%TD*%
D20*
%TO.C,NPTH13*%
X175689350Y-112500000D03*
%TD*%
%TO.C,NPTH12*%
X135689350Y-117500000D03*
%TD*%
D16*
%TO.C,C48*%
X90939350Y-70850000D03*
X87989350Y-70850000D03*
%TD*%
D10*
%TO.C,D76*%
X122011844Y-82187500D03*
X122011844Y-80312500D03*
%TD*%
D16*
%TO.C,C6*%
X216064350Y-105550000D03*
X213114350Y-105550000D03*
%TD*%
D15*
%TO.C,J17*%
X127004344Y-92500000D03*
D14*
X123044344Y-92500000D03*
%TD*%
D11*
%TO.C,D107*%
X173896844Y-88812500D03*
X173896844Y-90687500D03*
%TD*%
D15*
%TO.C,J23*%
X187004344Y-33500000D03*
D14*
X183044344Y-33500000D03*
%TD*%
D16*
%TO.C,C21*%
X106464350Y-99900000D03*
X103514350Y-99900000D03*
%TD*%
%TO.C,C34*%
X83114350Y-122300000D03*
X80164350Y-122300000D03*
%TD*%
D20*
%TO.C,NPTH11*%
X135689350Y-112500000D03*
%TD*%
D10*
%TO.C,D114*%
X180111844Y-82187500D03*
X180111844Y-80312500D03*
%TD*%
%TO.C,D29*%
X39796850Y-82187500D03*
X39796850Y-80312500D03*
%TD*%
D13*
%TO.C,J20*%
X167004344Y-137500000D03*
D14*
X170964344Y-137500000D03*
%TD*%
D16*
%TO.C,C34*%
X83114350Y-63300000D03*
X80164350Y-63300000D03*
%TD*%
D25*
%TO.C,NPTH2*%
X34689350Y-90500000D03*
%TD*%
%TO.C,NPTH4*%
X115689350Y-80500000D03*
%TD*%
D28*
%TO.C,D132*%
X148271850Y-120150000D03*
X150146850Y-120150000D03*
%TD*%
D17*
%TO.C,C39*%
X130864350Y-48500000D03*
X133814350Y-48500000D03*
%TD*%
%TO.C,C31*%
X50664350Y-48650000D03*
X53614350Y-48650000D03*
%TD*%
D10*
%TO.C,D31*%
X60111844Y-141187500D03*
X60111844Y-139312500D03*
%TD*%
%TO.C,D62*%
X102011844Y-141187500D03*
X102011844Y-139312500D03*
%TD*%
D28*
%TO.C,D132*%
X148271850Y-61150000D03*
X150146850Y-61150000D03*
%TD*%
D20*
%TO.C,NPTH9*%
X95689350Y-112500000D03*
%TD*%
D23*
%TO.C,J29*%
X254489350Y-119300000D03*
D24*
X254489350Y-116760000D03*
X257029350Y-119300000D03*
X257029350Y-116760000D03*
X259569350Y-119300000D03*
X259569350Y-116760000D03*
X262109350Y-119300000D03*
X262109350Y-116760000D03*
%TD*%
D10*
%TO.C,D118*%
X182011844Y-141187500D03*
X182011844Y-139312500D03*
%TD*%
%TO.C,D100*%
X160111844Y-82187500D03*
X160111844Y-80312500D03*
%TD*%
D25*
%TO.C,PI2*%
X262189350Y-80500000D03*
%TD*%
D17*
%TO.C,C45*%
X190814350Y-48550000D03*
X193764350Y-48550000D03*
%TD*%
D11*
%TO.C,D111*%
X171996844Y-29812500D03*
X171996844Y-31687500D03*
%TD*%
D33*
%TO.C,D38*%
X182876850Y-116700000D03*
X181001850Y-116700000D03*
%TD*%
D20*
%TO.C,NPTH10*%
X95689350Y-58500000D03*
%TD*%
D16*
%TO.C,C1*%
X190464350Y-71025000D03*
X187514350Y-71025000D03*
%TD*%
D20*
%TO.C,NPTH6*%
X34689350Y-58500000D03*
%TD*%
D21*
%TO.C,R44*%
X216114350Y-36400000D03*
X217764350Y-36400000D03*
%TD*%
D13*
%TO.C,J7*%
X67004344Y-137500000D03*
D14*
X70964344Y-137500000D03*
%TD*%
D11*
%TO.C,D97*%
X151996844Y-29812500D03*
X151996844Y-31687500D03*
%TD*%
D29*
%TO.C,L1*%
X206689350Y-95250000D03*
X206689350Y-103550000D03*
%TD*%
D10*
%TO.C,D72*%
X120111844Y-141187500D03*
X120111844Y-139312500D03*
%TD*%
D34*
%TO.C,KiKit_TO_3*%
X25810650Y-148500046D03*
%TD*%
D16*
%TO.C,C29*%
X42714350Y-122250000D03*
X39764350Y-122250000D03*
%TD*%
D17*
%TO.C,C35*%
X90864350Y-48550000D03*
X93814350Y-48550000D03*
%TD*%
D11*
%TO.C,D55*%
X91996844Y-88812500D03*
X91996844Y-90687500D03*
%TD*%
%TO.C,D83*%
X131996844Y-88812500D03*
X131996844Y-90687500D03*
%TD*%
D25*
%TO.C,NPTH2*%
X34689350Y-31500000D03*
%TD*%
D11*
%TO.C,D24*%
X71996844Y-88812500D03*
X71996844Y-90687500D03*
%TD*%
D20*
%TO.C,NPTH9*%
X95689350Y-53500000D03*
%TD*%
D10*
%TO.C,D62*%
X102011844Y-82187500D03*
X102011844Y-80312500D03*
%TD*%
D11*
%TO.C,D79*%
X133896844Y-29812500D03*
X133896844Y-31687500D03*
%TD*%
%TO.C,D125*%
X191996844Y-29812500D03*
X191996844Y-31687500D03*
%TD*%
%TO.C,D83*%
X131996844Y-29812500D03*
X131996844Y-31687500D03*
%TD*%
D32*
%TO.C,F20*%
X229329350Y-135450000D03*
X229329350Y-138850000D03*
X239249350Y-135450000D03*
X239249350Y-138850000D03*
%TD*%
D23*
%TO.C,J25*%
X231849350Y-119300000D03*
D24*
X231849350Y-116760000D03*
X234389350Y-119300000D03*
X234389350Y-116760000D03*
X236929350Y-119300000D03*
X236929350Y-116760000D03*
X239469350Y-119300000D03*
X239469350Y-116760000D03*
%TD*%
D25*
%TO.C,PI1*%
X262189350Y-90500000D03*
%TD*%
D15*
%TO.C,J15*%
X107004344Y-33500000D03*
D14*
X103044344Y-33500000D03*
%TD*%
D13*
%TO.C,J18*%
X147004344Y-137500000D03*
D14*
X150964344Y-137500000D03*
%TD*%
D11*
%TO.C,D107*%
X173896844Y-29812500D03*
X173896844Y-31687500D03*
%TD*%
D25*
%TO.C,NPTH1*%
X118439350Y-31500000D03*
%TD*%
D16*
%TO.C,C3*%
X150464350Y-71025000D03*
X147514350Y-71025000D03*
%TD*%
%TO.C,C2*%
X46164350Y-40900000D03*
X43214350Y-40900000D03*
%TD*%
D31*
%TO.C,C23*%
X218639350Y-38175000D03*
X218639350Y-39725000D03*
%TD*%
D10*
%TO.C,D41*%
X208379350Y-138512500D03*
X208379350Y-136637500D03*
%TD*%
D11*
%TO.C,D51*%
X93896844Y-88812500D03*
X93896844Y-90687500D03*
%TD*%
D10*
%TO.C,D86*%
X140111844Y-141187500D03*
X140111844Y-139312500D03*
%TD*%
D16*
%TO.C,C44*%
X183264350Y-63350000D03*
X180314350Y-63350000D03*
%TD*%
%TO.C,C27*%
X186414350Y-40850000D03*
X183464350Y-40850000D03*
%TD*%
D10*
%TO.C,D86*%
X140111844Y-82187500D03*
X140111844Y-80312500D03*
%TD*%
D20*
%TO.C,NPTH8*%
X55689350Y-117500000D03*
%TD*%
D10*
%TO.C,D90*%
X142011844Y-82187500D03*
X142011844Y-80312500D03*
%TD*%
%TO.C,D104*%
X162011844Y-82187500D03*
X162011844Y-80312500D03*
%TD*%
D28*
%TO.C,D32*%
X107861850Y-120150000D03*
X109736850Y-120150000D03*
%TD*%
D12*
%TO.C,KiKit_FID_T_2*%
X268689350Y-22500000D03*
%TD*%
D16*
%TO.C,C48*%
X90939350Y-129850000D03*
X87989350Y-129850000D03*
%TD*%
D13*
%TO.C,J3*%
X82329350Y-55900000D03*
D14*
X86289350Y-55900000D03*
%TD*%
D11*
%TO.C,D121*%
X193896844Y-29812500D03*
X193896844Y-31687500D03*
%TD*%
D15*
%TO.C,J21*%
X167004344Y-92500000D03*
D14*
X163044344Y-92500000D03*
%TD*%
D16*
%TO.C,C38*%
X123064350Y-63300000D03*
X120114350Y-63300000D03*
%TD*%
D10*
%TO.C,D19*%
X62011844Y-82187500D03*
X62011844Y-80312500D03*
%TD*%
D20*
%TO.C,NPTH6*%
X34689350Y-117500000D03*
%TD*%
D16*
%TO.C,C1*%
X190464350Y-130025000D03*
X187514350Y-130025000D03*
%TD*%
D23*
%TO.C,J6*%
X220569350Y-119300000D03*
D24*
X220569350Y-116760000D03*
X223109350Y-119300000D03*
X223109350Y-116760000D03*
X225649350Y-119300000D03*
X225649350Y-116760000D03*
X228189350Y-119300000D03*
X228189350Y-116760000D03*
%TD*%
D12*
%TO.C,KiKit_FID_T_3*%
X28310650Y-148500046D03*
%TD*%
D10*
%TO.C,D4*%
X41696850Y-141187500D03*
X41696850Y-139312500D03*
%TD*%
D15*
%TO.C,J5*%
X46689350Y-33500000D03*
D14*
X42729350Y-33500000D03*
%TD*%
D17*
%TO.C,C33*%
X70864350Y-48600000D03*
X73814350Y-48600000D03*
%TD*%
D23*
%TO.C,J9*%
X210689350Y-106700000D03*
D24*
X208149350Y-106700000D03*
%TD*%
D16*
%TO.C,C47*%
X130864350Y-70850000D03*
X127914350Y-70850000D03*
%TD*%
%TO.C,C16*%
X126564350Y-40900000D03*
X123614350Y-40900000D03*
%TD*%
D25*
%TO.C,NPTH1*%
X118439350Y-90500000D03*
%TD*%
D11*
%TO.C,D79*%
X133896844Y-88812500D03*
X133896844Y-90687500D03*
%TD*%
D16*
%TO.C,C6*%
X216064350Y-46550000D03*
X213114350Y-46550000D03*
%TD*%
D11*
%TO.C,D93*%
X153896844Y-88812500D03*
X153896844Y-90687500D03*
%TD*%
D15*
%TO.C,J15*%
X107004344Y-92500000D03*
D14*
X103044344Y-92500000D03*
%TD*%
D13*
%TO.C,J12*%
X87004344Y-78500000D03*
D14*
X90964344Y-78500000D03*
%TD*%
D16*
%TO.C,C4*%
X70464350Y-129875000D03*
X67514350Y-129875000D03*
%TD*%
D11*
%TO.C,D65*%
X113896844Y-29812500D03*
X113896844Y-31687500D03*
%TD*%
D21*
%TO.C,R24*%
X111274350Y-61150000D03*
X112924350Y-61150000D03*
%TD*%
D13*
%TO.C,J26*%
X162849350Y-55800000D03*
D14*
X166809350Y-55800000D03*
%TD*%
D25*
%TO.C,NPTH4*%
X115689350Y-139500000D03*
%TD*%
D13*
%TO.C,J14*%
X107004344Y-78500000D03*
D14*
X110964344Y-78500000D03*
%TD*%
D17*
%TO.C,C43*%
X170864350Y-48550000D03*
X173814350Y-48550000D03*
%TD*%
D13*
%TO.C,J10*%
X212929350Y-137500000D03*
D14*
X216889350Y-137500000D03*
%TD*%
D10*
%TO.C,D104*%
X162011844Y-141187500D03*
X162011844Y-139312500D03*
%TD*%
D25*
%TO.C,PI4*%
X204189350Y-80500000D03*
%TD*%
D34*
%TO.C,KiKit_TO_2*%
X271189350Y-22500000D03*
%TD*%
D25*
%TO.C,NPTH3*%
X34689350Y-139500000D03*
%TD*%
D17*
%TO.C,C31*%
X50664350Y-107650000D03*
X53614350Y-107650000D03*
%TD*%
D35*
%TO.C,C5*%
X218939350Y-103975000D03*
X218939350Y-101025000D03*
%TD*%
D13*
%TO.C,J22*%
X187004344Y-137500000D03*
D14*
X190964344Y-137500000D03*
%TD*%
D10*
%TO.C,D100*%
X160111844Y-141187500D03*
X160111844Y-139312500D03*
%TD*%
D23*
%TO.C,J11*%
X213679350Y-72700000D03*
D24*
X216219350Y-72700000D03*
%TD*%
D33*
%TO.C,D38*%
X182876850Y-57700000D03*
X181001850Y-57700000D03*
%TD*%
D15*
%TO.C,J8*%
X67004344Y-33500000D03*
D14*
X63044344Y-33500000D03*
%TD*%
D35*
%TO.C,C5*%
X218939350Y-44975000D03*
X218939350Y-42025000D03*
%TD*%
D11*
%TO.C,D37*%
X73896844Y-29812500D03*
X73896844Y-31687500D03*
%TD*%
D16*
%TO.C,C26*%
X146464350Y-99850000D03*
X143514350Y-99850000D03*
%TD*%
D17*
%TO.C,C37*%
X110864350Y-48550000D03*
X113814350Y-48550000D03*
%TD*%
D16*
%TO.C,C18*%
X216064350Y-107950000D03*
X213114350Y-107950000D03*
%TD*%
D13*
%TO.C,J26*%
X162849350Y-114800000D03*
D14*
X166809350Y-114800000D03*
%TD*%
D32*
%TO.C,F1*%
X73489350Y-58200000D03*
X73489350Y-54800000D03*
X63569350Y-58200000D03*
X63569350Y-54800000D03*
%TD*%
D16*
%TO.C,C46*%
X170764350Y-70850000D03*
X167814350Y-70850000D03*
%TD*%
%TO.C,C21*%
X106464350Y-40900000D03*
X103514350Y-40900000D03*
%TD*%
D11*
%TO.C,D37*%
X73896844Y-88812500D03*
X73896844Y-90687500D03*
%TD*%
D16*
%TO.C,C27*%
X186414350Y-99850000D03*
X183464350Y-99850000D03*
%TD*%
D15*
%TO.C,J8*%
X67004344Y-92500000D03*
D14*
X63044344Y-92500000D03*
%TD*%
D25*
%TO.C,PI3*%
X204189350Y-90500000D03*
%TD*%
D10*
%TO.C,D76*%
X122011844Y-141187500D03*
X122011844Y-139312500D03*
%TD*%
D20*
%TO.C,NPTH7*%
X55689350Y-53500000D03*
%TD*%
D36*
%TO.C,C13*%
X204389350Y-51300000D03*
X204389350Y-59300000D03*
%TD*%
D26*
%TO.C,U1*%
X214989350Y-40950000D03*
D27*
X213084350Y-43512500D03*
X214354350Y-43512500D03*
X215624350Y-43512500D03*
X216894350Y-43512500D03*
X216894350Y-38387500D03*
X215624350Y-38387500D03*
X214354350Y-38387500D03*
X213084350Y-38387500D03*
%TD*%
D16*
%TO.C,C44*%
X183264350Y-122350000D03*
X180314350Y-122350000D03*
%TD*%
D23*
%TO.C,J9*%
X210689350Y-47700000D03*
D24*
X208149350Y-47700000D03*
%TD*%
D17*
%TO.C,C37*%
X110864350Y-107550000D03*
X113814350Y-107550000D03*
%TD*%
D11*
%TO.C,D69*%
X111996844Y-29812500D03*
X111996844Y-31687500D03*
%TD*%
D17*
%TO.C,C14*%
X213114350Y-51400000D03*
X216064350Y-51400000D03*
%TD*%
D23*
%TO.C,J27*%
X243189350Y-119300000D03*
D24*
X243189350Y-116760000D03*
X245729350Y-119300000D03*
X245729350Y-116760000D03*
X248269350Y-119300000D03*
X248269350Y-116760000D03*
X250809350Y-119300000D03*
X250809350Y-116760000D03*
%TD*%
D11*
%TO.C,D69*%
X111996844Y-88812500D03*
X111996844Y-90687500D03*
%TD*%
D34*
%TO.C,KiKit_TO_1*%
X25810650Y-22500000D03*
%TD*%
D17*
%TO.C,C45*%
X190814350Y-107550000D03*
X193764350Y-107550000D03*
%TD*%
D30*
%TO.C,C8*%
X224989350Y-100500000D03*
X232989350Y-100500000D03*
%TD*%
D10*
%TO.C,D114*%
X180111844Y-141187500D03*
X180111844Y-139312500D03*
%TD*%
D16*
%TO.C,C15*%
X110464350Y-71025000D03*
X107514350Y-71025000D03*
%TD*%
D21*
%TO.C,R1*%
X71164350Y-61250000D03*
X72814350Y-61250000D03*
%TD*%
D16*
%TO.C,C32*%
X63064350Y-122300000D03*
X60114350Y-122300000D03*
%TD*%
D11*
%TO.C,D121*%
X193896844Y-88812500D03*
X193896844Y-90687500D03*
%TD*%
D13*
%TO.C,J16*%
X127004344Y-137500000D03*
D14*
X130964344Y-137500000D03*
%TD*%
D25*
%TO.C,PI1*%
X262189350Y-31500000D03*
%TD*%
D28*
%TO.C,D1*%
X67751850Y-120250000D03*
X69626850Y-120250000D03*
%TD*%
D22*
%TO.C,C22*%
X216164350Y-93850000D03*
X217714350Y-93850000D03*
%TD*%
D10*
%TO.C,D42*%
X80111844Y-82187500D03*
X80111844Y-80312500D03*
%TD*%
D28*
%TO.C,D1*%
X67751850Y-61250000D03*
X69626850Y-61250000D03*
%TD*%
D11*
%TO.C,D30*%
X53581850Y-88812500D03*
X53581850Y-90687500D03*
%TD*%
D10*
%TO.C,D58*%
X100111844Y-82187500D03*
X100111844Y-80312500D03*
%TD*%
D11*
%TO.C,D125*%
X191996844Y-88812500D03*
X191996844Y-90687500D03*
%TD*%
D15*
%TO.C,J23*%
X187004344Y-92500000D03*
D14*
X183044344Y-92500000D03*
%TD*%
D36*
%TO.C,C13*%
X204389350Y-110300000D03*
X204389350Y-118300000D03*
%TD*%
D13*
%TO.C,J24*%
X122439350Y-114800000D03*
D14*
X126399350Y-114800000D03*
%TD*%
D15*
%TO.C,J17*%
X127004344Y-33500000D03*
D14*
X123044344Y-33500000D03*
%TD*%
D16*
%TO.C,C42*%
X163464350Y-63350000D03*
X160514350Y-63350000D03*
%TD*%
D20*
%TO.C,NPTH5*%
X34689350Y-112500000D03*
%TD*%
D18*
%TO.C,J2*%
X209059350Y-91770000D03*
D19*
X209059350Y-89230000D03*
X211599350Y-91770000D03*
X211599350Y-89230000D03*
X214139350Y-91770000D03*
X214139350Y-89230000D03*
X216679350Y-91770000D03*
X216679350Y-89230000D03*
X219219350Y-91770000D03*
X219219350Y-89230000D03*
X221759350Y-91770000D03*
X221759350Y-89230000D03*
X224299350Y-91770000D03*
X224299350Y-89230000D03*
X226839350Y-91770000D03*
X226839350Y-89230000D03*
X229379350Y-91770000D03*
X229379350Y-89230000D03*
X231919350Y-91770000D03*
X231919350Y-89230000D03*
X234459350Y-91770000D03*
X234459350Y-89230000D03*
X236999350Y-91770000D03*
X236999350Y-89230000D03*
X239539350Y-91770000D03*
X239539350Y-89230000D03*
X242079350Y-91770000D03*
X242079350Y-89230000D03*
X244619350Y-91770000D03*
X244619350Y-89230000D03*
X247159350Y-91770000D03*
X247159350Y-89230000D03*
X249699350Y-91770000D03*
X249699350Y-89230000D03*
X252239350Y-91770000D03*
X252239350Y-89230000D03*
X254779350Y-91770000D03*
X254779350Y-89230000D03*
X257319350Y-91770000D03*
X257319350Y-89230000D03*
%TD*%
D13*
%TO.C,J16*%
X127004344Y-78500000D03*
D14*
X130964344Y-78500000D03*
%TD*%
D25*
%TO.C,NPTH3*%
X34689350Y-80500000D03*
%TD*%
D32*
%TO.C,F19*%
X154009350Y-58100000D03*
X154009350Y-54700000D03*
X144089350Y-58100000D03*
X144089350Y-54700000D03*
%TD*%
D16*
%TO.C,C3*%
X150464350Y-130025000D03*
X147514350Y-130025000D03*
%TD*%
D10*
%TO.C,D19*%
X62011844Y-141187500D03*
X62011844Y-139312500D03*
%TD*%
D16*
%TO.C,C15*%
X110464350Y-130025000D03*
X107514350Y-130025000D03*
%TD*%
%TO.C,C7*%
X66664350Y-99900000D03*
X63714350Y-99900000D03*
%TD*%
%TO.C,C28*%
X50289350Y-70850000D03*
X47339350Y-70850000D03*
%TD*%
D17*
%TO.C,C30*%
X217764350Y-48100000D03*
X220714350Y-48100000D03*
%TD*%
D16*
%TO.C,C36*%
X103064350Y-63250000D03*
X100114350Y-63250000D03*
%TD*%
D20*
%TO.C,NPTH8*%
X55689350Y-58500000D03*
%TD*%
D16*
%TO.C,C16*%
X126564350Y-99900000D03*
X123614350Y-99900000D03*
%TD*%
D32*
%TO.C,F19*%
X154009350Y-117100000D03*
X154009350Y-113700000D03*
X144089350Y-117100000D03*
X144089350Y-113700000D03*
%TD*%
D17*
%TO.C,C35*%
X90864350Y-107550000D03*
X93814350Y-107550000D03*
%TD*%
D25*
%TO.C,PI4*%
X204189350Y-139500000D03*
%TD*%
D11*
%TO.C,D30*%
X53581850Y-29812500D03*
X53581850Y-31687500D03*
%TD*%
D25*
%TO.C,PI2*%
X262189350Y-139500000D03*
%TD*%
D10*
%TO.C,D43*%
X82011844Y-141187500D03*
X82011844Y-139312500D03*
%TD*%
D16*
%TO.C,C36*%
X103064350Y-122250000D03*
X100114350Y-122250000D03*
%TD*%
M02*
