M48
; DRILL file {KiCad 9.0.0+dfsg-1} date 2025-04-17T15:34:43+0100
; FORMAT={-:-/ absolute / metric / decimal}
; #@! TF.CreationDate,2025-04-17T15:34:43+01:00
; #@! TF.GenerationSoftware,Kicad,Pcbnew,9.0.0+dfsg-1
; #@! TF.FileFunction,NonPlated,1,4,NPTH
FMAT,2
METRIC
; #@! TA.AperFunction,NonPlated,NPTH,ComponentDrill
T1C1.500
; #@! TA.AperFunction,NonPlated,NPTH,ComponentDrill
T2C2.750
%
G90
G05
T1
X25.811Y-22.5
X25.811Y-148.5
X271.189Y-22.5
T2
X34.689Y-31.5
X34.689Y-53.5
X34.689Y-58.5
X34.689Y-80.5
X34.689Y-90.5
X34.689Y-112.5
X34.689Y-117.5
X34.689Y-139.5
X55.689Y-53.5
X55.689Y-58.5
X55.689Y-112.5
X55.689Y-117.5
X95.689Y-53.5
X95.689Y-58.5
X95.689Y-112.5
X95.689Y-117.5
X115.689Y-80.5
X115.689Y-139.5
X118.439Y-31.5
X118.439Y-90.5
X135.689Y-53.5
X135.689Y-58.5
X135.689Y-112.5
X135.689Y-117.5
X175.689Y-53.5
X175.689Y-58.5
X175.689Y-112.5
X175.689Y-117.5
X204.189Y-31.5
X204.189Y-80.5
X204.189Y-90.5
X204.189Y-139.5
X262.189Y-31.5
X262.189Y-80.5
X262.189Y-90.5
X262.189Y-139.5
M30
