%TF.GenerationSoftware,KiCad,Pcbnew,9.0.0+dfsg-1*%
%TF.CreationDate,2025-04-06T22:27:04+01:00*%
%TF.ProjectId,panel-16,70616e65-6c2d-4313-962e-6b696361645f,rev?*%
%TF.SameCoordinates,Original*%
%TF.FileFunction,Paste,Bot*%
%TF.FilePolarity,Positive*%
%FSLAX46Y46*%
G04 Gerber Fmt 4.6, Leading zero omitted, Abs format (unit mm)*
G04 Created by KiCad (PCBNEW 9.0.0+dfsg-1) date 2025-04-06 22:27:04*
%MOMM*%
%LPD*%
G01*
G04 APERTURE LIST*
G04 Aperture macros list*
%AMRoundRect*
0 Rectangle with rounded corners*
0 $1 Rounding radius*
0 $2 $3 $4 $5 $6 $7 $8 $9 X,Y pos of 4 corners*
0 Add a 4 corners polygon primitive as box body*
4,1,4,$2,$3,$4,$5,$6,$7,$8,$9,$2,$3,0*
0 Add four circle primitives for the rounded corners*
1,1,$1+$1,$2,$3*
1,1,$1+$1,$4,$5*
1,1,$1+$1,$6,$7*
1,1,$1+$1,$8,$9*
0 Add four rect primitives between the rounded corners*
20,1,$1+$1,$2,$3,$4,$5,0*
20,1,$1+$1,$4,$5,$6,$7,0*
20,1,$1+$1,$6,$7,$8,$9,0*
20,1,$1+$1,$8,$9,$2,$3,0*%
%AMFreePoly0*
4,1,5,0.202500,-0.377500,-0.202500,-0.377500,-0.202500,0.377500,0.202500,0.377500,0.202500,-0.377500,0.202500,-0.377500,$1*%
%AMFreePoly1*
4,1,53,0.139616,1.240000,0.142657,1.232657,0.150000,1.229616,0.189616,1.229616,0.189616,-1.249616,0.150000,-1.249616,0.142657,-1.252657,0.139616,-1.260000,0.139616,-1.849616,-0.139616,-1.849616,-0.139616,-1.260000,-0.142657,-1.252657,-0.150000,-1.249616,-1.339616,-1.249616,-1.339616,-1.210000,-1.342657,-1.202657,-1.350000,-1.199616,-2.039616,-1.199616,-2.039616,-0.770384,-1.350000,-0.770384,
-1.342657,-0.767343,-1.339616,-0.760000,-1.339616,-0.560000,-1.342657,-0.552657,-1.350000,-0.549616,-2.039616,-0.549616,-2.039616,-0.120384,-1.350000,-0.120384,-1.342657,-0.117343,-1.339616,-0.110000,-1.339616,0.090000,-1.342657,0.097343,-1.350000,0.100384,-2.039616,0.100384,-2.039616,0.529616,-1.350000,0.529616,-1.342657,0.532657,-1.339616,0.540000,-1.339616,0.740000,-1.342657,0.747343,
-1.350000,0.750384,-2.039616,0.750384,-2.039616,1.179616,-1.350000,1.179616,-1.342657,1.182657,-1.339616,1.190000,-1.339616,1.229616,-0.150000,1.229616,-0.142657,1.232657,-0.139616,1.240000,-0.139616,1.829616,0.139616,1.829616,0.139616,1.240000,0.139616,1.240000,$1*%
%AMFreePoly2*
4,1,27,0.269134,0.146194,0.285355,0.135355,0.296194,0.119134,0.300000,0.100000,0.300000,-0.450000,0.296194,-0.469134,0.285355,-0.485355,0.269134,-0.496194,0.250000,-0.500000,0.100000,-0.500000,0.080866,-0.496194,0.064645,-0.485355,0.053806,-0.469134,0.050000,-0.450000,0.050000,-0.150000,-0.250000,-0.150000,-0.269134,-0.146194,-0.285355,-0.135355,-0.296194,-0.119134,-0.300000,-0.100000,
-0.300000,0.100000,-0.296194,0.119134,-0.285355,0.135355,-0.269134,0.146194,-0.250000,0.150000,0.250000,0.150000,0.269134,0.146194,0.269134,0.146194,$1*%
%AMFreePoly3*
4,1,27,0.269134,0.496194,0.285355,0.485355,0.296194,0.469134,0.300000,0.450000,0.300000,-0.100000,0.296194,-0.119134,0.285355,-0.135355,0.269134,-0.146194,0.250000,-0.150000,-0.250000,-0.150000,-0.269134,-0.146194,-0.285355,-0.135355,-0.296194,-0.119134,-0.300000,-0.100000,-0.300000,0.100000,-0.296194,0.119134,-0.285355,0.135355,-0.269134,0.146194,-0.250000,0.150000,0.050000,0.150000,
0.050000,0.450000,0.053806,0.469134,0.064645,0.485355,0.080866,0.496194,0.100000,0.500000,0.250000,0.500000,0.269134,0.496194,0.269134,0.496194,$1*%
%AMFreePoly4*
4,1,27,-0.080866,0.496194,-0.064645,0.485355,-0.053806,0.469134,-0.050000,0.450000,-0.050000,0.150000,0.250000,0.150000,0.269134,0.146194,0.285355,0.135355,0.296194,0.119134,0.300000,0.100000,0.300000,-0.100000,0.296194,-0.119134,0.285355,-0.135355,0.269134,-0.146194,0.250000,-0.150000,-0.250000,-0.150000,-0.269134,-0.146194,-0.285355,-0.135355,-0.296194,-0.119134,-0.300000,-0.100000,
-0.300000,0.450000,-0.296194,0.469134,-0.285355,0.485355,-0.269134,0.496194,-0.250000,0.500000,-0.100000,0.500000,-0.080866,0.496194,-0.080866,0.496194,$1*%
%AMFreePoly5*
4,1,27,0.269134,0.146194,0.285355,0.135355,0.296194,0.119134,0.300000,0.100000,0.300000,-0.100000,0.296194,-0.119134,0.285355,-0.135355,0.269134,-0.146194,0.250000,-0.150000,-0.050000,-0.150000,-0.050000,-0.450000,-0.053806,-0.469134,-0.064645,-0.485355,-0.080866,-0.496194,-0.100000,-0.500000,-0.250000,-0.500000,-0.269134,-0.496194,-0.285355,-0.485355,-0.296194,-0.469134,-0.300000,-0.450000,
-0.300000,0.100000,-0.296194,0.119134,-0.285355,0.135355,-0.269134,0.146194,-0.250000,0.150000,0.250000,0.150000,0.269134,0.146194,0.269134,0.146194,$1*%
G04 Aperture macros list end*
%ADD10FreePoly0,180.000000*%
%ADD11FreePoly1,90.000000*%
%ADD12RoundRect,0.200000X-0.200000X-0.275000X0.200000X-0.275000X0.200000X0.275000X-0.200000X0.275000X0*%
%ADD13RoundRect,0.250000X-0.712500X-2.475000X0.712500X-2.475000X0.712500X2.475000X-0.712500X2.475000X0*%
%ADD14RoundRect,0.200000X-0.275000X0.200000X-0.275000X-0.200000X0.275000X-0.200000X0.275000X0.200000X0*%
%ADD15RoundRect,0.200000X0.200000X0.275000X-0.200000X0.275000X-0.200000X-0.275000X0.200000X-0.275000X0*%
%ADD16RoundRect,0.150000X-0.150000X0.587500X-0.150000X-0.587500X0.150000X-0.587500X0.150000X0.587500X0*%
%ADD17RoundRect,0.150000X0.587500X0.150000X-0.587500X0.150000X-0.587500X-0.150000X0.587500X-0.150000X0*%
%ADD18R,1.100000X1.100000*%
%ADD19FreePoly0,0.000000*%
%ADD20FreePoly1,270.000000*%
%ADD21RoundRect,0.150000X0.150000X-0.587500X0.150000X0.587500X-0.150000X0.587500X-0.150000X-0.587500X0*%
%ADD22R,0.600000X0.700000*%
%ADD23RoundRect,0.200000X0.275000X-0.200000X0.275000X0.200000X-0.275000X0.200000X-0.275000X-0.200000X0*%
%ADD24RoundRect,0.100000X0.225000X0.100000X-0.225000X0.100000X-0.225000X-0.100000X0.225000X-0.100000X0*%
%ADD25RoundRect,0.250000X0.650000X-0.325000X0.650000X0.325000X-0.650000X0.325000X-0.650000X-0.325000X0*%
%ADD26RoundRect,0.250000X0.712500X2.475000X-0.712500X2.475000X-0.712500X-2.475000X0.712500X-2.475000X0*%
%ADD27RoundRect,0.100000X-0.225000X-0.100000X0.225000X-0.100000X0.225000X0.100000X-0.225000X0.100000X0*%
%ADD28R,0.700000X0.600000*%
%ADD29R,2.500000X2.300000*%
%ADD30R,2.300000X2.500000*%
%ADD31RoundRect,0.250000X-0.325000X-0.650000X0.325000X-0.650000X0.325000X0.650000X-0.325000X0.650000X0*%
%ADD32RoundRect,0.100000X0.100000X-0.225000X0.100000X0.225000X-0.100000X0.225000X-0.100000X-0.225000X0*%
%ADD33FreePoly2,90.000000*%
%ADD34RoundRect,0.050000X0.075000X-0.250000X0.075000X0.250000X-0.075000X0.250000X-0.075000X-0.250000X0*%
%ADD35FreePoly3,90.000000*%
%ADD36RoundRect,0.050000X1.150000X-0.100000X1.150000X0.100000X-1.150000X0.100000X-1.150000X-0.100000X0*%
%ADD37FreePoly4,90.000000*%
%ADD38FreePoly5,90.000000*%
%ADD39RoundRect,0.225000X-0.225000X-0.250000X0.225000X-0.250000X0.225000X0.250000X-0.225000X0.250000X0*%
%ADD40RoundRect,0.250000X-0.650000X0.325000X-0.650000X-0.325000X0.650000X-0.325000X0.650000X0.325000X0*%
%ADD41R,4.860000X3.360000*%
%ADD42R,1.400000X1.390000*%
%ADD43RoundRect,0.140000X0.170000X-0.140000X0.170000X0.140000X-0.170000X0.140000X-0.170000X-0.140000X0*%
G04 APERTURE END LIST*
D10*
%TO.C,Q34*%
X108399350Y-111487500D03*
D11*
X107414350Y-113137500D03*
D10*
X107749350Y-111487500D03*
X107099350Y-111487500D03*
X106449350Y-111487500D03*
%TD*%
D12*
%TO.C,R140*%
X184421844Y-109050000D03*
X186071844Y-109050000D03*
%TD*%
D13*
%TO.C,F11*%
X121259344Y-42950000D03*
X128034344Y-42950000D03*
%TD*%
D14*
%TO.C,R72*%
X91246844Y-31425000D03*
X91246844Y-33075000D03*
%TD*%
%TO.C,R142*%
X191246844Y-31425000D03*
X191246844Y-33075000D03*
%TD*%
D15*
%TO.C,R13*%
X64036844Y-74150000D03*
X62386844Y-74150000D03*
%TD*%
D16*
%TO.C,D128*%
X249939350Y-97362500D03*
X251839350Y-97362500D03*
X250889350Y-99237500D03*
%TD*%
D14*
%TO.C,R42*%
X209539350Y-43975000D03*
X209539350Y-45625000D03*
%TD*%
D17*
%TO.C,U9*%
X218364350Y-104350000D03*
X218364350Y-106250000D03*
X216489350Y-105300000D03*
%TD*%
D12*
%TO.C,R81*%
X109971844Y-98350000D03*
X111621844Y-98350000D03*
%TD*%
D18*
%TO.C,D61*%
X115311844Y-69750000D03*
X115311844Y-72550000D03*
%TD*%
D13*
%TO.C,F7*%
X81259344Y-101950000D03*
X88034344Y-101950000D03*
%TD*%
D15*
%TO.C,R52*%
X89586844Y-120950000D03*
X87936844Y-120950000D03*
%TD*%
%TO.C,R97*%
X133014350Y-109000000D03*
X131364350Y-109000000D03*
%TD*%
D19*
%TO.C,Q17*%
X100721844Y-109350000D03*
D20*
X101706844Y-107700000D03*
D19*
X101371844Y-109350000D03*
X102021844Y-109350000D03*
X102671844Y-109350000D03*
%TD*%
D18*
%TO.C,D75*%
X135311844Y-69750000D03*
X135311844Y-72550000D03*
%TD*%
%TO.C,D74*%
X135261844Y-124250000D03*
X135261844Y-127050000D03*
%TD*%
D21*
%TO.C,Q8*%
X69596844Y-48987500D03*
X67696844Y-48987500D03*
X68646844Y-47112500D03*
%TD*%
D14*
%TO.C,R145*%
X245769350Y-112875000D03*
X245769350Y-114525000D03*
%TD*%
D12*
%TO.C,R104*%
X141164350Y-62000000D03*
X142814350Y-62000000D03*
%TD*%
D19*
%TO.C,Q21*%
X120721844Y-50350000D03*
D20*
X121706844Y-48700000D03*
D19*
X121371844Y-50350000D03*
X122021844Y-50350000D03*
X122671844Y-50350000D03*
%TD*%
D18*
%TO.C,D70*%
X123561844Y-66750000D03*
X123561844Y-69550000D03*
%TD*%
D15*
%TO.C,R85*%
X106071844Y-105850000D03*
X104421844Y-105850000D03*
%TD*%
D16*
%TO.C,D131*%
X242939350Y-97362500D03*
X244839350Y-97362500D03*
X243889350Y-99237500D03*
%TD*%
D22*
%TO.C,D47*%
X62711844Y-71150000D03*
X64111844Y-71150000D03*
%TD*%
D23*
%TO.C,R131*%
X180111844Y-78775000D03*
X180111844Y-77125000D03*
%TD*%
D13*
%TO.C,F9*%
X101259344Y-101950000D03*
X108034344Y-101950000D03*
%TD*%
D15*
%TO.C,R52*%
X89586844Y-61950000D03*
X87936844Y-61950000D03*
%TD*%
%TO.C,R119*%
X169586844Y-61950000D03*
X167936844Y-61950000D03*
%TD*%
D13*
%TO.C,F3*%
X40944350Y-42950000D03*
X47719350Y-42950000D03*
%TD*%
D18*
%TO.C,D25*%
X83561844Y-66750000D03*
X83561844Y-69550000D03*
%TD*%
D15*
%TO.C,R53*%
X43721850Y-131650000D03*
X42071850Y-131650000D03*
%TD*%
D12*
%TO.C,R80*%
X109971844Y-96850000D03*
X111621844Y-96850000D03*
%TD*%
D15*
%TO.C,R41*%
X214564350Y-45350000D03*
X212914350Y-45350000D03*
%TD*%
D18*
%TO.C,D77*%
X130446844Y-104250000D03*
X130446844Y-101450000D03*
%TD*%
D14*
%TO.C,R31*%
X228169350Y-53875000D03*
X228169350Y-55525000D03*
%TD*%
D12*
%TO.C,R51*%
X80964350Y-62000000D03*
X82614350Y-62000000D03*
%TD*%
D14*
%TO.C,R5*%
X50931850Y-90425000D03*
X50931850Y-92075000D03*
%TD*%
D18*
%TO.C,D28*%
X95311844Y-128750000D03*
X95311844Y-131550000D03*
%TD*%
D15*
%TO.C,R116*%
X164036844Y-131650000D03*
X162386844Y-131650000D03*
%TD*%
D16*
%TO.C,D126*%
X235939350Y-97362500D03*
X237839350Y-97362500D03*
X236889350Y-99237500D03*
%TD*%
D18*
%TO.C,D117*%
X195311844Y-128750000D03*
X195311844Y-131550000D03*
%TD*%
D23*
%TO.C,R55*%
X212329350Y-128175000D03*
X212329350Y-126525000D03*
%TD*%
D18*
%TO.C,D81*%
X118746844Y-46750000D03*
X118746844Y-43950000D03*
%TD*%
D24*
%TO.C,U10*%
X72996844Y-47150000D03*
X72996844Y-47800000D03*
X72996844Y-48450000D03*
X71096844Y-48450000D03*
X71096844Y-47150000D03*
%TD*%
D21*
%TO.C,Q16*%
X109596844Y-48987500D03*
X107696844Y-48987500D03*
X108646844Y-47112500D03*
%TD*%
D15*
%TO.C,R111*%
X153014350Y-50000000D03*
X151364350Y-50000000D03*
%TD*%
D12*
%TO.C,R98*%
X124421844Y-109050000D03*
X126071844Y-109050000D03*
%TD*%
%TO.C,R51*%
X80964350Y-121000000D03*
X82614350Y-121000000D03*
%TD*%
%TO.C,R14*%
X61064350Y-62000000D03*
X62714350Y-62000000D03*
%TD*%
D25*
%TO.C,C19*%
X213489350Y-102675000D03*
X213489350Y-99725000D03*
%TD*%
D10*
%TO.C,Q19*%
X133286844Y-61650000D03*
D11*
X132301844Y-63300000D03*
D10*
X132636844Y-61650000D03*
X131986844Y-61650000D03*
X131336844Y-61650000D03*
%TD*%
%TO.C,Q31*%
X193286844Y-61650000D03*
D11*
X192301844Y-63300000D03*
D10*
X192636844Y-61650000D03*
X191986844Y-61650000D03*
X191336844Y-61650000D03*
%TD*%
%TO.C,Q31*%
X193286844Y-120650000D03*
D11*
X192301844Y-122300000D03*
D10*
X192636844Y-120650000D03*
X191986844Y-120650000D03*
X191336844Y-120650000D03*
%TD*%
D18*
%TO.C,D102*%
X175261844Y-65250000D03*
X175261844Y-68050000D03*
%TD*%
D14*
%TO.C,R37*%
X257069350Y-53875000D03*
X257069350Y-55525000D03*
%TD*%
D18*
%TO.C,D82*%
X118696844Y-42250000D03*
X118696844Y-39450000D03*
%TD*%
D15*
%TO.C,R115*%
X164036844Y-74150000D03*
X162386844Y-74150000D03*
%TD*%
D26*
%TO.C,F6*%
X92749344Y-69050000D03*
X85974344Y-69050000D03*
%TD*%
D12*
%TO.C,R6*%
X47621850Y-124150000D03*
X49271850Y-124150000D03*
%TD*%
D18*
%TO.C,D116*%
X195261844Y-124250000D03*
X195261844Y-127050000D03*
%TD*%
D12*
%TO.C,R8*%
X67964350Y-118100000D03*
X69614350Y-118100000D03*
%TD*%
D23*
%TO.C,R107*%
X142761844Y-139575000D03*
X142761844Y-137925000D03*
%TD*%
D13*
%TO.C,F9*%
X101259344Y-42950000D03*
X108034344Y-42950000D03*
%TD*%
D15*
%TO.C,R50*%
X84036844Y-133150000D03*
X82386844Y-133150000D03*
%TD*%
D27*
%TO.C,U13*%
X101011844Y-64850000D03*
X101011844Y-64200000D03*
X101011844Y-63550000D03*
X102911844Y-63550000D03*
X102911844Y-64850000D03*
%TD*%
D15*
%TO.C,R116*%
X164036844Y-72650000D03*
X162386844Y-72650000D03*
%TD*%
D22*
%TO.C,D6*%
X68189350Y-116600000D03*
X69589350Y-116600000D03*
%TD*%
D15*
%TO.C,R19*%
X73014350Y-50000000D03*
X71364350Y-50000000D03*
%TD*%
%TO.C,R19*%
X73014350Y-109000000D03*
X71364350Y-109000000D03*
%TD*%
%TO.C,R74*%
X104036844Y-72650000D03*
X102386844Y-72650000D03*
%TD*%
D18*
%TO.C,D102*%
X175261844Y-124250000D03*
X175261844Y-127050000D03*
%TD*%
D12*
%TO.C,R112*%
X144421844Y-50050000D03*
X146071844Y-50050000D03*
%TD*%
D19*
%TO.C,Q25*%
X140721844Y-50350000D03*
D20*
X141706844Y-48700000D03*
D19*
X141371844Y-50350000D03*
X142021844Y-50350000D03*
X142671844Y-50350000D03*
%TD*%
D12*
%TO.C,R23*%
X181114350Y-57700000D03*
X182764350Y-57700000D03*
%TD*%
D23*
%TO.C,R79*%
X102761844Y-80575000D03*
X102761844Y-78925000D03*
%TD*%
D12*
%TO.C,R57*%
X69971844Y-39350000D03*
X71621844Y-39350000D03*
%TD*%
D15*
%TO.C,R62*%
X84036844Y-72650000D03*
X82386844Y-72650000D03*
%TD*%
D10*
%TO.C,Q11*%
X93286844Y-61650000D03*
D11*
X92301844Y-63300000D03*
D10*
X92636844Y-61650000D03*
X91986844Y-61650000D03*
X91336844Y-61650000D03*
%TD*%
D12*
%TO.C,R137*%
X189971844Y-98350000D03*
X191621844Y-98350000D03*
%TD*%
D23*
%TO.C,R47*%
X216754350Y-128400000D03*
X216754350Y-126750000D03*
%TD*%
D27*
%TO.C,U13*%
X101011844Y-123850000D03*
X101011844Y-123200000D03*
X101011844Y-122550000D03*
X102911844Y-122550000D03*
X102911844Y-123850000D03*
%TD*%
D28*
%TO.C,D39*%
X220739350Y-69400000D03*
X220739350Y-68000000D03*
%TD*%
D10*
%TO.C,Q7*%
X73286844Y-120650000D03*
D11*
X72301844Y-122300000D03*
D10*
X72636844Y-120650000D03*
X71986844Y-120650000D03*
X71336844Y-120650000D03*
%TD*%
D22*
%TO.C,D133*%
X148709350Y-57500000D03*
X150109350Y-57500000D03*
%TD*%
D14*
%TO.C,R32*%
X239469350Y-112875000D03*
X239469350Y-114525000D03*
%TD*%
D12*
%TO.C,R106*%
X147936844Y-65150000D03*
X149586844Y-65150000D03*
%TD*%
D18*
%TO.C,D91*%
X150446844Y-104250000D03*
X150446844Y-101450000D03*
%TD*%
D22*
%TO.C,D49*%
X82711844Y-71150000D03*
X84111844Y-71150000D03*
%TD*%
D26*
%TO.C,F6*%
X92749344Y-128050000D03*
X85974344Y-128050000D03*
%TD*%
D18*
%TO.C,D82*%
X118696844Y-101250000D03*
X118696844Y-98450000D03*
%TD*%
D27*
%TO.C,U5*%
X40696850Y-64850000D03*
X40696850Y-64200000D03*
X40696850Y-63550000D03*
X42596850Y-63550000D03*
X42596850Y-64850000D03*
%TD*%
D15*
%TO.C,R9*%
X43721850Y-74150000D03*
X42071850Y-74150000D03*
%TD*%
D18*
%TO.C,D63*%
X110446844Y-45250000D03*
X110446844Y-42450000D03*
%TD*%
D22*
%TO.C,D101*%
X168161844Y-63550000D03*
X169561844Y-63550000D03*
%TD*%
%TO.C,D52*%
X85846844Y-48450000D03*
X84446844Y-48450000D03*
%TD*%
D10*
%TO.C,Q34*%
X108399350Y-52487500D03*
D11*
X107414350Y-54137500D03*
D10*
X107749350Y-52487500D03*
X107099350Y-52487500D03*
X106449350Y-52487500D03*
%TD*%
D14*
%TO.C,R96*%
X133896844Y-33225000D03*
X133896844Y-34875000D03*
%TD*%
%TO.C,R146*%
X243169350Y-112875000D03*
X243169350Y-114525000D03*
%TD*%
D13*
%TO.C,F3*%
X40944350Y-101950000D03*
X47719350Y-101950000D03*
%TD*%
D16*
%TO.C,Q30*%
X184411844Y-63012500D03*
X186311844Y-63012500D03*
X185361844Y-64887500D03*
%TD*%
D15*
%TO.C,R127*%
X166071844Y-105850000D03*
X164421844Y-105850000D03*
%TD*%
D22*
%TO.C,D101*%
X168161844Y-122550000D03*
X169561844Y-122550000D03*
%TD*%
D12*
%TO.C,R94*%
X129971844Y-37850000D03*
X131621844Y-37850000D03*
%TD*%
D22*
%TO.C,D120*%
X191296844Y-40850000D03*
X189896844Y-40850000D03*
%TD*%
D16*
%TO.C,Q4*%
X44096850Y-63012500D03*
X45996850Y-63012500D03*
X45046850Y-64887500D03*
%TD*%
D15*
%TO.C,R91*%
X129586844Y-61950000D03*
X127936844Y-61950000D03*
%TD*%
D18*
%TO.C,D96*%
X138696844Y-42250000D03*
X138696844Y-39450000D03*
%TD*%
D10*
%TO.C,Q2*%
X52971850Y-120650000D03*
D11*
X51986850Y-122300000D03*
D10*
X52321850Y-120650000D03*
X51671850Y-120650000D03*
X51021850Y-120650000D03*
%TD*%
D16*
%TO.C,Q6*%
X64411844Y-63012500D03*
X66311844Y-63012500D03*
X65361844Y-64887500D03*
%TD*%
%TO.C,D130*%
X246439350Y-97362500D03*
X248339350Y-97362500D03*
X247389350Y-99237500D03*
%TD*%
D15*
%TO.C,R129*%
X184036844Y-133150000D03*
X182386844Y-133150000D03*
%TD*%
D19*
%TO.C,Q13*%
X80721844Y-50350000D03*
D20*
X81706844Y-48700000D03*
D19*
X81371844Y-50350000D03*
X82021844Y-50350000D03*
X82671844Y-50350000D03*
%TD*%
D12*
%TO.C,R123*%
X169971844Y-39350000D03*
X171621844Y-39350000D03*
%TD*%
D18*
%TO.C,D74*%
X135261844Y-65250000D03*
X135261844Y-68050000D03*
%TD*%
D15*
%TO.C,R62*%
X84036844Y-131650000D03*
X82386844Y-131650000D03*
%TD*%
D18*
%TO.C,D8*%
X54946850Y-65250000D03*
X54946850Y-68050000D03*
%TD*%
D22*
%TO.C,D94*%
X145846844Y-107450000D03*
X144446844Y-107450000D03*
%TD*%
D14*
%TO.C,R144*%
X248269350Y-53875000D03*
X248269350Y-55525000D03*
%TD*%
D18*
%TO.C,D44*%
X90446844Y-104250000D03*
X90446844Y-101450000D03*
%TD*%
D15*
%TO.C,R105*%
X149586844Y-120950000D03*
X147936844Y-120950000D03*
%TD*%
D18*
%TO.C,D110*%
X158696844Y-42250000D03*
X158696844Y-39450000D03*
%TD*%
D12*
%TO.C,R23*%
X181114350Y-116700000D03*
X182764350Y-116700000D03*
%TD*%
D18*
%TO.C,D117*%
X195311844Y-69750000D03*
X195311844Y-72550000D03*
%TD*%
D10*
%TO.C,Q11*%
X93286844Y-120650000D03*
D11*
X92301844Y-122300000D03*
D10*
X92636844Y-120650000D03*
X91986844Y-120650000D03*
X91336844Y-120650000D03*
%TD*%
D22*
%TO.C,D49*%
X82711844Y-130150000D03*
X84111844Y-130150000D03*
%TD*%
D14*
%TO.C,R59*%
X53581850Y-92225000D03*
X53581850Y-93875000D03*
%TD*%
D10*
%TO.C,Q1*%
X68289350Y-52587500D03*
D11*
X67304350Y-54237500D03*
D10*
X67639350Y-52587500D03*
X66989350Y-52587500D03*
X66339350Y-52587500D03*
%TD*%
D18*
%TO.C,D110*%
X158696844Y-101250000D03*
X158696844Y-98450000D03*
%TD*%
D15*
%TO.C,R101*%
X144036844Y-133150000D03*
X142386844Y-133150000D03*
%TD*%
D24*
%TO.C,U12*%
X92996844Y-47150000D03*
X92996844Y-47800000D03*
X92996844Y-48450000D03*
X91096844Y-48450000D03*
X91096844Y-47150000D03*
%TD*%
D22*
%TO.C,D26*%
X88161844Y-122550000D03*
X89561844Y-122550000D03*
%TD*%
D18*
%TO.C,D12*%
X43246850Y-66750000D03*
X43246850Y-69550000D03*
%TD*%
D14*
%TO.C,R32*%
X239469350Y-53875000D03*
X239469350Y-55525000D03*
%TD*%
D18*
%TO.C,D68*%
X98696844Y-101250000D03*
X98696844Y-98450000D03*
%TD*%
D12*
%TO.C,R140*%
X184421844Y-50050000D03*
X186071844Y-50050000D03*
%TD*%
%TO.C,R67*%
X89971844Y-39350000D03*
X91621844Y-39350000D03*
%TD*%
D18*
%TO.C,D10*%
X54996850Y-128750000D03*
X54996850Y-131550000D03*
%TD*%
D15*
%TO.C,R74*%
X104036844Y-131650000D03*
X102386844Y-131650000D03*
%TD*%
%TO.C,R12*%
X52714350Y-50000000D03*
X51064350Y-50000000D03*
%TD*%
D10*
%TO.C,Q15*%
X113286844Y-61650000D03*
D11*
X112301844Y-63300000D03*
D10*
X112636844Y-61650000D03*
X111986844Y-61650000D03*
X111336844Y-61650000D03*
%TD*%
D15*
%TO.C,R2*%
X49271850Y-120950000D03*
X47621850Y-120950000D03*
%TD*%
D22*
%TO.C,D106*%
X171296844Y-40850000D03*
X169896844Y-40850000D03*
%TD*%
D26*
%TO.C,F8*%
X112749344Y-128050000D03*
X105974344Y-128050000D03*
%TD*%
D22*
%TO.C,D92*%
X151296844Y-40850000D03*
X149896844Y-40850000D03*
%TD*%
D18*
%TO.C,D20*%
X70446844Y-104250000D03*
X70446844Y-101450000D03*
%TD*%
D12*
%TO.C,R132*%
X181064350Y-62000000D03*
X182714350Y-62000000D03*
%TD*%
D22*
%TO.C,D71*%
X122711844Y-71150000D03*
X124111844Y-71150000D03*
%TD*%
D14*
%TO.C,R42*%
X209539350Y-102975000D03*
X209539350Y-104625000D03*
%TD*%
D27*
%TO.C,U19*%
X161011844Y-64850000D03*
X161011844Y-64200000D03*
X161011844Y-63550000D03*
X162911844Y-63550000D03*
X162911844Y-64850000D03*
%TD*%
D22*
%TO.C,D120*%
X191296844Y-99850000D03*
X189896844Y-99850000D03*
%TD*%
D23*
%TO.C,R46*%
X208089350Y-51225000D03*
X208089350Y-49575000D03*
%TD*%
D12*
%TO.C,R134*%
X187936844Y-65150000D03*
X189586844Y-65150000D03*
%TD*%
D22*
%TO.C,D87*%
X148161844Y-63550000D03*
X149561844Y-63550000D03*
%TD*%
D29*
%TO.C,D7*%
X197189350Y-61350000D03*
X201489350Y-61350000D03*
%TD*%
D14*
%TO.C,R110*%
X153896844Y-92225000D03*
X153896844Y-93875000D03*
%TD*%
D15*
%TO.C,R77*%
X109586844Y-61950000D03*
X107936844Y-61950000D03*
%TD*%
D13*
%TO.C,F17*%
X181259344Y-101950000D03*
X188034344Y-101950000D03*
%TD*%
D23*
%TO.C,R117*%
X160111844Y-78775000D03*
X160111844Y-77125000D03*
%TD*%
D14*
%TO.C,R39*%
X231869350Y-53875000D03*
X231869350Y-55525000D03*
%TD*%
D12*
%TO.C,R14*%
X61064350Y-121000000D03*
X62714350Y-121000000D03*
%TD*%
D10*
%TO.C,Q2*%
X52971850Y-61650000D03*
D11*
X51986850Y-63300000D03*
D10*
X52321850Y-61650000D03*
X51671850Y-61650000D03*
X51021850Y-61650000D03*
%TD*%
D24*
%TO.C,U14*%
X112996844Y-47150000D03*
X112996844Y-47800000D03*
X112996844Y-48450000D03*
X111096844Y-48450000D03*
X111096844Y-47150000D03*
%TD*%
D12*
%TO.C,R109*%
X149971844Y-39350000D03*
X151621844Y-39350000D03*
%TD*%
D16*
%TO.C,D128*%
X249939350Y-38362500D03*
X251839350Y-38362500D03*
X250889350Y-40237500D03*
%TD*%
D15*
%TO.C,R73*%
X104036844Y-74150000D03*
X102386844Y-74150000D03*
%TD*%
D23*
%TO.C,R65*%
X82761844Y-139575000D03*
X82761844Y-137925000D03*
%TD*%
D14*
%TO.C,R100*%
X131246844Y-31425000D03*
X131246844Y-33075000D03*
%TD*%
D21*
%TO.C,Q20*%
X129596844Y-107987500D03*
X127696844Y-107987500D03*
X128646844Y-106112500D03*
%TD*%
D18*
%TO.C,D9*%
X38431850Y-105750000D03*
X38431850Y-102950000D03*
%TD*%
D15*
%TO.C,R71*%
X86071844Y-105850000D03*
X84421844Y-105850000D03*
%TD*%
D22*
%TO.C,D59*%
X108161844Y-63550000D03*
X109561844Y-63550000D03*
%TD*%
D15*
%TO.C,R15*%
X69586844Y-61950000D03*
X67936844Y-61950000D03*
%TD*%
D16*
%TO.C,Q6*%
X64411844Y-122012500D03*
X66311844Y-122012500D03*
X65361844Y-123887500D03*
%TD*%
D14*
%TO.C,R86*%
X111246844Y-90425000D03*
X111246844Y-92075000D03*
%TD*%
D30*
%TO.C,D16*%
X213489350Y-114350000D03*
X213489350Y-118650000D03*
%TD*%
D15*
%TO.C,R53*%
X43721850Y-72650000D03*
X42071850Y-72650000D03*
%TD*%
D18*
%TO.C,D40*%
X220739350Y-73700000D03*
X220739350Y-70900000D03*
%TD*%
%TO.C,D17*%
X75261844Y-124250000D03*
X75261844Y-127050000D03*
%TD*%
D13*
%TO.C,F17*%
X181259344Y-42950000D03*
X188034344Y-42950000D03*
%TD*%
D24*
%TO.C,U22*%
X192996844Y-106150000D03*
X192996844Y-106800000D03*
X192996844Y-107450000D03*
X191096844Y-107450000D03*
X191096844Y-106150000D03*
%TD*%
D21*
%TO.C,Q5*%
X49281850Y-107987500D03*
X47381850Y-107987500D03*
X48331850Y-106112500D03*
%TD*%
D12*
%TO.C,R118*%
X161064350Y-62000000D03*
X162714350Y-62000000D03*
%TD*%
D19*
%TO.C,Q9*%
X60721844Y-50350000D03*
D20*
X61706844Y-48700000D03*
D19*
X61371844Y-50350000D03*
X62021844Y-50350000D03*
X62671844Y-50350000D03*
%TD*%
D18*
%TO.C,D84*%
X143561844Y-66750000D03*
X143561844Y-69550000D03*
%TD*%
D15*
%TO.C,R71*%
X86071844Y-46850000D03*
X84421844Y-46850000D03*
%TD*%
D22*
%TO.C,D122*%
X185846844Y-48450000D03*
X184446844Y-48450000D03*
%TD*%
D29*
%TO.C,D7*%
X197189350Y-120350000D03*
X201489350Y-120350000D03*
%TD*%
D18*
%TO.C,D91*%
X150446844Y-45250000D03*
X150446844Y-42450000D03*
%TD*%
D27*
%TO.C,U21*%
X181011844Y-64850000D03*
X181011844Y-64200000D03*
X181011844Y-63550000D03*
X182911844Y-63550000D03*
X182911844Y-64850000D03*
%TD*%
D24*
%TO.C,U10*%
X72996844Y-106150000D03*
X72996844Y-106800000D03*
X72996844Y-107450000D03*
X71096844Y-107450000D03*
X71096844Y-106150000D03*
%TD*%
D14*
%TO.C,R128*%
X171246844Y-31425000D03*
X171246844Y-33075000D03*
%TD*%
D18*
%TO.C,D124*%
X178696844Y-42250000D03*
X178696844Y-39450000D03*
%TD*%
D14*
%TO.C,R36*%
X259569350Y-53875000D03*
X259569350Y-55525000D03*
%TD*%
D15*
%TO.C,R99*%
X126071844Y-105850000D03*
X124421844Y-105850000D03*
%TD*%
%TO.C,R88*%
X124036844Y-131650000D03*
X122386844Y-131650000D03*
%TD*%
D22*
%TO.C,D66*%
X105846844Y-48450000D03*
X104446844Y-48450000D03*
%TD*%
D23*
%TO.C,R17*%
X62761844Y-139575000D03*
X62761844Y-137925000D03*
%TD*%
D12*
%TO.C,R126*%
X164421844Y-50050000D03*
X166071844Y-50050000D03*
%TD*%
%TO.C,R108*%
X149971844Y-37850000D03*
X151621844Y-37850000D03*
%TD*%
D18*
%TO.C,D123*%
X178746844Y-105750000D03*
X178746844Y-102950000D03*
%TD*%
D31*
%TO.C,C10*%
X203814350Y-36125000D03*
X206764350Y-36125000D03*
%TD*%
D12*
%TO.C,R92*%
X127936844Y-124150000D03*
X129586844Y-124150000D03*
%TD*%
D26*
%TO.C,F2*%
X52434350Y-69050000D03*
X45659350Y-69050000D03*
%TD*%
D18*
%TO.C,D112*%
X183561844Y-66750000D03*
X183561844Y-69550000D03*
%TD*%
D10*
%TO.C,Q1*%
X68289350Y-111587500D03*
D11*
X67304350Y-113237500D03*
D10*
X67639350Y-111587500D03*
X66989350Y-111587500D03*
X66339350Y-111587500D03*
%TD*%
D16*
%TO.C,D127*%
X239439350Y-97362500D03*
X241339350Y-97362500D03*
X240389350Y-99237500D03*
%TD*%
D22*
%TO.C,D78*%
X131296844Y-40850000D03*
X129896844Y-40850000D03*
%TD*%
D21*
%TO.C,Q8*%
X69596844Y-107987500D03*
X67696844Y-107987500D03*
X68646844Y-106112500D03*
%TD*%
D18*
%TO.C,D88*%
X155261844Y-65250000D03*
X155261844Y-68050000D03*
%TD*%
D25*
%TO.C,C19*%
X213489350Y-43675000D03*
X213489350Y-40725000D03*
%TD*%
D12*
%TO.C,R120*%
X167936844Y-124150000D03*
X169586844Y-124150000D03*
%TD*%
D23*
%TO.C,R46*%
X208089350Y-110225000D03*
X208089350Y-108575000D03*
%TD*%
D12*
%TO.C,R70*%
X84421844Y-109050000D03*
X86071844Y-109050000D03*
%TD*%
D23*
%TO.C,R47*%
X216754350Y-69400000D03*
X216754350Y-67750000D03*
%TD*%
D18*
%TO.C,D61*%
X115311844Y-128750000D03*
X115311844Y-131550000D03*
%TD*%
%TO.C,D98*%
X163561844Y-66750000D03*
X163561844Y-69550000D03*
%TD*%
%TO.C,D68*%
X98696844Y-42250000D03*
X98696844Y-39450000D03*
%TD*%
%TO.C,D54*%
X78696844Y-101250000D03*
X78696844Y-98450000D03*
%TD*%
D12*
%TO.C,R76*%
X101064350Y-62000000D03*
X102714350Y-62000000D03*
%TD*%
D26*
%TO.C,F16*%
X192749344Y-69050000D03*
X185974344Y-69050000D03*
%TD*%
D23*
%TO.C,R63*%
X80111844Y-78775000D03*
X80111844Y-77125000D03*
%TD*%
D19*
%TO.C,Q3*%
X40406850Y-109350000D03*
D20*
X41391850Y-107700000D03*
D19*
X41056850Y-109350000D03*
X41706850Y-109350000D03*
X42356850Y-109350000D03*
%TD*%
%TO.C,Q3*%
X40406850Y-50350000D03*
D20*
X41391850Y-48700000D03*
D19*
X41056850Y-50350000D03*
X41706850Y-50350000D03*
X42356850Y-50350000D03*
%TD*%
D12*
%TO.C,R76*%
X101064350Y-121000000D03*
X102714350Y-121000000D03*
%TD*%
D19*
%TO.C,Q13*%
X80721844Y-109350000D03*
D20*
X81706844Y-107700000D03*
D19*
X81371844Y-109350000D03*
X82021844Y-109350000D03*
X82671844Y-109350000D03*
%TD*%
D25*
%TO.C,C25*%
X218764350Y-69400000D03*
X218764350Y-66450000D03*
%TD*%
D21*
%TO.C,Q20*%
X129596844Y-48987500D03*
X127696844Y-48987500D03*
X128646844Y-47112500D03*
%TD*%
D12*
%TO.C,R25*%
X108074350Y-118000000D03*
X109724350Y-118000000D03*
%TD*%
D10*
%TO.C,Q35*%
X148809350Y-52487500D03*
D11*
X147824350Y-54137500D03*
D10*
X148159350Y-52487500D03*
X147509350Y-52487500D03*
X146859350Y-52487500D03*
%TD*%
D21*
%TO.C,Q24*%
X149596844Y-107987500D03*
X147696844Y-107987500D03*
X148646844Y-106112500D03*
%TD*%
D12*
%TO.C,R112*%
X144421844Y-109050000D03*
X146071844Y-109050000D03*
%TD*%
D15*
%TO.C,R102*%
X144036844Y-131650000D03*
X142386844Y-131650000D03*
%TD*%
%TO.C,R73*%
X104036844Y-133150000D03*
X102386844Y-133150000D03*
%TD*%
D12*
%TO.C,R66*%
X89971844Y-96850000D03*
X91621844Y-96850000D03*
%TD*%
D21*
%TO.C,Q16*%
X109596844Y-107987500D03*
X107696844Y-107987500D03*
X108646844Y-106112500D03*
%TD*%
D18*
%TO.C,D105*%
X170446844Y-45250000D03*
X170446844Y-42450000D03*
%TD*%
D15*
%TO.C,R85*%
X106071844Y-46850000D03*
X104421844Y-46850000D03*
%TD*%
D13*
%TO.C,F15*%
X161259344Y-101950000D03*
X168034344Y-101950000D03*
%TD*%
D18*
%TO.C,D95*%
X138746844Y-46750000D03*
X138746844Y-43950000D03*
%TD*%
D12*
%TO.C,R66*%
X89971844Y-37850000D03*
X91621844Y-37850000D03*
%TD*%
D22*
%TO.C,D21*%
X65846844Y-48450000D03*
X64446844Y-48450000D03*
%TD*%
D23*
%TO.C,R45*%
X211089350Y-45625000D03*
X211089350Y-43975000D03*
%TD*%
D22*
%TO.C,D2*%
X47846850Y-63550000D03*
X49246850Y-63550000D03*
%TD*%
D13*
%TO.C,F13*%
X141259344Y-101950000D03*
X148034344Y-101950000D03*
%TD*%
D21*
%TO.C,Q12*%
X89596844Y-107987500D03*
X87696844Y-107987500D03*
X88646844Y-106112500D03*
%TD*%
D32*
%TO.C,U8*%
X215179350Y-128400000D03*
X214529350Y-128400000D03*
X213879350Y-128400000D03*
X213879350Y-126500000D03*
X215179350Y-126500000D03*
%TD*%
D26*
%TO.C,F2*%
X52434350Y-128050000D03*
X45659350Y-128050000D03*
%TD*%
D22*
%TO.C,D122*%
X185846844Y-107450000D03*
X184446844Y-107450000D03*
%TD*%
D15*
%TO.C,R7*%
X45756850Y-46850000D03*
X44106850Y-46850000D03*
%TD*%
D12*
%TO.C,R54*%
X49656850Y-98350000D03*
X51306850Y-98350000D03*
%TD*%
D15*
%TO.C,R125*%
X173014350Y-50000000D03*
X171364350Y-50000000D03*
%TD*%
D23*
%TO.C,R60*%
X60111844Y-78775000D03*
X60111844Y-77125000D03*
%TD*%
D12*
%TO.C,R48*%
X209904350Y-72700000D03*
X211554350Y-72700000D03*
%TD*%
D33*
%TO.C,U3*%
X206689350Y-45500000D03*
D34*
X206214350Y-45500000D03*
X205764350Y-45500000D03*
D35*
X205289350Y-45500000D03*
D36*
X205989350Y-44850000D03*
X205989350Y-44350000D03*
D37*
X205289350Y-43700000D03*
D34*
X205764350Y-43700000D03*
X206214350Y-43700000D03*
D38*
X206689350Y-43700000D03*
%TD*%
D14*
%TO.C,R29*%
X223069350Y-53875000D03*
X223069350Y-55525000D03*
%TD*%
D13*
%TO.C,F7*%
X81259344Y-42950000D03*
X88034344Y-42950000D03*
%TD*%
D14*
%TO.C,R33*%
X236969350Y-53875000D03*
X236969350Y-55525000D03*
%TD*%
D12*
%TO.C,R64*%
X87936844Y-65150000D03*
X89586844Y-65150000D03*
%TD*%
%TO.C,R18*%
X69971844Y-37850000D03*
X71621844Y-37850000D03*
%TD*%
D14*
%TO.C,R96*%
X133896844Y-92225000D03*
X133896844Y-93875000D03*
%TD*%
D22*
%TO.C,D6*%
X68189350Y-57600000D03*
X69589350Y-57600000D03*
%TD*%
D18*
%TO.C,D112*%
X183561844Y-125750000D03*
X183561844Y-128550000D03*
%TD*%
D33*
%TO.C,U3*%
X206689350Y-104500000D03*
D34*
X206214350Y-104500000D03*
X205764350Y-104500000D03*
D35*
X205289350Y-104500000D03*
D36*
X205989350Y-103850000D03*
X205989350Y-103350000D03*
D37*
X205289350Y-102700000D03*
D34*
X205764350Y-102700000D03*
X206214350Y-102700000D03*
D38*
X206689350Y-102700000D03*
%TD*%
D14*
%TO.C,R145*%
X245769350Y-53875000D03*
X245769350Y-55525000D03*
%TD*%
D23*
%TO.C,R121*%
X162761844Y-80575000D03*
X162761844Y-78925000D03*
%TD*%
D14*
%TO.C,R82*%
X113896844Y-92225000D03*
X113896844Y-93875000D03*
%TD*%
D18*
%TO.C,D81*%
X118746844Y-105750000D03*
X118746844Y-102950000D03*
%TD*%
D23*
%TO.C,R55*%
X212329350Y-69175000D03*
X212329350Y-67525000D03*
%TD*%
D16*
%TO.C,Q30*%
X184411844Y-122012500D03*
X186311844Y-122012500D03*
X185361844Y-123887500D03*
%TD*%
D19*
%TO.C,Q17*%
X100721844Y-50350000D03*
D20*
X101706844Y-48700000D03*
D19*
X101371844Y-50350000D03*
X102021844Y-50350000D03*
X102671844Y-50350000D03*
%TD*%
D22*
%TO.C,D87*%
X148161844Y-122550000D03*
X149561844Y-122550000D03*
%TD*%
D15*
%TO.C,R105*%
X149586844Y-61950000D03*
X147936844Y-61950000D03*
%TD*%
D22*
%TO.C,D45*%
X42396850Y-130150000D03*
X43796850Y-130150000D03*
%TD*%
%TO.C,D50*%
X91296844Y-99850000D03*
X89896844Y-99850000D03*
%TD*%
D23*
%TO.C,R93*%
X122761844Y-80575000D03*
X122761844Y-78925000D03*
%TD*%
D16*
%TO.C,D34*%
X228939350Y-97362500D03*
X230839350Y-97362500D03*
X229889350Y-99237500D03*
%TD*%
D12*
%TO.C,R80*%
X109971844Y-37850000D03*
X111621844Y-37850000D03*
%TD*%
D14*
%TO.C,R38*%
X220569350Y-112875000D03*
X220569350Y-114525000D03*
%TD*%
D22*
%TO.C,D113*%
X182711844Y-71150000D03*
X184111844Y-71150000D03*
%TD*%
D21*
%TO.C,Q24*%
X149596844Y-48987500D03*
X147696844Y-48987500D03*
X148646844Y-47112500D03*
%TD*%
D23*
%TO.C,R93*%
X122761844Y-139575000D03*
X122761844Y-137925000D03*
%TD*%
D18*
%TO.C,D124*%
X178696844Y-101250000D03*
X178696844Y-98450000D03*
%TD*%
D22*
%TO.C,D3*%
X45531850Y-48450000D03*
X44131850Y-48450000D03*
%TD*%
%TO.C,D73*%
X128161844Y-122550000D03*
X129561844Y-122550000D03*
%TD*%
D27*
%TO.C,U19*%
X161011844Y-123850000D03*
X161011844Y-123200000D03*
X161011844Y-122550000D03*
X162911844Y-122550000D03*
X162911844Y-123850000D03*
%TD*%
D12*
%TO.C,R11*%
X40664350Y-121000000D03*
X42314350Y-121000000D03*
%TD*%
D18*
%TO.C,D89*%
X155311844Y-128750000D03*
X155311844Y-131550000D03*
%TD*%
D16*
%TO.C,D127*%
X239439350Y-38362500D03*
X241339350Y-38362500D03*
X240389350Y-40237500D03*
%TD*%
D18*
%TO.C,D119*%
X190446844Y-104250000D03*
X190446844Y-101450000D03*
%TD*%
D27*
%TO.C,U5*%
X40696850Y-123850000D03*
X40696850Y-123200000D03*
X40696850Y-122550000D03*
X42596850Y-122550000D03*
X42596850Y-123850000D03*
%TD*%
D15*
%TO.C,R115*%
X164036844Y-133150000D03*
X162386844Y-133150000D03*
%TD*%
D27*
%TO.C,U17*%
X141011844Y-64850000D03*
X141011844Y-64200000D03*
X141011844Y-63550000D03*
X142911844Y-63550000D03*
X142911844Y-64850000D03*
%TD*%
D18*
%TO.C,D25*%
X83561844Y-125750000D03*
X83561844Y-128550000D03*
%TD*%
%TO.C,D13*%
X50131850Y-45250000D03*
X50131850Y-42450000D03*
%TD*%
%TO.C,D60*%
X115261844Y-65250000D03*
X115261844Y-68050000D03*
%TD*%
%TO.C,D95*%
X138746844Y-105750000D03*
X138746844Y-102950000D03*
%TD*%
D10*
%TO.C,Q7*%
X73286844Y-61650000D03*
D11*
X72301844Y-63300000D03*
D10*
X72636844Y-61650000D03*
X71986844Y-61650000D03*
X71336844Y-61650000D03*
%TD*%
D18*
%TO.C,D23*%
X58696844Y-101250000D03*
X58696844Y-98450000D03*
%TD*%
%TO.C,D9*%
X38431850Y-46750000D03*
X38431850Y-43950000D03*
%TD*%
D15*
%TO.C,R69*%
X93014350Y-109000000D03*
X91364350Y-109000000D03*
%TD*%
D14*
%TO.C,R5*%
X50931850Y-31425000D03*
X50931850Y-33075000D03*
%TD*%
D39*
%TO.C,C24*%
X215414350Y-102750000D03*
X216964350Y-102750000D03*
%TD*%
D26*
%TO.C,F14*%
X172749344Y-69050000D03*
X165974344Y-69050000D03*
%TD*%
D13*
%TO.C,F5*%
X61259344Y-101950000D03*
X68034344Y-101950000D03*
%TD*%
D10*
%TO.C,Q23*%
X153286844Y-61650000D03*
D11*
X152301844Y-63300000D03*
D10*
X152636844Y-61650000D03*
X151986844Y-61650000D03*
X151336844Y-61650000D03*
%TD*%
D22*
%TO.C,D47*%
X62711844Y-130150000D03*
X64111844Y-130150000D03*
%TD*%
D18*
%TO.C,D18*%
X75311844Y-69750000D03*
X75311844Y-72550000D03*
%TD*%
D22*
%TO.C,D94*%
X145846844Y-48450000D03*
X144446844Y-48450000D03*
%TD*%
D12*
%TO.C,R90*%
X121064350Y-62000000D03*
X122714350Y-62000000D03*
%TD*%
D17*
%TO.C,U9*%
X218364350Y-45350000D03*
X218364350Y-47250000D03*
X216489350Y-46300000D03*
%TD*%
D15*
%TO.C,R130*%
X184036844Y-131650000D03*
X182386844Y-131650000D03*
%TD*%
D10*
%TO.C,Q35*%
X148809350Y-111487500D03*
D11*
X147824350Y-113137500D03*
D10*
X148159350Y-111487500D03*
X147509350Y-111487500D03*
X146859350Y-111487500D03*
%TD*%
D19*
%TO.C,Q33*%
X180721844Y-109350000D03*
D20*
X181706844Y-107700000D03*
D19*
X181371844Y-109350000D03*
X182021844Y-109350000D03*
X182671844Y-109350000D03*
%TD*%
D18*
%TO.C,D13*%
X50131850Y-104250000D03*
X50131850Y-101450000D03*
%TD*%
D15*
%TO.C,R88*%
X124036844Y-72650000D03*
X122386844Y-72650000D03*
%TD*%
D22*
%TO.C,D92*%
X151296844Y-99850000D03*
X149896844Y-99850000D03*
%TD*%
D26*
%TO.C,F8*%
X112749344Y-69050000D03*
X105974344Y-69050000D03*
%TD*%
D23*
%TO.C,R45*%
X211089350Y-104625000D03*
X211089350Y-102975000D03*
%TD*%
D22*
%TO.C,D45*%
X42396850Y-71150000D03*
X43796850Y-71150000D03*
%TD*%
D40*
%TO.C,C20*%
X210089350Y-49725000D03*
X210089350Y-52675000D03*
%TD*%
D23*
%TO.C,R63*%
X80111844Y-137775000D03*
X80111844Y-136125000D03*
%TD*%
D28*
%TO.C,D39*%
X220739350Y-128400000D03*
X220739350Y-127000000D03*
%TD*%
D12*
%TO.C,R120*%
X167936844Y-65150000D03*
X169586844Y-65150000D03*
%TD*%
D24*
%TO.C,U12*%
X92996844Y-106150000D03*
X92996844Y-106800000D03*
X92996844Y-107450000D03*
X91096844Y-107450000D03*
X91096844Y-106150000D03*
%TD*%
D31*
%TO.C,C10*%
X203814350Y-95125000D03*
X206764350Y-95125000D03*
%TD*%
D23*
%TO.C,R75*%
X100111844Y-78775000D03*
X100111844Y-77125000D03*
%TD*%
D15*
%TO.C,R49*%
X216154350Y-129800000D03*
X214504350Y-129800000D03*
%TD*%
D12*
%TO.C,R67*%
X89971844Y-98350000D03*
X91621844Y-98350000D03*
%TD*%
%TO.C,R25*%
X108074350Y-59000000D03*
X109724350Y-59000000D03*
%TD*%
D15*
%TO.C,R21*%
X66071844Y-46850000D03*
X64421844Y-46850000D03*
%TD*%
D18*
%TO.C,D22*%
X58746844Y-46750000D03*
X58746844Y-43950000D03*
%TD*%
%TO.C,D67*%
X98746844Y-105750000D03*
X98746844Y-102950000D03*
%TD*%
D14*
%TO.C,R59*%
X53581850Y-33225000D03*
X53581850Y-34875000D03*
%TD*%
D22*
%TO.C,D57*%
X102711844Y-130150000D03*
X104111844Y-130150000D03*
%TD*%
D15*
%TO.C,R141*%
X186071844Y-105850000D03*
X184421844Y-105850000D03*
%TD*%
D18*
%TO.C,D40*%
X220739350Y-132700000D03*
X220739350Y-129900000D03*
%TD*%
D15*
%TO.C,R77*%
X109586844Y-120950000D03*
X107936844Y-120950000D03*
%TD*%
D12*
%TO.C,R70*%
X84421844Y-50050000D03*
X86071844Y-50050000D03*
%TD*%
D22*
%TO.C,D85*%
X142711844Y-71150000D03*
X144111844Y-71150000D03*
%TD*%
D18*
%TO.C,D75*%
X135311844Y-128750000D03*
X135311844Y-131550000D03*
%TD*%
D12*
%TO.C,R81*%
X109971844Y-39350000D03*
X111621844Y-39350000D03*
%TD*%
D14*
%TO.C,R61*%
X73896844Y-33225000D03*
X73896844Y-34875000D03*
%TD*%
D13*
%TO.C,F11*%
X121259344Y-101950000D03*
X128034344Y-101950000D03*
%TD*%
D15*
%TO.C,R97*%
X133014350Y-50000000D03*
X131364350Y-50000000D03*
%TD*%
%TO.C,R49*%
X216154350Y-70800000D03*
X214504350Y-70800000D03*
%TD*%
%TO.C,R99*%
X126071844Y-46850000D03*
X124421844Y-46850000D03*
%TD*%
D18*
%TO.C,D96*%
X138696844Y-101250000D03*
X138696844Y-98450000D03*
%TD*%
D12*
%TO.C,R90*%
X121064350Y-121000000D03*
X122714350Y-121000000D03*
%TD*%
D22*
%TO.C,D2*%
X47846850Y-122550000D03*
X49246850Y-122550000D03*
%TD*%
D19*
%TO.C,Q29*%
X160721844Y-50350000D03*
D20*
X161706844Y-48700000D03*
D19*
X161371844Y-50350000D03*
X162021844Y-50350000D03*
X162671844Y-50350000D03*
%TD*%
D23*
%TO.C,R17*%
X62761844Y-80575000D03*
X62761844Y-78925000D03*
%TD*%
D15*
%TO.C,R127*%
X166071844Y-46850000D03*
X164421844Y-46850000D03*
%TD*%
D19*
%TO.C,Q9*%
X60721844Y-109350000D03*
D20*
X61706844Y-107700000D03*
D19*
X61371844Y-109350000D03*
X62021844Y-109350000D03*
X62671844Y-109350000D03*
%TD*%
D14*
%TO.C,R30*%
X225669350Y-53875000D03*
X225669350Y-55525000D03*
%TD*%
D23*
%TO.C,R103*%
X140111844Y-137775000D03*
X140111844Y-136125000D03*
%TD*%
D15*
%TO.C,R130*%
X184036844Y-72650000D03*
X182386844Y-72650000D03*
%TD*%
%TO.C,R111*%
X153014350Y-109000000D03*
X151364350Y-109000000D03*
%TD*%
D14*
%TO.C,R33*%
X236969350Y-112875000D03*
X236969350Y-114525000D03*
%TD*%
%TO.C,R40*%
X254469350Y-112875000D03*
X254469350Y-114525000D03*
%TD*%
D12*
%TO.C,R48*%
X209904350Y-131700000D03*
X211554350Y-131700000D03*
%TD*%
D25*
%TO.C,C25*%
X218764350Y-128400000D03*
X218764350Y-125450000D03*
%TD*%
D18*
%TO.C,D44*%
X90446844Y-45250000D03*
X90446844Y-42450000D03*
%TD*%
D14*
%TO.C,R35*%
X262069350Y-112875000D03*
X262069350Y-114525000D03*
%TD*%
%TO.C,R34*%
X234369350Y-53875000D03*
X234369350Y-55525000D03*
%TD*%
%TO.C,R110*%
X153896844Y-33225000D03*
X153896844Y-34875000D03*
%TD*%
D22*
%TO.C,D106*%
X171296844Y-99850000D03*
X169896844Y-99850000D03*
%TD*%
D12*
%TO.C,R106*%
X147936844Y-124150000D03*
X149586844Y-124150000D03*
%TD*%
D18*
%TO.C,D28*%
X95311844Y-69750000D03*
X95311844Y-72550000D03*
%TD*%
%TO.C,D60*%
X115261844Y-124250000D03*
X115261844Y-127050000D03*
%TD*%
D22*
%TO.C,D33*%
X108299350Y-116500000D03*
X109699350Y-116500000D03*
%TD*%
%TO.C,D50*%
X91296844Y-40850000D03*
X89896844Y-40850000D03*
%TD*%
D18*
%TO.C,D12*%
X43246850Y-125750000D03*
X43246850Y-128550000D03*
%TD*%
D14*
%TO.C,R37*%
X257069350Y-112875000D03*
X257069350Y-114525000D03*
%TD*%
%TO.C,R68*%
X93896844Y-33225000D03*
X93896844Y-34875000D03*
%TD*%
D22*
%TO.C,D52*%
X85846844Y-107450000D03*
X84446844Y-107450000D03*
%TD*%
D12*
%TO.C,R57*%
X69971844Y-98350000D03*
X71621844Y-98350000D03*
%TD*%
D14*
%TO.C,R143*%
X250869350Y-53875000D03*
X250869350Y-55525000D03*
%TD*%
D27*
%TO.C,U15*%
X121011844Y-123850000D03*
X121011844Y-123200000D03*
X121011844Y-122550000D03*
X122911844Y-122550000D03*
X122911844Y-123850000D03*
%TD*%
D12*
%TO.C,R16*%
X67936844Y-124150000D03*
X69586844Y-124150000D03*
%TD*%
D14*
%TO.C,R100*%
X131246844Y-90425000D03*
X131246844Y-92075000D03*
%TD*%
D18*
%TO.C,D11*%
X38381850Y-42250000D03*
X38381850Y-39450000D03*
%TD*%
D12*
%TO.C,R18*%
X69971844Y-96850000D03*
X71621844Y-96850000D03*
%TD*%
D15*
%TO.C,R129*%
X184036844Y-74150000D03*
X182386844Y-74150000D03*
%TD*%
D14*
%TO.C,R138*%
X193896844Y-92225000D03*
X193896844Y-93875000D03*
%TD*%
D15*
%TO.C,R91*%
X129586844Y-120950000D03*
X127936844Y-120950000D03*
%TD*%
D12*
%TO.C,R95*%
X129971844Y-98350000D03*
X131621844Y-98350000D03*
%TD*%
D10*
%TO.C,Q27*%
X173286844Y-120650000D03*
D11*
X172301844Y-122300000D03*
D10*
X172636844Y-120650000D03*
X171986844Y-120650000D03*
X171336844Y-120650000D03*
%TD*%
D23*
%TO.C,R58*%
X39796850Y-137775000D03*
X39796850Y-136125000D03*
%TD*%
D12*
%TO.C,R3*%
X44106850Y-50050000D03*
X45756850Y-50050000D03*
%TD*%
D18*
%TO.C,D103*%
X175311844Y-69750000D03*
X175311844Y-72550000D03*
%TD*%
D22*
%TO.C,D108*%
X165846844Y-48450000D03*
X164446844Y-48450000D03*
%TD*%
D21*
%TO.C,Q32*%
X189596844Y-48987500D03*
X187696844Y-48987500D03*
X188646844Y-47112500D03*
%TD*%
D14*
%TO.C,R30*%
X225669350Y-112875000D03*
X225669350Y-114525000D03*
%TD*%
D18*
%TO.C,D98*%
X163561844Y-125750000D03*
X163561844Y-128550000D03*
%TD*%
D22*
%TO.C,D71*%
X122711844Y-130150000D03*
X124111844Y-130150000D03*
%TD*%
D40*
%TO.C,C20*%
X210089350Y-108725000D03*
X210089350Y-111675000D03*
%TD*%
D18*
%TO.C,D84*%
X143561844Y-125750000D03*
X143561844Y-128550000D03*
%TD*%
D19*
%TO.C,Q29*%
X160721844Y-109350000D03*
D20*
X161706844Y-107700000D03*
D19*
X161371844Y-109350000D03*
X162021844Y-109350000D03*
X162671844Y-109350000D03*
%TD*%
D23*
%TO.C,R58*%
X39796850Y-78775000D03*
X39796850Y-77125000D03*
%TD*%
D16*
%TO.C,D126*%
X235939350Y-38362500D03*
X237839350Y-38362500D03*
X236889350Y-40237500D03*
%TD*%
D12*
%TO.C,R8*%
X67964350Y-59100000D03*
X69614350Y-59100000D03*
%TD*%
D18*
%TO.C,D11*%
X38381850Y-101250000D03*
X38381850Y-98450000D03*
%TD*%
D15*
%TO.C,R133*%
X189586844Y-61950000D03*
X187936844Y-61950000D03*
%TD*%
D14*
%TO.C,R82*%
X113896844Y-33225000D03*
X113896844Y-34875000D03*
%TD*%
D16*
%TO.C,D129*%
X253439350Y-38362500D03*
X255339350Y-38362500D03*
X254389350Y-40237500D03*
%TD*%
D18*
%TO.C,D103*%
X175311844Y-128750000D03*
X175311844Y-131550000D03*
%TD*%
D12*
%TO.C,R84*%
X104421844Y-109050000D03*
X106071844Y-109050000D03*
%TD*%
%TO.C,R11*%
X40664350Y-62000000D03*
X42314350Y-62000000D03*
%TD*%
D26*
%TO.C,F12*%
X152749344Y-69050000D03*
X145974344Y-69050000D03*
%TD*%
D18*
%TO.C,D56*%
X103561844Y-66750000D03*
X103561844Y-69550000D03*
%TD*%
D16*
%TO.C,D35*%
X232439350Y-97362500D03*
X234339350Y-97362500D03*
X233389350Y-99237500D03*
%TD*%
D22*
%TO.C,D48*%
X71296844Y-40850000D03*
X69896844Y-40850000D03*
%TD*%
D26*
%TO.C,F4*%
X72749344Y-128050000D03*
X65974344Y-128050000D03*
%TD*%
D12*
%TO.C,R84*%
X104421844Y-50050000D03*
X106071844Y-50050000D03*
%TD*%
%TO.C,R122*%
X169971844Y-96850000D03*
X171621844Y-96850000D03*
%TD*%
D15*
%TO.C,R141*%
X186071844Y-46850000D03*
X184421844Y-46850000D03*
%TD*%
D18*
%TO.C,D105*%
X170446844Y-104250000D03*
X170446844Y-101450000D03*
%TD*%
D24*
%TO.C,U6*%
X52681850Y-47150000D03*
X52681850Y-47800000D03*
X52681850Y-48450000D03*
X50781850Y-48450000D03*
X50781850Y-47150000D03*
%TD*%
D13*
%TO.C,F13*%
X141259344Y-42950000D03*
X148034344Y-42950000D03*
%TD*%
D12*
%TO.C,R27*%
X148484350Y-59000000D03*
X150134350Y-59000000D03*
%TD*%
D22*
%TO.C,D3*%
X45531850Y-107450000D03*
X44131850Y-107450000D03*
%TD*%
D10*
%TO.C,Q27*%
X173286844Y-61650000D03*
D11*
X172301844Y-63300000D03*
D10*
X172636844Y-61650000D03*
X171986844Y-61650000D03*
X171336844Y-61650000D03*
%TD*%
D26*
%TO.C,F12*%
X152749344Y-128050000D03*
X145974344Y-128050000D03*
%TD*%
D12*
%TO.C,R6*%
X47621850Y-65150000D03*
X49271850Y-65150000D03*
%TD*%
D24*
%TO.C,U16*%
X132996844Y-106150000D03*
X132996844Y-106800000D03*
X132996844Y-107450000D03*
X131096844Y-107450000D03*
X131096844Y-106150000D03*
%TD*%
D23*
%TO.C,R4*%
X42446850Y-80575000D03*
X42446850Y-78925000D03*
%TD*%
D14*
%TO.C,R31*%
X228169350Y-112875000D03*
X228169350Y-114525000D03*
%TD*%
%TO.C,R68*%
X93896844Y-92225000D03*
X93896844Y-93875000D03*
%TD*%
D16*
%TO.C,D35*%
X232439350Y-38362500D03*
X234339350Y-38362500D03*
X233389350Y-40237500D03*
%TD*%
%TO.C,Q10*%
X84411844Y-63012500D03*
X86311844Y-63012500D03*
X85361844Y-64887500D03*
%TD*%
D27*
%TO.C,U17*%
X141011844Y-123850000D03*
X141011844Y-123200000D03*
X141011844Y-122550000D03*
X142911844Y-122550000D03*
X142911844Y-123850000D03*
%TD*%
D15*
%TO.C,R9*%
X43721850Y-133150000D03*
X42071850Y-133150000D03*
%TD*%
D12*
%TO.C,R64*%
X87936844Y-124150000D03*
X89586844Y-124150000D03*
%TD*%
D23*
%TO.C,R79*%
X102761844Y-139575000D03*
X102761844Y-137925000D03*
%TD*%
D14*
%TO.C,R39*%
X231869350Y-112875000D03*
X231869350Y-114525000D03*
%TD*%
D18*
%TO.C,D119*%
X190446844Y-45250000D03*
X190446844Y-42450000D03*
%TD*%
D14*
%TO.C,R114*%
X151246844Y-31425000D03*
X151246844Y-33075000D03*
%TD*%
D12*
%TO.C,R3*%
X44106850Y-109050000D03*
X45756850Y-109050000D03*
%TD*%
D14*
%TO.C,R124*%
X173896844Y-33225000D03*
X173896844Y-34875000D03*
%TD*%
D16*
%TO.C,Q18*%
X124411844Y-122012500D03*
X126311844Y-122012500D03*
X125361844Y-123887500D03*
%TD*%
D41*
%TO.C,D36*%
X211269350Y-96000000D03*
D42*
X215251350Y-95080000D03*
X215251350Y-96920000D03*
%TD*%
D15*
%TO.C,R83*%
X113014350Y-50000000D03*
X111364350Y-50000000D03*
%TD*%
%TO.C,R133*%
X189586844Y-120950000D03*
X187936844Y-120950000D03*
%TD*%
D23*
%TO.C,R117*%
X160111844Y-137775000D03*
X160111844Y-136125000D03*
%TD*%
D16*
%TO.C,D131*%
X242939350Y-38362500D03*
X244839350Y-38362500D03*
X243889350Y-40237500D03*
%TD*%
D14*
%TO.C,R35*%
X262069350Y-53875000D03*
X262069350Y-55525000D03*
%TD*%
%TO.C,R143*%
X250869350Y-112875000D03*
X250869350Y-114525000D03*
%TD*%
D32*
%TO.C,U8*%
X215179350Y-69400000D03*
X214529350Y-69400000D03*
X213879350Y-69400000D03*
X213879350Y-67500000D03*
X215179350Y-67500000D03*
%TD*%
D18*
%TO.C,D54*%
X78696844Y-42250000D03*
X78696844Y-39450000D03*
%TD*%
D43*
%TO.C,C17*%
X211839350Y-40780000D03*
X211839350Y-39820000D03*
%TD*%
D16*
%TO.C,Q22*%
X144411844Y-122012500D03*
X146311844Y-122012500D03*
X145361844Y-123887500D03*
%TD*%
D12*
%TO.C,R122*%
X169971844Y-37850000D03*
X171621844Y-37850000D03*
%TD*%
D18*
%TO.C,D88*%
X155261844Y-124250000D03*
X155261844Y-127050000D03*
%TD*%
D23*
%TO.C,R60*%
X60111844Y-137775000D03*
X60111844Y-136125000D03*
%TD*%
D15*
%TO.C,R43*%
X214564350Y-46900000D03*
X212914350Y-46900000D03*
%TD*%
%TO.C,R21*%
X66071844Y-105850000D03*
X64421844Y-105850000D03*
%TD*%
D27*
%TO.C,U11*%
X81011844Y-64850000D03*
X81011844Y-64200000D03*
X81011844Y-63550000D03*
X82911844Y-63550000D03*
X82911844Y-64850000D03*
%TD*%
D12*
%TO.C,R20*%
X64421844Y-50050000D03*
X66071844Y-50050000D03*
%TD*%
D21*
%TO.C,Q32*%
X189596844Y-107987500D03*
X187696844Y-107987500D03*
X188646844Y-106112500D03*
%TD*%
D12*
%TO.C,R98*%
X124421844Y-50050000D03*
X126071844Y-50050000D03*
%TD*%
%TO.C,R126*%
X164421844Y-109050000D03*
X166071844Y-109050000D03*
%TD*%
D15*
%TO.C,R41*%
X214564350Y-104350000D03*
X212914350Y-104350000D03*
%TD*%
D22*
%TO.C,D78*%
X131296844Y-99850000D03*
X129896844Y-99850000D03*
%TD*%
D24*
%TO.C,U6*%
X52681850Y-106150000D03*
X52681850Y-106800000D03*
X52681850Y-107450000D03*
X50781850Y-107450000D03*
X50781850Y-106150000D03*
%TD*%
D26*
%TO.C,F4*%
X72749344Y-69050000D03*
X65974344Y-69050000D03*
%TD*%
D18*
%TO.C,D22*%
X58746844Y-105750000D03*
X58746844Y-102950000D03*
%TD*%
D12*
%TO.C,R16*%
X67936844Y-65150000D03*
X69586844Y-65150000D03*
%TD*%
D18*
%TO.C,D53*%
X78746844Y-105750000D03*
X78746844Y-102950000D03*
%TD*%
D16*
%TO.C,Q22*%
X144411844Y-63012500D03*
X146311844Y-63012500D03*
X145361844Y-64887500D03*
%TD*%
D12*
%TO.C,R123*%
X169971844Y-98350000D03*
X171621844Y-98350000D03*
%TD*%
D18*
%TO.C,D67*%
X98746844Y-46750000D03*
X98746844Y-43950000D03*
%TD*%
D12*
%TO.C,R92*%
X127936844Y-65150000D03*
X129586844Y-65150000D03*
%TD*%
D15*
%TO.C,R87*%
X124036844Y-74150000D03*
X122386844Y-74150000D03*
%TD*%
D22*
%TO.C,D108*%
X165846844Y-107450000D03*
X164446844Y-107450000D03*
%TD*%
D14*
%TO.C,R22*%
X71246844Y-90425000D03*
X71246844Y-92075000D03*
%TD*%
D15*
%TO.C,R139*%
X193014350Y-109000000D03*
X191364350Y-109000000D03*
%TD*%
D22*
%TO.C,D64*%
X111296844Y-99850000D03*
X109896844Y-99850000D03*
%TD*%
D12*
%TO.C,R136*%
X189971844Y-37850000D03*
X191621844Y-37850000D03*
%TD*%
%TO.C,R20*%
X64421844Y-109050000D03*
X66071844Y-109050000D03*
%TD*%
D18*
%TO.C,D89*%
X155311844Y-69750000D03*
X155311844Y-72550000D03*
%TD*%
%TO.C,D109*%
X158746844Y-46750000D03*
X158746844Y-43950000D03*
%TD*%
D13*
%TO.C,F15*%
X161259344Y-42950000D03*
X168034344Y-42950000D03*
%TD*%
D12*
%TO.C,R132*%
X181064350Y-121000000D03*
X182714350Y-121000000D03*
%TD*%
D27*
%TO.C,U11*%
X81011844Y-123850000D03*
X81011844Y-123200000D03*
X81011844Y-122550000D03*
X82911844Y-122550000D03*
X82911844Y-123850000D03*
%TD*%
D30*
%TO.C,D16*%
X213489350Y-55350000D03*
X213489350Y-59650000D03*
%TD*%
D15*
%TO.C,R113*%
X146071844Y-46850000D03*
X144421844Y-46850000D03*
%TD*%
D12*
%TO.C,R10*%
X49656850Y-37850000D03*
X51306850Y-37850000D03*
%TD*%
D13*
%TO.C,F5*%
X61259344Y-42950000D03*
X68034344Y-42950000D03*
%TD*%
D22*
%TO.C,D99*%
X162711844Y-71150000D03*
X164111844Y-71150000D03*
%TD*%
D40*
%TO.C,C9*%
X212514350Y-108725000D03*
X212514350Y-111675000D03*
%TD*%
D24*
%TO.C,U16*%
X132996844Y-47150000D03*
X132996844Y-47800000D03*
X132996844Y-48450000D03*
X131096844Y-48450000D03*
X131096844Y-47150000D03*
%TD*%
D19*
%TO.C,Q25*%
X140721844Y-109350000D03*
D20*
X141706844Y-107700000D03*
D19*
X141371844Y-109350000D03*
X142021844Y-109350000D03*
X142671844Y-109350000D03*
%TD*%
D15*
%TO.C,R125*%
X173014350Y-109000000D03*
X171364350Y-109000000D03*
%TD*%
D24*
%TO.C,U18*%
X152996844Y-106150000D03*
X152996844Y-106800000D03*
X152996844Y-107450000D03*
X151096844Y-107450000D03*
X151096844Y-106150000D03*
%TD*%
D15*
%TO.C,R83*%
X113014350Y-109000000D03*
X111364350Y-109000000D03*
%TD*%
D14*
%TO.C,R114*%
X151246844Y-90425000D03*
X151246844Y-92075000D03*
%TD*%
%TO.C,R146*%
X243169350Y-53875000D03*
X243169350Y-55525000D03*
%TD*%
D23*
%TO.C,R103*%
X140111844Y-78775000D03*
X140111844Y-77125000D03*
%TD*%
D22*
%TO.C,D57*%
X102711844Y-71150000D03*
X104111844Y-71150000D03*
%TD*%
D12*
%TO.C,R136*%
X189971844Y-96850000D03*
X191621844Y-96850000D03*
%TD*%
%TO.C,R109*%
X149971844Y-98350000D03*
X151621844Y-98350000D03*
%TD*%
%TO.C,R94*%
X129971844Y-96850000D03*
X131621844Y-96850000D03*
%TD*%
D22*
%TO.C,D73*%
X128161844Y-63550000D03*
X129561844Y-63550000D03*
%TD*%
D15*
%TO.C,R2*%
X49271850Y-61950000D03*
X47621850Y-61950000D03*
%TD*%
D18*
%TO.C,D14*%
X63561844Y-66750000D03*
X63561844Y-69550000D03*
%TD*%
D23*
%TO.C,R65*%
X82761844Y-80575000D03*
X82761844Y-78925000D03*
%TD*%
%TO.C,R135*%
X182761844Y-139575000D03*
X182761844Y-137925000D03*
%TD*%
D24*
%TO.C,U22*%
X192996844Y-47150000D03*
X192996844Y-47800000D03*
X192996844Y-48450000D03*
X191096844Y-48450000D03*
X191096844Y-47150000D03*
%TD*%
D12*
%TO.C,R137*%
X189971844Y-39350000D03*
X191621844Y-39350000D03*
%TD*%
D23*
%TO.C,R75*%
X100111844Y-137775000D03*
X100111844Y-136125000D03*
%TD*%
D18*
%TO.C,D123*%
X178746844Y-46750000D03*
X178746844Y-43950000D03*
%TD*%
%TO.C,D20*%
X70446844Y-45250000D03*
X70446844Y-42450000D03*
%TD*%
%TO.C,D23*%
X58696844Y-42250000D03*
X58696844Y-39450000D03*
%TD*%
D22*
%TO.C,D113*%
X182711844Y-130150000D03*
X184111844Y-130150000D03*
%TD*%
D16*
%TO.C,Q18*%
X124411844Y-63012500D03*
X126311844Y-63012500D03*
X125361844Y-64887500D03*
%TD*%
D40*
%TO.C,C9*%
X212514350Y-49725000D03*
X212514350Y-52675000D03*
%TD*%
D22*
%TO.C,D66*%
X105846844Y-107450000D03*
X104446844Y-107450000D03*
%TD*%
D12*
%TO.C,R78*%
X107936844Y-65150000D03*
X109586844Y-65150000D03*
%TD*%
D21*
%TO.C,Q28*%
X169596844Y-107987500D03*
X167696844Y-107987500D03*
X168646844Y-106112500D03*
%TD*%
D41*
%TO.C,D36*%
X211269350Y-37000000D03*
D42*
X215251350Y-36080000D03*
X215251350Y-37920000D03*
%TD*%
D18*
%TO.C,D27*%
X95261844Y-124250000D03*
X95261844Y-127050000D03*
%TD*%
D12*
%TO.C,R134*%
X187936844Y-124150000D03*
X189586844Y-124150000D03*
%TD*%
D18*
%TO.C,D77*%
X130446844Y-45250000D03*
X130446844Y-42450000D03*
%TD*%
D16*
%TO.C,D130*%
X246439350Y-38362500D03*
X248339350Y-38362500D03*
X247389350Y-40237500D03*
%TD*%
D23*
%TO.C,R107*%
X142761844Y-80575000D03*
X142761844Y-78925000D03*
%TD*%
D15*
%TO.C,R13*%
X64036844Y-133150000D03*
X62386844Y-133150000D03*
%TD*%
D14*
%TO.C,R128*%
X171246844Y-90425000D03*
X171246844Y-92075000D03*
%TD*%
D21*
%TO.C,Q28*%
X169596844Y-48987500D03*
X167696844Y-48987500D03*
X168646844Y-47112500D03*
%TD*%
D39*
%TO.C,C24*%
X215414350Y-43750000D03*
X216964350Y-43750000D03*
%TD*%
D22*
%TO.C,D15*%
X68161844Y-63550000D03*
X69561844Y-63550000D03*
%TD*%
D26*
%TO.C,F10*%
X132749344Y-69050000D03*
X125974344Y-69050000D03*
%TD*%
D19*
%TO.C,Q21*%
X120721844Y-109350000D03*
D20*
X121706844Y-107700000D03*
D19*
X121371844Y-109350000D03*
X122021844Y-109350000D03*
X122671844Y-109350000D03*
%TD*%
D21*
%TO.C,Q5*%
X49281850Y-48987500D03*
X47381850Y-48987500D03*
X48331850Y-47112500D03*
%TD*%
D22*
%TO.C,D15*%
X68161844Y-122550000D03*
X69561844Y-122550000D03*
%TD*%
D18*
%TO.C,D56*%
X103561844Y-125750000D03*
X103561844Y-128550000D03*
%TD*%
D14*
%TO.C,R142*%
X191246844Y-90425000D03*
X191246844Y-92075000D03*
%TD*%
D15*
%TO.C,R12*%
X52714350Y-109000000D03*
X51064350Y-109000000D03*
%TD*%
D16*
%TO.C,Q4*%
X44096850Y-122012500D03*
X45996850Y-122012500D03*
X45046850Y-123887500D03*
%TD*%
D14*
%TO.C,R86*%
X111246844Y-31425000D03*
X111246844Y-33075000D03*
%TD*%
D12*
%TO.C,R104*%
X141164350Y-121000000D03*
X142814350Y-121000000D03*
%TD*%
D14*
%TO.C,R38*%
X220569350Y-53875000D03*
X220569350Y-55525000D03*
%TD*%
%TO.C,R61*%
X73896844Y-92225000D03*
X73896844Y-93875000D03*
%TD*%
D16*
%TO.C,D129*%
X253439350Y-97362500D03*
X255339350Y-97362500D03*
X254389350Y-99237500D03*
%TD*%
D14*
%TO.C,R34*%
X234369350Y-112875000D03*
X234369350Y-114525000D03*
%TD*%
D26*
%TO.C,F16*%
X192749344Y-128050000D03*
X185974344Y-128050000D03*
%TD*%
%TO.C,F14*%
X172749344Y-128050000D03*
X165974344Y-128050000D03*
%TD*%
D18*
%TO.C,D10*%
X54996850Y-69750000D03*
X54996850Y-72550000D03*
%TD*%
D10*
%TO.C,Q19*%
X133286844Y-120650000D03*
D11*
X132301844Y-122300000D03*
D10*
X132636844Y-120650000D03*
X131986844Y-120650000D03*
X131336844Y-120650000D03*
%TD*%
D22*
%TO.C,D115*%
X188161844Y-122550000D03*
X189561844Y-122550000D03*
%TD*%
D16*
%TO.C,Q14*%
X104411844Y-63012500D03*
X106311844Y-63012500D03*
X105361844Y-64887500D03*
%TD*%
D15*
%TO.C,R50*%
X84036844Y-74150000D03*
X82386844Y-74150000D03*
%TD*%
D19*
%TO.C,Q33*%
X180721844Y-50350000D03*
D20*
X181706844Y-48700000D03*
D19*
X181371844Y-50350000D03*
X182021844Y-50350000D03*
X182671844Y-50350000D03*
%TD*%
D22*
%TO.C,D80*%
X125846844Y-107450000D03*
X124446844Y-107450000D03*
%TD*%
D15*
%TO.C,R56*%
X64036844Y-72650000D03*
X62386844Y-72650000D03*
%TD*%
D16*
%TO.C,Q26*%
X164411844Y-63012500D03*
X166311844Y-63012500D03*
X165361844Y-64887500D03*
%TD*%
D23*
%TO.C,R135*%
X182761844Y-80575000D03*
X182761844Y-78925000D03*
%TD*%
D18*
%TO.C,D63*%
X110446844Y-104250000D03*
X110446844Y-101450000D03*
%TD*%
D27*
%TO.C,U15*%
X121011844Y-64850000D03*
X121011844Y-64200000D03*
X121011844Y-63550000D03*
X122911844Y-63550000D03*
X122911844Y-64850000D03*
%TD*%
D18*
%TO.C,D53*%
X78746844Y-46750000D03*
X78746844Y-43950000D03*
%TD*%
D14*
%TO.C,R138*%
X193896844Y-33225000D03*
X193896844Y-34875000D03*
%TD*%
D22*
%TO.C,D33*%
X108299350Y-57500000D03*
X109699350Y-57500000D03*
%TD*%
D43*
%TO.C,C17*%
X211839350Y-99780000D03*
X211839350Y-98820000D03*
%TD*%
D15*
%TO.C,R102*%
X144036844Y-72650000D03*
X142386844Y-72650000D03*
%TD*%
D12*
%TO.C,R108*%
X149971844Y-96850000D03*
X151621844Y-96850000D03*
%TD*%
D22*
%TO.C,D46*%
X50981850Y-99850000D03*
X49581850Y-99850000D03*
%TD*%
%TO.C,D64*%
X111296844Y-40850000D03*
X109896844Y-40850000D03*
%TD*%
D23*
%TO.C,R131*%
X180111844Y-137775000D03*
X180111844Y-136125000D03*
%TD*%
D24*
%TO.C,U18*%
X152996844Y-47150000D03*
X152996844Y-47800000D03*
X152996844Y-48450000D03*
X151096844Y-48450000D03*
X151096844Y-47150000D03*
%TD*%
D27*
%TO.C,U7*%
X61011844Y-64850000D03*
X61011844Y-64200000D03*
X61011844Y-63550000D03*
X62911844Y-63550000D03*
X62911844Y-64850000D03*
%TD*%
D21*
%TO.C,Q12*%
X89596844Y-48987500D03*
X87696844Y-48987500D03*
X88646844Y-47112500D03*
%TD*%
D16*
%TO.C,D34*%
X228939350Y-38362500D03*
X230839350Y-38362500D03*
X229889350Y-40237500D03*
%TD*%
D18*
%TO.C,D17*%
X75261844Y-65250000D03*
X75261844Y-68050000D03*
%TD*%
D22*
%TO.C,D48*%
X71296844Y-99850000D03*
X69896844Y-99850000D03*
%TD*%
D18*
%TO.C,D70*%
X123561844Y-125750000D03*
X123561844Y-128550000D03*
%TD*%
%TO.C,D8*%
X54946850Y-124250000D03*
X54946850Y-127050000D03*
%TD*%
D12*
%TO.C,R27*%
X148484350Y-118000000D03*
X150134350Y-118000000D03*
%TD*%
D18*
%TO.C,D18*%
X75311844Y-128750000D03*
X75311844Y-131550000D03*
%TD*%
D22*
%TO.C,D80*%
X125846844Y-48450000D03*
X124446844Y-48450000D03*
%TD*%
D16*
%TO.C,Q14*%
X104411844Y-122012500D03*
X106311844Y-122012500D03*
X105361844Y-123887500D03*
%TD*%
D27*
%TO.C,U21*%
X181011844Y-123850000D03*
X181011844Y-123200000D03*
X181011844Y-122550000D03*
X182911844Y-122550000D03*
X182911844Y-123850000D03*
%TD*%
D22*
%TO.C,D99*%
X162711844Y-130150000D03*
X164111844Y-130150000D03*
%TD*%
D10*
%TO.C,Q23*%
X153286844Y-120650000D03*
D11*
X152301844Y-122300000D03*
D10*
X152636844Y-120650000D03*
X151986844Y-120650000D03*
X151336844Y-120650000D03*
%TD*%
D16*
%TO.C,Q10*%
X84411844Y-122012500D03*
X86311844Y-122012500D03*
X85361844Y-123887500D03*
%TD*%
D22*
%TO.C,D115*%
X188161844Y-63550000D03*
X189561844Y-63550000D03*
%TD*%
D15*
%TO.C,R101*%
X144036844Y-74150000D03*
X142386844Y-74150000D03*
%TD*%
D22*
%TO.C,D59*%
X108161844Y-122550000D03*
X109561844Y-122550000D03*
%TD*%
D24*
%TO.C,U14*%
X112996844Y-106150000D03*
X112996844Y-106800000D03*
X112996844Y-107450000D03*
X111096844Y-107450000D03*
X111096844Y-106150000D03*
%TD*%
D15*
%TO.C,R56*%
X64036844Y-131650000D03*
X62386844Y-131650000D03*
%TD*%
D22*
%TO.C,D26*%
X88161844Y-63550000D03*
X89561844Y-63550000D03*
%TD*%
D16*
%TO.C,Q26*%
X164411844Y-122012500D03*
X166311844Y-122012500D03*
X165361844Y-123887500D03*
%TD*%
D22*
%TO.C,D133*%
X148709350Y-116500000D03*
X150109350Y-116500000D03*
%TD*%
D18*
%TO.C,D14*%
X63561844Y-125750000D03*
X63561844Y-128550000D03*
%TD*%
D23*
%TO.C,R89*%
X120111844Y-78775000D03*
X120111844Y-77125000D03*
%TD*%
D14*
%TO.C,R22*%
X71246844Y-31425000D03*
X71246844Y-33075000D03*
%TD*%
%TO.C,R72*%
X91246844Y-90425000D03*
X91246844Y-92075000D03*
%TD*%
D18*
%TO.C,D27*%
X95261844Y-65250000D03*
X95261844Y-68050000D03*
%TD*%
D12*
%TO.C,R118*%
X161064350Y-121000000D03*
X162714350Y-121000000D03*
%TD*%
D24*
%TO.C,U20*%
X172996844Y-106150000D03*
X172996844Y-106800000D03*
X172996844Y-107450000D03*
X171096844Y-107450000D03*
X171096844Y-106150000D03*
%TD*%
D14*
%TO.C,R36*%
X259569350Y-112875000D03*
X259569350Y-114525000D03*
%TD*%
D12*
%TO.C,R54*%
X49656850Y-39350000D03*
X51306850Y-39350000D03*
%TD*%
D15*
%TO.C,R113*%
X146071844Y-105850000D03*
X144421844Y-105850000D03*
%TD*%
D26*
%TO.C,F10*%
X132749344Y-128050000D03*
X125974344Y-128050000D03*
%TD*%
D15*
%TO.C,R87*%
X124036844Y-133150000D03*
X122386844Y-133150000D03*
%TD*%
D23*
%TO.C,R4*%
X42446850Y-139575000D03*
X42446850Y-137925000D03*
%TD*%
D22*
%TO.C,D21*%
X65846844Y-107450000D03*
X64446844Y-107450000D03*
%TD*%
D23*
%TO.C,R89*%
X120111844Y-137775000D03*
X120111844Y-136125000D03*
%TD*%
D18*
%TO.C,D109*%
X158746844Y-105750000D03*
X158746844Y-102950000D03*
%TD*%
D15*
%TO.C,R43*%
X214564350Y-105900000D03*
X212914350Y-105900000D03*
%TD*%
%TO.C,R7*%
X45756850Y-105850000D03*
X44106850Y-105850000D03*
%TD*%
D14*
%TO.C,R40*%
X254469350Y-53875000D03*
X254469350Y-55525000D03*
%TD*%
%TO.C,R144*%
X248269350Y-112875000D03*
X248269350Y-114525000D03*
%TD*%
D24*
%TO.C,U20*%
X172996844Y-47150000D03*
X172996844Y-47800000D03*
X172996844Y-48450000D03*
X171096844Y-48450000D03*
X171096844Y-47150000D03*
%TD*%
D22*
%TO.C,D85*%
X142711844Y-130150000D03*
X144111844Y-130150000D03*
%TD*%
D27*
%TO.C,U7*%
X61011844Y-123850000D03*
X61011844Y-123200000D03*
X61011844Y-122550000D03*
X62911844Y-122550000D03*
X62911844Y-123850000D03*
%TD*%
D15*
%TO.C,R119*%
X169586844Y-120950000D03*
X167936844Y-120950000D03*
%TD*%
D18*
%TO.C,D116*%
X195261844Y-65250000D03*
X195261844Y-68050000D03*
%TD*%
D15*
%TO.C,R69*%
X93014350Y-50000000D03*
X91364350Y-50000000D03*
%TD*%
D14*
%TO.C,R124*%
X173896844Y-92225000D03*
X173896844Y-93875000D03*
%TD*%
D12*
%TO.C,R95*%
X129971844Y-39350000D03*
X131621844Y-39350000D03*
%TD*%
D15*
%TO.C,R15*%
X69586844Y-120950000D03*
X67936844Y-120950000D03*
%TD*%
D22*
%TO.C,D46*%
X50981850Y-40850000D03*
X49581850Y-40850000D03*
%TD*%
D12*
%TO.C,R78*%
X107936844Y-124150000D03*
X109586844Y-124150000D03*
%TD*%
D15*
%TO.C,R139*%
X193014350Y-50000000D03*
X191364350Y-50000000D03*
%TD*%
D14*
%TO.C,R29*%
X223069350Y-112875000D03*
X223069350Y-114525000D03*
%TD*%
D23*
%TO.C,R121*%
X162761844Y-139575000D03*
X162761844Y-137925000D03*
%TD*%
D10*
%TO.C,Q15*%
X113286844Y-120650000D03*
D11*
X112301844Y-122300000D03*
D10*
X112636844Y-120650000D03*
X111986844Y-120650000D03*
X111336844Y-120650000D03*
%TD*%
D12*
%TO.C,R10*%
X49656850Y-96850000D03*
X51306850Y-96850000D03*
%TD*%
M02*
