M48
; DRILL file {KiCad 9.0.0+dfsg-1} date 2025-04-06T22:27:08+0100
; FORMAT={-:-/ absolute / metric / decimal}
; #@! TF.CreationDate,2025-04-06T22:27:08+01:00
; #@! TF.GenerationSoftware,Kicad,Pcbnew,9.0.0+dfsg-1
; #@! TF.FileFunction,Plated,1,4,PTH
FMAT,2
METRIC
; #@! TA.AperFunction,Plated,PTH,ComponentDrill
T1C0.300
; #@! TA.AperFunction,Plated,PTH,ViaDrill
T2C0.400
; #@! TA.AperFunction,Plated,PTH,ComponentDrill
T3C1.000
; #@! TA.AperFunction,Plated,PTH,ComponentDrill
T4C1.016
; #@! TA.AperFunction,Plated,PTH,ComponentDrill
T5C1.700
; #@! TA.AperFunction,Plated,PTH,ComponentDrill
T6C1.780
%
G90
G05
T1
X213.689Y-41.6
X213.689Y-100.6
X214.989Y-40.3
X214.989Y-41.6
X214.989Y-99.3
X214.989Y-100.6
X216.289Y-40.3
X216.289Y-41.6
X216.289Y-99.3
X216.289Y-100.6
T2
X34.689Y-36.4
X34.689Y-42.1
X34.689Y-47.8
X34.689Y-64.0
X34.689Y-69.7
X34.689Y-75.4
X34.689Y-95.4
X34.689Y-101.1
X34.689Y-106.8
X34.689Y-123.0
X34.689Y-128.7
X34.689Y-134.4
X38.239Y-62.5
X38.239Y-121.5
X39.732Y-39.15
X39.732Y-98.15
X39.797Y-79.7
X39.797Y-138.7
X40.389Y-74.15
X40.389Y-133.15
X40.982Y-29.8
X40.982Y-88.8
X41.289Y-62.8
X41.289Y-121.8
X41.756Y-64.65
X41.756Y-123.65
X41.789Y-39.8
X41.789Y-98.8
X42.467Y-77.949
X42.467Y-136.949
X43.247Y-79.75
X43.247Y-138.75
X43.747Y-71.8
X43.747Y-130.8
X44.289Y-39.9
X44.289Y-98.9
X44.989Y-82.2
X44.989Y-141.2
X45.189Y-42.0
X45.189Y-101.0
X45.448Y-63.643
X45.448Y-122.643
X46.682Y-29.8
X46.682Y-88.8
X48.089Y-48.4
X48.089Y-107.4
X48.389Y-69.9
X48.389Y-128.9
X49.289Y-72.0
X49.289Y-131.0
X49.632Y-40.2
X49.632Y-99.2
X50.132Y-32.25
X50.132Y-91.25
X50.689Y-82.2
X50.689Y-141.2
X50.912Y-34.075
X50.912Y-93.075
X51.439Y-72.05
X51.439Y-131.05
X51.622Y-47.35
X51.622Y-106.35
X52.239Y-49.05
X52.239Y-108.05
X52.589Y-37.85
X52.589Y-96.85
X53.582Y-32.3
X53.582Y-91.3
X53.647Y-72.85
X53.647Y-131.85
X55.189Y-49.5
X55.189Y-108.5
X56.389Y-82.2
X56.389Y-141.2
X56.689Y-29.8
X56.689Y-88.8
X58.489Y-62.5
X58.489Y-121.5
X60.047Y-39.15
X60.047Y-98.15
X60.112Y-79.7
X60.112Y-138.7
X60.839Y-74.15
X60.839Y-133.15
X61.639Y-62.8
X61.639Y-121.8
X62.071Y-64.65
X62.071Y-123.65
X62.239Y-40.1
X62.239Y-99.1
X62.389Y-29.8
X62.389Y-88.8
X62.767Y-77.949
X62.767Y-136.949
X63.562Y-79.75
X63.562Y-138.75
X64.062Y-71.8
X64.062Y-130.8
X64.752Y-39.887
X64.752Y-98.887
X65.652Y-41.987
X65.652Y-100.987
X65.689Y-63.6
X65.689Y-82.2
X65.689Y-122.6
X65.689Y-141.2
X67.089Y-59.1
X67.089Y-118.1
X68.089Y-29.8
X68.089Y-88.8
X68.389Y-48.85
X68.389Y-107.85
X68.489Y-69.9
X68.489Y-128.9
X68.989Y-52.6
X68.989Y-111.6
X69.389Y-72.0
X69.389Y-131.0
X69.589Y-56.2
X69.589Y-115.2
X69.947Y-40.2
X69.947Y-99.2
X70.447Y-32.25
X70.447Y-91.25
X71.212Y-34.075
X71.212Y-93.075
X71.389Y-82.2
X71.389Y-141.2
X71.589Y-72.2
X71.589Y-131.2
X71.937Y-47.35
X71.937Y-106.35
X72.639Y-49.0
X72.639Y-108.0
X72.939Y-37.85
X72.939Y-96.85
X73.897Y-32.3
X73.897Y-91.3
X73.962Y-72.85
X73.962Y-131.85
X75.489Y-49.5
X75.489Y-108.5
X77.089Y-82.2
X77.089Y-141.2
X77.389Y-29.8
X77.389Y-88.8
X78.539Y-62.5
X78.539Y-121.5
X80.047Y-39.15
X80.047Y-98.15
X80.112Y-79.7
X80.112Y-138.7
X81.089Y-74.15
X81.089Y-133.15
X81.539Y-62.8
X81.539Y-121.8
X82.071Y-64.65
X82.071Y-123.65
X82.389Y-39.9
X82.389Y-98.9
X82.817Y-77.949
X82.817Y-136.949
X83.089Y-29.8
X83.089Y-88.8
X83.562Y-79.75
X83.562Y-138.75
X84.062Y-71.8
X84.062Y-130.8
X84.589Y-39.775
X84.589Y-98.775
X85.489Y-41.875
X85.489Y-82.2
X85.489Y-100.875
X85.489Y-141.2
X85.708Y-63.626
X85.708Y-122.626
X88.589Y-48.7
X88.589Y-107.7
X88.789Y-29.8
X88.789Y-88.8
X89.039Y-69.9
X89.039Y-128.9
X89.939Y-72.0
X89.939Y-131.0
X89.989Y-40.15
X89.989Y-99.15
X90.447Y-32.25
X90.447Y-91.25
X91.189Y-82.2
X91.189Y-141.2
X91.239Y-34.075
X91.239Y-93.075
X91.937Y-47.35
X91.937Y-106.35
X91.939Y-72.1
X91.939Y-131.1
X92.639Y-49.0
X92.639Y-108.0
X92.689Y-37.85
X92.689Y-96.85
X93.897Y-32.3
X93.897Y-91.3
X93.962Y-72.85
X93.962Y-131.85
X95.489Y-49.5
X95.489Y-108.5
X96.889Y-82.2
X96.889Y-141.2
X97.189Y-29.8
X97.189Y-88.8
X98.489Y-62.5
X98.489Y-121.5
X100.047Y-39.15
X100.047Y-98.15
X100.112Y-79.7
X100.112Y-138.7
X100.839Y-74.15
X100.839Y-133.15
X101.639Y-62.8
X101.639Y-121.8
X102.071Y-64.65
X102.071Y-123.65
X102.239Y-40.0
X102.239Y-99.0
X102.817Y-77.949
X102.817Y-136.949
X102.889Y-29.8
X102.889Y-88.8
X103.562Y-79.75
X103.562Y-138.75
X104.062Y-71.8
X104.062Y-130.8
X104.539Y-39.887
X104.539Y-98.887
X105.089Y-82.188
X105.089Y-141.188
X105.439Y-41.987
X105.439Y-100.987
X105.708Y-63.626
X105.708Y-122.626
X107.089Y-59.0
X107.089Y-118.0
X108.489Y-48.6
X108.489Y-107.6
X108.589Y-29.8
X108.589Y-69.9
X108.589Y-88.8
X108.589Y-128.9
X109.089Y-52.5
X109.089Y-111.5
X109.489Y-72.0
X109.489Y-131.0
X109.689Y-56.6
X109.689Y-115.6
X109.989Y-40.2
X109.989Y-99.2
X110.447Y-32.25
X110.447Y-91.25
X110.789Y-82.188
X110.789Y-141.188
X111.239Y-34.075
X111.239Y-93.075
X111.689Y-72.1
X111.689Y-131.1
X111.937Y-47.35
X111.937Y-106.35
X112.589Y-48.95
X112.589Y-107.95
X113.189Y-37.85
X113.189Y-96.85
X113.897Y-32.3
X113.897Y-91.3
X113.962Y-72.85
X113.962Y-131.85
X115.489Y-49.5
X115.489Y-108.5
X118.489Y-62.5
X118.489Y-121.5
X120.047Y-39.15
X120.047Y-98.15
X120.112Y-79.7
X120.112Y-138.7
X120.639Y-74.15
X120.639Y-133.15
X121.639Y-62.8
X121.639Y-121.8
X122.071Y-64.65
X122.071Y-123.65
X122.389Y-39.9
X122.389Y-98.9
X122.789Y-29.787
X122.789Y-77.95
X122.789Y-88.787
X122.789Y-136.95
X123.562Y-79.75
X123.562Y-138.75
X124.062Y-71.8
X124.062Y-130.8
X124.689Y-39.775
X124.689Y-98.775
X125.589Y-41.875
X125.589Y-82.2
X125.589Y-100.875
X125.589Y-141.2
X125.689Y-63.6
X125.689Y-122.6
X128.489Y-29.787
X128.489Y-48.5
X128.489Y-88.787
X128.489Y-107.5
X128.989Y-69.9
X128.989Y-128.9
X129.889Y-72.0
X129.889Y-131.0
X129.989Y-40.2
X129.989Y-99.2
X130.447Y-32.25
X130.447Y-91.25
X131.239Y-34.075
X131.239Y-93.075
X131.289Y-82.2
X131.289Y-141.2
X131.889Y-72.05
X131.889Y-131.05
X131.937Y-47.35
X131.937Y-106.35
X132.589Y-48.95
X132.589Y-107.95
X133.239Y-37.85
X133.239Y-96.85
X133.897Y-32.3
X133.897Y-91.3
X133.962Y-72.85
X133.962Y-131.85
X135.489Y-49.5
X135.489Y-108.5
X136.989Y-82.2
X136.989Y-141.2
X137.289Y-29.8
X137.289Y-88.8
X138.489Y-62.5
X138.489Y-121.5
X140.047Y-39.15
X140.047Y-98.15
X140.112Y-79.7
X140.112Y-138.7
X140.739Y-74.15
X140.739Y-133.15
X141.689Y-62.85
X141.689Y-121.85
X142.071Y-64.65
X142.071Y-123.65
X142.239Y-40.0
X142.239Y-99.0
X142.789Y-77.95
X142.789Y-136.95
X142.989Y-29.8
X142.989Y-88.8
X143.562Y-79.75
X143.562Y-138.75
X144.062Y-71.8
X144.062Y-130.8
X144.589Y-39.887
X144.589Y-98.887
X145.489Y-41.987
X145.489Y-100.987
X145.646Y-63.613
X145.646Y-122.613
X145.689Y-82.2
X145.689Y-141.2
X147.689Y-59.0
X147.689Y-118.0
X148.489Y-48.5
X148.489Y-107.5
X148.589Y-69.9
X148.589Y-128.9
X148.689Y-29.8
X148.689Y-88.8
X149.489Y-52.5
X149.489Y-72.0
X149.489Y-111.5
X149.489Y-131.0
X149.947Y-40.2
X149.947Y-99.2
X150.089Y-56.7
X150.089Y-115.7
X150.447Y-32.25
X150.447Y-91.25
X151.239Y-34.1
X151.239Y-93.1
X151.389Y-82.2
X151.389Y-141.2
X151.689Y-72.1
X151.689Y-131.1
X151.937Y-47.35
X151.937Y-106.35
X152.589Y-38.0
X152.589Y-48.95
X152.589Y-97.0
X152.589Y-107.95
X153.897Y-32.3
X153.897Y-91.3
X153.962Y-72.85
X153.962Y-131.85
X155.489Y-49.5
X155.489Y-108.5
X157.089Y-82.2
X157.089Y-141.2
X157.389Y-29.8
X157.389Y-88.8
X158.489Y-62.5
X158.489Y-121.5
X160.047Y-39.15
X160.047Y-98.15
X160.112Y-79.7
X160.112Y-138.7
X161.089Y-74.15
X161.089Y-133.15
X161.489Y-62.85
X161.489Y-121.85
X162.071Y-64.65
X162.071Y-123.65
X162.389Y-39.8
X162.389Y-98.8
X162.767Y-77.95
X162.767Y-136.95
X163.089Y-29.8
X163.089Y-88.8
X163.562Y-79.75
X163.562Y-138.75
X164.062Y-71.8
X164.062Y-130.8
X164.689Y-39.775
X164.689Y-98.775
X165.589Y-41.875
X165.589Y-100.875
X165.689Y-82.2
X165.689Y-141.2
X165.74Y-63.635
X165.74Y-122.635
X168.489Y-48.5
X168.489Y-107.5
X168.789Y-29.8
X168.789Y-88.8
X168.889Y-69.9
X168.889Y-128.9
X169.789Y-72.0
X169.789Y-131.0
X169.947Y-40.2
X169.947Y-99.2
X170.447Y-32.25
X170.447Y-91.25
X171.239Y-34.1
X171.239Y-93.1
X171.389Y-82.2
X171.389Y-141.2
X171.889Y-72.0
X171.889Y-131.0
X171.937Y-47.35
X171.937Y-106.35
X172.539Y-48.95
X172.539Y-107.95
X172.939Y-38.5
X172.939Y-97.5
X173.897Y-32.3
X173.897Y-91.3
X173.962Y-72.85
X173.962Y-131.85
X175.489Y-49.5
X175.489Y-108.5
X177.089Y-82.2
X177.089Y-141.2
X177.389Y-29.8
X177.389Y-88.8
X178.489Y-62.5
X178.489Y-121.5
X179.892Y-57.7
X179.892Y-116.7
X180.047Y-39.15
X180.047Y-98.15
X180.112Y-79.7
X180.112Y-138.7
X180.389Y-74.15
X180.389Y-133.15
X181.689Y-62.75
X181.689Y-121.75
X182.071Y-64.65
X182.071Y-123.65
X182.189Y-40.05
X182.189Y-99.05
X182.789Y-77.95
X182.789Y-136.95
X183.089Y-29.8
X183.089Y-88.8
X183.562Y-79.75
X183.562Y-138.75
X184.062Y-71.8
X184.062Y-130.8
X184.539Y-39.887
X184.539Y-98.887
X185.439Y-41.987
X185.439Y-100.987
X185.708Y-63.626
X185.708Y-122.626
X186.589Y-82.2
X186.589Y-141.2
X188.589Y-69.9
X188.589Y-128.9
X188.789Y-29.8
X188.789Y-88.8
X189.489Y-72.0
X189.489Y-131.0
X189.989Y-40.2
X189.989Y-99.2
X190.447Y-32.25
X190.447Y-91.25
X191.239Y-34.1
X191.239Y-93.1
X191.789Y-72.1
X191.789Y-131.1
X191.937Y-47.35
X191.937Y-106.35
X192.289Y-82.2
X192.289Y-141.2
X192.639Y-48.95
X192.639Y-107.95
X193.139Y-37.85
X193.139Y-96.85
X193.897Y-32.3
X193.897Y-91.3
X193.962Y-72.85
X193.962Y-131.85
X195.489Y-49.5
X195.489Y-108.5
X197.989Y-82.2
X197.989Y-141.2
X198.389Y-52.7
X198.389Y-111.7
X200.064Y-42.1
X200.064Y-101.1
X200.339Y-31.45
X200.339Y-90.45
X200.539Y-53.025
X200.539Y-112.025
X201.489Y-64.65
X201.489Y-71.25
X201.489Y-123.65
X201.489Y-130.25
X202.039Y-51.675
X202.039Y-110.675
X202.339Y-59.3
X202.339Y-118.3
X205.489Y-39.5
X205.489Y-40.8
X205.489Y-42.0
X205.489Y-98.5
X205.489Y-99.8
X205.489Y-101.0
X206.414Y-59.3
X206.414Y-118.3
X206.689Y-39.5
X206.689Y-40.8
X206.689Y-42.0
X206.689Y-98.5
X206.689Y-99.8
X206.689Y-101.0
X207.889Y-39.5
X207.889Y-40.8
X207.889Y-42.0
X207.889Y-98.5
X207.889Y-99.8
X207.889Y-101.0
X208.214Y-52.675
X208.214Y-111.675
X208.379Y-76.475
X208.379Y-135.475
X209.639Y-36.8
X209.639Y-38.0
X209.639Y-95.8
X209.639Y-97.0
X209.989Y-51.1
X209.989Y-82.2
X209.989Y-110.1
X209.989Y-141.2
X210.889Y-36.8
X210.889Y-38.0
X210.889Y-95.8
X210.889Y-97.0
X211.189Y-71.25
X211.189Y-130.25
X211.889Y-41.7
X211.889Y-100.7
X212.033Y-44.753
X212.033Y-103.753
X212.089Y-38.0
X212.089Y-97.0
X213.84Y-48.425
X213.84Y-107.425
X214.396Y-44.225
X214.396Y-103.225
X214.789Y-36.0
X214.789Y-95.0
X215.089Y-51.425
X215.089Y-110.425
X215.179Y-66.45
X215.179Y-125.45
X215.561Y-82.2
X215.561Y-141.2
X215.564Y-59.65
X215.564Y-118.65
X215.614Y-45.0
X215.614Y-104.0
X216.889Y-45.0
X216.889Y-104.0
X217.539Y-38.85
X217.539Y-66.8
X217.539Y-97.85
X217.539Y-125.8
X218.469Y-40.9
X218.469Y-43.5
X218.469Y-99.9
X218.469Y-102.5
X218.489Y-51.375
X218.489Y-110.375
X218.889Y-48.05
X218.889Y-107.05
X219.089Y-46.3
X219.089Y-105.3
X219.589Y-49.0
X219.589Y-108.0
X221.132Y-82.2
X221.132Y-141.2
X221.213Y-37.554
X221.213Y-96.554
X226.704Y-82.2
X226.704Y-141.2
X229.889Y-41.8
X229.889Y-100.8
X232.275Y-82.2
X232.275Y-141.2
X233.389Y-44.0
X233.389Y-103.0
X236.889Y-41.8
X236.889Y-100.8
X237.846Y-82.2
X237.846Y-141.2
X240.389Y-41.8
X240.389Y-100.8
X243.418Y-82.2
X243.418Y-141.2
X243.889Y-41.8
X243.889Y-100.8
X247.389Y-41.8
X247.389Y-100.8
X248.989Y-82.2
X248.989Y-141.2
X249.939Y-36.85
X249.939Y-95.85
X250.889Y-41.8
X250.889Y-100.8
X251.839Y-36.85
X251.839Y-95.85
X253.439Y-36.85
X253.439Y-95.85
X254.389Y-41.8
X254.389Y-100.8
X255.339Y-36.85
X255.339Y-95.85
X258.089Y-82.2
X258.089Y-141.2
X264.189Y-36.486
X264.189Y-42.057
X264.189Y-47.629
X264.189Y-53.2
X264.189Y-58.771
X264.189Y-64.343
X264.189Y-69.914
X264.189Y-75.486
X264.189Y-95.486
X264.189Y-101.057
X264.189Y-106.629
X264.189Y-112.2
X264.189Y-117.771
X264.189Y-123.343
X264.189Y-128.914
X264.189Y-134.486
T3
X208.149Y-47.7
X208.149Y-106.7
X210.689Y-47.7
X210.689Y-106.7
X213.679Y-72.7
X213.679Y-131.7
X216.219Y-72.7
X216.219Y-131.7
X220.569Y-57.76
X220.569Y-60.3
X220.569Y-116.76
X220.569Y-119.3
X223.109Y-57.76
X223.109Y-60.3
X223.109Y-116.76
X223.109Y-119.3
X225.649Y-57.76
X225.649Y-60.3
X225.649Y-116.76
X225.649Y-119.3
X228.189Y-57.76
X228.189Y-60.3
X228.189Y-116.76
X228.189Y-119.3
X231.849Y-57.76
X231.849Y-60.3
X231.849Y-116.76
X231.849Y-119.3
X234.389Y-57.76
X234.389Y-60.3
X234.389Y-116.76
X234.389Y-119.3
X236.929Y-57.76
X236.929Y-60.3
X236.929Y-116.76
X236.929Y-119.3
X239.469Y-57.76
X239.469Y-60.3
X239.469Y-116.76
X239.469Y-119.3
X243.189Y-57.76
X243.189Y-60.3
X243.189Y-116.76
X243.189Y-119.3
X245.729Y-57.76
X245.729Y-60.3
X245.729Y-116.76
X245.729Y-119.3
X248.269Y-57.76
X248.269Y-60.3
X248.269Y-116.76
X248.269Y-119.3
X250.809Y-57.76
X250.809Y-60.3
X250.809Y-116.76
X250.809Y-119.3
X254.489Y-57.76
X254.489Y-60.3
X254.489Y-116.76
X254.489Y-119.3
X257.029Y-57.76
X257.029Y-60.3
X257.029Y-116.76
X257.029Y-119.3
X259.569Y-57.76
X259.569Y-60.3
X259.569Y-116.76
X259.569Y-119.3
X262.109Y-57.76
X262.109Y-60.3
X262.109Y-116.76
X262.109Y-119.3
T4
X209.059Y-30.23
X209.059Y-32.77
X209.059Y-89.23
X209.059Y-91.77
X211.599Y-30.23
X211.599Y-32.77
X211.599Y-89.23
X211.599Y-91.77
X214.139Y-30.23
X214.139Y-32.77
X214.139Y-89.23
X214.139Y-91.77
X216.679Y-30.23
X216.679Y-32.77
X216.679Y-89.23
X216.679Y-91.77
X219.219Y-30.23
X219.219Y-32.77
X219.219Y-89.23
X219.219Y-91.77
X221.759Y-30.23
X221.759Y-32.77
X221.759Y-89.23
X221.759Y-91.77
X224.299Y-30.23
X224.299Y-32.77
X224.299Y-89.23
X224.299Y-91.77
X226.839Y-30.23
X226.839Y-32.77
X226.839Y-89.23
X226.839Y-91.77
X229.379Y-30.23
X229.379Y-32.77
X229.379Y-89.23
X229.379Y-91.77
X231.919Y-30.23
X231.919Y-32.77
X231.919Y-89.23
X231.919Y-91.77
X234.459Y-30.23
X234.459Y-32.77
X234.459Y-89.23
X234.459Y-91.77
X236.999Y-30.23
X236.999Y-32.77
X236.999Y-89.23
X236.999Y-91.77
X239.539Y-30.23
X239.539Y-32.77
X239.539Y-89.23
X239.539Y-91.77
X242.079Y-30.23
X242.079Y-32.77
X242.079Y-89.23
X242.079Y-91.77
X244.619Y-30.23
X244.619Y-32.77
X244.619Y-89.23
X244.619Y-91.77
X247.159Y-30.23
X247.159Y-32.77
X247.159Y-89.23
X247.159Y-91.77
X249.699Y-30.23
X249.699Y-32.77
X249.699Y-89.23
X249.699Y-91.77
X252.239Y-30.23
X252.239Y-32.77
X252.239Y-89.23
X252.239Y-91.77
X254.779Y-30.23
X254.779Y-32.77
X254.779Y-89.23
X254.779Y-91.77
X257.319Y-30.23
X257.319Y-32.77
X257.319Y-89.23
X257.319Y-91.77
T5
X42.729Y-33.5
X42.729Y-92.5
X46.689Y-33.5
X46.689Y-78.5
X46.689Y-92.5
X46.689Y-137.5
X50.649Y-78.5
X50.649Y-137.5
X63.044Y-33.5
X63.044Y-92.5
X67.004Y-33.5
X67.004Y-78.5
X67.004Y-92.5
X67.004Y-137.5
X70.964Y-78.5
X70.964Y-137.5
X82.329Y-55.9
X82.329Y-114.9
X83.044Y-33.5
X83.044Y-92.5
X86.289Y-55.9
X86.289Y-114.9
X87.004Y-33.5
X87.004Y-78.5
X87.004Y-92.5
X87.004Y-137.5
X90.964Y-78.5
X90.964Y-137.5
X103.044Y-33.5
X103.044Y-92.5
X107.004Y-33.5
X107.004Y-78.5
X107.004Y-92.5
X107.004Y-137.5
X110.964Y-78.5
X110.964Y-137.5
X122.439Y-55.8
X122.439Y-114.8
X123.044Y-33.5
X123.044Y-92.5
X126.399Y-55.8
X126.399Y-114.8
X127.004Y-33.5
X127.004Y-78.5
X127.004Y-92.5
X127.004Y-137.5
X130.964Y-78.5
X130.964Y-137.5
X143.044Y-33.5
X143.044Y-92.5
X147.004Y-33.5
X147.004Y-78.5
X147.004Y-92.5
X147.004Y-137.5
X150.964Y-78.5
X150.964Y-137.5
X162.849Y-55.8
X162.849Y-114.8
X163.044Y-33.5
X163.044Y-92.5
X166.809Y-55.8
X166.809Y-114.8
X167.004Y-33.5
X167.004Y-78.5
X167.004Y-92.5
X167.004Y-137.5
X170.964Y-78.5
X170.964Y-137.5
X183.044Y-33.5
X183.044Y-92.5
X187.004Y-33.5
X187.004Y-78.5
X187.004Y-92.5
X187.004Y-137.5
X190.964Y-78.5
X190.964Y-137.5
X212.929Y-78.5
X212.929Y-137.5
X216.889Y-78.5
X216.889Y-137.5
T6
X63.569Y-54.8
X63.569Y-58.2
X63.569Y-113.8
X63.569Y-117.2
X73.489Y-54.8
X73.489Y-58.2
X73.489Y-113.8
X73.489Y-117.2
X103.679Y-54.7
X103.679Y-58.1
X103.679Y-113.7
X103.679Y-117.1
X113.599Y-54.7
X113.599Y-58.1
X113.599Y-113.7
X113.599Y-117.1
X144.089Y-54.7
X144.089Y-58.1
X144.089Y-113.7
X144.089Y-117.1
X154.009Y-54.7
X154.009Y-58.1
X154.009Y-113.7
X154.009Y-117.1
X229.329Y-76.45
X229.329Y-79.85
X229.329Y-135.45
X229.329Y-138.85
X239.249Y-76.45
X239.249Y-79.85
X239.249Y-135.45
X239.249Y-138.85
M30
