%TF.GenerationSoftware,KiCad,Pcbnew,9.0.0+dfsg-1*%
%TF.CreationDate,2025-04-06T22:27:04+01:00*%
%TF.ProjectId,panel-16,70616e65-6c2d-4313-962e-6b696361645f,rev?*%
%TF.SameCoordinates,Original*%
%TF.FileFunction,Legend,Bot*%
%TF.FilePolarity,Positive*%
%FSLAX46Y46*%
G04 Gerber Fmt 4.6, Leading zero omitted, Abs format (unit mm)*
G04 Created by KiCad (PCBNEW 9.0.0+dfsg-1) date 2025-04-06 22:27:04*
%MOMM*%
%LPD*%
G01*
G04 APERTURE LIST*
G04 Aperture macros list*
%AMRoundRect*
0 Rectangle with rounded corners*
0 $1 Rounding radius*
0 $2 $3 $4 $5 $6 $7 $8 $9 X,Y pos of 4 corners*
0 Add a 4 corners polygon primitive as box body*
4,1,4,$2,$3,$4,$5,$6,$7,$8,$9,$2,$3,0*
0 Add four circle primitives for the rounded corners*
1,1,$1+$1,$2,$3*
1,1,$1+$1,$4,$5*
1,1,$1+$1,$6,$7*
1,1,$1+$1,$8,$9*
0 Add four rect primitives between the rounded corners*
20,1,$1+$1,$2,$3,$4,$5,0*
20,1,$1+$1,$4,$5,$6,$7,0*
20,1,$1+$1,$6,$7,$8,$9,0*
20,1,$1+$1,$8,$9,$2,$3,0*%
%AMFreePoly0*
4,1,5,0.225000,-0.400000,-0.225000,-0.400000,-0.225000,0.400000,0.225000,0.400000,0.225000,-0.400000,0.225000,-0.400000,$1*%
%AMFreePoly1*
4,1,29,0.150000,1.240000,0.200000,1.240000,0.200000,-1.260000,0.150000,-1.260000,0.150000,-1.860000,-0.150000,-1.860000,-0.150000,-1.260000,-1.350000,-1.260000,-1.350000,-1.210000,-2.050000,-1.210000,-2.050000,-0.760000,-1.350000,-0.760000,-1.350000,-0.560000,-2.050000,-0.560000,-2.050000,-0.110000,-1.350000,-0.110000,-1.350000,0.090000,-2.050000,0.090000,-2.050000,0.540000,-1.350000,0.540000,
-1.350000,0.740000,-2.050000,0.740000,-2.050000,1.190000,-1.350000,1.190000,-1.350000,1.240000,-0.150000,1.240000,-0.150000,1.840000,0.150000,1.840000,0.150000,1.240000,0.150000,1.240000,$1*%
%AMFreePoly2*
4,1,27,0.269134,0.146194,0.285355,0.135355,0.296194,0.119134,0.300000,0.100000,0.300000,-0.450000,0.296194,-0.469134,0.285355,-0.485355,0.269134,-0.496194,0.250000,-0.500000,0.100000,-0.500000,0.080866,-0.496194,0.064645,-0.485355,0.053806,-0.469134,0.050000,-0.450000,0.050000,-0.150000,-0.250000,-0.150000,-0.269134,-0.146194,-0.285355,-0.135355,-0.296194,-0.119134,-0.300000,-0.100000,
-0.300000,0.100000,-0.296194,0.119134,-0.285355,0.135355,-0.269134,0.146194,-0.250000,0.150000,0.250000,0.150000,0.269134,0.146194,0.269134,0.146194,$1*%
%AMFreePoly3*
4,1,27,0.269134,0.496194,0.285355,0.485355,0.296194,0.469134,0.300000,0.450000,0.300000,-0.100000,0.296194,-0.119134,0.285355,-0.135355,0.269134,-0.146194,0.250000,-0.150000,-0.250000,-0.150000,-0.269134,-0.146194,-0.285355,-0.135355,-0.296194,-0.119134,-0.300000,-0.100000,-0.300000,0.100000,-0.296194,0.119134,-0.285355,0.135355,-0.269134,0.146194,-0.250000,0.150000,0.050000,0.150000,
0.050000,0.450000,0.053806,0.469134,0.064645,0.485355,0.080866,0.496194,0.100000,0.500000,0.250000,0.500000,0.269134,0.496194,0.269134,0.496194,$1*%
%AMFreePoly4*
4,1,27,-0.080866,0.496194,-0.064645,0.485355,-0.053806,0.469134,-0.050000,0.450000,-0.050000,0.150000,0.250000,0.150000,0.269134,0.146194,0.285355,0.135355,0.296194,0.119134,0.300000,0.100000,0.300000,-0.100000,0.296194,-0.119134,0.285355,-0.135355,0.269134,-0.146194,0.250000,-0.150000,-0.250000,-0.150000,-0.269134,-0.146194,-0.285355,-0.135355,-0.296194,-0.119134,-0.300000,-0.100000,
-0.300000,0.450000,-0.296194,0.469134,-0.285355,0.485355,-0.269134,0.496194,-0.250000,0.500000,-0.100000,0.500000,-0.080866,0.496194,-0.080866,0.496194,$1*%
%AMFreePoly5*
4,1,27,0.269134,0.146194,0.285355,0.135355,0.296194,0.119134,0.300000,0.100000,0.300000,-0.100000,0.296194,-0.119134,0.285355,-0.135355,0.269134,-0.146194,0.250000,-0.150000,-0.050000,-0.150000,-0.050000,-0.450000,-0.053806,-0.469134,-0.064645,-0.485355,-0.080866,-0.496194,-0.100000,-0.500000,-0.250000,-0.500000,-0.269134,-0.496194,-0.285355,-0.485355,-0.296194,-0.469134,-0.300000,-0.450000,
-0.300000,0.100000,-0.296194,0.119134,-0.285355,0.135355,-0.269134,0.146194,-0.250000,0.150000,0.250000,0.150000,0.269134,0.146194,0.269134,0.146194,$1*%
G04 Aperture macros list end*
%ADD10C,0.120000*%
%ADD11C,0.150000*%
%ADD12C,0.300000*%
%ADD13RoundRect,0.250001X-1.099999X-1.099999X1.099999X-1.099999X1.099999X1.099999X-1.099999X1.099999X0*%
%ADD14C,2.700000*%
%ADD15RoundRect,0.250001X1.099999X1.099999X-1.099999X1.099999X-1.099999X-1.099999X1.099999X-1.099999X0*%
%ADD16R,1.727200X1.727200*%
%ADD17O,1.727200X1.727200*%
%ADD18C,2.750000*%
%ADD19R,1.700000X1.700000*%
%ADD20O,1.700000X1.700000*%
%ADD21C,2.780000*%
%ADD22C,1.500000*%
%ADD23FreePoly0,180.000000*%
%ADD24FreePoly1,90.000000*%
%ADD25RoundRect,0.200000X-0.200000X-0.275000X0.200000X-0.275000X0.200000X0.275000X-0.200000X0.275000X0*%
%ADD26RoundRect,0.250000X-0.712500X-2.475000X0.712500X-2.475000X0.712500X2.475000X-0.712500X2.475000X0*%
%ADD27RoundRect,0.200000X-0.275000X0.200000X-0.275000X-0.200000X0.275000X-0.200000X0.275000X0.200000X0*%
%ADD28RoundRect,0.200000X0.200000X0.275000X-0.200000X0.275000X-0.200000X-0.275000X0.200000X-0.275000X0*%
%ADD29RoundRect,0.150000X-0.150000X0.587500X-0.150000X-0.587500X0.150000X-0.587500X0.150000X0.587500X0*%
%ADD30RoundRect,0.150000X0.587500X0.150000X-0.587500X0.150000X-0.587500X-0.150000X0.587500X-0.150000X0*%
%ADD31R,1.100000X1.100000*%
%ADD32FreePoly0,0.000000*%
%ADD33FreePoly1,270.000000*%
%ADD34RoundRect,0.150000X0.150000X-0.587500X0.150000X0.587500X-0.150000X0.587500X-0.150000X-0.587500X0*%
%ADD35R,0.600000X0.700000*%
%ADD36RoundRect,0.200000X0.275000X-0.200000X0.275000X0.200000X-0.275000X0.200000X-0.275000X-0.200000X0*%
%ADD37RoundRect,0.100000X0.225000X0.100000X-0.225000X0.100000X-0.225000X-0.100000X0.225000X-0.100000X0*%
%ADD38RoundRect,0.250000X0.650000X-0.325000X0.650000X0.325000X-0.650000X0.325000X-0.650000X-0.325000X0*%
%ADD39RoundRect,0.250000X0.712500X2.475000X-0.712500X2.475000X-0.712500X-2.475000X0.712500X-2.475000X0*%
%ADD40RoundRect,0.100000X-0.225000X-0.100000X0.225000X-0.100000X0.225000X0.100000X-0.225000X0.100000X0*%
%ADD41R,0.700000X0.600000*%
%ADD42C,2.000000*%
%ADD43R,2.500000X2.300000*%
%ADD44R,2.300000X2.500000*%
%ADD45RoundRect,0.250000X-0.325000X-0.650000X0.325000X-0.650000X0.325000X0.650000X-0.325000X0.650000X0*%
%ADD46RoundRect,0.100000X0.100000X-0.225000X0.100000X0.225000X-0.100000X0.225000X-0.100000X-0.225000X0*%
%ADD47FreePoly2,90.000000*%
%ADD48RoundRect,0.050000X0.075000X-0.250000X0.075000X0.250000X-0.075000X0.250000X-0.075000X-0.250000X0*%
%ADD49FreePoly3,90.000000*%
%ADD50RoundRect,0.050000X1.150000X-0.100000X1.150000X0.100000X-1.150000X0.100000X-1.150000X-0.100000X0*%
%ADD51FreePoly4,90.000000*%
%ADD52FreePoly5,90.000000*%
%ADD53RoundRect,0.225000X-0.225000X-0.250000X0.225000X-0.250000X0.225000X0.250000X-0.225000X0.250000X0*%
%ADD54RoundRect,0.250000X-0.650000X0.325000X-0.650000X-0.325000X0.650000X-0.325000X0.650000X0.325000X0*%
%ADD55R,4.860000X3.360000*%
%ADD56R,1.400000X1.390000*%
%ADD57RoundRect,0.140000X0.170000X-0.140000X0.170000X0.140000X-0.170000X0.140000X-0.170000X-0.140000X0*%
G04 APERTURE END LIST*
D10*
X202630074Y-35057142D02*
X201880074Y-35057142D01*
X201880074Y-35057142D02*
X202415788Y-35307142D01*
X202415788Y-35307142D02*
X201880074Y-35557142D01*
X201880074Y-35557142D02*
X202630074Y-35557142D01*
X201951502Y-35878571D02*
X201915788Y-35914285D01*
X201915788Y-35914285D02*
X201880074Y-35985714D01*
X201880074Y-35985714D02*
X201880074Y-36164285D01*
X201880074Y-36164285D02*
X201915788Y-36235714D01*
X201915788Y-36235714D02*
X201951502Y-36271428D01*
X201951502Y-36271428D02*
X202022931Y-36307142D01*
X202022931Y-36307142D02*
X202094360Y-36307142D01*
X202094360Y-36307142D02*
X202201502Y-36271428D01*
X202201502Y-36271428D02*
X202630074Y-35842856D01*
X202630074Y-35842856D02*
X202630074Y-36307142D01*
X202558645Y-36628571D02*
X202594360Y-36664285D01*
X202594360Y-36664285D02*
X202630074Y-36628571D01*
X202630074Y-36628571D02*
X202594360Y-36592857D01*
X202594360Y-36592857D02*
X202558645Y-36628571D01*
X202558645Y-36628571D02*
X202630074Y-36628571D01*
X201880074Y-37342857D02*
X201880074Y-36985714D01*
X201880074Y-36985714D02*
X202237217Y-36950000D01*
X202237217Y-36950000D02*
X202201502Y-36985714D01*
X202201502Y-36985714D02*
X202165788Y-37057143D01*
X202165788Y-37057143D02*
X202165788Y-37235714D01*
X202165788Y-37235714D02*
X202201502Y-37307143D01*
X202201502Y-37307143D02*
X202237217Y-37342857D01*
X202237217Y-37342857D02*
X202308645Y-37378571D01*
X202308645Y-37378571D02*
X202487217Y-37378571D01*
X202487217Y-37378571D02*
X202558645Y-37342857D01*
X202558645Y-37342857D02*
X202594360Y-37307143D01*
X202594360Y-37307143D02*
X202630074Y-37235714D01*
X202630074Y-37235714D02*
X202630074Y-37057143D01*
X202630074Y-37057143D02*
X202594360Y-36985714D01*
X202594360Y-36985714D02*
X202558645Y-36950000D01*
X263332207Y-136640724D02*
X263332207Y-135890724D01*
X263332207Y-135890724D02*
X263082207Y-136426438D01*
X263082207Y-136426438D02*
X262832207Y-135890724D01*
X262832207Y-135890724D02*
X262832207Y-136640724D01*
X262510778Y-135962152D02*
X262475064Y-135926438D01*
X262475064Y-135926438D02*
X262403636Y-135890724D01*
X262403636Y-135890724D02*
X262225064Y-135890724D01*
X262225064Y-135890724D02*
X262153636Y-135926438D01*
X262153636Y-135926438D02*
X262117921Y-135962152D01*
X262117921Y-135962152D02*
X262082207Y-136033581D01*
X262082207Y-136033581D02*
X262082207Y-136105010D01*
X262082207Y-136105010D02*
X262117921Y-136212152D01*
X262117921Y-136212152D02*
X262546493Y-136640724D01*
X262546493Y-136640724D02*
X262082207Y-136640724D01*
X261760778Y-136569295D02*
X261725064Y-136605010D01*
X261725064Y-136605010D02*
X261760778Y-136640724D01*
X261760778Y-136640724D02*
X261796492Y-136605010D01*
X261796492Y-136605010D02*
X261760778Y-136569295D01*
X261760778Y-136569295D02*
X261760778Y-136640724D01*
X261046492Y-135890724D02*
X261403635Y-135890724D01*
X261403635Y-135890724D02*
X261439349Y-136247867D01*
X261439349Y-136247867D02*
X261403635Y-136212152D01*
X261403635Y-136212152D02*
X261332207Y-136176438D01*
X261332207Y-136176438D02*
X261153635Y-136176438D01*
X261153635Y-136176438D02*
X261082207Y-136212152D01*
X261082207Y-136212152D02*
X261046492Y-136247867D01*
X261046492Y-136247867D02*
X261010778Y-136319295D01*
X261010778Y-136319295D02*
X261010778Y-136497867D01*
X261010778Y-136497867D02*
X261046492Y-136569295D01*
X261046492Y-136569295D02*
X261082207Y-136605010D01*
X261082207Y-136605010D02*
X261153635Y-136640724D01*
X261153635Y-136640724D02*
X261332207Y-136640724D01*
X261332207Y-136640724D02*
X261403635Y-136605010D01*
X261403635Y-136605010D02*
X261439349Y-136569295D01*
X263232207Y-35840724D02*
X263232207Y-35090724D01*
X263232207Y-35090724D02*
X262982207Y-35626438D01*
X262982207Y-35626438D02*
X262732207Y-35090724D01*
X262732207Y-35090724D02*
X262732207Y-35840724D01*
X262410778Y-35162152D02*
X262375064Y-35126438D01*
X262375064Y-35126438D02*
X262303636Y-35090724D01*
X262303636Y-35090724D02*
X262125064Y-35090724D01*
X262125064Y-35090724D02*
X262053636Y-35126438D01*
X262053636Y-35126438D02*
X262017921Y-35162152D01*
X262017921Y-35162152D02*
X261982207Y-35233581D01*
X261982207Y-35233581D02*
X261982207Y-35305010D01*
X261982207Y-35305010D02*
X262017921Y-35412152D01*
X262017921Y-35412152D02*
X262446493Y-35840724D01*
X262446493Y-35840724D02*
X261982207Y-35840724D01*
X261660778Y-35769295D02*
X261625064Y-35805010D01*
X261625064Y-35805010D02*
X261660778Y-35840724D01*
X261660778Y-35840724D02*
X261696492Y-35805010D01*
X261696492Y-35805010D02*
X261660778Y-35769295D01*
X261660778Y-35769295D02*
X261660778Y-35840724D01*
X260946492Y-35090724D02*
X261303635Y-35090724D01*
X261303635Y-35090724D02*
X261339349Y-35447867D01*
X261339349Y-35447867D02*
X261303635Y-35412152D01*
X261303635Y-35412152D02*
X261232207Y-35376438D01*
X261232207Y-35376438D02*
X261053635Y-35376438D01*
X261053635Y-35376438D02*
X260982207Y-35412152D01*
X260982207Y-35412152D02*
X260946492Y-35447867D01*
X260946492Y-35447867D02*
X260910778Y-35519295D01*
X260910778Y-35519295D02*
X260910778Y-35697867D01*
X260910778Y-35697867D02*
X260946492Y-35769295D01*
X260946492Y-35769295D02*
X260982207Y-35805010D01*
X260982207Y-35805010D02*
X261053635Y-35840724D01*
X261053635Y-35840724D02*
X261232207Y-35840724D01*
X261232207Y-35840724D02*
X261303635Y-35805010D01*
X261303635Y-35805010D02*
X261339349Y-35769295D01*
X202630074Y-94057142D02*
X201880074Y-94057142D01*
X201880074Y-94057142D02*
X202415788Y-94307142D01*
X202415788Y-94307142D02*
X201880074Y-94557142D01*
X201880074Y-94557142D02*
X202630074Y-94557142D01*
X201951502Y-94878571D02*
X201915788Y-94914285D01*
X201915788Y-94914285D02*
X201880074Y-94985714D01*
X201880074Y-94985714D02*
X201880074Y-95164285D01*
X201880074Y-95164285D02*
X201915788Y-95235714D01*
X201915788Y-95235714D02*
X201951502Y-95271428D01*
X201951502Y-95271428D02*
X202022931Y-95307142D01*
X202022931Y-95307142D02*
X202094360Y-95307142D01*
X202094360Y-95307142D02*
X202201502Y-95271428D01*
X202201502Y-95271428D02*
X202630074Y-94842856D01*
X202630074Y-94842856D02*
X202630074Y-95307142D01*
X202558645Y-95628571D02*
X202594360Y-95664285D01*
X202594360Y-95664285D02*
X202630074Y-95628571D01*
X202630074Y-95628571D02*
X202594360Y-95592857D01*
X202594360Y-95592857D02*
X202558645Y-95628571D01*
X202558645Y-95628571D02*
X202630074Y-95628571D01*
X201880074Y-96342857D02*
X201880074Y-95985714D01*
X201880074Y-95985714D02*
X202237217Y-95950000D01*
X202237217Y-95950000D02*
X202201502Y-95985714D01*
X202201502Y-95985714D02*
X202165788Y-96057143D01*
X202165788Y-96057143D02*
X202165788Y-96235714D01*
X202165788Y-96235714D02*
X202201502Y-96307143D01*
X202201502Y-96307143D02*
X202237217Y-96342857D01*
X202237217Y-96342857D02*
X202308645Y-96378571D01*
X202308645Y-96378571D02*
X202487217Y-96378571D01*
X202487217Y-96378571D02*
X202558645Y-96342857D01*
X202558645Y-96342857D02*
X202594360Y-96307143D01*
X202594360Y-96307143D02*
X202630074Y-96235714D01*
X202630074Y-96235714D02*
X202630074Y-96057143D01*
X202630074Y-96057143D02*
X202594360Y-95985714D01*
X202594360Y-95985714D02*
X202558645Y-95950000D01*
X263232207Y-94840724D02*
X263232207Y-94090724D01*
X263232207Y-94090724D02*
X262982207Y-94626438D01*
X262982207Y-94626438D02*
X262732207Y-94090724D01*
X262732207Y-94090724D02*
X262732207Y-94840724D01*
X262410778Y-94162152D02*
X262375064Y-94126438D01*
X262375064Y-94126438D02*
X262303636Y-94090724D01*
X262303636Y-94090724D02*
X262125064Y-94090724D01*
X262125064Y-94090724D02*
X262053636Y-94126438D01*
X262053636Y-94126438D02*
X262017921Y-94162152D01*
X262017921Y-94162152D02*
X261982207Y-94233581D01*
X261982207Y-94233581D02*
X261982207Y-94305010D01*
X261982207Y-94305010D02*
X262017921Y-94412152D01*
X262017921Y-94412152D02*
X262446493Y-94840724D01*
X262446493Y-94840724D02*
X261982207Y-94840724D01*
X261660778Y-94769295D02*
X261625064Y-94805010D01*
X261625064Y-94805010D02*
X261660778Y-94840724D01*
X261660778Y-94840724D02*
X261696492Y-94805010D01*
X261696492Y-94805010D02*
X261660778Y-94769295D01*
X261660778Y-94769295D02*
X261660778Y-94840724D01*
X260946492Y-94090724D02*
X261303635Y-94090724D01*
X261303635Y-94090724D02*
X261339349Y-94447867D01*
X261339349Y-94447867D02*
X261303635Y-94412152D01*
X261303635Y-94412152D02*
X261232207Y-94376438D01*
X261232207Y-94376438D02*
X261053635Y-94376438D01*
X261053635Y-94376438D02*
X260982207Y-94412152D01*
X260982207Y-94412152D02*
X260946492Y-94447867D01*
X260946492Y-94447867D02*
X260910778Y-94519295D01*
X260910778Y-94519295D02*
X260910778Y-94697867D01*
X260910778Y-94697867D02*
X260946492Y-94769295D01*
X260946492Y-94769295D02*
X260982207Y-94805010D01*
X260982207Y-94805010D02*
X261053635Y-94840724D01*
X261053635Y-94840724D02*
X261232207Y-94840724D01*
X261232207Y-94840724D02*
X261303635Y-94805010D01*
X261303635Y-94805010D02*
X261339349Y-94769295D01*
X214975063Y-50055010D02*
X214403635Y-50055010D01*
X214689349Y-50340724D02*
X214689349Y-49769295D01*
X263332207Y-77640724D02*
X263332207Y-76890724D01*
X263332207Y-76890724D02*
X263082207Y-77426438D01*
X263082207Y-77426438D02*
X262832207Y-76890724D01*
X262832207Y-76890724D02*
X262832207Y-77640724D01*
X262510778Y-76962152D02*
X262475064Y-76926438D01*
X262475064Y-76926438D02*
X262403636Y-76890724D01*
X262403636Y-76890724D02*
X262225064Y-76890724D01*
X262225064Y-76890724D02*
X262153636Y-76926438D01*
X262153636Y-76926438D02*
X262117921Y-76962152D01*
X262117921Y-76962152D02*
X262082207Y-77033581D01*
X262082207Y-77033581D02*
X262082207Y-77105010D01*
X262082207Y-77105010D02*
X262117921Y-77212152D01*
X262117921Y-77212152D02*
X262546493Y-77640724D01*
X262546493Y-77640724D02*
X262082207Y-77640724D01*
X261760778Y-77569295D02*
X261725064Y-77605010D01*
X261725064Y-77605010D02*
X261760778Y-77640724D01*
X261760778Y-77640724D02*
X261796492Y-77605010D01*
X261796492Y-77605010D02*
X261760778Y-77569295D01*
X261760778Y-77569295D02*
X261760778Y-77640724D01*
X261046492Y-76890724D02*
X261403635Y-76890724D01*
X261403635Y-76890724D02*
X261439349Y-77247867D01*
X261439349Y-77247867D02*
X261403635Y-77212152D01*
X261403635Y-77212152D02*
X261332207Y-77176438D01*
X261332207Y-77176438D02*
X261153635Y-77176438D01*
X261153635Y-77176438D02*
X261082207Y-77212152D01*
X261082207Y-77212152D02*
X261046492Y-77247867D01*
X261046492Y-77247867D02*
X261010778Y-77319295D01*
X261010778Y-77319295D02*
X261010778Y-77497867D01*
X261010778Y-77497867D02*
X261046492Y-77569295D01*
X261046492Y-77569295D02*
X261082207Y-77605010D01*
X261082207Y-77605010D02*
X261153635Y-77640724D01*
X261153635Y-77640724D02*
X261332207Y-77640724D01*
X261332207Y-77640724D02*
X261403635Y-77605010D01*
X261403635Y-77605010D02*
X261439349Y-77569295D01*
X209432207Y-82790724D02*
X209432207Y-82040724D01*
X209432207Y-82040724D02*
X209182207Y-82576438D01*
X209182207Y-82576438D02*
X208932207Y-82040724D01*
X208932207Y-82040724D02*
X208932207Y-82790724D01*
X208610778Y-82112152D02*
X208575064Y-82076438D01*
X208575064Y-82076438D02*
X208503636Y-82040724D01*
X208503636Y-82040724D02*
X208325064Y-82040724D01*
X208325064Y-82040724D02*
X208253636Y-82076438D01*
X208253636Y-82076438D02*
X208217921Y-82112152D01*
X208217921Y-82112152D02*
X208182207Y-82183581D01*
X208182207Y-82183581D02*
X208182207Y-82255010D01*
X208182207Y-82255010D02*
X208217921Y-82362152D01*
X208217921Y-82362152D02*
X208646493Y-82790724D01*
X208646493Y-82790724D02*
X208182207Y-82790724D01*
X207860778Y-82719295D02*
X207825064Y-82755010D01*
X207825064Y-82755010D02*
X207860778Y-82790724D01*
X207860778Y-82790724D02*
X207896492Y-82755010D01*
X207896492Y-82755010D02*
X207860778Y-82719295D01*
X207860778Y-82719295D02*
X207860778Y-82790724D01*
X207146492Y-82040724D02*
X207503635Y-82040724D01*
X207503635Y-82040724D02*
X207539349Y-82397867D01*
X207539349Y-82397867D02*
X207503635Y-82362152D01*
X207503635Y-82362152D02*
X207432207Y-82326438D01*
X207432207Y-82326438D02*
X207253635Y-82326438D01*
X207253635Y-82326438D02*
X207182207Y-82362152D01*
X207182207Y-82362152D02*
X207146492Y-82397867D01*
X207146492Y-82397867D02*
X207110778Y-82469295D01*
X207110778Y-82469295D02*
X207110778Y-82647867D01*
X207110778Y-82647867D02*
X207146492Y-82719295D01*
X207146492Y-82719295D02*
X207182207Y-82755010D01*
X207182207Y-82755010D02*
X207253635Y-82790724D01*
X207253635Y-82790724D02*
X207432207Y-82790724D01*
X207432207Y-82790724D02*
X207503635Y-82755010D01*
X207503635Y-82755010D02*
X207539349Y-82719295D01*
X209432207Y-141790724D02*
X209432207Y-141040724D01*
X209432207Y-141040724D02*
X209182207Y-141576438D01*
X209182207Y-141576438D02*
X208932207Y-141040724D01*
X208932207Y-141040724D02*
X208932207Y-141790724D01*
X208610778Y-141112152D02*
X208575064Y-141076438D01*
X208575064Y-141076438D02*
X208503636Y-141040724D01*
X208503636Y-141040724D02*
X208325064Y-141040724D01*
X208325064Y-141040724D02*
X208253636Y-141076438D01*
X208253636Y-141076438D02*
X208217921Y-141112152D01*
X208217921Y-141112152D02*
X208182207Y-141183581D01*
X208182207Y-141183581D02*
X208182207Y-141255010D01*
X208182207Y-141255010D02*
X208217921Y-141362152D01*
X208217921Y-141362152D02*
X208646493Y-141790724D01*
X208646493Y-141790724D02*
X208182207Y-141790724D01*
X207860778Y-141719295D02*
X207825064Y-141755010D01*
X207825064Y-141755010D02*
X207860778Y-141790724D01*
X207860778Y-141790724D02*
X207896492Y-141755010D01*
X207896492Y-141755010D02*
X207860778Y-141719295D01*
X207860778Y-141719295D02*
X207860778Y-141790724D01*
X207146492Y-141040724D02*
X207503635Y-141040724D01*
X207503635Y-141040724D02*
X207539349Y-141397867D01*
X207539349Y-141397867D02*
X207503635Y-141362152D01*
X207503635Y-141362152D02*
X207432207Y-141326438D01*
X207432207Y-141326438D02*
X207253635Y-141326438D01*
X207253635Y-141326438D02*
X207182207Y-141362152D01*
X207182207Y-141362152D02*
X207146492Y-141397867D01*
X207146492Y-141397867D02*
X207110778Y-141469295D01*
X207110778Y-141469295D02*
X207110778Y-141647867D01*
X207110778Y-141647867D02*
X207146492Y-141719295D01*
X207146492Y-141719295D02*
X207182207Y-141755010D01*
X207182207Y-141755010D02*
X207253635Y-141790724D01*
X207253635Y-141790724D02*
X207432207Y-141790724D01*
X207432207Y-141790724D02*
X207503635Y-141755010D01*
X207503635Y-141755010D02*
X207539349Y-141719295D01*
X214975063Y-109055010D02*
X214403635Y-109055010D01*
X214689349Y-109340724D02*
X214689349Y-108769295D01*
D11*
%TO.C,Q34*%
X105874350Y-110787500D02*
X105874350Y-111237500D01*
X106374350Y-110787500D02*
X105874350Y-110787500D01*
D10*
%TO.C,R140*%
X185009586Y-108527500D02*
X185484102Y-108527500D01*
X185009586Y-109572500D02*
X185484102Y-109572500D01*
%TO.C,R72*%
X90724344Y-32012742D02*
X90724344Y-32487258D01*
X91769344Y-32012742D02*
X91769344Y-32487258D01*
%TO.C,R142*%
X190724344Y-32012742D02*
X190724344Y-32487258D01*
X191769344Y-32012742D02*
X191769344Y-32487258D01*
%TO.C,R13*%
X63449102Y-73627500D02*
X62974586Y-73627500D01*
X63449102Y-74672500D02*
X62974586Y-74672500D01*
%TO.C,R42*%
X209016850Y-44562742D02*
X209016850Y-45037258D01*
X210061850Y-44562742D02*
X210061850Y-45037258D01*
%TO.C,U9*%
X216776850Y-103740000D02*
X217426850Y-103740000D01*
X216776850Y-106860000D02*
X217426850Y-106860000D01*
X218076850Y-103740000D02*
X217426850Y-103740000D01*
X218076850Y-106860000D02*
X217426850Y-106860000D01*
X218589350Y-103790000D02*
X218349350Y-103460000D01*
X218829350Y-103460000D01*
X218589350Y-103790000D01*
G36*
X218589350Y-103790000D02*
G01*
X218349350Y-103460000D01*
X218829350Y-103460000D01*
X218589350Y-103790000D01*
G37*
%TO.C,R81*%
X110559586Y-97827500D02*
X111034102Y-97827500D01*
X110559586Y-98872500D02*
X111034102Y-98872500D01*
%TO.C,D61*%
X114311844Y-68950000D02*
X114311844Y-72800000D01*
X114311844Y-68950000D02*
X116311844Y-68950000D01*
X114311844Y-69750000D02*
X116311844Y-69750000D01*
X116311844Y-68950000D02*
X116311844Y-72800000D01*
%TO.C,R52*%
X88999102Y-120427500D02*
X88524586Y-120427500D01*
X88999102Y-121472500D02*
X88524586Y-121472500D01*
%TO.C,R97*%
X132426608Y-108477500D02*
X131952092Y-108477500D01*
X132426608Y-109522500D02*
X131952092Y-109522500D01*
D11*
%TO.C,Q17*%
X102746844Y-110050000D02*
X103246844Y-110050000D01*
X103246844Y-110050000D02*
X103246844Y-109600000D01*
D10*
%TO.C,D75*%
X134311844Y-68950000D02*
X134311844Y-72800000D01*
X134311844Y-68950000D02*
X136311844Y-68950000D01*
X134311844Y-69750000D02*
X136311844Y-69750000D01*
X136311844Y-68950000D02*
X136311844Y-72800000D01*
%TO.C,D74*%
X134261844Y-123450000D02*
X134261844Y-127300000D01*
X134261844Y-123450000D02*
X136261844Y-123450000D01*
X134261844Y-124250000D02*
X136261844Y-124250000D01*
X136261844Y-123450000D02*
X136261844Y-127300000D01*
%TO.C,R145*%
X245246850Y-113462742D02*
X245246850Y-113937258D01*
X246291850Y-113462742D02*
X246291850Y-113937258D01*
%TO.C,R104*%
X141752092Y-61477500D02*
X142226608Y-61477500D01*
X141752092Y-62522500D02*
X142226608Y-62522500D01*
D11*
%TO.C,Q21*%
X122746844Y-51050000D02*
X123246844Y-51050000D01*
X123246844Y-51050000D02*
X123246844Y-50600000D01*
D10*
%TO.C,D70*%
X122561844Y-65950000D02*
X122561844Y-69800000D01*
X122561844Y-65950000D02*
X124561844Y-65950000D01*
X122561844Y-66750000D02*
X124561844Y-66750000D01*
X124561844Y-65950000D02*
X124561844Y-69800000D01*
%TO.C,R85*%
X105484102Y-105327500D02*
X105009586Y-105327500D01*
X105484102Y-106372500D02*
X105009586Y-106372500D01*
%TO.C,D47*%
X62261844Y-71750000D02*
X62261844Y-70550000D01*
X62761844Y-71750000D02*
X62761844Y-70550000D01*
X64111844Y-70550000D02*
X62261844Y-70550000D01*
X64111844Y-71750000D02*
X62261844Y-71750000D01*
%TO.C,R131*%
X179589344Y-78187258D02*
X179589344Y-77712742D01*
X180634344Y-78187258D02*
X180634344Y-77712742D01*
%TO.C,R52*%
X88999102Y-61427500D02*
X88524586Y-61427500D01*
X88999102Y-62472500D02*
X88524586Y-62472500D01*
%TO.C,R119*%
X168999102Y-61427500D02*
X168524586Y-61427500D01*
X168999102Y-62472500D02*
X168524586Y-62472500D01*
%TO.C,D25*%
X82561844Y-65950000D02*
X82561844Y-69800000D01*
X82561844Y-65950000D02*
X84561844Y-65950000D01*
X82561844Y-66750000D02*
X84561844Y-66750000D01*
X84561844Y-65950000D02*
X84561844Y-69800000D01*
%TO.C,R53*%
X42659592Y-131127500D02*
X43134108Y-131127500D01*
X42659592Y-132172500D02*
X43134108Y-132172500D01*
%TO.C,R80*%
X110559586Y-96327500D02*
X111034102Y-96327500D01*
X110559586Y-97372500D02*
X111034102Y-97372500D01*
%TO.C,R41*%
X213976608Y-44827500D02*
X213502092Y-44827500D01*
X213976608Y-45872500D02*
X213502092Y-45872500D01*
%TO.C,D77*%
X129446844Y-105050000D02*
X129446844Y-101200000D01*
X131446844Y-104250000D02*
X129446844Y-104250000D01*
X131446844Y-105050000D02*
X129446844Y-105050000D01*
X131446844Y-105050000D02*
X131446844Y-101200000D01*
%TO.C,R31*%
X227646850Y-54462742D02*
X227646850Y-54937258D01*
X228691850Y-54462742D02*
X228691850Y-54937258D01*
%TO.C,R51*%
X81552092Y-61477500D02*
X82026608Y-61477500D01*
X81552092Y-62522500D02*
X82026608Y-62522500D01*
%TO.C,R5*%
X50409350Y-91012742D02*
X50409350Y-91487258D01*
X51454350Y-91012742D02*
X51454350Y-91487258D01*
%TO.C,D28*%
X94311844Y-127950000D02*
X94311844Y-131800000D01*
X94311844Y-127950000D02*
X96311844Y-127950000D01*
X94311844Y-128750000D02*
X96311844Y-128750000D01*
X96311844Y-127950000D02*
X96311844Y-131800000D01*
%TO.C,R116*%
X163449102Y-131127500D02*
X162974586Y-131127500D01*
X163449102Y-132172500D02*
X162974586Y-132172500D01*
%TO.C,D117*%
X194311844Y-127950000D02*
X194311844Y-131800000D01*
X194311844Y-127950000D02*
X196311844Y-127950000D01*
X194311844Y-128750000D02*
X196311844Y-128750000D01*
X196311844Y-127950000D02*
X196311844Y-131800000D01*
%TO.C,R55*%
X211806850Y-127112742D02*
X211806850Y-127587258D01*
X212851850Y-127112742D02*
X212851850Y-127587258D01*
%TO.C,D81*%
X117746844Y-47550000D02*
X117746844Y-43700000D01*
X119746844Y-46750000D02*
X117746844Y-46750000D01*
X119746844Y-47550000D02*
X117746844Y-47550000D01*
X119746844Y-47550000D02*
X119746844Y-43700000D01*
%TO.C,U10*%
X72746844Y-48960000D02*
X71346844Y-48960000D01*
X72756844Y-46640000D02*
X71346844Y-46640000D01*
X73126844Y-46690000D02*
X72886844Y-46360000D01*
X73366844Y-46360000D01*
X73126844Y-46690000D01*
G36*
X73126844Y-46690000D02*
G01*
X72886844Y-46360000D01*
X73366844Y-46360000D01*
X73126844Y-46690000D01*
G37*
%TO.C,R111*%
X152426608Y-49477500D02*
X151952092Y-49477500D01*
X152426608Y-50522500D02*
X151952092Y-50522500D01*
%TO.C,R98*%
X125009586Y-108527500D02*
X125484102Y-108527500D01*
X125009586Y-109572500D02*
X125484102Y-109572500D01*
%TO.C,R51*%
X81552092Y-120477500D02*
X82026608Y-120477500D01*
X81552092Y-121522500D02*
X82026608Y-121522500D01*
%TO.C,R14*%
X61652092Y-61477500D02*
X62126608Y-61477500D01*
X61652092Y-62522500D02*
X62126608Y-62522500D01*
D11*
%TO.C,Q19*%
X130761844Y-60950000D02*
X130761844Y-61400000D01*
X131261844Y-60950000D02*
X130761844Y-60950000D01*
%TO.C,Q31*%
X190761844Y-60950000D02*
X190761844Y-61400000D01*
X191261844Y-60950000D02*
X190761844Y-60950000D01*
X190761844Y-119950000D02*
X190761844Y-120400000D01*
X191261844Y-119950000D02*
X190761844Y-119950000D01*
D10*
%TO.C,D102*%
X174261844Y-64450000D02*
X174261844Y-68300000D01*
X174261844Y-64450000D02*
X176261844Y-64450000D01*
X174261844Y-65250000D02*
X176261844Y-65250000D01*
X176261844Y-64450000D02*
X176261844Y-68300000D01*
%TO.C,R37*%
X256546850Y-54462742D02*
X256546850Y-54937258D01*
X257591850Y-54462742D02*
X257591850Y-54937258D01*
%TO.C,D82*%
X117696844Y-43050000D02*
X117696844Y-39200000D01*
X119696844Y-42250000D02*
X117696844Y-42250000D01*
X119696844Y-43050000D02*
X117696844Y-43050000D01*
X119696844Y-43050000D02*
X119696844Y-39200000D01*
%TO.C,R115*%
X163449102Y-73627500D02*
X162974586Y-73627500D01*
X163449102Y-74672500D02*
X162974586Y-74672500D01*
%TO.C,R6*%
X48209592Y-123627500D02*
X48684108Y-123627500D01*
X48209592Y-124672500D02*
X48684108Y-124672500D01*
%TO.C,D116*%
X194261844Y-123450000D02*
X194261844Y-127300000D01*
X194261844Y-123450000D02*
X196261844Y-123450000D01*
X194261844Y-124250000D02*
X196261844Y-124250000D01*
X196261844Y-123450000D02*
X196261844Y-127300000D01*
%TO.C,R8*%
X68552092Y-117577500D02*
X69026608Y-117577500D01*
X68552092Y-118622500D02*
X69026608Y-118622500D01*
%TO.C,R107*%
X142239344Y-138987258D02*
X142239344Y-138512742D01*
X143284344Y-138987258D02*
X143284344Y-138512742D01*
%TO.C,R50*%
X83449102Y-132627500D02*
X82974586Y-132627500D01*
X83449102Y-133672500D02*
X82974586Y-133672500D01*
%TO.C,U13*%
X101251844Y-65360000D02*
X102661844Y-65360000D01*
X101261844Y-63040000D02*
X102661844Y-63040000D01*
X101121844Y-65640000D02*
X100641844Y-65640000D01*
X100881844Y-65310000D01*
X101121844Y-65640000D01*
G36*
X101121844Y-65640000D02*
G01*
X100641844Y-65640000D01*
X100881844Y-65310000D01*
X101121844Y-65640000D01*
G37*
%TO.C,R116*%
X163449102Y-72127500D02*
X162974586Y-72127500D01*
X163449102Y-73172500D02*
X162974586Y-73172500D01*
%TO.C,D6*%
X67739350Y-117200000D02*
X67739350Y-116000000D01*
X68239350Y-117200000D02*
X68239350Y-116000000D01*
X69589350Y-116000000D02*
X67739350Y-116000000D01*
X69589350Y-117200000D02*
X67739350Y-117200000D01*
%TO.C,R19*%
X72426608Y-49477500D02*
X71952092Y-49477500D01*
X72426608Y-50522500D02*
X71952092Y-50522500D01*
X72426608Y-108477500D02*
X71952092Y-108477500D01*
X72426608Y-109522500D02*
X71952092Y-109522500D01*
%TO.C,R74*%
X103449102Y-72127500D02*
X102974586Y-72127500D01*
X103449102Y-73172500D02*
X102974586Y-73172500D01*
%TO.C,D102*%
X174261844Y-123450000D02*
X174261844Y-127300000D01*
X174261844Y-123450000D02*
X176261844Y-123450000D01*
X174261844Y-124250000D02*
X176261844Y-124250000D01*
X176261844Y-123450000D02*
X176261844Y-127300000D01*
%TO.C,R112*%
X145009586Y-49527500D02*
X145484102Y-49527500D01*
X145009586Y-50572500D02*
X145484102Y-50572500D01*
D11*
%TO.C,Q25*%
X142746844Y-51050000D02*
X143246844Y-51050000D01*
X143246844Y-51050000D02*
X143246844Y-50600000D01*
D10*
%TO.C,R23*%
X181702092Y-57177500D02*
X182176608Y-57177500D01*
X181702092Y-58222500D02*
X182176608Y-58222500D01*
%TO.C,R79*%
X102239344Y-79987258D02*
X102239344Y-79512742D01*
X103284344Y-79987258D02*
X103284344Y-79512742D01*
%TO.C,R57*%
X71034102Y-38827500D02*
X70559586Y-38827500D01*
X71034102Y-39872500D02*
X70559586Y-39872500D01*
%TO.C,R62*%
X83449102Y-72127500D02*
X82974586Y-72127500D01*
X83449102Y-73172500D02*
X82974586Y-73172500D01*
D11*
%TO.C,Q11*%
X90761844Y-60950000D02*
X90761844Y-61400000D01*
X91261844Y-60950000D02*
X90761844Y-60950000D01*
D10*
%TO.C,R137*%
X190559586Y-97827500D02*
X191034102Y-97827500D01*
X190559586Y-98872500D02*
X191034102Y-98872500D01*
%TO.C,R47*%
X216231850Y-127337742D02*
X216231850Y-127812258D01*
X217276850Y-127337742D02*
X217276850Y-127812258D01*
%TO.C,U13*%
X101251844Y-124360000D02*
X102661844Y-124360000D01*
X101261844Y-122040000D02*
X102661844Y-122040000D01*
X101121844Y-124640000D02*
X100641844Y-124640000D01*
X100881844Y-124310000D01*
X101121844Y-124640000D01*
G36*
X101121844Y-124640000D02*
G01*
X100641844Y-124640000D01*
X100881844Y-124310000D01*
X101121844Y-124640000D01*
G37*
%TO.C,D39*%
X220139350Y-69350000D02*
X221339350Y-69350000D01*
X220139350Y-69850000D02*
X220139350Y-68000000D01*
X220139350Y-69850000D02*
X221339350Y-69850000D01*
X221339350Y-69850000D02*
X221339350Y-68000000D01*
D11*
%TO.C,Q7*%
X70761844Y-119950000D02*
X70761844Y-120400000D01*
X71261844Y-119950000D02*
X70761844Y-119950000D01*
D10*
%TO.C,D133*%
X148259350Y-58100000D02*
X148259350Y-56900000D01*
X148759350Y-58100000D02*
X148759350Y-56900000D01*
X150109350Y-56900000D02*
X148259350Y-56900000D01*
X150109350Y-58100000D02*
X148259350Y-58100000D01*
%TO.C,R32*%
X238946850Y-113462742D02*
X238946850Y-113937258D01*
X239991850Y-113462742D02*
X239991850Y-113937258D01*
%TO.C,R106*%
X148524586Y-64627500D02*
X148999102Y-64627500D01*
X148524586Y-65672500D02*
X148999102Y-65672500D01*
%TO.C,D91*%
X149446844Y-105050000D02*
X149446844Y-101200000D01*
X151446844Y-104250000D02*
X149446844Y-104250000D01*
X151446844Y-105050000D02*
X149446844Y-105050000D01*
X151446844Y-105050000D02*
X151446844Y-101200000D01*
%TO.C,D49*%
X82261844Y-71750000D02*
X82261844Y-70550000D01*
X82761844Y-71750000D02*
X82761844Y-70550000D01*
X84111844Y-70550000D02*
X82261844Y-70550000D01*
X84111844Y-71750000D02*
X82261844Y-71750000D01*
%TO.C,D82*%
X117696844Y-102050000D02*
X117696844Y-98200000D01*
X119696844Y-101250000D02*
X117696844Y-101250000D01*
X119696844Y-102050000D02*
X117696844Y-102050000D01*
X119696844Y-102050000D02*
X119696844Y-98200000D01*
%TO.C,U5*%
X42346850Y-63040000D02*
X40946850Y-63040000D01*
X42346850Y-65360000D02*
X40936850Y-65360000D01*
X40806850Y-65640000D02*
X40326850Y-65640000D01*
X40566850Y-65310000D01*
X40806850Y-65640000D01*
G36*
X40806850Y-65640000D02*
G01*
X40326850Y-65640000D01*
X40566850Y-65310000D01*
X40806850Y-65640000D01*
G37*
%TO.C,R9*%
X43134108Y-73627500D02*
X42659592Y-73627500D01*
X43134108Y-74672500D02*
X42659592Y-74672500D01*
%TO.C,D63*%
X109446844Y-46050000D02*
X109446844Y-42200000D01*
X111446844Y-45250000D02*
X109446844Y-45250000D01*
X111446844Y-46050000D02*
X109446844Y-46050000D01*
X111446844Y-46050000D02*
X111446844Y-42200000D01*
%TO.C,D101*%
X167711844Y-64150000D02*
X167711844Y-62950000D01*
X168211844Y-64150000D02*
X168211844Y-62950000D01*
X169561844Y-62950000D02*
X167711844Y-62950000D01*
X169561844Y-64150000D02*
X167711844Y-64150000D01*
%TO.C,D52*%
X84446844Y-47850000D02*
X86296844Y-47850000D01*
X84446844Y-49050000D02*
X86296844Y-49050000D01*
X85796844Y-47850000D02*
X85796844Y-49050000D01*
X86296844Y-47850000D02*
X86296844Y-49050000D01*
D11*
%TO.C,Q34*%
X105874350Y-51787500D02*
X105874350Y-52237500D01*
X106374350Y-51787500D02*
X105874350Y-51787500D01*
D10*
%TO.C,R96*%
X133374344Y-33812742D02*
X133374344Y-34287258D01*
X134419344Y-33812742D02*
X134419344Y-34287258D01*
%TO.C,R146*%
X242646850Y-113462742D02*
X242646850Y-113937258D01*
X243691850Y-113462742D02*
X243691850Y-113937258D01*
%TO.C,R127*%
X165484102Y-105327500D02*
X165009586Y-105327500D01*
X165484102Y-106372500D02*
X165009586Y-106372500D01*
%TO.C,D101*%
X167711844Y-123150000D02*
X167711844Y-121950000D01*
X168211844Y-123150000D02*
X168211844Y-121950000D01*
X169561844Y-121950000D02*
X167711844Y-121950000D01*
X169561844Y-123150000D02*
X167711844Y-123150000D01*
%TO.C,R94*%
X130559586Y-37327500D02*
X131034102Y-37327500D01*
X130559586Y-38372500D02*
X131034102Y-38372500D01*
%TO.C,D120*%
X189896844Y-40250000D02*
X191746844Y-40250000D01*
X189896844Y-41450000D02*
X191746844Y-41450000D01*
X191246844Y-40250000D02*
X191246844Y-41450000D01*
X191746844Y-40250000D02*
X191746844Y-41450000D01*
%TO.C,R91*%
X128999102Y-61427500D02*
X128524586Y-61427500D01*
X128999102Y-62472500D02*
X128524586Y-62472500D01*
%TO.C,D96*%
X137696844Y-43050000D02*
X137696844Y-39200000D01*
X139696844Y-42250000D02*
X137696844Y-42250000D01*
X139696844Y-43050000D02*
X137696844Y-43050000D01*
X139696844Y-43050000D02*
X139696844Y-39200000D01*
D11*
%TO.C,Q2*%
X50446850Y-119950000D02*
X50446850Y-120400000D01*
X50946850Y-119950000D02*
X50446850Y-119950000D01*
D10*
%TO.C,R129*%
X183449102Y-132627500D02*
X182974586Y-132627500D01*
X183449102Y-133672500D02*
X182974586Y-133672500D01*
D11*
%TO.C,Q13*%
X82746844Y-51050000D02*
X83246844Y-51050000D01*
X83246844Y-51050000D02*
X83246844Y-50600000D01*
D10*
%TO.C,R123*%
X170559586Y-38827500D02*
X171034102Y-38827500D01*
X170559586Y-39872500D02*
X171034102Y-39872500D01*
%TO.C,D74*%
X134261844Y-64450000D02*
X134261844Y-68300000D01*
X134261844Y-64450000D02*
X136261844Y-64450000D01*
X134261844Y-65250000D02*
X136261844Y-65250000D01*
X136261844Y-64450000D02*
X136261844Y-68300000D01*
%TO.C,R62*%
X83449102Y-131127500D02*
X82974586Y-131127500D01*
X83449102Y-132172500D02*
X82974586Y-132172500D01*
%TO.C,D8*%
X53946850Y-64450000D02*
X53946850Y-68300000D01*
X53946850Y-64450000D02*
X55946850Y-64450000D01*
X53946850Y-65250000D02*
X55946850Y-65250000D01*
X55946850Y-64450000D02*
X55946850Y-68300000D01*
%TO.C,D94*%
X144446844Y-106850000D02*
X146296844Y-106850000D01*
X144446844Y-108050000D02*
X146296844Y-108050000D01*
X145796844Y-106850000D02*
X145796844Y-108050000D01*
X146296844Y-106850000D02*
X146296844Y-108050000D01*
%TO.C,R144*%
X247746850Y-54462742D02*
X247746850Y-54937258D01*
X248791850Y-54462742D02*
X248791850Y-54937258D01*
%TO.C,D44*%
X89446844Y-105050000D02*
X89446844Y-101200000D01*
X91446844Y-104250000D02*
X89446844Y-104250000D01*
X91446844Y-105050000D02*
X89446844Y-105050000D01*
X91446844Y-105050000D02*
X91446844Y-101200000D01*
%TO.C,R105*%
X148999102Y-120427500D02*
X148524586Y-120427500D01*
X148999102Y-121472500D02*
X148524586Y-121472500D01*
%TO.C,D110*%
X157696844Y-43050000D02*
X157696844Y-39200000D01*
X159696844Y-42250000D02*
X157696844Y-42250000D01*
X159696844Y-43050000D02*
X157696844Y-43050000D01*
X159696844Y-43050000D02*
X159696844Y-39200000D01*
%TO.C,R23*%
X181702092Y-116177500D02*
X182176608Y-116177500D01*
X181702092Y-117222500D02*
X182176608Y-117222500D01*
%TO.C,D117*%
X194311844Y-68950000D02*
X194311844Y-72800000D01*
X194311844Y-68950000D02*
X196311844Y-68950000D01*
X194311844Y-69750000D02*
X196311844Y-69750000D01*
X196311844Y-68950000D02*
X196311844Y-72800000D01*
D11*
%TO.C,Q11*%
X90761844Y-119950000D02*
X90761844Y-120400000D01*
X91261844Y-119950000D02*
X90761844Y-119950000D01*
D10*
%TO.C,D49*%
X82261844Y-130750000D02*
X82261844Y-129550000D01*
X82761844Y-130750000D02*
X82761844Y-129550000D01*
X84111844Y-129550000D02*
X82261844Y-129550000D01*
X84111844Y-130750000D02*
X82261844Y-130750000D01*
%TO.C,R59*%
X53059350Y-92812742D02*
X53059350Y-93287258D01*
X54104350Y-92812742D02*
X54104350Y-93287258D01*
D11*
%TO.C,Q1*%
X65764350Y-51887500D02*
X65764350Y-52337500D01*
X66264350Y-51887500D02*
X65764350Y-51887500D01*
D10*
%TO.C,D110*%
X157696844Y-102050000D02*
X157696844Y-98200000D01*
X159696844Y-101250000D02*
X157696844Y-101250000D01*
X159696844Y-102050000D02*
X157696844Y-102050000D01*
X159696844Y-102050000D02*
X159696844Y-98200000D01*
%TO.C,R101*%
X143449102Y-132627500D02*
X142974586Y-132627500D01*
X143449102Y-133672500D02*
X142974586Y-133672500D01*
%TO.C,U12*%
X92746844Y-48960000D02*
X91346844Y-48960000D01*
X92756844Y-46640000D02*
X91346844Y-46640000D01*
X93126844Y-46690000D02*
X92886844Y-46360000D01*
X93366844Y-46360000D01*
X93126844Y-46690000D01*
G36*
X93126844Y-46690000D02*
G01*
X92886844Y-46360000D01*
X93366844Y-46360000D01*
X93126844Y-46690000D01*
G37*
%TO.C,D26*%
X87711844Y-123150000D02*
X87711844Y-121950000D01*
X88211844Y-123150000D02*
X88211844Y-121950000D01*
X89561844Y-121950000D02*
X87711844Y-121950000D01*
X89561844Y-123150000D02*
X87711844Y-123150000D01*
%TO.C,D12*%
X42246850Y-65950000D02*
X42246850Y-69800000D01*
X42246850Y-65950000D02*
X44246850Y-65950000D01*
X42246850Y-66750000D02*
X44246850Y-66750000D01*
X44246850Y-65950000D02*
X44246850Y-69800000D01*
%TO.C,R32*%
X238946850Y-54462742D02*
X238946850Y-54937258D01*
X239991850Y-54462742D02*
X239991850Y-54937258D01*
%TO.C,D68*%
X97696844Y-102050000D02*
X97696844Y-98200000D01*
X99696844Y-101250000D02*
X97696844Y-101250000D01*
X99696844Y-102050000D02*
X97696844Y-102050000D01*
X99696844Y-102050000D02*
X99696844Y-98200000D01*
%TO.C,R140*%
X185009586Y-49527500D02*
X185484102Y-49527500D01*
X185009586Y-50572500D02*
X185484102Y-50572500D01*
%TO.C,R67*%
X90559586Y-38827500D02*
X91034102Y-38827500D01*
X90559586Y-39872500D02*
X91034102Y-39872500D01*
%TO.C,D10*%
X53996850Y-127950000D02*
X53996850Y-131800000D01*
X53996850Y-127950000D02*
X55996850Y-127950000D01*
X53996850Y-128750000D02*
X55996850Y-128750000D01*
X55996850Y-127950000D02*
X55996850Y-131800000D01*
%TO.C,R74*%
X103449102Y-131127500D02*
X102974586Y-131127500D01*
X103449102Y-132172500D02*
X102974586Y-132172500D01*
%TO.C,R12*%
X52126608Y-49477500D02*
X51652092Y-49477500D01*
X52126608Y-50522500D02*
X51652092Y-50522500D01*
D11*
%TO.C,Q15*%
X110761844Y-60950000D02*
X110761844Y-61400000D01*
X111261844Y-60950000D02*
X110761844Y-60950000D01*
D10*
%TO.C,R2*%
X48684108Y-120427500D02*
X48209592Y-120427500D01*
X48684108Y-121472500D02*
X48209592Y-121472500D01*
%TO.C,D106*%
X169896844Y-40250000D02*
X171746844Y-40250000D01*
X169896844Y-41450000D02*
X171746844Y-41450000D01*
X171246844Y-40250000D02*
X171246844Y-41450000D01*
X171746844Y-40250000D02*
X171746844Y-41450000D01*
%TO.C,D92*%
X149896844Y-40250000D02*
X151746844Y-40250000D01*
X149896844Y-41450000D02*
X151746844Y-41450000D01*
X151246844Y-40250000D02*
X151246844Y-41450000D01*
X151746844Y-40250000D02*
X151746844Y-41450000D01*
%TO.C,D20*%
X69446844Y-105050000D02*
X69446844Y-101200000D01*
X71446844Y-104250000D02*
X69446844Y-104250000D01*
X71446844Y-105050000D02*
X69446844Y-105050000D01*
X71446844Y-105050000D02*
X71446844Y-101200000D01*
%TO.C,R132*%
X181652092Y-61477500D02*
X182126608Y-61477500D01*
X181652092Y-62522500D02*
X182126608Y-62522500D01*
%TO.C,D71*%
X122261844Y-71750000D02*
X122261844Y-70550000D01*
X122761844Y-71750000D02*
X122761844Y-70550000D01*
X124111844Y-70550000D02*
X122261844Y-70550000D01*
X124111844Y-71750000D02*
X122261844Y-71750000D01*
%TO.C,R42*%
X209016850Y-103562742D02*
X209016850Y-104037258D01*
X210061850Y-103562742D02*
X210061850Y-104037258D01*
%TO.C,U19*%
X161251844Y-65360000D02*
X162661844Y-65360000D01*
X161261844Y-63040000D02*
X162661844Y-63040000D01*
X161121844Y-65640000D02*
X160641844Y-65640000D01*
X160881844Y-65310000D01*
X161121844Y-65640000D01*
G36*
X161121844Y-65640000D02*
G01*
X160641844Y-65640000D01*
X160881844Y-65310000D01*
X161121844Y-65640000D01*
G37*
%TO.C,D120*%
X189896844Y-99250000D02*
X191746844Y-99250000D01*
X189896844Y-100450000D02*
X191746844Y-100450000D01*
X191246844Y-99250000D02*
X191246844Y-100450000D01*
X191746844Y-99250000D02*
X191746844Y-100450000D01*
%TO.C,R46*%
X207566850Y-50637258D02*
X207566850Y-50162742D01*
X208611850Y-50637258D02*
X208611850Y-50162742D01*
%TO.C,R134*%
X188524586Y-64627500D02*
X188999102Y-64627500D01*
X188524586Y-65672500D02*
X188999102Y-65672500D01*
%TO.C,D87*%
X147711844Y-64150000D02*
X147711844Y-62950000D01*
X148211844Y-64150000D02*
X148211844Y-62950000D01*
X149561844Y-62950000D02*
X147711844Y-62950000D01*
X149561844Y-64150000D02*
X147711844Y-64150000D01*
%TO.C,D7*%
X195789350Y-59200000D02*
X201489350Y-59200000D01*
X195789350Y-63500000D02*
X195789350Y-59200000D01*
X195789350Y-63500000D02*
X201489350Y-63500000D01*
D12*
X197339350Y-63400000D02*
X197339350Y-59300000D01*
D10*
%TO.C,R110*%
X153374344Y-92812742D02*
X153374344Y-93287258D01*
X154419344Y-92812742D02*
X154419344Y-93287258D01*
%TO.C,R77*%
X108999102Y-61427500D02*
X108524586Y-61427500D01*
X108999102Y-62472500D02*
X108524586Y-62472500D01*
%TO.C,R117*%
X159589344Y-78187258D02*
X159589344Y-77712742D01*
X160634344Y-78187258D02*
X160634344Y-77712742D01*
%TO.C,R39*%
X231346850Y-54462742D02*
X231346850Y-54937258D01*
X232391850Y-54462742D02*
X232391850Y-54937258D01*
%TO.C,R14*%
X61652092Y-120477500D02*
X62126608Y-120477500D01*
X61652092Y-121522500D02*
X62126608Y-121522500D01*
D11*
%TO.C,Q2*%
X50446850Y-60950000D02*
X50446850Y-61400000D01*
X50946850Y-60950000D02*
X50446850Y-60950000D01*
D10*
%TO.C,U14*%
X112746844Y-48960000D02*
X111346844Y-48960000D01*
X112756844Y-46640000D02*
X111346844Y-46640000D01*
X113126844Y-46690000D02*
X112886844Y-46360000D01*
X113366844Y-46360000D01*
X113126844Y-46690000D01*
G36*
X113126844Y-46690000D02*
G01*
X112886844Y-46360000D01*
X113366844Y-46360000D01*
X113126844Y-46690000D01*
G37*
%TO.C,R109*%
X150559586Y-38827500D02*
X151034102Y-38827500D01*
X150559586Y-39872500D02*
X151034102Y-39872500D01*
%TO.C,R73*%
X103449102Y-73627500D02*
X102974586Y-73627500D01*
X103449102Y-74672500D02*
X102974586Y-74672500D01*
%TO.C,R65*%
X82239344Y-138987258D02*
X82239344Y-138512742D01*
X83284344Y-138987258D02*
X83284344Y-138512742D01*
%TO.C,R100*%
X130724344Y-32012742D02*
X130724344Y-32487258D01*
X131769344Y-32012742D02*
X131769344Y-32487258D01*
%TO.C,D9*%
X37431850Y-106550000D02*
X37431850Y-102700000D01*
X39431850Y-105750000D02*
X37431850Y-105750000D01*
X39431850Y-106550000D02*
X37431850Y-106550000D01*
X39431850Y-106550000D02*
X39431850Y-102700000D01*
%TO.C,R71*%
X85484102Y-105327500D02*
X85009586Y-105327500D01*
X85484102Y-106372500D02*
X85009586Y-106372500D01*
%TO.C,D59*%
X107711844Y-64150000D02*
X107711844Y-62950000D01*
X108211844Y-64150000D02*
X108211844Y-62950000D01*
X109561844Y-62950000D02*
X107711844Y-62950000D01*
X109561844Y-64150000D02*
X107711844Y-64150000D01*
%TO.C,R15*%
X68999102Y-61427500D02*
X68524586Y-61427500D01*
X68999102Y-62472500D02*
X68524586Y-62472500D01*
%TO.C,R86*%
X110724344Y-91012742D02*
X110724344Y-91487258D01*
X111769344Y-91012742D02*
X111769344Y-91487258D01*
%TO.C,D16*%
X211339350Y-112950000D02*
X211339350Y-118650000D01*
X211339350Y-112950000D02*
X215639350Y-112950000D01*
D12*
X211439350Y-114500000D02*
X215539350Y-114500000D01*
D10*
X215639350Y-112950000D02*
X215639350Y-118650000D01*
%TO.C,R53*%
X42659592Y-72127500D02*
X43134108Y-72127500D01*
X42659592Y-73172500D02*
X43134108Y-73172500D01*
%TO.C,D40*%
X219739350Y-70650000D02*
X219739350Y-74500000D01*
X219739350Y-73700000D02*
X221739350Y-73700000D01*
X219739350Y-74500000D02*
X221739350Y-74500000D01*
X221739350Y-70650000D02*
X221739350Y-74500000D01*
%TO.C,D17*%
X74261844Y-123450000D02*
X74261844Y-127300000D01*
X74261844Y-123450000D02*
X76261844Y-123450000D01*
X74261844Y-124250000D02*
X76261844Y-124250000D01*
X76261844Y-123450000D02*
X76261844Y-127300000D01*
%TO.C,U22*%
X192746844Y-107960000D02*
X191346844Y-107960000D01*
X192756844Y-105640000D02*
X191346844Y-105640000D01*
X193126844Y-105690000D02*
X192886844Y-105360000D01*
X193366844Y-105360000D01*
X193126844Y-105690000D01*
G36*
X193126844Y-105690000D02*
G01*
X192886844Y-105360000D01*
X193366844Y-105360000D01*
X193126844Y-105690000D01*
G37*
%TO.C,R118*%
X161652092Y-61477500D02*
X162126608Y-61477500D01*
X161652092Y-62522500D02*
X162126608Y-62522500D01*
D11*
%TO.C,Q9*%
X62746844Y-51050000D02*
X63246844Y-51050000D01*
X63246844Y-51050000D02*
X63246844Y-50600000D01*
D10*
%TO.C,D84*%
X142561844Y-65950000D02*
X142561844Y-69800000D01*
X142561844Y-65950000D02*
X144561844Y-65950000D01*
X142561844Y-66750000D02*
X144561844Y-66750000D01*
X144561844Y-65950000D02*
X144561844Y-69800000D01*
%TO.C,R71*%
X85484102Y-46327500D02*
X85009586Y-46327500D01*
X85484102Y-47372500D02*
X85009586Y-47372500D01*
%TO.C,D122*%
X184446844Y-47850000D02*
X186296844Y-47850000D01*
X184446844Y-49050000D02*
X186296844Y-49050000D01*
X185796844Y-47850000D02*
X185796844Y-49050000D01*
X186296844Y-47850000D02*
X186296844Y-49050000D01*
%TO.C,D7*%
X195789350Y-118200000D02*
X201489350Y-118200000D01*
X195789350Y-122500000D02*
X195789350Y-118200000D01*
X195789350Y-122500000D02*
X201489350Y-122500000D01*
D12*
X197339350Y-122400000D02*
X197339350Y-118300000D01*
D10*
%TO.C,D91*%
X149446844Y-46050000D02*
X149446844Y-42200000D01*
X151446844Y-45250000D02*
X149446844Y-45250000D01*
X151446844Y-46050000D02*
X149446844Y-46050000D01*
X151446844Y-46050000D02*
X151446844Y-42200000D01*
%TO.C,U21*%
X181251844Y-65360000D02*
X182661844Y-65360000D01*
X181261844Y-63040000D02*
X182661844Y-63040000D01*
X181121844Y-65640000D02*
X180641844Y-65640000D01*
X180881844Y-65310000D01*
X181121844Y-65640000D01*
G36*
X181121844Y-65640000D02*
G01*
X180641844Y-65640000D01*
X180881844Y-65310000D01*
X181121844Y-65640000D01*
G37*
%TO.C,U10*%
X72746844Y-107960000D02*
X71346844Y-107960000D01*
X72756844Y-105640000D02*
X71346844Y-105640000D01*
X73126844Y-105690000D02*
X72886844Y-105360000D01*
X73366844Y-105360000D01*
X73126844Y-105690000D01*
G36*
X73126844Y-105690000D02*
G01*
X72886844Y-105360000D01*
X73366844Y-105360000D01*
X73126844Y-105690000D01*
G37*
%TO.C,R128*%
X170724344Y-32012742D02*
X170724344Y-32487258D01*
X171769344Y-32012742D02*
X171769344Y-32487258D01*
%TO.C,D124*%
X177696844Y-43050000D02*
X177696844Y-39200000D01*
X179696844Y-42250000D02*
X177696844Y-42250000D01*
X179696844Y-43050000D02*
X177696844Y-43050000D01*
X179696844Y-43050000D02*
X179696844Y-39200000D01*
%TO.C,R36*%
X259046850Y-54462742D02*
X259046850Y-54937258D01*
X260091850Y-54462742D02*
X260091850Y-54937258D01*
%TO.C,R99*%
X125484102Y-105327500D02*
X125009586Y-105327500D01*
X125484102Y-106372500D02*
X125009586Y-106372500D01*
%TO.C,R88*%
X123449102Y-131127500D02*
X122974586Y-131127500D01*
X123449102Y-132172500D02*
X122974586Y-132172500D01*
%TO.C,D66*%
X104446844Y-47850000D02*
X106296844Y-47850000D01*
X104446844Y-49050000D02*
X106296844Y-49050000D01*
X105796844Y-47850000D02*
X105796844Y-49050000D01*
X106296844Y-47850000D02*
X106296844Y-49050000D01*
%TO.C,R17*%
X62239344Y-138987258D02*
X62239344Y-138512742D01*
X63284344Y-138987258D02*
X63284344Y-138512742D01*
%TO.C,R126*%
X165009586Y-49527500D02*
X165484102Y-49527500D01*
X165009586Y-50572500D02*
X165484102Y-50572500D01*
%TO.C,R108*%
X150559586Y-37327500D02*
X151034102Y-37327500D01*
X150559586Y-38372500D02*
X151034102Y-38372500D01*
%TO.C,D123*%
X177746844Y-106550000D02*
X177746844Y-102700000D01*
X179746844Y-105750000D02*
X177746844Y-105750000D01*
X179746844Y-106550000D02*
X177746844Y-106550000D01*
X179746844Y-106550000D02*
X179746844Y-102700000D01*
%TO.C,R92*%
X128524586Y-123627500D02*
X128999102Y-123627500D01*
X128524586Y-124672500D02*
X128999102Y-124672500D01*
%TO.C,D112*%
X182561844Y-65950000D02*
X182561844Y-69800000D01*
X182561844Y-65950000D02*
X184561844Y-65950000D01*
X182561844Y-66750000D02*
X184561844Y-66750000D01*
X184561844Y-65950000D02*
X184561844Y-69800000D01*
D11*
%TO.C,Q1*%
X65764350Y-110887500D02*
X65764350Y-111337500D01*
X66264350Y-110887500D02*
X65764350Y-110887500D01*
D10*
%TO.C,D78*%
X129896844Y-40250000D02*
X131746844Y-40250000D01*
X129896844Y-41450000D02*
X131746844Y-41450000D01*
X131246844Y-40250000D02*
X131246844Y-41450000D01*
X131746844Y-40250000D02*
X131746844Y-41450000D01*
%TO.C,D88*%
X154261844Y-64450000D02*
X154261844Y-68300000D01*
X154261844Y-64450000D02*
X156261844Y-64450000D01*
X154261844Y-65250000D02*
X156261844Y-65250000D01*
X156261844Y-64450000D02*
X156261844Y-68300000D01*
%TO.C,R120*%
X168524586Y-123627500D02*
X168999102Y-123627500D01*
X168524586Y-124672500D02*
X168999102Y-124672500D01*
%TO.C,R46*%
X207566850Y-109637258D02*
X207566850Y-109162742D01*
X208611850Y-109637258D02*
X208611850Y-109162742D01*
%TO.C,R70*%
X85009586Y-108527500D02*
X85484102Y-108527500D01*
X85009586Y-109572500D02*
X85484102Y-109572500D01*
%TO.C,R47*%
X216231850Y-68337742D02*
X216231850Y-68812258D01*
X217276850Y-68337742D02*
X217276850Y-68812258D01*
%TO.C,D61*%
X114311844Y-127950000D02*
X114311844Y-131800000D01*
X114311844Y-127950000D02*
X116311844Y-127950000D01*
X114311844Y-128750000D02*
X116311844Y-128750000D01*
X116311844Y-127950000D02*
X116311844Y-131800000D01*
%TO.C,D98*%
X162561844Y-65950000D02*
X162561844Y-69800000D01*
X162561844Y-65950000D02*
X164561844Y-65950000D01*
X162561844Y-66750000D02*
X164561844Y-66750000D01*
X164561844Y-65950000D02*
X164561844Y-69800000D01*
%TO.C,D68*%
X97696844Y-43050000D02*
X97696844Y-39200000D01*
X99696844Y-42250000D02*
X97696844Y-42250000D01*
X99696844Y-43050000D02*
X97696844Y-43050000D01*
X99696844Y-43050000D02*
X99696844Y-39200000D01*
%TO.C,D54*%
X77696844Y-102050000D02*
X77696844Y-98200000D01*
X79696844Y-101250000D02*
X77696844Y-101250000D01*
X79696844Y-102050000D02*
X77696844Y-102050000D01*
X79696844Y-102050000D02*
X79696844Y-98200000D01*
%TO.C,R76*%
X101652092Y-61477500D02*
X102126608Y-61477500D01*
X101652092Y-62522500D02*
X102126608Y-62522500D01*
%TO.C,R63*%
X79589344Y-78187258D02*
X79589344Y-77712742D01*
X80634344Y-78187258D02*
X80634344Y-77712742D01*
D11*
%TO.C,Q3*%
X42431850Y-110050000D02*
X42931850Y-110050000D01*
X42931850Y-110050000D02*
X42931850Y-109600000D01*
X42431850Y-51050000D02*
X42931850Y-51050000D01*
X42931850Y-51050000D02*
X42931850Y-50600000D01*
D10*
%TO.C,R76*%
X101652092Y-120477500D02*
X102126608Y-120477500D01*
X101652092Y-121522500D02*
X102126608Y-121522500D01*
D11*
%TO.C,Q13*%
X82746844Y-110050000D02*
X83246844Y-110050000D01*
X83246844Y-110050000D02*
X83246844Y-109600000D01*
D10*
%TO.C,R25*%
X108662092Y-117477500D02*
X109136608Y-117477500D01*
X108662092Y-118522500D02*
X109136608Y-118522500D01*
D11*
%TO.C,Q35*%
X146284350Y-51787500D02*
X146284350Y-52237500D01*
X146784350Y-51787500D02*
X146284350Y-51787500D01*
D10*
%TO.C,R112*%
X145009586Y-108527500D02*
X145484102Y-108527500D01*
X145009586Y-109572500D02*
X145484102Y-109572500D01*
%TO.C,R102*%
X143449102Y-131127500D02*
X142974586Y-131127500D01*
X143449102Y-132172500D02*
X142974586Y-132172500D01*
%TO.C,R73*%
X103449102Y-132627500D02*
X102974586Y-132627500D01*
X103449102Y-133672500D02*
X102974586Y-133672500D01*
%TO.C,R66*%
X90559586Y-96327500D02*
X91034102Y-96327500D01*
X90559586Y-97372500D02*
X91034102Y-97372500D01*
%TO.C,D105*%
X169446844Y-46050000D02*
X169446844Y-42200000D01*
X171446844Y-45250000D02*
X169446844Y-45250000D01*
X171446844Y-46050000D02*
X169446844Y-46050000D01*
X171446844Y-46050000D02*
X171446844Y-42200000D01*
%TO.C,R85*%
X105484102Y-46327500D02*
X105009586Y-46327500D01*
X105484102Y-47372500D02*
X105009586Y-47372500D01*
%TO.C,D95*%
X137746844Y-47550000D02*
X137746844Y-43700000D01*
X139746844Y-46750000D02*
X137746844Y-46750000D01*
X139746844Y-47550000D02*
X137746844Y-47550000D01*
X139746844Y-47550000D02*
X139746844Y-43700000D01*
%TO.C,R66*%
X90559586Y-37327500D02*
X91034102Y-37327500D01*
X90559586Y-38372500D02*
X91034102Y-38372500D01*
%TO.C,D21*%
X64446844Y-47850000D02*
X66296844Y-47850000D01*
X64446844Y-49050000D02*
X66296844Y-49050000D01*
X65796844Y-47850000D02*
X65796844Y-49050000D01*
X66296844Y-47850000D02*
X66296844Y-49050000D01*
%TO.C,R45*%
X210566850Y-45037258D02*
X210566850Y-44562742D01*
X211611850Y-45037258D02*
X211611850Y-44562742D01*
%TO.C,D2*%
X47396850Y-64150000D02*
X47396850Y-62950000D01*
X47896850Y-64150000D02*
X47896850Y-62950000D01*
X49246850Y-62950000D02*
X47396850Y-62950000D01*
X49246850Y-64150000D02*
X47396850Y-64150000D01*
%TO.C,U8*%
X213369350Y-126750000D02*
X213369350Y-128150000D01*
X215689350Y-126750000D02*
X215689350Y-128160000D01*
X215969350Y-128770000D02*
X215639350Y-128530000D01*
X215969350Y-128290000D01*
X215969350Y-128770000D01*
G36*
X215969350Y-128770000D02*
G01*
X215639350Y-128530000D01*
X215969350Y-128290000D01*
X215969350Y-128770000D01*
G37*
%TO.C,D122*%
X184446844Y-106850000D02*
X186296844Y-106850000D01*
X184446844Y-108050000D02*
X186296844Y-108050000D01*
X185796844Y-106850000D02*
X185796844Y-108050000D01*
X186296844Y-106850000D02*
X186296844Y-108050000D01*
%TO.C,R7*%
X45169108Y-46327500D02*
X44694592Y-46327500D01*
X45169108Y-47372500D02*
X44694592Y-47372500D01*
%TO.C,R54*%
X50244592Y-97827500D02*
X50719108Y-97827500D01*
X50244592Y-98872500D02*
X50719108Y-98872500D01*
%TO.C,R125*%
X172426608Y-49477500D02*
X171952092Y-49477500D01*
X172426608Y-50522500D02*
X171952092Y-50522500D01*
%TO.C,R60*%
X59589344Y-78187258D02*
X59589344Y-77712742D01*
X60634344Y-78187258D02*
X60634344Y-77712742D01*
%TO.C,R48*%
X210966608Y-72177500D02*
X210492092Y-72177500D01*
X210966608Y-73222500D02*
X210492092Y-73222500D01*
D11*
%TO.C,U3*%
X207289350Y-45500000D02*
X207289350Y-45900000D01*
X207289350Y-45900000D02*
X206889350Y-45900000D01*
D10*
%TO.C,R29*%
X222546850Y-54462742D02*
X222546850Y-54937258D01*
X223591850Y-54462742D02*
X223591850Y-54937258D01*
%TO.C,R33*%
X236446850Y-54462742D02*
X236446850Y-54937258D01*
X237491850Y-54462742D02*
X237491850Y-54937258D01*
%TO.C,R64*%
X88524586Y-64627500D02*
X88999102Y-64627500D01*
X88524586Y-65672500D02*
X88999102Y-65672500D01*
%TO.C,R18*%
X70559586Y-37327500D02*
X71034102Y-37327500D01*
X70559586Y-38372500D02*
X71034102Y-38372500D01*
%TO.C,R96*%
X133374344Y-92812742D02*
X133374344Y-93287258D01*
X134419344Y-92812742D02*
X134419344Y-93287258D01*
%TO.C,D6*%
X67739350Y-58200000D02*
X67739350Y-57000000D01*
X68239350Y-58200000D02*
X68239350Y-57000000D01*
X69589350Y-57000000D02*
X67739350Y-57000000D01*
X69589350Y-58200000D02*
X67739350Y-58200000D01*
%TO.C,D112*%
X182561844Y-124950000D02*
X182561844Y-128800000D01*
X182561844Y-124950000D02*
X184561844Y-124950000D01*
X182561844Y-125750000D02*
X184561844Y-125750000D01*
X184561844Y-124950000D02*
X184561844Y-128800000D01*
D11*
%TO.C,U3*%
X207289350Y-104500000D02*
X207289350Y-104900000D01*
X207289350Y-104900000D02*
X206889350Y-104900000D01*
D10*
%TO.C,R145*%
X245246850Y-54462742D02*
X245246850Y-54937258D01*
X246291850Y-54462742D02*
X246291850Y-54937258D01*
%TO.C,R121*%
X162239344Y-79987258D02*
X162239344Y-79512742D01*
X163284344Y-79987258D02*
X163284344Y-79512742D01*
%TO.C,R82*%
X113374344Y-92812742D02*
X113374344Y-93287258D01*
X114419344Y-92812742D02*
X114419344Y-93287258D01*
%TO.C,D81*%
X117746844Y-106550000D02*
X117746844Y-102700000D01*
X119746844Y-105750000D02*
X117746844Y-105750000D01*
X119746844Y-106550000D02*
X117746844Y-106550000D01*
X119746844Y-106550000D02*
X119746844Y-102700000D01*
%TO.C,R55*%
X211806850Y-68112742D02*
X211806850Y-68587258D01*
X212851850Y-68112742D02*
X212851850Y-68587258D01*
D11*
%TO.C,Q17*%
X102746844Y-51050000D02*
X103246844Y-51050000D01*
X103246844Y-51050000D02*
X103246844Y-50600000D01*
D10*
%TO.C,D87*%
X147711844Y-123150000D02*
X147711844Y-121950000D01*
X148211844Y-123150000D02*
X148211844Y-121950000D01*
X149561844Y-121950000D02*
X147711844Y-121950000D01*
X149561844Y-123150000D02*
X147711844Y-123150000D01*
%TO.C,R105*%
X148999102Y-61427500D02*
X148524586Y-61427500D01*
X148999102Y-62472500D02*
X148524586Y-62472500D01*
%TO.C,D45*%
X41946850Y-129550000D02*
X41946850Y-130750000D01*
X41946850Y-129550000D02*
X43796850Y-129550000D01*
X41946850Y-130750000D02*
X43796850Y-130750000D01*
X42446850Y-129550000D02*
X42446850Y-130750000D01*
%TO.C,D50*%
X89896844Y-99250000D02*
X91746844Y-99250000D01*
X89896844Y-100450000D02*
X91746844Y-100450000D01*
X91246844Y-99250000D02*
X91246844Y-100450000D01*
X91746844Y-99250000D02*
X91746844Y-100450000D01*
%TO.C,R93*%
X122239344Y-79987258D02*
X122239344Y-79512742D01*
X123284344Y-79987258D02*
X123284344Y-79512742D01*
%TO.C,R80*%
X110559586Y-37327500D02*
X111034102Y-37327500D01*
X110559586Y-38372500D02*
X111034102Y-38372500D01*
%TO.C,R38*%
X220046850Y-113462742D02*
X220046850Y-113937258D01*
X221091850Y-113462742D02*
X221091850Y-113937258D01*
%TO.C,D113*%
X182261844Y-71750000D02*
X182261844Y-70550000D01*
X182761844Y-71750000D02*
X182761844Y-70550000D01*
X184111844Y-70550000D02*
X182261844Y-70550000D01*
X184111844Y-71750000D02*
X182261844Y-71750000D01*
%TO.C,R93*%
X122239344Y-138987258D02*
X122239344Y-138512742D01*
X123284344Y-138987258D02*
X123284344Y-138512742D01*
%TO.C,D124*%
X177696844Y-102050000D02*
X177696844Y-98200000D01*
X179696844Y-101250000D02*
X177696844Y-101250000D01*
X179696844Y-102050000D02*
X177696844Y-102050000D01*
X179696844Y-102050000D02*
X179696844Y-98200000D01*
%TO.C,D3*%
X44131850Y-47850000D02*
X45981850Y-47850000D01*
X44131850Y-49050000D02*
X45981850Y-49050000D01*
X45481850Y-47850000D02*
X45481850Y-49050000D01*
X45981850Y-47850000D02*
X45981850Y-49050000D01*
%TO.C,D73*%
X127711844Y-123150000D02*
X127711844Y-121950000D01*
X128211844Y-123150000D02*
X128211844Y-121950000D01*
X129561844Y-121950000D02*
X127711844Y-121950000D01*
X129561844Y-123150000D02*
X127711844Y-123150000D01*
%TO.C,U19*%
X161251844Y-124360000D02*
X162661844Y-124360000D01*
X161261844Y-122040000D02*
X162661844Y-122040000D01*
X161121844Y-124640000D02*
X160641844Y-124640000D01*
X160881844Y-124310000D01*
X161121844Y-124640000D01*
G36*
X161121844Y-124640000D02*
G01*
X160641844Y-124640000D01*
X160881844Y-124310000D01*
X161121844Y-124640000D01*
G37*
%TO.C,R11*%
X41252092Y-120477500D02*
X41726608Y-120477500D01*
X41252092Y-121522500D02*
X41726608Y-121522500D01*
%TO.C,D89*%
X154311844Y-127950000D02*
X154311844Y-131800000D01*
X154311844Y-127950000D02*
X156311844Y-127950000D01*
X154311844Y-128750000D02*
X156311844Y-128750000D01*
X156311844Y-127950000D02*
X156311844Y-131800000D01*
%TO.C,D119*%
X189446844Y-105050000D02*
X189446844Y-101200000D01*
X191446844Y-104250000D02*
X189446844Y-104250000D01*
X191446844Y-105050000D02*
X189446844Y-105050000D01*
X191446844Y-105050000D02*
X191446844Y-101200000D01*
%TO.C,U5*%
X42346850Y-122040000D02*
X40946850Y-122040000D01*
X42346850Y-124360000D02*
X40936850Y-124360000D01*
X40806850Y-124640000D02*
X40326850Y-124640000D01*
X40566850Y-124310000D01*
X40806850Y-124640000D01*
G36*
X40806850Y-124640000D02*
G01*
X40326850Y-124640000D01*
X40566850Y-124310000D01*
X40806850Y-124640000D01*
G37*
%TO.C,R115*%
X163449102Y-132627500D02*
X162974586Y-132627500D01*
X163449102Y-133672500D02*
X162974586Y-133672500D01*
%TO.C,U17*%
X141251844Y-65360000D02*
X142661844Y-65360000D01*
X141261844Y-63040000D02*
X142661844Y-63040000D01*
X141121844Y-65640000D02*
X140641844Y-65640000D01*
X140881844Y-65310000D01*
X141121844Y-65640000D01*
G36*
X141121844Y-65640000D02*
G01*
X140641844Y-65640000D01*
X140881844Y-65310000D01*
X141121844Y-65640000D01*
G37*
%TO.C,D25*%
X82561844Y-124950000D02*
X82561844Y-128800000D01*
X82561844Y-124950000D02*
X84561844Y-124950000D01*
X82561844Y-125750000D02*
X84561844Y-125750000D01*
X84561844Y-124950000D02*
X84561844Y-128800000D01*
%TO.C,D13*%
X49131850Y-46050000D02*
X49131850Y-42200000D01*
X51131850Y-45250000D02*
X49131850Y-45250000D01*
X51131850Y-46050000D02*
X49131850Y-46050000D01*
X51131850Y-46050000D02*
X51131850Y-42200000D01*
%TO.C,D60*%
X114261844Y-64450000D02*
X114261844Y-68300000D01*
X114261844Y-64450000D02*
X116261844Y-64450000D01*
X114261844Y-65250000D02*
X116261844Y-65250000D01*
X116261844Y-64450000D02*
X116261844Y-68300000D01*
%TO.C,D95*%
X137746844Y-106550000D02*
X137746844Y-102700000D01*
X139746844Y-105750000D02*
X137746844Y-105750000D01*
X139746844Y-106550000D02*
X137746844Y-106550000D01*
X139746844Y-106550000D02*
X139746844Y-102700000D01*
D11*
%TO.C,Q7*%
X70761844Y-60950000D02*
X70761844Y-61400000D01*
X71261844Y-60950000D02*
X70761844Y-60950000D01*
D10*
%TO.C,D23*%
X57696844Y-102050000D02*
X57696844Y-98200000D01*
X59696844Y-101250000D02*
X57696844Y-101250000D01*
X59696844Y-102050000D02*
X57696844Y-102050000D01*
X59696844Y-102050000D02*
X59696844Y-98200000D01*
%TO.C,D9*%
X37431850Y-47550000D02*
X37431850Y-43700000D01*
X39431850Y-46750000D02*
X37431850Y-46750000D01*
X39431850Y-47550000D02*
X37431850Y-47550000D01*
X39431850Y-47550000D02*
X39431850Y-43700000D01*
%TO.C,R69*%
X92426608Y-108477500D02*
X91952092Y-108477500D01*
X92426608Y-109522500D02*
X91952092Y-109522500D01*
%TO.C,R5*%
X50409350Y-32012742D02*
X50409350Y-32487258D01*
X51454350Y-32012742D02*
X51454350Y-32487258D01*
D11*
%TO.C,Q23*%
X150761844Y-60950000D02*
X150761844Y-61400000D01*
X151261844Y-60950000D02*
X150761844Y-60950000D01*
D10*
%TO.C,D47*%
X62261844Y-130750000D02*
X62261844Y-129550000D01*
X62761844Y-130750000D02*
X62761844Y-129550000D01*
X64111844Y-129550000D02*
X62261844Y-129550000D01*
X64111844Y-130750000D02*
X62261844Y-130750000D01*
%TO.C,D18*%
X74311844Y-68950000D02*
X74311844Y-72800000D01*
X74311844Y-68950000D02*
X76311844Y-68950000D01*
X74311844Y-69750000D02*
X76311844Y-69750000D01*
X76311844Y-68950000D02*
X76311844Y-72800000D01*
%TO.C,D94*%
X144446844Y-47850000D02*
X146296844Y-47850000D01*
X144446844Y-49050000D02*
X146296844Y-49050000D01*
X145796844Y-47850000D02*
X145796844Y-49050000D01*
X146296844Y-47850000D02*
X146296844Y-49050000D01*
%TO.C,R90*%
X121652092Y-61477500D02*
X122126608Y-61477500D01*
X121652092Y-62522500D02*
X122126608Y-62522500D01*
%TO.C,U9*%
X216776850Y-44740000D02*
X217426850Y-44740000D01*
X216776850Y-47860000D02*
X217426850Y-47860000D01*
X218076850Y-44740000D02*
X217426850Y-44740000D01*
X218076850Y-47860000D02*
X217426850Y-47860000D01*
X218589350Y-44790000D02*
X218349350Y-44460000D01*
X218829350Y-44460000D01*
X218589350Y-44790000D01*
G36*
X218589350Y-44790000D02*
G01*
X218349350Y-44460000D01*
X218829350Y-44460000D01*
X218589350Y-44790000D01*
G37*
%TO.C,R130*%
X183449102Y-131127500D02*
X182974586Y-131127500D01*
X183449102Y-132172500D02*
X182974586Y-132172500D01*
D11*
%TO.C,Q35*%
X146284350Y-110787500D02*
X146284350Y-111237500D01*
X146784350Y-110787500D02*
X146284350Y-110787500D01*
%TO.C,Q33*%
X182746844Y-110050000D02*
X183246844Y-110050000D01*
X183246844Y-110050000D02*
X183246844Y-109600000D01*
D10*
%TO.C,D13*%
X49131850Y-105050000D02*
X49131850Y-101200000D01*
X51131850Y-104250000D02*
X49131850Y-104250000D01*
X51131850Y-105050000D02*
X49131850Y-105050000D01*
X51131850Y-105050000D02*
X51131850Y-101200000D01*
%TO.C,R88*%
X123449102Y-72127500D02*
X122974586Y-72127500D01*
X123449102Y-73172500D02*
X122974586Y-73172500D01*
%TO.C,D92*%
X149896844Y-99250000D02*
X151746844Y-99250000D01*
X149896844Y-100450000D02*
X151746844Y-100450000D01*
X151246844Y-99250000D02*
X151246844Y-100450000D01*
X151746844Y-99250000D02*
X151746844Y-100450000D01*
%TO.C,R45*%
X210566850Y-104037258D02*
X210566850Y-103562742D01*
X211611850Y-104037258D02*
X211611850Y-103562742D01*
%TO.C,D45*%
X41946850Y-70550000D02*
X41946850Y-71750000D01*
X41946850Y-70550000D02*
X43796850Y-70550000D01*
X41946850Y-71750000D02*
X43796850Y-71750000D01*
X42446850Y-70550000D02*
X42446850Y-71750000D01*
%TO.C,R63*%
X79589344Y-137187258D02*
X79589344Y-136712742D01*
X80634344Y-137187258D02*
X80634344Y-136712742D01*
%TO.C,D39*%
X220139350Y-128350000D02*
X221339350Y-128350000D01*
X220139350Y-128850000D02*
X220139350Y-127000000D01*
X220139350Y-128850000D02*
X221339350Y-128850000D01*
X221339350Y-128850000D02*
X221339350Y-127000000D01*
%TO.C,R120*%
X168524586Y-64627500D02*
X168999102Y-64627500D01*
X168524586Y-65672500D02*
X168999102Y-65672500D01*
%TO.C,U12*%
X92746844Y-107960000D02*
X91346844Y-107960000D01*
X92756844Y-105640000D02*
X91346844Y-105640000D01*
X93126844Y-105690000D02*
X92886844Y-105360000D01*
X93366844Y-105360000D01*
X93126844Y-105690000D01*
G36*
X93126844Y-105690000D02*
G01*
X92886844Y-105360000D01*
X93366844Y-105360000D01*
X93126844Y-105690000D01*
G37*
%TO.C,R75*%
X99589344Y-78187258D02*
X99589344Y-77712742D01*
X100634344Y-78187258D02*
X100634344Y-77712742D01*
%TO.C,R49*%
X215092092Y-129277500D02*
X215566608Y-129277500D01*
X215092092Y-130322500D02*
X215566608Y-130322500D01*
%TO.C,R67*%
X90559586Y-97827500D02*
X91034102Y-97827500D01*
X90559586Y-98872500D02*
X91034102Y-98872500D01*
%TO.C,R25*%
X108662092Y-58477500D02*
X109136608Y-58477500D01*
X108662092Y-59522500D02*
X109136608Y-59522500D01*
%TO.C,R21*%
X65484102Y-46327500D02*
X65009586Y-46327500D01*
X65484102Y-47372500D02*
X65009586Y-47372500D01*
%TO.C,D22*%
X57746844Y-47550000D02*
X57746844Y-43700000D01*
X59746844Y-46750000D02*
X57746844Y-46750000D01*
X59746844Y-47550000D02*
X57746844Y-47550000D01*
X59746844Y-47550000D02*
X59746844Y-43700000D01*
%TO.C,D67*%
X97746844Y-106550000D02*
X97746844Y-102700000D01*
X99746844Y-105750000D02*
X97746844Y-105750000D01*
X99746844Y-106550000D02*
X97746844Y-106550000D01*
X99746844Y-106550000D02*
X99746844Y-102700000D01*
%TO.C,R59*%
X53059350Y-33812742D02*
X53059350Y-34287258D01*
X54104350Y-33812742D02*
X54104350Y-34287258D01*
%TO.C,D57*%
X102261844Y-130750000D02*
X102261844Y-129550000D01*
X102761844Y-130750000D02*
X102761844Y-129550000D01*
X104111844Y-129550000D02*
X102261844Y-129550000D01*
X104111844Y-130750000D02*
X102261844Y-130750000D01*
%TO.C,R141*%
X185484102Y-105327500D02*
X185009586Y-105327500D01*
X185484102Y-106372500D02*
X185009586Y-106372500D01*
%TO.C,D40*%
X219739350Y-129650000D02*
X219739350Y-133500000D01*
X219739350Y-132700000D02*
X221739350Y-132700000D01*
X219739350Y-133500000D02*
X221739350Y-133500000D01*
X221739350Y-129650000D02*
X221739350Y-133500000D01*
%TO.C,R77*%
X108999102Y-120427500D02*
X108524586Y-120427500D01*
X108999102Y-121472500D02*
X108524586Y-121472500D01*
%TO.C,R70*%
X85009586Y-49527500D02*
X85484102Y-49527500D01*
X85009586Y-50572500D02*
X85484102Y-50572500D01*
%TO.C,D85*%
X142261844Y-71750000D02*
X142261844Y-70550000D01*
X142761844Y-71750000D02*
X142761844Y-70550000D01*
X144111844Y-70550000D02*
X142261844Y-70550000D01*
X144111844Y-71750000D02*
X142261844Y-71750000D01*
%TO.C,D75*%
X134311844Y-127950000D02*
X134311844Y-131800000D01*
X134311844Y-127950000D02*
X136311844Y-127950000D01*
X134311844Y-128750000D02*
X136311844Y-128750000D01*
X136311844Y-127950000D02*
X136311844Y-131800000D01*
%TO.C,R81*%
X110559586Y-38827500D02*
X111034102Y-38827500D01*
X110559586Y-39872500D02*
X111034102Y-39872500D01*
%TO.C,R61*%
X73374344Y-33812742D02*
X73374344Y-34287258D01*
X74419344Y-33812742D02*
X74419344Y-34287258D01*
%TO.C,R97*%
X132426608Y-49477500D02*
X131952092Y-49477500D01*
X132426608Y-50522500D02*
X131952092Y-50522500D01*
%TO.C,R49*%
X215092092Y-70277500D02*
X215566608Y-70277500D01*
X215092092Y-71322500D02*
X215566608Y-71322500D01*
%TO.C,R99*%
X125484102Y-46327500D02*
X125009586Y-46327500D01*
X125484102Y-47372500D02*
X125009586Y-47372500D01*
%TO.C,D96*%
X137696844Y-102050000D02*
X137696844Y-98200000D01*
X139696844Y-101250000D02*
X137696844Y-101250000D01*
X139696844Y-102050000D02*
X137696844Y-102050000D01*
X139696844Y-102050000D02*
X139696844Y-98200000D01*
%TO.C,R90*%
X121652092Y-120477500D02*
X122126608Y-120477500D01*
X121652092Y-121522500D02*
X122126608Y-121522500D01*
%TO.C,D2*%
X47396850Y-123150000D02*
X47396850Y-121950000D01*
X47896850Y-123150000D02*
X47896850Y-121950000D01*
X49246850Y-121950000D02*
X47396850Y-121950000D01*
X49246850Y-123150000D02*
X47396850Y-123150000D01*
D11*
%TO.C,Q29*%
X162746844Y-51050000D02*
X163246844Y-51050000D01*
X163246844Y-51050000D02*
X163246844Y-50600000D01*
D10*
%TO.C,R17*%
X62239344Y-79987258D02*
X62239344Y-79512742D01*
X63284344Y-79987258D02*
X63284344Y-79512742D01*
%TO.C,R127*%
X165484102Y-46327500D02*
X165009586Y-46327500D01*
X165484102Y-47372500D02*
X165009586Y-47372500D01*
D11*
%TO.C,Q9*%
X62746844Y-110050000D02*
X63246844Y-110050000D01*
X63246844Y-110050000D02*
X63246844Y-109600000D01*
D10*
%TO.C,R30*%
X225146850Y-54462742D02*
X225146850Y-54937258D01*
X226191850Y-54462742D02*
X226191850Y-54937258D01*
%TO.C,R103*%
X139589344Y-137187258D02*
X139589344Y-136712742D01*
X140634344Y-137187258D02*
X140634344Y-136712742D01*
%TO.C,R130*%
X183449102Y-72127500D02*
X182974586Y-72127500D01*
X183449102Y-73172500D02*
X182974586Y-73172500D01*
%TO.C,R111*%
X152426608Y-108477500D02*
X151952092Y-108477500D01*
X152426608Y-109522500D02*
X151952092Y-109522500D01*
%TO.C,R33*%
X236446850Y-113462742D02*
X236446850Y-113937258D01*
X237491850Y-113462742D02*
X237491850Y-113937258D01*
%TO.C,R40*%
X253946850Y-113462742D02*
X253946850Y-113937258D01*
X254991850Y-113462742D02*
X254991850Y-113937258D01*
%TO.C,R48*%
X210966608Y-131177500D02*
X210492092Y-131177500D01*
X210966608Y-132222500D02*
X210492092Y-132222500D01*
%TO.C,D44*%
X89446844Y-46050000D02*
X89446844Y-42200000D01*
X91446844Y-45250000D02*
X89446844Y-45250000D01*
X91446844Y-46050000D02*
X89446844Y-46050000D01*
X91446844Y-46050000D02*
X91446844Y-42200000D01*
%TO.C,R35*%
X261546850Y-113462742D02*
X261546850Y-113937258D01*
X262591850Y-113462742D02*
X262591850Y-113937258D01*
%TO.C,R34*%
X233846850Y-54462742D02*
X233846850Y-54937258D01*
X234891850Y-54462742D02*
X234891850Y-54937258D01*
%TO.C,R110*%
X153374344Y-33812742D02*
X153374344Y-34287258D01*
X154419344Y-33812742D02*
X154419344Y-34287258D01*
%TO.C,D106*%
X169896844Y-99250000D02*
X171746844Y-99250000D01*
X169896844Y-100450000D02*
X171746844Y-100450000D01*
X171246844Y-99250000D02*
X171246844Y-100450000D01*
X171746844Y-99250000D02*
X171746844Y-100450000D01*
%TO.C,R106*%
X148524586Y-123627500D02*
X148999102Y-123627500D01*
X148524586Y-124672500D02*
X148999102Y-124672500D01*
%TO.C,D28*%
X94311844Y-68950000D02*
X94311844Y-72800000D01*
X94311844Y-68950000D02*
X96311844Y-68950000D01*
X94311844Y-69750000D02*
X96311844Y-69750000D01*
X96311844Y-68950000D02*
X96311844Y-72800000D01*
%TO.C,D60*%
X114261844Y-123450000D02*
X114261844Y-127300000D01*
X114261844Y-123450000D02*
X116261844Y-123450000D01*
X114261844Y-124250000D02*
X116261844Y-124250000D01*
X116261844Y-123450000D02*
X116261844Y-127300000D01*
%TO.C,D33*%
X107849350Y-117100000D02*
X107849350Y-115900000D01*
X108349350Y-117100000D02*
X108349350Y-115900000D01*
X109699350Y-115900000D02*
X107849350Y-115900000D01*
X109699350Y-117100000D02*
X107849350Y-117100000D01*
%TO.C,D50*%
X89896844Y-40250000D02*
X91746844Y-40250000D01*
X89896844Y-41450000D02*
X91746844Y-41450000D01*
X91246844Y-40250000D02*
X91246844Y-41450000D01*
X91746844Y-40250000D02*
X91746844Y-41450000D01*
%TO.C,D12*%
X42246850Y-124950000D02*
X42246850Y-128800000D01*
X42246850Y-124950000D02*
X44246850Y-124950000D01*
X42246850Y-125750000D02*
X44246850Y-125750000D01*
X44246850Y-124950000D02*
X44246850Y-128800000D01*
%TO.C,R37*%
X256546850Y-113462742D02*
X256546850Y-113937258D01*
X257591850Y-113462742D02*
X257591850Y-113937258D01*
%TO.C,R68*%
X93374344Y-33812742D02*
X93374344Y-34287258D01*
X94419344Y-33812742D02*
X94419344Y-34287258D01*
%TO.C,D52*%
X84446844Y-106850000D02*
X86296844Y-106850000D01*
X84446844Y-108050000D02*
X86296844Y-108050000D01*
X85796844Y-106850000D02*
X85796844Y-108050000D01*
X86296844Y-106850000D02*
X86296844Y-108050000D01*
%TO.C,R57*%
X71034102Y-97827500D02*
X70559586Y-97827500D01*
X71034102Y-98872500D02*
X70559586Y-98872500D01*
%TO.C,R143*%
X250346850Y-54462742D02*
X250346850Y-54937258D01*
X251391850Y-54462742D02*
X251391850Y-54937258D01*
%TO.C,U15*%
X121251844Y-124360000D02*
X122661844Y-124360000D01*
X121261844Y-122040000D02*
X122661844Y-122040000D01*
X121121844Y-124640000D02*
X120641844Y-124640000D01*
X120881844Y-124310000D01*
X121121844Y-124640000D01*
G36*
X121121844Y-124640000D02*
G01*
X120641844Y-124640000D01*
X120881844Y-124310000D01*
X121121844Y-124640000D01*
G37*
%TO.C,R16*%
X68524586Y-123627500D02*
X68999102Y-123627500D01*
X68524586Y-124672500D02*
X68999102Y-124672500D01*
%TO.C,R100*%
X130724344Y-91012742D02*
X130724344Y-91487258D01*
X131769344Y-91012742D02*
X131769344Y-91487258D01*
%TO.C,D11*%
X37381850Y-43050000D02*
X37381850Y-39200000D01*
X39381850Y-42250000D02*
X37381850Y-42250000D01*
X39381850Y-43050000D02*
X37381850Y-43050000D01*
X39381850Y-43050000D02*
X39381850Y-39200000D01*
%TO.C,R18*%
X70559586Y-96327500D02*
X71034102Y-96327500D01*
X70559586Y-97372500D02*
X71034102Y-97372500D01*
%TO.C,R129*%
X183449102Y-73627500D02*
X182974586Y-73627500D01*
X183449102Y-74672500D02*
X182974586Y-74672500D01*
%TO.C,R138*%
X193374344Y-92812742D02*
X193374344Y-93287258D01*
X194419344Y-92812742D02*
X194419344Y-93287258D01*
%TO.C,R91*%
X128999102Y-120427500D02*
X128524586Y-120427500D01*
X128999102Y-121472500D02*
X128524586Y-121472500D01*
%TO.C,R95*%
X130559586Y-97827500D02*
X131034102Y-97827500D01*
X130559586Y-98872500D02*
X131034102Y-98872500D01*
D11*
%TO.C,Q27*%
X170761844Y-119950000D02*
X170761844Y-120400000D01*
X171261844Y-119950000D02*
X170761844Y-119950000D01*
D10*
%TO.C,R58*%
X39274350Y-136712742D02*
X39274350Y-137187258D01*
X40319350Y-136712742D02*
X40319350Y-137187258D01*
%TO.C,R3*%
X44694592Y-49527500D02*
X45169108Y-49527500D01*
X44694592Y-50572500D02*
X45169108Y-50572500D01*
%TO.C,D103*%
X174311844Y-68950000D02*
X174311844Y-72800000D01*
X174311844Y-68950000D02*
X176311844Y-68950000D01*
X174311844Y-69750000D02*
X176311844Y-69750000D01*
X176311844Y-68950000D02*
X176311844Y-72800000D01*
%TO.C,D108*%
X164446844Y-47850000D02*
X166296844Y-47850000D01*
X164446844Y-49050000D02*
X166296844Y-49050000D01*
X165796844Y-47850000D02*
X165796844Y-49050000D01*
X166296844Y-47850000D02*
X166296844Y-49050000D01*
%TO.C,R30*%
X225146850Y-113462742D02*
X225146850Y-113937258D01*
X226191850Y-113462742D02*
X226191850Y-113937258D01*
%TO.C,D98*%
X162561844Y-124950000D02*
X162561844Y-128800000D01*
X162561844Y-124950000D02*
X164561844Y-124950000D01*
X162561844Y-125750000D02*
X164561844Y-125750000D01*
X164561844Y-124950000D02*
X164561844Y-128800000D01*
%TO.C,D71*%
X122261844Y-130750000D02*
X122261844Y-129550000D01*
X122761844Y-130750000D02*
X122761844Y-129550000D01*
X124111844Y-129550000D02*
X122261844Y-129550000D01*
X124111844Y-130750000D02*
X122261844Y-130750000D01*
%TO.C,D84*%
X142561844Y-124950000D02*
X142561844Y-128800000D01*
X142561844Y-124950000D02*
X144561844Y-124950000D01*
X142561844Y-125750000D02*
X144561844Y-125750000D01*
X144561844Y-124950000D02*
X144561844Y-128800000D01*
D11*
%TO.C,Q29*%
X162746844Y-110050000D02*
X163246844Y-110050000D01*
X163246844Y-110050000D02*
X163246844Y-109600000D01*
D10*
%TO.C,R58*%
X39274350Y-77712742D02*
X39274350Y-78187258D01*
X40319350Y-77712742D02*
X40319350Y-78187258D01*
%TO.C,R8*%
X68552092Y-58577500D02*
X69026608Y-58577500D01*
X68552092Y-59622500D02*
X69026608Y-59622500D01*
%TO.C,D11*%
X37381850Y-102050000D02*
X37381850Y-98200000D01*
X39381850Y-101250000D02*
X37381850Y-101250000D01*
X39381850Y-102050000D02*
X37381850Y-102050000D01*
X39381850Y-102050000D02*
X39381850Y-98200000D01*
%TO.C,R133*%
X188999102Y-61427500D02*
X188524586Y-61427500D01*
X188999102Y-62472500D02*
X188524586Y-62472500D01*
%TO.C,R82*%
X113374344Y-33812742D02*
X113374344Y-34287258D01*
X114419344Y-33812742D02*
X114419344Y-34287258D01*
%TO.C,D103*%
X174311844Y-127950000D02*
X174311844Y-131800000D01*
X174311844Y-127950000D02*
X176311844Y-127950000D01*
X174311844Y-128750000D02*
X176311844Y-128750000D01*
X176311844Y-127950000D02*
X176311844Y-131800000D01*
%TO.C,R84*%
X105009586Y-108527500D02*
X105484102Y-108527500D01*
X105009586Y-109572500D02*
X105484102Y-109572500D01*
%TO.C,R11*%
X41252092Y-61477500D02*
X41726608Y-61477500D01*
X41252092Y-62522500D02*
X41726608Y-62522500D01*
%TO.C,D56*%
X102561844Y-65950000D02*
X102561844Y-69800000D01*
X102561844Y-65950000D02*
X104561844Y-65950000D01*
X102561844Y-66750000D02*
X104561844Y-66750000D01*
X104561844Y-65950000D02*
X104561844Y-69800000D01*
%TO.C,D48*%
X69896844Y-40250000D02*
X71746844Y-40250000D01*
X69896844Y-41450000D02*
X71746844Y-41450000D01*
X71246844Y-40250000D02*
X71246844Y-41450000D01*
X71746844Y-40250000D02*
X71746844Y-41450000D01*
%TO.C,R84*%
X105009586Y-49527500D02*
X105484102Y-49527500D01*
X105009586Y-50572500D02*
X105484102Y-50572500D01*
%TO.C,R122*%
X170559586Y-96327500D02*
X171034102Y-96327500D01*
X170559586Y-97372500D02*
X171034102Y-97372500D01*
%TO.C,R141*%
X185484102Y-46327500D02*
X185009586Y-46327500D01*
X185484102Y-47372500D02*
X185009586Y-47372500D01*
%TO.C,D105*%
X169446844Y-105050000D02*
X169446844Y-101200000D01*
X171446844Y-104250000D02*
X169446844Y-104250000D01*
X171446844Y-105050000D02*
X169446844Y-105050000D01*
X171446844Y-105050000D02*
X171446844Y-101200000D01*
%TO.C,U6*%
X52431850Y-48960000D02*
X51031850Y-48960000D01*
X52441850Y-46640000D02*
X51031850Y-46640000D01*
X52811850Y-46690000D02*
X52571850Y-46360000D01*
X53051850Y-46360000D01*
X52811850Y-46690000D01*
G36*
X52811850Y-46690000D02*
G01*
X52571850Y-46360000D01*
X53051850Y-46360000D01*
X52811850Y-46690000D01*
G37*
%TO.C,R27*%
X149072092Y-58477500D02*
X149546608Y-58477500D01*
X149072092Y-59522500D02*
X149546608Y-59522500D01*
%TO.C,D3*%
X44131850Y-106850000D02*
X45981850Y-106850000D01*
X44131850Y-108050000D02*
X45981850Y-108050000D01*
X45481850Y-106850000D02*
X45481850Y-108050000D01*
X45981850Y-106850000D02*
X45981850Y-108050000D01*
D11*
%TO.C,Q27*%
X170761844Y-60950000D02*
X170761844Y-61400000D01*
X171261844Y-60950000D02*
X170761844Y-60950000D01*
D10*
%TO.C,R6*%
X48209592Y-64627500D02*
X48684108Y-64627500D01*
X48209592Y-65672500D02*
X48684108Y-65672500D01*
%TO.C,U16*%
X132746844Y-107960000D02*
X131346844Y-107960000D01*
X132756844Y-105640000D02*
X131346844Y-105640000D01*
X133126844Y-105690000D02*
X132886844Y-105360000D01*
X133366844Y-105360000D01*
X133126844Y-105690000D01*
G36*
X133126844Y-105690000D02*
G01*
X132886844Y-105360000D01*
X133366844Y-105360000D01*
X133126844Y-105690000D01*
G37*
%TO.C,R4*%
X41924350Y-79987258D02*
X41924350Y-79512742D01*
X42969350Y-79987258D02*
X42969350Y-79512742D01*
%TO.C,R31*%
X227646850Y-113462742D02*
X227646850Y-113937258D01*
X228691850Y-113462742D02*
X228691850Y-113937258D01*
%TO.C,R68*%
X93374344Y-92812742D02*
X93374344Y-93287258D01*
X94419344Y-92812742D02*
X94419344Y-93287258D01*
%TO.C,U17*%
X141251844Y-124360000D02*
X142661844Y-124360000D01*
X141261844Y-122040000D02*
X142661844Y-122040000D01*
X141121844Y-124640000D02*
X140641844Y-124640000D01*
X140881844Y-124310000D01*
X141121844Y-124640000D01*
G36*
X141121844Y-124640000D02*
G01*
X140641844Y-124640000D01*
X140881844Y-124310000D01*
X141121844Y-124640000D01*
G37*
%TO.C,R9*%
X43134108Y-132627500D02*
X42659592Y-132627500D01*
X43134108Y-133672500D02*
X42659592Y-133672500D01*
%TO.C,R64*%
X88524586Y-123627500D02*
X88999102Y-123627500D01*
X88524586Y-124672500D02*
X88999102Y-124672500D01*
%TO.C,R79*%
X102239344Y-138987258D02*
X102239344Y-138512742D01*
X103284344Y-138987258D02*
X103284344Y-138512742D01*
%TO.C,R39*%
X231346850Y-113462742D02*
X231346850Y-113937258D01*
X232391850Y-113462742D02*
X232391850Y-113937258D01*
%TO.C,D119*%
X189446844Y-46050000D02*
X189446844Y-42200000D01*
X191446844Y-45250000D02*
X189446844Y-45250000D01*
X191446844Y-46050000D02*
X189446844Y-46050000D01*
X191446844Y-46050000D02*
X191446844Y-42200000D01*
%TO.C,R114*%
X150724344Y-32012742D02*
X150724344Y-32487258D01*
X151769344Y-32012742D02*
X151769344Y-32487258D01*
%TO.C,R3*%
X44694592Y-108527500D02*
X45169108Y-108527500D01*
X44694592Y-109572500D02*
X45169108Y-109572500D01*
%TO.C,R124*%
X173374344Y-33812742D02*
X173374344Y-34287258D01*
X174419344Y-33812742D02*
X174419344Y-34287258D01*
%TO.C,D36*%
X208579350Y-98125000D02*
X208579350Y-93875000D01*
X208579350Y-98125000D02*
X213389350Y-98125000D01*
X213389350Y-93875000D02*
X208579350Y-93875000D01*
%TO.C,R83*%
X112426608Y-49477500D02*
X111952092Y-49477500D01*
X112426608Y-50522500D02*
X111952092Y-50522500D01*
%TO.C,R133*%
X188999102Y-120427500D02*
X188524586Y-120427500D01*
X188999102Y-121472500D02*
X188524586Y-121472500D01*
%TO.C,R117*%
X159589344Y-137187258D02*
X159589344Y-136712742D01*
X160634344Y-137187258D02*
X160634344Y-136712742D01*
%TO.C,R35*%
X261546850Y-54462742D02*
X261546850Y-54937258D01*
X262591850Y-54462742D02*
X262591850Y-54937258D01*
%TO.C,R143*%
X250346850Y-113462742D02*
X250346850Y-113937258D01*
X251391850Y-113462742D02*
X251391850Y-113937258D01*
%TO.C,U8*%
X213369350Y-67750000D02*
X213369350Y-69150000D01*
X215689350Y-67750000D02*
X215689350Y-69160000D01*
X215969350Y-69770000D02*
X215639350Y-69530000D01*
X215969350Y-69290000D01*
X215969350Y-69770000D01*
G36*
X215969350Y-69770000D02*
G01*
X215639350Y-69530000D01*
X215969350Y-69290000D01*
X215969350Y-69770000D01*
G37*
%TO.C,D54*%
X77696844Y-43050000D02*
X77696844Y-39200000D01*
X79696844Y-42250000D02*
X77696844Y-42250000D01*
X79696844Y-43050000D02*
X77696844Y-43050000D01*
X79696844Y-43050000D02*
X79696844Y-39200000D01*
%TO.C,R122*%
X170559586Y-37327500D02*
X171034102Y-37327500D01*
X170559586Y-38372500D02*
X171034102Y-38372500D01*
%TO.C,D88*%
X154261844Y-123450000D02*
X154261844Y-127300000D01*
X154261844Y-123450000D02*
X156261844Y-123450000D01*
X154261844Y-124250000D02*
X156261844Y-124250000D01*
X156261844Y-123450000D02*
X156261844Y-127300000D01*
%TO.C,R60*%
X59589344Y-137187258D02*
X59589344Y-136712742D01*
X60634344Y-137187258D02*
X60634344Y-136712742D01*
%TO.C,R43*%
X213976608Y-46377500D02*
X213502092Y-46377500D01*
X213976608Y-47422500D02*
X213502092Y-47422500D01*
%TO.C,R21*%
X65484102Y-105327500D02*
X65009586Y-105327500D01*
X65484102Y-106372500D02*
X65009586Y-106372500D01*
%TO.C,U11*%
X81251844Y-65360000D02*
X82661844Y-65360000D01*
X81261844Y-63040000D02*
X82661844Y-63040000D01*
X81121844Y-65640000D02*
X80641844Y-65640000D01*
X80881844Y-65310000D01*
X81121844Y-65640000D01*
G36*
X81121844Y-65640000D02*
G01*
X80641844Y-65640000D01*
X80881844Y-65310000D01*
X81121844Y-65640000D01*
G37*
%TO.C,R20*%
X65009586Y-49527500D02*
X65484102Y-49527500D01*
X65009586Y-50572500D02*
X65484102Y-50572500D01*
%TO.C,R98*%
X125009586Y-49527500D02*
X125484102Y-49527500D01*
X125009586Y-50572500D02*
X125484102Y-50572500D01*
%TO.C,R126*%
X165009586Y-108527500D02*
X165484102Y-108527500D01*
X165009586Y-109572500D02*
X165484102Y-109572500D01*
%TO.C,R41*%
X213976608Y-103827500D02*
X213502092Y-103827500D01*
X213976608Y-104872500D02*
X213502092Y-104872500D01*
%TO.C,D78*%
X129896844Y-99250000D02*
X131746844Y-99250000D01*
X129896844Y-100450000D02*
X131746844Y-100450000D01*
X131246844Y-99250000D02*
X131246844Y-100450000D01*
X131746844Y-99250000D02*
X131746844Y-100450000D01*
%TO.C,U6*%
X52431850Y-107960000D02*
X51031850Y-107960000D01*
X52441850Y-105640000D02*
X51031850Y-105640000D01*
X52811850Y-105690000D02*
X52571850Y-105360000D01*
X53051850Y-105360000D01*
X52811850Y-105690000D01*
G36*
X52811850Y-105690000D02*
G01*
X52571850Y-105360000D01*
X53051850Y-105360000D01*
X52811850Y-105690000D01*
G37*
%TO.C,D22*%
X57746844Y-106550000D02*
X57746844Y-102700000D01*
X59746844Y-105750000D02*
X57746844Y-105750000D01*
X59746844Y-106550000D02*
X57746844Y-106550000D01*
X59746844Y-106550000D02*
X59746844Y-102700000D01*
%TO.C,R16*%
X68524586Y-64627500D02*
X68999102Y-64627500D01*
X68524586Y-65672500D02*
X68999102Y-65672500D01*
%TO.C,D53*%
X77746844Y-106550000D02*
X77746844Y-102700000D01*
X79746844Y-105750000D02*
X77746844Y-105750000D01*
X79746844Y-106550000D02*
X77746844Y-106550000D01*
X79746844Y-106550000D02*
X79746844Y-102700000D01*
%TO.C,R123*%
X170559586Y-97827500D02*
X171034102Y-97827500D01*
X170559586Y-98872500D02*
X171034102Y-98872500D01*
%TO.C,D67*%
X97746844Y-47550000D02*
X97746844Y-43700000D01*
X99746844Y-46750000D02*
X97746844Y-46750000D01*
X99746844Y-47550000D02*
X97746844Y-47550000D01*
X99746844Y-47550000D02*
X99746844Y-43700000D01*
%TO.C,R92*%
X128524586Y-64627500D02*
X128999102Y-64627500D01*
X128524586Y-65672500D02*
X128999102Y-65672500D01*
%TO.C,R87*%
X123449102Y-73627500D02*
X122974586Y-73627500D01*
X123449102Y-74672500D02*
X122974586Y-74672500D01*
%TO.C,D108*%
X164446844Y-106850000D02*
X166296844Y-106850000D01*
X164446844Y-108050000D02*
X166296844Y-108050000D01*
X165796844Y-106850000D02*
X165796844Y-108050000D01*
X166296844Y-106850000D02*
X166296844Y-108050000D01*
%TO.C,R22*%
X70724344Y-91012742D02*
X70724344Y-91487258D01*
X71769344Y-91012742D02*
X71769344Y-91487258D01*
%TO.C,R139*%
X192426608Y-108477500D02*
X191952092Y-108477500D01*
X192426608Y-109522500D02*
X191952092Y-109522500D01*
%TO.C,D64*%
X109896844Y-99250000D02*
X111746844Y-99250000D01*
X109896844Y-100450000D02*
X111746844Y-100450000D01*
X111246844Y-99250000D02*
X111246844Y-100450000D01*
X111746844Y-99250000D02*
X111746844Y-100450000D01*
%TO.C,R136*%
X190559586Y-37327500D02*
X191034102Y-37327500D01*
X190559586Y-38372500D02*
X191034102Y-38372500D01*
%TO.C,R20*%
X65009586Y-108527500D02*
X65484102Y-108527500D01*
X65009586Y-109572500D02*
X65484102Y-109572500D01*
%TO.C,D89*%
X154311844Y-68950000D02*
X154311844Y-72800000D01*
X154311844Y-68950000D02*
X156311844Y-68950000D01*
X154311844Y-69750000D02*
X156311844Y-69750000D01*
X156311844Y-68950000D02*
X156311844Y-72800000D01*
%TO.C,D109*%
X157746844Y-47550000D02*
X157746844Y-43700000D01*
X159746844Y-46750000D02*
X157746844Y-46750000D01*
X159746844Y-47550000D02*
X157746844Y-47550000D01*
X159746844Y-47550000D02*
X159746844Y-43700000D01*
%TO.C,R132*%
X181652092Y-120477500D02*
X182126608Y-120477500D01*
X181652092Y-121522500D02*
X182126608Y-121522500D01*
%TO.C,U11*%
X81251844Y-124360000D02*
X82661844Y-124360000D01*
X81261844Y-122040000D02*
X82661844Y-122040000D01*
X81121844Y-124640000D02*
X80641844Y-124640000D01*
X80881844Y-124310000D01*
X81121844Y-124640000D01*
G36*
X81121844Y-124640000D02*
G01*
X80641844Y-124640000D01*
X80881844Y-124310000D01*
X81121844Y-124640000D01*
G37*
%TO.C,D16*%
X211339350Y-53950000D02*
X211339350Y-59650000D01*
X211339350Y-53950000D02*
X215639350Y-53950000D01*
D12*
X211439350Y-55500000D02*
X215539350Y-55500000D01*
D10*
X215639350Y-53950000D02*
X215639350Y-59650000D01*
%TO.C,R113*%
X145484102Y-46327500D02*
X145009586Y-46327500D01*
X145484102Y-47372500D02*
X145009586Y-47372500D01*
%TO.C,R10*%
X50244592Y-37327500D02*
X50719108Y-37327500D01*
X50244592Y-38372500D02*
X50719108Y-38372500D01*
%TO.C,D99*%
X162261844Y-71750000D02*
X162261844Y-70550000D01*
X162761844Y-71750000D02*
X162761844Y-70550000D01*
X164111844Y-70550000D02*
X162261844Y-70550000D01*
X164111844Y-71750000D02*
X162261844Y-71750000D01*
%TO.C,U16*%
X132746844Y-48960000D02*
X131346844Y-48960000D01*
X132756844Y-46640000D02*
X131346844Y-46640000D01*
X133126844Y-46690000D02*
X132886844Y-46360000D01*
X133366844Y-46360000D01*
X133126844Y-46690000D01*
G36*
X133126844Y-46690000D02*
G01*
X132886844Y-46360000D01*
X133366844Y-46360000D01*
X133126844Y-46690000D01*
G37*
D11*
%TO.C,Q25*%
X142746844Y-110050000D02*
X143246844Y-110050000D01*
X143246844Y-110050000D02*
X143246844Y-109600000D01*
D10*
%TO.C,R125*%
X172426608Y-108477500D02*
X171952092Y-108477500D01*
X172426608Y-109522500D02*
X171952092Y-109522500D01*
%TO.C,U18*%
X152746844Y-107960000D02*
X151346844Y-107960000D01*
X152756844Y-105640000D02*
X151346844Y-105640000D01*
X153126844Y-105690000D02*
X152886844Y-105360000D01*
X153366844Y-105360000D01*
X153126844Y-105690000D01*
G36*
X153126844Y-105690000D02*
G01*
X152886844Y-105360000D01*
X153366844Y-105360000D01*
X153126844Y-105690000D01*
G37*
%TO.C,R83*%
X112426608Y-108477500D02*
X111952092Y-108477500D01*
X112426608Y-109522500D02*
X111952092Y-109522500D01*
%TO.C,R114*%
X150724344Y-91012742D02*
X150724344Y-91487258D01*
X151769344Y-91012742D02*
X151769344Y-91487258D01*
%TO.C,R146*%
X242646850Y-54462742D02*
X242646850Y-54937258D01*
X243691850Y-54462742D02*
X243691850Y-54937258D01*
%TO.C,R103*%
X139589344Y-78187258D02*
X139589344Y-77712742D01*
X140634344Y-78187258D02*
X140634344Y-77712742D01*
%TO.C,D57*%
X102261844Y-71750000D02*
X102261844Y-70550000D01*
X102761844Y-71750000D02*
X102761844Y-70550000D01*
X104111844Y-70550000D02*
X102261844Y-70550000D01*
X104111844Y-71750000D02*
X102261844Y-71750000D01*
%TO.C,R136*%
X190559586Y-96327500D02*
X191034102Y-96327500D01*
X190559586Y-97372500D02*
X191034102Y-97372500D01*
%TO.C,R109*%
X150559586Y-97827500D02*
X151034102Y-97827500D01*
X150559586Y-98872500D02*
X151034102Y-98872500D01*
%TO.C,R94*%
X130559586Y-96327500D02*
X131034102Y-96327500D01*
X130559586Y-97372500D02*
X131034102Y-97372500D01*
%TO.C,D73*%
X127711844Y-64150000D02*
X127711844Y-62950000D01*
X128211844Y-64150000D02*
X128211844Y-62950000D01*
X129561844Y-62950000D02*
X127711844Y-62950000D01*
X129561844Y-64150000D02*
X127711844Y-64150000D01*
%TO.C,R2*%
X48684108Y-61427500D02*
X48209592Y-61427500D01*
X48684108Y-62472500D02*
X48209592Y-62472500D01*
%TO.C,D14*%
X62561844Y-65950000D02*
X62561844Y-69800000D01*
X62561844Y-65950000D02*
X64561844Y-65950000D01*
X62561844Y-66750000D02*
X64561844Y-66750000D01*
X64561844Y-65950000D02*
X64561844Y-69800000D01*
%TO.C,R65*%
X82239344Y-79987258D02*
X82239344Y-79512742D01*
X83284344Y-79987258D02*
X83284344Y-79512742D01*
%TO.C,R135*%
X182239344Y-138987258D02*
X182239344Y-138512742D01*
X183284344Y-138987258D02*
X183284344Y-138512742D01*
%TO.C,U22*%
X192746844Y-48960000D02*
X191346844Y-48960000D01*
X192756844Y-46640000D02*
X191346844Y-46640000D01*
X193126844Y-46690000D02*
X192886844Y-46360000D01*
X193366844Y-46360000D01*
X193126844Y-46690000D01*
G36*
X193126844Y-46690000D02*
G01*
X192886844Y-46360000D01*
X193366844Y-46360000D01*
X193126844Y-46690000D01*
G37*
%TO.C,R137*%
X190559586Y-38827500D02*
X191034102Y-38827500D01*
X190559586Y-39872500D02*
X191034102Y-39872500D01*
%TO.C,R75*%
X99589344Y-137187258D02*
X99589344Y-136712742D01*
X100634344Y-137187258D02*
X100634344Y-136712742D01*
%TO.C,D123*%
X177746844Y-47550000D02*
X177746844Y-43700000D01*
X179746844Y-46750000D02*
X177746844Y-46750000D01*
X179746844Y-47550000D02*
X177746844Y-47550000D01*
X179746844Y-47550000D02*
X179746844Y-43700000D01*
%TO.C,D20*%
X69446844Y-46050000D02*
X69446844Y-42200000D01*
X71446844Y-45250000D02*
X69446844Y-45250000D01*
X71446844Y-46050000D02*
X69446844Y-46050000D01*
X71446844Y-46050000D02*
X71446844Y-42200000D01*
%TO.C,D23*%
X57696844Y-43050000D02*
X57696844Y-39200000D01*
X59696844Y-42250000D02*
X57696844Y-42250000D01*
X59696844Y-43050000D02*
X57696844Y-43050000D01*
X59696844Y-43050000D02*
X59696844Y-39200000D01*
%TO.C,D113*%
X182261844Y-130750000D02*
X182261844Y-129550000D01*
X182761844Y-130750000D02*
X182761844Y-129550000D01*
X184111844Y-129550000D02*
X182261844Y-129550000D01*
X184111844Y-130750000D02*
X182261844Y-130750000D01*
%TO.C,D66*%
X104446844Y-106850000D02*
X106296844Y-106850000D01*
X104446844Y-108050000D02*
X106296844Y-108050000D01*
X105796844Y-106850000D02*
X105796844Y-108050000D01*
X106296844Y-106850000D02*
X106296844Y-108050000D01*
%TO.C,R78*%
X108524586Y-64627500D02*
X108999102Y-64627500D01*
X108524586Y-65672500D02*
X108999102Y-65672500D01*
%TO.C,D36*%
X208579350Y-39125000D02*
X208579350Y-34875000D01*
X208579350Y-39125000D02*
X213389350Y-39125000D01*
X213389350Y-34875000D02*
X208579350Y-34875000D01*
%TO.C,D27*%
X94261844Y-123450000D02*
X94261844Y-127300000D01*
X94261844Y-123450000D02*
X96261844Y-123450000D01*
X94261844Y-124250000D02*
X96261844Y-124250000D01*
X96261844Y-123450000D02*
X96261844Y-127300000D01*
%TO.C,R134*%
X188524586Y-123627500D02*
X188999102Y-123627500D01*
X188524586Y-124672500D02*
X188999102Y-124672500D01*
%TO.C,D77*%
X129446844Y-46050000D02*
X129446844Y-42200000D01*
X131446844Y-45250000D02*
X129446844Y-45250000D01*
X131446844Y-46050000D02*
X129446844Y-46050000D01*
X131446844Y-46050000D02*
X131446844Y-42200000D01*
%TO.C,R107*%
X142239344Y-79987258D02*
X142239344Y-79512742D01*
X143284344Y-79987258D02*
X143284344Y-79512742D01*
%TO.C,R13*%
X63449102Y-132627500D02*
X62974586Y-132627500D01*
X63449102Y-133672500D02*
X62974586Y-133672500D01*
%TO.C,R128*%
X170724344Y-91012742D02*
X170724344Y-91487258D01*
X171769344Y-91012742D02*
X171769344Y-91487258D01*
%TO.C,D15*%
X67711844Y-64150000D02*
X67711844Y-62950000D01*
X68211844Y-64150000D02*
X68211844Y-62950000D01*
X69561844Y-62950000D02*
X67711844Y-62950000D01*
X69561844Y-64150000D02*
X67711844Y-64150000D01*
D11*
%TO.C,Q21*%
X122746844Y-110050000D02*
X123246844Y-110050000D01*
X123246844Y-110050000D02*
X123246844Y-109600000D01*
D10*
%TO.C,D15*%
X67711844Y-123150000D02*
X67711844Y-121950000D01*
X68211844Y-123150000D02*
X68211844Y-121950000D01*
X69561844Y-121950000D02*
X67711844Y-121950000D01*
X69561844Y-123150000D02*
X67711844Y-123150000D01*
%TO.C,D56*%
X102561844Y-124950000D02*
X102561844Y-128800000D01*
X102561844Y-124950000D02*
X104561844Y-124950000D01*
X102561844Y-125750000D02*
X104561844Y-125750000D01*
X104561844Y-124950000D02*
X104561844Y-128800000D01*
%TO.C,R142*%
X190724344Y-91012742D02*
X190724344Y-91487258D01*
X191769344Y-91012742D02*
X191769344Y-91487258D01*
%TO.C,R12*%
X52126608Y-108477500D02*
X51652092Y-108477500D01*
X52126608Y-109522500D02*
X51652092Y-109522500D01*
%TO.C,R86*%
X110724344Y-32012742D02*
X110724344Y-32487258D01*
X111769344Y-32012742D02*
X111769344Y-32487258D01*
%TO.C,R104*%
X141752092Y-120477500D02*
X142226608Y-120477500D01*
X141752092Y-121522500D02*
X142226608Y-121522500D01*
%TO.C,R38*%
X220046850Y-54462742D02*
X220046850Y-54937258D01*
X221091850Y-54462742D02*
X221091850Y-54937258D01*
%TO.C,R61*%
X73374344Y-92812742D02*
X73374344Y-93287258D01*
X74419344Y-92812742D02*
X74419344Y-93287258D01*
%TO.C,R34*%
X233846850Y-113462742D02*
X233846850Y-113937258D01*
X234891850Y-113462742D02*
X234891850Y-113937258D01*
%TO.C,D10*%
X53996850Y-68950000D02*
X53996850Y-72800000D01*
X53996850Y-68950000D02*
X55996850Y-68950000D01*
X53996850Y-69750000D02*
X55996850Y-69750000D01*
X55996850Y-68950000D02*
X55996850Y-72800000D01*
D11*
%TO.C,Q19*%
X130761844Y-119950000D02*
X130761844Y-120400000D01*
X131261844Y-119950000D02*
X130761844Y-119950000D01*
D10*
%TO.C,D115*%
X187711844Y-123150000D02*
X187711844Y-121950000D01*
X188211844Y-123150000D02*
X188211844Y-121950000D01*
X189561844Y-121950000D02*
X187711844Y-121950000D01*
X189561844Y-123150000D02*
X187711844Y-123150000D01*
%TO.C,R50*%
X83449102Y-73627500D02*
X82974586Y-73627500D01*
X83449102Y-74672500D02*
X82974586Y-74672500D01*
D11*
%TO.C,Q33*%
X182746844Y-51050000D02*
X183246844Y-51050000D01*
X183246844Y-51050000D02*
X183246844Y-50600000D01*
D10*
%TO.C,D80*%
X124446844Y-106850000D02*
X126296844Y-106850000D01*
X124446844Y-108050000D02*
X126296844Y-108050000D01*
X125796844Y-106850000D02*
X125796844Y-108050000D01*
X126296844Y-106850000D02*
X126296844Y-108050000D01*
%TO.C,R56*%
X63449102Y-72127500D02*
X62974586Y-72127500D01*
X63449102Y-73172500D02*
X62974586Y-73172500D01*
%TO.C,R135*%
X182239344Y-79987258D02*
X182239344Y-79512742D01*
X183284344Y-79987258D02*
X183284344Y-79512742D01*
%TO.C,D63*%
X109446844Y-105050000D02*
X109446844Y-101200000D01*
X111446844Y-104250000D02*
X109446844Y-104250000D01*
X111446844Y-105050000D02*
X109446844Y-105050000D01*
X111446844Y-105050000D02*
X111446844Y-101200000D01*
%TO.C,U15*%
X121251844Y-65360000D02*
X122661844Y-65360000D01*
X121261844Y-63040000D02*
X122661844Y-63040000D01*
X121121844Y-65640000D02*
X120641844Y-65640000D01*
X120881844Y-65310000D01*
X121121844Y-65640000D01*
G36*
X121121844Y-65640000D02*
G01*
X120641844Y-65640000D01*
X120881844Y-65310000D01*
X121121844Y-65640000D01*
G37*
%TO.C,D53*%
X77746844Y-47550000D02*
X77746844Y-43700000D01*
X79746844Y-46750000D02*
X77746844Y-46750000D01*
X79746844Y-47550000D02*
X77746844Y-47550000D01*
X79746844Y-47550000D02*
X79746844Y-43700000D01*
%TO.C,R138*%
X193374344Y-33812742D02*
X193374344Y-34287258D01*
X194419344Y-33812742D02*
X194419344Y-34287258D01*
%TO.C,D33*%
X107849350Y-58100000D02*
X107849350Y-56900000D01*
X108349350Y-58100000D02*
X108349350Y-56900000D01*
X109699350Y-56900000D02*
X107849350Y-56900000D01*
X109699350Y-58100000D02*
X107849350Y-58100000D01*
%TO.C,R102*%
X143449102Y-72127500D02*
X142974586Y-72127500D01*
X143449102Y-73172500D02*
X142974586Y-73172500D01*
%TO.C,R108*%
X150559586Y-96327500D02*
X151034102Y-96327500D01*
X150559586Y-97372500D02*
X151034102Y-97372500D01*
%TO.C,D46*%
X49581850Y-99250000D02*
X51431850Y-99250000D01*
X49581850Y-100450000D02*
X51431850Y-100450000D01*
X50931850Y-99250000D02*
X50931850Y-100450000D01*
X51431850Y-99250000D02*
X51431850Y-100450000D01*
%TO.C,D64*%
X109896844Y-40250000D02*
X111746844Y-40250000D01*
X109896844Y-41450000D02*
X111746844Y-41450000D01*
X111246844Y-40250000D02*
X111246844Y-41450000D01*
X111746844Y-40250000D02*
X111746844Y-41450000D01*
%TO.C,R131*%
X179589344Y-137187258D02*
X179589344Y-136712742D01*
X180634344Y-137187258D02*
X180634344Y-136712742D01*
%TO.C,U18*%
X152746844Y-48960000D02*
X151346844Y-48960000D01*
X152756844Y-46640000D02*
X151346844Y-46640000D01*
X153126844Y-46690000D02*
X152886844Y-46360000D01*
X153366844Y-46360000D01*
X153126844Y-46690000D01*
G36*
X153126844Y-46690000D02*
G01*
X152886844Y-46360000D01*
X153366844Y-46360000D01*
X153126844Y-46690000D01*
G37*
%TO.C,U7*%
X61251844Y-65360000D02*
X62661844Y-65360000D01*
X61261844Y-63040000D02*
X62661844Y-63040000D01*
X61121844Y-65640000D02*
X60641844Y-65640000D01*
X60881844Y-65310000D01*
X61121844Y-65640000D01*
G36*
X61121844Y-65640000D02*
G01*
X60641844Y-65640000D01*
X60881844Y-65310000D01*
X61121844Y-65640000D01*
G37*
%TO.C,D17*%
X74261844Y-64450000D02*
X74261844Y-68300000D01*
X74261844Y-64450000D02*
X76261844Y-64450000D01*
X74261844Y-65250000D02*
X76261844Y-65250000D01*
X76261844Y-64450000D02*
X76261844Y-68300000D01*
%TO.C,D48*%
X69896844Y-99250000D02*
X71746844Y-99250000D01*
X69896844Y-100450000D02*
X71746844Y-100450000D01*
X71246844Y-99250000D02*
X71246844Y-100450000D01*
X71746844Y-99250000D02*
X71746844Y-100450000D01*
%TO.C,D70*%
X122561844Y-124950000D02*
X122561844Y-128800000D01*
X122561844Y-124950000D02*
X124561844Y-124950000D01*
X122561844Y-125750000D02*
X124561844Y-125750000D01*
X124561844Y-124950000D02*
X124561844Y-128800000D01*
%TO.C,D8*%
X53946850Y-123450000D02*
X53946850Y-127300000D01*
X53946850Y-123450000D02*
X55946850Y-123450000D01*
X53946850Y-124250000D02*
X55946850Y-124250000D01*
X55946850Y-123450000D02*
X55946850Y-127300000D01*
%TO.C,R27*%
X149072092Y-117477500D02*
X149546608Y-117477500D01*
X149072092Y-118522500D02*
X149546608Y-118522500D01*
%TO.C,D18*%
X74311844Y-127950000D02*
X74311844Y-131800000D01*
X74311844Y-127950000D02*
X76311844Y-127950000D01*
X74311844Y-128750000D02*
X76311844Y-128750000D01*
X76311844Y-127950000D02*
X76311844Y-131800000D01*
%TO.C,D80*%
X124446844Y-47850000D02*
X126296844Y-47850000D01*
X124446844Y-49050000D02*
X126296844Y-49050000D01*
X125796844Y-47850000D02*
X125796844Y-49050000D01*
X126296844Y-47850000D02*
X126296844Y-49050000D01*
%TO.C,U21*%
X181251844Y-124360000D02*
X182661844Y-124360000D01*
X181261844Y-122040000D02*
X182661844Y-122040000D01*
X181121844Y-124640000D02*
X180641844Y-124640000D01*
X180881844Y-124310000D01*
X181121844Y-124640000D01*
G36*
X181121844Y-124640000D02*
G01*
X180641844Y-124640000D01*
X180881844Y-124310000D01*
X181121844Y-124640000D01*
G37*
%TO.C,D99*%
X162261844Y-130750000D02*
X162261844Y-129550000D01*
X162761844Y-130750000D02*
X162761844Y-129550000D01*
X164111844Y-129550000D02*
X162261844Y-129550000D01*
X164111844Y-130750000D02*
X162261844Y-130750000D01*
D11*
%TO.C,Q23*%
X150761844Y-119950000D02*
X150761844Y-120400000D01*
X151261844Y-119950000D02*
X150761844Y-119950000D01*
D10*
%TO.C,D115*%
X187711844Y-64150000D02*
X187711844Y-62950000D01*
X188211844Y-64150000D02*
X188211844Y-62950000D01*
X189561844Y-62950000D02*
X187711844Y-62950000D01*
X189561844Y-64150000D02*
X187711844Y-64150000D01*
%TO.C,R101*%
X143449102Y-73627500D02*
X142974586Y-73627500D01*
X143449102Y-74672500D02*
X142974586Y-74672500D01*
%TO.C,D59*%
X107711844Y-123150000D02*
X107711844Y-121950000D01*
X108211844Y-123150000D02*
X108211844Y-121950000D01*
X109561844Y-121950000D02*
X107711844Y-121950000D01*
X109561844Y-123150000D02*
X107711844Y-123150000D01*
%TO.C,U14*%
X112746844Y-107960000D02*
X111346844Y-107960000D01*
X112756844Y-105640000D02*
X111346844Y-105640000D01*
X113126844Y-105690000D02*
X112886844Y-105360000D01*
X113366844Y-105360000D01*
X113126844Y-105690000D01*
G36*
X113126844Y-105690000D02*
G01*
X112886844Y-105360000D01*
X113366844Y-105360000D01*
X113126844Y-105690000D01*
G37*
%TO.C,R56*%
X63449102Y-131127500D02*
X62974586Y-131127500D01*
X63449102Y-132172500D02*
X62974586Y-132172500D01*
%TO.C,D26*%
X87711844Y-64150000D02*
X87711844Y-62950000D01*
X88211844Y-64150000D02*
X88211844Y-62950000D01*
X89561844Y-62950000D02*
X87711844Y-62950000D01*
X89561844Y-64150000D02*
X87711844Y-64150000D01*
%TO.C,D133*%
X148259350Y-117100000D02*
X148259350Y-115900000D01*
X148759350Y-117100000D02*
X148759350Y-115900000D01*
X150109350Y-115900000D02*
X148259350Y-115900000D01*
X150109350Y-117100000D02*
X148259350Y-117100000D01*
%TO.C,D14*%
X62561844Y-124950000D02*
X62561844Y-128800000D01*
X62561844Y-124950000D02*
X64561844Y-124950000D01*
X62561844Y-125750000D02*
X64561844Y-125750000D01*
X64561844Y-124950000D02*
X64561844Y-128800000D01*
%TO.C,R89*%
X119589344Y-78187258D02*
X119589344Y-77712742D01*
X120634344Y-78187258D02*
X120634344Y-77712742D01*
%TO.C,R22*%
X70724344Y-32012742D02*
X70724344Y-32487258D01*
X71769344Y-32012742D02*
X71769344Y-32487258D01*
%TO.C,R72*%
X90724344Y-91012742D02*
X90724344Y-91487258D01*
X91769344Y-91012742D02*
X91769344Y-91487258D01*
%TO.C,D27*%
X94261844Y-64450000D02*
X94261844Y-68300000D01*
X94261844Y-64450000D02*
X96261844Y-64450000D01*
X94261844Y-65250000D02*
X96261844Y-65250000D01*
X96261844Y-64450000D02*
X96261844Y-68300000D01*
%TO.C,R118*%
X161652092Y-120477500D02*
X162126608Y-120477500D01*
X161652092Y-121522500D02*
X162126608Y-121522500D01*
%TO.C,U20*%
X172746844Y-107960000D02*
X171346844Y-107960000D01*
X172756844Y-105640000D02*
X171346844Y-105640000D01*
X173126844Y-105690000D02*
X172886844Y-105360000D01*
X173366844Y-105360000D01*
X173126844Y-105690000D01*
G36*
X173126844Y-105690000D02*
G01*
X172886844Y-105360000D01*
X173366844Y-105360000D01*
X173126844Y-105690000D01*
G37*
%TO.C,R36*%
X259046850Y-113462742D02*
X259046850Y-113937258D01*
X260091850Y-113462742D02*
X260091850Y-113937258D01*
%TO.C,R54*%
X50244592Y-38827500D02*
X50719108Y-38827500D01*
X50244592Y-39872500D02*
X50719108Y-39872500D01*
%TO.C,R113*%
X145484102Y-105327500D02*
X145009586Y-105327500D01*
X145484102Y-106372500D02*
X145009586Y-106372500D01*
%TO.C,R87*%
X123449102Y-132627500D02*
X122974586Y-132627500D01*
X123449102Y-133672500D02*
X122974586Y-133672500D01*
%TO.C,R4*%
X41924350Y-138987258D02*
X41924350Y-138512742D01*
X42969350Y-138987258D02*
X42969350Y-138512742D01*
%TO.C,D21*%
X64446844Y-106850000D02*
X66296844Y-106850000D01*
X64446844Y-108050000D02*
X66296844Y-108050000D01*
X65796844Y-106850000D02*
X65796844Y-108050000D01*
X66296844Y-106850000D02*
X66296844Y-108050000D01*
%TO.C,R89*%
X119589344Y-137187258D02*
X119589344Y-136712742D01*
X120634344Y-137187258D02*
X120634344Y-136712742D01*
%TO.C,D109*%
X157746844Y-106550000D02*
X157746844Y-102700000D01*
X159746844Y-105750000D02*
X157746844Y-105750000D01*
X159746844Y-106550000D02*
X157746844Y-106550000D01*
X159746844Y-106550000D02*
X159746844Y-102700000D01*
%TO.C,R43*%
X213976608Y-105377500D02*
X213502092Y-105377500D01*
X213976608Y-106422500D02*
X213502092Y-106422500D01*
%TO.C,R7*%
X45169108Y-105327500D02*
X44694592Y-105327500D01*
X45169108Y-106372500D02*
X44694592Y-106372500D01*
%TO.C,R40*%
X253946850Y-54462742D02*
X253946850Y-54937258D01*
X254991850Y-54462742D02*
X254991850Y-54937258D01*
%TO.C,R144*%
X247746850Y-113462742D02*
X247746850Y-113937258D01*
X248791850Y-113462742D02*
X248791850Y-113937258D01*
%TO.C,U20*%
X172746844Y-48960000D02*
X171346844Y-48960000D01*
X172756844Y-46640000D02*
X171346844Y-46640000D01*
X173126844Y-46690000D02*
X172886844Y-46360000D01*
X173366844Y-46360000D01*
X173126844Y-46690000D01*
G36*
X173126844Y-46690000D02*
G01*
X172886844Y-46360000D01*
X173366844Y-46360000D01*
X173126844Y-46690000D01*
G37*
%TO.C,D85*%
X142261844Y-130750000D02*
X142261844Y-129550000D01*
X142761844Y-130750000D02*
X142761844Y-129550000D01*
X144111844Y-129550000D02*
X142261844Y-129550000D01*
X144111844Y-130750000D02*
X142261844Y-130750000D01*
%TO.C,U7*%
X61251844Y-124360000D02*
X62661844Y-124360000D01*
X61261844Y-122040000D02*
X62661844Y-122040000D01*
X61121844Y-124640000D02*
X60641844Y-124640000D01*
X60881844Y-124310000D01*
X61121844Y-124640000D01*
G36*
X61121844Y-124640000D02*
G01*
X60641844Y-124640000D01*
X60881844Y-124310000D01*
X61121844Y-124640000D01*
G37*
%TO.C,R119*%
X168999102Y-120427500D02*
X168524586Y-120427500D01*
X168999102Y-121472500D02*
X168524586Y-121472500D01*
%TO.C,D116*%
X194261844Y-64450000D02*
X194261844Y-68300000D01*
X194261844Y-64450000D02*
X196261844Y-64450000D01*
X194261844Y-65250000D02*
X196261844Y-65250000D01*
X196261844Y-64450000D02*
X196261844Y-68300000D01*
%TO.C,R69*%
X92426608Y-49477500D02*
X91952092Y-49477500D01*
X92426608Y-50522500D02*
X91952092Y-50522500D01*
%TO.C,R124*%
X173374344Y-92812742D02*
X173374344Y-93287258D01*
X174419344Y-92812742D02*
X174419344Y-93287258D01*
%TO.C,R95*%
X130559586Y-38827500D02*
X131034102Y-38827500D01*
X130559586Y-39872500D02*
X131034102Y-39872500D01*
%TO.C,R15*%
X68999102Y-120427500D02*
X68524586Y-120427500D01*
X68999102Y-121472500D02*
X68524586Y-121472500D01*
%TO.C,D46*%
X49581850Y-40250000D02*
X51431850Y-40250000D01*
X49581850Y-41450000D02*
X51431850Y-41450000D01*
X50931850Y-40250000D02*
X50931850Y-41450000D01*
X51431850Y-40250000D02*
X51431850Y-41450000D01*
%TO.C,R78*%
X108524586Y-123627500D02*
X108999102Y-123627500D01*
X108524586Y-124672500D02*
X108999102Y-124672500D01*
%TO.C,R139*%
X192426608Y-49477500D02*
X191952092Y-49477500D01*
X192426608Y-50522500D02*
X191952092Y-50522500D01*
%TO.C,R29*%
X222546850Y-113462742D02*
X222546850Y-113937258D01*
X223591850Y-113462742D02*
X223591850Y-113937258D01*
%TO.C,R121*%
X162239344Y-138987258D02*
X162239344Y-138512742D01*
X163284344Y-138987258D02*
X163284344Y-138512742D01*
D11*
%TO.C,Q15*%
X110761844Y-119950000D02*
X110761844Y-120400000D01*
X111261844Y-119950000D02*
X110761844Y-119950000D01*
D10*
%TO.C,R10*%
X50244592Y-96327500D02*
X50719108Y-96327500D01*
X50244592Y-97372500D02*
X50719108Y-97372500D01*
%TD*%
%LPC*%
D13*
%TO.C,J4*%
X46689350Y-78500000D03*
D14*
X50649350Y-78500000D03*
%TD*%
D15*
%TO.C,J19*%
X147004344Y-33500000D03*
D14*
X143044344Y-33500000D03*
%TD*%
D16*
%TO.C,J2*%
X209059350Y-32770000D03*
D17*
X209059350Y-30230000D03*
X211599350Y-32770000D03*
X211599350Y-30230000D03*
X214139350Y-32770000D03*
X214139350Y-30230000D03*
X216679350Y-32770000D03*
X216679350Y-30230000D03*
X219219350Y-32770000D03*
X219219350Y-30230000D03*
X221759350Y-32770000D03*
X221759350Y-30230000D03*
X224299350Y-32770000D03*
X224299350Y-30230000D03*
X226839350Y-32770000D03*
X226839350Y-30230000D03*
X229379350Y-32770000D03*
X229379350Y-30230000D03*
X231919350Y-32770000D03*
X231919350Y-30230000D03*
X234459350Y-32770000D03*
X234459350Y-30230000D03*
X236999350Y-32770000D03*
X236999350Y-30230000D03*
X239539350Y-32770000D03*
X239539350Y-30230000D03*
X242079350Y-32770000D03*
X242079350Y-30230000D03*
X244619350Y-32770000D03*
X244619350Y-30230000D03*
X247159350Y-32770000D03*
X247159350Y-30230000D03*
X249699350Y-32770000D03*
X249699350Y-30230000D03*
X252239350Y-32770000D03*
X252239350Y-30230000D03*
X254779350Y-32770000D03*
X254779350Y-30230000D03*
X257319350Y-32770000D03*
X257319350Y-30230000D03*
%TD*%
D18*
%TO.C,NPTH10*%
X95689350Y-117500000D03*
%TD*%
%TO.C,NPTH7*%
X55689350Y-112500000D03*
%TD*%
D15*
%TO.C,J5*%
X46689350Y-92500000D03*
D14*
X42729350Y-92500000D03*
%TD*%
D13*
%TO.C,J18*%
X147004344Y-78500000D03*
D14*
X150964344Y-78500000D03*
%TD*%
D13*
%TO.C,J3*%
X82329350Y-114900000D03*
D14*
X86289350Y-114900000D03*
%TD*%
D13*
%TO.C,J14*%
X107004344Y-137500000D03*
D14*
X110964344Y-137500000D03*
%TD*%
D19*
%TO.C,J29*%
X254489350Y-60300000D03*
D20*
X254489350Y-57760000D03*
X257029350Y-60300000D03*
X257029350Y-57760000D03*
X259569350Y-60300000D03*
X259569350Y-57760000D03*
X262109350Y-60300000D03*
X262109350Y-57760000D03*
%TD*%
D13*
%TO.C,J22*%
X187004344Y-78500000D03*
D14*
X190964344Y-78500000D03*
%TD*%
D18*
%TO.C,PI3*%
X204189350Y-31500000D03*
%TD*%
D13*
%TO.C,J7*%
X67004344Y-78500000D03*
D14*
X70964344Y-78500000D03*
%TD*%
D13*
%TO.C,J10*%
X212929350Y-78500000D03*
D14*
X216889350Y-78500000D03*
%TD*%
D18*
%TO.C,NPTH14*%
X175689350Y-58500000D03*
%TD*%
D15*
%TO.C,J19*%
X147004344Y-92500000D03*
D14*
X143044344Y-92500000D03*
%TD*%
D13*
%TO.C,J4*%
X46689350Y-137500000D03*
D14*
X50649350Y-137500000D03*
%TD*%
D13*
%TO.C,J20*%
X167004344Y-78500000D03*
D14*
X170964344Y-78500000D03*
%TD*%
D15*
%TO.C,J13*%
X87004344Y-33500000D03*
D14*
X83044344Y-33500000D03*
%TD*%
D18*
%TO.C,NPTH13*%
X175689350Y-53500000D03*
%TD*%
D19*
%TO.C,J11*%
X213679350Y-131700000D03*
D20*
X216219350Y-131700000D03*
%TD*%
D13*
%TO.C,J12*%
X87004344Y-137500000D03*
D14*
X90964344Y-137500000D03*
%TD*%
D19*
%TO.C,J6*%
X220569350Y-60300000D03*
D20*
X220569350Y-57760000D03*
X223109350Y-60300000D03*
X223109350Y-57760000D03*
X225649350Y-60300000D03*
X225649350Y-57760000D03*
X228189350Y-60300000D03*
X228189350Y-57760000D03*
%TD*%
D18*
%TO.C,NPTH14*%
X175689350Y-117500000D03*
%TD*%
D21*
%TO.C,F1*%
X73489350Y-117200000D03*
X73489350Y-113800000D03*
X63569350Y-117200000D03*
X63569350Y-113800000D03*
%TD*%
%TO.C,F20*%
X229329350Y-76450000D03*
X229329350Y-79850000D03*
X239249350Y-76450000D03*
X239249350Y-79850000D03*
%TD*%
D18*
%TO.C,NPTH12*%
X135689350Y-58500000D03*
%TD*%
%TO.C,NPTH5*%
X34689350Y-53500000D03*
%TD*%
D19*
%TO.C,J27*%
X243189350Y-60300000D03*
D20*
X243189350Y-57760000D03*
X245729350Y-60300000D03*
X245729350Y-57760000D03*
X248269350Y-60300000D03*
X248269350Y-57760000D03*
X250809350Y-60300000D03*
X250809350Y-57760000D03*
%TD*%
D15*
%TO.C,J21*%
X167004344Y-33500000D03*
D14*
X163044344Y-33500000D03*
%TD*%
D15*
%TO.C,J13*%
X87004344Y-92500000D03*
D14*
X83044344Y-92500000D03*
%TD*%
D21*
%TO.C,F18*%
X113599350Y-58100000D03*
X113599350Y-54700000D03*
X103679350Y-58100000D03*
X103679350Y-54700000D03*
%TD*%
D13*
%TO.C,J24*%
X122439350Y-55800000D03*
D14*
X126399350Y-55800000D03*
%TD*%
D21*
%TO.C,F18*%
X113599350Y-117100000D03*
X113599350Y-113700000D03*
X103679350Y-117100000D03*
X103679350Y-113700000D03*
%TD*%
D18*
%TO.C,NPTH11*%
X135689350Y-53500000D03*
%TD*%
D19*
%TO.C,J25*%
X231849350Y-60300000D03*
D20*
X231849350Y-57760000D03*
X234389350Y-60300000D03*
X234389350Y-57760000D03*
X236929350Y-60300000D03*
X236929350Y-57760000D03*
X239469350Y-60300000D03*
X239469350Y-57760000D03*
%TD*%
D18*
%TO.C,NPTH13*%
X175689350Y-112500000D03*
%TD*%
%TO.C,NPTH12*%
X135689350Y-117500000D03*
%TD*%
D15*
%TO.C,J17*%
X127004344Y-92500000D03*
D14*
X123044344Y-92500000D03*
%TD*%
D15*
%TO.C,J23*%
X187004344Y-33500000D03*
D14*
X183044344Y-33500000D03*
%TD*%
D18*
%TO.C,NPTH11*%
X135689350Y-112500000D03*
%TD*%
D13*
%TO.C,J20*%
X167004344Y-137500000D03*
D14*
X170964344Y-137500000D03*
%TD*%
D18*
%TO.C,NPTH2*%
X34689350Y-90500000D03*
%TD*%
%TO.C,NPTH4*%
X115689350Y-80500000D03*
%TD*%
%TO.C,NPTH9*%
X95689350Y-112500000D03*
%TD*%
D19*
%TO.C,J29*%
X254489350Y-119300000D03*
D20*
X254489350Y-116760000D03*
X257029350Y-119300000D03*
X257029350Y-116760000D03*
X259569350Y-119300000D03*
X259569350Y-116760000D03*
X262109350Y-119300000D03*
X262109350Y-116760000D03*
%TD*%
D18*
%TO.C,PI2*%
X262189350Y-80500000D03*
%TD*%
%TO.C,NPTH10*%
X95689350Y-58500000D03*
%TD*%
%TO.C,NPTH6*%
X34689350Y-58500000D03*
%TD*%
D13*
%TO.C,J7*%
X67004344Y-137500000D03*
D14*
X70964344Y-137500000D03*
%TD*%
D22*
%TO.C,KiKit_TO_3*%
X25810650Y-148500046D03*
%TD*%
D18*
%TO.C,NPTH2*%
X34689350Y-31500000D03*
%TD*%
%TO.C,NPTH9*%
X95689350Y-53500000D03*
%TD*%
D21*
%TO.C,F20*%
X229329350Y-135450000D03*
X229329350Y-138850000D03*
X239249350Y-135450000D03*
X239249350Y-138850000D03*
%TD*%
D19*
%TO.C,J25*%
X231849350Y-119300000D03*
D20*
X231849350Y-116760000D03*
X234389350Y-119300000D03*
X234389350Y-116760000D03*
X236929350Y-119300000D03*
X236929350Y-116760000D03*
X239469350Y-119300000D03*
X239469350Y-116760000D03*
%TD*%
D18*
%TO.C,PI1*%
X262189350Y-90500000D03*
%TD*%
D15*
%TO.C,J15*%
X107004344Y-33500000D03*
D14*
X103044344Y-33500000D03*
%TD*%
D13*
%TO.C,J18*%
X147004344Y-137500000D03*
D14*
X150964344Y-137500000D03*
%TD*%
D18*
%TO.C,NPTH1*%
X118439350Y-31500000D03*
%TD*%
%TO.C,NPTH8*%
X55689350Y-117500000D03*
%TD*%
D13*
%TO.C,J3*%
X82329350Y-55900000D03*
D14*
X86289350Y-55900000D03*
%TD*%
D15*
%TO.C,J21*%
X167004344Y-92500000D03*
D14*
X163044344Y-92500000D03*
%TD*%
D18*
%TO.C,NPTH6*%
X34689350Y-117500000D03*
%TD*%
D19*
%TO.C,J6*%
X220569350Y-119300000D03*
D20*
X220569350Y-116760000D03*
X223109350Y-119300000D03*
X223109350Y-116760000D03*
X225649350Y-119300000D03*
X225649350Y-116760000D03*
X228189350Y-119300000D03*
X228189350Y-116760000D03*
%TD*%
D15*
%TO.C,J5*%
X46689350Y-33500000D03*
D14*
X42729350Y-33500000D03*
%TD*%
D19*
%TO.C,J9*%
X210689350Y-106700000D03*
D20*
X208149350Y-106700000D03*
%TD*%
D18*
%TO.C,NPTH1*%
X118439350Y-90500000D03*
%TD*%
D15*
%TO.C,J15*%
X107004344Y-92500000D03*
D14*
X103044344Y-92500000D03*
%TD*%
D13*
%TO.C,J12*%
X87004344Y-78500000D03*
D14*
X90964344Y-78500000D03*
%TD*%
D13*
%TO.C,J26*%
X162849350Y-55800000D03*
D14*
X166809350Y-55800000D03*
%TD*%
D18*
%TO.C,NPTH4*%
X115689350Y-139500000D03*
%TD*%
D13*
%TO.C,J14*%
X107004344Y-78500000D03*
D14*
X110964344Y-78500000D03*
%TD*%
D13*
%TO.C,J10*%
X212929350Y-137500000D03*
D14*
X216889350Y-137500000D03*
%TD*%
D18*
%TO.C,PI4*%
X204189350Y-80500000D03*
%TD*%
D22*
%TO.C,KiKit_TO_2*%
X271189350Y-22500000D03*
%TD*%
D18*
%TO.C,NPTH3*%
X34689350Y-139500000D03*
%TD*%
D13*
%TO.C,J22*%
X187004344Y-137500000D03*
D14*
X190964344Y-137500000D03*
%TD*%
D19*
%TO.C,J11*%
X213679350Y-72700000D03*
D20*
X216219350Y-72700000D03*
%TD*%
D15*
%TO.C,J8*%
X67004344Y-33500000D03*
D14*
X63044344Y-33500000D03*
%TD*%
D13*
%TO.C,J26*%
X162849350Y-114800000D03*
D14*
X166809350Y-114800000D03*
%TD*%
D21*
%TO.C,F1*%
X73489350Y-58200000D03*
X73489350Y-54800000D03*
X63569350Y-58200000D03*
X63569350Y-54800000D03*
%TD*%
D15*
%TO.C,J8*%
X67004344Y-92500000D03*
D14*
X63044344Y-92500000D03*
%TD*%
D18*
%TO.C,PI3*%
X204189350Y-90500000D03*
%TD*%
%TO.C,NPTH7*%
X55689350Y-53500000D03*
%TD*%
D19*
%TO.C,J9*%
X210689350Y-47700000D03*
D20*
X208149350Y-47700000D03*
%TD*%
D19*
%TO.C,J27*%
X243189350Y-119300000D03*
D20*
X243189350Y-116760000D03*
X245729350Y-119300000D03*
X245729350Y-116760000D03*
X248269350Y-119300000D03*
X248269350Y-116760000D03*
X250809350Y-119300000D03*
X250809350Y-116760000D03*
%TD*%
D22*
%TO.C,KiKit_TO_1*%
X25810650Y-22500000D03*
%TD*%
D13*
%TO.C,J16*%
X127004344Y-137500000D03*
D14*
X130964344Y-137500000D03*
%TD*%
D18*
%TO.C,PI1*%
X262189350Y-31500000D03*
%TD*%
D15*
%TO.C,J23*%
X187004344Y-92500000D03*
D14*
X183044344Y-92500000D03*
%TD*%
D13*
%TO.C,J24*%
X122439350Y-114800000D03*
D14*
X126399350Y-114800000D03*
%TD*%
D15*
%TO.C,J17*%
X127004344Y-33500000D03*
D14*
X123044344Y-33500000D03*
%TD*%
D18*
%TO.C,NPTH5*%
X34689350Y-112500000D03*
%TD*%
D16*
%TO.C,J2*%
X209059350Y-91770000D03*
D17*
X209059350Y-89230000D03*
X211599350Y-91770000D03*
X211599350Y-89230000D03*
X214139350Y-91770000D03*
X214139350Y-89230000D03*
X216679350Y-91770000D03*
X216679350Y-89230000D03*
X219219350Y-91770000D03*
X219219350Y-89230000D03*
X221759350Y-91770000D03*
X221759350Y-89230000D03*
X224299350Y-91770000D03*
X224299350Y-89230000D03*
X226839350Y-91770000D03*
X226839350Y-89230000D03*
X229379350Y-91770000D03*
X229379350Y-89230000D03*
X231919350Y-91770000D03*
X231919350Y-89230000D03*
X234459350Y-91770000D03*
X234459350Y-89230000D03*
X236999350Y-91770000D03*
X236999350Y-89230000D03*
X239539350Y-91770000D03*
X239539350Y-89230000D03*
X242079350Y-91770000D03*
X242079350Y-89230000D03*
X244619350Y-91770000D03*
X244619350Y-89230000D03*
X247159350Y-91770000D03*
X247159350Y-89230000D03*
X249699350Y-91770000D03*
X249699350Y-89230000D03*
X252239350Y-91770000D03*
X252239350Y-89230000D03*
X254779350Y-91770000D03*
X254779350Y-89230000D03*
X257319350Y-91770000D03*
X257319350Y-89230000D03*
%TD*%
D13*
%TO.C,J16*%
X127004344Y-78500000D03*
D14*
X130964344Y-78500000D03*
%TD*%
D18*
%TO.C,NPTH3*%
X34689350Y-80500000D03*
%TD*%
D21*
%TO.C,F19*%
X154009350Y-58100000D03*
X154009350Y-54700000D03*
X144089350Y-58100000D03*
X144089350Y-54700000D03*
%TD*%
D18*
%TO.C,NPTH8*%
X55689350Y-58500000D03*
%TD*%
D21*
%TO.C,F19*%
X154009350Y-117100000D03*
X154009350Y-113700000D03*
X144089350Y-117100000D03*
X144089350Y-113700000D03*
%TD*%
D18*
%TO.C,PI4*%
X204189350Y-139500000D03*
%TD*%
%TO.C,PI2*%
X262189350Y-139500000D03*
%TD*%
D23*
%TO.C,Q34*%
X108399350Y-111487500D03*
D24*
X107414350Y-113137500D03*
D23*
X107749350Y-111487500D03*
X107099350Y-111487500D03*
X106449350Y-111487500D03*
%TD*%
D25*
%TO.C,R140*%
X184421844Y-109050000D03*
X186071844Y-109050000D03*
%TD*%
D26*
%TO.C,F11*%
X121259344Y-42950000D03*
X128034344Y-42950000D03*
%TD*%
D27*
%TO.C,R72*%
X91246844Y-31425000D03*
X91246844Y-33075000D03*
%TD*%
%TO.C,R142*%
X191246844Y-31425000D03*
X191246844Y-33075000D03*
%TD*%
D28*
%TO.C,R13*%
X64036844Y-74150000D03*
X62386844Y-74150000D03*
%TD*%
D29*
%TO.C,D128*%
X249939350Y-97362500D03*
X251839350Y-97362500D03*
X250889350Y-99237500D03*
%TD*%
D27*
%TO.C,R42*%
X209539350Y-43975000D03*
X209539350Y-45625000D03*
%TD*%
D30*
%TO.C,U9*%
X218364350Y-104350000D03*
X218364350Y-106250000D03*
X216489350Y-105300000D03*
%TD*%
D25*
%TO.C,R81*%
X109971844Y-98350000D03*
X111621844Y-98350000D03*
%TD*%
D31*
%TO.C,D61*%
X115311844Y-69750000D03*
X115311844Y-72550000D03*
%TD*%
D26*
%TO.C,F7*%
X81259344Y-101950000D03*
X88034344Y-101950000D03*
%TD*%
D28*
%TO.C,R52*%
X89586844Y-120950000D03*
X87936844Y-120950000D03*
%TD*%
%TO.C,R97*%
X133014350Y-109000000D03*
X131364350Y-109000000D03*
%TD*%
D32*
%TO.C,Q17*%
X100721844Y-109350000D03*
D33*
X101706844Y-107700000D03*
D32*
X101371844Y-109350000D03*
X102021844Y-109350000D03*
X102671844Y-109350000D03*
%TD*%
D31*
%TO.C,D75*%
X135311844Y-69750000D03*
X135311844Y-72550000D03*
%TD*%
%TO.C,D74*%
X135261844Y-124250000D03*
X135261844Y-127050000D03*
%TD*%
D34*
%TO.C,Q8*%
X69596844Y-48987500D03*
X67696844Y-48987500D03*
X68646844Y-47112500D03*
%TD*%
D27*
%TO.C,R145*%
X245769350Y-112875000D03*
X245769350Y-114525000D03*
%TD*%
D25*
%TO.C,R104*%
X141164350Y-62000000D03*
X142814350Y-62000000D03*
%TD*%
D32*
%TO.C,Q21*%
X120721844Y-50350000D03*
D33*
X121706844Y-48700000D03*
D32*
X121371844Y-50350000D03*
X122021844Y-50350000D03*
X122671844Y-50350000D03*
%TD*%
D31*
%TO.C,D70*%
X123561844Y-66750000D03*
X123561844Y-69550000D03*
%TD*%
D28*
%TO.C,R85*%
X106071844Y-105850000D03*
X104421844Y-105850000D03*
%TD*%
D29*
%TO.C,D131*%
X242939350Y-97362500D03*
X244839350Y-97362500D03*
X243889350Y-99237500D03*
%TD*%
D35*
%TO.C,D47*%
X62711844Y-71150000D03*
X64111844Y-71150000D03*
%TD*%
D36*
%TO.C,R131*%
X180111844Y-78775000D03*
X180111844Y-77125000D03*
%TD*%
D26*
%TO.C,F9*%
X101259344Y-101950000D03*
X108034344Y-101950000D03*
%TD*%
D28*
%TO.C,R52*%
X89586844Y-61950000D03*
X87936844Y-61950000D03*
%TD*%
%TO.C,R119*%
X169586844Y-61950000D03*
X167936844Y-61950000D03*
%TD*%
D26*
%TO.C,F3*%
X40944350Y-42950000D03*
X47719350Y-42950000D03*
%TD*%
D31*
%TO.C,D25*%
X83561844Y-66750000D03*
X83561844Y-69550000D03*
%TD*%
D28*
%TO.C,R53*%
X43721850Y-131650000D03*
X42071850Y-131650000D03*
%TD*%
D25*
%TO.C,R80*%
X109971844Y-96850000D03*
X111621844Y-96850000D03*
%TD*%
D28*
%TO.C,R41*%
X214564350Y-45350000D03*
X212914350Y-45350000D03*
%TD*%
D31*
%TO.C,D77*%
X130446844Y-104250000D03*
X130446844Y-101450000D03*
%TD*%
D27*
%TO.C,R31*%
X228169350Y-53875000D03*
X228169350Y-55525000D03*
%TD*%
D25*
%TO.C,R51*%
X80964350Y-62000000D03*
X82614350Y-62000000D03*
%TD*%
D27*
%TO.C,R5*%
X50931850Y-90425000D03*
X50931850Y-92075000D03*
%TD*%
D31*
%TO.C,D28*%
X95311844Y-128750000D03*
X95311844Y-131550000D03*
%TD*%
D28*
%TO.C,R116*%
X164036844Y-131650000D03*
X162386844Y-131650000D03*
%TD*%
D29*
%TO.C,D126*%
X235939350Y-97362500D03*
X237839350Y-97362500D03*
X236889350Y-99237500D03*
%TD*%
D31*
%TO.C,D117*%
X195311844Y-128750000D03*
X195311844Y-131550000D03*
%TD*%
D36*
%TO.C,R55*%
X212329350Y-128175000D03*
X212329350Y-126525000D03*
%TD*%
D31*
%TO.C,D81*%
X118746844Y-46750000D03*
X118746844Y-43950000D03*
%TD*%
D37*
%TO.C,U10*%
X72996844Y-47150000D03*
X72996844Y-47800000D03*
X72996844Y-48450000D03*
X71096844Y-48450000D03*
X71096844Y-47150000D03*
%TD*%
D34*
%TO.C,Q16*%
X109596844Y-48987500D03*
X107696844Y-48987500D03*
X108646844Y-47112500D03*
%TD*%
D28*
%TO.C,R111*%
X153014350Y-50000000D03*
X151364350Y-50000000D03*
%TD*%
D25*
%TO.C,R98*%
X124421844Y-109050000D03*
X126071844Y-109050000D03*
%TD*%
%TO.C,R51*%
X80964350Y-121000000D03*
X82614350Y-121000000D03*
%TD*%
%TO.C,R14*%
X61064350Y-62000000D03*
X62714350Y-62000000D03*
%TD*%
D38*
%TO.C,C19*%
X213489350Y-102675000D03*
X213489350Y-99725000D03*
%TD*%
D23*
%TO.C,Q19*%
X133286844Y-61650000D03*
D24*
X132301844Y-63300000D03*
D23*
X132636844Y-61650000D03*
X131986844Y-61650000D03*
X131336844Y-61650000D03*
%TD*%
%TO.C,Q31*%
X193286844Y-61650000D03*
D24*
X192301844Y-63300000D03*
D23*
X192636844Y-61650000D03*
X191986844Y-61650000D03*
X191336844Y-61650000D03*
%TD*%
%TO.C,Q31*%
X193286844Y-120650000D03*
D24*
X192301844Y-122300000D03*
D23*
X192636844Y-120650000D03*
X191986844Y-120650000D03*
X191336844Y-120650000D03*
%TD*%
D31*
%TO.C,D102*%
X175261844Y-65250000D03*
X175261844Y-68050000D03*
%TD*%
D27*
%TO.C,R37*%
X257069350Y-53875000D03*
X257069350Y-55525000D03*
%TD*%
D31*
%TO.C,D82*%
X118696844Y-42250000D03*
X118696844Y-39450000D03*
%TD*%
D28*
%TO.C,R115*%
X164036844Y-74150000D03*
X162386844Y-74150000D03*
%TD*%
D39*
%TO.C,F6*%
X92749344Y-69050000D03*
X85974344Y-69050000D03*
%TD*%
D25*
%TO.C,R6*%
X47621850Y-124150000D03*
X49271850Y-124150000D03*
%TD*%
D31*
%TO.C,D116*%
X195261844Y-124250000D03*
X195261844Y-127050000D03*
%TD*%
D25*
%TO.C,R8*%
X67964350Y-118100000D03*
X69614350Y-118100000D03*
%TD*%
D36*
%TO.C,R107*%
X142761844Y-139575000D03*
X142761844Y-137925000D03*
%TD*%
D26*
%TO.C,F9*%
X101259344Y-42950000D03*
X108034344Y-42950000D03*
%TD*%
D28*
%TO.C,R50*%
X84036844Y-133150000D03*
X82386844Y-133150000D03*
%TD*%
D40*
%TO.C,U13*%
X101011844Y-64850000D03*
X101011844Y-64200000D03*
X101011844Y-63550000D03*
X102911844Y-63550000D03*
X102911844Y-64850000D03*
%TD*%
D28*
%TO.C,R116*%
X164036844Y-72650000D03*
X162386844Y-72650000D03*
%TD*%
D35*
%TO.C,D6*%
X68189350Y-116600000D03*
X69589350Y-116600000D03*
%TD*%
D28*
%TO.C,R19*%
X73014350Y-50000000D03*
X71364350Y-50000000D03*
%TD*%
%TO.C,R19*%
X73014350Y-109000000D03*
X71364350Y-109000000D03*
%TD*%
%TO.C,R74*%
X104036844Y-72650000D03*
X102386844Y-72650000D03*
%TD*%
D31*
%TO.C,D102*%
X175261844Y-124250000D03*
X175261844Y-127050000D03*
%TD*%
D25*
%TO.C,R112*%
X144421844Y-50050000D03*
X146071844Y-50050000D03*
%TD*%
D32*
%TO.C,Q25*%
X140721844Y-50350000D03*
D33*
X141706844Y-48700000D03*
D32*
X141371844Y-50350000D03*
X142021844Y-50350000D03*
X142671844Y-50350000D03*
%TD*%
D25*
%TO.C,R23*%
X181114350Y-57700000D03*
X182764350Y-57700000D03*
%TD*%
D36*
%TO.C,R79*%
X102761844Y-80575000D03*
X102761844Y-78925000D03*
%TD*%
D25*
%TO.C,R57*%
X69971844Y-39350000D03*
X71621844Y-39350000D03*
%TD*%
D28*
%TO.C,R62*%
X84036844Y-72650000D03*
X82386844Y-72650000D03*
%TD*%
D23*
%TO.C,Q11*%
X93286844Y-61650000D03*
D24*
X92301844Y-63300000D03*
D23*
X92636844Y-61650000D03*
X91986844Y-61650000D03*
X91336844Y-61650000D03*
%TD*%
D25*
%TO.C,R137*%
X189971844Y-98350000D03*
X191621844Y-98350000D03*
%TD*%
D36*
%TO.C,R47*%
X216754350Y-128400000D03*
X216754350Y-126750000D03*
%TD*%
D40*
%TO.C,U13*%
X101011844Y-123850000D03*
X101011844Y-123200000D03*
X101011844Y-122550000D03*
X102911844Y-122550000D03*
X102911844Y-123850000D03*
%TD*%
D41*
%TO.C,D39*%
X220739350Y-69400000D03*
X220739350Y-68000000D03*
%TD*%
D23*
%TO.C,Q7*%
X73286844Y-120650000D03*
D24*
X72301844Y-122300000D03*
D23*
X72636844Y-120650000D03*
X71986844Y-120650000D03*
X71336844Y-120650000D03*
%TD*%
D35*
%TO.C,D133*%
X148709350Y-57500000D03*
X150109350Y-57500000D03*
%TD*%
D27*
%TO.C,R32*%
X239469350Y-112875000D03*
X239469350Y-114525000D03*
%TD*%
D25*
%TO.C,R106*%
X147936844Y-65150000D03*
X149586844Y-65150000D03*
%TD*%
D31*
%TO.C,D91*%
X150446844Y-104250000D03*
X150446844Y-101450000D03*
%TD*%
D35*
%TO.C,D49*%
X82711844Y-71150000D03*
X84111844Y-71150000D03*
%TD*%
D39*
%TO.C,F6*%
X92749344Y-128050000D03*
X85974344Y-128050000D03*
%TD*%
D31*
%TO.C,D82*%
X118696844Y-101250000D03*
X118696844Y-98450000D03*
%TD*%
D40*
%TO.C,U5*%
X40696850Y-64850000D03*
X40696850Y-64200000D03*
X40696850Y-63550000D03*
X42596850Y-63550000D03*
X42596850Y-64850000D03*
%TD*%
D28*
%TO.C,R9*%
X43721850Y-74150000D03*
X42071850Y-74150000D03*
%TD*%
D31*
%TO.C,D63*%
X110446844Y-45250000D03*
X110446844Y-42450000D03*
%TD*%
D35*
%TO.C,D101*%
X168161844Y-63550000D03*
X169561844Y-63550000D03*
%TD*%
%TO.C,D52*%
X85846844Y-48450000D03*
X84446844Y-48450000D03*
%TD*%
D23*
%TO.C,Q34*%
X108399350Y-52487500D03*
D24*
X107414350Y-54137500D03*
D23*
X107749350Y-52487500D03*
X107099350Y-52487500D03*
X106449350Y-52487500D03*
%TD*%
D27*
%TO.C,R96*%
X133896844Y-33225000D03*
X133896844Y-34875000D03*
%TD*%
%TO.C,R146*%
X243169350Y-112875000D03*
X243169350Y-114525000D03*
%TD*%
D26*
%TO.C,F3*%
X40944350Y-101950000D03*
X47719350Y-101950000D03*
%TD*%
D29*
%TO.C,Q30*%
X184411844Y-63012500D03*
X186311844Y-63012500D03*
X185361844Y-64887500D03*
%TD*%
D28*
%TO.C,R127*%
X166071844Y-105850000D03*
X164421844Y-105850000D03*
%TD*%
D35*
%TO.C,D101*%
X168161844Y-122550000D03*
X169561844Y-122550000D03*
%TD*%
D25*
%TO.C,R94*%
X129971844Y-37850000D03*
X131621844Y-37850000D03*
%TD*%
D35*
%TO.C,D120*%
X191296844Y-40850000D03*
X189896844Y-40850000D03*
%TD*%
D29*
%TO.C,Q4*%
X44096850Y-63012500D03*
X45996850Y-63012500D03*
X45046850Y-64887500D03*
%TD*%
D28*
%TO.C,R91*%
X129586844Y-61950000D03*
X127936844Y-61950000D03*
%TD*%
D31*
%TO.C,D96*%
X138696844Y-42250000D03*
X138696844Y-39450000D03*
%TD*%
D23*
%TO.C,Q2*%
X52971850Y-120650000D03*
D24*
X51986850Y-122300000D03*
D23*
X52321850Y-120650000D03*
X51671850Y-120650000D03*
X51021850Y-120650000D03*
%TD*%
D42*
%TO.C,KiKit_FID_B_1*%
X28310650Y-22500000D03*
%TD*%
D29*
%TO.C,Q6*%
X64411844Y-63012500D03*
X66311844Y-63012500D03*
X65361844Y-64887500D03*
%TD*%
%TO.C,D130*%
X246439350Y-97362500D03*
X248339350Y-97362500D03*
X247389350Y-99237500D03*
%TD*%
D22*
%TO.C,TP1*%
X202389350Y-104800000D03*
%TD*%
D28*
%TO.C,R129*%
X184036844Y-133150000D03*
X182386844Y-133150000D03*
%TD*%
D32*
%TO.C,Q13*%
X80721844Y-50350000D03*
D33*
X81706844Y-48700000D03*
D32*
X81371844Y-50350000D03*
X82021844Y-50350000D03*
X82671844Y-50350000D03*
%TD*%
D25*
%TO.C,R123*%
X169971844Y-39350000D03*
X171621844Y-39350000D03*
%TD*%
D31*
%TO.C,D74*%
X135261844Y-65250000D03*
X135261844Y-68050000D03*
%TD*%
D28*
%TO.C,R62*%
X84036844Y-131650000D03*
X82386844Y-131650000D03*
%TD*%
D31*
%TO.C,D8*%
X54946850Y-65250000D03*
X54946850Y-68050000D03*
%TD*%
D35*
%TO.C,D94*%
X145846844Y-107450000D03*
X144446844Y-107450000D03*
%TD*%
D27*
%TO.C,R144*%
X248269350Y-53875000D03*
X248269350Y-55525000D03*
%TD*%
D31*
%TO.C,D44*%
X90446844Y-104250000D03*
X90446844Y-101450000D03*
%TD*%
D28*
%TO.C,R105*%
X149586844Y-120950000D03*
X147936844Y-120950000D03*
%TD*%
D31*
%TO.C,D110*%
X158696844Y-42250000D03*
X158696844Y-39450000D03*
%TD*%
D25*
%TO.C,R23*%
X181114350Y-116700000D03*
X182764350Y-116700000D03*
%TD*%
D31*
%TO.C,D117*%
X195311844Y-69750000D03*
X195311844Y-72550000D03*
%TD*%
D23*
%TO.C,Q11*%
X93286844Y-120650000D03*
D24*
X92301844Y-122300000D03*
D23*
X92636844Y-120650000D03*
X91986844Y-120650000D03*
X91336844Y-120650000D03*
%TD*%
D35*
%TO.C,D49*%
X82711844Y-130150000D03*
X84111844Y-130150000D03*
%TD*%
D27*
%TO.C,R59*%
X53581850Y-92225000D03*
X53581850Y-93875000D03*
%TD*%
D23*
%TO.C,Q1*%
X68289350Y-52587500D03*
D24*
X67304350Y-54237500D03*
D23*
X67639350Y-52587500D03*
X66989350Y-52587500D03*
X66339350Y-52587500D03*
%TD*%
D31*
%TO.C,D110*%
X158696844Y-101250000D03*
X158696844Y-98450000D03*
%TD*%
D28*
%TO.C,R101*%
X144036844Y-133150000D03*
X142386844Y-133150000D03*
%TD*%
D37*
%TO.C,U12*%
X92996844Y-47150000D03*
X92996844Y-47800000D03*
X92996844Y-48450000D03*
X91096844Y-48450000D03*
X91096844Y-47150000D03*
%TD*%
D35*
%TO.C,D26*%
X88161844Y-122550000D03*
X89561844Y-122550000D03*
%TD*%
D31*
%TO.C,D12*%
X43246850Y-66750000D03*
X43246850Y-69550000D03*
%TD*%
D27*
%TO.C,R32*%
X239469350Y-53875000D03*
X239469350Y-55525000D03*
%TD*%
D31*
%TO.C,D68*%
X98696844Y-101250000D03*
X98696844Y-98450000D03*
%TD*%
D25*
%TO.C,R140*%
X184421844Y-50050000D03*
X186071844Y-50050000D03*
%TD*%
%TO.C,R67*%
X89971844Y-39350000D03*
X91621844Y-39350000D03*
%TD*%
D31*
%TO.C,D10*%
X54996850Y-128750000D03*
X54996850Y-131550000D03*
%TD*%
D28*
%TO.C,R74*%
X104036844Y-131650000D03*
X102386844Y-131650000D03*
%TD*%
%TO.C,R12*%
X52714350Y-50000000D03*
X51064350Y-50000000D03*
%TD*%
D23*
%TO.C,Q15*%
X113286844Y-61650000D03*
D24*
X112301844Y-63300000D03*
D23*
X112636844Y-61650000D03*
X111986844Y-61650000D03*
X111336844Y-61650000D03*
%TD*%
D28*
%TO.C,R2*%
X49271850Y-120950000D03*
X47621850Y-120950000D03*
%TD*%
D35*
%TO.C,D106*%
X171296844Y-40850000D03*
X169896844Y-40850000D03*
%TD*%
D39*
%TO.C,F8*%
X112749344Y-128050000D03*
X105974344Y-128050000D03*
%TD*%
D35*
%TO.C,D92*%
X151296844Y-40850000D03*
X149896844Y-40850000D03*
%TD*%
D31*
%TO.C,D20*%
X70446844Y-104250000D03*
X70446844Y-101450000D03*
%TD*%
D25*
%TO.C,R132*%
X181064350Y-62000000D03*
X182714350Y-62000000D03*
%TD*%
D35*
%TO.C,D71*%
X122711844Y-71150000D03*
X124111844Y-71150000D03*
%TD*%
D27*
%TO.C,R42*%
X209539350Y-102975000D03*
X209539350Y-104625000D03*
%TD*%
D40*
%TO.C,U19*%
X161011844Y-64850000D03*
X161011844Y-64200000D03*
X161011844Y-63550000D03*
X162911844Y-63550000D03*
X162911844Y-64850000D03*
%TD*%
D35*
%TO.C,D120*%
X191296844Y-99850000D03*
X189896844Y-99850000D03*
%TD*%
D36*
%TO.C,R46*%
X208089350Y-51225000D03*
X208089350Y-49575000D03*
%TD*%
D25*
%TO.C,R134*%
X187936844Y-65150000D03*
X189586844Y-65150000D03*
%TD*%
D35*
%TO.C,D87*%
X148161844Y-63550000D03*
X149561844Y-63550000D03*
%TD*%
D43*
%TO.C,D7*%
X197189350Y-61350000D03*
X201489350Y-61350000D03*
%TD*%
D27*
%TO.C,R110*%
X153896844Y-92225000D03*
X153896844Y-93875000D03*
%TD*%
D28*
%TO.C,R77*%
X109586844Y-61950000D03*
X107936844Y-61950000D03*
%TD*%
D26*
%TO.C,F17*%
X181259344Y-101950000D03*
X188034344Y-101950000D03*
%TD*%
D36*
%TO.C,R117*%
X160111844Y-78775000D03*
X160111844Y-77125000D03*
%TD*%
D27*
%TO.C,R39*%
X231869350Y-53875000D03*
X231869350Y-55525000D03*
%TD*%
D25*
%TO.C,R14*%
X61064350Y-121000000D03*
X62714350Y-121000000D03*
%TD*%
D23*
%TO.C,Q2*%
X52971850Y-61650000D03*
D24*
X51986850Y-63300000D03*
D23*
X52321850Y-61650000D03*
X51671850Y-61650000D03*
X51021850Y-61650000D03*
%TD*%
D37*
%TO.C,U14*%
X112996844Y-47150000D03*
X112996844Y-47800000D03*
X112996844Y-48450000D03*
X111096844Y-48450000D03*
X111096844Y-47150000D03*
%TD*%
D25*
%TO.C,R109*%
X149971844Y-39350000D03*
X151621844Y-39350000D03*
%TD*%
D29*
%TO.C,D128*%
X249939350Y-38362500D03*
X251839350Y-38362500D03*
X250889350Y-40237500D03*
%TD*%
D28*
%TO.C,R73*%
X104036844Y-74150000D03*
X102386844Y-74150000D03*
%TD*%
D36*
%TO.C,R65*%
X82761844Y-139575000D03*
X82761844Y-137925000D03*
%TD*%
D27*
%TO.C,R100*%
X131246844Y-31425000D03*
X131246844Y-33075000D03*
%TD*%
D34*
%TO.C,Q20*%
X129596844Y-107987500D03*
X127696844Y-107987500D03*
X128646844Y-106112500D03*
%TD*%
D31*
%TO.C,D9*%
X38431850Y-105750000D03*
X38431850Y-102950000D03*
%TD*%
D28*
%TO.C,R71*%
X86071844Y-105850000D03*
X84421844Y-105850000D03*
%TD*%
D35*
%TO.C,D59*%
X108161844Y-63550000D03*
X109561844Y-63550000D03*
%TD*%
D28*
%TO.C,R15*%
X69586844Y-61950000D03*
X67936844Y-61950000D03*
%TD*%
D29*
%TO.C,Q6*%
X64411844Y-122012500D03*
X66311844Y-122012500D03*
X65361844Y-123887500D03*
%TD*%
D27*
%TO.C,R86*%
X111246844Y-90425000D03*
X111246844Y-92075000D03*
%TD*%
D44*
%TO.C,D16*%
X213489350Y-114350000D03*
X213489350Y-118650000D03*
%TD*%
D28*
%TO.C,R53*%
X43721850Y-72650000D03*
X42071850Y-72650000D03*
%TD*%
D31*
%TO.C,D40*%
X220739350Y-73700000D03*
X220739350Y-70900000D03*
%TD*%
%TO.C,D17*%
X75261844Y-124250000D03*
X75261844Y-127050000D03*
%TD*%
D26*
%TO.C,F17*%
X181259344Y-42950000D03*
X188034344Y-42950000D03*
%TD*%
D37*
%TO.C,U22*%
X192996844Y-106150000D03*
X192996844Y-106800000D03*
X192996844Y-107450000D03*
X191096844Y-107450000D03*
X191096844Y-106150000D03*
%TD*%
D34*
%TO.C,Q5*%
X49281850Y-107987500D03*
X47381850Y-107987500D03*
X48331850Y-106112500D03*
%TD*%
D25*
%TO.C,R118*%
X161064350Y-62000000D03*
X162714350Y-62000000D03*
%TD*%
D32*
%TO.C,Q9*%
X60721844Y-50350000D03*
D33*
X61706844Y-48700000D03*
D32*
X61371844Y-50350000D03*
X62021844Y-50350000D03*
X62671844Y-50350000D03*
%TD*%
D31*
%TO.C,D84*%
X143561844Y-66750000D03*
X143561844Y-69550000D03*
%TD*%
D28*
%TO.C,R71*%
X86071844Y-46850000D03*
X84421844Y-46850000D03*
%TD*%
D35*
%TO.C,D122*%
X185846844Y-48450000D03*
X184446844Y-48450000D03*
%TD*%
D43*
%TO.C,D7*%
X197189350Y-120350000D03*
X201489350Y-120350000D03*
%TD*%
D31*
%TO.C,D91*%
X150446844Y-45250000D03*
X150446844Y-42450000D03*
%TD*%
D40*
%TO.C,U21*%
X181011844Y-64850000D03*
X181011844Y-64200000D03*
X181011844Y-63550000D03*
X182911844Y-63550000D03*
X182911844Y-64850000D03*
%TD*%
D37*
%TO.C,U10*%
X72996844Y-106150000D03*
X72996844Y-106800000D03*
X72996844Y-107450000D03*
X71096844Y-107450000D03*
X71096844Y-106150000D03*
%TD*%
D27*
%TO.C,R128*%
X171246844Y-31425000D03*
X171246844Y-33075000D03*
%TD*%
D31*
%TO.C,D124*%
X178696844Y-42250000D03*
X178696844Y-39450000D03*
%TD*%
D27*
%TO.C,R36*%
X259569350Y-53875000D03*
X259569350Y-55525000D03*
%TD*%
D28*
%TO.C,R99*%
X126071844Y-105850000D03*
X124421844Y-105850000D03*
%TD*%
%TO.C,R88*%
X124036844Y-131650000D03*
X122386844Y-131650000D03*
%TD*%
D35*
%TO.C,D66*%
X105846844Y-48450000D03*
X104446844Y-48450000D03*
%TD*%
D36*
%TO.C,R17*%
X62761844Y-139575000D03*
X62761844Y-137925000D03*
%TD*%
D25*
%TO.C,R126*%
X164421844Y-50050000D03*
X166071844Y-50050000D03*
%TD*%
%TO.C,R108*%
X149971844Y-37850000D03*
X151621844Y-37850000D03*
%TD*%
D31*
%TO.C,D123*%
X178746844Y-105750000D03*
X178746844Y-102950000D03*
%TD*%
D45*
%TO.C,C10*%
X203814350Y-36125000D03*
X206764350Y-36125000D03*
%TD*%
D25*
%TO.C,R92*%
X127936844Y-124150000D03*
X129586844Y-124150000D03*
%TD*%
D39*
%TO.C,F2*%
X52434350Y-69050000D03*
X45659350Y-69050000D03*
%TD*%
D31*
%TO.C,D112*%
X183561844Y-66750000D03*
X183561844Y-69550000D03*
%TD*%
D23*
%TO.C,Q1*%
X68289350Y-111587500D03*
D24*
X67304350Y-113237500D03*
D23*
X67639350Y-111587500D03*
X66989350Y-111587500D03*
X66339350Y-111587500D03*
%TD*%
D29*
%TO.C,D127*%
X239439350Y-97362500D03*
X241339350Y-97362500D03*
X240389350Y-99237500D03*
%TD*%
D35*
%TO.C,D78*%
X131296844Y-40850000D03*
X129896844Y-40850000D03*
%TD*%
D34*
%TO.C,Q8*%
X69596844Y-107987500D03*
X67696844Y-107987500D03*
X68646844Y-106112500D03*
%TD*%
D31*
%TO.C,D88*%
X155261844Y-65250000D03*
X155261844Y-68050000D03*
%TD*%
D38*
%TO.C,C19*%
X213489350Y-43675000D03*
X213489350Y-40725000D03*
%TD*%
D25*
%TO.C,R120*%
X167936844Y-124150000D03*
X169586844Y-124150000D03*
%TD*%
D36*
%TO.C,R46*%
X208089350Y-110225000D03*
X208089350Y-108575000D03*
%TD*%
D25*
%TO.C,R70*%
X84421844Y-109050000D03*
X86071844Y-109050000D03*
%TD*%
D36*
%TO.C,R47*%
X216754350Y-69400000D03*
X216754350Y-67750000D03*
%TD*%
D31*
%TO.C,D61*%
X115311844Y-128750000D03*
X115311844Y-131550000D03*
%TD*%
%TO.C,D98*%
X163561844Y-66750000D03*
X163561844Y-69550000D03*
%TD*%
%TO.C,D68*%
X98696844Y-42250000D03*
X98696844Y-39450000D03*
%TD*%
%TO.C,D54*%
X78696844Y-101250000D03*
X78696844Y-98450000D03*
%TD*%
D25*
%TO.C,R76*%
X101064350Y-62000000D03*
X102714350Y-62000000D03*
%TD*%
D39*
%TO.C,F16*%
X192749344Y-69050000D03*
X185974344Y-69050000D03*
%TD*%
D36*
%TO.C,R63*%
X80111844Y-78775000D03*
X80111844Y-77125000D03*
%TD*%
D32*
%TO.C,Q3*%
X40406850Y-109350000D03*
D33*
X41391850Y-107700000D03*
D32*
X41056850Y-109350000D03*
X41706850Y-109350000D03*
X42356850Y-109350000D03*
%TD*%
%TO.C,Q3*%
X40406850Y-50350000D03*
D33*
X41391850Y-48700000D03*
D32*
X41056850Y-50350000D03*
X41706850Y-50350000D03*
X42356850Y-50350000D03*
%TD*%
D25*
%TO.C,R76*%
X101064350Y-121000000D03*
X102714350Y-121000000D03*
%TD*%
D32*
%TO.C,Q13*%
X80721844Y-109350000D03*
D33*
X81706844Y-107700000D03*
D32*
X81371844Y-109350000D03*
X82021844Y-109350000D03*
X82671844Y-109350000D03*
%TD*%
D38*
%TO.C,C25*%
X218764350Y-69400000D03*
X218764350Y-66450000D03*
%TD*%
D34*
%TO.C,Q20*%
X129596844Y-48987500D03*
X127696844Y-48987500D03*
X128646844Y-47112500D03*
%TD*%
D25*
%TO.C,R25*%
X108074350Y-118000000D03*
X109724350Y-118000000D03*
%TD*%
D23*
%TO.C,Q35*%
X148809350Y-52487500D03*
D24*
X147824350Y-54137500D03*
D23*
X148159350Y-52487500D03*
X147509350Y-52487500D03*
X146859350Y-52487500D03*
%TD*%
D34*
%TO.C,Q24*%
X149596844Y-107987500D03*
X147696844Y-107987500D03*
X148646844Y-106112500D03*
%TD*%
D25*
%TO.C,R112*%
X144421844Y-109050000D03*
X146071844Y-109050000D03*
%TD*%
D28*
%TO.C,R102*%
X144036844Y-131650000D03*
X142386844Y-131650000D03*
%TD*%
%TO.C,R73*%
X104036844Y-133150000D03*
X102386844Y-133150000D03*
%TD*%
D25*
%TO.C,R66*%
X89971844Y-96850000D03*
X91621844Y-96850000D03*
%TD*%
D34*
%TO.C,Q16*%
X109596844Y-107987500D03*
X107696844Y-107987500D03*
X108646844Y-106112500D03*
%TD*%
D31*
%TO.C,D105*%
X170446844Y-45250000D03*
X170446844Y-42450000D03*
%TD*%
D28*
%TO.C,R85*%
X106071844Y-46850000D03*
X104421844Y-46850000D03*
%TD*%
D26*
%TO.C,F15*%
X161259344Y-101950000D03*
X168034344Y-101950000D03*
%TD*%
D31*
%TO.C,D95*%
X138746844Y-46750000D03*
X138746844Y-43950000D03*
%TD*%
D25*
%TO.C,R66*%
X89971844Y-37850000D03*
X91621844Y-37850000D03*
%TD*%
D35*
%TO.C,D21*%
X65846844Y-48450000D03*
X64446844Y-48450000D03*
%TD*%
D36*
%TO.C,R45*%
X211089350Y-45625000D03*
X211089350Y-43975000D03*
%TD*%
D35*
%TO.C,D2*%
X47846850Y-63550000D03*
X49246850Y-63550000D03*
%TD*%
D26*
%TO.C,F13*%
X141259344Y-101950000D03*
X148034344Y-101950000D03*
%TD*%
D34*
%TO.C,Q12*%
X89596844Y-107987500D03*
X87696844Y-107987500D03*
X88646844Y-106112500D03*
%TD*%
D46*
%TO.C,U8*%
X215179350Y-128400000D03*
X214529350Y-128400000D03*
X213879350Y-128400000D03*
X213879350Y-126500000D03*
X215179350Y-126500000D03*
%TD*%
D39*
%TO.C,F2*%
X52434350Y-128050000D03*
X45659350Y-128050000D03*
%TD*%
D35*
%TO.C,D122*%
X185846844Y-107450000D03*
X184446844Y-107450000D03*
%TD*%
D28*
%TO.C,R7*%
X45756850Y-46850000D03*
X44106850Y-46850000D03*
%TD*%
D25*
%TO.C,R54*%
X49656850Y-98350000D03*
X51306850Y-98350000D03*
%TD*%
D28*
%TO.C,R125*%
X173014350Y-50000000D03*
X171364350Y-50000000D03*
%TD*%
D36*
%TO.C,R60*%
X60111844Y-78775000D03*
X60111844Y-77125000D03*
%TD*%
D25*
%TO.C,R48*%
X209904350Y-72700000D03*
X211554350Y-72700000D03*
%TD*%
D47*
%TO.C,U3*%
X206689350Y-45500000D03*
D48*
X206214350Y-45500000D03*
X205764350Y-45500000D03*
D49*
X205289350Y-45500000D03*
D50*
X205989350Y-44850000D03*
X205989350Y-44350000D03*
D51*
X205289350Y-43700000D03*
D48*
X205764350Y-43700000D03*
X206214350Y-43700000D03*
D52*
X206689350Y-43700000D03*
%TD*%
D27*
%TO.C,R29*%
X223069350Y-53875000D03*
X223069350Y-55525000D03*
%TD*%
D26*
%TO.C,F7*%
X81259344Y-42950000D03*
X88034344Y-42950000D03*
%TD*%
D27*
%TO.C,R33*%
X236969350Y-53875000D03*
X236969350Y-55525000D03*
%TD*%
D25*
%TO.C,R64*%
X87936844Y-65150000D03*
X89586844Y-65150000D03*
%TD*%
%TO.C,R18*%
X69971844Y-37850000D03*
X71621844Y-37850000D03*
%TD*%
D27*
%TO.C,R96*%
X133896844Y-92225000D03*
X133896844Y-93875000D03*
%TD*%
D35*
%TO.C,D6*%
X68189350Y-57600000D03*
X69589350Y-57600000D03*
%TD*%
D31*
%TO.C,D112*%
X183561844Y-125750000D03*
X183561844Y-128550000D03*
%TD*%
D47*
%TO.C,U3*%
X206689350Y-104500000D03*
D48*
X206214350Y-104500000D03*
X205764350Y-104500000D03*
D49*
X205289350Y-104500000D03*
D50*
X205989350Y-103850000D03*
X205989350Y-103350000D03*
D51*
X205289350Y-102700000D03*
D48*
X205764350Y-102700000D03*
X206214350Y-102700000D03*
D52*
X206689350Y-102700000D03*
%TD*%
D27*
%TO.C,R145*%
X245769350Y-53875000D03*
X245769350Y-55525000D03*
%TD*%
D36*
%TO.C,R121*%
X162761844Y-80575000D03*
X162761844Y-78925000D03*
%TD*%
D27*
%TO.C,R82*%
X113896844Y-92225000D03*
X113896844Y-93875000D03*
%TD*%
D31*
%TO.C,D81*%
X118746844Y-105750000D03*
X118746844Y-102950000D03*
%TD*%
D36*
%TO.C,R55*%
X212329350Y-69175000D03*
X212329350Y-67525000D03*
%TD*%
D29*
%TO.C,Q30*%
X184411844Y-122012500D03*
X186311844Y-122012500D03*
X185361844Y-123887500D03*
%TD*%
D32*
%TO.C,Q17*%
X100721844Y-50350000D03*
D33*
X101706844Y-48700000D03*
D32*
X101371844Y-50350000D03*
X102021844Y-50350000D03*
X102671844Y-50350000D03*
%TD*%
D35*
%TO.C,D87*%
X148161844Y-122550000D03*
X149561844Y-122550000D03*
%TD*%
D28*
%TO.C,R105*%
X149586844Y-61950000D03*
X147936844Y-61950000D03*
%TD*%
D35*
%TO.C,D45*%
X42396850Y-130150000D03*
X43796850Y-130150000D03*
%TD*%
%TO.C,D50*%
X91296844Y-99850000D03*
X89896844Y-99850000D03*
%TD*%
D42*
%TO.C,KiKit_FID_B_2*%
X268689350Y-22500000D03*
%TD*%
D36*
%TO.C,R93*%
X122761844Y-80575000D03*
X122761844Y-78925000D03*
%TD*%
D29*
%TO.C,D34*%
X228939350Y-97362500D03*
X230839350Y-97362500D03*
X229889350Y-99237500D03*
%TD*%
D25*
%TO.C,R80*%
X109971844Y-37850000D03*
X111621844Y-37850000D03*
%TD*%
D27*
%TO.C,R38*%
X220569350Y-112875000D03*
X220569350Y-114525000D03*
%TD*%
D35*
%TO.C,D113*%
X182711844Y-71150000D03*
X184111844Y-71150000D03*
%TD*%
D34*
%TO.C,Q24*%
X149596844Y-48987500D03*
X147696844Y-48987500D03*
X148646844Y-47112500D03*
%TD*%
D36*
%TO.C,R93*%
X122761844Y-139575000D03*
X122761844Y-137925000D03*
%TD*%
D31*
%TO.C,D124*%
X178696844Y-101250000D03*
X178696844Y-98450000D03*
%TD*%
D35*
%TO.C,D3*%
X45531850Y-48450000D03*
X44131850Y-48450000D03*
%TD*%
%TO.C,D73*%
X128161844Y-122550000D03*
X129561844Y-122550000D03*
%TD*%
D40*
%TO.C,U19*%
X161011844Y-123850000D03*
X161011844Y-123200000D03*
X161011844Y-122550000D03*
X162911844Y-122550000D03*
X162911844Y-123850000D03*
%TD*%
D25*
%TO.C,R11*%
X40664350Y-121000000D03*
X42314350Y-121000000D03*
%TD*%
D31*
%TO.C,D89*%
X155311844Y-128750000D03*
X155311844Y-131550000D03*
%TD*%
D29*
%TO.C,D127*%
X239439350Y-38362500D03*
X241339350Y-38362500D03*
X240389350Y-40237500D03*
%TD*%
D31*
%TO.C,D119*%
X190446844Y-104250000D03*
X190446844Y-101450000D03*
%TD*%
D40*
%TO.C,U5*%
X40696850Y-123850000D03*
X40696850Y-123200000D03*
X40696850Y-122550000D03*
X42596850Y-122550000D03*
X42596850Y-123850000D03*
%TD*%
D28*
%TO.C,R115*%
X164036844Y-133150000D03*
X162386844Y-133150000D03*
%TD*%
D40*
%TO.C,U17*%
X141011844Y-64850000D03*
X141011844Y-64200000D03*
X141011844Y-63550000D03*
X142911844Y-63550000D03*
X142911844Y-64850000D03*
%TD*%
D31*
%TO.C,D25*%
X83561844Y-125750000D03*
X83561844Y-128550000D03*
%TD*%
%TO.C,D13*%
X50131850Y-45250000D03*
X50131850Y-42450000D03*
%TD*%
%TO.C,D60*%
X115261844Y-65250000D03*
X115261844Y-68050000D03*
%TD*%
%TO.C,D95*%
X138746844Y-105750000D03*
X138746844Y-102950000D03*
%TD*%
D23*
%TO.C,Q7*%
X73286844Y-61650000D03*
D24*
X72301844Y-63300000D03*
D23*
X72636844Y-61650000D03*
X71986844Y-61650000D03*
X71336844Y-61650000D03*
%TD*%
D31*
%TO.C,D23*%
X58696844Y-101250000D03*
X58696844Y-98450000D03*
%TD*%
%TO.C,D9*%
X38431850Y-46750000D03*
X38431850Y-43950000D03*
%TD*%
D28*
%TO.C,R69*%
X93014350Y-109000000D03*
X91364350Y-109000000D03*
%TD*%
D27*
%TO.C,R5*%
X50931850Y-31425000D03*
X50931850Y-33075000D03*
%TD*%
D53*
%TO.C,C24*%
X215414350Y-102750000D03*
X216964350Y-102750000D03*
%TD*%
D39*
%TO.C,F14*%
X172749344Y-69050000D03*
X165974344Y-69050000D03*
%TD*%
D26*
%TO.C,F5*%
X61259344Y-101950000D03*
X68034344Y-101950000D03*
%TD*%
D23*
%TO.C,Q23*%
X153286844Y-61650000D03*
D24*
X152301844Y-63300000D03*
D23*
X152636844Y-61650000D03*
X151986844Y-61650000D03*
X151336844Y-61650000D03*
%TD*%
D35*
%TO.C,D47*%
X62711844Y-130150000D03*
X64111844Y-130150000D03*
%TD*%
D31*
%TO.C,D18*%
X75311844Y-69750000D03*
X75311844Y-72550000D03*
%TD*%
D35*
%TO.C,D94*%
X145846844Y-48450000D03*
X144446844Y-48450000D03*
%TD*%
D25*
%TO.C,R90*%
X121064350Y-62000000D03*
X122714350Y-62000000D03*
%TD*%
D30*
%TO.C,U9*%
X218364350Y-45350000D03*
X218364350Y-47250000D03*
X216489350Y-46300000D03*
%TD*%
D28*
%TO.C,R130*%
X184036844Y-131650000D03*
X182386844Y-131650000D03*
%TD*%
D23*
%TO.C,Q35*%
X148809350Y-111487500D03*
D24*
X147824350Y-113137500D03*
D23*
X148159350Y-111487500D03*
X147509350Y-111487500D03*
X146859350Y-111487500D03*
%TD*%
D32*
%TO.C,Q33*%
X180721844Y-109350000D03*
D33*
X181706844Y-107700000D03*
D32*
X181371844Y-109350000D03*
X182021844Y-109350000D03*
X182671844Y-109350000D03*
%TD*%
D31*
%TO.C,D13*%
X50131850Y-104250000D03*
X50131850Y-101450000D03*
%TD*%
D28*
%TO.C,R88*%
X124036844Y-72650000D03*
X122386844Y-72650000D03*
%TD*%
D35*
%TO.C,D92*%
X151296844Y-99850000D03*
X149896844Y-99850000D03*
%TD*%
D39*
%TO.C,F8*%
X112749344Y-69050000D03*
X105974344Y-69050000D03*
%TD*%
D36*
%TO.C,R45*%
X211089350Y-104625000D03*
X211089350Y-102975000D03*
%TD*%
D35*
%TO.C,D45*%
X42396850Y-71150000D03*
X43796850Y-71150000D03*
%TD*%
D54*
%TO.C,C20*%
X210089350Y-49725000D03*
X210089350Y-52675000D03*
%TD*%
D36*
%TO.C,R63*%
X80111844Y-137775000D03*
X80111844Y-136125000D03*
%TD*%
D41*
%TO.C,D39*%
X220739350Y-128400000D03*
X220739350Y-127000000D03*
%TD*%
D25*
%TO.C,R120*%
X167936844Y-65150000D03*
X169586844Y-65150000D03*
%TD*%
D37*
%TO.C,U12*%
X92996844Y-106150000D03*
X92996844Y-106800000D03*
X92996844Y-107450000D03*
X91096844Y-107450000D03*
X91096844Y-106150000D03*
%TD*%
D45*
%TO.C,C10*%
X203814350Y-95125000D03*
X206764350Y-95125000D03*
%TD*%
D36*
%TO.C,R75*%
X100111844Y-78775000D03*
X100111844Y-77125000D03*
%TD*%
D28*
%TO.C,R49*%
X216154350Y-129800000D03*
X214504350Y-129800000D03*
%TD*%
D25*
%TO.C,R67*%
X89971844Y-98350000D03*
X91621844Y-98350000D03*
%TD*%
%TO.C,R25*%
X108074350Y-59000000D03*
X109724350Y-59000000D03*
%TD*%
D28*
%TO.C,R21*%
X66071844Y-46850000D03*
X64421844Y-46850000D03*
%TD*%
D31*
%TO.C,D22*%
X58746844Y-46750000D03*
X58746844Y-43950000D03*
%TD*%
%TO.C,D67*%
X98746844Y-105750000D03*
X98746844Y-102950000D03*
%TD*%
D27*
%TO.C,R59*%
X53581850Y-33225000D03*
X53581850Y-34875000D03*
%TD*%
D35*
%TO.C,D57*%
X102711844Y-130150000D03*
X104111844Y-130150000D03*
%TD*%
D28*
%TO.C,R141*%
X186071844Y-105850000D03*
X184421844Y-105850000D03*
%TD*%
D31*
%TO.C,D40*%
X220739350Y-132700000D03*
X220739350Y-129900000D03*
%TD*%
D28*
%TO.C,R77*%
X109586844Y-120950000D03*
X107936844Y-120950000D03*
%TD*%
D25*
%TO.C,R70*%
X84421844Y-50050000D03*
X86071844Y-50050000D03*
%TD*%
D35*
%TO.C,D85*%
X142711844Y-71150000D03*
X144111844Y-71150000D03*
%TD*%
D31*
%TO.C,D75*%
X135311844Y-128750000D03*
X135311844Y-131550000D03*
%TD*%
D25*
%TO.C,R81*%
X109971844Y-39350000D03*
X111621844Y-39350000D03*
%TD*%
D27*
%TO.C,R61*%
X73896844Y-33225000D03*
X73896844Y-34875000D03*
%TD*%
D26*
%TO.C,F11*%
X121259344Y-101950000D03*
X128034344Y-101950000D03*
%TD*%
D28*
%TO.C,R97*%
X133014350Y-50000000D03*
X131364350Y-50000000D03*
%TD*%
%TO.C,R49*%
X216154350Y-70800000D03*
X214504350Y-70800000D03*
%TD*%
%TO.C,R99*%
X126071844Y-46850000D03*
X124421844Y-46850000D03*
%TD*%
D31*
%TO.C,D96*%
X138696844Y-101250000D03*
X138696844Y-98450000D03*
%TD*%
D25*
%TO.C,R90*%
X121064350Y-121000000D03*
X122714350Y-121000000D03*
%TD*%
D35*
%TO.C,D2*%
X47846850Y-122550000D03*
X49246850Y-122550000D03*
%TD*%
D32*
%TO.C,Q29*%
X160721844Y-50350000D03*
D33*
X161706844Y-48700000D03*
D32*
X161371844Y-50350000D03*
X162021844Y-50350000D03*
X162671844Y-50350000D03*
%TD*%
D36*
%TO.C,R17*%
X62761844Y-80575000D03*
X62761844Y-78925000D03*
%TD*%
D28*
%TO.C,R127*%
X166071844Y-46850000D03*
X164421844Y-46850000D03*
%TD*%
D32*
%TO.C,Q9*%
X60721844Y-109350000D03*
D33*
X61706844Y-107700000D03*
D32*
X61371844Y-109350000D03*
X62021844Y-109350000D03*
X62671844Y-109350000D03*
%TD*%
D27*
%TO.C,R30*%
X225669350Y-53875000D03*
X225669350Y-55525000D03*
%TD*%
D36*
%TO.C,R103*%
X140111844Y-137775000D03*
X140111844Y-136125000D03*
%TD*%
D28*
%TO.C,R130*%
X184036844Y-72650000D03*
X182386844Y-72650000D03*
%TD*%
%TO.C,R111*%
X153014350Y-109000000D03*
X151364350Y-109000000D03*
%TD*%
D27*
%TO.C,R33*%
X236969350Y-112875000D03*
X236969350Y-114525000D03*
%TD*%
%TO.C,R40*%
X254469350Y-112875000D03*
X254469350Y-114525000D03*
%TD*%
D25*
%TO.C,R48*%
X209904350Y-131700000D03*
X211554350Y-131700000D03*
%TD*%
D38*
%TO.C,C25*%
X218764350Y-128400000D03*
X218764350Y-125450000D03*
%TD*%
D31*
%TO.C,D44*%
X90446844Y-45250000D03*
X90446844Y-42450000D03*
%TD*%
D27*
%TO.C,R35*%
X262069350Y-112875000D03*
X262069350Y-114525000D03*
%TD*%
%TO.C,R34*%
X234369350Y-53875000D03*
X234369350Y-55525000D03*
%TD*%
%TO.C,R110*%
X153896844Y-33225000D03*
X153896844Y-34875000D03*
%TD*%
D35*
%TO.C,D106*%
X171296844Y-99850000D03*
X169896844Y-99850000D03*
%TD*%
D25*
%TO.C,R106*%
X147936844Y-124150000D03*
X149586844Y-124150000D03*
%TD*%
D31*
%TO.C,D28*%
X95311844Y-69750000D03*
X95311844Y-72550000D03*
%TD*%
%TO.C,D60*%
X115261844Y-124250000D03*
X115261844Y-127050000D03*
%TD*%
D35*
%TO.C,D33*%
X108299350Y-116500000D03*
X109699350Y-116500000D03*
%TD*%
%TO.C,D50*%
X91296844Y-40850000D03*
X89896844Y-40850000D03*
%TD*%
D31*
%TO.C,D12*%
X43246850Y-125750000D03*
X43246850Y-128550000D03*
%TD*%
D27*
%TO.C,R37*%
X257069350Y-112875000D03*
X257069350Y-114525000D03*
%TD*%
%TO.C,R68*%
X93896844Y-33225000D03*
X93896844Y-34875000D03*
%TD*%
D35*
%TO.C,D52*%
X85846844Y-107450000D03*
X84446844Y-107450000D03*
%TD*%
D25*
%TO.C,R57*%
X69971844Y-98350000D03*
X71621844Y-98350000D03*
%TD*%
D27*
%TO.C,R143*%
X250869350Y-53875000D03*
X250869350Y-55525000D03*
%TD*%
D40*
%TO.C,U15*%
X121011844Y-123850000D03*
X121011844Y-123200000D03*
X121011844Y-122550000D03*
X122911844Y-122550000D03*
X122911844Y-123850000D03*
%TD*%
D25*
%TO.C,R16*%
X67936844Y-124150000D03*
X69586844Y-124150000D03*
%TD*%
D27*
%TO.C,R100*%
X131246844Y-90425000D03*
X131246844Y-92075000D03*
%TD*%
D31*
%TO.C,D11*%
X38381850Y-42250000D03*
X38381850Y-39450000D03*
%TD*%
D25*
%TO.C,R18*%
X69971844Y-96850000D03*
X71621844Y-96850000D03*
%TD*%
D28*
%TO.C,R129*%
X184036844Y-74150000D03*
X182386844Y-74150000D03*
%TD*%
D27*
%TO.C,R138*%
X193896844Y-92225000D03*
X193896844Y-93875000D03*
%TD*%
D28*
%TO.C,R91*%
X129586844Y-120950000D03*
X127936844Y-120950000D03*
%TD*%
D25*
%TO.C,R95*%
X129971844Y-98350000D03*
X131621844Y-98350000D03*
%TD*%
D23*
%TO.C,Q27*%
X173286844Y-120650000D03*
D24*
X172301844Y-122300000D03*
D23*
X172636844Y-120650000D03*
X171986844Y-120650000D03*
X171336844Y-120650000D03*
%TD*%
D36*
%TO.C,R58*%
X39796850Y-137775000D03*
X39796850Y-136125000D03*
%TD*%
D25*
%TO.C,R3*%
X44106850Y-50050000D03*
X45756850Y-50050000D03*
%TD*%
D31*
%TO.C,D103*%
X175311844Y-69750000D03*
X175311844Y-72550000D03*
%TD*%
D35*
%TO.C,D108*%
X165846844Y-48450000D03*
X164446844Y-48450000D03*
%TD*%
D34*
%TO.C,Q32*%
X189596844Y-48987500D03*
X187696844Y-48987500D03*
X188646844Y-47112500D03*
%TD*%
D27*
%TO.C,R30*%
X225669350Y-112875000D03*
X225669350Y-114525000D03*
%TD*%
D31*
%TO.C,D98*%
X163561844Y-125750000D03*
X163561844Y-128550000D03*
%TD*%
D35*
%TO.C,D71*%
X122711844Y-130150000D03*
X124111844Y-130150000D03*
%TD*%
D54*
%TO.C,C20*%
X210089350Y-108725000D03*
X210089350Y-111675000D03*
%TD*%
D31*
%TO.C,D84*%
X143561844Y-125750000D03*
X143561844Y-128550000D03*
%TD*%
D32*
%TO.C,Q29*%
X160721844Y-109350000D03*
D33*
X161706844Y-107700000D03*
D32*
X161371844Y-109350000D03*
X162021844Y-109350000D03*
X162671844Y-109350000D03*
%TD*%
D36*
%TO.C,R58*%
X39796850Y-78775000D03*
X39796850Y-77125000D03*
%TD*%
D29*
%TO.C,D126*%
X235939350Y-38362500D03*
X237839350Y-38362500D03*
X236889350Y-40237500D03*
%TD*%
D25*
%TO.C,R8*%
X67964350Y-59100000D03*
X69614350Y-59100000D03*
%TD*%
D31*
%TO.C,D11*%
X38381850Y-101250000D03*
X38381850Y-98450000D03*
%TD*%
D28*
%TO.C,R133*%
X189586844Y-61950000D03*
X187936844Y-61950000D03*
%TD*%
D27*
%TO.C,R82*%
X113896844Y-33225000D03*
X113896844Y-34875000D03*
%TD*%
D29*
%TO.C,D129*%
X253439350Y-38362500D03*
X255339350Y-38362500D03*
X254389350Y-40237500D03*
%TD*%
D31*
%TO.C,D103*%
X175311844Y-128750000D03*
X175311844Y-131550000D03*
%TD*%
D25*
%TO.C,R84*%
X104421844Y-109050000D03*
X106071844Y-109050000D03*
%TD*%
%TO.C,R11*%
X40664350Y-62000000D03*
X42314350Y-62000000D03*
%TD*%
D39*
%TO.C,F12*%
X152749344Y-69050000D03*
X145974344Y-69050000D03*
%TD*%
D31*
%TO.C,D56*%
X103561844Y-66750000D03*
X103561844Y-69550000D03*
%TD*%
D29*
%TO.C,D35*%
X232439350Y-97362500D03*
X234339350Y-97362500D03*
X233389350Y-99237500D03*
%TD*%
D35*
%TO.C,D48*%
X71296844Y-40850000D03*
X69896844Y-40850000D03*
%TD*%
D39*
%TO.C,F4*%
X72749344Y-128050000D03*
X65974344Y-128050000D03*
%TD*%
D25*
%TO.C,R84*%
X104421844Y-50050000D03*
X106071844Y-50050000D03*
%TD*%
%TO.C,R122*%
X169971844Y-96850000D03*
X171621844Y-96850000D03*
%TD*%
D28*
%TO.C,R141*%
X186071844Y-46850000D03*
X184421844Y-46850000D03*
%TD*%
D31*
%TO.C,D105*%
X170446844Y-104250000D03*
X170446844Y-101450000D03*
%TD*%
D37*
%TO.C,U6*%
X52681850Y-47150000D03*
X52681850Y-47800000D03*
X52681850Y-48450000D03*
X50781850Y-48450000D03*
X50781850Y-47150000D03*
%TD*%
D26*
%TO.C,F13*%
X141259344Y-42950000D03*
X148034344Y-42950000D03*
%TD*%
D25*
%TO.C,R27*%
X148484350Y-59000000D03*
X150134350Y-59000000D03*
%TD*%
D35*
%TO.C,D3*%
X45531850Y-107450000D03*
X44131850Y-107450000D03*
%TD*%
D23*
%TO.C,Q27*%
X173286844Y-61650000D03*
D24*
X172301844Y-63300000D03*
D23*
X172636844Y-61650000D03*
X171986844Y-61650000D03*
X171336844Y-61650000D03*
%TD*%
D39*
%TO.C,F12*%
X152749344Y-128050000D03*
X145974344Y-128050000D03*
%TD*%
D25*
%TO.C,R6*%
X47621850Y-65150000D03*
X49271850Y-65150000D03*
%TD*%
D37*
%TO.C,U16*%
X132996844Y-106150000D03*
X132996844Y-106800000D03*
X132996844Y-107450000D03*
X131096844Y-107450000D03*
X131096844Y-106150000D03*
%TD*%
D36*
%TO.C,R4*%
X42446850Y-80575000D03*
X42446850Y-78925000D03*
%TD*%
D27*
%TO.C,R31*%
X228169350Y-112875000D03*
X228169350Y-114525000D03*
%TD*%
%TO.C,R68*%
X93896844Y-92225000D03*
X93896844Y-93875000D03*
%TD*%
D29*
%TO.C,D35*%
X232439350Y-38362500D03*
X234339350Y-38362500D03*
X233389350Y-40237500D03*
%TD*%
%TO.C,Q10*%
X84411844Y-63012500D03*
X86311844Y-63012500D03*
X85361844Y-64887500D03*
%TD*%
D40*
%TO.C,U17*%
X141011844Y-123850000D03*
X141011844Y-123200000D03*
X141011844Y-122550000D03*
X142911844Y-122550000D03*
X142911844Y-123850000D03*
%TD*%
D28*
%TO.C,R9*%
X43721850Y-133150000D03*
X42071850Y-133150000D03*
%TD*%
D25*
%TO.C,R64*%
X87936844Y-124150000D03*
X89586844Y-124150000D03*
%TD*%
D36*
%TO.C,R79*%
X102761844Y-139575000D03*
X102761844Y-137925000D03*
%TD*%
D27*
%TO.C,R39*%
X231869350Y-112875000D03*
X231869350Y-114525000D03*
%TD*%
D31*
%TO.C,D119*%
X190446844Y-45250000D03*
X190446844Y-42450000D03*
%TD*%
D27*
%TO.C,R114*%
X151246844Y-31425000D03*
X151246844Y-33075000D03*
%TD*%
D25*
%TO.C,R3*%
X44106850Y-109050000D03*
X45756850Y-109050000D03*
%TD*%
D27*
%TO.C,R124*%
X173896844Y-33225000D03*
X173896844Y-34875000D03*
%TD*%
D29*
%TO.C,Q18*%
X124411844Y-122012500D03*
X126311844Y-122012500D03*
X125361844Y-123887500D03*
%TD*%
D55*
%TO.C,D36*%
X211269350Y-96000000D03*
D56*
X215251350Y-95080000D03*
X215251350Y-96920000D03*
%TD*%
D28*
%TO.C,R83*%
X113014350Y-50000000D03*
X111364350Y-50000000D03*
%TD*%
%TO.C,R133*%
X189586844Y-120950000D03*
X187936844Y-120950000D03*
%TD*%
D36*
%TO.C,R117*%
X160111844Y-137775000D03*
X160111844Y-136125000D03*
%TD*%
D29*
%TO.C,D131*%
X242939350Y-38362500D03*
X244839350Y-38362500D03*
X243889350Y-40237500D03*
%TD*%
D27*
%TO.C,R35*%
X262069350Y-53875000D03*
X262069350Y-55525000D03*
%TD*%
%TO.C,R143*%
X250869350Y-112875000D03*
X250869350Y-114525000D03*
%TD*%
D46*
%TO.C,U8*%
X215179350Y-69400000D03*
X214529350Y-69400000D03*
X213879350Y-69400000D03*
X213879350Y-67500000D03*
X215179350Y-67500000D03*
%TD*%
D31*
%TO.C,D54*%
X78696844Y-42250000D03*
X78696844Y-39450000D03*
%TD*%
D57*
%TO.C,C17*%
X211839350Y-40780000D03*
X211839350Y-39820000D03*
%TD*%
D29*
%TO.C,Q22*%
X144411844Y-122012500D03*
X146311844Y-122012500D03*
X145361844Y-123887500D03*
%TD*%
D25*
%TO.C,R122*%
X169971844Y-37850000D03*
X171621844Y-37850000D03*
%TD*%
D31*
%TO.C,D88*%
X155261844Y-124250000D03*
X155261844Y-127050000D03*
%TD*%
D36*
%TO.C,R60*%
X60111844Y-137775000D03*
X60111844Y-136125000D03*
%TD*%
D28*
%TO.C,R43*%
X214564350Y-46900000D03*
X212914350Y-46900000D03*
%TD*%
%TO.C,R21*%
X66071844Y-105850000D03*
X64421844Y-105850000D03*
%TD*%
D40*
%TO.C,U11*%
X81011844Y-64850000D03*
X81011844Y-64200000D03*
X81011844Y-63550000D03*
X82911844Y-63550000D03*
X82911844Y-64850000D03*
%TD*%
D25*
%TO.C,R20*%
X64421844Y-50050000D03*
X66071844Y-50050000D03*
%TD*%
D34*
%TO.C,Q32*%
X189596844Y-107987500D03*
X187696844Y-107987500D03*
X188646844Y-106112500D03*
%TD*%
D25*
%TO.C,R98*%
X124421844Y-50050000D03*
X126071844Y-50050000D03*
%TD*%
%TO.C,R126*%
X164421844Y-109050000D03*
X166071844Y-109050000D03*
%TD*%
D28*
%TO.C,R41*%
X214564350Y-104350000D03*
X212914350Y-104350000D03*
%TD*%
D35*
%TO.C,D78*%
X131296844Y-99850000D03*
X129896844Y-99850000D03*
%TD*%
D37*
%TO.C,U6*%
X52681850Y-106150000D03*
X52681850Y-106800000D03*
X52681850Y-107450000D03*
X50781850Y-107450000D03*
X50781850Y-106150000D03*
%TD*%
D39*
%TO.C,F4*%
X72749344Y-69050000D03*
X65974344Y-69050000D03*
%TD*%
D31*
%TO.C,D22*%
X58746844Y-105750000D03*
X58746844Y-102950000D03*
%TD*%
D25*
%TO.C,R16*%
X67936844Y-65150000D03*
X69586844Y-65150000D03*
%TD*%
D31*
%TO.C,D53*%
X78746844Y-105750000D03*
X78746844Y-102950000D03*
%TD*%
D29*
%TO.C,Q22*%
X144411844Y-63012500D03*
X146311844Y-63012500D03*
X145361844Y-64887500D03*
%TD*%
D25*
%TO.C,R123*%
X169971844Y-98350000D03*
X171621844Y-98350000D03*
%TD*%
D31*
%TO.C,D67*%
X98746844Y-46750000D03*
X98746844Y-43950000D03*
%TD*%
D25*
%TO.C,R92*%
X127936844Y-65150000D03*
X129586844Y-65150000D03*
%TD*%
D28*
%TO.C,R87*%
X124036844Y-74150000D03*
X122386844Y-74150000D03*
%TD*%
D35*
%TO.C,D108*%
X165846844Y-107450000D03*
X164446844Y-107450000D03*
%TD*%
D27*
%TO.C,R22*%
X71246844Y-90425000D03*
X71246844Y-92075000D03*
%TD*%
D28*
%TO.C,R139*%
X193014350Y-109000000D03*
X191364350Y-109000000D03*
%TD*%
D35*
%TO.C,D64*%
X111296844Y-99850000D03*
X109896844Y-99850000D03*
%TD*%
D25*
%TO.C,R136*%
X189971844Y-37850000D03*
X191621844Y-37850000D03*
%TD*%
%TO.C,R20*%
X64421844Y-109050000D03*
X66071844Y-109050000D03*
%TD*%
D31*
%TO.C,D89*%
X155311844Y-69750000D03*
X155311844Y-72550000D03*
%TD*%
%TO.C,D109*%
X158746844Y-46750000D03*
X158746844Y-43950000D03*
%TD*%
D26*
%TO.C,F15*%
X161259344Y-42950000D03*
X168034344Y-42950000D03*
%TD*%
D25*
%TO.C,R132*%
X181064350Y-121000000D03*
X182714350Y-121000000D03*
%TD*%
D40*
%TO.C,U11*%
X81011844Y-123850000D03*
X81011844Y-123200000D03*
X81011844Y-122550000D03*
X82911844Y-122550000D03*
X82911844Y-123850000D03*
%TD*%
D44*
%TO.C,D16*%
X213489350Y-55350000D03*
X213489350Y-59650000D03*
%TD*%
D28*
%TO.C,R113*%
X146071844Y-46850000D03*
X144421844Y-46850000D03*
%TD*%
D25*
%TO.C,R10*%
X49656850Y-37850000D03*
X51306850Y-37850000D03*
%TD*%
D26*
%TO.C,F5*%
X61259344Y-42950000D03*
X68034344Y-42950000D03*
%TD*%
D35*
%TO.C,D99*%
X162711844Y-71150000D03*
X164111844Y-71150000D03*
%TD*%
D54*
%TO.C,C9*%
X212514350Y-108725000D03*
X212514350Y-111675000D03*
%TD*%
D37*
%TO.C,U16*%
X132996844Y-47150000D03*
X132996844Y-47800000D03*
X132996844Y-48450000D03*
X131096844Y-48450000D03*
X131096844Y-47150000D03*
%TD*%
D32*
%TO.C,Q25*%
X140721844Y-109350000D03*
D33*
X141706844Y-107700000D03*
D32*
X141371844Y-109350000D03*
X142021844Y-109350000D03*
X142671844Y-109350000D03*
%TD*%
D28*
%TO.C,R125*%
X173014350Y-109000000D03*
X171364350Y-109000000D03*
%TD*%
D37*
%TO.C,U18*%
X152996844Y-106150000D03*
X152996844Y-106800000D03*
X152996844Y-107450000D03*
X151096844Y-107450000D03*
X151096844Y-106150000D03*
%TD*%
D28*
%TO.C,R83*%
X113014350Y-109000000D03*
X111364350Y-109000000D03*
%TD*%
D27*
%TO.C,R114*%
X151246844Y-90425000D03*
X151246844Y-92075000D03*
%TD*%
%TO.C,R146*%
X243169350Y-53875000D03*
X243169350Y-55525000D03*
%TD*%
D36*
%TO.C,R103*%
X140111844Y-78775000D03*
X140111844Y-77125000D03*
%TD*%
D35*
%TO.C,D57*%
X102711844Y-71150000D03*
X104111844Y-71150000D03*
%TD*%
D25*
%TO.C,R136*%
X189971844Y-96850000D03*
X191621844Y-96850000D03*
%TD*%
%TO.C,R109*%
X149971844Y-98350000D03*
X151621844Y-98350000D03*
%TD*%
%TO.C,R94*%
X129971844Y-96850000D03*
X131621844Y-96850000D03*
%TD*%
D35*
%TO.C,D73*%
X128161844Y-63550000D03*
X129561844Y-63550000D03*
%TD*%
D28*
%TO.C,R2*%
X49271850Y-61950000D03*
X47621850Y-61950000D03*
%TD*%
D31*
%TO.C,D14*%
X63561844Y-66750000D03*
X63561844Y-69550000D03*
%TD*%
D36*
%TO.C,R65*%
X82761844Y-80575000D03*
X82761844Y-78925000D03*
%TD*%
%TO.C,R135*%
X182761844Y-139575000D03*
X182761844Y-137925000D03*
%TD*%
D37*
%TO.C,U22*%
X192996844Y-47150000D03*
X192996844Y-47800000D03*
X192996844Y-48450000D03*
X191096844Y-48450000D03*
X191096844Y-47150000D03*
%TD*%
D25*
%TO.C,R137*%
X189971844Y-39350000D03*
X191621844Y-39350000D03*
%TD*%
D36*
%TO.C,R75*%
X100111844Y-137775000D03*
X100111844Y-136125000D03*
%TD*%
D31*
%TO.C,D123*%
X178746844Y-46750000D03*
X178746844Y-43950000D03*
%TD*%
%TO.C,D20*%
X70446844Y-45250000D03*
X70446844Y-42450000D03*
%TD*%
%TO.C,D23*%
X58696844Y-42250000D03*
X58696844Y-39450000D03*
%TD*%
D35*
%TO.C,D113*%
X182711844Y-130150000D03*
X184111844Y-130150000D03*
%TD*%
D29*
%TO.C,Q18*%
X124411844Y-63012500D03*
X126311844Y-63012500D03*
X125361844Y-64887500D03*
%TD*%
D54*
%TO.C,C9*%
X212514350Y-49725000D03*
X212514350Y-52675000D03*
%TD*%
D35*
%TO.C,D66*%
X105846844Y-107450000D03*
X104446844Y-107450000D03*
%TD*%
D25*
%TO.C,R78*%
X107936844Y-65150000D03*
X109586844Y-65150000D03*
%TD*%
D34*
%TO.C,Q28*%
X169596844Y-107987500D03*
X167696844Y-107987500D03*
X168646844Y-106112500D03*
%TD*%
D55*
%TO.C,D36*%
X211269350Y-37000000D03*
D56*
X215251350Y-36080000D03*
X215251350Y-37920000D03*
%TD*%
D31*
%TO.C,D27*%
X95261844Y-124250000D03*
X95261844Y-127050000D03*
%TD*%
D25*
%TO.C,R134*%
X187936844Y-124150000D03*
X189586844Y-124150000D03*
%TD*%
D31*
%TO.C,D77*%
X130446844Y-45250000D03*
X130446844Y-42450000D03*
%TD*%
D29*
%TO.C,D130*%
X246439350Y-38362500D03*
X248339350Y-38362500D03*
X247389350Y-40237500D03*
%TD*%
D36*
%TO.C,R107*%
X142761844Y-80575000D03*
X142761844Y-78925000D03*
%TD*%
D28*
%TO.C,R13*%
X64036844Y-133150000D03*
X62386844Y-133150000D03*
%TD*%
D27*
%TO.C,R128*%
X171246844Y-90425000D03*
X171246844Y-92075000D03*
%TD*%
D34*
%TO.C,Q28*%
X169596844Y-48987500D03*
X167696844Y-48987500D03*
X168646844Y-47112500D03*
%TD*%
D53*
%TO.C,C24*%
X215414350Y-43750000D03*
X216964350Y-43750000D03*
%TD*%
D35*
%TO.C,D15*%
X68161844Y-63550000D03*
X69561844Y-63550000D03*
%TD*%
D39*
%TO.C,F10*%
X132749344Y-69050000D03*
X125974344Y-69050000D03*
%TD*%
D32*
%TO.C,Q21*%
X120721844Y-109350000D03*
D33*
X121706844Y-107700000D03*
D32*
X121371844Y-109350000D03*
X122021844Y-109350000D03*
X122671844Y-109350000D03*
%TD*%
D34*
%TO.C,Q5*%
X49281850Y-48987500D03*
X47381850Y-48987500D03*
X48331850Y-47112500D03*
%TD*%
D35*
%TO.C,D15*%
X68161844Y-122550000D03*
X69561844Y-122550000D03*
%TD*%
D31*
%TO.C,D56*%
X103561844Y-125750000D03*
X103561844Y-128550000D03*
%TD*%
D27*
%TO.C,R142*%
X191246844Y-90425000D03*
X191246844Y-92075000D03*
%TD*%
D28*
%TO.C,R12*%
X52714350Y-109000000D03*
X51064350Y-109000000D03*
%TD*%
D29*
%TO.C,Q4*%
X44096850Y-122012500D03*
X45996850Y-122012500D03*
X45046850Y-123887500D03*
%TD*%
D27*
%TO.C,R86*%
X111246844Y-31425000D03*
X111246844Y-33075000D03*
%TD*%
D25*
%TO.C,R104*%
X141164350Y-121000000D03*
X142814350Y-121000000D03*
%TD*%
D27*
%TO.C,R38*%
X220569350Y-53875000D03*
X220569350Y-55525000D03*
%TD*%
%TO.C,R61*%
X73896844Y-92225000D03*
X73896844Y-93875000D03*
%TD*%
D29*
%TO.C,D129*%
X253439350Y-97362500D03*
X255339350Y-97362500D03*
X254389350Y-99237500D03*
%TD*%
D42*
%TO.C,KiKit_FID_B_3*%
X28310650Y-148500046D03*
%TD*%
D27*
%TO.C,R34*%
X234369350Y-112875000D03*
X234369350Y-114525000D03*
%TD*%
D39*
%TO.C,F16*%
X192749344Y-128050000D03*
X185974344Y-128050000D03*
%TD*%
%TO.C,F14*%
X172749344Y-128050000D03*
X165974344Y-128050000D03*
%TD*%
D31*
%TO.C,D10*%
X54996850Y-69750000D03*
X54996850Y-72550000D03*
%TD*%
D23*
%TO.C,Q19*%
X133286844Y-120650000D03*
D24*
X132301844Y-122300000D03*
D23*
X132636844Y-120650000D03*
X131986844Y-120650000D03*
X131336844Y-120650000D03*
%TD*%
D35*
%TO.C,D115*%
X188161844Y-122550000D03*
X189561844Y-122550000D03*
%TD*%
D29*
%TO.C,Q14*%
X104411844Y-63012500D03*
X106311844Y-63012500D03*
X105361844Y-64887500D03*
%TD*%
D28*
%TO.C,R50*%
X84036844Y-74150000D03*
X82386844Y-74150000D03*
%TD*%
D32*
%TO.C,Q33*%
X180721844Y-50350000D03*
D33*
X181706844Y-48700000D03*
D32*
X181371844Y-50350000D03*
X182021844Y-50350000D03*
X182671844Y-50350000D03*
%TD*%
D35*
%TO.C,D80*%
X125846844Y-107450000D03*
X124446844Y-107450000D03*
%TD*%
D28*
%TO.C,R56*%
X64036844Y-72650000D03*
X62386844Y-72650000D03*
%TD*%
D29*
%TO.C,Q26*%
X164411844Y-63012500D03*
X166311844Y-63012500D03*
X165361844Y-64887500D03*
%TD*%
D36*
%TO.C,R135*%
X182761844Y-80575000D03*
X182761844Y-78925000D03*
%TD*%
D31*
%TO.C,D63*%
X110446844Y-104250000D03*
X110446844Y-101450000D03*
%TD*%
D40*
%TO.C,U15*%
X121011844Y-64850000D03*
X121011844Y-64200000D03*
X121011844Y-63550000D03*
X122911844Y-63550000D03*
X122911844Y-64850000D03*
%TD*%
D31*
%TO.C,D53*%
X78746844Y-46750000D03*
X78746844Y-43950000D03*
%TD*%
D27*
%TO.C,R138*%
X193896844Y-33225000D03*
X193896844Y-34875000D03*
%TD*%
D35*
%TO.C,D33*%
X108299350Y-57500000D03*
X109699350Y-57500000D03*
%TD*%
D57*
%TO.C,C17*%
X211839350Y-99780000D03*
X211839350Y-98820000D03*
%TD*%
D28*
%TO.C,R102*%
X144036844Y-72650000D03*
X142386844Y-72650000D03*
%TD*%
D25*
%TO.C,R108*%
X149971844Y-96850000D03*
X151621844Y-96850000D03*
%TD*%
D35*
%TO.C,D46*%
X50981850Y-99850000D03*
X49581850Y-99850000D03*
%TD*%
%TO.C,D64*%
X111296844Y-40850000D03*
X109896844Y-40850000D03*
%TD*%
D36*
%TO.C,R131*%
X180111844Y-137775000D03*
X180111844Y-136125000D03*
%TD*%
D37*
%TO.C,U18*%
X152996844Y-47150000D03*
X152996844Y-47800000D03*
X152996844Y-48450000D03*
X151096844Y-48450000D03*
X151096844Y-47150000D03*
%TD*%
D40*
%TO.C,U7*%
X61011844Y-64850000D03*
X61011844Y-64200000D03*
X61011844Y-63550000D03*
X62911844Y-63550000D03*
X62911844Y-64850000D03*
%TD*%
D34*
%TO.C,Q12*%
X89596844Y-48987500D03*
X87696844Y-48987500D03*
X88646844Y-47112500D03*
%TD*%
D29*
%TO.C,D34*%
X228939350Y-38362500D03*
X230839350Y-38362500D03*
X229889350Y-40237500D03*
%TD*%
D31*
%TO.C,D17*%
X75261844Y-65250000D03*
X75261844Y-68050000D03*
%TD*%
D22*
%TO.C,TP1*%
X202389350Y-45800000D03*
%TD*%
D35*
%TO.C,D48*%
X71296844Y-99850000D03*
X69896844Y-99850000D03*
%TD*%
D31*
%TO.C,D70*%
X123561844Y-125750000D03*
X123561844Y-128550000D03*
%TD*%
%TO.C,D8*%
X54946850Y-124250000D03*
X54946850Y-127050000D03*
%TD*%
D25*
%TO.C,R27*%
X148484350Y-118000000D03*
X150134350Y-118000000D03*
%TD*%
D31*
%TO.C,D18*%
X75311844Y-128750000D03*
X75311844Y-131550000D03*
%TD*%
D35*
%TO.C,D80*%
X125846844Y-48450000D03*
X124446844Y-48450000D03*
%TD*%
D29*
%TO.C,Q14*%
X104411844Y-122012500D03*
X106311844Y-122012500D03*
X105361844Y-123887500D03*
%TD*%
D40*
%TO.C,U21*%
X181011844Y-123850000D03*
X181011844Y-123200000D03*
X181011844Y-122550000D03*
X182911844Y-122550000D03*
X182911844Y-123850000D03*
%TD*%
D35*
%TO.C,D99*%
X162711844Y-130150000D03*
X164111844Y-130150000D03*
%TD*%
D23*
%TO.C,Q23*%
X153286844Y-120650000D03*
D24*
X152301844Y-122300000D03*
D23*
X152636844Y-120650000D03*
X151986844Y-120650000D03*
X151336844Y-120650000D03*
%TD*%
D29*
%TO.C,Q10*%
X84411844Y-122012500D03*
X86311844Y-122012500D03*
X85361844Y-123887500D03*
%TD*%
D35*
%TO.C,D115*%
X188161844Y-63550000D03*
X189561844Y-63550000D03*
%TD*%
D28*
%TO.C,R101*%
X144036844Y-74150000D03*
X142386844Y-74150000D03*
%TD*%
D35*
%TO.C,D59*%
X108161844Y-122550000D03*
X109561844Y-122550000D03*
%TD*%
D37*
%TO.C,U14*%
X112996844Y-106150000D03*
X112996844Y-106800000D03*
X112996844Y-107450000D03*
X111096844Y-107450000D03*
X111096844Y-106150000D03*
%TD*%
D28*
%TO.C,R56*%
X64036844Y-131650000D03*
X62386844Y-131650000D03*
%TD*%
D35*
%TO.C,D26*%
X88161844Y-63550000D03*
X89561844Y-63550000D03*
%TD*%
D29*
%TO.C,Q26*%
X164411844Y-122012500D03*
X166311844Y-122012500D03*
X165361844Y-123887500D03*
%TD*%
D35*
%TO.C,D133*%
X148709350Y-116500000D03*
X150109350Y-116500000D03*
%TD*%
D31*
%TO.C,D14*%
X63561844Y-125750000D03*
X63561844Y-128550000D03*
%TD*%
D36*
%TO.C,R89*%
X120111844Y-78775000D03*
X120111844Y-77125000D03*
%TD*%
D27*
%TO.C,R22*%
X71246844Y-31425000D03*
X71246844Y-33075000D03*
%TD*%
%TO.C,R72*%
X91246844Y-90425000D03*
X91246844Y-92075000D03*
%TD*%
D31*
%TO.C,D27*%
X95261844Y-65250000D03*
X95261844Y-68050000D03*
%TD*%
D25*
%TO.C,R118*%
X161064350Y-121000000D03*
X162714350Y-121000000D03*
%TD*%
D37*
%TO.C,U20*%
X172996844Y-106150000D03*
X172996844Y-106800000D03*
X172996844Y-107450000D03*
X171096844Y-107450000D03*
X171096844Y-106150000D03*
%TD*%
D27*
%TO.C,R36*%
X259569350Y-112875000D03*
X259569350Y-114525000D03*
%TD*%
D25*
%TO.C,R54*%
X49656850Y-39350000D03*
X51306850Y-39350000D03*
%TD*%
D28*
%TO.C,R113*%
X146071844Y-105850000D03*
X144421844Y-105850000D03*
%TD*%
D39*
%TO.C,F10*%
X132749344Y-128050000D03*
X125974344Y-128050000D03*
%TD*%
D28*
%TO.C,R87*%
X124036844Y-133150000D03*
X122386844Y-133150000D03*
%TD*%
D36*
%TO.C,R4*%
X42446850Y-139575000D03*
X42446850Y-137925000D03*
%TD*%
D35*
%TO.C,D21*%
X65846844Y-107450000D03*
X64446844Y-107450000D03*
%TD*%
D36*
%TO.C,R89*%
X120111844Y-137775000D03*
X120111844Y-136125000D03*
%TD*%
D31*
%TO.C,D109*%
X158746844Y-105750000D03*
X158746844Y-102950000D03*
%TD*%
D28*
%TO.C,R43*%
X214564350Y-105900000D03*
X212914350Y-105900000D03*
%TD*%
%TO.C,R7*%
X45756850Y-105850000D03*
X44106850Y-105850000D03*
%TD*%
D27*
%TO.C,R40*%
X254469350Y-53875000D03*
X254469350Y-55525000D03*
%TD*%
%TO.C,R144*%
X248269350Y-112875000D03*
X248269350Y-114525000D03*
%TD*%
D37*
%TO.C,U20*%
X172996844Y-47150000D03*
X172996844Y-47800000D03*
X172996844Y-48450000D03*
X171096844Y-48450000D03*
X171096844Y-47150000D03*
%TD*%
D35*
%TO.C,D85*%
X142711844Y-130150000D03*
X144111844Y-130150000D03*
%TD*%
D40*
%TO.C,U7*%
X61011844Y-123850000D03*
X61011844Y-123200000D03*
X61011844Y-122550000D03*
X62911844Y-122550000D03*
X62911844Y-123850000D03*
%TD*%
D28*
%TO.C,R119*%
X169586844Y-120950000D03*
X167936844Y-120950000D03*
%TD*%
D31*
%TO.C,D116*%
X195261844Y-65250000D03*
X195261844Y-68050000D03*
%TD*%
D28*
%TO.C,R69*%
X93014350Y-50000000D03*
X91364350Y-50000000D03*
%TD*%
D27*
%TO.C,R124*%
X173896844Y-92225000D03*
X173896844Y-93875000D03*
%TD*%
D25*
%TO.C,R95*%
X129971844Y-39350000D03*
X131621844Y-39350000D03*
%TD*%
D28*
%TO.C,R15*%
X69586844Y-120950000D03*
X67936844Y-120950000D03*
%TD*%
D35*
%TO.C,D46*%
X50981850Y-40850000D03*
X49581850Y-40850000D03*
%TD*%
D25*
%TO.C,R78*%
X107936844Y-124150000D03*
X109586844Y-124150000D03*
%TD*%
D28*
%TO.C,R139*%
X193014350Y-50000000D03*
X191364350Y-50000000D03*
%TD*%
D27*
%TO.C,R29*%
X223069350Y-112875000D03*
X223069350Y-114525000D03*
%TD*%
D36*
%TO.C,R121*%
X162761844Y-139575000D03*
X162761844Y-137925000D03*
%TD*%
D23*
%TO.C,Q15*%
X113286844Y-120650000D03*
D24*
X112301844Y-122300000D03*
D23*
X112636844Y-120650000D03*
X111986844Y-120650000D03*
X111336844Y-120650000D03*
%TD*%
D25*
%TO.C,R10*%
X49656850Y-96850000D03*
X51306850Y-96850000D03*
%TD*%
%LPD*%
M02*
