%TF.GenerationSoftware,KiCad,Pcbnew,9.0.0+dfsg-1*%
%TF.CreationDate,2025-04-06T22:27:05+01:00*%
%TF.ProjectId,panel-16,70616e65-6c2d-4313-962e-6b696361645f,rev?*%
%TF.SameCoordinates,Original*%
%TF.FileFunction,Profile,NP*%
%FSLAX46Y46*%
G04 Gerber Fmt 4.6, Leading zero omitted, Abs format (unit mm)*
G04 Created by KiCad (PCBNEW 9.0.0+dfsg-1) date 2025-04-06 22:27:05*
%MOMM*%
%LPD*%
G01*
G04 APERTURE LIST*
%TA.AperFunction,Profile*%
%ADD10C,0.100000*%
%TD*%
G04 APERTURE END LIST*
D10*
X265857712Y-76943985D02*
X265885945Y-76903896D01*
X267933087Y-76529939D02*
X267980344Y-76543016D01*
X31444755Y-81885937D02*
X31452322Y-81910056D01*
X32713212Y-83538981D02*
X32734664Y-83552353D01*
X28927349Y-76576044D02*
X28973097Y-76558397D01*
X254176286Y-142684704D02*
X254177538Y-142687725D01*
X32484544Y-87620198D02*
X32464555Y-87635671D01*
X244808545Y-86195896D02*
X244800162Y-86147585D01*
X28310650Y-145001033D02*
X28310650Y-136499012D01*
X268430559Y-25328112D02*
X268462587Y-25365241D01*
X244985945Y-86596104D02*
X244957712Y-86556016D01*
X28603250Y-135792600D02*
X28638762Y-135758790D01*
X31403561Y-140739644D02*
X31409897Y-140764115D01*
X251443843Y-64696541D02*
X251483929Y-64668314D01*
X264973630Y-82944299D02*
X265053671Y-82846136D01*
X250907134Y-83834331D02*
X250915592Y-83824427D01*
X31114055Y-76903896D02*
X31142289Y-76943985D01*
X263428967Y-28092904D02*
X263305586Y-28064273D01*
X245593454Y-86980805D02*
X245545612Y-86970062D01*
X251024540Y-83603862D02*
X251026914Y-83591056D01*
X44770154Y-25804104D02*
X44778537Y-25852416D01*
X264265346Y-142552346D02*
X264286798Y-142538975D01*
X31409917Y-30235889D02*
X31403581Y-30260360D01*
X28882522Y-36404085D02*
X28838724Y-36382039D01*
X262695669Y-87000160D02*
X262683028Y-87000000D01*
X245593454Y-25019195D02*
X245641766Y-25010812D01*
X268396749Y-95207399D02*
X268361237Y-95241209D01*
X266017462Y-36241209D02*
X265981950Y-36207399D01*
X44461237Y-143258792D02*
X44496749Y-143292602D01*
X265555245Y-30114065D02*
X265547678Y-30089947D01*
X31681765Y-29555326D02*
X31623122Y-29667592D01*
X31347480Y-140466754D02*
X31369825Y-140591428D01*
X32586655Y-28545217D02*
X32484564Y-28620183D01*
X266306049Y-95423955D02*
X266261222Y-95404085D01*
X29019655Y-76543016D02*
X29066912Y-76529939D01*
X33994621Y-83983012D02*
X34019770Y-83985569D01*
X253185904Y-64501203D02*
X253234798Y-64504809D01*
X250665176Y-142982807D02*
X250674527Y-142979969D01*
X268613305Y-136116699D02*
X268630952Y-136162447D01*
X44746333Y-143709007D02*
X44759410Y-143756264D01*
X251082943Y-124208829D02*
X251098330Y-124162280D01*
X28603250Y-36207399D02*
X28569440Y-36171887D01*
X44671389Y-145471971D02*
X44647220Y-145514634D01*
X29114754Y-76519195D02*
X29163066Y-76510812D01*
X254570863Y-83991572D02*
X254577350Y-83992426D01*
X266054591Y-135726762D02*
X266093246Y-135696595D01*
X268630952Y-77162447D02*
X268646333Y-77209005D01*
X268684539Y-25901080D02*
X268688146Y-25949981D01*
X44562587Y-84365243D02*
X44592754Y-84403898D01*
X31347495Y-89533273D02*
X31343668Y-89558259D01*
X254525863Y-142983233D02*
X254535408Y-142985327D01*
X265689350Y-139993666D02*
X265689350Y-136499012D01*
X43888269Y-25004810D02*
X43936933Y-25010812D01*
X265807310Y-35971925D02*
X265785264Y-35928127D01*
X265652520Y-89533246D02*
X265630174Y-89408574D01*
X245545612Y-25029939D02*
X245593454Y-25019195D01*
X265689189Y-81006319D02*
X265689349Y-80993678D01*
X43985245Y-84019197D02*
X44033087Y-84029941D01*
X245788362Y-84000045D02*
X250522683Y-84000046D01*
X28675891Y-76726762D02*
X28714546Y-76696595D01*
X31214736Y-77071872D02*
X31234606Y-77116699D01*
X250748029Y-83952574D02*
X250753935Y-83949757D01*
X44592754Y-86596122D02*
X44562587Y-86634777D01*
X268659410Y-145243783D02*
X268646333Y-145291040D01*
X245593455Y-143019241D02*
X245641766Y-143010858D01*
X254159386Y-83635196D02*
X254168482Y-83663185D01*
X265053671Y-29153863D02*
X264973630Y-29055700D01*
X250898134Y-83843818D02*
X250907099Y-83834370D01*
X244865394Y-84616745D02*
X244885264Y-84571918D01*
X245739331Y-143001249D02*
X245788362Y-143000045D01*
X29260631Y-145998842D02*
X29211730Y-145995235D01*
X265053671Y-88153863D02*
X264973630Y-88055700D01*
X268520987Y-135943985D02*
X268547220Y-135985411D01*
X44671389Y-84528076D02*
X44693435Y-84571874D01*
X44345364Y-25168362D02*
X44385453Y-25196595D01*
X44592754Y-145596149D02*
X44562587Y-145634804D01*
X28638762Y-135758790D02*
X28675891Y-135726762D01*
X263743030Y-83808557D02*
X263860653Y-83761572D01*
X32127800Y-87942506D02*
X32042889Y-88036488D01*
X28537412Y-95134758D02*
X28507245Y-95096103D01*
X28428610Y-94971925D02*
X28406564Y-94928127D01*
X244789350Y-25999012D02*
X244790553Y-25949981D01*
X268462587Y-145634804D02*
X268430559Y-145671933D01*
X268203938Y-135642129D02*
X268245364Y-135668362D01*
X31946333Y-82846142D02*
X32026375Y-82944306D01*
X266306049Y-36423955D02*
X266261222Y-36404085D01*
X245016112Y-84365287D02*
X245048140Y-84328158D01*
X245788362Y-25000000D02*
X267690337Y-25000000D01*
X268520987Y-76943985D02*
X268547220Y-76985411D01*
X28428610Y-145471971D02*
X28406564Y-145428173D01*
X268630952Y-94837552D02*
X268613305Y-94883300D01*
X244985945Y-25403896D02*
X245016112Y-25365241D01*
X33868951Y-83967008D02*
X33994596Y-83983009D01*
X245788362Y-28000001D02*
X245739331Y-27998797D01*
X251844005Y-123519190D02*
X251892310Y-123510809D01*
X28675891Y-25226762D02*
X28714546Y-25196595D01*
X43790337Y-84000002D02*
X43839368Y-84001205D01*
X28406564Y-145428173D02*
X28386694Y-145383346D01*
X31502104Y-29946346D02*
X31493324Y-29970050D01*
X30693968Y-36423955D02*
X30648220Y-36441602D01*
X30360686Y-36498796D02*
X30311655Y-36500000D01*
X267690337Y-146000046D02*
X245788362Y-146000046D01*
X267980344Y-135543016D02*
X268026902Y-135558397D01*
X254574181Y-142991664D02*
X254587093Y-142993364D01*
X254177548Y-142687749D02*
X254188173Y-142711609D01*
X263719302Y-142817345D02*
X263743006Y-142808566D01*
X268520987Y-95056014D02*
X268492754Y-95096103D01*
X31559067Y-82194583D02*
X31611949Y-82309676D01*
X31930845Y-29173898D02*
X31855878Y-29275989D01*
X251182078Y-123985284D02*
X251208313Y-123943867D01*
X265807310Y-136028074D02*
X265831479Y-135985411D01*
X267836933Y-135510812D02*
X267885245Y-135519195D01*
X31310668Y-94500988D02*
X31309464Y-94550018D01*
X251135857Y-124071725D02*
X251157907Y-124027937D01*
X245081950Y-143292646D02*
X245117462Y-143258835D01*
X268203938Y-95357870D02*
X268161275Y-95382039D01*
X254152531Y-83609951D02*
X254154059Y-83616313D01*
X34171386Y-83996471D02*
X34304339Y-83999839D01*
X44671389Y-25528074D02*
X44693435Y-25571872D01*
X266398355Y-95456983D02*
X266351797Y-95441602D01*
X31291455Y-77304105D02*
X31299838Y-77352416D01*
X250739110Y-83956616D02*
X250748011Y-83952582D01*
X264515477Y-142379810D02*
X264535466Y-142364337D01*
X245690430Y-86995190D02*
X245641766Y-86989188D01*
X44424108Y-143226764D02*
X44461237Y-143258792D01*
X32865984Y-142628911D02*
X32978251Y-142687554D01*
X265785264Y-136071872D02*
X265807310Y-136028074D01*
X253607764Y-64617933D02*
X253650424Y-64642095D01*
X263453487Y-83900746D02*
X263575259Y-83865902D01*
X245361222Y-86904086D02*
X245317424Y-86882040D01*
X268571389Y-35971925D02*
X268547220Y-36014588D01*
X262828633Y-87003529D02*
X262695681Y-87000160D01*
X30825256Y-36357870D02*
X30782593Y-36382039D01*
X44620987Y-86556033D02*
X44592754Y-86596122D01*
X263005421Y-142983007D02*
X263131066Y-142967005D01*
X44693435Y-25571872D02*
X44713305Y-25616699D01*
X245117462Y-84258835D02*
X245154591Y-84226808D01*
X265694160Y-77401080D02*
X265700162Y-77352416D01*
X265690553Y-35550018D02*
X265689350Y-35500987D01*
X33257007Y-83808571D02*
X33280712Y-83817350D01*
X253563970Y-123595892D02*
X253607764Y-123617933D01*
X245545612Y-145970106D02*
X245498355Y-145957029D01*
X251008055Y-142663749D02*
X251011135Y-142654475D01*
X251035799Y-142486966D02*
X251039873Y-124498786D01*
X251332553Y-123792520D02*
X251368064Y-123758718D01*
X31310810Y-81006332D02*
X31314179Y-81139283D01*
X30458251Y-95489187D02*
X30409587Y-95495189D01*
X264872203Y-28942480D02*
X264854788Y-28924159D01*
X30906754Y-76696596D02*
X30945410Y-76726762D01*
X28428610Y-77028074D02*
X28452779Y-76985411D01*
X265981950Y-135792600D02*
X266017462Y-135758790D01*
X32253152Y-87817153D02*
X32234830Y-87834569D01*
X268547220Y-145514634D02*
X268520987Y-145556060D01*
X250837322Y-142898351D02*
X250860193Y-142879828D01*
X30982555Y-95241210D02*
X30945426Y-95273237D01*
X250907134Y-142834331D02*
X250915592Y-142824427D01*
X33000977Y-87301319D02*
X32978282Y-87312452D01*
X265388041Y-88690306D02*
X265376909Y-88667611D01*
X266093246Y-76696595D02*
X266133335Y-76668362D01*
X31280712Y-77256263D02*
X31291455Y-77304105D01*
X34317002Y-84000000D02*
X43790337Y-84000002D01*
X44789350Y-84999014D02*
X44789350Y-86001006D01*
X31309447Y-77449981D02*
X31310651Y-77499012D01*
X244800162Y-84852462D02*
X244808545Y-84804150D01*
X251368064Y-123758718D02*
X251405190Y-123726700D01*
X30506546Y-76519195D02*
X30554388Y-76529939D01*
X263280775Y-28059175D02*
X263156103Y-28036829D01*
X254220165Y-83768683D02*
X254225541Y-83776844D01*
X31681765Y-88555326D02*
X31623122Y-88667592D01*
X251033743Y-142539194D02*
X251035114Y-142513015D01*
X262828658Y-142996469D02*
X262853904Y-142995189D01*
X268646333Y-94790994D02*
X268630952Y-94837552D01*
X265981950Y-95207399D02*
X265948140Y-95171887D01*
X33424737Y-87134118D02*
X33400618Y-87141685D01*
X265069160Y-88173872D02*
X265053687Y-88153883D01*
X30782593Y-95382039D02*
X30738795Y-95404085D01*
X250702560Y-142970858D02*
X250714837Y-142966510D01*
X245048140Y-25328112D02*
X245081950Y-25292600D01*
X31694039Y-82466828D02*
X31758294Y-82575980D01*
X245593454Y-27980805D02*
X245545612Y-27970062D01*
X268324108Y-135726762D02*
X268361237Y-135758790D01*
X267980344Y-36456983D02*
X267933087Y-36470060D01*
X31083888Y-135865241D02*
X31114055Y-135903896D01*
X253650424Y-64642095D02*
X253691847Y-64668322D01*
X44759410Y-27243756D02*
X44746333Y-27291013D01*
X244957712Y-145556060D02*
X244931479Y-145514634D01*
X32253156Y-83182878D02*
X32347140Y-83267788D01*
X244957712Y-143444031D02*
X244985945Y-143403942D01*
X250799635Y-142924257D02*
X250808000Y-142919205D01*
X268245364Y-25168362D02*
X268285453Y-25196595D01*
X44172650Y-25076044D02*
X44217477Y-25095914D01*
X268396749Y-36207399D02*
X268361237Y-36241209D01*
X31305840Y-136401081D02*
X31309447Y-136449981D01*
X44647220Y-84485413D02*
X44671389Y-84528076D01*
X253691847Y-64668322D02*
X253731933Y-64696550D01*
X44562587Y-86634777D02*
X44530559Y-86671906D01*
X250726942Y-142961496D02*
X250750838Y-142950855D01*
X44217477Y-27904104D02*
X44172650Y-27923974D01*
X33719220Y-87059196D02*
X33694459Y-87064284D01*
X251568010Y-64617927D02*
X251611803Y-64595887D01*
X253909061Y-123865158D02*
X253939228Y-123903806D01*
X31623110Y-29667614D02*
X31611978Y-29690309D01*
X28507245Y-76903896D02*
X28537412Y-76865241D01*
X265630174Y-81591425D02*
X265652520Y-81466753D01*
X267690337Y-76500000D02*
X267739368Y-76501203D01*
X28386694Y-35883300D02*
X28369047Y-35837552D01*
X268161275Y-95382039D02*
X268117477Y-95404085D01*
X32734675Y-28447663D02*
X32713223Y-28461035D01*
X265497916Y-82053656D02*
X265506695Y-82029952D01*
X31252253Y-77162447D02*
X31267634Y-77209006D01*
X31493316Y-29970074D02*
X31452349Y-30089925D01*
X29114754Y-135519195D02*
X29163066Y-135510812D01*
X265674917Y-30709101D02*
X265672360Y-30683953D01*
X28321462Y-35647583D02*
X28315460Y-35598919D01*
X264535486Y-83364321D02*
X264633649Y-83284280D01*
X32253152Y-28817153D02*
X32234830Y-28834569D01*
X251702366Y-64558381D02*
X251748919Y-64543004D01*
X28927349Y-25076044D02*
X28973097Y-25058397D01*
X28754635Y-76668362D02*
X28796061Y-76642129D01*
X268670154Y-35695895D02*
X268659410Y-35743737D01*
X253185904Y-123501203D02*
X253234798Y-123504809D01*
X264156151Y-87383374D02*
X264134049Y-87371106D01*
X266261222Y-76595914D02*
X266306049Y-76576044D01*
X268361237Y-36241209D02*
X268324108Y-36273237D01*
X264535466Y-28635662D02*
X264515477Y-28620189D01*
X268026902Y-145941648D02*
X267980344Y-145957029D01*
X44172650Y-27923974D02*
X44126902Y-27941621D01*
X31623110Y-88667614D02*
X31611978Y-88690309D01*
X254295531Y-83858784D02*
X254304979Y-83867749D01*
X244907310Y-27471926D02*
X244885264Y-27428128D01*
X244865394Y-143616745D02*
X244885264Y-143571918D01*
X44730952Y-145337598D02*
X44713305Y-145383346D01*
X32586664Y-142454813D02*
X32607412Y-142469254D01*
X31946333Y-29153889D02*
X31930860Y-29173878D01*
X44713305Y-25616699D02*
X44730952Y-25662447D01*
X245154591Y-86773238D02*
X245117462Y-86741211D01*
X253843224Y-64792533D02*
X253877033Y-64828038D01*
X245690430Y-27995190D02*
X245641766Y-27989188D01*
X32843860Y-83616632D02*
X32865962Y-83628899D01*
X28315460Y-145098965D02*
X28311853Y-145050064D01*
X268688146Y-136449981D02*
X268689350Y-136499012D01*
X263719302Y-83817345D02*
X263743006Y-83808566D01*
X31930845Y-88173898D02*
X31855878Y-88275989D01*
X263428991Y-83907088D02*
X263453462Y-83900752D01*
X268547220Y-95014588D02*
X268520987Y-95056014D01*
X265506695Y-29970047D02*
X265497916Y-29946343D01*
X32366359Y-142284287D02*
X32464522Y-142364328D01*
X28329845Y-35695895D02*
X28321462Y-35647583D01*
X244885264Y-84571918D02*
X244907310Y-84528120D01*
X251208313Y-123943867D02*
X251236548Y-123903788D01*
X265700162Y-136352416D02*
X265708545Y-136304104D01*
X244885264Y-86428128D02*
X244865394Y-86383302D01*
X268571389Y-94971925D02*
X268547220Y-95014588D01*
X265747747Y-77162447D02*
X265765394Y-77116699D01*
X32484552Y-83379832D02*
X32586644Y-83454799D01*
X29019655Y-145957029D02*
X28973097Y-145941648D01*
X250968655Y-83749894D02*
X250973485Y-83741399D01*
X31267634Y-77209006D02*
X31280712Y-77256263D01*
X265590096Y-30235862D02*
X265555252Y-30114090D01*
X31409904Y-140764140D02*
X31444748Y-140885913D01*
X32234816Y-142165445D02*
X32253138Y-142182860D01*
X245406049Y-143076090D02*
X245451797Y-143058443D01*
X43888269Y-84004812D02*
X43936933Y-84010815D01*
X268593435Y-35928127D02*
X268571389Y-35971925D01*
X265144156Y-141723995D02*
X265158597Y-141703247D01*
X32607433Y-83469268D02*
X32713191Y-83538968D01*
X250850356Y-83888429D02*
X250857910Y-83882229D01*
X251041087Y-124449762D02*
X251044704Y-124400869D01*
X263131066Y-28032994D02*
X263005421Y-28016992D01*
X44746333Y-145291040D02*
X44730952Y-145337598D01*
X265948140Y-135828112D02*
X265981950Y-135792600D01*
X263743006Y-87191433D02*
X263719302Y-87182654D01*
X31327642Y-81316073D02*
X31343644Y-81441718D01*
X244789350Y-143999058D02*
X244790553Y-143950027D01*
X31946333Y-88153889D02*
X31930860Y-88173878D01*
X268670154Y-136304104D02*
X268678537Y-136352416D01*
X29163066Y-76510812D02*
X29211730Y-76504810D01*
X244885264Y-27428128D02*
X244865394Y-27383302D01*
X29163066Y-145989233D02*
X29114754Y-145980850D01*
X254156542Y-142625826D02*
X254159380Y-142635177D01*
X268613305Y-145383346D02*
X268593435Y-145428173D01*
X34304339Y-28000180D02*
X34171387Y-28003548D01*
X266054591Y-95273237D02*
X266017462Y-95241209D01*
X254561182Y-83990104D02*
X254570843Y-83991569D01*
X31267651Y-35790994D02*
X31252270Y-35837553D01*
X273677077Y-20000000D02*
X23322922Y-20000000D01*
X250857925Y-83882216D02*
X250862900Y-83877966D01*
X245193246Y-86803405D02*
X245154591Y-86773238D01*
X245317424Y-84118006D02*
X245361222Y-84095960D01*
X245117462Y-143258835D02*
X245154591Y-143226808D01*
X32607423Y-87530761D02*
X32586676Y-87545202D01*
X31051878Y-95171887D02*
X31018067Y-95207399D01*
X44759410Y-25756262D02*
X44770154Y-25804104D01*
X254059792Y-65116568D02*
X254077443Y-65162307D01*
X30693968Y-95423955D02*
X30648220Y-95441602D01*
X265689350Y-77499012D02*
X265690553Y-77449981D01*
X31310668Y-35500988D02*
X31309464Y-35550018D01*
X250968655Y-142749894D02*
X250973485Y-142741399D01*
X265547670Y-89089923D02*
X265506703Y-88970071D01*
X43985245Y-145980850D02*
X43936933Y-145989233D01*
X254131063Y-124400904D02*
X254134678Y-124449798D01*
X268547220Y-36014588D02*
X268520987Y-36056014D01*
X33400612Y-83858333D02*
X33424731Y-83865900D01*
X245081950Y-25292600D02*
X245117462Y-25258790D01*
X268361237Y-145741255D02*
X268324108Y-145773283D01*
X245641766Y-143010858D02*
X245690431Y-143004856D01*
X268117477Y-145904131D02*
X268072650Y-145924001D01*
X266688362Y-95500000D02*
X266639331Y-95498796D01*
X44788146Y-145050064D02*
X44784539Y-145098965D01*
X268396749Y-135792600D02*
X268430559Y-135828112D01*
X44496749Y-143292602D02*
X44530560Y-143328114D01*
X31347480Y-81466754D02*
X31369825Y-81591428D01*
X268285453Y-145803450D02*
X268245364Y-145831683D01*
X267885245Y-25019195D02*
X267933087Y-25029939D01*
X31280712Y-136256263D02*
X31291455Y-136304105D01*
X31083905Y-36134758D02*
X31051878Y-36171887D01*
X266590430Y-36495189D02*
X266541766Y-36489187D01*
X31623104Y-82332416D02*
X31681747Y-82444682D01*
X28315460Y-77401080D02*
X28321462Y-77352416D01*
X264286798Y-28461024D02*
X264265346Y-28447653D01*
X266174761Y-95357870D02*
X266133335Y-95331637D01*
X264872203Y-87942480D02*
X264854788Y-87924159D01*
X265555245Y-89114065D02*
X265547678Y-89089947D01*
X245233335Y-84168407D02*
X245274761Y-84142175D01*
X264633649Y-28715719D02*
X264535486Y-28635678D01*
X31452330Y-81910080D02*
X31493297Y-82029932D01*
X265555252Y-140885909D02*
X265590096Y-140764137D01*
X268161275Y-76617960D02*
X268203938Y-76642129D01*
X30311655Y-36500000D02*
X29309662Y-36500000D01*
X245274761Y-86857872D02*
X245233335Y-86831639D01*
X266541766Y-135510812D02*
X266590430Y-135504810D01*
X254510002Y-83979228D02*
X254519519Y-83981447D01*
X28479012Y-135943985D02*
X28507245Y-135903896D01*
X245788362Y-87000001D02*
X245739331Y-86998797D01*
X268689350Y-25999012D02*
X268689350Y-35500987D01*
X29019655Y-95456983D02*
X28973097Y-95441602D01*
X31758307Y-82576002D02*
X31771678Y-82597454D01*
X43936933Y-84010815D02*
X43985245Y-84019197D01*
X244800162Y-27147585D02*
X244794160Y-27098920D01*
X244808545Y-145195941D02*
X244800162Y-145147629D01*
X31369830Y-81591453D02*
X31374918Y-81616213D01*
X254356423Y-83908086D02*
X254378361Y-83922332D01*
X31310669Y-90006333D02*
X31310668Y-94500988D01*
X31267651Y-94790994D02*
X31252270Y-94837553D01*
X43985245Y-143019197D02*
X44033087Y-143029941D01*
X28638762Y-36241209D02*
X28603250Y-36207399D01*
X28310650Y-25999012D02*
X28311853Y-25949981D01*
X268689350Y-35500987D02*
X268688146Y-35550018D01*
X250600991Y-83995254D02*
X250626826Y-83991160D01*
X265376898Y-29667588D02*
X265318255Y-29555322D01*
X44562587Y-25365241D02*
X44592754Y-25403896D01*
X32234816Y-83165445D02*
X32253138Y-83182860D01*
X245016112Y-25365241D02*
X245048140Y-25328112D01*
X267885245Y-76519195D02*
X267933087Y-76529939D01*
X268630952Y-25662447D02*
X268646333Y-25709005D01*
X268072650Y-36423955D02*
X268026902Y-36441602D01*
X251236548Y-64903788D02*
X251266716Y-64865142D01*
X266017462Y-135758790D02*
X266054591Y-135726762D01*
X263453462Y-87099247D02*
X263428991Y-87092911D01*
X30782593Y-36382039D02*
X30738795Y-36404085D01*
X250981137Y-142726901D02*
X250985286Y-142718053D01*
X31280729Y-94743737D02*
X31267651Y-94790994D01*
X254424334Y-83947289D02*
X254436089Y-83952896D01*
X267885245Y-36480804D02*
X267836933Y-36489187D01*
X254484916Y-83971799D02*
X254494230Y-83974758D01*
X23310650Y-150987798D02*
X23310920Y-150998800D01*
X268324108Y-145773283D02*
X268285453Y-145803450D01*
X251098330Y-124162280D02*
X251115982Y-124116542D01*
X245545612Y-27970062D02*
X245498355Y-27956984D01*
X265885945Y-95096103D02*
X265857712Y-95056014D01*
X254519481Y-142981701D02*
X254525844Y-142983229D01*
X254460306Y-142962927D02*
X254472583Y-142967274D01*
X245317424Y-25117960D02*
X245361222Y-25095914D01*
X44126902Y-25058397D02*
X44172650Y-25076044D01*
X265747747Y-136162447D02*
X265765394Y-136116699D01*
X251748919Y-123543004D02*
X251796170Y-123529930D01*
X31681759Y-82444705D02*
X31694027Y-82466806D01*
X44788146Y-27050037D02*
X44784539Y-27098938D01*
X254356423Y-142908086D02*
X254381106Y-142924114D01*
X262853904Y-87004810D02*
X262828658Y-87003530D01*
X251082943Y-65208829D02*
X251098330Y-65162280D01*
X265732366Y-35790994D02*
X265719289Y-35743737D01*
X32127800Y-28942506D02*
X32042889Y-29036488D01*
X31549088Y-82171331D02*
X31559057Y-82194560D01*
X268285453Y-135696595D02*
X268324108Y-135726762D01*
X263305561Y-87064268D02*
X263280800Y-87059180D01*
X44647220Y-86514607D02*
X44620987Y-86556033D01*
X265857712Y-135943985D02*
X265885945Y-135903896D01*
X44261275Y-145882085D02*
X44217477Y-145904131D01*
X31374924Y-140616238D02*
X31403555Y-140739620D01*
X266174761Y-76642129D02*
X266217424Y-76617960D01*
X266261222Y-36404085D02*
X266217424Y-36382039D01*
X29114754Y-25019195D02*
X29163066Y-25010812D01*
X265305975Y-82466801D02*
X265318243Y-82444699D01*
X254077443Y-124162307D02*
X254092830Y-124208858D01*
X268203938Y-25142129D02*
X268245364Y-25168362D01*
X33694455Y-83935735D02*
X33719216Y-83940823D01*
X254652329Y-83996452D02*
X262682905Y-83999997D01*
X244832366Y-84709051D02*
X244847747Y-84662493D01*
X266217424Y-95382039D02*
X266174761Y-95357870D01*
X244907310Y-25528074D02*
X244931479Y-25485411D01*
X44746333Y-25709005D02*
X44759410Y-25756262D01*
X28315460Y-25901080D02*
X28321462Y-25852416D01*
X265685820Y-81139283D02*
X265689189Y-81006331D01*
X265674919Y-81290873D02*
X265684537Y-81164579D01*
X33719241Y-142940828D02*
X33843914Y-142963172D01*
X31305857Y-94598919D02*
X31299855Y-94647584D01*
X266261222Y-135595914D02*
X266306049Y-135576044D01*
X245361222Y-145904131D02*
X245317424Y-145882085D01*
X29066912Y-36470060D02*
X29019655Y-36456983D01*
X264746850Y-87817128D02*
X264652867Y-87732218D01*
X43839368Y-27998815D02*
X43790337Y-28000019D01*
X265440944Y-141194555D02*
X265450913Y-141171326D01*
X32347159Y-83267805D02*
X32366339Y-83284270D01*
X31315462Y-81164580D02*
X31325080Y-81290874D01*
X268689350Y-94500987D02*
X268688146Y-94550018D01*
X250862915Y-83877953D02*
X250870219Y-83871462D01*
X254017869Y-124027959D02*
X254039918Y-124071749D01*
X31305857Y-35598919D02*
X31299855Y-35647584D01*
X30906771Y-36303404D02*
X30866682Y-36331637D01*
X264854788Y-142075840D02*
X264872203Y-142057519D01*
X44620987Y-84443987D02*
X44647220Y-84485413D01*
X28406564Y-77071872D02*
X28428610Y-77028074D01*
X253909061Y-64865158D02*
X253939228Y-64903806D01*
X266541766Y-76510812D02*
X266590430Y-76504810D01*
X28340589Y-25756262D02*
X28353666Y-25709005D01*
X251041087Y-65449762D02*
X251044704Y-65400869D01*
X263305586Y-142935726D02*
X263428967Y-142907095D01*
X29211730Y-76504810D02*
X29260631Y-76501203D01*
X44784539Y-84901082D02*
X44788146Y-84949983D01*
X268117477Y-76595914D02*
X268161275Y-76617960D01*
X28537412Y-36134758D02*
X28507245Y-36096103D01*
X44217477Y-86904104D02*
X44172650Y-86923974D01*
X30409570Y-135504810D02*
X30458235Y-135510812D01*
X30693952Y-135576044D02*
X30738778Y-135595915D01*
X29066912Y-95470060D02*
X29019655Y-95456983D01*
X268593435Y-94928127D02*
X268571389Y-94971925D01*
X244957712Y-86556016D02*
X244931479Y-86514589D01*
X44217477Y-145904131D02*
X44172650Y-145924001D01*
X31694044Y-88533202D02*
X31681777Y-88555304D01*
X268684539Y-94598919D02*
X268678537Y-94647583D01*
X264854788Y-83075840D02*
X264872203Y-83057519D01*
X244789350Y-145001033D02*
X244789350Y-143999058D01*
X30360686Y-95498796D02*
X30311655Y-95500000D01*
X254105913Y-124256107D02*
X254116663Y-124303942D01*
X251844005Y-64519190D02*
X251892310Y-64510809D01*
X253331763Y-64519191D02*
X253379599Y-64529931D01*
X265069175Y-82826106D02*
X265144142Y-82724015D01*
X268646333Y-77209005D02*
X268659410Y-77256262D01*
X31142305Y-95056014D02*
X31114072Y-95096103D01*
X33116092Y-87248428D02*
X33001000Y-87301308D01*
X31018067Y-36207399D02*
X30982555Y-36241210D01*
X43936933Y-143010815D02*
X43985245Y-143019197D01*
X28796061Y-25142129D02*
X28838724Y-25117960D01*
X29309662Y-76500000D02*
X30311639Y-76500000D01*
X250998603Y-83688141D02*
X251002401Y-83679137D01*
X44770154Y-145195941D02*
X44759410Y-145243783D01*
X28675891Y-135726762D02*
X28714546Y-135696595D01*
X265948140Y-76828112D02*
X265981950Y-76792600D01*
X268571389Y-145471971D02*
X268547220Y-145514634D01*
X268678537Y-25852416D02*
X268684539Y-25901080D01*
X245690431Y-84004856D02*
X245739331Y-84001249D01*
X265765394Y-77116699D02*
X265785264Y-77071872D01*
X245317424Y-86882040D02*
X245274761Y-86857872D01*
X268245364Y-36331637D02*
X268203938Y-36357870D01*
X263428991Y-142907088D02*
X263453462Y-142900752D01*
X31444767Y-89114092D02*
X31409923Y-89235864D01*
X28882522Y-145904131D02*
X28838724Y-145882085D01*
X265785264Y-77071872D02*
X265807310Y-77028074D01*
X268547220Y-76985411D02*
X268571389Y-77028074D01*
X273689079Y-150998800D02*
X273689349Y-150987798D01*
X44671389Y-86471944D02*
X44647220Y-86514607D01*
X245788362Y-146000046D02*
X245739331Y-145998842D01*
X31310810Y-140006332D02*
X31314179Y-140139283D01*
X265547670Y-30089923D02*
X265506703Y-29970071D01*
X244819289Y-143756308D02*
X244832366Y-143709051D01*
X250985294Y-142718035D02*
X250998595Y-142688159D01*
X44647220Y-27514607D02*
X44620987Y-27556033D01*
X268361237Y-135758790D02*
X268396749Y-135792600D01*
X264652848Y-87732201D02*
X264633668Y-87715736D01*
X30982538Y-135758790D02*
X31018051Y-135792600D01*
X44730952Y-27337572D02*
X44713305Y-27383319D01*
X265719289Y-94743737D02*
X265708545Y-94695895D01*
X263428967Y-87092904D02*
X263305586Y-87064273D01*
X31758307Y-141576002D02*
X31771678Y-141597454D01*
X263280800Y-83940819D02*
X263305561Y-83935731D01*
X267788269Y-95495189D02*
X267739368Y-95498796D01*
X245406049Y-86923956D02*
X245361222Y-86904086D01*
X32347159Y-142267805D02*
X32366339Y-142284270D01*
X266133335Y-95331637D02*
X266093246Y-95303404D01*
X34019772Y-87014450D02*
X33994623Y-87017007D01*
X264854770Y-87924141D02*
X264765208Y-87834579D01*
X32145236Y-83075865D02*
X32234798Y-83165427D01*
X251032719Y-83552204D02*
X251033741Y-83539220D01*
X28452779Y-36014588D02*
X28428610Y-35971925D01*
X245498355Y-27956984D02*
X245451797Y-27941603D01*
X268285453Y-25196595D02*
X268324108Y-25226762D01*
X244985945Y-27596104D02*
X244957712Y-27556016D01*
X250842534Y-83894351D02*
X250850325Y-83888453D01*
X30554388Y-135529939D02*
X30601645Y-135543016D01*
X262695669Y-28000160D02*
X262683028Y-28000000D01*
X244790553Y-25949981D02*
X244794160Y-25901080D01*
X253877033Y-123828038D02*
X253909061Y-123865158D01*
X44730952Y-25662447D02*
X44746333Y-25709005D01*
X32607423Y-28530761D02*
X32586676Y-28545202D01*
X254131063Y-65400904D02*
X254134678Y-65449798D01*
X254345667Y-83900695D02*
X254356401Y-83908071D01*
X32978260Y-87312463D02*
X32865994Y-87371105D01*
X251021489Y-142616578D02*
X251024530Y-142603913D01*
X31403575Y-30260384D02*
X31374943Y-30383765D01*
X28537412Y-25365241D02*
X28569440Y-25328112D01*
X44759410Y-145243783D02*
X44746333Y-145291040D01*
X250626852Y-83991155D02*
X250639658Y-83988781D01*
X250771297Y-83940621D02*
X250796784Y-83925904D01*
X265708545Y-77304104D02*
X265719289Y-77256262D01*
X262695792Y-142999836D02*
X262828633Y-142996470D01*
X251035115Y-142512989D02*
X251035799Y-142486992D01*
X32713201Y-87461048D02*
X32607444Y-87530747D01*
X44770154Y-27195914D02*
X44759410Y-27243756D01*
X245274761Y-143142175D02*
X245317424Y-143118006D01*
X31168522Y-76985411D02*
X31192690Y-77028075D01*
X44126903Y-143058399D02*
X44172650Y-143076046D01*
X250976626Y-83735614D02*
X250981119Y-83726936D01*
X28973097Y-36441602D02*
X28927349Y-36423955D01*
X31234606Y-136116699D02*
X31252253Y-136162447D01*
X253877033Y-64828038D02*
X253909061Y-64865158D01*
X29019655Y-135543016D02*
X29066912Y-135529939D01*
X254268031Y-142830805D02*
X254276997Y-142840252D01*
X244832366Y-145291040D02*
X244819289Y-145243783D01*
X31309447Y-136449981D02*
X31310651Y-136499012D01*
X265916112Y-36134758D02*
X265885945Y-36096103D01*
X31018051Y-135792600D02*
X31051861Y-135828112D01*
X252038885Y-64500000D02*
X253136879Y-64500000D01*
X268670154Y-77304104D02*
X268678537Y-77352416D01*
X30409587Y-36495189D02*
X30360686Y-36498796D01*
X265241696Y-29424003D02*
X265228325Y-29402551D01*
X23311895Y-150999775D02*
X23322897Y-151000045D01*
X268161275Y-135617960D02*
X268203938Y-135642129D01*
X265684539Y-81164554D02*
X265685819Y-81139308D01*
X29019655Y-25043016D02*
X29066912Y-25029939D01*
X28452779Y-145514634D02*
X28428610Y-145471971D01*
X245406049Y-27923956D02*
X245361222Y-27904086D01*
X262683016Y-28000000D02*
X245788362Y-28000001D01*
X267690337Y-36500000D02*
X266688362Y-36500000D01*
X263131066Y-87032994D02*
X263005421Y-87016992D01*
X29019655Y-36456983D02*
X28973097Y-36441602D01*
X44126902Y-27941621D02*
X44080344Y-27957002D01*
X245317424Y-143118006D02*
X245361222Y-143095960D01*
X268678537Y-77352416D02*
X268684539Y-77401080D01*
X44345364Y-27831657D02*
X44303938Y-27857889D01*
X33116107Y-142751600D02*
X33139337Y-142761568D01*
X244790553Y-143950027D02*
X244794160Y-143901126D01*
X263305586Y-83935726D02*
X263428967Y-83907095D01*
X265053687Y-141846116D02*
X265069160Y-141826127D01*
X250548892Y-142999359D02*
X250574990Y-142997989D01*
X263599426Y-83858320D02*
X263719278Y-83817353D01*
X273688104Y-20000270D02*
X273677102Y-20000000D01*
X31314180Y-81139309D02*
X31315460Y-81164554D01*
X250548892Y-83999359D02*
X250574990Y-83997989D01*
X254077443Y-65162307D02*
X254092830Y-65208858D01*
X245016112Y-143365287D02*
X245048140Y-143328158D01*
X31409904Y-81764140D02*
X31444748Y-81885913D01*
X30825240Y-76642129D02*
X30866666Y-76668362D01*
X251525351Y-123642089D02*
X251568010Y-123617927D01*
X265388052Y-82309671D02*
X265440934Y-82194578D01*
X265708545Y-136304104D02*
X265719289Y-136256262D01*
X44778537Y-143852418D02*
X44784539Y-143901082D01*
X264872221Y-142057500D02*
X264957131Y-141963517D01*
X31694044Y-29533202D02*
X31681777Y-29555304D01*
X32253156Y-142182878D02*
X32347140Y-142267788D01*
X28882522Y-135595914D02*
X28927349Y-135576044D01*
X44126902Y-86941621D02*
X44080344Y-86957002D01*
X268613305Y-77116699D02*
X268630952Y-77162447D01*
X264021761Y-83687548D02*
X264134027Y-83628905D01*
X32843848Y-87383397D02*
X32734696Y-87447650D01*
X244819289Y-145243783D02*
X244808545Y-145195941D01*
X28537412Y-145634804D02*
X28507245Y-145596149D01*
X264134027Y-87371094D02*
X264021761Y-87312451D01*
X44778537Y-84852418D02*
X44784539Y-84901082D01*
X254545086Y-142987056D02*
X254574155Y-142991660D01*
X28353666Y-35790994D02*
X28340589Y-35743737D01*
X254500541Y-83976627D02*
X254509964Y-83979218D01*
X265885945Y-76903896D02*
X265916112Y-76865241D01*
X250829593Y-142904363D02*
X250837306Y-142898363D01*
X29309662Y-25000000D02*
X43790337Y-25000000D01*
X44530560Y-84328114D02*
X44562587Y-84365243D01*
X33994598Y-87017010D02*
X33868954Y-87033011D01*
X34171361Y-87003549D02*
X34146116Y-87004829D01*
X31493306Y-82029956D02*
X31502085Y-82053660D01*
X265690553Y-136449981D02*
X265694160Y-136401080D01*
X44671389Y-27471944D02*
X44647220Y-27514607D01*
X264515456Y-28620174D02*
X264413365Y-28545207D01*
X267836933Y-25010812D02*
X267885245Y-25019195D01*
X31452342Y-89089949D02*
X31444774Y-89114068D01*
X254200365Y-83734781D02*
X254215082Y-83760268D01*
X245081950Y-145707445D02*
X245048140Y-145671933D01*
X252038885Y-123500000D02*
X253136879Y-123500000D01*
X31310651Y-136499012D02*
X31310650Y-139993665D01*
X43839368Y-25001203D02*
X43888269Y-25004810D01*
X265857712Y-36056014D02*
X265831479Y-36014588D01*
X31559067Y-141194583D02*
X31611949Y-141309676D01*
X250932086Y-142804057D02*
X250940014Y-142793724D01*
X265596445Y-81739617D02*
X265625076Y-81616236D01*
X245193246Y-27803405D02*
X245154591Y-27773238D01*
X28714546Y-95303404D02*
X28675891Y-95273237D01*
X265732366Y-136209005D02*
X265747747Y-136162447D01*
X265506703Y-141029928D02*
X265547670Y-140910076D01*
X267690337Y-135500000D02*
X267739368Y-135501203D01*
X28386694Y-25616699D02*
X28406564Y-25571872D01*
X43839368Y-145998842D02*
X43790337Y-146000046D01*
X28340589Y-35743737D02*
X28329845Y-35695895D01*
X31142289Y-135943985D02*
X31168522Y-135985411D01*
X268630952Y-35837552D02*
X268613305Y-35883300D01*
X254159386Y-142635196D02*
X254169494Y-142666297D01*
X266217424Y-135617960D02*
X266261222Y-135595914D01*
X33400594Y-28141693D02*
X33280743Y-28182659D01*
X28428610Y-25528074D02*
X28452779Y-25485411D01*
X30506563Y-36480804D02*
X30458251Y-36489187D01*
X268324108Y-36273237D02*
X268285453Y-36303404D01*
X244985945Y-143403942D02*
X245016112Y-143365287D01*
X267739368Y-36498796D02*
X267690337Y-36500000D01*
X254169500Y-142666316D02*
X254172703Y-142675549D01*
X31310830Y-30993680D02*
X31310670Y-31006321D01*
X266054591Y-76726762D02*
X266093246Y-76696595D01*
X244808545Y-143804150D02*
X244819289Y-143756308D01*
X253283457Y-64510810D02*
X253331763Y-64519191D01*
X245048140Y-84328158D02*
X245081950Y-84292646D01*
X245739331Y-86998797D02*
X245690430Y-86995190D01*
X30554388Y-76529939D02*
X30601645Y-76543016D01*
X28353666Y-136209005D02*
X28369047Y-136162447D01*
X31369845Y-30408575D02*
X31347500Y-30533248D01*
X30648204Y-135558397D02*
X30693952Y-135576044D01*
X251796170Y-123529930D02*
X251844005Y-123519190D01*
X44033087Y-27970080D02*
X43985245Y-27980823D01*
X251796170Y-64529930D02*
X251844005Y-64519190D01*
X28479012Y-95056014D02*
X28452779Y-95014588D01*
X31409917Y-89235889D02*
X31403581Y-89260360D01*
X254229270Y-142782268D02*
X254234962Y-142790211D01*
X254259537Y-83820863D02*
X254267996Y-83830766D01*
X44730952Y-84662449D02*
X44746333Y-84709007D01*
X265497916Y-141053656D02*
X265506695Y-141029952D01*
X245233335Y-145831683D02*
X245193246Y-145803450D01*
X34171361Y-28003549D02*
X34146116Y-28004829D01*
X28638762Y-76758790D02*
X28675891Y-76726762D01*
X250714885Y-142966491D02*
X250726918Y-142961506D01*
X265785264Y-94928127D02*
X265765394Y-94883300D01*
X245545612Y-86970062D02*
X245498355Y-86956984D01*
X28838724Y-76617960D02*
X28882522Y-76595914D01*
X44217477Y-25095914D02*
X44261275Y-25117960D01*
X31252253Y-136162447D02*
X31267634Y-136209006D01*
X31252270Y-94837553D02*
X31234623Y-94883300D01*
X245545613Y-143029984D02*
X245593455Y-143019241D01*
X268117477Y-36404085D02*
X268072650Y-36423955D01*
X254141362Y-142535666D02*
X254142385Y-142548650D01*
X254277015Y-142840270D02*
X254295513Y-142858766D01*
X30601662Y-36456983D02*
X30554405Y-36470060D01*
X245274761Y-27857872D02*
X245233335Y-27831639D01*
X28452779Y-135985411D02*
X28479012Y-135943985D01*
X262980248Y-83985567D02*
X263005396Y-83983010D01*
X245593455Y-84019241D02*
X245641766Y-84010858D01*
X264392576Y-87530738D02*
X264286819Y-87461038D01*
X254172858Y-83675535D02*
X254177843Y-83687568D01*
X28603250Y-95207399D02*
X28569440Y-95171887D01*
X33400612Y-142858333D02*
X33424731Y-142865900D01*
X263860676Y-83761563D02*
X263883905Y-83751594D01*
X44784539Y-25901080D02*
X44788146Y-25949981D01*
X31299838Y-136352416D02*
X31305840Y-136401081D01*
X44385453Y-86803423D02*
X44345364Y-86831657D01*
X43888269Y-143004812D02*
X43936933Y-143010815D01*
X267836933Y-145989233D02*
X267788269Y-145995235D01*
X254189601Y-142714602D02*
X254193981Y-142723338D01*
X263005396Y-87016989D02*
X262980248Y-87014432D01*
X251011147Y-142654438D02*
X251013861Y-142645050D01*
X31930844Y-141826133D02*
X31946317Y-141846122D01*
X29211730Y-135504810D02*
X29260631Y-135501203D01*
X32607433Y-142469268D02*
X32713191Y-142538968D01*
X254240998Y-142797972D02*
X254259521Y-142820843D01*
X29260631Y-76501203D02*
X29309662Y-76500000D01*
X254551546Y-83988254D02*
X254561143Y-83990097D01*
X265625076Y-30383763D02*
X265596445Y-30260382D01*
X28714546Y-135696595D02*
X28754635Y-135668362D01*
X28340589Y-77256262D02*
X28353666Y-77209005D01*
X268613305Y-35883300D02*
X268593435Y-35928127D01*
X244865394Y-145383346D02*
X244847747Y-145337598D01*
X31493316Y-88970074D02*
X31452349Y-89089925D01*
X254472608Y-142967282D02*
X254500599Y-142976376D01*
X33280736Y-83817359D02*
X33400588Y-83858325D01*
X266093246Y-135696595D02*
X266133335Y-135668362D01*
X265690553Y-94550018D02*
X265689350Y-94500987D01*
X254494248Y-83974763D02*
X254500522Y-83976622D01*
X33994621Y-142983012D02*
X34019770Y-142985569D01*
X32713201Y-28461048D02*
X32607444Y-28530747D01*
X254141362Y-83535666D02*
X254142385Y-83548650D01*
X254335292Y-83892736D02*
X254345625Y-83900664D01*
X254229270Y-83782268D02*
X254234962Y-83790211D01*
X31771695Y-88402556D02*
X31758324Y-88424008D01*
X44647220Y-25485411D02*
X44671389Y-25528074D01*
X28340589Y-145243783D02*
X28329845Y-145195941D01*
X265732366Y-94790994D02*
X265719289Y-94743737D01*
X44217477Y-143095917D02*
X44261275Y-143117963D01*
X33719241Y-83940828D02*
X33843914Y-83963172D01*
X44746333Y-27291013D02*
X44730952Y-27337572D01*
X266093246Y-95303404D02*
X266054591Y-95273237D01*
X267980344Y-95456983D02*
X267933087Y-95470060D01*
X254092830Y-124208858D02*
X254105913Y-124256107D01*
X31758311Y-88424029D02*
X31694057Y-88533180D01*
X28406564Y-94928127D02*
X28386694Y-94883300D01*
X244865394Y-27383302D02*
X244847747Y-27337554D01*
X265689189Y-30993668D02*
X265685820Y-30860716D01*
X254378383Y-83922346D02*
X254389488Y-83929151D01*
X245361222Y-25095914D02*
X245406049Y-25076044D01*
X244865394Y-25616699D02*
X244885264Y-25571872D01*
X263860676Y-142761563D02*
X263883905Y-142751594D01*
X244931479Y-25485411D02*
X244957712Y-25443985D01*
X30409570Y-76504810D02*
X30458235Y-76510812D01*
X44496749Y-25292600D02*
X44530559Y-25328112D01*
X44770154Y-84804106D02*
X44778537Y-84852418D01*
X266017462Y-76758790D02*
X266054591Y-76726762D01*
X266398355Y-135543016D02*
X266445612Y-135529939D01*
X266017462Y-95241209D02*
X265981950Y-95207399D01*
X251002416Y-142679100D02*
X251005858Y-142669954D01*
X245641766Y-84010858D02*
X245690431Y-84004856D01*
X245545613Y-84029984D02*
X245593455Y-84019241D01*
X33139345Y-87238449D02*
X33116115Y-87248417D01*
X268684539Y-136401080D02*
X268688146Y-136449981D01*
X33139360Y-142761578D02*
X33256984Y-142808562D01*
X44303938Y-27857889D02*
X44261275Y-27882058D01*
X28311853Y-94550018D02*
X28310650Y-94500987D01*
X28638762Y-95241209D02*
X28603250Y-95207399D01*
X244957712Y-84444031D02*
X244985945Y-84403942D01*
X244832366Y-143709051D02*
X244847747Y-143662493D01*
X268430559Y-145671933D02*
X268396749Y-145707445D01*
X29114754Y-145980850D02*
X29066912Y-145970106D01*
X266351797Y-135558397D02*
X266398355Y-135543016D01*
X251031014Y-83565168D02*
X251032714Y-83552256D01*
X268492754Y-76903896D02*
X268520987Y-76943985D01*
X44592754Y-84403898D02*
X44620987Y-84443987D01*
X244907310Y-86471926D02*
X244885264Y-86428128D01*
X251035115Y-83512989D02*
X251035799Y-83486992D01*
X254154064Y-142616332D02*
X254156532Y-142625788D01*
X265948140Y-95171887D02*
X265916112Y-95134758D01*
X31325082Y-81290899D02*
X31327639Y-81316048D01*
X251368064Y-64758718D02*
X251405190Y-64726700D01*
X44303938Y-86857889D02*
X44261275Y-86882058D01*
X268203938Y-76642129D02*
X268245364Y-76668362D01*
X267980344Y-145957029D02*
X267933087Y-145970106D01*
X268462587Y-36134758D02*
X268430559Y-36171887D01*
X32234812Y-28834586D02*
X32145250Y-28924148D01*
X44080344Y-86957002D02*
X44033087Y-86970080D01*
X244789350Y-86000989D02*
X244789350Y-84999058D01*
X29066912Y-76529939D02*
X29114754Y-76519195D01*
X33139345Y-28238449D02*
X33116115Y-28248417D01*
X265831479Y-36014588D02*
X265807310Y-35971925D01*
X263453487Y-142900746D02*
X263575259Y-142865902D01*
X267933087Y-145970106D02*
X267885245Y-145980850D01*
X264413365Y-83454792D02*
X264515456Y-83379825D01*
X264973613Y-88055681D02*
X264957148Y-88036501D01*
X245016112Y-145634804D02*
X244985945Y-145596149D01*
X245233335Y-86831639D02*
X245193246Y-86803405D01*
X265652524Y-140466728D02*
X265656351Y-140441741D01*
X264392597Y-83469247D02*
X264413345Y-83454806D01*
X30945410Y-135726762D02*
X30982538Y-135758790D01*
X254154064Y-83616332D02*
X254156532Y-83625788D01*
X44759410Y-86243756D02*
X44746333Y-86291013D01*
X44530559Y-86671906D02*
X44496749Y-86707418D01*
X263860653Y-87238427D02*
X263743030Y-87191442D01*
X244789350Y-27000989D02*
X244789350Y-25999012D01*
X250652399Y-83985722D02*
X250677665Y-83978950D01*
X254116663Y-124303942D02*
X254125053Y-124352246D01*
X265656351Y-30558258D02*
X265652524Y-30533271D01*
X268396749Y-25292600D02*
X268430559Y-25328112D01*
X265916112Y-135865241D02*
X265948140Y-135828112D01*
X31051861Y-135828112D02*
X31083888Y-135865241D01*
X34304352Y-142999839D02*
X34316989Y-142999999D01*
X253379599Y-123529931D02*
X253426851Y-123543006D01*
X263883928Y-83751584D02*
X263999021Y-83698702D01*
X31444767Y-30114092D02*
X31409923Y-30235864D01*
X253650424Y-123642095D02*
X253691847Y-123668322D01*
X263280800Y-142940819D02*
X263305561Y-142935731D01*
X30601645Y-76543016D02*
X30648204Y-76558397D01*
X268659410Y-94743737D02*
X268646333Y-94790994D01*
X254305018Y-142867784D02*
X254314922Y-142876242D01*
X250730022Y-83960313D02*
X250739074Y-83956632D01*
X28428610Y-35971925D02*
X28406564Y-35928127D01*
X254039918Y-65071749D02*
X254059792Y-65116568D01*
X263860653Y-28238427D02*
X263743030Y-28191442D01*
X254177853Y-83687592D02*
X254188494Y-83711488D01*
X264535486Y-142364321D02*
X264633649Y-142284280D01*
X268670154Y-94695895D02*
X268659410Y-94743737D01*
X34316989Y-87000020D02*
X34304352Y-87000180D01*
X44303938Y-143142131D02*
X44345364Y-143168364D01*
X43985245Y-27980823D02*
X43936933Y-27989206D01*
X268285453Y-36303404D02*
X268245364Y-36331637D01*
X44496749Y-145707445D02*
X44461237Y-145741255D01*
X254475689Y-83968464D02*
X254484879Y-83971786D01*
X44345364Y-84168364D02*
X44385453Y-84196598D01*
X251525351Y-64642089D02*
X251568010Y-64617927D01*
X266445612Y-135529939D02*
X266493454Y-135519195D01*
X33424755Y-83865907D02*
X33546528Y-83900750D01*
X265674917Y-89709101D02*
X265672360Y-89683953D01*
X31214753Y-35928127D02*
X31192707Y-35971925D01*
X250522709Y-84000046D02*
X250548866Y-83999360D01*
X244808545Y-27195896D02*
X244800162Y-27147585D01*
X32464535Y-87635687D02*
X32366372Y-87715727D01*
X28714546Y-25196595D02*
X28754635Y-25168362D01*
X265596445Y-140739617D02*
X265625076Y-140616236D01*
X263719278Y-28182646D02*
X263599426Y-28141679D01*
X268026902Y-36441602D02*
X267980344Y-36456983D01*
X265625081Y-140616211D02*
X265630169Y-140591450D01*
X245498355Y-25043016D02*
X245545612Y-25029939D01*
X44789350Y-27001006D02*
X44788146Y-27050037D01*
X265689350Y-35500987D02*
X265689350Y-31006333D01*
X251298743Y-64828023D02*
X251332553Y-64792520D01*
X253426851Y-123543006D02*
X253473405Y-123558383D01*
X251702366Y-123558381D02*
X251748919Y-123543004D01*
X262828633Y-28003529D02*
X262695681Y-28000160D01*
X34146115Y-142995190D02*
X34171360Y-142996470D01*
X43888269Y-27995208D02*
X43839368Y-27998815D01*
X250753952Y-83949748D02*
X250762688Y-83945368D01*
X29211730Y-95495189D02*
X29163066Y-95489187D01*
X33843917Y-28036846D02*
X33719245Y-28059191D01*
X44424108Y-86773256D02*
X44385453Y-86803423D01*
X30782576Y-76617960D02*
X30825240Y-76642129D01*
X28310650Y-136499012D02*
X28311853Y-136449981D01*
X245193246Y-25196595D02*
X245233335Y-25168362D01*
X264134049Y-142628893D02*
X264156151Y-142616625D01*
X250940045Y-83793682D02*
X250947421Y-83782948D01*
X251032719Y-142552204D02*
X251033741Y-142539220D01*
X29211730Y-36495189D02*
X29163066Y-36489187D01*
X254125053Y-65352246D02*
X254131063Y-65400904D01*
X265831479Y-95014588D02*
X265807310Y-94971925D01*
X268245364Y-76668362D02*
X268285453Y-76696595D01*
X250973495Y-142741382D02*
X250976617Y-142735631D01*
X31325100Y-30709127D02*
X31315482Y-30835420D01*
X44385453Y-84196598D02*
X44424108Y-84226764D01*
X254198728Y-142731947D02*
X254215082Y-142760268D01*
X268072650Y-25076044D02*
X268117477Y-25095914D01*
X253519148Y-64576026D02*
X253563970Y-64595892D01*
X44461237Y-145741255D02*
X44424108Y-145773283D01*
X267788269Y-145995235D02*
X267739368Y-145998842D01*
X31855863Y-88276009D02*
X31841423Y-88296757D01*
X268492754Y-25403896D02*
X268520987Y-25443985D01*
X31051861Y-76828112D02*
X31083888Y-76865241D01*
X265590096Y-89235862D02*
X265555252Y-89114090D01*
X245154591Y-145773283D02*
X245117462Y-145741255D01*
X264021738Y-87312440D02*
X263999043Y-87301308D01*
X250774131Y-142938984D02*
X250799618Y-142924267D01*
X268520987Y-145556060D02*
X268492754Y-145596149D01*
X264746869Y-83182853D02*
X264765190Y-83165438D01*
X31018067Y-95207399D02*
X30982555Y-95241210D01*
X263156103Y-142963170D02*
X263280775Y-142940824D01*
X265747747Y-35837552D02*
X265732366Y-35790994D01*
X31343648Y-81441743D02*
X31347476Y-81466729D01*
X263280775Y-87059175D02*
X263156103Y-87036829D01*
X265497907Y-88946319D02*
X265450922Y-88828696D01*
X250808033Y-142919184D02*
X250816194Y-142913808D01*
X254139300Y-142483407D02*
X254139986Y-142509468D01*
X265158611Y-141703226D02*
X265228311Y-141597469D01*
X264265324Y-28447640D02*
X264156173Y-28383386D01*
X30458235Y-76510812D02*
X30506546Y-76519195D01*
X245081950Y-84292646D02*
X245117462Y-84258835D01*
X254039918Y-124071749D02*
X254059792Y-124116568D01*
X31299855Y-94647584D02*
X31291472Y-94695895D01*
X244907310Y-143528120D02*
X244931479Y-143485457D01*
X254194137Y-83723313D02*
X254200352Y-83734758D01*
X244907310Y-145471971D02*
X244885264Y-145428173D01*
X265765394Y-94883300D02*
X265747747Y-94837552D01*
X253136879Y-64500000D02*
X253185904Y-64501203D01*
X254448225Y-142957924D02*
X254460257Y-142962908D01*
X254148705Y-142590728D02*
X254150424Y-142600348D01*
X28838724Y-95382039D02*
X28796061Y-95357870D01*
X31771692Y-141597475D02*
X31841392Y-141703233D01*
X250639709Y-83988770D02*
X250652373Y-83985728D01*
X31347495Y-30533273D02*
X31343668Y-30558259D01*
X268324108Y-76726762D02*
X268361237Y-76758790D01*
X268203938Y-36357870D02*
X268161275Y-36382039D01*
X245081950Y-86707400D02*
X245048140Y-86671888D01*
X44080344Y-143043019D02*
X44126903Y-143058399D01*
X268659410Y-35743737D02*
X268646333Y-35790994D01*
X265785264Y-35928127D02*
X265765394Y-35883300D01*
X31374924Y-81616238D02*
X31403555Y-81739620D01*
X263999021Y-87301297D02*
X263883928Y-87248415D01*
X253967463Y-64943887D02*
X253993698Y-64985304D01*
X32464535Y-28635687D02*
X32366372Y-28715727D01*
X265376909Y-82332388D02*
X265388041Y-82309693D01*
X28311853Y-35550018D02*
X28310650Y-35500987D01*
X265719289Y-136256262D02*
X265732366Y-136209005D01*
X30866666Y-76668362D02*
X30906754Y-76696596D01*
X250915609Y-83824407D02*
X250932070Y-83804078D01*
X30409587Y-95495189D02*
X30360686Y-95498796D01*
X254105913Y-65256107D02*
X254116663Y-65303942D01*
X245048140Y-27671888D02*
X245016112Y-27634760D01*
X28311853Y-77449981D02*
X28315460Y-77401080D01*
X31214753Y-94928127D02*
X31192707Y-94971925D01*
X33280719Y-87182668D02*
X33257014Y-87191447D01*
X251044704Y-124400869D02*
X251050716Y-124352213D01*
X251039873Y-65498786D02*
X251041087Y-65449762D01*
X263005396Y-28016989D02*
X262980248Y-28014432D01*
X253519148Y-123576026D02*
X253563970Y-123595892D01*
X253770586Y-64726710D02*
X253807712Y-64758730D01*
X254389455Y-142929305D02*
X254397950Y-142934135D01*
X30906771Y-95303404D02*
X30866682Y-95331637D01*
X31841406Y-141703254D02*
X31855847Y-141724001D01*
X31502094Y-82053684D02*
X31549079Y-82171307D01*
X253283457Y-123510810D02*
X253331763Y-123519191D01*
X244819289Y-25756262D02*
X244832366Y-25709005D01*
X31114072Y-36096103D02*
X31083905Y-36134758D01*
X266639331Y-36498796D02*
X266590430Y-36495189D01*
X44385453Y-145803450D02*
X44345364Y-145831683D01*
X265555252Y-81885909D02*
X265590096Y-81764137D01*
X34317002Y-143000000D02*
X43790337Y-143000002D01*
X268285453Y-95303404D02*
X268245364Y-95331637D01*
X245274761Y-145857916D02*
X245233335Y-145831683D01*
X28507245Y-95096103D02*
X28479012Y-95056014D01*
X29163066Y-135510812D02*
X29211730Y-135504810D01*
X251332553Y-64792520D02*
X251368064Y-64758718D01*
X29211730Y-25004810D02*
X29260631Y-25001203D01*
X267788269Y-36495189D02*
X267739368Y-36498796D01*
X33139360Y-83761578D02*
X33256984Y-83808562D01*
X30360670Y-135501203D02*
X30409570Y-135504810D01*
X23310920Y-20001245D02*
X23310650Y-20012247D01*
X32484552Y-142379832D02*
X32586644Y-142454799D01*
X30648204Y-76558397D02*
X30693952Y-76576044D01*
X44261275Y-86882058D02*
X44217477Y-86904104D01*
X44385453Y-143196598D02*
X44424108Y-143226764D01*
X268396749Y-76792600D02*
X268430559Y-76828112D01*
X265689349Y-90006321D02*
X265689189Y-89993680D01*
X268689350Y-77499012D02*
X268689350Y-94500987D01*
X262853929Y-83995187D02*
X262980223Y-83985569D01*
X28796061Y-76642129D02*
X28838724Y-76617960D01*
X32145233Y-87924166D02*
X32127817Y-87942487D01*
X30906754Y-135696596D02*
X30945410Y-135726762D01*
X266306049Y-135576044D02*
X266351797Y-135558397D01*
X44713305Y-86383319D02*
X44693435Y-86428146D01*
X31930844Y-82826133D02*
X31946317Y-82846122D01*
X33694434Y-28064289D02*
X33571054Y-28092920D01*
X245641766Y-145989233D02*
X245593454Y-145980850D01*
X254142390Y-142548702D02*
X254144091Y-142561615D01*
X32734686Y-83552366D02*
X32843838Y-83616619D01*
X264633668Y-142284263D02*
X264652848Y-142267798D01*
X263743006Y-28191433D02*
X263719302Y-28182654D01*
X265689350Y-80993666D02*
X265689350Y-77499012D01*
X265700162Y-77352416D02*
X265708545Y-77304104D01*
X250750861Y-142950844D02*
X250762616Y-142945236D01*
X31309464Y-94550018D02*
X31305857Y-94598919D01*
X30554405Y-95470060D02*
X30506563Y-95480804D01*
X32464542Y-83364344D02*
X32484532Y-83379817D01*
X44461237Y-27741229D02*
X44424108Y-27773256D01*
X264854770Y-28924141D02*
X264765208Y-28834579D01*
X30982555Y-36241210D02*
X30945426Y-36273237D01*
X28386694Y-145383346D02*
X28369047Y-145337598D01*
X254134678Y-65449798D02*
X254135891Y-65498822D01*
X31314199Y-89860717D02*
X31310830Y-89993668D01*
X244800162Y-25852416D02*
X244808545Y-25804104D01*
X268324108Y-95273237D02*
X268285453Y-95303404D01*
X263575259Y-28134097D02*
X263453487Y-28099253D01*
X265765394Y-35883300D02*
X265747747Y-35837552D01*
X266541766Y-36489187D02*
X266493454Y-36480804D01*
X265144142Y-29275984D02*
X265069175Y-29173893D01*
X28507245Y-36096103D02*
X28479012Y-36056014D01*
X34304339Y-87000180D02*
X34171387Y-87003548D01*
X31310830Y-89993680D02*
X31310670Y-90006321D01*
X33994598Y-28017010D02*
X33868954Y-28033011D01*
X264515456Y-87620174D02*
X264413365Y-87545207D01*
X44261275Y-27882058D02*
X44217477Y-27904104D01*
X251405190Y-64726700D02*
X251443843Y-64696541D01*
X265831479Y-135985411D02*
X265857712Y-135943985D01*
X244847747Y-145337598D02*
X244832366Y-145291040D01*
X265450922Y-141171303D02*
X265497907Y-141053680D01*
X262683016Y-87000000D02*
X245788362Y-87000001D01*
X266590430Y-76504810D02*
X266639331Y-76501203D01*
X31305840Y-77401081D02*
X31309447Y-77449981D01*
X32145233Y-28924166D02*
X32127817Y-28942487D01*
X268689350Y-136499012D02*
X268689350Y-145001033D01*
X31310669Y-31006333D02*
X31310668Y-35500988D01*
X254436137Y-83952917D02*
X254448170Y-83957901D01*
X28340589Y-136256262D02*
X28353666Y-136209005D01*
X44788146Y-84949983D02*
X44789350Y-84999014D01*
X28507245Y-25403896D02*
X28537412Y-25365241D01*
X267690337Y-25000000D02*
X267739368Y-25001203D01*
X250677690Y-83978943D02*
X250690177Y-83975243D01*
X250575016Y-83997987D02*
X250588000Y-83996964D01*
X265440934Y-88805421D02*
X265388052Y-88690328D01*
X265689349Y-31006321D02*
X265689189Y-30993680D01*
X244957712Y-25443985D02*
X244985945Y-25403896D01*
X254626414Y-83995768D02*
X254652303Y-83996452D01*
X250932086Y-83804057D02*
X250940014Y-83793724D01*
X264265324Y-87447640D02*
X264156173Y-87383386D01*
X28882522Y-95404085D02*
X28838724Y-95382039D01*
X33868929Y-28033015D02*
X33843942Y-28036842D01*
X268161275Y-25117960D02*
X268203938Y-25142129D01*
X44693435Y-143571874D02*
X44713305Y-143616701D01*
X268492754Y-95096103D02*
X268462587Y-95134758D01*
X31168538Y-36014588D02*
X31142305Y-36056014D01*
X268630952Y-145337598D02*
X268613305Y-145383346D01*
X266493454Y-76519195D02*
X266541766Y-76510812D01*
X266445612Y-95470060D02*
X266398355Y-95456983D01*
X33571029Y-28092926D02*
X33546558Y-28099262D01*
X267885245Y-135519195D02*
X267933087Y-135529939D01*
X245498355Y-143043062D02*
X245545613Y-143029984D01*
X30311639Y-76500000D02*
X30360670Y-76501203D01*
X262695792Y-83999836D02*
X262828633Y-83996470D01*
X44671389Y-143528076D02*
X44693435Y-143571874D01*
X43985245Y-25019195D02*
X44033087Y-25029939D01*
X28675891Y-36273237D02*
X28638762Y-36241209D01*
X244931479Y-145514634D02*
X244907310Y-145471971D01*
X245048140Y-143328158D02*
X245081950Y-143292646D01*
X31291472Y-35695895D02*
X31280729Y-35743737D01*
X30506563Y-95480804D02*
X30458251Y-95489187D01*
X244800162Y-86147585D02*
X244794160Y-86098920D01*
X31444755Y-140885937D02*
X31452322Y-140910056D01*
X44789350Y-143999014D02*
X44789350Y-145001033D01*
X268688146Y-35550018D02*
X268684539Y-35598919D01*
X265228325Y-82597448D02*
X265241696Y-82575996D01*
X251035799Y-83486966D02*
X251039873Y-65498786D01*
X44693435Y-145428173D02*
X44671389Y-145471971D01*
X254144095Y-83561641D02*
X254148702Y-83590709D01*
X266217424Y-76617960D02*
X266261222Y-76595914D01*
X44788146Y-143949983D02*
X44789350Y-143999014D01*
X30360670Y-76501203D02*
X30409570Y-76504810D01*
X254125053Y-124352246D02*
X254131063Y-124400904D01*
X263575284Y-83865895D02*
X263599402Y-83858328D01*
X32347153Y-87732226D02*
X32253170Y-87817136D01*
X244794160Y-145098965D02*
X244790553Y-145050064D01*
X268684539Y-77401080D02*
X268688146Y-77449981D01*
X265241696Y-88424003D02*
X265228325Y-88402551D01*
X32042872Y-29036507D02*
X32026407Y-29055687D01*
X28386694Y-136116699D02*
X28406564Y-136071872D01*
X250879620Y-142862334D02*
X250898116Y-142843836D01*
X268026902Y-76558397D02*
X268072650Y-76576044D01*
X31299855Y-35647584D02*
X31291472Y-35695895D01*
X43888269Y-145995235D02*
X43839368Y-145998842D01*
X31314180Y-140139309D02*
X31315460Y-140164554D01*
X33546533Y-87099268D02*
X33424761Y-87134111D01*
X268396749Y-145707445D02*
X268361237Y-145741255D01*
X32127802Y-142057526D02*
X32145218Y-142075847D01*
X28714546Y-76696595D02*
X28754635Y-76668362D01*
X267788269Y-25004810D02*
X267836933Y-25010812D01*
X245117462Y-25258790D02*
X245154591Y-25226762D01*
X31611967Y-88690332D02*
X31559086Y-88805424D01*
X268684539Y-35598919D02*
X268678537Y-35647583D01*
X44530559Y-25328112D02*
X44562587Y-25365241D01*
X265708545Y-94695895D02*
X265700162Y-94647583D01*
X265305975Y-141466801D02*
X265318243Y-141444699D01*
X33280719Y-28182668D02*
X33257014Y-28191447D01*
X245117462Y-27741211D02*
X245081950Y-27707400D01*
X251059107Y-65303910D02*
X251069858Y-65256077D01*
X251069858Y-124256077D02*
X251082943Y-124208829D01*
X44345364Y-143168364D02*
X44385453Y-143196598D01*
X33256991Y-87191456D02*
X33139368Y-87238439D01*
X28369047Y-136162447D02*
X28386694Y-136116699D01*
X250807955Y-83919056D02*
X250818688Y-83911678D01*
X262682918Y-142999997D02*
X262695779Y-142999836D01*
X250870248Y-83871435D02*
X250877292Y-83864662D01*
X265158597Y-88296752D02*
X265144156Y-88276004D01*
X244907310Y-84528120D02*
X244931479Y-84485457D01*
X265885945Y-36096103D02*
X265857712Y-36056014D01*
X44562587Y-143365243D02*
X44592754Y-143403898D01*
X31559075Y-88805447D02*
X31549107Y-88828676D01*
X266590430Y-135504810D02*
X266639331Y-135501203D01*
X33000991Y-142698709D02*
X33116084Y-142751590D01*
X268688146Y-77449981D02*
X268689350Y-77499012D01*
X31855863Y-29276009D02*
X31841423Y-29296757D01*
X32734675Y-87447663D02*
X32713223Y-87461035D01*
X267788269Y-135504810D02*
X267836933Y-135510812D01*
X268462587Y-135865241D02*
X268492754Y-135903896D01*
X264156173Y-142616613D02*
X264265324Y-142552359D01*
X31234623Y-35883300D02*
X31214753Y-35928127D01*
X245117462Y-145741255D02*
X245081950Y-145707445D01*
X251008055Y-83663749D02*
X251011135Y-83654475D01*
X264957148Y-141963498D02*
X264973613Y-141944318D01*
X244819289Y-84756308D02*
X244832366Y-84709051D01*
X264746850Y-28817128D02*
X264652867Y-28732218D01*
X44345364Y-86831657D02*
X44303938Y-86857889D01*
X268117477Y-135595914D02*
X268161275Y-135617960D01*
X34171386Y-142996471D02*
X34304339Y-142999839D01*
X267980344Y-76543016D02*
X268026902Y-76558397D01*
X265069160Y-29173872D02*
X265053687Y-29153883D01*
X44592754Y-143403898D02*
X44620987Y-143443987D01*
X268659410Y-77256262D02*
X268670154Y-77304104D01*
X251135857Y-65071725D02*
X251157907Y-65027937D01*
X264413345Y-28545193D02*
X264392597Y-28530752D01*
X266133335Y-76668362D02*
X266174761Y-76642129D01*
X265450913Y-88828673D02*
X265440944Y-88805444D01*
X265807310Y-94971925D02*
X265785264Y-94928127D01*
X265547678Y-140910052D02*
X265555245Y-140885934D01*
X30945410Y-76726762D02*
X30982538Y-76758790D01*
X28321462Y-94647583D02*
X28315460Y-94598919D01*
X30782576Y-135617960D02*
X30825240Y-135642129D01*
X265069175Y-141826106D02*
X265144142Y-141724015D01*
X28754635Y-145831683D02*
X28714546Y-145803450D01*
X265497907Y-29946319D02*
X265450922Y-29828696D01*
X31771692Y-82597475D02*
X31841392Y-82703233D01*
X264021761Y-142687548D02*
X264134027Y-142628905D01*
X34019795Y-83985571D02*
X34146089Y-83995188D01*
X44713305Y-145383346D02*
X44693435Y-145428173D01*
X28838724Y-25117960D02*
X28882522Y-25095914D01*
X28315460Y-94598919D02*
X28311853Y-94550018D01*
X28603250Y-76792600D02*
X28638762Y-76758790D01*
X31083888Y-76865241D02*
X31114055Y-76903896D01*
X268462587Y-76865241D02*
X268492754Y-76903896D01*
X31309464Y-35550018D02*
X31305857Y-35598919D01*
X29114754Y-36480804D02*
X29066912Y-36470060D01*
X265547678Y-81910052D02*
X265555245Y-81885934D01*
X265625076Y-89383763D02*
X265596445Y-89260382D01*
X263575284Y-142865895D02*
X263599402Y-142858328D01*
X254397967Y-142934145D02*
X254403718Y-142937267D01*
X244885264Y-145428173D02*
X244865394Y-145383346D01*
X44461237Y-25258790D02*
X44496749Y-25292600D01*
X264957131Y-88036482D02*
X264872221Y-87942499D01*
X265885945Y-135903896D02*
X265916112Y-135865241D01*
X268072650Y-145924001D02*
X268026902Y-145941648D01*
X264156173Y-83616613D02*
X264265324Y-83552359D01*
X254596887Y-83994221D02*
X254626388Y-83995767D01*
X250940045Y-142793682D02*
X250947421Y-142782948D01*
X251940968Y-64504809D02*
X251989861Y-64501203D01*
X264765190Y-87834561D02*
X264746869Y-87817146D01*
X31325100Y-89709127D02*
X31315482Y-89835420D01*
X244790553Y-145050064D02*
X244789350Y-145001033D01*
X251115982Y-65116542D02*
X251135857Y-65071725D01*
X31192690Y-136028075D02*
X31214736Y-136071872D01*
X245406049Y-145924001D02*
X245361222Y-145904131D01*
X44620987Y-27556033D02*
X44592754Y-27596122D01*
X244931479Y-143485457D02*
X244957712Y-143444031D01*
X31192690Y-77028075D02*
X31214736Y-77071872D01*
X44620987Y-143443987D02*
X44647220Y-143485413D01*
X254587121Y-83993517D02*
X254596868Y-83994220D01*
X264652848Y-28732201D02*
X264633668Y-28715736D01*
X265672360Y-81316046D02*
X265674917Y-81290898D01*
X268670154Y-25804104D02*
X268678537Y-25852416D01*
X32464542Y-142364344D02*
X32484532Y-142379817D01*
X28927349Y-135576044D02*
X28973097Y-135558397D01*
X44789350Y-25999012D02*
X44789350Y-27001006D01*
X267836933Y-76510812D02*
X267885245Y-76519195D01*
X250973495Y-83741382D02*
X250976617Y-83735631D01*
X29309662Y-135500000D02*
X30311639Y-135500000D01*
X245690430Y-25004810D02*
X245739331Y-25001203D01*
X32865972Y-28371117D02*
X32843870Y-28383385D01*
X264652867Y-142267781D02*
X264746850Y-142182871D01*
X245361222Y-84095960D02*
X245406049Y-84076090D01*
X250600991Y-142995254D02*
X250630059Y-142990647D01*
X253379599Y-64529931D02*
X253426851Y-64543006D01*
X254652329Y-142996452D02*
X262682905Y-142999997D01*
X31758311Y-29424029D02*
X31694057Y-29533180D01*
X268026902Y-95441602D02*
X267980344Y-95456983D01*
X44730952Y-143662449D02*
X44746333Y-143709007D01*
X44530560Y-143328114D02*
X44562587Y-143365243D01*
X253136879Y-123500000D02*
X253185904Y-123501203D01*
X244819289Y-27243738D02*
X244808545Y-27195896D01*
X30982538Y-76758790D02*
X31018051Y-76792600D01*
X268203938Y-145857916D02*
X268161275Y-145882085D01*
X244832366Y-86290995D02*
X244819289Y-86243738D01*
X253967463Y-123943887D02*
X253993698Y-123985304D01*
X44080344Y-27957002D02*
X44033087Y-27970080D01*
X44424108Y-27773256D02*
X44385453Y-27803423D01*
X31841409Y-29296778D02*
X31771709Y-29402534D01*
X32042872Y-88036507D02*
X32026407Y-88055687D01*
X268547220Y-25485411D02*
X268571389Y-25528074D01*
X250818709Y-83911663D02*
X250842518Y-83894363D01*
X30601645Y-135543016D02*
X30648204Y-135558397D01*
X254234986Y-83790243D02*
X254240986Y-83797956D01*
X31855862Y-82724022D02*
X31930829Y-82826113D01*
X268688146Y-94550018D02*
X268684539Y-94598919D01*
X251050716Y-65352213D02*
X251059107Y-65303910D01*
X251157907Y-65027937D02*
X251182078Y-64985284D01*
X245451797Y-145941648D02*
X245406049Y-145924001D01*
X44770154Y-86195914D02*
X44759410Y-86243756D01*
X30458235Y-135510812D02*
X30506546Y-135519195D01*
X266541766Y-95489187D02*
X266493454Y-95480804D01*
X254139988Y-142509495D02*
X254141360Y-142535640D01*
X28507245Y-145596149D02*
X28479012Y-145556060D01*
X244847747Y-143662493D02*
X244865394Y-143616745D01*
X254587145Y-142993369D02*
X254600129Y-142994391D01*
X29163066Y-25010812D02*
X29211730Y-25004810D01*
X28406564Y-25571872D02*
X28428610Y-25528074D01*
X44713305Y-84616701D02*
X44730952Y-84662449D01*
X28369047Y-25662447D02*
X28386694Y-25616699D01*
X28796061Y-145857916D02*
X28754635Y-145831683D01*
X44647220Y-143485413D02*
X44671389Y-143528076D01*
X268684539Y-145098965D02*
X268678537Y-145147629D01*
X244808545Y-84804150D02*
X244819289Y-84756308D01*
X263719278Y-87182646D02*
X263599426Y-87141679D01*
X43936933Y-86989206D02*
X43888269Y-86995208D01*
X267836933Y-95489187D02*
X267788269Y-95495189D01*
X28321462Y-77352416D02*
X28329845Y-77304104D01*
X31291472Y-94695895D02*
X31280729Y-94743737D01*
X30866682Y-95331637D02*
X30825256Y-95357870D01*
X267690337Y-95500000D02*
X266688362Y-95500000D01*
X265672360Y-140316046D02*
X265674917Y-140290898D01*
X251031014Y-142565168D02*
X251032714Y-142552256D01*
X31310650Y-139993678D02*
X31310810Y-140006319D01*
X28315460Y-136401080D02*
X28321462Y-136352416D01*
X268593435Y-25571872D02*
X268613305Y-25616699D01*
X34146115Y-83995190D02*
X34171360Y-83996470D01*
X268547220Y-135985411D02*
X268571389Y-136028074D01*
X44033087Y-86970080D02*
X43985245Y-86980823D01*
X251115982Y-124116542D02*
X251135857Y-124071725D01*
X264872221Y-83057500D02*
X264957131Y-82963517D01*
X28369047Y-94837552D02*
X28353666Y-94790994D01*
X28973097Y-25058397D02*
X29019655Y-25043016D01*
X268630952Y-136162447D02*
X268646333Y-136209005D01*
X31343648Y-140441743D02*
X31347476Y-140466729D01*
X28321462Y-145147629D02*
X28315460Y-145098965D01*
X253807712Y-123758730D02*
X253843224Y-123792533D01*
X28603250Y-145707445D02*
X28569440Y-145671933D01*
X34146090Y-28004831D02*
X34019797Y-28014448D01*
X33571049Y-142907099D02*
X33694430Y-142935729D01*
X28321462Y-136352416D02*
X28329845Y-136304104D01*
X268361237Y-76758790D02*
X268396749Y-76792600D01*
X28311853Y-145050064D02*
X28310650Y-145001033D01*
X266639331Y-135501203D02*
X266688362Y-135500000D01*
X264286819Y-142538961D02*
X264392576Y-142469261D01*
X265241709Y-141575974D02*
X265305963Y-141466823D01*
X266688362Y-76500000D02*
X267690337Y-76500000D01*
X266351797Y-95441602D02*
X266306049Y-95423955D01*
X265672357Y-30683928D02*
X265656355Y-30558283D01*
X28310650Y-77499012D02*
X28311853Y-77449981D01*
X263156078Y-87036825D02*
X263131091Y-87032998D01*
X28321462Y-25852416D02*
X28329845Y-25804104D01*
X264134027Y-28371094D02*
X264021761Y-28312451D01*
X33546533Y-28099268D02*
X33424761Y-28134111D01*
X264021738Y-28312440D02*
X263999043Y-28301308D01*
X44784539Y-27098938D02*
X44778537Y-27147602D01*
X265318243Y-88555300D02*
X265305975Y-88533198D01*
X265158611Y-82703226D02*
X265228311Y-82597469D01*
X251748919Y-64543004D02*
X251796170Y-64529930D01*
X265440934Y-29805421D02*
X265388052Y-29690328D01*
X31694039Y-141466828D02*
X31758294Y-141575980D01*
X265981950Y-76792600D02*
X266017462Y-76758790D01*
X263305561Y-28064268D02*
X263280800Y-28059180D01*
X262828658Y-83996469D02*
X262853904Y-83995189D01*
X268430559Y-135828112D02*
X268462587Y-135865241D01*
X31493306Y-141029956D02*
X31502085Y-141053660D01*
X266688362Y-135500000D02*
X267690337Y-135500000D01*
X30738795Y-95404085D02*
X30693968Y-95423955D01*
X31051878Y-36171887D02*
X31018067Y-36207399D01*
X33843917Y-87036846D02*
X33719245Y-87059191D01*
X44080344Y-25043016D02*
X44126902Y-25058397D01*
X262980223Y-87014430D02*
X262853929Y-87004812D01*
X31314199Y-30860717D02*
X31310830Y-30993668D01*
X265241709Y-82575974D02*
X265305963Y-82466823D01*
X265916112Y-76865241D02*
X265948140Y-76828112D01*
X44033087Y-84029941D02*
X44080344Y-84043019D01*
X30458251Y-36489187D02*
X30409587Y-36495189D01*
X30311655Y-95500000D02*
X29309662Y-95500000D01*
X44261275Y-143117963D02*
X44303938Y-143142131D01*
X265305963Y-88533176D02*
X265241709Y-88424025D01*
X251443843Y-123696541D02*
X251483929Y-123668314D01*
X264652867Y-83267781D02*
X264746850Y-83182871D01*
X254139300Y-83483407D02*
X254139986Y-83509468D01*
X251405190Y-123726700D02*
X251443843Y-123696541D01*
X23322897Y-20000000D02*
X23311895Y-20000270D01*
X245274761Y-25142129D02*
X245317424Y-25117960D01*
X265376898Y-88667588D02*
X265318255Y-88555322D01*
X263156103Y-83963170D02*
X263280775Y-83940824D01*
X254240998Y-83797972D02*
X254259521Y-83820843D01*
X245193246Y-84196641D02*
X245233335Y-84168407D01*
X250762723Y-83945350D02*
X250771280Y-83940630D01*
X34316989Y-28000020D02*
X34304352Y-28000180D01*
X44778537Y-145147629D02*
X44770154Y-145195941D01*
X28927349Y-36423955D02*
X28882522Y-36404085D01*
X264413345Y-87545193D02*
X264392597Y-87530752D01*
X251005864Y-83669936D02*
X251008049Y-83663768D01*
X28927349Y-95423955D02*
X28882522Y-95404085D01*
X254519538Y-83981451D02*
X254551527Y-83988250D01*
X44778537Y-25852416D02*
X44784539Y-25901080D01*
X43790337Y-143000002D02*
X43839368Y-143001205D01*
X245081950Y-27707400D02*
X245048140Y-27671888D01*
X43790337Y-146000046D02*
X29309662Y-146000046D01*
X263999021Y-28301297D02*
X263883928Y-28248415D01*
X254150431Y-142600387D02*
X254152526Y-142609932D01*
X31310650Y-80993678D02*
X31310810Y-81006319D01*
X44784539Y-86098938D02*
X44778537Y-86147602D01*
X44693435Y-86428146D02*
X44671389Y-86471944D01*
X28754635Y-25168362D02*
X28796061Y-25142129D01*
X253939228Y-123903806D02*
X253967463Y-123943887D01*
X251989861Y-64501203D02*
X252038885Y-64500000D01*
X43985245Y-86980823D02*
X43936933Y-86989206D01*
X28754635Y-95331637D02*
X28714546Y-95303404D01*
X250998603Y-142688141D02*
X251002401Y-142679137D01*
X250963475Y-142758226D02*
X250968635Y-142749928D01*
X266493454Y-36480804D02*
X266445612Y-36470060D01*
X32042874Y-141963524D02*
X32127785Y-142057507D01*
X268324108Y-25226762D02*
X268361237Y-25258790D01*
X263883928Y-142751584D02*
X263999021Y-142698702D01*
X254277015Y-83840270D02*
X254295513Y-83858766D01*
X265916112Y-95134758D02*
X265885945Y-95096103D01*
X44620987Y-25443985D02*
X44647220Y-25485411D01*
X28329845Y-77304104D02*
X28340589Y-77256262D01*
X265625081Y-81616211D02*
X265630169Y-81591450D01*
X265506695Y-88970047D02*
X265497916Y-88946343D01*
X264265346Y-83552346D02*
X264286798Y-83538975D01*
X31559075Y-29805447D02*
X31549107Y-29828676D01*
X29260631Y-95498796D02*
X29211730Y-95495189D01*
X266639331Y-95498796D02*
X266590430Y-95495189D01*
X245193246Y-145803450D02*
X245154591Y-145773283D01*
X44303938Y-84142131D02*
X44345364Y-84168364D01*
X253731933Y-123696550D02*
X253770586Y-123726710D01*
X265376909Y-141332388D02*
X265388041Y-141309693D01*
X250796806Y-83925890D02*
X250807911Y-83919085D01*
X262853929Y-142995187D02*
X262980223Y-142985569D01*
X245593454Y-145980850D02*
X245545612Y-145970106D01*
X265228311Y-29402530D02*
X265158611Y-29296773D01*
X245641766Y-86989188D02*
X245593454Y-86980805D01*
X33000977Y-28301319D02*
X32978282Y-28312452D01*
X32145236Y-142075865D02*
X32234798Y-142165427D01*
X254510007Y-142979229D02*
X254519462Y-142981697D01*
X33719220Y-28059196D02*
X33694459Y-28064284D01*
X30738778Y-76595915D02*
X30782576Y-76617960D01*
X244847747Y-25662447D02*
X244865394Y-25616699D01*
X32026392Y-82944325D02*
X32042857Y-82963505D01*
X251157907Y-124027937D02*
X251182078Y-123985284D01*
X28353666Y-77209005D02*
X28369047Y-77162447D01*
X253331763Y-123519191D02*
X253379599Y-123529931D01*
X251656624Y-123576022D02*
X251702366Y-123558381D01*
X254268031Y-83830805D02*
X254276997Y-83840252D01*
X251182078Y-64985284D02*
X251208313Y-64943867D01*
X31234623Y-94883300D02*
X31214753Y-94928127D01*
X254403735Y-142937276D02*
X254412413Y-142941769D01*
X265590102Y-81764112D02*
X265596438Y-81739641D01*
X28479012Y-145556060D02*
X28452779Y-145514634D01*
X44345364Y-145831683D02*
X44303938Y-145857916D01*
X251266716Y-64865142D02*
X251298743Y-64828023D01*
X28386694Y-77116699D02*
X28406564Y-77071872D01*
X32366352Y-28715744D02*
X32347172Y-28732209D01*
X43790337Y-28000019D02*
X34317002Y-28000019D01*
X267933087Y-36470060D02*
X267885245Y-36480804D01*
X44530559Y-27671906D02*
X44496749Y-27707418D01*
X253731933Y-64696550D02*
X253770586Y-64726710D01*
X267739368Y-95498796D02*
X267690337Y-95500000D01*
X33424755Y-142865907D02*
X33546528Y-142900750D01*
X31114072Y-95096103D02*
X31083905Y-95134758D01*
X265765394Y-136116699D02*
X265785264Y-136071872D01*
X263131091Y-142967001D02*
X263156078Y-142963174D01*
X265388041Y-29690306D02*
X265376909Y-29667611D01*
X44424108Y-25226762D02*
X44461237Y-25258790D01*
X44424108Y-145773283D02*
X44385453Y-145803450D01*
X32026390Y-88055706D02*
X31946349Y-88153869D01*
X244865394Y-86383302D02*
X244847747Y-86337554D01*
X28369047Y-35837552D02*
X28353666Y-35790994D01*
X265652520Y-30533246D02*
X265630174Y-30408574D01*
X265747747Y-94837552D02*
X265732366Y-94790994D01*
X28310650Y-35500987D02*
X28310650Y-25999012D01*
X263599426Y-142858320D02*
X263719278Y-142817353D01*
X268117477Y-95404085D02*
X268072650Y-95423955D01*
X31142289Y-76943985D02*
X31168522Y-76985411D01*
X44713305Y-143616701D02*
X44730952Y-143662449D01*
X33424737Y-28134118D02*
X33400618Y-28141685D01*
X31681759Y-141444705D02*
X31694027Y-141466806D01*
X267739368Y-145998842D02*
X267690337Y-146000046D01*
X31369830Y-140591453D02*
X31374918Y-140616213D01*
X31549088Y-141171331D02*
X31559057Y-141194560D01*
X262980223Y-28014430D02*
X262853929Y-28004812D01*
X33280736Y-142817359D02*
X33400588Y-142858325D01*
X28603250Y-25292600D02*
X28638762Y-25258790D01*
X251892310Y-123510809D02*
X251940968Y-123504809D01*
X253939228Y-64903806D02*
X253967463Y-64943887D01*
X44789350Y-145001033D02*
X44788146Y-145050064D01*
X268492754Y-135903896D02*
X268520987Y-135943985D01*
X251059107Y-124303910D02*
X251069858Y-124256077D01*
X245451797Y-86941603D02*
X245406049Y-86923956D01*
X32347153Y-28732226D02*
X32253170Y-28817136D01*
X30825240Y-135642129D02*
X30866666Y-135668362D01*
X265388052Y-141309671D02*
X265440934Y-141194578D01*
X265689350Y-136499012D02*
X265690553Y-136449981D01*
X265630169Y-30408549D02*
X265625081Y-30383788D01*
X244800162Y-145147629D02*
X244794160Y-145098965D01*
X250898134Y-142843818D02*
X250907099Y-142834370D01*
X245788362Y-143000045D02*
X250522683Y-143000046D01*
X263599402Y-87141671D02*
X263575284Y-87134104D01*
X30738795Y-36404085D02*
X30693968Y-36423955D01*
X44126902Y-145941648D02*
X44080344Y-145957029D01*
X268462587Y-95134758D02*
X268430559Y-95171887D01*
X253563970Y-64595892D02*
X253607764Y-64617933D01*
X28507245Y-135903896D02*
X28537412Y-135865241D01*
X28428610Y-136028074D02*
X28452779Y-135985411D01*
X265318255Y-141444677D02*
X265376898Y-141332411D01*
X263156078Y-28036825D02*
X263131091Y-28032998D01*
X264286798Y-87461024D02*
X264265346Y-87447653D01*
X34019795Y-142985571D02*
X34146089Y-142995188D01*
X264633668Y-83284263D02*
X264652848Y-83267798D01*
X267739368Y-135501203D02*
X267788269Y-135504810D01*
X266174761Y-36357870D02*
X266133335Y-36331637D01*
X33843939Y-142963176D02*
X33868926Y-142967004D01*
X244847747Y-27337554D02*
X244832366Y-27290995D01*
X28973097Y-145941648D02*
X28927349Y-145924001D01*
X31168522Y-135985411D02*
X31192690Y-136028075D01*
X29066912Y-25029939D02*
X29114754Y-25019195D01*
X31291455Y-136304105D02*
X31299838Y-136352416D01*
X28479012Y-25443985D02*
X28507245Y-25403896D01*
X251940968Y-123504809D02*
X251989861Y-123501203D01*
X43888269Y-86995208D02*
X43839368Y-86998815D01*
X265652524Y-81466728D02*
X265656351Y-81441741D01*
X244847747Y-86337554D02*
X244832366Y-86290995D01*
X244790553Y-86050020D02*
X244789350Y-86000989D01*
X33843939Y-83963176D02*
X33868926Y-83967004D01*
X267980344Y-25043016D02*
X268026902Y-25058397D01*
X267788269Y-76504810D02*
X267836933Y-76510812D01*
X254448194Y-83957911D02*
X254475670Y-83968457D01*
X245154591Y-25226762D02*
X245193246Y-25196595D01*
X251098330Y-65162280D02*
X251115982Y-65116542D01*
X44759410Y-143756264D02*
X44770154Y-143804106D01*
X254142390Y-83548702D02*
X254144091Y-83561615D01*
X29309662Y-95500000D02*
X29260631Y-95498796D01*
X251021489Y-83616578D02*
X251024530Y-83603913D01*
X28311853Y-136449981D02*
X28315460Y-136401080D01*
X30554405Y-36470060D02*
X30506563Y-36480804D01*
X244794160Y-86098920D02*
X244790553Y-86050020D01*
X253993698Y-123985304D02*
X254017869Y-124027959D01*
X30693952Y-76576044D02*
X30738778Y-76595915D01*
X251892310Y-64510809D02*
X251940968Y-64504809D01*
X44693435Y-27428146D02*
X44671389Y-27471944D01*
X31771695Y-29402556D02*
X31758324Y-29424008D01*
X251026918Y-83591030D02*
X251031010Y-83565194D01*
X30648220Y-95441602D02*
X30601662Y-95456983D01*
X31327659Y-89683954D02*
X31325102Y-89709102D01*
X251026918Y-142591030D02*
X251031010Y-142565194D01*
X251266716Y-123865142D02*
X251298743Y-123828023D01*
X267739368Y-25001203D02*
X267788269Y-25004810D01*
X250522709Y-143000046D02*
X250548866Y-142999360D01*
X43839368Y-86998815D02*
X43790337Y-87000019D01*
X254421314Y-142945944D02*
X254448201Y-142957914D01*
X250821618Y-142910079D02*
X250829561Y-142904387D01*
X268689350Y-145001033D02*
X268688146Y-145050064D01*
X32586655Y-87545217D02*
X32484564Y-87620183D01*
X264973613Y-29055681D02*
X264957148Y-29036501D01*
X254500617Y-142976382D02*
X254509969Y-142979219D01*
X28796061Y-135642129D02*
X28838724Y-135617960D01*
X245154591Y-27773238D02*
X245117462Y-27741211D01*
X245498355Y-145957029D02*
X245451797Y-145941648D01*
X31374938Y-30383790D02*
X31369850Y-30408550D01*
X44172650Y-86923974D02*
X44126902Y-86941621D01*
X250588052Y-83996959D02*
X250600965Y-83995258D01*
X264535466Y-87635662D02*
X264515477Y-87620189D01*
X32978274Y-142687565D02*
X33000968Y-142698698D01*
X267933087Y-135529939D02*
X267980344Y-135543016D01*
X28315460Y-35598919D02*
X28311853Y-35550018D01*
X265305963Y-29533176D02*
X265241709Y-29424025D01*
X251568010Y-123617927D02*
X251611803Y-123595887D01*
X268678537Y-145147629D02*
X268670154Y-145195941D01*
X31502094Y-141053684D02*
X31549079Y-141171307D01*
X273689349Y-20012247D02*
X273689079Y-20001245D01*
X30601662Y-95456983D02*
X30554405Y-95470060D01*
X245739331Y-25001203D02*
X245788362Y-25000000D01*
X244832366Y-27290995D02*
X244819289Y-27243738D01*
X268646333Y-145291040D02*
X268630952Y-145337598D01*
X44530559Y-145671933D02*
X44496749Y-145707445D01*
X251483929Y-123668314D02*
X251525351Y-123642089D01*
X32026392Y-141944325D02*
X32042857Y-141963505D01*
X31343664Y-89558284D02*
X31327662Y-89683928D01*
X32042874Y-82963524D02*
X32127785Y-83057507D01*
X251044704Y-65400869D02*
X251050716Y-65352213D01*
X265450913Y-29828673D02*
X265440944Y-29805444D01*
X266398355Y-36456983D02*
X266351797Y-36441602D01*
X31611960Y-141309699D02*
X31623092Y-141332393D01*
X268646333Y-25709005D02*
X268659410Y-25756262D01*
X254295531Y-142858784D02*
X254304979Y-142867749D01*
X244885264Y-143571918D02*
X244907310Y-143528120D01*
X265053687Y-82846116D02*
X265069160Y-82826127D01*
X251013866Y-142645031D02*
X251021483Y-142616603D01*
X265656351Y-89558258D02*
X265652524Y-89533271D01*
X30945426Y-36273237D02*
X30906771Y-36303404D01*
X245451797Y-25058397D02*
X245498355Y-25043016D01*
X264765208Y-83165420D02*
X264854770Y-83075858D01*
X28369047Y-77162447D02*
X28386694Y-77116699D01*
X265440944Y-82194555D02*
X265450913Y-82171326D01*
X264633649Y-87715719D02*
X264535486Y-87635678D01*
X268678537Y-94647583D02*
X268670154Y-94695895D01*
X251005864Y-142669936D02*
X251008049Y-142663768D01*
X29163066Y-36489187D02*
X29114754Y-36480804D01*
X251483929Y-64668314D02*
X251525351Y-64642089D01*
X44461237Y-86741229D02*
X44424108Y-86773256D01*
X28927349Y-145924001D02*
X28882522Y-145904131D01*
X244957712Y-27556016D02*
X244931479Y-27514589D01*
X44592754Y-25403896D02*
X44620987Y-25443985D01*
X250649301Y-142986818D02*
X250655663Y-142985290D01*
X268117477Y-25095914D02*
X268161275Y-25117960D01*
X268072650Y-76576044D02*
X268117477Y-76595914D01*
X245641766Y-27989188D02*
X245593454Y-27980805D01*
X264973630Y-141944299D02*
X265053671Y-141846136D01*
X273689350Y-150987773D02*
X273689350Y-20012272D01*
X32234812Y-87834586D02*
X32145250Y-87924148D01*
X43839368Y-143001205D02*
X43888269Y-143004812D01*
X244847747Y-84662493D02*
X244865394Y-84616745D01*
X32865972Y-87371117D02*
X32843870Y-87383385D01*
X250870155Y-142871318D02*
X250879602Y-142862352D01*
X251002416Y-83679100D02*
X251005858Y-83669954D01*
X28973097Y-76558397D02*
X29019655Y-76543016D01*
X265656355Y-140441716D02*
X265672357Y-140316071D01*
X244794160Y-27098920D02*
X244790553Y-27050020D01*
X245498355Y-84043062D02*
X245545613Y-84029984D01*
X268430559Y-95171887D02*
X268396749Y-95207399D01*
X33694455Y-142935735D02*
X33719216Y-142940823D01*
X265596438Y-89260358D02*
X265590102Y-89235887D01*
X253807712Y-64758730D02*
X253843224Y-64792533D01*
X31142305Y-36056014D02*
X31114072Y-36096103D01*
X244832366Y-25709005D02*
X244847747Y-25662447D01*
X264746869Y-142182853D02*
X264765190Y-142165438D01*
X254144095Y-142561641D02*
X254148702Y-142590709D01*
X31452330Y-140910080D02*
X31493297Y-141029932D01*
X34304352Y-83999839D02*
X34316989Y-83999999D01*
X266217424Y-36382039D02*
X266174761Y-36357870D01*
X245233335Y-25168362D02*
X245274761Y-25142129D01*
X244794160Y-143901126D02*
X244800162Y-143852462D01*
X44620987Y-145556060D02*
X44592754Y-145596149D01*
X33257007Y-142808571D02*
X33280712Y-142817350D01*
X245048140Y-86671888D02*
X245016112Y-86634760D01*
X34146090Y-87004831D02*
X34019797Y-87014448D01*
X28838724Y-135617960D02*
X28882522Y-135595914D01*
X265694160Y-136401080D02*
X265700162Y-136352416D01*
X31299838Y-77352416D02*
X31305840Y-77401081D01*
X265674919Y-140290873D02*
X265684537Y-140164579D01*
X28882522Y-25095914D02*
X28927349Y-25076044D01*
X30866682Y-36331637D02*
X30825256Y-36357870D01*
X44592754Y-27596122D02*
X44562587Y-27634777D01*
X32366359Y-83284287D02*
X32464522Y-83364328D01*
X28882522Y-76595914D02*
X28927349Y-76576044D01*
X28675891Y-95273237D02*
X28638762Y-95241209D01*
X266261222Y-95404085D02*
X266217424Y-95382039D01*
X265831479Y-76985411D02*
X265857712Y-76943985D01*
X28537412Y-76865241D02*
X28569440Y-76828112D01*
X44033087Y-143029941D02*
X44080344Y-143043019D01*
X254381123Y-142924125D02*
X254389421Y-142929285D01*
X44784539Y-145098965D02*
X44778537Y-145147629D01*
X33000991Y-83698709D02*
X33116084Y-83751590D01*
X263883905Y-28248405D02*
X263860676Y-28238436D01*
X254401003Y-83935403D02*
X254424310Y-83947278D01*
X31327642Y-140316073D02*
X31343644Y-140441718D01*
X33400594Y-87141693D02*
X33280743Y-87182659D01*
X253473405Y-64558383D02*
X253519148Y-64576026D01*
X31549097Y-88828700D02*
X31502113Y-88946322D01*
X268571389Y-77028074D02*
X268593435Y-77071872D01*
X263131091Y-83967001D02*
X263156078Y-83963174D01*
X43839368Y-84001205D02*
X43888269Y-84004812D01*
X253234798Y-123504809D02*
X253283457Y-123510810D01*
X268161275Y-36382039D02*
X268117477Y-36404085D01*
X31192707Y-94971925D02*
X31168538Y-95014588D01*
X265144142Y-88275984D02*
X265069175Y-88173893D01*
X265708545Y-35695895D02*
X265700162Y-35647583D01*
X28452779Y-25485411D02*
X28479012Y-25443985D01*
X263883905Y-87248405D02*
X263860676Y-87238436D01*
X265684537Y-89835420D02*
X265674919Y-89709126D01*
X245451797Y-84058443D02*
X245498355Y-84043062D01*
X31267634Y-136209006D02*
X31280712Y-136256263D01*
X265450922Y-82171303D02*
X265497907Y-82053680D01*
X266351797Y-76558397D02*
X266398355Y-76543016D01*
X28479012Y-36056014D02*
X28452779Y-36014588D01*
X31403575Y-89260384D02*
X31374943Y-89383765D01*
X245317424Y-145882085D02*
X245274761Y-145857916D01*
X44746333Y-86291013D02*
X44730952Y-86337572D01*
X28340589Y-94743737D02*
X28329845Y-94695895D01*
X268678537Y-35647583D02*
X268670154Y-35695895D01*
X263453462Y-28099247D02*
X263428991Y-28092911D01*
X250690227Y-83975226D02*
X250702504Y-83970878D01*
X264515477Y-83379810D02*
X264535466Y-83364337D01*
X250702528Y-83970869D02*
X250730004Y-83960320D01*
X32484544Y-28620198D02*
X32464555Y-28635671D01*
X265689189Y-140006319D02*
X265689349Y-139993678D01*
X28973097Y-95441602D02*
X28927349Y-95423955D01*
X28386694Y-94883300D02*
X28369047Y-94837552D01*
X31327659Y-30683954D02*
X31325102Y-30709102D01*
X254389534Y-83929177D02*
X254400980Y-83935391D01*
X251013866Y-83645031D02*
X251021483Y-83616603D01*
X28353666Y-145291040D02*
X28340589Y-145243783D01*
X263575259Y-87134097D02*
X263453487Y-87099253D01*
X265506703Y-82029928D02*
X265547670Y-81910076D01*
X254152531Y-142609951D02*
X254154059Y-142616313D01*
X32713212Y-142538981D02*
X32734664Y-142552353D01*
X268072650Y-95423955D02*
X268026902Y-95441602D01*
X28714546Y-36303404D02*
X28675891Y-36273237D01*
X254259537Y-142820863D02*
X254267996Y-142830766D01*
X31855862Y-141724022D02*
X31930829Y-141826113D01*
X28675891Y-145773283D02*
X28638762Y-145741255D01*
X254626414Y-142995768D02*
X254652303Y-142996452D01*
X265144156Y-82723995D02*
X265158597Y-82703247D01*
X254314942Y-142876259D02*
X254335271Y-142892720D01*
X265685819Y-30860691D02*
X265684539Y-30835445D01*
X250947436Y-83782926D02*
X250963464Y-83758243D01*
X245406049Y-84076090D02*
X245451797Y-84058443D01*
X44461237Y-84258792D02*
X44496749Y-84292602D01*
X268361237Y-95241209D02*
X268324108Y-95273237D01*
X244885264Y-25571872D02*
X244907310Y-25528074D01*
X30648220Y-36441602D02*
X30601662Y-36456983D01*
X266351797Y-36441602D02*
X266306049Y-36423955D01*
X44562587Y-145634804D02*
X44530559Y-145671933D01*
X31083905Y-95134758D02*
X31051878Y-95171887D01*
X254345667Y-142900695D02*
X254356401Y-142908071D01*
X245690430Y-145995235D02*
X245641766Y-145989233D01*
X32978260Y-28312463D02*
X32865994Y-28371105D01*
X44033087Y-25029939D02*
X44080344Y-25043016D01*
X31452342Y-30089949D02*
X31444774Y-30114068D01*
X29260631Y-25001203D02*
X29309662Y-25000000D01*
X263743030Y-142808557D02*
X263860653Y-142761572D01*
X32978274Y-83687565D02*
X33000968Y-83698698D01*
X268520987Y-36056014D02*
X268492754Y-36096103D01*
X267885245Y-95480804D02*
X267836933Y-95489187D01*
X254150431Y-83600387D02*
X254152526Y-83609932D01*
X244790553Y-27050020D02*
X244789350Y-27000989D01*
X44172650Y-84076046D02*
X44217477Y-84095917D01*
X253993698Y-64985304D02*
X254017869Y-65027959D01*
X44784539Y-143901082D02*
X44788146Y-143949983D01*
X244790553Y-84950027D02*
X244794160Y-84901126D01*
X250976626Y-142735614D02*
X250981119Y-142726936D01*
X262980248Y-142985567D02*
X263005396Y-142983010D01*
X31315480Y-30835446D02*
X31314200Y-30860691D01*
X44303938Y-25142129D02*
X44345364Y-25168362D01*
X268571389Y-136028074D02*
X268593435Y-136071872D01*
X253473405Y-123558383D02*
X253519148Y-123576026D01*
X245498355Y-86956984D02*
X245451797Y-86941603D01*
X244819289Y-86243738D02*
X244808545Y-86195896D01*
X28838724Y-36382039D02*
X28796061Y-36357870D01*
X31192707Y-35971925D02*
X31168538Y-36014588D01*
X253426851Y-64543006D02*
X253473405Y-64558383D01*
X31114055Y-135903896D02*
X31142289Y-135943985D01*
X253770586Y-123726710D02*
X253807712Y-123758730D01*
X28353666Y-94790994D02*
X28340589Y-94743737D01*
X31214736Y-136071872D02*
X31234606Y-136116699D01*
X265689350Y-94500987D02*
X265689350Y-90006333D01*
X28569440Y-145671933D02*
X28537412Y-145634804D01*
X268462587Y-25365241D02*
X268492754Y-25403896D01*
X268492754Y-145596149D02*
X268462587Y-145634804D01*
X43936933Y-145989233D02*
X43888269Y-145995235D01*
X245361222Y-27904086D02*
X245317424Y-27882040D01*
X33571049Y-83907099D02*
X33694430Y-83935729D01*
X244985945Y-84403942D02*
X245016112Y-84365287D01*
X44080344Y-145957029D02*
X44033087Y-145970106D01*
X254017869Y-65027959D02*
X254039918Y-65071749D01*
X266639331Y-76501203D02*
X266688362Y-76500000D01*
X265689189Y-89993668D02*
X265685820Y-89860716D01*
X44172650Y-143076046D02*
X44217477Y-143095917D01*
X30866666Y-135668362D02*
X30906754Y-135696596D01*
X264286819Y-83538961D02*
X264392576Y-83469261D01*
X268161275Y-145882085D02*
X268117477Y-145904131D01*
X264957148Y-82963498D02*
X264973613Y-82944318D01*
X28452779Y-95014588D02*
X28428610Y-94971925D01*
X266398355Y-76543016D02*
X266445612Y-76529939D01*
X30738778Y-135595915D02*
X30782576Y-135617960D01*
X31325082Y-140290899D02*
X31327639Y-140316048D01*
X28329845Y-145195941D02*
X28321462Y-145147629D01*
X31018051Y-76792600D02*
X31051861Y-76828112D01*
X29114754Y-95480804D02*
X29066912Y-95470060D01*
X28569440Y-25328112D02*
X28603250Y-25292600D01*
X265228325Y-141597448D02*
X265241696Y-141575996D01*
X254172716Y-142675586D02*
X254176279Y-142684685D01*
X33546553Y-142900757D02*
X33571024Y-142907093D01*
X254535447Y-142985335D02*
X254545067Y-142987053D01*
X245016112Y-27634760D02*
X244985945Y-27596104D01*
X31611960Y-82309699D02*
X31623092Y-82332393D01*
X254156542Y-83625826D02*
X254159380Y-83635177D01*
X254305018Y-83867784D02*
X254314922Y-83876242D01*
X265807310Y-77028074D02*
X265831479Y-76985411D01*
X28638762Y-25258790D02*
X28675891Y-25226762D01*
X268593435Y-145428173D02*
X268571389Y-145471971D01*
X44385453Y-25196595D02*
X44424108Y-25226762D01*
X244794160Y-25901080D02*
X244800162Y-25852416D01*
X251011147Y-83654438D02*
X251013861Y-83645050D01*
X265590102Y-140764112D02*
X265596438Y-140739641D01*
X245154591Y-143226808D02*
X245193246Y-143196641D01*
X264413365Y-142454792D02*
X264515456Y-142379825D01*
X268670154Y-145195941D02*
X268659410Y-145243783D01*
X28310650Y-94500987D02*
X28310650Y-77499012D01*
X254314942Y-83876259D02*
X254335271Y-83892720D01*
X254215092Y-83760285D02*
X254220144Y-83768650D01*
X245451797Y-143058443D02*
X245498355Y-143043062D01*
X251656624Y-64576022D02*
X251702366Y-64558381D01*
X44759410Y-84756264D02*
X44770154Y-84804106D01*
X44033087Y-145970106D02*
X43985245Y-145980850D01*
X268072650Y-135576044D02*
X268117477Y-135595914D01*
X250655682Y-142985285D02*
X250665138Y-142982817D01*
X265318255Y-82444677D02*
X265376898Y-82332411D01*
X263999043Y-83698691D02*
X264021738Y-83687559D01*
X29309662Y-36500000D02*
X29260631Y-36498796D01*
X31315480Y-89835446D02*
X31314200Y-89860691D01*
X263999043Y-142698691D02*
X264021738Y-142687559D01*
X265732366Y-77209005D02*
X265747747Y-77162447D01*
X268571389Y-25528074D02*
X268593435Y-25571872D01*
X28754635Y-36331637D02*
X28714546Y-36303404D01*
X254225552Y-142776860D02*
X254229259Y-142782252D01*
X266174761Y-135642129D02*
X266217424Y-135617960D01*
X265694160Y-94598919D02*
X265690553Y-94550018D01*
X44778537Y-27147602D02*
X44770154Y-27195914D01*
X245016112Y-86634760D02*
X244985945Y-86596104D01*
X28754635Y-135668362D02*
X28796061Y-135642129D01*
X250762663Y-142945212D02*
X250774108Y-142938997D01*
X265630174Y-140591425D02*
X265652520Y-140466753D01*
X254215092Y-142760285D02*
X254220144Y-142768650D01*
X44261275Y-84117963D02*
X44303938Y-84142131D01*
X245641766Y-25010812D02*
X245690430Y-25004810D01*
X31374938Y-89383790D02*
X31369850Y-89408550D01*
X268646333Y-35790994D02*
X268630952Y-35837552D01*
X254193999Y-142723373D02*
X254198719Y-142731930D01*
X250915609Y-142824407D02*
X250932070Y-142804078D01*
X245233335Y-143168407D02*
X245274761Y-143142175D01*
X267836933Y-36489187D02*
X267788269Y-36495189D01*
X268026902Y-25058397D02*
X268072650Y-25076044D01*
X31315462Y-140164580D02*
X31325080Y-140290874D01*
X44788146Y-25949981D02*
X44789350Y-25999012D01*
X268285453Y-76696595D02*
X268324108Y-76726762D01*
X44562587Y-27634777D02*
X44530559Y-27671906D01*
X33868929Y-87033015D02*
X33843942Y-87036842D01*
X268245364Y-95331637D02*
X268203938Y-95357870D01*
X30311639Y-135500000D02*
X30360670Y-135501203D01*
X254116663Y-65303942D02*
X254125053Y-65352246D01*
X44126903Y-84058399D02*
X44172650Y-84076046D01*
X44746333Y-84709007D02*
X44759410Y-84756264D01*
X266445612Y-36470060D02*
X266398355Y-36456983D01*
X244808545Y-25804104D02*
X244819289Y-25756262D01*
X251069858Y-65256077D02*
X251082943Y-65208829D01*
X28329845Y-25804104D02*
X28340589Y-25756262D01*
X266133335Y-36331637D02*
X266093246Y-36303404D01*
X43936933Y-25010812D02*
X43985245Y-25019195D01*
X250981137Y-83726901D02*
X250985286Y-83718053D01*
X245690431Y-143004856D02*
X245739331Y-143001249D01*
X33546553Y-83900757D02*
X33571024Y-83907093D01*
X245317424Y-27882040D02*
X245274761Y-27857872D01*
X265719289Y-35743737D02*
X265708545Y-35695895D01*
X267885245Y-145980850D02*
X267836933Y-145989233D01*
X31841409Y-88296778D02*
X31771709Y-88402534D01*
X268646333Y-136209005D02*
X268659410Y-136256262D01*
X245154591Y-84226808D02*
X245193246Y-84196641D01*
X254412448Y-142941787D02*
X254421296Y-142945936D01*
X254600155Y-142994393D02*
X254626388Y-142995767D01*
X44080344Y-84043019D02*
X44126903Y-84058399D01*
X266133335Y-135668362D02*
X266174761Y-135642129D01*
X245193246Y-143196641D02*
X245233335Y-143168407D01*
X29260631Y-36498796D02*
X29211730Y-36495189D01*
X263599402Y-28141671D02*
X263575284Y-28134104D01*
X254335292Y-142892736D02*
X254345625Y-142900664D01*
X262853904Y-28004810D02*
X262828658Y-28003530D01*
X28537412Y-135865241D02*
X28569440Y-135828112D01*
X265694160Y-35598919D02*
X265690553Y-35550018D01*
X263005421Y-83983007D02*
X263131066Y-83967005D01*
X266306049Y-76576044D02*
X266351797Y-76558397D01*
X31234606Y-77116699D02*
X31252253Y-77162447D01*
X28452779Y-76985411D02*
X28479012Y-76943985D01*
X267933087Y-95470060D02*
X267885245Y-95480804D01*
X268613305Y-94883300D02*
X268593435Y-94928127D01*
X251039873Y-124498786D02*
X251041087Y-124449762D01*
X268492754Y-36096103D02*
X268462587Y-36134758D01*
X32843860Y-142616632D02*
X32865962Y-142628899D01*
X31343664Y-30558284D02*
X31327662Y-30683928D01*
X268361237Y-25258790D02*
X268396749Y-25292600D01*
X28638762Y-145741255D02*
X28603250Y-145707445D01*
X28569440Y-36171887D02*
X28537412Y-36134758D01*
X29260631Y-135501203D02*
X29309662Y-135500000D01*
X44385453Y-27803423D02*
X44345364Y-27831657D01*
X265672357Y-89683928D02*
X265656355Y-89558283D01*
X254220165Y-142768683D02*
X254225541Y-142776844D01*
X264765208Y-142165420D02*
X264854770Y-142075858D01*
X250630078Y-142990644D02*
X250639698Y-142988925D01*
X265656355Y-81441716D02*
X265672357Y-81316071D01*
X245406049Y-25076044D02*
X245451797Y-25058397D01*
X245361222Y-143095960D02*
X245406049Y-143076090D01*
X265630169Y-89408549D02*
X265625081Y-89383788D01*
X266493454Y-95480804D02*
X266445612Y-95470060D01*
X23310650Y-20012272D02*
X23310650Y-150987773D01*
X250575016Y-142997987D02*
X250588000Y-142996964D01*
X265981950Y-36207399D02*
X265948140Y-36171887D01*
X254188184Y-142711633D02*
X254189592Y-142714585D01*
X33571029Y-87092926D02*
X33546558Y-87099262D01*
X265719289Y-77256262D02*
X265732366Y-77209005D01*
X244931479Y-84485457D02*
X244957712Y-84444031D01*
X31252270Y-35837553D02*
X31234623Y-35883300D01*
X28353666Y-25709005D02*
X28369047Y-25662447D01*
X31168538Y-95014588D02*
X31142305Y-95056014D01*
X267739368Y-76501203D02*
X267788269Y-76504810D01*
X268659410Y-136256262D02*
X268670154Y-136304104D01*
X266688362Y-36500000D02*
X266639331Y-36498796D01*
X31310651Y-77499012D02*
X31310650Y-80993665D01*
X44770154Y-143804106D02*
X44778537Y-143852418D01*
X28796061Y-36357870D02*
X28754635Y-36331637D01*
X33116107Y-83751600D02*
X33139337Y-83761568D01*
X254092830Y-65208858D02*
X254105913Y-65256107D01*
X265228311Y-88402530D02*
X265158611Y-88296773D01*
X43790337Y-25000000D02*
X43839368Y-25001203D01*
X251989861Y-123501203D02*
X252038885Y-123500000D01*
X264134049Y-83628893D02*
X264156151Y-83616625D01*
X32586664Y-83454813D02*
X32607412Y-83469254D01*
X28406564Y-35928127D02*
X28386694Y-35883300D01*
X254148705Y-83590728D02*
X254150424Y-83600348D01*
X266445612Y-76529939D02*
X266493454Y-76519195D01*
X254135891Y-65498822D02*
X254139300Y-83483380D01*
X32127802Y-83057526D02*
X32145218Y-83075847D01*
X44496749Y-86707418D02*
X44461237Y-86741229D01*
X44730952Y-86337572D02*
X44713305Y-86383319D01*
X28973097Y-135558397D02*
X29019655Y-135543016D01*
X254234986Y-142790243D02*
X254240986Y-142797956D01*
X250674546Y-142979963D02*
X250702535Y-142970867D01*
X43790337Y-87000019D02*
X34317002Y-87000019D01*
X267933087Y-25029939D02*
X267980344Y-25043016D01*
X31549097Y-29828700D02*
X31502113Y-29946322D01*
X268593435Y-136071872D02*
X268613305Y-136116699D01*
X264392576Y-28530738D02*
X264286819Y-28461038D01*
X33116092Y-28248428D02*
X33001000Y-28301308D01*
X28329845Y-136304104D02*
X28340589Y-136256262D01*
X43936933Y-27989206D02*
X43888269Y-27995208D01*
X253843224Y-123792533D02*
X253877033Y-123828038D01*
X253691847Y-123668322D02*
X253731933Y-123696550D01*
X29163066Y-95489187D02*
X29114754Y-95480804D01*
X31403561Y-81739644D02*
X31409897Y-81764115D01*
X245739331Y-84001249D02*
X245788362Y-84000045D01*
X266054591Y-36273237D02*
X266017462Y-36241209D01*
X244931479Y-86514589D02*
X244907310Y-86471926D01*
X30506546Y-135519195D02*
X30554388Y-135529939D01*
X268688146Y-25949981D02*
X268689350Y-25999012D01*
X28569440Y-135828112D02*
X28603250Y-135792600D01*
X251298743Y-123828023D02*
X251332553Y-123792520D01*
X268593435Y-77071872D02*
X268613305Y-77116699D01*
X250947436Y-142782926D02*
X250963464Y-142758243D01*
X34019772Y-28014450D02*
X33994623Y-28017007D01*
X44303938Y-145857916D02*
X44261275Y-145882085D01*
X264957131Y-29036482D02*
X264872221Y-28942499D01*
X245233335Y-27831639D02*
X245193246Y-27803405D01*
X32843848Y-28383397D02*
X32734696Y-28447650D01*
X31623104Y-141332416D02*
X31681747Y-141444682D01*
X254135891Y-124498822D02*
X254139300Y-142483380D01*
X254139988Y-83509495D02*
X254141360Y-83535640D01*
X44424108Y-84226764D02*
X44461237Y-84258792D01*
X32366352Y-87715744D02*
X32347172Y-87732209D01*
X265700162Y-94647583D02*
X265694160Y-94598919D01*
X265158597Y-29296752D02*
X265144156Y-29276004D01*
X254225552Y-83776860D02*
X254229259Y-83782252D01*
X268430559Y-76828112D02*
X268462587Y-76865241D01*
X262682918Y-83999997D02*
X262695779Y-83999836D01*
X33868951Y-142967008D02*
X33994596Y-142983009D01*
X265948140Y-36171887D02*
X265916112Y-36134758D01*
X28569440Y-76828112D02*
X28603250Y-76792600D01*
X265685819Y-89860691D02*
X265684539Y-89835445D01*
X245739331Y-145998842D02*
X245690430Y-145995235D01*
X265318243Y-29555300D02*
X265305975Y-29533198D01*
X251033743Y-83539194D02*
X251035114Y-83513015D01*
X30945426Y-95273237D02*
X30906771Y-95303404D01*
X251611803Y-123595887D02*
X251656624Y-123576022D01*
X253234798Y-64504809D02*
X253283457Y-64510810D01*
X44788146Y-86050037D02*
X44784539Y-86098938D01*
X253607764Y-123617933D02*
X253650424Y-123642095D01*
X265700162Y-35647583D02*
X265694160Y-35598919D01*
X250963475Y-83758226D02*
X250968635Y-83749928D01*
X28311853Y-25949981D02*
X28315460Y-25901080D01*
X268659410Y-25756262D02*
X268670154Y-25804104D01*
X265685820Y-140139283D02*
X265689189Y-140006331D01*
X268245364Y-135668362D02*
X268285453Y-135696595D01*
X268026902Y-135558397D02*
X268072650Y-135576044D01*
X28329845Y-94695895D02*
X28321462Y-94647583D01*
X250816210Y-142913797D02*
X250821602Y-142910090D01*
X32026390Y-29055706D02*
X31946349Y-29153869D01*
X32734686Y-142552366D02*
X32843838Y-142616619D01*
X44713305Y-27383319D02*
X44693435Y-27428146D01*
X44778537Y-86147602D02*
X44770154Y-86195914D01*
X254059792Y-124116568D02*
X254077443Y-124162307D01*
X244931479Y-27514589D02*
X244907310Y-27471926D01*
X250639737Y-142988918D02*
X250649282Y-142986823D01*
X44217477Y-84095917D02*
X44261275Y-84117963D01*
X250860213Y-142879812D02*
X250870116Y-142871353D01*
X244794160Y-84901126D02*
X244800162Y-84852462D01*
X245451797Y-27941603D02*
X245406049Y-27923956D01*
X245739331Y-27998797D02*
X245690430Y-27995190D01*
X31280729Y-35743737D02*
X31267651Y-35790994D01*
X44693435Y-84571874D02*
X44713305Y-84616701D01*
X268430559Y-36171887D02*
X268396749Y-36207399D01*
X28406564Y-136071872D02*
X28428610Y-136028074D01*
X265684539Y-140164554D02*
X265685819Y-140139308D01*
X245274761Y-84142175D02*
X245317424Y-84118006D01*
X265684537Y-30835420D02*
X265674919Y-30709126D01*
X254188505Y-83711511D02*
X254194113Y-83723266D01*
X33694434Y-87064289D02*
X33571054Y-87092920D01*
X268245364Y-145831683D02*
X268203938Y-145857916D01*
X250985294Y-83718035D02*
X250998595Y-83688159D01*
X264156151Y-28383374D02*
X264134049Y-28371106D01*
X250588052Y-142996959D02*
X250600965Y-142995258D01*
X254168491Y-83663210D02*
X254172839Y-83675487D01*
X244800162Y-143852462D02*
X244808545Y-143804150D01*
X265596438Y-30260358D02*
X265590102Y-30235887D01*
X251024540Y-142603862D02*
X251026914Y-142591056D01*
X28796061Y-95357870D02*
X28754635Y-95331637D01*
X254577370Y-83992429D02*
X254587082Y-83993514D01*
X268520987Y-25443985D02*
X268547220Y-25485411D01*
X254134678Y-124449798D02*
X254135891Y-124498822D01*
X245117462Y-86741211D02*
X245081950Y-86707400D01*
X268688146Y-145050064D02*
X268684539Y-145098965D01*
X266493454Y-135519195D02*
X266541766Y-135510812D01*
X265690553Y-77449981D02*
X265694160Y-77401080D01*
X244985945Y-145596149D02*
X244957712Y-145556060D01*
X31841406Y-82703254D02*
X31855847Y-82724001D01*
X268678537Y-136352416D02*
X268684539Y-136401080D01*
X266093246Y-36303404D02*
X266054591Y-36273237D01*
X251208313Y-64943867D02*
X251236548Y-64903788D01*
X28714546Y-145803450D02*
X28675891Y-145773283D01*
X44789350Y-86001006D02*
X44788146Y-86050037D01*
X31611967Y-29690332D02*
X31559086Y-29805424D01*
X44647220Y-145514634D02*
X44620987Y-145556060D01*
X31946333Y-141846142D02*
X32026375Y-141944306D01*
X29211730Y-145995235D02*
X29163066Y-145989233D01*
X251236548Y-123903788D02*
X251266716Y-123865142D01*
X44172650Y-145924001D02*
X44126902Y-145941648D01*
X44496749Y-84292602D02*
X44530560Y-84328114D01*
X23322922Y-151000046D02*
X273677077Y-151000046D01*
X44496749Y-27707418D02*
X44461237Y-27741229D01*
X28369047Y-145337598D02*
X28353666Y-145291040D01*
X28838724Y-145882085D02*
X28796061Y-145857916D01*
X245048140Y-145671933D02*
X245016112Y-145634804D01*
X33256991Y-28191456D02*
X33139368Y-28238439D01*
X251050716Y-124352213D02*
X251059107Y-124303910D01*
X44261275Y-25117960D02*
X44303938Y-25142129D01*
X266590430Y-95495189D02*
X266541766Y-95489187D01*
X30825256Y-95357870D02*
X30782593Y-95382039D01*
X29066912Y-145970106D02*
X29019655Y-145957029D01*
X244789350Y-84999058D02*
X244790553Y-84950027D01*
X250877306Y-83864648D02*
X250898116Y-83843836D01*
X268613305Y-25616699D02*
X268630952Y-25662447D01*
X264392597Y-142469247D02*
X264413345Y-142454806D01*
X28479012Y-76943985D02*
X28507245Y-76903896D01*
X273677102Y-151000045D02*
X273688104Y-150999775D01*
X29066912Y-135529939D02*
X29114754Y-135519195D01*
X31502104Y-88946346D02*
X31493324Y-88970050D01*
X28569440Y-95171887D02*
X28537412Y-95134758D01*
X265857712Y-95056014D02*
X265831479Y-95014588D01*
X264765190Y-28834561D02*
X264746869Y-28817146D01*
X251611803Y-64595887D02*
X251656624Y-64576022D01*
X32865984Y-83628911D02*
X32978251Y-83687554D01*
X29309662Y-146000046D02*
X29260631Y-145998842D01*
X31369845Y-89408575D02*
X31347500Y-89533248D01*
M02*
