%TF.GenerationSoftware,KiCad,Pcbnew,8.0.2+dfsg-1*%
%TF.CreationDate,2024-06-08T19:17:03+01:00*%
%TF.ProjectId,owl-driver-board,6f776c2d-6472-4697-9665-722d626f6172,rev?*%
%TF.SameCoordinates,Original*%
%TF.FileFunction,Drillmap*%
%TF.FilePolarity,Positive*%
%FSLAX45Y45*%
G04 Gerber Fmt 4.5, Leading zero omitted, Abs format (unit mm)*
G04 Created by KiCad (PCBNEW 8.0.2+dfsg-1) date 2024-06-08 19:17:03*
%MOMM*%
%LPD*%
G01*
G04 APERTURE LIST*
%ADD10C,0.150000*%
%ADD11C,0.200000*%
%ADD12C,0.275000*%
G04 APERTURE END LIST*
D10*
X300000Y-5650000D02*
G75*
G02*
X0Y-5350000I0J300000D01*
G01*
X6500000Y-5350000D02*
G75*
G02*
X6200000Y-5650000I-300000J0D01*
G01*
X100000Y-2000000D02*
G75*
G02*
X0Y-1900000I0J100000D01*
G01*
X400000Y-2000000D02*
G75*
G02*
X500000Y-2100000I0J-100000D01*
G01*
X500000Y-3600000D02*
G75*
G02*
X400000Y-3700000I-100000J0D01*
G01*
X0Y-3800000D02*
G75*
G02*
X100000Y-3700000I100000J0D01*
G01*
X0Y-300000D02*
G75*
G02*
X300000Y-50000I300000J-55000D01*
G01*
X300000Y-50000D02*
X6200000Y-50000D01*
X6200000Y-50000D02*
G75*
G02*
X6500000Y-350000I0J-300000D01*
G01*
X6500000Y-350000D02*
X6500000Y-5350000D01*
X5034645Y-5600000D02*
G75*
G02*
X4984645Y-5650005I-50005J0D01*
G01*
X5344645Y-3750000D02*
X5345000Y-5599645D01*
X300000Y-5650000D02*
X4984645Y-5650000D01*
X100000Y-3700000D02*
X400000Y-3700000D01*
X0Y-300000D02*
X0Y-1900000D01*
X5395000Y-5649645D02*
G75*
G02*
X5344995Y-5599645I0J50005D01*
G01*
X5035000Y-3750000D02*
X5034645Y-5600000D01*
X5035000Y-3750000D02*
G75*
G02*
X5085000Y-3700000I50000J0D01*
G01*
X500000Y-2100000D02*
X500000Y-3600000D01*
X0Y-3800000D02*
X0Y-5350000D01*
X100000Y-2000000D02*
X400000Y-2000000D01*
X5294645Y-3700000D02*
G75*
G02*
X5344640Y-3750000I-5J-50000D01*
G01*
X5395000Y-5649645D02*
X6200000Y-5650000D01*
X5294645Y-3700000D02*
X5085000Y-3700000D01*
D11*
D12*
X212500Y-262500D02*
X487500Y-537500D01*
X487500Y-262500D02*
X212500Y-537500D01*
X212500Y-5162500D02*
X487500Y-5437500D01*
X487500Y-5162500D02*
X212500Y-5437500D01*
X6012500Y-262500D02*
X6287500Y-537500D01*
X6287500Y-262500D02*
X6012500Y-537500D01*
X6012500Y-5162500D02*
X6287500Y-5437500D01*
X6287500Y-5162500D02*
X6012500Y-5437500D01*
D11*
X253277Y-5968984D02*
X253277Y-5768984D01*
X253277Y-5768984D02*
X300896Y-5768984D01*
X300896Y-5768984D02*
X329467Y-5778508D01*
X329467Y-5778508D02*
X348515Y-5797555D01*
X348515Y-5797555D02*
X358039Y-5816603D01*
X358039Y-5816603D02*
X367562Y-5854698D01*
X367562Y-5854698D02*
X367562Y-5883269D01*
X367562Y-5883269D02*
X358039Y-5921365D01*
X358039Y-5921365D02*
X348515Y-5940412D01*
X348515Y-5940412D02*
X329467Y-5959460D01*
X329467Y-5959460D02*
X300896Y-5968984D01*
X300896Y-5968984D02*
X253277Y-5968984D01*
X453277Y-5968984D02*
X453277Y-5835650D01*
X453277Y-5873746D02*
X462801Y-5854698D01*
X462801Y-5854698D02*
X472324Y-5845174D01*
X472324Y-5845174D02*
X491372Y-5835650D01*
X491372Y-5835650D02*
X510420Y-5835650D01*
X577086Y-5968984D02*
X577086Y-5835650D01*
X577086Y-5768984D02*
X567563Y-5778508D01*
X567563Y-5778508D02*
X577086Y-5788031D01*
X577086Y-5788031D02*
X586610Y-5778508D01*
X586610Y-5778508D02*
X577086Y-5768984D01*
X577086Y-5768984D02*
X577086Y-5788031D01*
X700896Y-5968984D02*
X681848Y-5959460D01*
X681848Y-5959460D02*
X672324Y-5940412D01*
X672324Y-5940412D02*
X672324Y-5768984D01*
X805658Y-5968984D02*
X786610Y-5959460D01*
X786610Y-5959460D02*
X777086Y-5940412D01*
X777086Y-5940412D02*
X777086Y-5768984D01*
X1034229Y-5968984D02*
X1034229Y-5768984D01*
X1034229Y-5768984D02*
X1100896Y-5911841D01*
X1100896Y-5911841D02*
X1167563Y-5768984D01*
X1167563Y-5768984D02*
X1167563Y-5968984D01*
X1348515Y-5968984D02*
X1348515Y-5864222D01*
X1348515Y-5864222D02*
X1338991Y-5845174D01*
X1338991Y-5845174D02*
X1319944Y-5835650D01*
X1319944Y-5835650D02*
X1281848Y-5835650D01*
X1281848Y-5835650D02*
X1262801Y-5845174D01*
X1348515Y-5959460D02*
X1329467Y-5968984D01*
X1329467Y-5968984D02*
X1281848Y-5968984D01*
X1281848Y-5968984D02*
X1262801Y-5959460D01*
X1262801Y-5959460D02*
X1253277Y-5940412D01*
X1253277Y-5940412D02*
X1253277Y-5921365D01*
X1253277Y-5921365D02*
X1262801Y-5902317D01*
X1262801Y-5902317D02*
X1281848Y-5892793D01*
X1281848Y-5892793D02*
X1329467Y-5892793D01*
X1329467Y-5892793D02*
X1348515Y-5883269D01*
X1443753Y-5835650D02*
X1443753Y-6035650D01*
X1443753Y-5845174D02*
X1462801Y-5835650D01*
X1462801Y-5835650D02*
X1500896Y-5835650D01*
X1500896Y-5835650D02*
X1519943Y-5845174D01*
X1519943Y-5845174D02*
X1529467Y-5854698D01*
X1529467Y-5854698D02*
X1538991Y-5873746D01*
X1538991Y-5873746D02*
X1538991Y-5930888D01*
X1538991Y-5930888D02*
X1529467Y-5949936D01*
X1529467Y-5949936D02*
X1519943Y-5959460D01*
X1519943Y-5959460D02*
X1500896Y-5968984D01*
X1500896Y-5968984D02*
X1462801Y-5968984D01*
X1462801Y-5968984D02*
X1443753Y-5959460D01*
X1624705Y-5949936D02*
X1634229Y-5959460D01*
X1634229Y-5959460D02*
X1624705Y-5968984D01*
X1624705Y-5968984D02*
X1615182Y-5959460D01*
X1615182Y-5959460D02*
X1624705Y-5949936D01*
X1624705Y-5949936D02*
X1624705Y-5968984D01*
X1624705Y-5845174D02*
X1634229Y-5854698D01*
X1634229Y-5854698D02*
X1624705Y-5864222D01*
X1624705Y-5864222D02*
X1615182Y-5854698D01*
X1615182Y-5854698D02*
X1624705Y-5845174D01*
X1624705Y-5845174D02*
X1624705Y-5864222D01*
X-207500Y-6197500D02*
X-7500Y-6397500D01*
X-7500Y-6197500D02*
X-207500Y-6397500D01*
X243753Y-6208031D02*
X253277Y-6198508D01*
X253277Y-6198508D02*
X272324Y-6188984D01*
X272324Y-6188984D02*
X319944Y-6188984D01*
X319944Y-6188984D02*
X338991Y-6198508D01*
X338991Y-6198508D02*
X348515Y-6208031D01*
X348515Y-6208031D02*
X358039Y-6227079D01*
X358039Y-6227079D02*
X358039Y-6246127D01*
X358039Y-6246127D02*
X348515Y-6274698D01*
X348515Y-6274698D02*
X234229Y-6388984D01*
X234229Y-6388984D02*
X358039Y-6388984D01*
X443753Y-6369936D02*
X453277Y-6379460D01*
X453277Y-6379460D02*
X443753Y-6388984D01*
X443753Y-6388984D02*
X434229Y-6379460D01*
X434229Y-6379460D02*
X443753Y-6369936D01*
X443753Y-6369936D02*
X443753Y-6388984D01*
X519943Y-6188984D02*
X653277Y-6188984D01*
X653277Y-6188984D02*
X567563Y-6388984D01*
X824705Y-6188984D02*
X729467Y-6188984D01*
X729467Y-6188984D02*
X719943Y-6284222D01*
X719943Y-6284222D02*
X729467Y-6274698D01*
X729467Y-6274698D02*
X748515Y-6265174D01*
X748515Y-6265174D02*
X796134Y-6265174D01*
X796134Y-6265174D02*
X815182Y-6274698D01*
X815182Y-6274698D02*
X824705Y-6284222D01*
X824705Y-6284222D02*
X834229Y-6303269D01*
X834229Y-6303269D02*
X834229Y-6350888D01*
X834229Y-6350888D02*
X824705Y-6369936D01*
X824705Y-6369936D02*
X815182Y-6379460D01*
X815182Y-6379460D02*
X796134Y-6388984D01*
X796134Y-6388984D02*
X748515Y-6388984D01*
X748515Y-6388984D02*
X729467Y-6379460D01*
X729467Y-6379460D02*
X719943Y-6369936D01*
X958039Y-6188984D02*
X977086Y-6188984D01*
X977086Y-6188984D02*
X996134Y-6198508D01*
X996134Y-6198508D02*
X1005658Y-6208031D01*
X1005658Y-6208031D02*
X1015182Y-6227079D01*
X1015182Y-6227079D02*
X1024705Y-6265174D01*
X1024705Y-6265174D02*
X1024705Y-6312793D01*
X1024705Y-6312793D02*
X1015182Y-6350888D01*
X1015182Y-6350888D02*
X1005658Y-6369936D01*
X1005658Y-6369936D02*
X996134Y-6379460D01*
X996134Y-6379460D02*
X977086Y-6388984D01*
X977086Y-6388984D02*
X958039Y-6388984D01*
X958039Y-6388984D02*
X938991Y-6379460D01*
X938991Y-6379460D02*
X929467Y-6369936D01*
X929467Y-6369936D02*
X919943Y-6350888D01*
X919943Y-6350888D02*
X910420Y-6312793D01*
X910420Y-6312793D02*
X910420Y-6265174D01*
X910420Y-6265174D02*
X919943Y-6227079D01*
X919943Y-6227079D02*
X929467Y-6208031D01*
X929467Y-6208031D02*
X938991Y-6198508D01*
X938991Y-6198508D02*
X958039Y-6188984D01*
X1110420Y-6388984D02*
X1110420Y-6255650D01*
X1110420Y-6274698D02*
X1119944Y-6265174D01*
X1119944Y-6265174D02*
X1138991Y-6255650D01*
X1138991Y-6255650D02*
X1167563Y-6255650D01*
X1167563Y-6255650D02*
X1186610Y-6265174D01*
X1186610Y-6265174D02*
X1196134Y-6284222D01*
X1196134Y-6284222D02*
X1196134Y-6388984D01*
X1196134Y-6284222D02*
X1205658Y-6265174D01*
X1205658Y-6265174D02*
X1224705Y-6255650D01*
X1224705Y-6255650D02*
X1253277Y-6255650D01*
X1253277Y-6255650D02*
X1272325Y-6265174D01*
X1272325Y-6265174D02*
X1281848Y-6284222D01*
X1281848Y-6284222D02*
X1281848Y-6388984D01*
X1377086Y-6388984D02*
X1377086Y-6255650D01*
X1377086Y-6274698D02*
X1386610Y-6265174D01*
X1386610Y-6265174D02*
X1405658Y-6255650D01*
X1405658Y-6255650D02*
X1434229Y-6255650D01*
X1434229Y-6255650D02*
X1453277Y-6265174D01*
X1453277Y-6265174D02*
X1462801Y-6284222D01*
X1462801Y-6284222D02*
X1462801Y-6388984D01*
X1462801Y-6284222D02*
X1472324Y-6265174D01*
X1472324Y-6265174D02*
X1491372Y-6255650D01*
X1491372Y-6255650D02*
X1519943Y-6255650D01*
X1519943Y-6255650D02*
X1538991Y-6265174D01*
X1538991Y-6265174D02*
X1548515Y-6284222D01*
X1548515Y-6284222D02*
X1548515Y-6388984D01*
X1938991Y-6179460D02*
X1767563Y-6436603D01*
X2196134Y-6188984D02*
X2215182Y-6188984D01*
X2215182Y-6188984D02*
X2234229Y-6198508D01*
X2234229Y-6198508D02*
X2243753Y-6208031D01*
X2243753Y-6208031D02*
X2253277Y-6227079D01*
X2253277Y-6227079D02*
X2262801Y-6265174D01*
X2262801Y-6265174D02*
X2262801Y-6312793D01*
X2262801Y-6312793D02*
X2253277Y-6350888D01*
X2253277Y-6350888D02*
X2243753Y-6369936D01*
X2243753Y-6369936D02*
X2234229Y-6379460D01*
X2234229Y-6379460D02*
X2215182Y-6388984D01*
X2215182Y-6388984D02*
X2196134Y-6388984D01*
X2196134Y-6388984D02*
X2177087Y-6379460D01*
X2177087Y-6379460D02*
X2167563Y-6369936D01*
X2167563Y-6369936D02*
X2158039Y-6350888D01*
X2158039Y-6350888D02*
X2148515Y-6312793D01*
X2148515Y-6312793D02*
X2148515Y-6265174D01*
X2148515Y-6265174D02*
X2158039Y-6227079D01*
X2158039Y-6227079D02*
X2167563Y-6208031D01*
X2167563Y-6208031D02*
X2177087Y-6198508D01*
X2177087Y-6198508D02*
X2196134Y-6188984D01*
X2348515Y-6369936D02*
X2358039Y-6379460D01*
X2358039Y-6379460D02*
X2348515Y-6388984D01*
X2348515Y-6388984D02*
X2338991Y-6379460D01*
X2338991Y-6379460D02*
X2348515Y-6369936D01*
X2348515Y-6369936D02*
X2348515Y-6388984D01*
X2548515Y-6388984D02*
X2434229Y-6388984D01*
X2491372Y-6388984D02*
X2491372Y-6188984D01*
X2491372Y-6188984D02*
X2472325Y-6217555D01*
X2472325Y-6217555D02*
X2453277Y-6236603D01*
X2453277Y-6236603D02*
X2434229Y-6246127D01*
X2672325Y-6188984D02*
X2691372Y-6188984D01*
X2691372Y-6188984D02*
X2710420Y-6198508D01*
X2710420Y-6198508D02*
X2719944Y-6208031D01*
X2719944Y-6208031D02*
X2729468Y-6227079D01*
X2729468Y-6227079D02*
X2738991Y-6265174D01*
X2738991Y-6265174D02*
X2738991Y-6312793D01*
X2738991Y-6312793D02*
X2729468Y-6350888D01*
X2729468Y-6350888D02*
X2719944Y-6369936D01*
X2719944Y-6369936D02*
X2710420Y-6379460D01*
X2710420Y-6379460D02*
X2691372Y-6388984D01*
X2691372Y-6388984D02*
X2672325Y-6388984D01*
X2672325Y-6388984D02*
X2653277Y-6379460D01*
X2653277Y-6379460D02*
X2643753Y-6369936D01*
X2643753Y-6369936D02*
X2634229Y-6350888D01*
X2634229Y-6350888D02*
X2624706Y-6312793D01*
X2624706Y-6312793D02*
X2624706Y-6265174D01*
X2624706Y-6265174D02*
X2634229Y-6227079D01*
X2634229Y-6227079D02*
X2643753Y-6208031D01*
X2643753Y-6208031D02*
X2653277Y-6198508D01*
X2653277Y-6198508D02*
X2672325Y-6188984D01*
X2853277Y-6274698D02*
X2834229Y-6265174D01*
X2834229Y-6265174D02*
X2824706Y-6255650D01*
X2824706Y-6255650D02*
X2815182Y-6236603D01*
X2815182Y-6236603D02*
X2815182Y-6227079D01*
X2815182Y-6227079D02*
X2824706Y-6208031D01*
X2824706Y-6208031D02*
X2834229Y-6198508D01*
X2834229Y-6198508D02*
X2853277Y-6188984D01*
X2853277Y-6188984D02*
X2891372Y-6188984D01*
X2891372Y-6188984D02*
X2910420Y-6198508D01*
X2910420Y-6198508D02*
X2919944Y-6208031D01*
X2919944Y-6208031D02*
X2929467Y-6227079D01*
X2929467Y-6227079D02*
X2929467Y-6236603D01*
X2929467Y-6236603D02*
X2919944Y-6255650D01*
X2919944Y-6255650D02*
X2910420Y-6265174D01*
X2910420Y-6265174D02*
X2891372Y-6274698D01*
X2891372Y-6274698D02*
X2853277Y-6274698D01*
X2853277Y-6274698D02*
X2834229Y-6284222D01*
X2834229Y-6284222D02*
X2824706Y-6293746D01*
X2824706Y-6293746D02*
X2815182Y-6312793D01*
X2815182Y-6312793D02*
X2815182Y-6350888D01*
X2815182Y-6350888D02*
X2824706Y-6369936D01*
X2824706Y-6369936D02*
X2834229Y-6379460D01*
X2834229Y-6379460D02*
X2853277Y-6388984D01*
X2853277Y-6388984D02*
X2891372Y-6388984D01*
X2891372Y-6388984D02*
X2910420Y-6379460D01*
X2910420Y-6379460D02*
X2919944Y-6369936D01*
X2919944Y-6369936D02*
X2929467Y-6350888D01*
X2929467Y-6350888D02*
X2929467Y-6312793D01*
X2929467Y-6312793D02*
X2919944Y-6293746D01*
X2919944Y-6293746D02*
X2910420Y-6284222D01*
X2910420Y-6284222D02*
X2891372Y-6274698D01*
X2996134Y-6188984D02*
X3119944Y-6188984D01*
X3119944Y-6188984D02*
X3053277Y-6265174D01*
X3053277Y-6265174D02*
X3081848Y-6265174D01*
X3081848Y-6265174D02*
X3100896Y-6274698D01*
X3100896Y-6274698D02*
X3110420Y-6284222D01*
X3110420Y-6284222D02*
X3119944Y-6303269D01*
X3119944Y-6303269D02*
X3119944Y-6350888D01*
X3119944Y-6350888D02*
X3110420Y-6369936D01*
X3110420Y-6369936D02*
X3100896Y-6379460D01*
X3100896Y-6379460D02*
X3081848Y-6388984D01*
X3081848Y-6388984D02*
X3024706Y-6388984D01*
X3024706Y-6388984D02*
X3005658Y-6379460D01*
X3005658Y-6379460D02*
X2996134Y-6369936D01*
X3196134Y-6188984D02*
X3196134Y-6227079D01*
X3272325Y-6188984D02*
X3272325Y-6227079D01*
X3567563Y-6465174D02*
X3558039Y-6455650D01*
X3558039Y-6455650D02*
X3538991Y-6427079D01*
X3538991Y-6427079D02*
X3529468Y-6408031D01*
X3529468Y-6408031D02*
X3519944Y-6379460D01*
X3519944Y-6379460D02*
X3510420Y-6331841D01*
X3510420Y-6331841D02*
X3510420Y-6293746D01*
X3510420Y-6293746D02*
X3519944Y-6246127D01*
X3519944Y-6246127D02*
X3529468Y-6217555D01*
X3529468Y-6217555D02*
X3538991Y-6198508D01*
X3538991Y-6198508D02*
X3558039Y-6169936D01*
X3558039Y-6169936D02*
X3567563Y-6160412D01*
X3729468Y-6255650D02*
X3729468Y-6388984D01*
X3681848Y-6179460D02*
X3634229Y-6322317D01*
X3634229Y-6322317D02*
X3758039Y-6322317D01*
X3986610Y-6388984D02*
X3986610Y-6188984D01*
X4072325Y-6388984D02*
X4072325Y-6284222D01*
X4072325Y-6284222D02*
X4062801Y-6265174D01*
X4062801Y-6265174D02*
X4043753Y-6255650D01*
X4043753Y-6255650D02*
X4015182Y-6255650D01*
X4015182Y-6255650D02*
X3996134Y-6265174D01*
X3996134Y-6265174D02*
X3986610Y-6274698D01*
X4196134Y-6388984D02*
X4177087Y-6379460D01*
X4177087Y-6379460D02*
X4167563Y-6369936D01*
X4167563Y-6369936D02*
X4158039Y-6350888D01*
X4158039Y-6350888D02*
X4158039Y-6293746D01*
X4158039Y-6293746D02*
X4167563Y-6274698D01*
X4167563Y-6274698D02*
X4177087Y-6265174D01*
X4177087Y-6265174D02*
X4196134Y-6255650D01*
X4196134Y-6255650D02*
X4224706Y-6255650D01*
X4224706Y-6255650D02*
X4243753Y-6265174D01*
X4243753Y-6265174D02*
X4253277Y-6274698D01*
X4253277Y-6274698D02*
X4262801Y-6293746D01*
X4262801Y-6293746D02*
X4262801Y-6350888D01*
X4262801Y-6350888D02*
X4253277Y-6369936D01*
X4253277Y-6369936D02*
X4243753Y-6379460D01*
X4243753Y-6379460D02*
X4224706Y-6388984D01*
X4224706Y-6388984D02*
X4196134Y-6388984D01*
X4377087Y-6388984D02*
X4358039Y-6379460D01*
X4358039Y-6379460D02*
X4348515Y-6360412D01*
X4348515Y-6360412D02*
X4348515Y-6188984D01*
X4529468Y-6379460D02*
X4510420Y-6388984D01*
X4510420Y-6388984D02*
X4472325Y-6388984D01*
X4472325Y-6388984D02*
X4453277Y-6379460D01*
X4453277Y-6379460D02*
X4443753Y-6360412D01*
X4443753Y-6360412D02*
X4443753Y-6284222D01*
X4443753Y-6284222D02*
X4453277Y-6265174D01*
X4453277Y-6265174D02*
X4472325Y-6255650D01*
X4472325Y-6255650D02*
X4510420Y-6255650D01*
X4510420Y-6255650D02*
X4529468Y-6265174D01*
X4529468Y-6265174D02*
X4538992Y-6284222D01*
X4538992Y-6284222D02*
X4538992Y-6303269D01*
X4538992Y-6303269D02*
X4443753Y-6322317D01*
X4615182Y-6379460D02*
X4634230Y-6388984D01*
X4634230Y-6388984D02*
X4672325Y-6388984D01*
X4672325Y-6388984D02*
X4691373Y-6379460D01*
X4691373Y-6379460D02*
X4700896Y-6360412D01*
X4700896Y-6360412D02*
X4700896Y-6350888D01*
X4700896Y-6350888D02*
X4691373Y-6331841D01*
X4691373Y-6331841D02*
X4672325Y-6322317D01*
X4672325Y-6322317D02*
X4643753Y-6322317D01*
X4643753Y-6322317D02*
X4624706Y-6312793D01*
X4624706Y-6312793D02*
X4615182Y-6293746D01*
X4615182Y-6293746D02*
X4615182Y-6284222D01*
X4615182Y-6284222D02*
X4624706Y-6265174D01*
X4624706Y-6265174D02*
X4643753Y-6255650D01*
X4643753Y-6255650D02*
X4672325Y-6255650D01*
X4672325Y-6255650D02*
X4691373Y-6265174D01*
X4767563Y-6465174D02*
X4777087Y-6455650D01*
X4777087Y-6455650D02*
X4796134Y-6427079D01*
X4796134Y-6427079D02*
X4805658Y-6408031D01*
X4805658Y-6408031D02*
X4815182Y-6379460D01*
X4815182Y-6379460D02*
X4824706Y-6331841D01*
X4824706Y-6331841D02*
X4824706Y-6293746D01*
X4824706Y-6293746D02*
X4815182Y-6246127D01*
X4815182Y-6246127D02*
X4805658Y-6217555D01*
X4805658Y-6217555D02*
X4796134Y-6198508D01*
X4796134Y-6198508D02*
X4777087Y-6169936D01*
X4777087Y-6169936D02*
X4767563Y-6160412D01*
X5129468Y-6465174D02*
X5119944Y-6455650D01*
X5119944Y-6455650D02*
X5100896Y-6427079D01*
X5100896Y-6427079D02*
X5091373Y-6408031D01*
X5091373Y-6408031D02*
X5081849Y-6379460D01*
X5081849Y-6379460D02*
X5072325Y-6331841D01*
X5072325Y-6331841D02*
X5072325Y-6293746D01*
X5072325Y-6293746D02*
X5081849Y-6246127D01*
X5081849Y-6246127D02*
X5091373Y-6217555D01*
X5091373Y-6217555D02*
X5100896Y-6198508D01*
X5100896Y-6198508D02*
X5119944Y-6169936D01*
X5119944Y-6169936D02*
X5129468Y-6160412D01*
X5205658Y-6255650D02*
X5205658Y-6388984D01*
X5205658Y-6274698D02*
X5215182Y-6265174D01*
X5215182Y-6265174D02*
X5234230Y-6255650D01*
X5234230Y-6255650D02*
X5262801Y-6255650D01*
X5262801Y-6255650D02*
X5281849Y-6265174D01*
X5281849Y-6265174D02*
X5291373Y-6284222D01*
X5291373Y-6284222D02*
X5291373Y-6388984D01*
X5415182Y-6388984D02*
X5396134Y-6379460D01*
X5396134Y-6379460D02*
X5386611Y-6369936D01*
X5386611Y-6369936D02*
X5377087Y-6350888D01*
X5377087Y-6350888D02*
X5377087Y-6293746D01*
X5377087Y-6293746D02*
X5386611Y-6274698D01*
X5386611Y-6274698D02*
X5396134Y-6265174D01*
X5396134Y-6265174D02*
X5415182Y-6255650D01*
X5415182Y-6255650D02*
X5443754Y-6255650D01*
X5443754Y-6255650D02*
X5462801Y-6265174D01*
X5462801Y-6265174D02*
X5472325Y-6274698D01*
X5472325Y-6274698D02*
X5481849Y-6293746D01*
X5481849Y-6293746D02*
X5481849Y-6350888D01*
X5481849Y-6350888D02*
X5472325Y-6369936D01*
X5472325Y-6369936D02*
X5462801Y-6379460D01*
X5462801Y-6379460D02*
X5443754Y-6388984D01*
X5443754Y-6388984D02*
X5415182Y-6388984D01*
X5538992Y-6255650D02*
X5615182Y-6255650D01*
X5567563Y-6188984D02*
X5567563Y-6360412D01*
X5567563Y-6360412D02*
X5577087Y-6379460D01*
X5577087Y-6379460D02*
X5596134Y-6388984D01*
X5596134Y-6388984D02*
X5615182Y-6388984D01*
X5834230Y-6255650D02*
X5834230Y-6455650D01*
X5834230Y-6265174D02*
X5853277Y-6255650D01*
X5853277Y-6255650D02*
X5891373Y-6255650D01*
X5891373Y-6255650D02*
X5910420Y-6265174D01*
X5910420Y-6265174D02*
X5919944Y-6274698D01*
X5919944Y-6274698D02*
X5929468Y-6293746D01*
X5929468Y-6293746D02*
X5929468Y-6350888D01*
X5929468Y-6350888D02*
X5919944Y-6369936D01*
X5919944Y-6369936D02*
X5910420Y-6379460D01*
X5910420Y-6379460D02*
X5891373Y-6388984D01*
X5891373Y-6388984D02*
X5853277Y-6388984D01*
X5853277Y-6388984D02*
X5834230Y-6379460D01*
X6043753Y-6388984D02*
X6024706Y-6379460D01*
X6024706Y-6379460D02*
X6015182Y-6360412D01*
X6015182Y-6360412D02*
X6015182Y-6188984D01*
X6205658Y-6388984D02*
X6205658Y-6284222D01*
X6205658Y-6284222D02*
X6196134Y-6265174D01*
X6196134Y-6265174D02*
X6177087Y-6255650D01*
X6177087Y-6255650D02*
X6138992Y-6255650D01*
X6138992Y-6255650D02*
X6119944Y-6265174D01*
X6205658Y-6379460D02*
X6186611Y-6388984D01*
X6186611Y-6388984D02*
X6138992Y-6388984D01*
X6138992Y-6388984D02*
X6119944Y-6379460D01*
X6119944Y-6379460D02*
X6110420Y-6360412D01*
X6110420Y-6360412D02*
X6110420Y-6341365D01*
X6110420Y-6341365D02*
X6119944Y-6322317D01*
X6119944Y-6322317D02*
X6138992Y-6312793D01*
X6138992Y-6312793D02*
X6186611Y-6312793D01*
X6186611Y-6312793D02*
X6205658Y-6303269D01*
X6272325Y-6255650D02*
X6348515Y-6255650D01*
X6300896Y-6188984D02*
X6300896Y-6360412D01*
X6300896Y-6360412D02*
X6310420Y-6379460D01*
X6310420Y-6379460D02*
X6329468Y-6388984D01*
X6329468Y-6388984D02*
X6348515Y-6388984D01*
X6491373Y-6379460D02*
X6472325Y-6388984D01*
X6472325Y-6388984D02*
X6434230Y-6388984D01*
X6434230Y-6388984D02*
X6415182Y-6379460D01*
X6415182Y-6379460D02*
X6405658Y-6360412D01*
X6405658Y-6360412D02*
X6405658Y-6284222D01*
X6405658Y-6284222D02*
X6415182Y-6265174D01*
X6415182Y-6265174D02*
X6434230Y-6255650D01*
X6434230Y-6255650D02*
X6472325Y-6255650D01*
X6472325Y-6255650D02*
X6491373Y-6265174D01*
X6491373Y-6265174D02*
X6500896Y-6284222D01*
X6500896Y-6284222D02*
X6500896Y-6303269D01*
X6500896Y-6303269D02*
X6405658Y-6322317D01*
X6672325Y-6388984D02*
X6672325Y-6188984D01*
X6672325Y-6379460D02*
X6653277Y-6388984D01*
X6653277Y-6388984D02*
X6615182Y-6388984D01*
X6615182Y-6388984D02*
X6596134Y-6379460D01*
X6596134Y-6379460D02*
X6586611Y-6369936D01*
X6586611Y-6369936D02*
X6577087Y-6350888D01*
X6577087Y-6350888D02*
X6577087Y-6293746D01*
X6577087Y-6293746D02*
X6586611Y-6274698D01*
X6586611Y-6274698D02*
X6596134Y-6265174D01*
X6596134Y-6265174D02*
X6615182Y-6255650D01*
X6615182Y-6255650D02*
X6653277Y-6255650D01*
X6653277Y-6255650D02*
X6672325Y-6265174D01*
X6748515Y-6465174D02*
X6758039Y-6455650D01*
X6758039Y-6455650D02*
X6777087Y-6427079D01*
X6777087Y-6427079D02*
X6786611Y-6408031D01*
X6786611Y-6408031D02*
X6796134Y-6379460D01*
X6796134Y-6379460D02*
X6805658Y-6331841D01*
X6805658Y-6331841D02*
X6805658Y-6293746D01*
X6805658Y-6293746D02*
X6796134Y-6246127D01*
X6796134Y-6246127D02*
X6786611Y-6217555D01*
X6786611Y-6217555D02*
X6777087Y-6198508D01*
X6777087Y-6198508D02*
X6758039Y-6169936D01*
X6758039Y-6169936D02*
X6748515Y-6160412D01*
M02*
