%TF.GenerationSoftware,KiCad,Pcbnew,6.0.7+dfsg-1+b1*%
%TF.CreationDate,2022-09-08T18:59:41+01:00*%
%TF.ProjectId,owl-driver-board,6f776c2d-6472-4697-9665-722d626f6172,rev?*%
%TF.SameCoordinates,Original*%
%TF.FileFunction,Drillmap*%
%TF.FilePolarity,Positive*%
%FSLAX45Y45*%
G04 Gerber Fmt 4.5, Leading zero omitted, Abs format (unit mm)*
G04 Created by KiCad (PCBNEW 6.0.7+dfsg-1+b1) date 2022-09-08 18:59:41*
%MOMM*%
%LPD*%
G01*
G04 APERTURE LIST*
%ADD10C,0.150000*%
%ADD11C,0.200000*%
%ADD12C,0.040000*%
%ADD13C,0.050000*%
%ADD14C,0.080000*%
%ADD15C,0.101600*%
G04 APERTURE END LIST*
D10*
X0Y-5350000D02*
G75*
G03*
X300000Y-5650000I300000J0D01*
G01*
X6200000Y-5650000D02*
G75*
G03*
X6500000Y-5350000I0J300000D01*
G01*
X0Y-1900000D02*
G75*
G03*
X100000Y-2000000I100000J0D01*
G01*
X500000Y-2100000D02*
G75*
G03*
X400000Y-2000000I-100000J0D01*
G01*
X400000Y-3700000D02*
G75*
G03*
X500000Y-3600000I0J100000D01*
G01*
X100000Y-3700000D02*
G75*
G03*
X0Y-3800000I0J-100000D01*
G01*
X300000Y-50000D02*
G75*
G03*
X0Y-300000I0J-305000D01*
G01*
X300000Y-50000D02*
X6200000Y-50000D01*
X6500000Y-350000D02*
G75*
G03*
X6200000Y-50000I-300000J0D01*
G01*
X6500000Y-350000D02*
X6500000Y-5350000D01*
X300000Y-5650000D02*
X6200000Y-5650000D01*
X100000Y-3700000D02*
X400000Y-3700000D01*
X0Y-300000D02*
X0Y-1900000D01*
X500000Y-2100000D02*
X500000Y-3600000D01*
X0Y-3800000D02*
X0Y-5350000D01*
X100000Y-2000000D02*
X400000Y-2000000D01*
D11*
D12*
X950000Y-1500000D02*
X990000Y-1540000D01*
X990000Y-1500000D02*
X950000Y-1540000D01*
X1020000Y-2380000D02*
X1060000Y-2420000D01*
X1060000Y-2380000D02*
X1020000Y-2420000D01*
X1100000Y-1500000D02*
X1140000Y-1540000D01*
X1140000Y-1500000D02*
X1100000Y-1540000D01*
X1130000Y-2380000D02*
X1170000Y-2420000D01*
X1170000Y-2380000D02*
X1130000Y-2420000D01*
X1230000Y-2380000D02*
X1270000Y-2420000D01*
X1270000Y-2380000D02*
X1230000Y-2420000D01*
X1337542Y-2377542D02*
X1377542Y-2417542D01*
X1377542Y-2377542D02*
X1337542Y-2417542D01*
X1376044Y-1053267D02*
X1416044Y-1093267D01*
X1416044Y-1053267D02*
X1376044Y-1093267D01*
X1428703Y-3128703D02*
X1468703Y-3168703D01*
X1468703Y-3128703D02*
X1428703Y-3168703D01*
X1431007Y-3243273D02*
X1471007Y-3283273D01*
X1471007Y-3243273D02*
X1431007Y-3283273D01*
X1505000Y-3670000D02*
X1545000Y-3710000D01*
X1545000Y-3670000D02*
X1505000Y-3710000D01*
X1555000Y-4780000D02*
X1595000Y-4820000D01*
X1595000Y-4780000D02*
X1555000Y-4820000D01*
X1556952Y-3056952D02*
X1596952Y-3096952D01*
X1596952Y-3056952D02*
X1556952Y-3096952D01*
X1683750Y-3465000D02*
X1723750Y-3505000D01*
X1723750Y-3465000D02*
X1683750Y-3505000D01*
X1702500Y-3101250D02*
X1742500Y-3141250D01*
X1742500Y-3101250D02*
X1702500Y-3141250D01*
X1710000Y-1710000D02*
X1750000Y-1750000D01*
X1750000Y-1710000D02*
X1710000Y-1750000D01*
X1740000Y-2920000D02*
X1780000Y-2960000D01*
X1780000Y-2920000D02*
X1740000Y-2960000D01*
X1860000Y-2800000D02*
X1900000Y-2840000D01*
X1900000Y-2800000D02*
X1860000Y-2840000D01*
X1860000Y-2920000D02*
X1900000Y-2960000D01*
X1900000Y-2920000D02*
X1860000Y-2960000D01*
X1866250Y-3665000D02*
X1906250Y-3705000D01*
X1906250Y-3665000D02*
X1866250Y-3705000D01*
X1955050Y-2074289D02*
X1995050Y-2114289D01*
X1995050Y-2074289D02*
X1955050Y-2114289D01*
X1980000Y-2800000D02*
X2020000Y-2840000D01*
X2020000Y-2800000D02*
X1980000Y-2840000D01*
X1980000Y-2920000D02*
X2020000Y-2960000D01*
X2020000Y-2920000D02*
X1980000Y-2960000D01*
X2100000Y-2800000D02*
X2140000Y-2840000D01*
X2140000Y-2800000D02*
X2100000Y-2840000D01*
X2100000Y-2920000D02*
X2140000Y-2960000D01*
X2140000Y-2920000D02*
X2100000Y-2960000D01*
X2105000Y-5055000D02*
X2145000Y-5095000D01*
X2145000Y-5055000D02*
X2105000Y-5095000D01*
X2105000Y-5155000D02*
X2145000Y-5195000D01*
X2145000Y-5155000D02*
X2105000Y-5195000D01*
X2220000Y-2800000D02*
X2260000Y-2840000D01*
X2260000Y-2800000D02*
X2220000Y-2840000D01*
X2220000Y-2920000D02*
X2260000Y-2960000D01*
X2260000Y-2920000D02*
X2220000Y-2960000D01*
X2247369Y-949629D02*
X2287369Y-989629D01*
X2287369Y-949629D02*
X2247369Y-989629D01*
X2300000Y-1940000D02*
X2340000Y-1980000D01*
X2340000Y-1940000D02*
X2300000Y-1980000D01*
X2305000Y-2121250D02*
X2345000Y-2161250D01*
X2345000Y-2121250D02*
X2305000Y-2161250D01*
X2335321Y-1126687D02*
X2375321Y-1166687D01*
X2375321Y-1126687D02*
X2335321Y-1166687D01*
X2430000Y-960000D02*
X2470000Y-1000000D01*
X2470000Y-960000D02*
X2430000Y-1000000D01*
X2471962Y-1063038D02*
X2511962Y-1103038D01*
X2511962Y-1063038D02*
X2471962Y-1103038D01*
X2480000Y-690000D02*
X2520000Y-730000D01*
X2520000Y-690000D02*
X2480000Y-730000D01*
X2500109Y-2196841D02*
X2540109Y-2236841D01*
X2540109Y-2196841D02*
X2500109Y-2236841D01*
X2605000Y-1380000D02*
X2645000Y-1420000D01*
X2645000Y-1380000D02*
X2605000Y-1420000D01*
X2704226Y-2197357D02*
X2744226Y-2237357D01*
X2744226Y-2197357D02*
X2704226Y-2237357D01*
X2720000Y-1600000D02*
X2760000Y-1640000D01*
X2760000Y-1600000D02*
X2720000Y-1640000D01*
X2805000Y-1455000D02*
X2845000Y-1495000D01*
X2845000Y-1455000D02*
X2805000Y-1495000D01*
X2900548Y-2198240D02*
X2940548Y-2238240D01*
X2940548Y-2198240D02*
X2900548Y-2238240D01*
X2910000Y-1600000D02*
X2950000Y-1640000D01*
X2950000Y-1600000D02*
X2910000Y-1640000D01*
X3030000Y-3630000D02*
X3070000Y-3670000D01*
X3070000Y-3630000D02*
X3030000Y-3670000D01*
X3070000Y-1600000D02*
X3110000Y-1640000D01*
X3110000Y-1600000D02*
X3070000Y-1640000D01*
X3080000Y-4805000D02*
X3120000Y-4845000D01*
X3120000Y-4805000D02*
X3080000Y-4845000D01*
X3100000Y-2800000D02*
X3140000Y-2840000D01*
X3140000Y-2800000D02*
X3100000Y-2840000D01*
X3100000Y-2920000D02*
X3140000Y-2960000D01*
X3140000Y-2920000D02*
X3100000Y-2960000D01*
X3100548Y-2198240D02*
X3140548Y-2238240D01*
X3140548Y-2198240D02*
X3100548Y-2238240D01*
X3205000Y-3271250D02*
X3245000Y-3311250D01*
X3245000Y-3271250D02*
X3205000Y-3311250D01*
X3260000Y-1600000D02*
X3300000Y-1640000D01*
X3300000Y-1600000D02*
X3260000Y-1640000D01*
X3300000Y-2800000D02*
X3340000Y-2840000D01*
X3340000Y-2800000D02*
X3300000Y-2840000D01*
X3300000Y-2920000D02*
X3340000Y-2960000D01*
X3340000Y-2920000D02*
X3300000Y-2960000D01*
X3300548Y-2196990D02*
X3340548Y-2236990D01*
X3340548Y-2196990D02*
X3300548Y-2236990D01*
X3370174Y-3630000D02*
X3410174Y-3670000D01*
X3410174Y-3630000D02*
X3370174Y-3670000D01*
X3380000Y-1630000D02*
X3420000Y-1670000D01*
X3420000Y-1630000D02*
X3380000Y-1670000D01*
X3405000Y-1380000D02*
X3445000Y-1420000D01*
X3445000Y-1380000D02*
X3405000Y-1420000D01*
X3405000Y-2305000D02*
X3445000Y-2345000D01*
X3445000Y-2305000D02*
X3405000Y-2345000D01*
X3430000Y-1505000D02*
X3470000Y-1545000D01*
X3470000Y-1505000D02*
X3430000Y-1545000D01*
X3480000Y-1805000D02*
X3520000Y-1845000D01*
X3520000Y-1805000D02*
X3480000Y-1845000D01*
X3480000Y-2455050D02*
X3520000Y-2495050D01*
X3520000Y-2455050D02*
X3480000Y-2495050D01*
X3480000Y-2555000D02*
X3520000Y-2595000D01*
X3520000Y-2555000D02*
X3480000Y-2595000D01*
X3480000Y-2655000D02*
X3520000Y-2695000D01*
X3520000Y-2655000D02*
X3480000Y-2695000D01*
X3480000Y-2755000D02*
X3520000Y-2795000D01*
X3520000Y-2755000D02*
X3480000Y-2795000D01*
X3630000Y-1455000D02*
X3670000Y-1495000D01*
X3670000Y-1455000D02*
X3630000Y-1495000D01*
X3705000Y-1980000D02*
X3745000Y-2020000D01*
X3745000Y-1980000D02*
X3705000Y-2020000D01*
X3755000Y-880000D02*
X3795000Y-920000D01*
X3795000Y-880000D02*
X3755000Y-920000D01*
X3880000Y-1988750D02*
X3920000Y-2028750D01*
X3920000Y-1988750D02*
X3880000Y-2028750D01*
X4052500Y-2780000D02*
X4092500Y-2820000D01*
X4092500Y-2780000D02*
X4052500Y-2820000D01*
X4105000Y-1988750D02*
X4145000Y-2028750D01*
X4145000Y-1988750D02*
X4105000Y-2028750D01*
X4180000Y-1130000D02*
X4220000Y-1170000D01*
X4220000Y-1130000D02*
X4180000Y-1170000D01*
X4305000Y-1988750D02*
X4345000Y-2028750D01*
X4345000Y-1988750D02*
X4305000Y-2028750D01*
X4470000Y-3073750D02*
X4510000Y-3113750D01*
X4510000Y-3073750D02*
X4470000Y-3113750D01*
X4480000Y-1305000D02*
X4520000Y-1345000D01*
X4520000Y-1305000D02*
X4480000Y-1345000D01*
X4480000Y-1630000D02*
X4520000Y-1670000D01*
X4520000Y-1630000D02*
X4480000Y-1670000D01*
X4480000Y-2880000D02*
X4520000Y-2920000D01*
X4520000Y-2880000D02*
X4480000Y-2920000D01*
X4555000Y-3730000D02*
X4595000Y-3770000D01*
X4595000Y-3730000D02*
X4555000Y-3770000D01*
X4840000Y-2260000D02*
X4880000Y-2300000D01*
X4880000Y-2260000D02*
X4840000Y-2300000D01*
X4905000Y-3730000D02*
X4945000Y-3770000D01*
X4945000Y-3730000D02*
X4905000Y-3770000D01*
X5574423Y-5530205D02*
X5614423Y-5570205D01*
X5614423Y-5530205D02*
X5574423Y-5570205D01*
X5605000Y-1555000D02*
X5645000Y-1595000D01*
X5645000Y-1555000D02*
X5605000Y-1595000D01*
X5605000Y-3005000D02*
X5645000Y-3045000D01*
X5645000Y-3005000D02*
X5605000Y-3045000D01*
X5721270Y-5530479D02*
X5761270Y-5570479D01*
X5761270Y-5530479D02*
X5721270Y-5570479D01*
D13*
X505000Y-900000D02*
G75*
G03*
X505000Y-900000I-25000J0D01*
G01*
X505000Y-1200000D02*
G75*
G03*
X505000Y-1200000I-25000J0D01*
G01*
X615000Y-1690000D02*
G75*
G03*
X615000Y-1690000I-25000J0D01*
G01*
X625000Y-900000D02*
G75*
G03*
X625000Y-900000I-25000J0D01*
G01*
X625000Y-1380000D02*
G75*
G03*
X625000Y-1380000I-25000J0D01*
G01*
X735000Y-1690000D02*
G75*
G03*
X735000Y-1690000I-25000J0D01*
G01*
X745000Y-900000D02*
G75*
G03*
X745000Y-900000I-25000J0D01*
G01*
X745000Y-1200000D02*
G75*
G03*
X745000Y-1200000I-25000J0D01*
G01*
X975000Y-1010000D02*
G75*
G03*
X975000Y-1010000I-25000J0D01*
G01*
X1055000Y-1240000D02*
G75*
G03*
X1055000Y-1240000I-25000J0D01*
G01*
X1135000Y-790000D02*
G75*
G03*
X1135000Y-790000I-25000J0D01*
G01*
X1265000Y-1940000D02*
G75*
G03*
X1265000Y-1940000I-25000J0D01*
G01*
X1265000Y-2060000D02*
G75*
G03*
X1265000Y-2060000I-25000J0D01*
G01*
X1267500Y-4010896D02*
G75*
G03*
X1267500Y-4010896I-25000J0D01*
G01*
X1267500Y-4134198D02*
G75*
G03*
X1267500Y-4134198I-25000J0D01*
G01*
X1267500Y-4257500D02*
G75*
G03*
X1267500Y-4257500I-25000J0D01*
G01*
X1275000Y-5050000D02*
G75*
G03*
X1275000Y-5050000I-25000J0D01*
G01*
X1275000Y-5175000D02*
G75*
G03*
X1275000Y-5175000I-25000J0D01*
G01*
X1275000Y-5300000D02*
G75*
G03*
X1275000Y-5300000I-25000J0D01*
G01*
X1275000Y-5425000D02*
G75*
G03*
X1275000Y-5425000I-25000J0D01*
G01*
X1315000Y-840000D02*
G75*
G03*
X1315000Y-840000I-25000J0D01*
G01*
X1385000Y-1940000D02*
G75*
G03*
X1385000Y-1940000I-25000J0D01*
G01*
X1385000Y-2060000D02*
G75*
G03*
X1385000Y-2060000I-25000J0D01*
G01*
X1515000Y-1170000D02*
G75*
G03*
X1515000Y-1170000I-25000J0D01*
G01*
X1515000Y-1310000D02*
G75*
G03*
X1515000Y-1310000I-25000J0D01*
G01*
X1545000Y-840000D02*
G75*
G03*
X1545000Y-840000I-25000J0D01*
G01*
X1625000Y-1240000D02*
G75*
G03*
X1625000Y-1240000I-25000J0D01*
G01*
X1625000Y-1370000D02*
G75*
G03*
X1625000Y-1370000I-25000J0D01*
G01*
X1625000Y-1500000D02*
G75*
G03*
X1625000Y-1500000I-25000J0D01*
G01*
X1625000Y-1620000D02*
G75*
G03*
X1625000Y-1620000I-25000J0D01*
G01*
X1625000Y-4150000D02*
G75*
G03*
X1625000Y-4150000I-25000J0D01*
G01*
X1645000Y-5100000D02*
G75*
G03*
X1645000Y-5100000I-25000J0D01*
G01*
X1645000Y-5220000D02*
G75*
G03*
X1645000Y-5220000I-25000J0D01*
G01*
X1645000Y-5340000D02*
G75*
G03*
X1645000Y-5340000I-25000J0D01*
G01*
X1645000Y-5460000D02*
G75*
G03*
X1645000Y-5460000I-25000J0D01*
G01*
X1775000Y-840000D02*
G75*
G03*
X1775000Y-840000I-25000J0D01*
G01*
X1955000Y-1000000D02*
G75*
G03*
X1955000Y-1000000I-25000J0D01*
G01*
X2025000Y-1360000D02*
G75*
G03*
X2025000Y-1360000I-25000J0D01*
G01*
X2025000Y-1500000D02*
G75*
G03*
X2025000Y-1500000I-25000J0D01*
G01*
X2375000Y-3950000D02*
G75*
G03*
X2375000Y-3950000I-25000J0D01*
G01*
X2833630Y-5048057D02*
G75*
G03*
X2833630Y-5048057I-25000J0D01*
G01*
X2833630Y-5173057D02*
G75*
G03*
X2833630Y-5173057I-25000J0D01*
G01*
X2833630Y-5292402D02*
G75*
G03*
X2833630Y-5292402I-25000J0D01*
G01*
X2833630Y-5428057D02*
G75*
G03*
X2833630Y-5428057I-25000J0D01*
G01*
X2837801Y-4006131D02*
G75*
G03*
X2837801Y-4006131I-25000J0D01*
G01*
X2837801Y-4121131D02*
G75*
G03*
X2837801Y-4121131I-25000J0D01*
G01*
X2837801Y-4246131D02*
G75*
G03*
X2837801Y-4246131I-25000J0D01*
G01*
X3205000Y-5100000D02*
G75*
G03*
X3205000Y-5100000I-25000J0D01*
G01*
X3205000Y-5220000D02*
G75*
G03*
X3205000Y-5220000I-25000J0D01*
G01*
X3205000Y-5340000D02*
G75*
G03*
X3205000Y-5340000I-25000J0D01*
G01*
X3205000Y-5460000D02*
G75*
G03*
X3205000Y-5460000I-25000J0D01*
G01*
X3950000Y-3925000D02*
G75*
G03*
X3950000Y-3925000I-25000J0D01*
G01*
X4745000Y-4020000D02*
G75*
G03*
X4745000Y-4020000I-25000J0D01*
G01*
X4745000Y-4140000D02*
G75*
G03*
X4745000Y-4140000I-25000J0D01*
G01*
X4745000Y-4260000D02*
G75*
G03*
X4745000Y-4260000I-25000J0D01*
G01*
X4745000Y-5058800D02*
G75*
G03*
X4745000Y-5058800I-25000J0D01*
G01*
X4745000Y-5183800D02*
G75*
G03*
X4745000Y-5183800I-25000J0D01*
G01*
X4745000Y-5316128D02*
G75*
G03*
X4745000Y-5316128I-25000J0D01*
G01*
X4745000Y-5440000D02*
G75*
G03*
X4745000Y-5440000I-25000J0D01*
G01*
X4865000Y-1800000D02*
G75*
G03*
X4865000Y-1800000I-25000J0D01*
G01*
X4875000Y-3325000D02*
G75*
G03*
X4875000Y-3325000I-25000J0D01*
G01*
X4990000Y-1800000D02*
G75*
G03*
X4990000Y-1800000I-25000J0D01*
G01*
X5000000Y-3325000D02*
G75*
G03*
X5000000Y-3325000I-25000J0D01*
G01*
X5065000Y-5220000D02*
G75*
G03*
X5065000Y-5220000I-25000J0D01*
G01*
X5065000Y-5340000D02*
G75*
G03*
X5065000Y-5340000I-25000J0D01*
G01*
X5065000Y-5460000D02*
G75*
G03*
X5065000Y-5460000I-25000J0D01*
G01*
X5115000Y-1800000D02*
G75*
G03*
X5115000Y-1800000I-25000J0D01*
G01*
X5125000Y-3325000D02*
G75*
G03*
X5125000Y-3325000I-25000J0D01*
G01*
X5800000Y-4350000D02*
G75*
G03*
X5800000Y-4350000I-25000J0D01*
G01*
X5940000Y-1800000D02*
G75*
G03*
X5940000Y-1800000I-25000J0D01*
G01*
X5940000Y-3325000D02*
G75*
G03*
X5940000Y-3325000I-25000J0D01*
G01*
X6065000Y-1800000D02*
G75*
G03*
X6065000Y-1800000I-25000J0D01*
G01*
X6065000Y-3325000D02*
G75*
G03*
X6065000Y-3325000I-25000J0D01*
G01*
X6190000Y-1800000D02*
G75*
G03*
X6190000Y-1800000I-25000J0D01*
G01*
X6190000Y-3325000D02*
G75*
G03*
X6190000Y-3325000I-25000J0D01*
G01*
X6315000Y-1800000D02*
G75*
G03*
X6315000Y-1800000I-25000J0D01*
G01*
X6315000Y-3325000D02*
G75*
G03*
X6315000Y-3325000I-25000J0D01*
G01*
D14*
X1720000Y-980000D02*
X1720000Y-1060000D01*
X1680000Y-1020000D02*
X1760000Y-1020000D01*
X2037208Y-1127916D02*
X2037208Y-1207916D01*
X1997208Y-1167916D02*
X2077208Y-1167916D01*
D15*
X327921Y-4052921D02*
X327921Y-3981079D01*
X256079Y-3981079D01*
X256079Y-4052921D01*
X327921Y-4052921D01*
X327921Y-4306921D02*
X327921Y-4235079D01*
X256079Y-4235079D01*
X256079Y-4306921D01*
X327921Y-4306921D01*
X327921Y-4560921D02*
X327921Y-4489079D01*
X256079Y-4489079D01*
X256079Y-4560921D01*
X327921Y-4560921D01*
X327921Y-4814921D02*
X327921Y-4743079D01*
X256079Y-4743079D01*
X256079Y-4814921D01*
X327921Y-4814921D01*
X583921Y-4052921D02*
X583921Y-3981079D01*
X512079Y-3981079D01*
X512079Y-4052921D01*
X583921Y-4052921D01*
X583921Y-4306921D02*
X583921Y-4235079D01*
X512079Y-4235079D01*
X512079Y-4306921D01*
X583921Y-4306921D01*
X583921Y-4560921D02*
X583921Y-4489079D01*
X512079Y-4489079D01*
X512079Y-4560921D01*
X583921Y-4560921D01*
X583921Y-4814921D02*
X583921Y-4743079D01*
X512079Y-4743079D01*
X512079Y-4814921D01*
X583921Y-4814921D01*
X795921Y-2044921D02*
X795921Y-1973079D01*
X724079Y-1973079D01*
X724079Y-2044921D01*
X795921Y-2044921D01*
X837921Y-4052921D02*
X837921Y-3981079D01*
X766079Y-3981079D01*
X766079Y-4052921D01*
X837921Y-4052921D01*
X837921Y-4306921D02*
X837921Y-4235079D01*
X766079Y-4235079D01*
X766079Y-4306921D01*
X837921Y-4306921D01*
X837921Y-4560921D02*
X837921Y-4489079D01*
X766079Y-4489079D01*
X766079Y-4560921D01*
X837921Y-4560921D01*
X837921Y-4814921D02*
X837921Y-4743079D01*
X766079Y-4743079D01*
X766079Y-4814921D01*
X837921Y-4814921D01*
X872921Y-308921D02*
X872921Y-237079D01*
X801079Y-237079D01*
X801079Y-308921D01*
X872921Y-308921D01*
X872921Y-562921D02*
X872921Y-491079D01*
X801079Y-491079D01*
X801079Y-562921D01*
X872921Y-562921D01*
X1049921Y-2044921D02*
X1049921Y-1973079D01*
X978079Y-1973079D01*
X978079Y-2044921D01*
X1049921Y-2044921D01*
X1126921Y-308921D02*
X1126921Y-237079D01*
X1055079Y-237079D01*
X1055079Y-308921D01*
X1126921Y-308921D01*
X1126921Y-562921D02*
X1126921Y-491079D01*
X1055079Y-491079D01*
X1055079Y-562921D01*
X1126921Y-562921D01*
X1380921Y-308921D02*
X1380921Y-237079D01*
X1309079Y-237079D01*
X1309079Y-308921D01*
X1380921Y-308921D01*
X1380921Y-562921D02*
X1380921Y-491079D01*
X1309079Y-491079D01*
X1309079Y-562921D01*
X1380921Y-562921D01*
X1634921Y-308921D02*
X1634921Y-237079D01*
X1563079Y-237079D01*
X1563079Y-308921D01*
X1634921Y-308921D01*
X1634921Y-562921D02*
X1634921Y-491079D01*
X1563079Y-491079D01*
X1563079Y-562921D01*
X1634921Y-562921D01*
X1888921Y-308921D02*
X1888921Y-237079D01*
X1817079Y-237079D01*
X1817079Y-308921D01*
X1888921Y-308921D01*
X1888921Y-562921D02*
X1888921Y-491079D01*
X1817079Y-491079D01*
X1817079Y-562921D01*
X1888921Y-562921D01*
X2142921Y-308921D02*
X2142921Y-237079D01*
X2071079Y-237079D01*
X2071079Y-308921D01*
X2142921Y-308921D01*
X2142921Y-562921D02*
X2142921Y-491079D01*
X2071079Y-491079D01*
X2071079Y-562921D01*
X2142921Y-562921D01*
X2396921Y-308921D02*
X2396921Y-237079D01*
X2325079Y-237079D01*
X2325079Y-308921D01*
X2396921Y-308921D01*
X2396921Y-562921D02*
X2396921Y-491079D01*
X2325079Y-491079D01*
X2325079Y-562921D01*
X2396921Y-562921D01*
X2650921Y-308921D02*
X2650921Y-237079D01*
X2579079Y-237079D01*
X2579079Y-308921D01*
X2650921Y-308921D01*
X2650921Y-562921D02*
X2650921Y-491079D01*
X2579079Y-491079D01*
X2579079Y-562921D01*
X2650921Y-562921D01*
X2904921Y-308921D02*
X2904921Y-237079D01*
X2833079Y-237079D01*
X2833079Y-308921D01*
X2904921Y-308921D01*
X2904921Y-562921D02*
X2904921Y-491079D01*
X2833079Y-491079D01*
X2833079Y-562921D01*
X2904921Y-562921D01*
X3158921Y-308921D02*
X3158921Y-237079D01*
X3087079Y-237079D01*
X3087079Y-308921D01*
X3158921Y-308921D01*
X3158921Y-562921D02*
X3158921Y-491079D01*
X3087079Y-491079D01*
X3087079Y-562921D01*
X3158921Y-562921D01*
X3412921Y-308921D02*
X3412921Y-237079D01*
X3341079Y-237079D01*
X3341079Y-308921D01*
X3412921Y-308921D01*
X3412921Y-562921D02*
X3412921Y-491079D01*
X3341079Y-491079D01*
X3341079Y-562921D01*
X3412921Y-562921D01*
X3666921Y-308921D02*
X3666921Y-237079D01*
X3595079Y-237079D01*
X3595079Y-308921D01*
X3666921Y-308921D01*
X3666921Y-562921D02*
X3666921Y-491079D01*
X3595079Y-491079D01*
X3595079Y-562921D01*
X3666921Y-562921D01*
X3920921Y-308921D02*
X3920921Y-237079D01*
X3849079Y-237079D01*
X3849079Y-308921D01*
X3920921Y-308921D01*
X3920921Y-562921D02*
X3920921Y-491079D01*
X3849079Y-491079D01*
X3849079Y-562921D01*
X3920921Y-562921D01*
X3981859Y-4998601D02*
X3981859Y-4926759D01*
X3910016Y-4926759D01*
X3910016Y-4998601D01*
X3981859Y-4998601D01*
X3981859Y-5252601D02*
X3981859Y-5180759D01*
X3910016Y-5180759D01*
X3910016Y-5252601D01*
X3981859Y-5252601D01*
X3981859Y-5506601D02*
X3981859Y-5434759D01*
X3910016Y-5434759D01*
X3910016Y-5506601D01*
X3981859Y-5506601D01*
X4174921Y-308921D02*
X4174921Y-237079D01*
X4103079Y-237079D01*
X4103079Y-308921D01*
X4174921Y-308921D01*
X4174921Y-562921D02*
X4174921Y-491079D01*
X4103079Y-491079D01*
X4103079Y-562921D01*
X4174921Y-562921D01*
X4235859Y-4998601D02*
X4235859Y-4926759D01*
X4164016Y-4926759D01*
X4164016Y-4998601D01*
X4235859Y-4998601D01*
X4235859Y-5252601D02*
X4235859Y-5180759D01*
X4164016Y-5180759D01*
X4164016Y-5252601D01*
X4235859Y-5252601D01*
X4235859Y-5506601D02*
X4235859Y-5434759D01*
X4164016Y-5434759D01*
X4164016Y-5506601D01*
X4235859Y-5506601D01*
X4428921Y-308921D02*
X4428921Y-237079D01*
X4357079Y-237079D01*
X4357079Y-308921D01*
X4428921Y-308921D01*
X4428921Y-562921D02*
X4428921Y-491079D01*
X4357079Y-491079D01*
X4357079Y-562921D01*
X4428921Y-562921D01*
X4682921Y-308921D02*
X4682921Y-237079D01*
X4611079Y-237079D01*
X4611079Y-308921D01*
X4682921Y-308921D01*
X4682921Y-562921D02*
X4682921Y-491079D01*
X4611079Y-491079D01*
X4611079Y-562921D01*
X4682921Y-562921D01*
X4936921Y-308921D02*
X4936921Y-237079D01*
X4865079Y-237079D01*
X4865079Y-308921D01*
X4936921Y-308921D01*
X4936921Y-562921D02*
X4936921Y-491079D01*
X4865079Y-491079D01*
X4865079Y-562921D01*
X4936921Y-562921D01*
X5190921Y-308921D02*
X5190921Y-237079D01*
X5119079Y-237079D01*
X5119079Y-308921D01*
X5190921Y-308921D01*
X5190921Y-562921D02*
X5190921Y-491079D01*
X5119079Y-491079D01*
X5119079Y-562921D01*
X5190921Y-562921D01*
X5444921Y-308921D02*
X5444921Y-237079D01*
X5373079Y-237079D01*
X5373079Y-308921D01*
X5444921Y-308921D01*
X5444921Y-562921D02*
X5444921Y-491079D01*
X5373079Y-491079D01*
X5373079Y-562921D01*
X5444921Y-562921D01*
X5698921Y-308921D02*
X5698921Y-237079D01*
X5627079Y-237079D01*
X5627079Y-308921D01*
X5698921Y-308921D01*
X5698921Y-562921D02*
X5698921Y-491079D01*
X5627079Y-491079D01*
X5627079Y-562921D01*
X5698921Y-562921D01*
D11*
X250119Y-5967976D02*
X250119Y-5767976D01*
X297738Y-5767976D01*
X326310Y-5777500D01*
X345357Y-5796548D01*
X354881Y-5815595D01*
X364405Y-5853690D01*
X364405Y-5882262D01*
X354881Y-5920357D01*
X345357Y-5939405D01*
X326310Y-5958452D01*
X297738Y-5967976D01*
X250119Y-5967976D01*
X450119Y-5967976D02*
X450119Y-5834643D01*
X450119Y-5872738D02*
X459643Y-5853690D01*
X469167Y-5844167D01*
X488214Y-5834643D01*
X507262Y-5834643D01*
X573929Y-5967976D02*
X573929Y-5834643D01*
X573929Y-5767976D02*
X564405Y-5777500D01*
X573929Y-5787024D01*
X583452Y-5777500D01*
X573929Y-5767976D01*
X573929Y-5787024D01*
X697738Y-5967976D02*
X678690Y-5958452D01*
X669167Y-5939405D01*
X669167Y-5767976D01*
X802500Y-5967976D02*
X783452Y-5958452D01*
X773928Y-5939405D01*
X773928Y-5767976D01*
X1031071Y-5967976D02*
X1031071Y-5767976D01*
X1097738Y-5910833D01*
X1164405Y-5767976D01*
X1164405Y-5967976D01*
X1345357Y-5967976D02*
X1345357Y-5863214D01*
X1335833Y-5844167D01*
X1316786Y-5834643D01*
X1278690Y-5834643D01*
X1259643Y-5844167D01*
X1345357Y-5958452D02*
X1326310Y-5967976D01*
X1278690Y-5967976D01*
X1259643Y-5958452D01*
X1250119Y-5939405D01*
X1250119Y-5920357D01*
X1259643Y-5901309D01*
X1278690Y-5891786D01*
X1326310Y-5891786D01*
X1345357Y-5882262D01*
X1440595Y-5834643D02*
X1440595Y-6034643D01*
X1440595Y-5844167D02*
X1459643Y-5834643D01*
X1497738Y-5834643D01*
X1516786Y-5844167D01*
X1526309Y-5853690D01*
X1535833Y-5872738D01*
X1535833Y-5929881D01*
X1526309Y-5948928D01*
X1516786Y-5958452D01*
X1497738Y-5967976D01*
X1459643Y-5967976D01*
X1440595Y-5958452D01*
X1621548Y-5948928D02*
X1631071Y-5958452D01*
X1621548Y-5967976D01*
X1612024Y-5958452D01*
X1621548Y-5948928D01*
X1621548Y-5967976D01*
X1621548Y-5844167D02*
X1631071Y-5853690D01*
X1621548Y-5863214D01*
X1612024Y-5853690D01*
X1621548Y-5844167D01*
X1621548Y-5863214D01*
D12*
X-47500Y-6277500D02*
X-7500Y-6317500D01*
X-7500Y-6277500D02*
X-47500Y-6317500D01*
D11*
X288214Y-6187976D02*
X307262Y-6187976D01*
X326310Y-6197500D01*
X335833Y-6207024D01*
X345357Y-6226071D01*
X354881Y-6264167D01*
X354881Y-6311786D01*
X345357Y-6349881D01*
X335833Y-6368928D01*
X326310Y-6378452D01*
X307262Y-6387976D01*
X288214Y-6387976D01*
X269167Y-6378452D01*
X259643Y-6368928D01*
X250119Y-6349881D01*
X240595Y-6311786D01*
X240595Y-6264167D01*
X250119Y-6226071D01*
X259643Y-6207024D01*
X269167Y-6197500D01*
X288214Y-6187976D01*
X440595Y-6368928D02*
X450119Y-6378452D01*
X440595Y-6387976D01*
X431071Y-6378452D01*
X440595Y-6368928D01*
X440595Y-6387976D01*
X621548Y-6254643D02*
X621548Y-6387976D01*
X573929Y-6178452D02*
X526310Y-6321309D01*
X650119Y-6321309D01*
X764405Y-6187976D02*
X783452Y-6187976D01*
X802500Y-6197500D01*
X812024Y-6207024D01*
X821548Y-6226071D01*
X831071Y-6264167D01*
X831071Y-6311786D01*
X821548Y-6349881D01*
X812024Y-6368928D01*
X802500Y-6378452D01*
X783452Y-6387976D01*
X764405Y-6387976D01*
X745357Y-6378452D01*
X735833Y-6368928D01*
X726309Y-6349881D01*
X716786Y-6311786D01*
X716786Y-6264167D01*
X726309Y-6226071D01*
X735833Y-6207024D01*
X745357Y-6197500D01*
X764405Y-6187976D01*
X954881Y-6187976D02*
X973928Y-6187976D01*
X992976Y-6197500D01*
X1002500Y-6207024D01*
X1012024Y-6226071D01*
X1021548Y-6264167D01*
X1021548Y-6311786D01*
X1012024Y-6349881D01*
X1002500Y-6368928D01*
X992976Y-6378452D01*
X973928Y-6387976D01*
X954881Y-6387976D01*
X935833Y-6378452D01*
X926309Y-6368928D01*
X916786Y-6349881D01*
X907262Y-6311786D01*
X907262Y-6264167D01*
X916786Y-6226071D01*
X926309Y-6207024D01*
X935833Y-6197500D01*
X954881Y-6187976D01*
X1107262Y-6387976D02*
X1107262Y-6254643D01*
X1107262Y-6273690D02*
X1116786Y-6264167D01*
X1135833Y-6254643D01*
X1164405Y-6254643D01*
X1183452Y-6264167D01*
X1192976Y-6283214D01*
X1192976Y-6387976D01*
X1192976Y-6283214D02*
X1202500Y-6264167D01*
X1221548Y-6254643D01*
X1250119Y-6254643D01*
X1269167Y-6264167D01*
X1278690Y-6283214D01*
X1278690Y-6387976D01*
X1373929Y-6387976D02*
X1373929Y-6254643D01*
X1373929Y-6273690D02*
X1383452Y-6264167D01*
X1402500Y-6254643D01*
X1431071Y-6254643D01*
X1450119Y-6264167D01*
X1459643Y-6283214D01*
X1459643Y-6387976D01*
X1459643Y-6283214D02*
X1469167Y-6264167D01*
X1488214Y-6254643D01*
X1516786Y-6254643D01*
X1535833Y-6264167D01*
X1545357Y-6283214D01*
X1545357Y-6387976D01*
X1935833Y-6178452D02*
X1764405Y-6435595D01*
X2192976Y-6187976D02*
X2212024Y-6187976D01*
X2231071Y-6197500D01*
X2240595Y-6207024D01*
X2250119Y-6226071D01*
X2259643Y-6264167D01*
X2259643Y-6311786D01*
X2250119Y-6349881D01*
X2240595Y-6368928D01*
X2231071Y-6378452D01*
X2212024Y-6387976D01*
X2192976Y-6387976D01*
X2173929Y-6378452D01*
X2164405Y-6368928D01*
X2154881Y-6349881D01*
X2145357Y-6311786D01*
X2145357Y-6264167D01*
X2154881Y-6226071D01*
X2164405Y-6207024D01*
X2173929Y-6197500D01*
X2192976Y-6187976D01*
X2345357Y-6368928D02*
X2354881Y-6378452D01*
X2345357Y-6387976D01*
X2335833Y-6378452D01*
X2345357Y-6368928D01*
X2345357Y-6387976D01*
X2478690Y-6187976D02*
X2497738Y-6187976D01*
X2516786Y-6197500D01*
X2526310Y-6207024D01*
X2535833Y-6226071D01*
X2545357Y-6264167D01*
X2545357Y-6311786D01*
X2535833Y-6349881D01*
X2526310Y-6368928D01*
X2516786Y-6378452D01*
X2497738Y-6387976D01*
X2478690Y-6387976D01*
X2459643Y-6378452D01*
X2450119Y-6368928D01*
X2440595Y-6349881D01*
X2431071Y-6311786D01*
X2431071Y-6264167D01*
X2440595Y-6226071D01*
X2450119Y-6207024D01*
X2459643Y-6197500D01*
X2478690Y-6187976D01*
X2735833Y-6387976D02*
X2621548Y-6387976D01*
X2678690Y-6387976D02*
X2678690Y-6187976D01*
X2659643Y-6216548D01*
X2640595Y-6235595D01*
X2621548Y-6245119D01*
X2916786Y-6187976D02*
X2821548Y-6187976D01*
X2812024Y-6283214D01*
X2821548Y-6273690D01*
X2840595Y-6264167D01*
X2888214Y-6264167D01*
X2907262Y-6273690D01*
X2916786Y-6283214D01*
X2926309Y-6302262D01*
X2926309Y-6349881D01*
X2916786Y-6368928D01*
X2907262Y-6378452D01*
X2888214Y-6387976D01*
X2840595Y-6387976D01*
X2821548Y-6378452D01*
X2812024Y-6368928D01*
X2992976Y-6187976D02*
X3126309Y-6187976D01*
X3040595Y-6387976D01*
X3192976Y-6187976D02*
X3192976Y-6226071D01*
X3269167Y-6187976D02*
X3269167Y-6226071D01*
X3564405Y-6464167D02*
X3554881Y-6454643D01*
X3535833Y-6426071D01*
X3526309Y-6407024D01*
X3516786Y-6378452D01*
X3507262Y-6330833D01*
X3507262Y-6292738D01*
X3516786Y-6245119D01*
X3526309Y-6216548D01*
X3535833Y-6197500D01*
X3554881Y-6168928D01*
X3564405Y-6159405D01*
X3669167Y-6273690D02*
X3650119Y-6264167D01*
X3640595Y-6254643D01*
X3631071Y-6235595D01*
X3631071Y-6226071D01*
X3640595Y-6207024D01*
X3650119Y-6197500D01*
X3669167Y-6187976D01*
X3707262Y-6187976D01*
X3726309Y-6197500D01*
X3735833Y-6207024D01*
X3745357Y-6226071D01*
X3745357Y-6235595D01*
X3735833Y-6254643D01*
X3726309Y-6264167D01*
X3707262Y-6273690D01*
X3669167Y-6273690D01*
X3650119Y-6283214D01*
X3640595Y-6292738D01*
X3631071Y-6311786D01*
X3631071Y-6349881D01*
X3640595Y-6368928D01*
X3650119Y-6378452D01*
X3669167Y-6387976D01*
X3707262Y-6387976D01*
X3726309Y-6378452D01*
X3735833Y-6368928D01*
X3745357Y-6349881D01*
X3745357Y-6311786D01*
X3735833Y-6292738D01*
X3726309Y-6283214D01*
X3707262Y-6273690D01*
X3821548Y-6207024D02*
X3831071Y-6197500D01*
X3850119Y-6187976D01*
X3897738Y-6187976D01*
X3916786Y-6197500D01*
X3926309Y-6207024D01*
X3935833Y-6226071D01*
X3935833Y-6245119D01*
X3926309Y-6273690D01*
X3812024Y-6387976D01*
X3935833Y-6387976D01*
X4173928Y-6387976D02*
X4173928Y-6187976D01*
X4259643Y-6387976D02*
X4259643Y-6283214D01*
X4250119Y-6264167D01*
X4231071Y-6254643D01*
X4202500Y-6254643D01*
X4183452Y-6264167D01*
X4173928Y-6273690D01*
X4383452Y-6387976D02*
X4364405Y-6378452D01*
X4354881Y-6368928D01*
X4345357Y-6349881D01*
X4345357Y-6292738D01*
X4354881Y-6273690D01*
X4364405Y-6264167D01*
X4383452Y-6254643D01*
X4412024Y-6254643D01*
X4431071Y-6264167D01*
X4440595Y-6273690D01*
X4450119Y-6292738D01*
X4450119Y-6349881D01*
X4440595Y-6368928D01*
X4431071Y-6378452D01*
X4412024Y-6387976D01*
X4383452Y-6387976D01*
X4564405Y-6387976D02*
X4545357Y-6378452D01*
X4535833Y-6359405D01*
X4535833Y-6187976D01*
X4716786Y-6378452D02*
X4697738Y-6387976D01*
X4659643Y-6387976D01*
X4640595Y-6378452D01*
X4631071Y-6359405D01*
X4631071Y-6283214D01*
X4640595Y-6264167D01*
X4659643Y-6254643D01*
X4697738Y-6254643D01*
X4716786Y-6264167D01*
X4726310Y-6283214D01*
X4726310Y-6302262D01*
X4631071Y-6321309D01*
X4802500Y-6378452D02*
X4821548Y-6387976D01*
X4859643Y-6387976D01*
X4878690Y-6378452D01*
X4888214Y-6359405D01*
X4888214Y-6349881D01*
X4878690Y-6330833D01*
X4859643Y-6321309D01*
X4831071Y-6321309D01*
X4812024Y-6311786D01*
X4802500Y-6292738D01*
X4802500Y-6283214D01*
X4812024Y-6264167D01*
X4831071Y-6254643D01*
X4859643Y-6254643D01*
X4878690Y-6264167D01*
X4954881Y-6464167D02*
X4964405Y-6454643D01*
X4983452Y-6426071D01*
X4992976Y-6407024D01*
X5002500Y-6378452D01*
X5012024Y-6330833D01*
X5012024Y-6292738D01*
X5002500Y-6245119D01*
X4992976Y-6216548D01*
X4983452Y-6197500D01*
X4964405Y-6168928D01*
X4954881Y-6159405D01*
D13*
X-7500Y-6561500D02*
G75*
G03*
X-7500Y-6561500I-25000J0D01*
G01*
D11*
X288214Y-6451976D02*
X307262Y-6451976D01*
X326310Y-6461500D01*
X335833Y-6471024D01*
X345357Y-6490071D01*
X354881Y-6528167D01*
X354881Y-6575786D01*
X345357Y-6613881D01*
X335833Y-6632928D01*
X326310Y-6642452D01*
X307262Y-6651976D01*
X288214Y-6651976D01*
X269167Y-6642452D01*
X259643Y-6632928D01*
X250119Y-6613881D01*
X240595Y-6575786D01*
X240595Y-6528167D01*
X250119Y-6490071D01*
X259643Y-6471024D01*
X269167Y-6461500D01*
X288214Y-6451976D01*
X440595Y-6632928D02*
X450119Y-6642452D01*
X440595Y-6651976D01*
X431071Y-6642452D01*
X440595Y-6632928D01*
X440595Y-6651976D01*
X631071Y-6451976D02*
X535833Y-6451976D01*
X526310Y-6547214D01*
X535833Y-6537690D01*
X554881Y-6528167D01*
X602500Y-6528167D01*
X621548Y-6537690D01*
X631071Y-6547214D01*
X640595Y-6566262D01*
X640595Y-6613881D01*
X631071Y-6632928D01*
X621548Y-6642452D01*
X602500Y-6651976D01*
X554881Y-6651976D01*
X535833Y-6642452D01*
X526310Y-6632928D01*
X764405Y-6451976D02*
X783452Y-6451976D01*
X802500Y-6461500D01*
X812024Y-6471024D01*
X821548Y-6490071D01*
X831071Y-6528167D01*
X831071Y-6575786D01*
X821548Y-6613881D01*
X812024Y-6632928D01*
X802500Y-6642452D01*
X783452Y-6651976D01*
X764405Y-6651976D01*
X745357Y-6642452D01*
X735833Y-6632928D01*
X726309Y-6613881D01*
X716786Y-6575786D01*
X716786Y-6528167D01*
X726309Y-6490071D01*
X735833Y-6471024D01*
X745357Y-6461500D01*
X764405Y-6451976D01*
X954881Y-6451976D02*
X973928Y-6451976D01*
X992976Y-6461500D01*
X1002500Y-6471024D01*
X1012024Y-6490071D01*
X1021548Y-6528167D01*
X1021548Y-6575786D01*
X1012024Y-6613881D01*
X1002500Y-6632928D01*
X992976Y-6642452D01*
X973928Y-6651976D01*
X954881Y-6651976D01*
X935833Y-6642452D01*
X926309Y-6632928D01*
X916786Y-6613881D01*
X907262Y-6575786D01*
X907262Y-6528167D01*
X916786Y-6490071D01*
X926309Y-6471024D01*
X935833Y-6461500D01*
X954881Y-6451976D01*
X1107262Y-6651976D02*
X1107262Y-6518643D01*
X1107262Y-6537690D02*
X1116786Y-6528167D01*
X1135833Y-6518643D01*
X1164405Y-6518643D01*
X1183452Y-6528167D01*
X1192976Y-6547214D01*
X1192976Y-6651976D01*
X1192976Y-6547214D02*
X1202500Y-6528167D01*
X1221548Y-6518643D01*
X1250119Y-6518643D01*
X1269167Y-6528167D01*
X1278690Y-6547214D01*
X1278690Y-6651976D01*
X1373929Y-6651976D02*
X1373929Y-6518643D01*
X1373929Y-6537690D02*
X1383452Y-6528167D01*
X1402500Y-6518643D01*
X1431071Y-6518643D01*
X1450119Y-6528167D01*
X1459643Y-6547214D01*
X1459643Y-6651976D01*
X1459643Y-6547214D02*
X1469167Y-6528167D01*
X1488214Y-6518643D01*
X1516786Y-6518643D01*
X1535833Y-6528167D01*
X1545357Y-6547214D01*
X1545357Y-6651976D01*
X1935833Y-6442452D02*
X1764405Y-6699595D01*
X2192976Y-6451976D02*
X2212024Y-6451976D01*
X2231071Y-6461500D01*
X2240595Y-6471024D01*
X2250119Y-6490071D01*
X2259643Y-6528167D01*
X2259643Y-6575786D01*
X2250119Y-6613881D01*
X2240595Y-6632928D01*
X2231071Y-6642452D01*
X2212024Y-6651976D01*
X2192976Y-6651976D01*
X2173929Y-6642452D01*
X2164405Y-6632928D01*
X2154881Y-6613881D01*
X2145357Y-6575786D01*
X2145357Y-6528167D01*
X2154881Y-6490071D01*
X2164405Y-6471024D01*
X2173929Y-6461500D01*
X2192976Y-6451976D01*
X2345357Y-6632928D02*
X2354881Y-6642452D01*
X2345357Y-6651976D01*
X2335833Y-6642452D01*
X2345357Y-6632928D01*
X2345357Y-6651976D01*
X2478690Y-6451976D02*
X2497738Y-6451976D01*
X2516786Y-6461500D01*
X2526310Y-6471024D01*
X2535833Y-6490071D01*
X2545357Y-6528167D01*
X2545357Y-6575786D01*
X2535833Y-6613881D01*
X2526310Y-6632928D01*
X2516786Y-6642452D01*
X2497738Y-6651976D01*
X2478690Y-6651976D01*
X2459643Y-6642452D01*
X2450119Y-6632928D01*
X2440595Y-6613881D01*
X2431071Y-6575786D01*
X2431071Y-6528167D01*
X2440595Y-6490071D01*
X2450119Y-6471024D01*
X2459643Y-6461500D01*
X2478690Y-6451976D01*
X2735833Y-6651976D02*
X2621548Y-6651976D01*
X2678690Y-6651976D02*
X2678690Y-6451976D01*
X2659643Y-6480548D01*
X2640595Y-6499595D01*
X2621548Y-6509119D01*
X2831071Y-6651976D02*
X2869167Y-6651976D01*
X2888214Y-6642452D01*
X2897738Y-6632928D01*
X2916786Y-6604357D01*
X2926309Y-6566262D01*
X2926309Y-6490071D01*
X2916786Y-6471024D01*
X2907262Y-6461500D01*
X2888214Y-6451976D01*
X2850119Y-6451976D01*
X2831071Y-6461500D01*
X2821548Y-6471024D01*
X2812024Y-6490071D01*
X2812024Y-6537690D01*
X2821548Y-6556738D01*
X2831071Y-6566262D01*
X2850119Y-6575786D01*
X2888214Y-6575786D01*
X2907262Y-6566262D01*
X2916786Y-6556738D01*
X2926309Y-6537690D01*
X2992976Y-6451976D02*
X3126309Y-6451976D01*
X3040595Y-6651976D01*
X3192976Y-6451976D02*
X3192976Y-6490071D01*
X3269167Y-6451976D02*
X3269167Y-6490071D01*
X3564405Y-6728167D02*
X3554881Y-6718643D01*
X3535833Y-6690071D01*
X3526309Y-6671024D01*
X3516786Y-6642452D01*
X3507262Y-6594833D01*
X3507262Y-6556738D01*
X3516786Y-6509119D01*
X3526309Y-6480548D01*
X3535833Y-6461500D01*
X3554881Y-6432928D01*
X3564405Y-6423405D01*
X3621548Y-6451976D02*
X3754881Y-6451976D01*
X3669167Y-6651976D01*
X3812024Y-6451976D02*
X3945357Y-6451976D01*
X3859643Y-6651976D01*
X4173928Y-6651976D02*
X4173928Y-6451976D01*
X4259643Y-6651976D02*
X4259643Y-6547214D01*
X4250119Y-6528167D01*
X4231071Y-6518643D01*
X4202500Y-6518643D01*
X4183452Y-6528167D01*
X4173928Y-6537690D01*
X4383452Y-6651976D02*
X4364405Y-6642452D01*
X4354881Y-6632928D01*
X4345357Y-6613881D01*
X4345357Y-6556738D01*
X4354881Y-6537690D01*
X4364405Y-6528167D01*
X4383452Y-6518643D01*
X4412024Y-6518643D01*
X4431071Y-6528167D01*
X4440595Y-6537690D01*
X4450119Y-6556738D01*
X4450119Y-6613881D01*
X4440595Y-6632928D01*
X4431071Y-6642452D01*
X4412024Y-6651976D01*
X4383452Y-6651976D01*
X4564405Y-6651976D02*
X4545357Y-6642452D01*
X4535833Y-6623405D01*
X4535833Y-6451976D01*
X4716786Y-6642452D02*
X4697738Y-6651976D01*
X4659643Y-6651976D01*
X4640595Y-6642452D01*
X4631071Y-6623405D01*
X4631071Y-6547214D01*
X4640595Y-6528167D01*
X4659643Y-6518643D01*
X4697738Y-6518643D01*
X4716786Y-6528167D01*
X4726310Y-6547214D01*
X4726310Y-6566262D01*
X4631071Y-6585309D01*
X4802500Y-6642452D02*
X4821548Y-6651976D01*
X4859643Y-6651976D01*
X4878690Y-6642452D01*
X4888214Y-6623405D01*
X4888214Y-6613881D01*
X4878690Y-6594833D01*
X4859643Y-6585309D01*
X4831071Y-6585309D01*
X4812024Y-6575786D01*
X4802500Y-6556738D01*
X4802500Y-6547214D01*
X4812024Y-6528167D01*
X4831071Y-6518643D01*
X4859643Y-6518643D01*
X4878690Y-6528167D01*
X4954881Y-6728167D02*
X4964405Y-6718643D01*
X4983452Y-6690071D01*
X4992976Y-6671024D01*
X5002500Y-6642452D01*
X5012024Y-6594833D01*
X5012024Y-6556738D01*
X5002500Y-6509119D01*
X4992976Y-6480548D01*
X4983452Y-6461500D01*
X4964405Y-6432928D01*
X4954881Y-6423405D01*
D14*
X-47500Y-6785500D02*
X-47500Y-6865500D01*
X-87500Y-6825500D02*
X-7500Y-6825500D01*
D11*
X288214Y-6715976D02*
X307262Y-6715976D01*
X326310Y-6725500D01*
X335833Y-6735024D01*
X345357Y-6754071D01*
X354881Y-6792167D01*
X354881Y-6839786D01*
X345357Y-6877881D01*
X335833Y-6896928D01*
X326310Y-6906452D01*
X307262Y-6915976D01*
X288214Y-6915976D01*
X269167Y-6906452D01*
X259643Y-6896928D01*
X250119Y-6877881D01*
X240595Y-6839786D01*
X240595Y-6792167D01*
X250119Y-6754071D01*
X259643Y-6735024D01*
X269167Y-6725500D01*
X288214Y-6715976D01*
X440595Y-6896928D02*
X450119Y-6906452D01*
X440595Y-6915976D01*
X431071Y-6906452D01*
X440595Y-6896928D01*
X440595Y-6915976D01*
X564405Y-6801690D02*
X545357Y-6792167D01*
X535833Y-6782643D01*
X526310Y-6763595D01*
X526310Y-6754071D01*
X535833Y-6735024D01*
X545357Y-6725500D01*
X564405Y-6715976D01*
X602500Y-6715976D01*
X621548Y-6725500D01*
X631071Y-6735024D01*
X640595Y-6754071D01*
X640595Y-6763595D01*
X631071Y-6782643D01*
X621548Y-6792167D01*
X602500Y-6801690D01*
X564405Y-6801690D01*
X545357Y-6811214D01*
X535833Y-6820738D01*
X526310Y-6839786D01*
X526310Y-6877881D01*
X535833Y-6896928D01*
X545357Y-6906452D01*
X564405Y-6915976D01*
X602500Y-6915976D01*
X621548Y-6906452D01*
X631071Y-6896928D01*
X640595Y-6877881D01*
X640595Y-6839786D01*
X631071Y-6820738D01*
X621548Y-6811214D01*
X602500Y-6801690D01*
X764405Y-6715976D02*
X783452Y-6715976D01*
X802500Y-6725500D01*
X812024Y-6735024D01*
X821548Y-6754071D01*
X831071Y-6792167D01*
X831071Y-6839786D01*
X821548Y-6877881D01*
X812024Y-6896928D01*
X802500Y-6906452D01*
X783452Y-6915976D01*
X764405Y-6915976D01*
X745357Y-6906452D01*
X735833Y-6896928D01*
X726309Y-6877881D01*
X716786Y-6839786D01*
X716786Y-6792167D01*
X726309Y-6754071D01*
X735833Y-6735024D01*
X745357Y-6725500D01*
X764405Y-6715976D01*
X954881Y-6715976D02*
X973928Y-6715976D01*
X992976Y-6725500D01*
X1002500Y-6735024D01*
X1012024Y-6754071D01*
X1021548Y-6792167D01*
X1021548Y-6839786D01*
X1012024Y-6877881D01*
X1002500Y-6896928D01*
X992976Y-6906452D01*
X973928Y-6915976D01*
X954881Y-6915976D01*
X935833Y-6906452D01*
X926309Y-6896928D01*
X916786Y-6877881D01*
X907262Y-6839786D01*
X907262Y-6792167D01*
X916786Y-6754071D01*
X926309Y-6735024D01*
X935833Y-6725500D01*
X954881Y-6715976D01*
X1107262Y-6915976D02*
X1107262Y-6782643D01*
X1107262Y-6801690D02*
X1116786Y-6792167D01*
X1135833Y-6782643D01*
X1164405Y-6782643D01*
X1183452Y-6792167D01*
X1192976Y-6811214D01*
X1192976Y-6915976D01*
X1192976Y-6811214D02*
X1202500Y-6792167D01*
X1221548Y-6782643D01*
X1250119Y-6782643D01*
X1269167Y-6792167D01*
X1278690Y-6811214D01*
X1278690Y-6915976D01*
X1373929Y-6915976D02*
X1373929Y-6782643D01*
X1373929Y-6801690D02*
X1383452Y-6792167D01*
X1402500Y-6782643D01*
X1431071Y-6782643D01*
X1450119Y-6792167D01*
X1459643Y-6811214D01*
X1459643Y-6915976D01*
X1459643Y-6811214D02*
X1469167Y-6792167D01*
X1488214Y-6782643D01*
X1516786Y-6782643D01*
X1535833Y-6792167D01*
X1545357Y-6811214D01*
X1545357Y-6915976D01*
X1935833Y-6706452D02*
X1764405Y-6963595D01*
X2192976Y-6715976D02*
X2212024Y-6715976D01*
X2231071Y-6725500D01*
X2240595Y-6735024D01*
X2250119Y-6754071D01*
X2259643Y-6792167D01*
X2259643Y-6839786D01*
X2250119Y-6877881D01*
X2240595Y-6896928D01*
X2231071Y-6906452D01*
X2212024Y-6915976D01*
X2192976Y-6915976D01*
X2173929Y-6906452D01*
X2164405Y-6896928D01*
X2154881Y-6877881D01*
X2145357Y-6839786D01*
X2145357Y-6792167D01*
X2154881Y-6754071D01*
X2164405Y-6735024D01*
X2173929Y-6725500D01*
X2192976Y-6715976D01*
X2345357Y-6896928D02*
X2354881Y-6906452D01*
X2345357Y-6915976D01*
X2335833Y-6906452D01*
X2345357Y-6896928D01*
X2345357Y-6915976D01*
X2478690Y-6715976D02*
X2497738Y-6715976D01*
X2516786Y-6725500D01*
X2526310Y-6735024D01*
X2535833Y-6754071D01*
X2545357Y-6792167D01*
X2545357Y-6839786D01*
X2535833Y-6877881D01*
X2526310Y-6896928D01*
X2516786Y-6906452D01*
X2497738Y-6915976D01*
X2478690Y-6915976D01*
X2459643Y-6906452D01*
X2450119Y-6896928D01*
X2440595Y-6877881D01*
X2431071Y-6839786D01*
X2431071Y-6792167D01*
X2440595Y-6754071D01*
X2450119Y-6735024D01*
X2459643Y-6725500D01*
X2478690Y-6715976D01*
X2612024Y-6715976D02*
X2735833Y-6715976D01*
X2669167Y-6792167D01*
X2697738Y-6792167D01*
X2716786Y-6801690D01*
X2726310Y-6811214D01*
X2735833Y-6830262D01*
X2735833Y-6877881D01*
X2726310Y-6896928D01*
X2716786Y-6906452D01*
X2697738Y-6915976D01*
X2640595Y-6915976D01*
X2621548Y-6906452D01*
X2612024Y-6896928D01*
X2926309Y-6915976D02*
X2812024Y-6915976D01*
X2869167Y-6915976D02*
X2869167Y-6715976D01*
X2850119Y-6744548D01*
X2831071Y-6763595D01*
X2812024Y-6773119D01*
X3107262Y-6715976D02*
X3012024Y-6715976D01*
X3002500Y-6811214D01*
X3012024Y-6801690D01*
X3031071Y-6792167D01*
X3078690Y-6792167D01*
X3097738Y-6801690D01*
X3107262Y-6811214D01*
X3116786Y-6830262D01*
X3116786Y-6877881D01*
X3107262Y-6896928D01*
X3097738Y-6906452D01*
X3078690Y-6915976D01*
X3031071Y-6915976D01*
X3012024Y-6906452D01*
X3002500Y-6896928D01*
X3192976Y-6715976D02*
X3192976Y-6754071D01*
X3269167Y-6715976D02*
X3269167Y-6754071D01*
X3564405Y-6992167D02*
X3554881Y-6982643D01*
X3535833Y-6954071D01*
X3526309Y-6935024D01*
X3516786Y-6906452D01*
X3507262Y-6858833D01*
X3507262Y-6820738D01*
X3516786Y-6773119D01*
X3526309Y-6744548D01*
X3535833Y-6725500D01*
X3554881Y-6696928D01*
X3564405Y-6687405D01*
X3631071Y-6735024D02*
X3640595Y-6725500D01*
X3659643Y-6715976D01*
X3707262Y-6715976D01*
X3726309Y-6725500D01*
X3735833Y-6735024D01*
X3745357Y-6754071D01*
X3745357Y-6773119D01*
X3735833Y-6801690D01*
X3621548Y-6915976D01*
X3745357Y-6915976D01*
X3983452Y-6915976D02*
X3983452Y-6715976D01*
X4069167Y-6915976D02*
X4069167Y-6811214D01*
X4059643Y-6792167D01*
X4040595Y-6782643D01*
X4012024Y-6782643D01*
X3992976Y-6792167D01*
X3983452Y-6801690D01*
X4192976Y-6915976D02*
X4173928Y-6906452D01*
X4164405Y-6896928D01*
X4154881Y-6877881D01*
X4154881Y-6820738D01*
X4164405Y-6801690D01*
X4173928Y-6792167D01*
X4192976Y-6782643D01*
X4221548Y-6782643D01*
X4240595Y-6792167D01*
X4250119Y-6801690D01*
X4259643Y-6820738D01*
X4259643Y-6877881D01*
X4250119Y-6896928D01*
X4240595Y-6906452D01*
X4221548Y-6915976D01*
X4192976Y-6915976D01*
X4373929Y-6915976D02*
X4354881Y-6906452D01*
X4345357Y-6887405D01*
X4345357Y-6715976D01*
X4526310Y-6906452D02*
X4507262Y-6915976D01*
X4469167Y-6915976D01*
X4450119Y-6906452D01*
X4440595Y-6887405D01*
X4440595Y-6811214D01*
X4450119Y-6792167D01*
X4469167Y-6782643D01*
X4507262Y-6782643D01*
X4526310Y-6792167D01*
X4535833Y-6811214D01*
X4535833Y-6830262D01*
X4440595Y-6849309D01*
X4612024Y-6906452D02*
X4631071Y-6915976D01*
X4669167Y-6915976D01*
X4688214Y-6906452D01*
X4697738Y-6887405D01*
X4697738Y-6877881D01*
X4688214Y-6858833D01*
X4669167Y-6849309D01*
X4640595Y-6849309D01*
X4621548Y-6839786D01*
X4612024Y-6820738D01*
X4612024Y-6811214D01*
X4621548Y-6792167D01*
X4640595Y-6782643D01*
X4669167Y-6782643D01*
X4688214Y-6792167D01*
X4764405Y-6992167D02*
X4773929Y-6982643D01*
X4792976Y-6954071D01*
X4802500Y-6935024D01*
X4812024Y-6906452D01*
X4821548Y-6858833D01*
X4821548Y-6820738D01*
X4812024Y-6773119D01*
X4802500Y-6744548D01*
X4792976Y-6725500D01*
X4773929Y-6696928D01*
X4764405Y-6687405D01*
D15*
X-22379Y-7125421D02*
X-22379Y-7053579D01*
X-94221Y-7053579D01*
X-94221Y-7125421D01*
X-22379Y-7125421D01*
D11*
X354881Y-7179976D02*
X240595Y-7179976D01*
X297738Y-7179976D02*
X297738Y-6979976D01*
X278690Y-7008548D01*
X259643Y-7027595D01*
X240595Y-7037119D01*
X440595Y-7160928D02*
X450119Y-7170452D01*
X440595Y-7179976D01*
X431071Y-7170452D01*
X440595Y-7160928D01*
X440595Y-7179976D01*
X573929Y-6979976D02*
X592976Y-6979976D01*
X612024Y-6989500D01*
X621548Y-6999024D01*
X631071Y-7018071D01*
X640595Y-7056167D01*
X640595Y-7103786D01*
X631071Y-7141881D01*
X621548Y-7160928D01*
X612024Y-7170452D01*
X592976Y-7179976D01*
X573929Y-7179976D01*
X554881Y-7170452D01*
X545357Y-7160928D01*
X535833Y-7141881D01*
X526310Y-7103786D01*
X526310Y-7056167D01*
X535833Y-7018071D01*
X545357Y-6999024D01*
X554881Y-6989500D01*
X573929Y-6979976D01*
X831071Y-7179976D02*
X716786Y-7179976D01*
X773928Y-7179976D02*
X773928Y-6979976D01*
X754881Y-7008548D01*
X735833Y-7027595D01*
X716786Y-7037119D01*
X1002500Y-6979976D02*
X964405Y-6979976D01*
X945357Y-6989500D01*
X935833Y-6999024D01*
X916786Y-7027595D01*
X907262Y-7065690D01*
X907262Y-7141881D01*
X916786Y-7160928D01*
X926309Y-7170452D01*
X945357Y-7179976D01*
X983452Y-7179976D01*
X1002500Y-7170452D01*
X1012024Y-7160928D01*
X1021548Y-7141881D01*
X1021548Y-7094262D01*
X1012024Y-7075214D01*
X1002500Y-7065690D01*
X983452Y-7056167D01*
X945357Y-7056167D01*
X926309Y-7065690D01*
X916786Y-7075214D01*
X907262Y-7094262D01*
X1107262Y-7179976D02*
X1107262Y-7046643D01*
X1107262Y-7065690D02*
X1116786Y-7056167D01*
X1135833Y-7046643D01*
X1164405Y-7046643D01*
X1183452Y-7056167D01*
X1192976Y-7075214D01*
X1192976Y-7179976D01*
X1192976Y-7075214D02*
X1202500Y-7056167D01*
X1221548Y-7046643D01*
X1250119Y-7046643D01*
X1269167Y-7056167D01*
X1278690Y-7075214D01*
X1278690Y-7179976D01*
X1373929Y-7179976D02*
X1373929Y-7046643D01*
X1373929Y-7065690D02*
X1383452Y-7056167D01*
X1402500Y-7046643D01*
X1431071Y-7046643D01*
X1450119Y-7056167D01*
X1459643Y-7075214D01*
X1459643Y-7179976D01*
X1459643Y-7075214D02*
X1469167Y-7056167D01*
X1488214Y-7046643D01*
X1516786Y-7046643D01*
X1535833Y-7056167D01*
X1545357Y-7075214D01*
X1545357Y-7179976D01*
X1935833Y-6970452D02*
X1764405Y-7227595D01*
X2192976Y-6979976D02*
X2212024Y-6979976D01*
X2231071Y-6989500D01*
X2240595Y-6999024D01*
X2250119Y-7018071D01*
X2259643Y-7056167D01*
X2259643Y-7103786D01*
X2250119Y-7141881D01*
X2240595Y-7160928D01*
X2231071Y-7170452D01*
X2212024Y-7179976D01*
X2192976Y-7179976D01*
X2173929Y-7170452D01*
X2164405Y-7160928D01*
X2154881Y-7141881D01*
X2145357Y-7103786D01*
X2145357Y-7056167D01*
X2154881Y-7018071D01*
X2164405Y-6999024D01*
X2173929Y-6989500D01*
X2192976Y-6979976D01*
X2345357Y-7160928D02*
X2354881Y-7170452D01*
X2345357Y-7179976D01*
X2335833Y-7170452D01*
X2345357Y-7160928D01*
X2345357Y-7179976D01*
X2478690Y-6979976D02*
X2497738Y-6979976D01*
X2516786Y-6989500D01*
X2526310Y-6999024D01*
X2535833Y-7018071D01*
X2545357Y-7056167D01*
X2545357Y-7103786D01*
X2535833Y-7141881D01*
X2526310Y-7160928D01*
X2516786Y-7170452D01*
X2497738Y-7179976D01*
X2478690Y-7179976D01*
X2459643Y-7170452D01*
X2450119Y-7160928D01*
X2440595Y-7141881D01*
X2431071Y-7103786D01*
X2431071Y-7056167D01*
X2440595Y-7018071D01*
X2450119Y-6999024D01*
X2459643Y-6989500D01*
X2478690Y-6979976D01*
X2716786Y-7046643D02*
X2716786Y-7179976D01*
X2669167Y-6970452D02*
X2621548Y-7113309D01*
X2745357Y-7113309D01*
X2859643Y-6979976D02*
X2878690Y-6979976D01*
X2897738Y-6989500D01*
X2907262Y-6999024D01*
X2916786Y-7018071D01*
X2926309Y-7056167D01*
X2926309Y-7103786D01*
X2916786Y-7141881D01*
X2907262Y-7160928D01*
X2897738Y-7170452D01*
X2878690Y-7179976D01*
X2859643Y-7179976D01*
X2840595Y-7170452D01*
X2831071Y-7160928D01*
X2821548Y-7141881D01*
X2812024Y-7103786D01*
X2812024Y-7056167D01*
X2821548Y-7018071D01*
X2831071Y-6999024D01*
X2840595Y-6989500D01*
X2859643Y-6979976D01*
X3050119Y-6979976D02*
X3069167Y-6979976D01*
X3088214Y-6989500D01*
X3097738Y-6999024D01*
X3107262Y-7018071D01*
X3116786Y-7056167D01*
X3116786Y-7103786D01*
X3107262Y-7141881D01*
X3097738Y-7160928D01*
X3088214Y-7170452D01*
X3069167Y-7179976D01*
X3050119Y-7179976D01*
X3031071Y-7170452D01*
X3021548Y-7160928D01*
X3012024Y-7141881D01*
X3002500Y-7103786D01*
X3002500Y-7056167D01*
X3012024Y-7018071D01*
X3021548Y-6999024D01*
X3031071Y-6989500D01*
X3050119Y-6979976D01*
X3192976Y-6979976D02*
X3192976Y-7018071D01*
X3269167Y-6979976D02*
X3269167Y-7018071D01*
X3564405Y-7256167D02*
X3554881Y-7246643D01*
X3535833Y-7218071D01*
X3526309Y-7199024D01*
X3516786Y-7170452D01*
X3507262Y-7122833D01*
X3507262Y-7084738D01*
X3516786Y-7037119D01*
X3526309Y-7008548D01*
X3535833Y-6989500D01*
X3554881Y-6960928D01*
X3564405Y-6951405D01*
X3726309Y-6979976D02*
X3688214Y-6979976D01*
X3669167Y-6989500D01*
X3659643Y-6999024D01*
X3640595Y-7027595D01*
X3631071Y-7065690D01*
X3631071Y-7141881D01*
X3640595Y-7160928D01*
X3650119Y-7170452D01*
X3669167Y-7179976D01*
X3707262Y-7179976D01*
X3726309Y-7170452D01*
X3735833Y-7160928D01*
X3745357Y-7141881D01*
X3745357Y-7094262D01*
X3735833Y-7075214D01*
X3726309Y-7065690D01*
X3707262Y-7056167D01*
X3669167Y-7056167D01*
X3650119Y-7065690D01*
X3640595Y-7075214D01*
X3631071Y-7094262D01*
X3869167Y-6979976D02*
X3888214Y-6979976D01*
X3907262Y-6989500D01*
X3916786Y-6999024D01*
X3926309Y-7018071D01*
X3935833Y-7056167D01*
X3935833Y-7103786D01*
X3926309Y-7141881D01*
X3916786Y-7160928D01*
X3907262Y-7170452D01*
X3888214Y-7179976D01*
X3869167Y-7179976D01*
X3850119Y-7170452D01*
X3840595Y-7160928D01*
X3831071Y-7141881D01*
X3821548Y-7103786D01*
X3821548Y-7056167D01*
X3831071Y-7018071D01*
X3840595Y-6999024D01*
X3850119Y-6989500D01*
X3869167Y-6979976D01*
X4173928Y-7179976D02*
X4173928Y-6979976D01*
X4259643Y-7179976D02*
X4259643Y-7075214D01*
X4250119Y-7056167D01*
X4231071Y-7046643D01*
X4202500Y-7046643D01*
X4183452Y-7056167D01*
X4173928Y-7065690D01*
X4383452Y-7179976D02*
X4364405Y-7170452D01*
X4354881Y-7160928D01*
X4345357Y-7141881D01*
X4345357Y-7084738D01*
X4354881Y-7065690D01*
X4364405Y-7056167D01*
X4383452Y-7046643D01*
X4412024Y-7046643D01*
X4431071Y-7056167D01*
X4440595Y-7065690D01*
X4450119Y-7084738D01*
X4450119Y-7141881D01*
X4440595Y-7160928D01*
X4431071Y-7170452D01*
X4412024Y-7179976D01*
X4383452Y-7179976D01*
X4564405Y-7179976D02*
X4545357Y-7170452D01*
X4535833Y-7151405D01*
X4535833Y-6979976D01*
X4716786Y-7170452D02*
X4697738Y-7179976D01*
X4659643Y-7179976D01*
X4640595Y-7170452D01*
X4631071Y-7151405D01*
X4631071Y-7075214D01*
X4640595Y-7056167D01*
X4659643Y-7046643D01*
X4697738Y-7046643D01*
X4716786Y-7056167D01*
X4726310Y-7075214D01*
X4726310Y-7094262D01*
X4631071Y-7113309D01*
X4802500Y-7170452D02*
X4821548Y-7179976D01*
X4859643Y-7179976D01*
X4878690Y-7170452D01*
X4888214Y-7151405D01*
X4888214Y-7141881D01*
X4878690Y-7122833D01*
X4859643Y-7113309D01*
X4831071Y-7113309D01*
X4812024Y-7103786D01*
X4802500Y-7084738D01*
X4802500Y-7075214D01*
X4812024Y-7056167D01*
X4831071Y-7046643D01*
X4859643Y-7046643D01*
X4878690Y-7056167D01*
X4954881Y-7256167D02*
X4964405Y-7246643D01*
X4983452Y-7218071D01*
X4992976Y-7199024D01*
X5002500Y-7170452D01*
X5012024Y-7122833D01*
X5012024Y-7084738D01*
X5002500Y-7037119D01*
X4992976Y-7008548D01*
X4983452Y-6989500D01*
X4964405Y-6960928D01*
X4954881Y-6951405D01*
M02*
