G04 #@! TF.GenerationSoftware,KiCad,Pcbnew,6.0.7+dfsg-1+b1*
G04 #@! TF.CreationDate,2022-09-08T18:59:39+01:00*
G04 #@! TF.ProjectId,owl-driver-board,6f776c2d-6472-4697-9665-722d626f6172,rev?*
G04 #@! TF.SameCoordinates,Original*
G04 #@! TF.FileFunction,Soldermask,Top*
G04 #@! TF.FilePolarity,Negative*
%FSLAX46Y46*%
G04 Gerber Fmt 4.6, Leading zero omitted, Abs format (unit mm)*
G04 Created by KiCad (PCBNEW 6.0.7+dfsg-1+b1) date 2022-09-08 18:59:39*
%MOMM*%
%LPD*%
G01*
G04 APERTURE LIST*
G04 Aperture macros list*
%AMRoundRect*
0 Rectangle with rounded corners*
0 $1 Rounding radius*
0 $2 $3 $4 $5 $6 $7 $8 $9 X,Y pos of 4 corners*
0 Add a 4 corners polygon primitive as box body*
4,1,4,$2,$3,$4,$5,$6,$7,$8,$9,$2,$3,0*
0 Add four circle primitives for the rounded corners*
1,1,$1+$1,$2,$3*
1,1,$1+$1,$4,$5*
1,1,$1+$1,$6,$7*
1,1,$1+$1,$8,$9*
0 Add four rect primitives between the rounded corners*
20,1,$1+$1,$2,$3,$4,$5,0*
20,1,$1+$1,$4,$5,$6,$7,0*
20,1,$1+$1,$6,$7,$8,$9,0*
20,1,$1+$1,$8,$9,$2,$3,0*%
%AMRotRect*
0 Rectangle, with rotation*
0 The origin of the aperture is its center*
0 $1 length*
0 $2 width*
0 $3 Rotation angle, in degrees counterclockwise*
0 Add horizontal line*
21,1,$1,$2,0,0,$3*%
%AMFreePoly0*
4,1,22,0.500000,-0.750000,0.000000,-0.750000,0.000000,-0.745033,-0.079941,-0.743568,-0.215256,-0.701293,-0.333266,-0.622738,-0.424486,-0.514219,-0.481581,-0.384460,-0.499164,-0.250000,-0.500000,-0.250000,-0.500000,0.250000,-0.499164,0.250000,-0.499963,0.256109,-0.478152,0.396186,-0.417904,0.524511,-0.324060,0.630769,-0.204165,0.706417,-0.067858,0.745374,0.000000,0.744959,0.000000,0.750000,
0.500000,0.750000,0.500000,-0.750000,0.500000,-0.750000,$1*%
%AMFreePoly1*
4,1,20,0.000000,0.744959,0.073905,0.744508,0.209726,0.703889,0.328688,0.626782,0.421226,0.519385,0.479903,0.390333,0.500000,0.250000,0.500000,-0.250000,0.499851,-0.262216,0.476331,-0.402017,0.414519,-0.529596,0.319384,-0.634700,0.198574,-0.708877,0.061801,-0.746166,0.000000,-0.745033,0.000000,-0.750000,-0.500000,-0.750000,-0.500000,0.750000,0.000000,0.750000,0.000000,0.744959,
0.000000,0.744959,$1*%
G04 Aperture macros list end*
%ADD10C,6.200000*%
%ADD11R,1.727200X1.727200*%
%ADD12O,1.727200X1.727200*%
%ADD13R,2.500000X1.800000*%
%ADD14RoundRect,0.250000X0.450000X-0.262500X0.450000X0.262500X-0.450000X0.262500X-0.450000X-0.262500X0*%
%ADD15C,2.082800*%
%ADD16RoundRect,0.243750X0.456250X-0.243750X0.456250X0.243750X-0.456250X0.243750X-0.456250X-0.243750X0*%
%ADD17R,6.502400X2.387600*%
%ADD18R,4.495800X2.387600*%
%ADD19RoundRect,0.250000X0.262500X0.450000X-0.262500X0.450000X-0.262500X-0.450000X0.262500X-0.450000X0*%
%ADD20RoundRect,0.225000X-0.225000X-0.250000X0.225000X-0.250000X0.225000X0.250000X-0.225000X0.250000X0*%
%ADD21R,3.600000X2.700000*%
%ADD22R,2.387600X6.502400*%
%ADD23R,2.387600X4.495800*%
%ADD24RoundRect,0.250000X-0.450000X0.262500X-0.450000X-0.262500X0.450000X-0.262500X0.450000X0.262500X0*%
%ADD25RoundRect,0.243750X0.243750X0.456250X-0.243750X0.456250X-0.243750X-0.456250X0.243750X-0.456250X0*%
%ADD26RoundRect,0.150000X-0.150000X0.587500X-0.150000X-0.587500X0.150000X-0.587500X0.150000X0.587500X0*%
%ADD27FreePoly0,0.000000*%
%ADD28FreePoly1,0.000000*%
%ADD29RoundRect,0.250000X-0.325000X-0.650000X0.325000X-0.650000X0.325000X0.650000X-0.325000X0.650000X0*%
%ADD30RoundRect,0.150000X-0.825000X-0.150000X0.825000X-0.150000X0.825000X0.150000X-0.825000X0.150000X0*%
%ADD31RoundRect,0.250000X-0.262500X-0.450000X0.262500X-0.450000X0.262500X0.450000X-0.262500X0.450000X0*%
%ADD32R,1.300000X1.700000*%
%ADD33RoundRect,0.150000X-0.587500X-0.150000X0.587500X-0.150000X0.587500X0.150000X-0.587500X0.150000X0*%
%ADD34RoundRect,0.250000X-0.650000X0.325000X-0.650000X-0.325000X0.650000X-0.325000X0.650000X0.325000X0*%
%ADD35R,1.800000X2.500000*%
%ADD36RoundRect,0.100000X0.100000X-0.637500X0.100000X0.637500X-0.100000X0.637500X-0.100000X-0.637500X0*%
%ADD37RotRect,1.600000X1.600000X335.000000*%
%ADD38C,1.600000*%
G04 APERTURE END LIST*
D10*
X61500000Y-4000000D03*
X3500000Y-4000000D03*
X3500000Y-53000000D03*
X61500000Y-53000000D03*
D11*
X8370000Y-5270000D03*
D12*
X8370000Y-2730000D03*
X10910000Y-5270000D03*
X10910000Y-2730000D03*
X13450000Y-5270000D03*
X13450000Y-2730000D03*
X15990000Y-5270000D03*
X15990000Y-2730000D03*
X18530000Y-5270000D03*
X18530000Y-2730000D03*
X21070000Y-5270000D03*
X21070000Y-2730000D03*
X23610000Y-5270000D03*
X23610000Y-2730000D03*
X26150000Y-5270000D03*
X26150000Y-2730000D03*
X28690000Y-5270000D03*
X28690000Y-2730000D03*
X31230000Y-5270000D03*
X31230000Y-2730000D03*
X33770000Y-5270000D03*
X33770000Y-2730000D03*
X36310000Y-5270000D03*
X36310000Y-2730000D03*
X38850000Y-5270000D03*
X38850000Y-2730000D03*
X41390000Y-5270000D03*
X41390000Y-2730000D03*
X43930000Y-5270000D03*
X43930000Y-2730000D03*
X46470000Y-5270000D03*
X46470000Y-2730000D03*
X49010000Y-5270000D03*
X49010000Y-2730000D03*
X51550000Y-5270000D03*
X51550000Y-2730000D03*
X54090000Y-5270000D03*
X54090000Y-2730000D03*
X56630000Y-5270000D03*
X56630000Y-2730000D03*
D13*
X40250000Y-9950000D03*
X44250000Y-9950000D03*
D14*
X57400000Y-51912500D03*
X57400000Y-50087500D03*
D15*
X2920000Y-40170000D03*
X2920000Y-42710000D03*
X2920000Y-45250000D03*
X2920000Y-47790000D03*
D16*
X8000000Y-55437500D03*
X8000000Y-53562500D03*
X57400000Y-55491815D03*
X57400000Y-53616815D03*
D17*
X61443448Y-33300002D03*
X61443448Y-27299998D03*
D18*
X49943450Y-33300002D03*
X49943450Y-27299998D03*
D19*
X33912500Y-34750000D03*
X32087500Y-34750000D03*
D20*
X12325000Y-17900000D03*
X13875000Y-17900000D03*
D21*
X6000000Y-17050000D03*
X6000000Y-8750000D03*
D22*
X47199998Y-52943448D03*
X53200002Y-52943448D03*
D23*
X47199998Y-41443450D03*
X53200002Y-41443450D03*
D22*
X12799998Y-52893448D03*
X18800002Y-52893448D03*
D23*
X12799998Y-41393450D03*
X18800002Y-41393450D03*
D15*
X41999379Y-54706800D03*
X39459379Y-54706800D03*
X41999379Y-52166800D03*
X39459379Y-52166800D03*
X41999379Y-49626800D03*
X39459379Y-49626800D03*
D19*
X41212500Y-14750000D03*
X39387500Y-14750000D03*
D24*
X42925000Y-29112500D03*
X42925000Y-30937500D03*
D14*
X17225000Y-33037500D03*
X17225000Y-31212500D03*
D25*
X64137500Y-37750000D03*
X62262500Y-37750000D03*
D26*
X15475000Y-32937500D03*
X13575000Y-32937500D03*
X14525000Y-34812500D03*
D15*
X10140000Y-20090000D03*
X7600000Y-20090000D03*
D27*
X6700000Y-31000000D03*
D28*
X8000000Y-31000000D03*
D17*
X61443448Y-17750002D03*
X61443448Y-11749998D03*
D18*
X49943450Y-17750002D03*
X49943450Y-11749998D03*
D16*
X23750000Y-55587500D03*
X23750000Y-53712500D03*
D27*
X6700000Y-28400000D03*
D28*
X8000000Y-28400000D03*
D26*
X30450000Y-32812500D03*
X28550000Y-32812500D03*
X29500000Y-34687500D03*
D19*
X41137500Y-30750000D03*
X39312500Y-30750000D03*
X60562500Y-22250000D03*
X58737500Y-22250000D03*
D29*
X48625000Y-22750000D03*
X51575000Y-22750000D03*
D30*
X12925000Y-12395000D03*
X12925000Y-13665000D03*
X12925000Y-14935000D03*
X12925000Y-16205000D03*
X17875000Y-16205000D03*
X17875000Y-14935000D03*
X17875000Y-13665000D03*
X17875000Y-12395000D03*
D31*
X32087500Y-36750000D03*
X33912500Y-36750000D03*
D14*
X32250000Y-32912500D03*
X32250000Y-31087500D03*
D25*
X64087500Y-22250000D03*
X62212500Y-22250000D03*
D27*
X6700000Y-36200000D03*
D28*
X8000000Y-36200000D03*
D32*
X49250000Y-37500000D03*
X45750000Y-37500000D03*
D33*
X41062500Y-16550000D03*
X41062500Y-18450000D03*
X42937500Y-17500000D03*
D27*
X6700000Y-23200000D03*
D28*
X8000000Y-23200000D03*
D20*
X12425000Y-10700000D03*
X13975000Y-10700000D03*
D34*
X39250000Y-39275000D03*
X39250000Y-42225000D03*
D13*
X41000000Y-26500000D03*
X45000000Y-26500000D03*
D35*
X36500000Y-32500000D03*
X36500000Y-36500000D03*
D33*
X41012500Y-32500000D03*
X41012500Y-34400000D03*
X42887500Y-33450000D03*
D14*
X23750000Y-51962500D03*
X23750000Y-50137500D03*
X45000000Y-14962500D03*
X45000000Y-13137500D03*
D19*
X18862500Y-34850000D03*
X17037500Y-34850000D03*
D31*
X28587500Y-36750000D03*
X30412500Y-36750000D03*
D14*
X8000000Y-51812500D03*
X8000000Y-49987500D03*
X44900000Y-34362500D03*
X44900000Y-32537500D03*
D27*
X6700000Y-25800000D03*
D28*
X8000000Y-25800000D03*
D14*
X45000000Y-18387500D03*
X45000000Y-16562500D03*
D19*
X60612500Y-37750000D03*
X58787500Y-37750000D03*
D34*
X23500000Y-39525000D03*
X23500000Y-42475000D03*
D36*
X25750000Y-18187500D03*
X26400000Y-18187500D03*
X27050000Y-18187500D03*
X27700000Y-18187500D03*
X28350000Y-18187500D03*
X29000000Y-18187500D03*
X29650000Y-18187500D03*
X30300000Y-18187500D03*
X30950000Y-18187500D03*
X31600000Y-18187500D03*
X32250000Y-18187500D03*
X32900000Y-18187500D03*
X33550000Y-18187500D03*
X34200000Y-18187500D03*
X34200000Y-12462500D03*
X33550000Y-12462500D03*
X32900000Y-12462500D03*
X32250000Y-12462500D03*
X31600000Y-12462500D03*
X30950000Y-12462500D03*
X30300000Y-12462500D03*
X29650000Y-12462500D03*
X29000000Y-12462500D03*
X28350000Y-12462500D03*
X27700000Y-12462500D03*
X27050000Y-12462500D03*
X26400000Y-12462500D03*
X25750000Y-12462500D03*
D24*
X43025000Y-13137500D03*
X43025000Y-14962500D03*
D22*
X28124998Y-52893448D03*
X34125002Y-52893448D03*
D23*
X28124998Y-41393450D03*
X34125002Y-41393450D03*
D31*
X13424472Y-36845799D03*
X15249472Y-36845799D03*
D27*
X6700000Y-33600000D03*
D28*
X8000000Y-33600000D03*
D19*
X34412500Y-9250000D03*
X32587500Y-9250000D03*
D35*
X21500000Y-32750000D03*
X21500000Y-36750000D03*
D14*
X43000000Y-40912500D03*
X43000000Y-39087500D03*
D31*
X17037500Y-36850000D03*
X18862500Y-36850000D03*
D14*
X44900000Y-30937500D03*
X44900000Y-29112500D03*
D15*
X8020000Y-47790000D03*
X5480000Y-47790000D03*
X8020000Y-45250000D03*
X5480000Y-45250000D03*
X8020000Y-42710000D03*
X5480000Y-42710000D03*
X8020000Y-40170000D03*
X5480000Y-40170000D03*
D37*
X17200000Y-10200000D03*
D38*
X20372077Y-11679164D03*
M02*
