G04 #@! TF.GenerationSoftware,KiCad,Pcbnew,8.0.2+dfsg-1*
G04 #@! TF.CreationDate,2024-06-08T19:17:01+01:00*
G04 #@! TF.ProjectId,owl-driver-board,6f776c2d-6472-4697-9665-722d626f6172,rev?*
G04 #@! TF.SameCoordinates,Original*
G04 #@! TF.FileFunction,Legend,Top*
G04 #@! TF.FilePolarity,Positive*
%FSLAX46Y46*%
G04 Gerber Fmt 4.6, Leading zero omitted, Abs format (unit mm)*
G04 Created by KiCad (PCBNEW 8.0.2+dfsg-1) date 2024-06-08 19:17:01*
%MOMM*%
%LPD*%
G01*
G04 APERTURE LIST*
G04 Aperture macros list*
%AMRoundRect*
0 Rectangle with rounded corners*
0 $1 Rounding radius*
0 $2 $3 $4 $5 $6 $7 $8 $9 X,Y pos of 4 corners*
0 Add a 4 corners polygon primitive as box body*
4,1,4,$2,$3,$4,$5,$6,$7,$8,$9,$2,$3,0*
0 Add four circle primitives for the rounded corners*
1,1,$1+$1,$2,$3*
1,1,$1+$1,$4,$5*
1,1,$1+$1,$6,$7*
1,1,$1+$1,$8,$9*
0 Add four rect primitives between the rounded corners*
20,1,$1+$1,$2,$3,$4,$5,0*
20,1,$1+$1,$4,$5,$6,$7,0*
20,1,$1+$1,$6,$7,$8,$9,0*
20,1,$1+$1,$8,$9,$2,$3,0*%
%AMFreePoly0*
4,1,19,0.500000,-0.750000,0.000000,-0.750000,0.000000,-0.744911,-0.071157,-0.744911,-0.207708,-0.704816,-0.327430,-0.627875,-0.420627,-0.520320,-0.479746,-0.390866,-0.500000,-0.250000,-0.500000,0.250000,-0.479746,0.390866,-0.420627,0.520320,-0.327430,0.627875,-0.207708,0.704816,-0.071157,0.744911,0.000000,0.744911,0.000000,0.750000,0.500000,0.750000,0.500000,-0.750000,0.500000,-0.750000,
$1*%
%AMFreePoly1*
4,1,19,0.000000,0.744911,0.071157,0.744911,0.207708,0.704816,0.327430,0.627875,0.420627,0.520320,0.479746,0.390866,0.500000,0.250000,0.500000,-0.250000,0.479746,-0.390866,0.420627,-0.520320,0.327430,-0.627875,0.207708,-0.704816,0.071157,-0.744911,0.000000,-0.744911,0.000000,-0.750000,-0.500000,-0.750000,-0.500000,0.750000,0.000000,0.750000,0.000000,0.744911,0.000000,0.744911,
$1*%
G04 Aperture macros list end*
%ADD10C,0.250000*%
%ADD11C,0.150000*%
%ADD12C,0.240000*%
%ADD13C,0.120000*%
%ADD14C,6.200000*%
%ADD15C,4.950000*%
%ADD16R,1.727200X1.727200*%
%ADD17O,1.727200X1.727200*%
%ADD18C,2.082800*%
%ADD19RoundRect,0.243750X0.456250X-0.243750X0.456250X0.243750X-0.456250X0.243750X-0.456250X-0.243750X0*%
%ADD20RoundRect,0.250000X-0.650000X0.325000X-0.650000X-0.325000X0.650000X-0.325000X0.650000X0.325000X0*%
%ADD21RoundRect,0.243750X0.243750X0.456250X-0.243750X0.456250X-0.243750X-0.456250X0.243750X-0.456250X0*%
%ADD22RoundRect,0.250000X0.650000X-0.325000X0.650000X0.325000X-0.650000X0.325000X-0.650000X-0.325000X0*%
%ADD23C,2.500000*%
%ADD24R,3.600000X2.700000*%
%ADD25FreePoly0,0.000000*%
%ADD26FreePoly1,0.000000*%
%ADD27RoundRect,0.225000X-0.250000X0.225000X-0.250000X-0.225000X0.250000X-0.225000X0.250000X0.225000X0*%
%ADD28RoundRect,0.250000X-0.325000X-0.650000X0.325000X-0.650000X0.325000X0.650000X-0.325000X0.650000X0*%
%ADD29R,1.700000X1.700000*%
%ADD30O,1.700000X1.700000*%
%ADD31RoundRect,0.250000X-0.250000X-0.475000X0.250000X-0.475000X0.250000X0.475000X-0.250000X0.475000X0*%
%ADD32RoundRect,0.225000X0.225000X0.250000X-0.225000X0.250000X-0.225000X-0.250000X0.225000X-0.250000X0*%
%ADD33RoundRect,0.200000X-0.200000X-0.275000X0.200000X-0.275000X0.200000X0.275000X-0.200000X0.275000X0*%
%ADD34R,3.100000X2.400000*%
%ADD35RoundRect,0.150000X0.150000X-0.737500X0.150000X0.737500X-0.150000X0.737500X-0.150000X-0.737500X0*%
%ADD36R,1.200000X2.250000*%
%ADD37RoundRect,0.250000X0.325000X0.650000X-0.325000X0.650000X-0.325000X-0.650000X0.325000X-0.650000X0*%
%ADD38RoundRect,0.100000X0.100000X-0.637500X0.100000X0.637500X-0.100000X0.637500X-0.100000X-0.637500X0*%
%ADD39RoundRect,0.200000X0.275000X-0.200000X0.275000X0.200000X-0.275000X0.200000X-0.275000X-0.200000X0*%
%ADD40RoundRect,0.225000X0.250000X-0.225000X0.250000X0.225000X-0.250000X0.225000X-0.250000X-0.225000X0*%
%ADD41R,0.600000X0.700000*%
%ADD42C,1.600000*%
G04 APERTURE END LIST*
D10*
X54000000Y-42200000D02*
X54700000Y-42200000D01*
X6200000Y-18900000D02*
X11300000Y-18900000D01*
X11300000Y-21500000D01*
X6200000Y-21500000D01*
X6200000Y-18900000D01*
X54000000Y-47300000D02*
X55800000Y-51700000D01*
X2097469Y-38500000D02*
X2100000Y-38847641D01*
X8897469Y-38500000D02*
X8900000Y-38847641D01*
X56100000Y-51700000D02*
X55800000Y-51700000D01*
X55800000Y-51700000D02*
X55800000Y-54250000D01*
D11*
X29100000Y-8700000D02*
X29500000Y-8200000D01*
X29500000Y-9600000D02*
X29100000Y-9100000D01*
D10*
X5497469Y-38500000D02*
X5500000Y-38847641D01*
X15000000Y-36200000D02*
X8897469Y-38500000D01*
X15000000Y-23900000D02*
X44300000Y-23900000D01*
X44300000Y-36200000D01*
X15000000Y-36200000D01*
X15000000Y-23900000D01*
X55800000Y-54250000D02*
X56100000Y-54250000D01*
X58000000Y-38800000D02*
X53700000Y-38800000D01*
X11400000Y-21000000D02*
X36500000Y-21000000D01*
X2122469Y-38500000D02*
X8872469Y-38500000D01*
X54000000Y-38800000D02*
X53999973Y-42200003D01*
X54000000Y-42200000D02*
X54000000Y-47300000D01*
X54000000Y-47300000D02*
X54700000Y-47300000D01*
X38300000Y-9800000D02*
X44300000Y-9800000D01*
X44300000Y-23900000D01*
X38300000Y-23900000D01*
X38300000Y-9800000D01*
D12*
X12500751Y-40806448D02*
X12786465Y-40806448D01*
X12786465Y-40806448D02*
X12929322Y-40877877D01*
X12929322Y-40877877D02*
X13072179Y-41020734D01*
X13072179Y-41020734D02*
X13143608Y-41306448D01*
X13143608Y-41306448D02*
X13143608Y-41806448D01*
X13143608Y-41806448D02*
X13072179Y-42092162D01*
X13072179Y-42092162D02*
X12929322Y-42235020D01*
X12929322Y-42235020D02*
X12786465Y-42306448D01*
X12786465Y-42306448D02*
X12500751Y-42306448D01*
X12500751Y-42306448D02*
X12357894Y-42235020D01*
X12357894Y-42235020D02*
X12215036Y-42092162D01*
X12215036Y-42092162D02*
X12143608Y-41806448D01*
X12143608Y-41806448D02*
X12143608Y-41306448D01*
X12143608Y-41306448D02*
X12215036Y-41020734D01*
X12215036Y-41020734D02*
X12357894Y-40877877D01*
X12357894Y-40877877D02*
X12500751Y-40806448D01*
X13786465Y-40806448D02*
X13786465Y-42020734D01*
X13786465Y-42020734D02*
X13857894Y-42163591D01*
X13857894Y-42163591D02*
X13929323Y-42235020D01*
X13929323Y-42235020D02*
X14072180Y-42306448D01*
X14072180Y-42306448D02*
X14357894Y-42306448D01*
X14357894Y-42306448D02*
X14500751Y-42235020D01*
X14500751Y-42235020D02*
X14572180Y-42163591D01*
X14572180Y-42163591D02*
X14643608Y-42020734D01*
X14643608Y-42020734D02*
X14643608Y-40806448D01*
X15143609Y-40806448D02*
X16000752Y-40806448D01*
X15572180Y-42306448D02*
X15572180Y-40806448D01*
X17572180Y-41306448D02*
X18643608Y-41306448D01*
X18000751Y-40663591D02*
X17572180Y-42592162D01*
X18500751Y-41949305D02*
X17429323Y-41949305D01*
X18072180Y-42592162D02*
X18500751Y-40663591D01*
X19929323Y-42306448D02*
X19072180Y-42306448D01*
X19500751Y-42306448D02*
X19500751Y-40806448D01*
X19500751Y-40806448D02*
X19357894Y-41020734D01*
X19357894Y-41020734D02*
X19215037Y-41163591D01*
X19215037Y-41163591D02*
X19072180Y-41235020D01*
X38542856Y-7481448D02*
X38828570Y-7481448D01*
X38828570Y-7481448D02*
X38971427Y-7552877D01*
X38971427Y-7552877D02*
X39114284Y-7695734D01*
X39114284Y-7695734D02*
X39185713Y-7981448D01*
X39185713Y-7981448D02*
X39185713Y-8481448D01*
X39185713Y-8481448D02*
X39114284Y-8767162D01*
X39114284Y-8767162D02*
X38971427Y-8910020D01*
X38971427Y-8910020D02*
X38828570Y-8981448D01*
X38828570Y-8981448D02*
X38542856Y-8981448D01*
X38542856Y-8981448D02*
X38399999Y-8910020D01*
X38399999Y-8910020D02*
X38257141Y-8767162D01*
X38257141Y-8767162D02*
X38185713Y-8481448D01*
X38185713Y-8481448D02*
X38185713Y-7981448D01*
X38185713Y-7981448D02*
X38257141Y-7695734D01*
X38257141Y-7695734D02*
X38399999Y-7552877D01*
X38399999Y-7552877D02*
X38542856Y-7481448D01*
X39828570Y-8981448D02*
X39828570Y-7481448D01*
X39828570Y-7481448D02*
X40399999Y-7481448D01*
X40399999Y-7481448D02*
X40542856Y-7552877D01*
X40542856Y-7552877D02*
X40614285Y-7624305D01*
X40614285Y-7624305D02*
X40685713Y-7767162D01*
X40685713Y-7767162D02*
X40685713Y-7981448D01*
X40685713Y-7981448D02*
X40614285Y-8124305D01*
X40614285Y-8124305D02*
X40542856Y-8195734D01*
X40542856Y-8195734D02*
X40399999Y-8267162D01*
X40399999Y-8267162D02*
X39828570Y-8267162D01*
X41328570Y-8195734D02*
X41828570Y-8195734D01*
X42042856Y-8981448D02*
X41328570Y-8981448D01*
X41328570Y-8981448D02*
X41328570Y-7481448D01*
X41328570Y-7481448D02*
X42042856Y-7481448D01*
X42685713Y-8981448D02*
X42685713Y-7481448D01*
X42685713Y-7481448D02*
X43542856Y-8981448D01*
X43542856Y-8981448D02*
X43542856Y-7481448D01*
X45257142Y-7481448D02*
X45614285Y-8981448D01*
X45614285Y-8981448D02*
X45899999Y-7910020D01*
X45899999Y-7910020D02*
X46185714Y-8981448D01*
X46185714Y-8981448D02*
X46542857Y-7481448D01*
X47114285Y-8195734D02*
X47614285Y-8195734D01*
X47828571Y-8981448D02*
X47114285Y-8981448D01*
X47114285Y-8981448D02*
X47114285Y-7481448D01*
X47114285Y-7481448D02*
X47828571Y-7481448D01*
X48471428Y-8195734D02*
X48971428Y-8195734D01*
X49185714Y-8981448D02*
X48471428Y-8981448D01*
X48471428Y-8981448D02*
X48471428Y-7481448D01*
X48471428Y-7481448D02*
X49185714Y-7481448D01*
X49828571Y-8981448D02*
X49828571Y-7481448D01*
X49828571Y-7481448D02*
X50185714Y-7481448D01*
X50185714Y-7481448D02*
X50400000Y-7552877D01*
X50400000Y-7552877D02*
X50542857Y-7695734D01*
X50542857Y-7695734D02*
X50614286Y-7838591D01*
X50614286Y-7838591D02*
X50685714Y-8124305D01*
X50685714Y-8124305D02*
X50685714Y-8338591D01*
X50685714Y-8338591D02*
X50614286Y-8624305D01*
X50614286Y-8624305D02*
X50542857Y-8767162D01*
X50542857Y-8767162D02*
X50400000Y-8910020D01*
X50400000Y-8910020D02*
X50185714Y-8981448D01*
X50185714Y-8981448D02*
X49828571Y-8981448D01*
X53185714Y-8981448D02*
X52471428Y-8981448D01*
X52471428Y-8981448D02*
X52471428Y-7481448D01*
X53971429Y-7481448D02*
X54257143Y-7481448D01*
X54257143Y-7481448D02*
X54400000Y-7552877D01*
X54400000Y-7552877D02*
X54542857Y-7695734D01*
X54542857Y-7695734D02*
X54614286Y-7981448D01*
X54614286Y-7981448D02*
X54614286Y-8481448D01*
X54614286Y-8481448D02*
X54542857Y-8767162D01*
X54542857Y-8767162D02*
X54400000Y-8910020D01*
X54400000Y-8910020D02*
X54257143Y-8981448D01*
X54257143Y-8981448D02*
X53971429Y-8981448D01*
X53971429Y-8981448D02*
X53828572Y-8910020D01*
X53828572Y-8910020D02*
X53685714Y-8767162D01*
X53685714Y-8767162D02*
X53614286Y-8481448D01*
X53614286Y-8481448D02*
X53614286Y-7981448D01*
X53614286Y-7981448D02*
X53685714Y-7695734D01*
X53685714Y-7695734D02*
X53828572Y-7552877D01*
X53828572Y-7552877D02*
X53971429Y-7481448D01*
X56114286Y-8838591D02*
X56042858Y-8910020D01*
X56042858Y-8910020D02*
X55828572Y-8981448D01*
X55828572Y-8981448D02*
X55685715Y-8981448D01*
X55685715Y-8981448D02*
X55471429Y-8910020D01*
X55471429Y-8910020D02*
X55328572Y-8767162D01*
X55328572Y-8767162D02*
X55257143Y-8624305D01*
X55257143Y-8624305D02*
X55185715Y-8338591D01*
X55185715Y-8338591D02*
X55185715Y-8124305D01*
X55185715Y-8124305D02*
X55257143Y-7838591D01*
X55257143Y-7838591D02*
X55328572Y-7695734D01*
X55328572Y-7695734D02*
X55471429Y-7552877D01*
X55471429Y-7552877D02*
X55685715Y-7481448D01*
X55685715Y-7481448D02*
X55828572Y-7481448D01*
X55828572Y-7481448D02*
X56042858Y-7552877D01*
X56042858Y-7552877D02*
X56114286Y-7624305D01*
X56685715Y-8552877D02*
X57400001Y-8552877D01*
X56542858Y-8981448D02*
X57042858Y-7481448D01*
X57042858Y-7481448D02*
X57542858Y-8981448D01*
X57828572Y-7481448D02*
X58685715Y-7481448D01*
X58257143Y-8981448D02*
X58257143Y-7481448D01*
X59471429Y-7481448D02*
X59757143Y-7481448D01*
X59757143Y-7481448D02*
X59900000Y-7552877D01*
X59900000Y-7552877D02*
X60042857Y-7695734D01*
X60042857Y-7695734D02*
X60114286Y-7981448D01*
X60114286Y-7981448D02*
X60114286Y-8481448D01*
X60114286Y-8481448D02*
X60042857Y-8767162D01*
X60042857Y-8767162D02*
X59900000Y-8910020D01*
X59900000Y-8910020D02*
X59757143Y-8981448D01*
X59757143Y-8981448D02*
X59471429Y-8981448D01*
X59471429Y-8981448D02*
X59328572Y-8910020D01*
X59328572Y-8910020D02*
X59185714Y-8767162D01*
X59185714Y-8767162D02*
X59114286Y-8481448D01*
X59114286Y-8481448D02*
X59114286Y-7981448D01*
X59114286Y-7981448D02*
X59185714Y-7695734D01*
X59185714Y-7695734D02*
X59328572Y-7552877D01*
X59328572Y-7552877D02*
X59471429Y-7481448D01*
X61614286Y-8981448D02*
X61114286Y-8267162D01*
X60757143Y-8981448D02*
X60757143Y-7481448D01*
X60757143Y-7481448D02*
X61328572Y-7481448D01*
X61328572Y-7481448D02*
X61471429Y-7552877D01*
X61471429Y-7552877D02*
X61542858Y-7624305D01*
X61542858Y-7624305D02*
X61614286Y-7767162D01*
X61614286Y-7767162D02*
X61614286Y-7981448D01*
X61614286Y-7981448D02*
X61542858Y-8124305D01*
X61542858Y-8124305D02*
X61471429Y-8195734D01*
X61471429Y-8195734D02*
X61328572Y-8267162D01*
X61328572Y-8267162D02*
X60757143Y-8267162D01*
D13*
X24502132Y-49928196D02*
X24502132Y-49678196D01*
X24109275Y-49678196D02*
X24859275Y-49678196D01*
X24859275Y-49678196D02*
X24859275Y-50035339D01*
X24859275Y-50321053D02*
X24252132Y-50321053D01*
X24252132Y-50321053D02*
X24180704Y-50356767D01*
X24180704Y-50356767D02*
X24144990Y-50392482D01*
X24144990Y-50392482D02*
X24109275Y-50463910D01*
X24109275Y-50463910D02*
X24109275Y-50606767D01*
X24109275Y-50606767D02*
X24144990Y-50678196D01*
X24144990Y-50678196D02*
X24180704Y-50713910D01*
X24180704Y-50713910D02*
X24252132Y-50749624D01*
X24252132Y-50749624D02*
X24859275Y-50749624D01*
X24144990Y-51071053D02*
X24109275Y-51178196D01*
X24109275Y-51178196D02*
X24109275Y-51356767D01*
X24109275Y-51356767D02*
X24144990Y-51428196D01*
X24144990Y-51428196D02*
X24180704Y-51463910D01*
X24180704Y-51463910D02*
X24252132Y-51499624D01*
X24252132Y-51499624D02*
X24323561Y-51499624D01*
X24323561Y-51499624D02*
X24394990Y-51463910D01*
X24394990Y-51463910D02*
X24430704Y-51428196D01*
X24430704Y-51428196D02*
X24466418Y-51356767D01*
X24466418Y-51356767D02*
X24502132Y-51213910D01*
X24502132Y-51213910D02*
X24537847Y-51142481D01*
X24537847Y-51142481D02*
X24573561Y-51106767D01*
X24573561Y-51106767D02*
X24644990Y-51071053D01*
X24644990Y-51071053D02*
X24716418Y-51071053D01*
X24716418Y-51071053D02*
X24787847Y-51106767D01*
X24787847Y-51106767D02*
X24823561Y-51142481D01*
X24823561Y-51142481D02*
X24859275Y-51213910D01*
X24859275Y-51213910D02*
X24859275Y-51392481D01*
X24859275Y-51392481D02*
X24823561Y-51499624D01*
X24502132Y-51821053D02*
X24502132Y-52071053D01*
X24109275Y-52178196D02*
X24109275Y-51821053D01*
X24109275Y-51821053D02*
X24859275Y-51821053D01*
X24859275Y-51821053D02*
X24859275Y-52178196D01*
D11*
X15736779Y-25724987D02*
X15736779Y-24724987D01*
X16212969Y-25724987D02*
X16212969Y-24724987D01*
X16212969Y-24724987D02*
X16784397Y-25724987D01*
X16784397Y-25724987D02*
X16784397Y-24724987D01*
X17260588Y-25724987D02*
X17260588Y-24724987D01*
X17260588Y-24724987D02*
X17641540Y-24724987D01*
X17641540Y-24724987D02*
X17736778Y-24772606D01*
X17736778Y-24772606D02*
X17784397Y-24820225D01*
X17784397Y-24820225D02*
X17832016Y-24915463D01*
X17832016Y-24915463D02*
X17832016Y-25058320D01*
X17832016Y-25058320D02*
X17784397Y-25153558D01*
X17784397Y-25153558D02*
X17736778Y-25201177D01*
X17736778Y-25201177D02*
X17641540Y-25248796D01*
X17641540Y-25248796D02*
X17260588Y-25248796D01*
X18260588Y-24724987D02*
X18260588Y-25534510D01*
X18260588Y-25534510D02*
X18308207Y-25629748D01*
X18308207Y-25629748D02*
X18355826Y-25677368D01*
X18355826Y-25677368D02*
X18451064Y-25724987D01*
X18451064Y-25724987D02*
X18641540Y-25724987D01*
X18641540Y-25724987D02*
X18736778Y-25677368D01*
X18736778Y-25677368D02*
X18784397Y-25629748D01*
X18784397Y-25629748D02*
X18832016Y-25534510D01*
X18832016Y-25534510D02*
X18832016Y-24724987D01*
X19165350Y-24724987D02*
X19736778Y-24724987D01*
X19451064Y-25724987D02*
X19451064Y-24724987D01*
X20736779Y-24724987D02*
X21403445Y-24724987D01*
X21403445Y-24724987D02*
X20974874Y-25724987D01*
X21641541Y-24724987D02*
X21974874Y-25724987D01*
X21974874Y-25724987D02*
X22308207Y-24724987D01*
X22641541Y-25344034D02*
X23403446Y-25344034D01*
X23832017Y-24820225D02*
X23879636Y-24772606D01*
X23879636Y-24772606D02*
X23974874Y-24724987D01*
X23974874Y-24724987D02*
X24212969Y-24724987D01*
X24212969Y-24724987D02*
X24308207Y-24772606D01*
X24308207Y-24772606D02*
X24355826Y-24820225D01*
X24355826Y-24820225D02*
X24403445Y-24915463D01*
X24403445Y-24915463D02*
X24403445Y-25010701D01*
X24403445Y-25010701D02*
X24355826Y-25153558D01*
X24355826Y-25153558D02*
X23784398Y-25724987D01*
X23784398Y-25724987D02*
X24403445Y-25724987D01*
X25260588Y-24724987D02*
X25070112Y-24724987D01*
X25070112Y-24724987D02*
X24974874Y-24772606D01*
X24974874Y-24772606D02*
X24927255Y-24820225D01*
X24927255Y-24820225D02*
X24832017Y-24963082D01*
X24832017Y-24963082D02*
X24784398Y-25153558D01*
X24784398Y-25153558D02*
X24784398Y-25534510D01*
X24784398Y-25534510D02*
X24832017Y-25629748D01*
X24832017Y-25629748D02*
X24879636Y-25677368D01*
X24879636Y-25677368D02*
X24974874Y-25724987D01*
X24974874Y-25724987D02*
X25165350Y-25724987D01*
X25165350Y-25724987D02*
X25260588Y-25677368D01*
X25260588Y-25677368D02*
X25308207Y-25629748D01*
X25308207Y-25629748D02*
X25355826Y-25534510D01*
X25355826Y-25534510D02*
X25355826Y-25296415D01*
X25355826Y-25296415D02*
X25308207Y-25201177D01*
X25308207Y-25201177D02*
X25260588Y-25153558D01*
X25260588Y-25153558D02*
X25165350Y-25105939D01*
X25165350Y-25105939D02*
X24974874Y-25105939D01*
X24974874Y-25105939D02*
X24879636Y-25153558D01*
X24879636Y-25153558D02*
X24832017Y-25201177D01*
X24832017Y-25201177D02*
X24784398Y-25296415D01*
X25641541Y-24724987D02*
X25974874Y-25724987D01*
X25974874Y-25724987D02*
X26308207Y-24724987D01*
X27403446Y-25724987D02*
X27403446Y-24724987D01*
X27403446Y-24724987D02*
X27736779Y-25439272D01*
X27736779Y-25439272D02*
X28070112Y-24724987D01*
X28070112Y-24724987D02*
X28070112Y-25724987D01*
X28498684Y-25439272D02*
X28974874Y-25439272D01*
X28403446Y-25724987D02*
X28736779Y-24724987D01*
X28736779Y-24724987D02*
X29070112Y-25724987D01*
X29308208Y-24724987D02*
X29974874Y-25724987D01*
X29974874Y-24724987D02*
X29308208Y-25724987D01*
X31022494Y-24724987D02*
X31689160Y-24724987D01*
X31689160Y-24724987D02*
X31260589Y-25724987D01*
X32022494Y-25439272D02*
X32498684Y-25439272D01*
X31927256Y-25724987D02*
X32260589Y-24724987D01*
X32260589Y-24724987D02*
X32593922Y-25724987D01*
X15736779Y-27334931D02*
X15736779Y-26334931D01*
X15736779Y-26334931D02*
X16070112Y-27049216D01*
X16070112Y-27049216D02*
X16403445Y-26334931D01*
X16403445Y-26334931D02*
X16403445Y-27334931D01*
X16832017Y-27049216D02*
X17308207Y-27049216D01*
X16736779Y-27334931D02*
X17070112Y-26334931D01*
X17070112Y-26334931D02*
X17403445Y-27334931D01*
X17641541Y-26334931D02*
X18308207Y-27334931D01*
X18308207Y-26334931D02*
X17641541Y-27334931D01*
X19403446Y-26430169D02*
X19451065Y-26382550D01*
X19451065Y-26382550D02*
X19546303Y-26334931D01*
X19546303Y-26334931D02*
X19784398Y-26334931D01*
X19784398Y-26334931D02*
X19879636Y-26382550D01*
X19879636Y-26382550D02*
X19927255Y-26430169D01*
X19927255Y-26430169D02*
X19974874Y-26525407D01*
X19974874Y-26525407D02*
X19974874Y-26620645D01*
X19974874Y-26620645D02*
X19927255Y-26763502D01*
X19927255Y-26763502D02*
X19355827Y-27334931D01*
X19355827Y-27334931D02*
X19974874Y-27334931D01*
X20355827Y-27049216D02*
X20832017Y-27049216D01*
X20260589Y-27334931D02*
X20593922Y-26334931D01*
X20593922Y-26334931D02*
X20927255Y-27334931D01*
X22022494Y-27334931D02*
X22022494Y-26334931D01*
X22022494Y-26334931D02*
X22403446Y-26334931D01*
X22403446Y-26334931D02*
X22498684Y-26382550D01*
X22498684Y-26382550D02*
X22546303Y-26430169D01*
X22546303Y-26430169D02*
X22593922Y-26525407D01*
X22593922Y-26525407D02*
X22593922Y-26668264D01*
X22593922Y-26668264D02*
X22546303Y-26763502D01*
X22546303Y-26763502D02*
X22498684Y-26811121D01*
X22498684Y-26811121D02*
X22403446Y-26858740D01*
X22403446Y-26858740D02*
X22022494Y-26858740D01*
X23022494Y-26811121D02*
X23355827Y-26811121D01*
X23498684Y-27334931D02*
X23022494Y-27334931D01*
X23022494Y-27334931D02*
X23022494Y-26334931D01*
X23022494Y-26334931D02*
X23498684Y-26334931D01*
X24498684Y-27334931D02*
X24165351Y-26858740D01*
X23927256Y-27334931D02*
X23927256Y-26334931D01*
X23927256Y-26334931D02*
X24308208Y-26334931D01*
X24308208Y-26334931D02*
X24403446Y-26382550D01*
X24403446Y-26382550D02*
X24451065Y-26430169D01*
X24451065Y-26430169D02*
X24498684Y-26525407D01*
X24498684Y-26525407D02*
X24498684Y-26668264D01*
X24498684Y-26668264D02*
X24451065Y-26763502D01*
X24451065Y-26763502D02*
X24403446Y-26811121D01*
X24403446Y-26811121D02*
X24308208Y-26858740D01*
X24308208Y-26858740D02*
X23927256Y-26858740D01*
X25879637Y-26334931D02*
X26070113Y-26334931D01*
X26070113Y-26334931D02*
X26165351Y-26382550D01*
X26165351Y-26382550D02*
X26260589Y-26477788D01*
X26260589Y-26477788D02*
X26308208Y-26668264D01*
X26308208Y-26668264D02*
X26308208Y-27001597D01*
X26308208Y-27001597D02*
X26260589Y-27192073D01*
X26260589Y-27192073D02*
X26165351Y-27287312D01*
X26165351Y-27287312D02*
X26070113Y-27334931D01*
X26070113Y-27334931D02*
X25879637Y-27334931D01*
X25879637Y-27334931D02*
X25784399Y-27287312D01*
X25784399Y-27287312D02*
X25689161Y-27192073D01*
X25689161Y-27192073D02*
X25641542Y-27001597D01*
X25641542Y-27001597D02*
X25641542Y-26668264D01*
X25641542Y-26668264D02*
X25689161Y-26477788D01*
X25689161Y-26477788D02*
X25784399Y-26382550D01*
X25784399Y-26382550D02*
X25879637Y-26334931D01*
X26736780Y-26334931D02*
X26736780Y-27144454D01*
X26736780Y-27144454D02*
X26784399Y-27239692D01*
X26784399Y-27239692D02*
X26832018Y-27287312D01*
X26832018Y-27287312D02*
X26927256Y-27334931D01*
X26927256Y-27334931D02*
X27117732Y-27334931D01*
X27117732Y-27334931D02*
X27212970Y-27287312D01*
X27212970Y-27287312D02*
X27260589Y-27239692D01*
X27260589Y-27239692D02*
X27308208Y-27144454D01*
X27308208Y-27144454D02*
X27308208Y-26334931D01*
X27641542Y-26334931D02*
X28212970Y-26334931D01*
X27927256Y-27334931D02*
X27927256Y-26334931D01*
X28546304Y-27334931D02*
X28546304Y-26334931D01*
X28546304Y-26334931D02*
X28927256Y-26334931D01*
X28927256Y-26334931D02*
X29022494Y-26382550D01*
X29022494Y-26382550D02*
X29070113Y-26430169D01*
X29070113Y-26430169D02*
X29117732Y-26525407D01*
X29117732Y-26525407D02*
X29117732Y-26668264D01*
X29117732Y-26668264D02*
X29070113Y-26763502D01*
X29070113Y-26763502D02*
X29022494Y-26811121D01*
X29022494Y-26811121D02*
X28927256Y-26858740D01*
X28927256Y-26858740D02*
X28546304Y-26858740D01*
X29546304Y-26334931D02*
X29546304Y-27144454D01*
X29546304Y-27144454D02*
X29593923Y-27239692D01*
X29593923Y-27239692D02*
X29641542Y-27287312D01*
X29641542Y-27287312D02*
X29736780Y-27334931D01*
X29736780Y-27334931D02*
X29927256Y-27334931D01*
X29927256Y-27334931D02*
X30022494Y-27287312D01*
X30022494Y-27287312D02*
X30070113Y-27239692D01*
X30070113Y-27239692D02*
X30117732Y-27144454D01*
X30117732Y-27144454D02*
X30117732Y-26334931D01*
X30451066Y-26334931D02*
X31022494Y-26334931D01*
X30736780Y-27334931D02*
X30736780Y-26334931D01*
X31403447Y-27287312D02*
X31403447Y-27334931D01*
X31403447Y-27334931D02*
X31355828Y-27430169D01*
X31355828Y-27430169D02*
X31308209Y-27477788D01*
X32546304Y-27287312D02*
X32689161Y-27334931D01*
X32689161Y-27334931D02*
X32927256Y-27334931D01*
X32927256Y-27334931D02*
X33022494Y-27287312D01*
X33022494Y-27287312D02*
X33070113Y-27239692D01*
X33070113Y-27239692D02*
X33117732Y-27144454D01*
X33117732Y-27144454D02*
X33117732Y-27049216D01*
X33117732Y-27049216D02*
X33070113Y-26953978D01*
X33070113Y-26953978D02*
X33022494Y-26906359D01*
X33022494Y-26906359D02*
X32927256Y-26858740D01*
X32927256Y-26858740D02*
X32736780Y-26811121D01*
X32736780Y-26811121D02*
X32641542Y-26763502D01*
X32641542Y-26763502D02*
X32593923Y-26715883D01*
X32593923Y-26715883D02*
X32546304Y-26620645D01*
X32546304Y-26620645D02*
X32546304Y-26525407D01*
X32546304Y-26525407D02*
X32593923Y-26430169D01*
X32593923Y-26430169D02*
X32641542Y-26382550D01*
X32641542Y-26382550D02*
X32736780Y-26334931D01*
X32736780Y-26334931D02*
X32974875Y-26334931D01*
X32974875Y-26334931D02*
X33117732Y-26382550D01*
X33451066Y-26334931D02*
X33689161Y-27334931D01*
X33689161Y-27334931D02*
X33879637Y-26620645D01*
X33879637Y-26620645D02*
X34070113Y-27334931D01*
X34070113Y-27334931D02*
X34308209Y-26334931D01*
X34689161Y-27334931D02*
X34689161Y-26334931D01*
X35022494Y-26334931D02*
X35593922Y-26334931D01*
X35308208Y-27334931D02*
X35308208Y-26334931D01*
X36498684Y-27239692D02*
X36451065Y-27287312D01*
X36451065Y-27287312D02*
X36308208Y-27334931D01*
X36308208Y-27334931D02*
X36212970Y-27334931D01*
X36212970Y-27334931D02*
X36070113Y-27287312D01*
X36070113Y-27287312D02*
X35974875Y-27192073D01*
X35974875Y-27192073D02*
X35927256Y-27096835D01*
X35927256Y-27096835D02*
X35879637Y-26906359D01*
X35879637Y-26906359D02*
X35879637Y-26763502D01*
X35879637Y-26763502D02*
X35927256Y-26573026D01*
X35927256Y-26573026D02*
X35974875Y-26477788D01*
X35974875Y-26477788D02*
X36070113Y-26382550D01*
X36070113Y-26382550D02*
X36212970Y-26334931D01*
X36212970Y-26334931D02*
X36308208Y-26334931D01*
X36308208Y-26334931D02*
X36451065Y-26382550D01*
X36451065Y-26382550D02*
X36498684Y-26430169D01*
X36927256Y-27334931D02*
X36927256Y-26334931D01*
X36927256Y-26811121D02*
X37498684Y-26811121D01*
X37498684Y-27334931D02*
X37498684Y-26334931D01*
X37974875Y-26811121D02*
X38308208Y-26811121D01*
X38451065Y-27334931D02*
X37974875Y-27334931D01*
X37974875Y-27334931D02*
X37974875Y-26334931D01*
X37974875Y-26334931D02*
X38451065Y-26334931D01*
X38879637Y-27334931D02*
X38879637Y-26334931D01*
X38879637Y-26334931D02*
X39117732Y-26334931D01*
X39117732Y-26334931D02*
X39260589Y-26382550D01*
X39260589Y-26382550D02*
X39355827Y-26477788D01*
X39355827Y-26477788D02*
X39403446Y-26573026D01*
X39403446Y-26573026D02*
X39451065Y-26763502D01*
X39451065Y-26763502D02*
X39451065Y-26906359D01*
X39451065Y-26906359D02*
X39403446Y-27096835D01*
X39403446Y-27096835D02*
X39355827Y-27192073D01*
X39355827Y-27192073D02*
X39260589Y-27287312D01*
X39260589Y-27287312D02*
X39117732Y-27334931D01*
X39117732Y-27334931D02*
X38879637Y-27334931D01*
X40641542Y-26953978D02*
X41403447Y-26953978D01*
X41022494Y-27334931D02*
X41022494Y-26573026D01*
X41736780Y-26334931D02*
X42070113Y-27334931D01*
X42070113Y-27334931D02*
X42403446Y-26334931D01*
X42736780Y-26811121D02*
X43070113Y-26811121D01*
X43212970Y-27334931D02*
X42736780Y-27334931D01*
X42736780Y-27334931D02*
X42736780Y-26334931D01*
X42736780Y-26334931D02*
X43212970Y-26334931D01*
X15927255Y-29554819D02*
X16117731Y-29554819D01*
X16117731Y-29554819D02*
X16212969Y-29602438D01*
X16212969Y-29602438D02*
X16308207Y-29697676D01*
X16308207Y-29697676D02*
X16355826Y-29888152D01*
X16355826Y-29888152D02*
X16355826Y-30221485D01*
X16355826Y-30221485D02*
X16308207Y-30411961D01*
X16308207Y-30411961D02*
X16212969Y-30507200D01*
X16212969Y-30507200D02*
X16117731Y-30554819D01*
X16117731Y-30554819D02*
X15927255Y-30554819D01*
X15927255Y-30554819D02*
X15832017Y-30507200D01*
X15832017Y-30507200D02*
X15736779Y-30411961D01*
X15736779Y-30411961D02*
X15689160Y-30221485D01*
X15689160Y-30221485D02*
X15689160Y-29888152D01*
X15689160Y-29888152D02*
X15736779Y-29697676D01*
X15736779Y-29697676D02*
X15832017Y-29602438D01*
X15832017Y-29602438D02*
X15927255Y-29554819D01*
X16784398Y-29554819D02*
X16784398Y-30364342D01*
X16784398Y-30364342D02*
X16832017Y-30459580D01*
X16832017Y-30459580D02*
X16879636Y-30507200D01*
X16879636Y-30507200D02*
X16974874Y-30554819D01*
X16974874Y-30554819D02*
X17165350Y-30554819D01*
X17165350Y-30554819D02*
X17260588Y-30507200D01*
X17260588Y-30507200D02*
X17308207Y-30459580D01*
X17308207Y-30459580D02*
X17355826Y-30364342D01*
X17355826Y-30364342D02*
X17355826Y-29554819D01*
X17689160Y-29554819D02*
X18260588Y-29554819D01*
X17974874Y-30554819D02*
X17974874Y-29554819D01*
X18593922Y-30554819D02*
X18593922Y-29554819D01*
X18593922Y-29554819D02*
X18974874Y-29554819D01*
X18974874Y-29554819D02*
X19070112Y-29602438D01*
X19070112Y-29602438D02*
X19117731Y-29650057D01*
X19117731Y-29650057D02*
X19165350Y-29745295D01*
X19165350Y-29745295D02*
X19165350Y-29888152D01*
X19165350Y-29888152D02*
X19117731Y-29983390D01*
X19117731Y-29983390D02*
X19070112Y-30031009D01*
X19070112Y-30031009D02*
X18974874Y-30078628D01*
X18974874Y-30078628D02*
X18593922Y-30078628D01*
X19593922Y-29554819D02*
X19593922Y-30364342D01*
X19593922Y-30364342D02*
X19641541Y-30459580D01*
X19641541Y-30459580D02*
X19689160Y-30507200D01*
X19689160Y-30507200D02*
X19784398Y-30554819D01*
X19784398Y-30554819D02*
X19974874Y-30554819D01*
X19974874Y-30554819D02*
X20070112Y-30507200D01*
X20070112Y-30507200D02*
X20117731Y-30459580D01*
X20117731Y-30459580D02*
X20165350Y-30364342D01*
X20165350Y-30364342D02*
X20165350Y-29554819D01*
X20498684Y-29554819D02*
X21070112Y-29554819D01*
X20784398Y-30554819D02*
X20784398Y-29554819D01*
X22736779Y-30459580D02*
X22689160Y-30507200D01*
X22689160Y-30507200D02*
X22546303Y-30554819D01*
X22546303Y-30554819D02*
X22451065Y-30554819D01*
X22451065Y-30554819D02*
X22308208Y-30507200D01*
X22308208Y-30507200D02*
X22212970Y-30411961D01*
X22212970Y-30411961D02*
X22165351Y-30316723D01*
X22165351Y-30316723D02*
X22117732Y-30126247D01*
X22117732Y-30126247D02*
X22117732Y-29983390D01*
X22117732Y-29983390D02*
X22165351Y-29792914D01*
X22165351Y-29792914D02*
X22212970Y-29697676D01*
X22212970Y-29697676D02*
X22308208Y-29602438D01*
X22308208Y-29602438D02*
X22451065Y-29554819D01*
X22451065Y-29554819D02*
X22546303Y-29554819D01*
X22546303Y-29554819D02*
X22689160Y-29602438D01*
X22689160Y-29602438D02*
X22736779Y-29650057D01*
X23355827Y-29554819D02*
X23546303Y-29554819D01*
X23546303Y-29554819D02*
X23641541Y-29602438D01*
X23641541Y-29602438D02*
X23736779Y-29697676D01*
X23736779Y-29697676D02*
X23784398Y-29888152D01*
X23784398Y-29888152D02*
X23784398Y-30221485D01*
X23784398Y-30221485D02*
X23736779Y-30411961D01*
X23736779Y-30411961D02*
X23641541Y-30507200D01*
X23641541Y-30507200D02*
X23546303Y-30554819D01*
X23546303Y-30554819D02*
X23355827Y-30554819D01*
X23355827Y-30554819D02*
X23260589Y-30507200D01*
X23260589Y-30507200D02*
X23165351Y-30411961D01*
X23165351Y-30411961D02*
X23117732Y-30221485D01*
X23117732Y-30221485D02*
X23117732Y-29888152D01*
X23117732Y-29888152D02*
X23165351Y-29697676D01*
X23165351Y-29697676D02*
X23260589Y-29602438D01*
X23260589Y-29602438D02*
X23355827Y-29554819D01*
X24212970Y-30554819D02*
X24212970Y-29554819D01*
X24212970Y-29554819D02*
X24784398Y-30554819D01*
X24784398Y-30554819D02*
X24784398Y-29554819D01*
X25117732Y-29554819D02*
X25689160Y-29554819D01*
X25403446Y-30554819D02*
X25403446Y-29554819D01*
X26593922Y-30554819D02*
X26260589Y-30078628D01*
X26022494Y-30554819D02*
X26022494Y-29554819D01*
X26022494Y-29554819D02*
X26403446Y-29554819D01*
X26403446Y-29554819D02*
X26498684Y-29602438D01*
X26498684Y-29602438D02*
X26546303Y-29650057D01*
X26546303Y-29650057D02*
X26593922Y-29745295D01*
X26593922Y-29745295D02*
X26593922Y-29888152D01*
X26593922Y-29888152D02*
X26546303Y-29983390D01*
X26546303Y-29983390D02*
X26498684Y-30031009D01*
X26498684Y-30031009D02*
X26403446Y-30078628D01*
X26403446Y-30078628D02*
X26022494Y-30078628D01*
X27212970Y-29554819D02*
X27403446Y-29554819D01*
X27403446Y-29554819D02*
X27498684Y-29602438D01*
X27498684Y-29602438D02*
X27593922Y-29697676D01*
X27593922Y-29697676D02*
X27641541Y-29888152D01*
X27641541Y-29888152D02*
X27641541Y-30221485D01*
X27641541Y-30221485D02*
X27593922Y-30411961D01*
X27593922Y-30411961D02*
X27498684Y-30507200D01*
X27498684Y-30507200D02*
X27403446Y-30554819D01*
X27403446Y-30554819D02*
X27212970Y-30554819D01*
X27212970Y-30554819D02*
X27117732Y-30507200D01*
X27117732Y-30507200D02*
X27022494Y-30411961D01*
X27022494Y-30411961D02*
X26974875Y-30221485D01*
X26974875Y-30221485D02*
X26974875Y-29888152D01*
X26974875Y-29888152D02*
X27022494Y-29697676D01*
X27022494Y-29697676D02*
X27117732Y-29602438D01*
X27117732Y-29602438D02*
X27212970Y-29554819D01*
X28546303Y-30554819D02*
X28070113Y-30554819D01*
X28070113Y-30554819D02*
X28070113Y-29554819D01*
X29498685Y-29554819D02*
X29832018Y-30554819D01*
X29832018Y-30554819D02*
X30165351Y-29554819D01*
X30498685Y-30554819D02*
X30498685Y-29554819D01*
X30927256Y-30269104D02*
X31403446Y-30269104D01*
X30832018Y-30554819D02*
X31165351Y-29554819D01*
X31165351Y-29554819D02*
X31498684Y-30554819D01*
X31832018Y-30459580D02*
X31879637Y-30507200D01*
X31879637Y-30507200D02*
X31832018Y-30554819D01*
X31832018Y-30554819D02*
X31784399Y-30507200D01*
X31784399Y-30507200D02*
X31832018Y-30459580D01*
X31832018Y-30459580D02*
X31832018Y-30554819D01*
X31832018Y-29935771D02*
X31879637Y-29983390D01*
X31879637Y-29983390D02*
X31832018Y-30031009D01*
X31832018Y-30031009D02*
X31784399Y-29983390D01*
X31784399Y-29983390D02*
X31832018Y-29935771D01*
X31832018Y-29935771D02*
X31832018Y-30031009D01*
X16260588Y-32164763D02*
X15689160Y-32164763D01*
X15974874Y-32164763D02*
X15974874Y-31164763D01*
X15974874Y-31164763D02*
X15879636Y-31307620D01*
X15879636Y-31307620D02*
X15784398Y-31402858D01*
X15784398Y-31402858D02*
X15689160Y-31450477D01*
X16689160Y-32069524D02*
X16736779Y-32117144D01*
X16736779Y-32117144D02*
X16689160Y-32164763D01*
X16689160Y-32164763D02*
X16641541Y-32117144D01*
X16641541Y-32117144D02*
X16689160Y-32069524D01*
X16689160Y-32069524D02*
X16689160Y-32164763D01*
X17927255Y-32164763D02*
X17927255Y-31164763D01*
X17927255Y-31164763D02*
X18308207Y-31164763D01*
X18308207Y-31164763D02*
X18403445Y-31212382D01*
X18403445Y-31212382D02*
X18451064Y-31260001D01*
X18451064Y-31260001D02*
X18498683Y-31355239D01*
X18498683Y-31355239D02*
X18498683Y-31498096D01*
X18498683Y-31498096D02*
X18451064Y-31593334D01*
X18451064Y-31593334D02*
X18403445Y-31640953D01*
X18403445Y-31640953D02*
X18308207Y-31688572D01*
X18308207Y-31688572D02*
X17927255Y-31688572D01*
X18927255Y-32164763D02*
X18927255Y-31164763D01*
X20689159Y-31212382D02*
X20593921Y-31164763D01*
X20593921Y-31164763D02*
X20451064Y-31164763D01*
X20451064Y-31164763D02*
X20308207Y-31212382D01*
X20308207Y-31212382D02*
X20212969Y-31307620D01*
X20212969Y-31307620D02*
X20165350Y-31402858D01*
X20165350Y-31402858D02*
X20117731Y-31593334D01*
X20117731Y-31593334D02*
X20117731Y-31736191D01*
X20117731Y-31736191D02*
X20165350Y-31926667D01*
X20165350Y-31926667D02*
X20212969Y-32021905D01*
X20212969Y-32021905D02*
X20308207Y-32117144D01*
X20308207Y-32117144D02*
X20451064Y-32164763D01*
X20451064Y-32164763D02*
X20546302Y-32164763D01*
X20546302Y-32164763D02*
X20689159Y-32117144D01*
X20689159Y-32117144D02*
X20736778Y-32069524D01*
X20736778Y-32069524D02*
X20736778Y-31736191D01*
X20736778Y-31736191D02*
X20546302Y-31736191D01*
X21165350Y-32164763D02*
X21165350Y-31164763D01*
X21165350Y-31164763D02*
X21546302Y-31164763D01*
X21546302Y-31164763D02*
X21641540Y-31212382D01*
X21641540Y-31212382D02*
X21689159Y-31260001D01*
X21689159Y-31260001D02*
X21736778Y-31355239D01*
X21736778Y-31355239D02*
X21736778Y-31498096D01*
X21736778Y-31498096D02*
X21689159Y-31593334D01*
X21689159Y-31593334D02*
X21641540Y-31640953D01*
X21641540Y-31640953D02*
X21546302Y-31688572D01*
X21546302Y-31688572D02*
X21165350Y-31688572D01*
X22165350Y-32164763D02*
X22165350Y-31164763D01*
X22832016Y-31164763D02*
X23022492Y-31164763D01*
X23022492Y-31164763D02*
X23117730Y-31212382D01*
X23117730Y-31212382D02*
X23212968Y-31307620D01*
X23212968Y-31307620D02*
X23260587Y-31498096D01*
X23260587Y-31498096D02*
X23260587Y-31831429D01*
X23260587Y-31831429D02*
X23212968Y-32021905D01*
X23212968Y-32021905D02*
X23117730Y-32117144D01*
X23117730Y-32117144D02*
X23022492Y-32164763D01*
X23022492Y-32164763D02*
X22832016Y-32164763D01*
X22832016Y-32164763D02*
X22736778Y-32117144D01*
X22736778Y-32117144D02*
X22641540Y-32021905D01*
X22641540Y-32021905D02*
X22593921Y-31831429D01*
X22593921Y-31831429D02*
X22593921Y-31498096D01*
X22593921Y-31498096D02*
X22641540Y-31307620D01*
X22641540Y-31307620D02*
X22736778Y-31212382D01*
X22736778Y-31212382D02*
X22832016Y-31164763D01*
X24736778Y-32545715D02*
X24689159Y-32498096D01*
X24689159Y-32498096D02*
X24593921Y-32355239D01*
X24593921Y-32355239D02*
X24546302Y-32260001D01*
X24546302Y-32260001D02*
X24498683Y-32117144D01*
X24498683Y-32117144D02*
X24451064Y-31879048D01*
X24451064Y-31879048D02*
X24451064Y-31688572D01*
X24451064Y-31688572D02*
X24498683Y-31450477D01*
X24498683Y-31450477D02*
X24546302Y-31307620D01*
X24546302Y-31307620D02*
X24593921Y-31212382D01*
X24593921Y-31212382D02*
X24689159Y-31069524D01*
X24689159Y-31069524D02*
X24736778Y-31021905D01*
X25403445Y-31164763D02*
X25403445Y-31879048D01*
X25403445Y-31879048D02*
X25355826Y-32021905D01*
X25355826Y-32021905D02*
X25260588Y-32117144D01*
X25260588Y-32117144D02*
X25117731Y-32164763D01*
X25117731Y-32164763D02*
X25022493Y-32164763D01*
X25879636Y-31164763D02*
X25879636Y-31974286D01*
X25879636Y-31974286D02*
X25927255Y-32069524D01*
X25927255Y-32069524D02*
X25974874Y-32117144D01*
X25974874Y-32117144D02*
X26070112Y-32164763D01*
X26070112Y-32164763D02*
X26260588Y-32164763D01*
X26260588Y-32164763D02*
X26355826Y-32117144D01*
X26355826Y-32117144D02*
X26403445Y-32069524D01*
X26403445Y-32069524D02*
X26451064Y-31974286D01*
X26451064Y-31974286D02*
X26451064Y-31164763D01*
X26927255Y-32164763D02*
X26927255Y-31164763D01*
X26927255Y-31164763D02*
X27260588Y-31879048D01*
X27260588Y-31879048D02*
X27593921Y-31164763D01*
X27593921Y-31164763D02*
X27593921Y-32164763D01*
X28070112Y-32164763D02*
X28070112Y-31164763D01*
X28070112Y-31164763D02*
X28451064Y-31164763D01*
X28451064Y-31164763D02*
X28546302Y-31212382D01*
X28546302Y-31212382D02*
X28593921Y-31260001D01*
X28593921Y-31260001D02*
X28641540Y-31355239D01*
X28641540Y-31355239D02*
X28641540Y-31498096D01*
X28641540Y-31498096D02*
X28593921Y-31593334D01*
X28593921Y-31593334D02*
X28546302Y-31640953D01*
X28546302Y-31640953D02*
X28451064Y-31688572D01*
X28451064Y-31688572D02*
X28070112Y-31688572D01*
X29070112Y-31640953D02*
X29403445Y-31640953D01*
X29546302Y-32164763D02*
X29070112Y-32164763D01*
X29070112Y-32164763D02*
X29070112Y-31164763D01*
X29070112Y-31164763D02*
X29546302Y-31164763D01*
X30546302Y-32164763D02*
X30212969Y-31688572D01*
X29974874Y-32164763D02*
X29974874Y-31164763D01*
X29974874Y-31164763D02*
X30355826Y-31164763D01*
X30355826Y-31164763D02*
X30451064Y-31212382D01*
X30451064Y-31212382D02*
X30498683Y-31260001D01*
X30498683Y-31260001D02*
X30546302Y-31355239D01*
X30546302Y-31355239D02*
X30546302Y-31498096D01*
X30546302Y-31498096D02*
X30498683Y-31593334D01*
X30498683Y-31593334D02*
X30451064Y-31640953D01*
X30451064Y-31640953D02*
X30355826Y-31688572D01*
X30355826Y-31688572D02*
X29974874Y-31688572D01*
X31593922Y-31164763D02*
X32165350Y-31164763D01*
X31879636Y-32164763D02*
X31879636Y-31164763D01*
X32689160Y-31164763D02*
X32879636Y-31164763D01*
X32879636Y-31164763D02*
X32974874Y-31212382D01*
X32974874Y-31212382D02*
X33070112Y-31307620D01*
X33070112Y-31307620D02*
X33117731Y-31498096D01*
X33117731Y-31498096D02*
X33117731Y-31831429D01*
X33117731Y-31831429D02*
X33070112Y-32021905D01*
X33070112Y-32021905D02*
X32974874Y-32117144D01*
X32974874Y-32117144D02*
X32879636Y-32164763D01*
X32879636Y-32164763D02*
X32689160Y-32164763D01*
X32689160Y-32164763D02*
X32593922Y-32117144D01*
X32593922Y-32117144D02*
X32498684Y-32021905D01*
X32498684Y-32021905D02*
X32451065Y-31831429D01*
X32451065Y-31831429D02*
X32451065Y-31498096D01*
X32451065Y-31498096D02*
X32498684Y-31307620D01*
X32498684Y-31307620D02*
X32593922Y-31212382D01*
X32593922Y-31212382D02*
X32689160Y-31164763D01*
X34784398Y-32164763D02*
X34308208Y-32164763D01*
X34308208Y-32164763D02*
X34308208Y-31164763D01*
X35117732Y-31640953D02*
X35451065Y-31640953D01*
X35593922Y-32164763D02*
X35117732Y-32164763D01*
X35117732Y-32164763D02*
X35117732Y-31164763D01*
X35117732Y-31164763D02*
X35593922Y-31164763D01*
X36355827Y-31640953D02*
X36022494Y-31640953D01*
X36022494Y-32164763D02*
X36022494Y-31164763D01*
X36022494Y-31164763D02*
X36498684Y-31164763D01*
X36736780Y-31164763D02*
X37308208Y-31164763D01*
X37022494Y-32164763D02*
X37022494Y-31164763D01*
X38403447Y-32164763D02*
X38403447Y-31164763D01*
X38403447Y-31164763D02*
X38784399Y-31164763D01*
X38784399Y-31164763D02*
X38879637Y-31212382D01*
X38879637Y-31212382D02*
X38927256Y-31260001D01*
X38927256Y-31260001D02*
X38974875Y-31355239D01*
X38974875Y-31355239D02*
X38974875Y-31498096D01*
X38974875Y-31498096D02*
X38927256Y-31593334D01*
X38927256Y-31593334D02*
X38879637Y-31640953D01*
X38879637Y-31640953D02*
X38784399Y-31688572D01*
X38784399Y-31688572D02*
X38403447Y-31688572D01*
X39593923Y-31164763D02*
X39784399Y-31164763D01*
X39784399Y-31164763D02*
X39879637Y-31212382D01*
X39879637Y-31212382D02*
X39974875Y-31307620D01*
X39974875Y-31307620D02*
X40022494Y-31498096D01*
X40022494Y-31498096D02*
X40022494Y-31831429D01*
X40022494Y-31831429D02*
X39974875Y-32021905D01*
X39974875Y-32021905D02*
X39879637Y-32117144D01*
X39879637Y-32117144D02*
X39784399Y-32164763D01*
X39784399Y-32164763D02*
X39593923Y-32164763D01*
X39593923Y-32164763D02*
X39498685Y-32117144D01*
X39498685Y-32117144D02*
X39403447Y-32021905D01*
X39403447Y-32021905D02*
X39355828Y-31831429D01*
X39355828Y-31831429D02*
X39355828Y-31498096D01*
X39355828Y-31498096D02*
X39403447Y-31307620D01*
X39403447Y-31307620D02*
X39498685Y-31212382D01*
X39498685Y-31212382D02*
X39593923Y-31164763D01*
X40403447Y-32117144D02*
X40546304Y-32164763D01*
X40546304Y-32164763D02*
X40784399Y-32164763D01*
X40784399Y-32164763D02*
X40879637Y-32117144D01*
X40879637Y-32117144D02*
X40927256Y-32069524D01*
X40927256Y-32069524D02*
X40974875Y-31974286D01*
X40974875Y-31974286D02*
X40974875Y-31879048D01*
X40974875Y-31879048D02*
X40927256Y-31783810D01*
X40927256Y-31783810D02*
X40879637Y-31736191D01*
X40879637Y-31736191D02*
X40784399Y-31688572D01*
X40784399Y-31688572D02*
X40593923Y-31640953D01*
X40593923Y-31640953D02*
X40498685Y-31593334D01*
X40498685Y-31593334D02*
X40451066Y-31545715D01*
X40451066Y-31545715D02*
X40403447Y-31450477D01*
X40403447Y-31450477D02*
X40403447Y-31355239D01*
X40403447Y-31355239D02*
X40451066Y-31260001D01*
X40451066Y-31260001D02*
X40498685Y-31212382D01*
X40498685Y-31212382D02*
X40593923Y-31164763D01*
X40593923Y-31164763D02*
X40832018Y-31164763D01*
X40832018Y-31164763D02*
X40974875Y-31212382D01*
X41403447Y-32069524D02*
X41451066Y-32117144D01*
X41451066Y-32117144D02*
X41403447Y-32164763D01*
X41403447Y-32164763D02*
X41355828Y-32117144D01*
X41355828Y-32117144D02*
X41403447Y-32069524D01*
X41403447Y-32069524D02*
X41403447Y-32164763D01*
X41784399Y-32545715D02*
X41832018Y-32498096D01*
X41832018Y-32498096D02*
X41927256Y-32355239D01*
X41927256Y-32355239D02*
X41974875Y-32260001D01*
X41974875Y-32260001D02*
X42022494Y-32117144D01*
X42022494Y-32117144D02*
X42070113Y-31879048D01*
X42070113Y-31879048D02*
X42070113Y-31688572D01*
X42070113Y-31688572D02*
X42022494Y-31450477D01*
X42022494Y-31450477D02*
X41974875Y-31307620D01*
X41974875Y-31307620D02*
X41927256Y-31212382D01*
X41927256Y-31212382D02*
X41832018Y-31069524D01*
X41832018Y-31069524D02*
X41784399Y-31021905D01*
X15689160Y-32869945D02*
X15736779Y-32822326D01*
X15736779Y-32822326D02*
X15832017Y-32774707D01*
X15832017Y-32774707D02*
X16070112Y-32774707D01*
X16070112Y-32774707D02*
X16165350Y-32822326D01*
X16165350Y-32822326D02*
X16212969Y-32869945D01*
X16212969Y-32869945D02*
X16260588Y-32965183D01*
X16260588Y-32965183D02*
X16260588Y-33060421D01*
X16260588Y-33060421D02*
X16212969Y-33203278D01*
X16212969Y-33203278D02*
X15641541Y-33774707D01*
X15641541Y-33774707D02*
X16260588Y-33774707D01*
X16689160Y-33679468D02*
X16736779Y-33727088D01*
X16736779Y-33727088D02*
X16689160Y-33774707D01*
X16689160Y-33774707D02*
X16641541Y-33727088D01*
X16641541Y-33727088D02*
X16689160Y-33679468D01*
X16689160Y-33679468D02*
X16689160Y-33774707D01*
X17927255Y-33774707D02*
X17927255Y-32774707D01*
X17927255Y-32774707D02*
X18308207Y-32774707D01*
X18308207Y-32774707D02*
X18403445Y-32822326D01*
X18403445Y-32822326D02*
X18451064Y-32869945D01*
X18451064Y-32869945D02*
X18498683Y-32965183D01*
X18498683Y-32965183D02*
X18498683Y-33108040D01*
X18498683Y-33108040D02*
X18451064Y-33203278D01*
X18451064Y-33203278D02*
X18403445Y-33250897D01*
X18403445Y-33250897D02*
X18308207Y-33298516D01*
X18308207Y-33298516D02*
X17927255Y-33298516D01*
X19498683Y-33679468D02*
X19451064Y-33727088D01*
X19451064Y-33727088D02*
X19308207Y-33774707D01*
X19308207Y-33774707D02*
X19212969Y-33774707D01*
X19212969Y-33774707D02*
X19070112Y-33727088D01*
X19070112Y-33727088D02*
X18974874Y-33631849D01*
X18974874Y-33631849D02*
X18927255Y-33536611D01*
X18927255Y-33536611D02*
X18879636Y-33346135D01*
X18879636Y-33346135D02*
X18879636Y-33203278D01*
X18879636Y-33203278D02*
X18927255Y-33012802D01*
X18927255Y-33012802D02*
X18974874Y-32917564D01*
X18974874Y-32917564D02*
X19070112Y-32822326D01*
X19070112Y-32822326D02*
X19212969Y-32774707D01*
X19212969Y-32774707D02*
X19308207Y-32774707D01*
X19308207Y-32774707D02*
X19451064Y-32822326D01*
X19451064Y-32822326D02*
X19498683Y-32869945D01*
X19879636Y-33488992D02*
X20355826Y-33488992D01*
X19784398Y-33774707D02*
X20117731Y-32774707D01*
X20117731Y-32774707D02*
X20451064Y-33774707D01*
X20832017Y-33774707D02*
X21022493Y-33774707D01*
X21022493Y-33774707D02*
X21117731Y-33727088D01*
X21117731Y-33727088D02*
X21165350Y-33679468D01*
X21165350Y-33679468D02*
X21260588Y-33536611D01*
X21260588Y-33536611D02*
X21308207Y-33346135D01*
X21308207Y-33346135D02*
X21308207Y-32965183D01*
X21308207Y-32965183D02*
X21260588Y-32869945D01*
X21260588Y-32869945D02*
X21212969Y-32822326D01*
X21212969Y-32822326D02*
X21117731Y-32774707D01*
X21117731Y-32774707D02*
X20927255Y-32774707D01*
X20927255Y-32774707D02*
X20832017Y-32822326D01*
X20832017Y-32822326D02*
X20784398Y-32869945D01*
X20784398Y-32869945D02*
X20736779Y-32965183D01*
X20736779Y-32965183D02*
X20736779Y-33203278D01*
X20736779Y-33203278D02*
X20784398Y-33298516D01*
X20784398Y-33298516D02*
X20832017Y-33346135D01*
X20832017Y-33346135D02*
X20927255Y-33393754D01*
X20927255Y-33393754D02*
X21117731Y-33393754D01*
X21117731Y-33393754D02*
X21212969Y-33346135D01*
X21212969Y-33346135D02*
X21260588Y-33298516D01*
X21260588Y-33298516D02*
X21308207Y-33203278D01*
X22165350Y-32774707D02*
X21974874Y-32774707D01*
X21974874Y-32774707D02*
X21879636Y-32822326D01*
X21879636Y-32822326D02*
X21832017Y-32869945D01*
X21832017Y-32869945D02*
X21736779Y-33012802D01*
X21736779Y-33012802D02*
X21689160Y-33203278D01*
X21689160Y-33203278D02*
X21689160Y-33584230D01*
X21689160Y-33584230D02*
X21736779Y-33679468D01*
X21736779Y-33679468D02*
X21784398Y-33727088D01*
X21784398Y-33727088D02*
X21879636Y-33774707D01*
X21879636Y-33774707D02*
X22070112Y-33774707D01*
X22070112Y-33774707D02*
X22165350Y-33727088D01*
X22165350Y-33727088D02*
X22212969Y-33679468D01*
X22212969Y-33679468D02*
X22260588Y-33584230D01*
X22260588Y-33584230D02*
X22260588Y-33346135D01*
X22260588Y-33346135D02*
X22212969Y-33250897D01*
X22212969Y-33250897D02*
X22165350Y-33203278D01*
X22165350Y-33203278D02*
X22070112Y-33155659D01*
X22070112Y-33155659D02*
X21879636Y-33155659D01*
X21879636Y-33155659D02*
X21784398Y-33203278D01*
X21784398Y-33203278D02*
X21736779Y-33250897D01*
X21736779Y-33250897D02*
X21689160Y-33346135D01*
X22832017Y-33203278D02*
X22736779Y-33155659D01*
X22736779Y-33155659D02*
X22689160Y-33108040D01*
X22689160Y-33108040D02*
X22641541Y-33012802D01*
X22641541Y-33012802D02*
X22641541Y-32965183D01*
X22641541Y-32965183D02*
X22689160Y-32869945D01*
X22689160Y-32869945D02*
X22736779Y-32822326D01*
X22736779Y-32822326D02*
X22832017Y-32774707D01*
X22832017Y-32774707D02*
X23022493Y-32774707D01*
X23022493Y-32774707D02*
X23117731Y-32822326D01*
X23117731Y-32822326D02*
X23165350Y-32869945D01*
X23165350Y-32869945D02*
X23212969Y-32965183D01*
X23212969Y-32965183D02*
X23212969Y-33012802D01*
X23212969Y-33012802D02*
X23165350Y-33108040D01*
X23165350Y-33108040D02*
X23117731Y-33155659D01*
X23117731Y-33155659D02*
X23022493Y-33203278D01*
X23022493Y-33203278D02*
X22832017Y-33203278D01*
X22832017Y-33203278D02*
X22736779Y-33250897D01*
X22736779Y-33250897D02*
X22689160Y-33298516D01*
X22689160Y-33298516D02*
X22641541Y-33393754D01*
X22641541Y-33393754D02*
X22641541Y-33584230D01*
X22641541Y-33584230D02*
X22689160Y-33679468D01*
X22689160Y-33679468D02*
X22736779Y-33727088D01*
X22736779Y-33727088D02*
X22832017Y-33774707D01*
X22832017Y-33774707D02*
X23022493Y-33774707D01*
X23022493Y-33774707D02*
X23117731Y-33727088D01*
X23117731Y-33727088D02*
X23165350Y-33679468D01*
X23165350Y-33679468D02*
X23212969Y-33584230D01*
X23212969Y-33584230D02*
X23212969Y-33393754D01*
X23212969Y-33393754D02*
X23165350Y-33298516D01*
X23165350Y-33298516D02*
X23117731Y-33250897D01*
X23117731Y-33250897D02*
X23022493Y-33203278D01*
X24117731Y-32774707D02*
X23641541Y-32774707D01*
X23641541Y-32774707D02*
X23593922Y-33250897D01*
X23593922Y-33250897D02*
X23641541Y-33203278D01*
X23641541Y-33203278D02*
X23736779Y-33155659D01*
X23736779Y-33155659D02*
X23974874Y-33155659D01*
X23974874Y-33155659D02*
X24070112Y-33203278D01*
X24070112Y-33203278D02*
X24117731Y-33250897D01*
X24117731Y-33250897D02*
X24165350Y-33346135D01*
X24165350Y-33346135D02*
X24165350Y-33584230D01*
X24165350Y-33584230D02*
X24117731Y-33679468D01*
X24117731Y-33679468D02*
X24070112Y-33727088D01*
X24070112Y-33727088D02*
X23974874Y-33774707D01*
X23974874Y-33774707D02*
X23736779Y-33774707D01*
X23736779Y-33774707D02*
X23641541Y-33727088D01*
X23641541Y-33727088D02*
X23593922Y-33679468D01*
X25355827Y-33774707D02*
X25355827Y-32774707D01*
X25355827Y-32774707D02*
X25736779Y-32774707D01*
X25736779Y-32774707D02*
X25832017Y-32822326D01*
X25832017Y-32822326D02*
X25879636Y-32869945D01*
X25879636Y-32869945D02*
X25927255Y-32965183D01*
X25927255Y-32965183D02*
X25927255Y-33108040D01*
X25927255Y-33108040D02*
X25879636Y-33203278D01*
X25879636Y-33203278D02*
X25832017Y-33250897D01*
X25832017Y-33250897D02*
X25736779Y-33298516D01*
X25736779Y-33298516D02*
X25355827Y-33298516D01*
X26260589Y-32774707D02*
X26498684Y-33774707D01*
X26498684Y-33774707D02*
X26689160Y-33060421D01*
X26689160Y-33060421D02*
X26879636Y-33774707D01*
X26879636Y-33774707D02*
X27117732Y-32774707D01*
X27498684Y-33774707D02*
X27498684Y-32774707D01*
X27498684Y-32774707D02*
X27832017Y-33488992D01*
X27832017Y-33488992D02*
X28165350Y-32774707D01*
X28165350Y-32774707D02*
X28165350Y-33774707D01*
X29974874Y-33679468D02*
X29927255Y-33727088D01*
X29927255Y-33727088D02*
X29784398Y-33774707D01*
X29784398Y-33774707D02*
X29689160Y-33774707D01*
X29689160Y-33774707D02*
X29546303Y-33727088D01*
X29546303Y-33727088D02*
X29451065Y-33631849D01*
X29451065Y-33631849D02*
X29403446Y-33536611D01*
X29403446Y-33536611D02*
X29355827Y-33346135D01*
X29355827Y-33346135D02*
X29355827Y-33203278D01*
X29355827Y-33203278D02*
X29403446Y-33012802D01*
X29403446Y-33012802D02*
X29451065Y-32917564D01*
X29451065Y-32917564D02*
X29546303Y-32822326D01*
X29546303Y-32822326D02*
X29689160Y-32774707D01*
X29689160Y-32774707D02*
X29784398Y-32774707D01*
X29784398Y-32774707D02*
X29927255Y-32822326D01*
X29927255Y-32822326D02*
X29974874Y-32869945D01*
X30260589Y-32774707D02*
X30832017Y-32774707D01*
X30546303Y-33774707D02*
X30546303Y-32774707D01*
X31736779Y-33774707D02*
X31403446Y-33298516D01*
X31165351Y-33774707D02*
X31165351Y-32774707D01*
X31165351Y-32774707D02*
X31546303Y-32774707D01*
X31546303Y-32774707D02*
X31641541Y-32822326D01*
X31641541Y-32822326D02*
X31689160Y-32869945D01*
X31689160Y-32869945D02*
X31736779Y-32965183D01*
X31736779Y-32965183D02*
X31736779Y-33108040D01*
X31736779Y-33108040D02*
X31689160Y-33203278D01*
X31689160Y-33203278D02*
X31641541Y-33250897D01*
X31641541Y-33250897D02*
X31546303Y-33298516D01*
X31546303Y-33298516D02*
X31165351Y-33298516D01*
X32641541Y-33774707D02*
X32165351Y-33774707D01*
X32165351Y-33774707D02*
X32165351Y-32774707D01*
X32974875Y-33679468D02*
X33022494Y-33727088D01*
X33022494Y-33727088D02*
X32974875Y-33774707D01*
X32974875Y-33774707D02*
X32927256Y-33727088D01*
X32927256Y-33727088D02*
X32974875Y-33679468D01*
X32974875Y-33679468D02*
X32974875Y-33774707D01*
X34498684Y-34155659D02*
X34451065Y-34108040D01*
X34451065Y-34108040D02*
X34355827Y-33965183D01*
X34355827Y-33965183D02*
X34308208Y-33869945D01*
X34308208Y-33869945D02*
X34260589Y-33727088D01*
X34260589Y-33727088D02*
X34212970Y-33488992D01*
X34212970Y-33488992D02*
X34212970Y-33298516D01*
X34212970Y-33298516D02*
X34260589Y-33060421D01*
X34260589Y-33060421D02*
X34308208Y-32917564D01*
X34308208Y-32917564D02*
X34355827Y-32822326D01*
X34355827Y-32822326D02*
X34451065Y-32679468D01*
X34451065Y-32679468D02*
X34498684Y-32631849D01*
X35451065Y-33774707D02*
X35117732Y-33298516D01*
X34879637Y-33774707D02*
X34879637Y-32774707D01*
X34879637Y-32774707D02*
X35260589Y-32774707D01*
X35260589Y-32774707D02*
X35355827Y-32822326D01*
X35355827Y-32822326D02*
X35403446Y-32869945D01*
X35403446Y-32869945D02*
X35451065Y-32965183D01*
X35451065Y-32965183D02*
X35451065Y-33108040D01*
X35451065Y-33108040D02*
X35403446Y-33203278D01*
X35403446Y-33203278D02*
X35355827Y-33250897D01*
X35355827Y-33250897D02*
X35260589Y-33298516D01*
X35260589Y-33298516D02*
X34879637Y-33298516D01*
X35879637Y-33774707D02*
X35879637Y-32774707D01*
X36879636Y-32822326D02*
X36784398Y-32774707D01*
X36784398Y-32774707D02*
X36641541Y-32774707D01*
X36641541Y-32774707D02*
X36498684Y-32822326D01*
X36498684Y-32822326D02*
X36403446Y-32917564D01*
X36403446Y-32917564D02*
X36355827Y-33012802D01*
X36355827Y-33012802D02*
X36308208Y-33203278D01*
X36308208Y-33203278D02*
X36308208Y-33346135D01*
X36308208Y-33346135D02*
X36355827Y-33536611D01*
X36355827Y-33536611D02*
X36403446Y-33631849D01*
X36403446Y-33631849D02*
X36498684Y-33727088D01*
X36498684Y-33727088D02*
X36641541Y-33774707D01*
X36641541Y-33774707D02*
X36736779Y-33774707D01*
X36736779Y-33774707D02*
X36879636Y-33727088D01*
X36879636Y-33727088D02*
X36927255Y-33679468D01*
X36927255Y-33679468D02*
X36927255Y-33346135D01*
X36927255Y-33346135D02*
X36736779Y-33346135D01*
X37355827Y-33774707D02*
X37355827Y-32774707D01*
X37355827Y-33250897D02*
X37927255Y-33250897D01*
X37927255Y-33774707D02*
X37927255Y-32774707D01*
X38260589Y-32774707D02*
X38832017Y-32774707D01*
X38546303Y-33774707D02*
X38546303Y-32774707D01*
X39070113Y-34155659D02*
X39117732Y-34108040D01*
X39117732Y-34108040D02*
X39212970Y-33965183D01*
X39212970Y-33965183D02*
X39260589Y-33869945D01*
X39260589Y-33869945D02*
X39308208Y-33727088D01*
X39308208Y-33727088D02*
X39355827Y-33488992D01*
X39355827Y-33488992D02*
X39355827Y-33298516D01*
X39355827Y-33298516D02*
X39308208Y-33060421D01*
X39308208Y-33060421D02*
X39260589Y-32917564D01*
X39260589Y-32917564D02*
X39212970Y-32822326D01*
X39212970Y-32822326D02*
X39117732Y-32679468D01*
X39117732Y-32679468D02*
X39070113Y-32631849D01*
X15641541Y-34384651D02*
X16260588Y-34384651D01*
X16260588Y-34384651D02*
X15927255Y-34765603D01*
X15927255Y-34765603D02*
X16070112Y-34765603D01*
X16070112Y-34765603D02*
X16165350Y-34813222D01*
X16165350Y-34813222D02*
X16212969Y-34860841D01*
X16212969Y-34860841D02*
X16260588Y-34956079D01*
X16260588Y-34956079D02*
X16260588Y-35194174D01*
X16260588Y-35194174D02*
X16212969Y-35289412D01*
X16212969Y-35289412D02*
X16165350Y-35337032D01*
X16165350Y-35337032D02*
X16070112Y-35384651D01*
X16070112Y-35384651D02*
X15784398Y-35384651D01*
X15784398Y-35384651D02*
X15689160Y-35337032D01*
X15689160Y-35337032D02*
X15641541Y-35289412D01*
X16689160Y-35289412D02*
X16736779Y-35337032D01*
X16736779Y-35337032D02*
X16689160Y-35384651D01*
X16689160Y-35384651D02*
X16641541Y-35337032D01*
X16641541Y-35337032D02*
X16689160Y-35289412D01*
X16689160Y-35289412D02*
X16689160Y-35384651D01*
X17927255Y-35384651D02*
X17927255Y-34384651D01*
X17927255Y-34384651D02*
X18165350Y-34384651D01*
X18165350Y-34384651D02*
X18308207Y-34432270D01*
X18308207Y-34432270D02*
X18403445Y-34527508D01*
X18403445Y-34527508D02*
X18451064Y-34622746D01*
X18451064Y-34622746D02*
X18498683Y-34813222D01*
X18498683Y-34813222D02*
X18498683Y-34956079D01*
X18498683Y-34956079D02*
X18451064Y-35146555D01*
X18451064Y-35146555D02*
X18403445Y-35241793D01*
X18403445Y-35241793D02*
X18308207Y-35337032D01*
X18308207Y-35337032D02*
X18165350Y-35384651D01*
X18165350Y-35384651D02*
X17927255Y-35384651D01*
X18927255Y-35384651D02*
X18927255Y-34384651D01*
X19974873Y-35384651D02*
X19641540Y-34908460D01*
X19403445Y-35384651D02*
X19403445Y-34384651D01*
X19403445Y-34384651D02*
X19784397Y-34384651D01*
X19784397Y-34384651D02*
X19879635Y-34432270D01*
X19879635Y-34432270D02*
X19927254Y-34479889D01*
X19927254Y-34479889D02*
X19974873Y-34575127D01*
X19974873Y-34575127D02*
X19974873Y-34717984D01*
X19974873Y-34717984D02*
X19927254Y-34813222D01*
X19927254Y-34813222D02*
X19879635Y-34860841D01*
X19879635Y-34860841D02*
X19784397Y-34908460D01*
X19784397Y-34908460D02*
X19403445Y-34908460D01*
X20403445Y-34860841D02*
X20736778Y-34860841D01*
X20879635Y-35384651D02*
X20403445Y-35384651D01*
X20403445Y-35384651D02*
X20403445Y-34384651D01*
X20403445Y-34384651D02*
X20879635Y-34384651D01*
X21879635Y-35289412D02*
X21832016Y-35337032D01*
X21832016Y-35337032D02*
X21689159Y-35384651D01*
X21689159Y-35384651D02*
X21593921Y-35384651D01*
X21593921Y-35384651D02*
X21451064Y-35337032D01*
X21451064Y-35337032D02*
X21355826Y-35241793D01*
X21355826Y-35241793D02*
X21308207Y-35146555D01*
X21308207Y-35146555D02*
X21260588Y-34956079D01*
X21260588Y-34956079D02*
X21260588Y-34813222D01*
X21260588Y-34813222D02*
X21308207Y-34622746D01*
X21308207Y-34622746D02*
X21355826Y-34527508D01*
X21355826Y-34527508D02*
X21451064Y-34432270D01*
X21451064Y-34432270D02*
X21593921Y-34384651D01*
X21593921Y-34384651D02*
X21689159Y-34384651D01*
X21689159Y-34384651D02*
X21832016Y-34432270D01*
X21832016Y-34432270D02*
X21879635Y-34479889D01*
X22165350Y-34384651D02*
X22736778Y-34384651D01*
X22451064Y-35384651D02*
X22451064Y-34384651D01*
X23736779Y-34384651D02*
X24355826Y-34384651D01*
X24355826Y-34384651D02*
X24022493Y-34765603D01*
X24022493Y-34765603D02*
X24165350Y-34765603D01*
X24165350Y-34765603D02*
X24260588Y-34813222D01*
X24260588Y-34813222D02*
X24308207Y-34860841D01*
X24308207Y-34860841D02*
X24355826Y-34956079D01*
X24355826Y-34956079D02*
X24355826Y-35194174D01*
X24355826Y-35194174D02*
X24308207Y-35289412D01*
X24308207Y-35289412D02*
X24260588Y-35337032D01*
X24260588Y-35337032D02*
X24165350Y-35384651D01*
X24165350Y-35384651D02*
X23879636Y-35384651D01*
X23879636Y-35384651D02*
X23784398Y-35337032D01*
X23784398Y-35337032D02*
X23736779Y-35289412D01*
X24641541Y-34384651D02*
X24974874Y-35384651D01*
X24974874Y-35384651D02*
X25308207Y-34384651D01*
X25641541Y-35003698D02*
X26403446Y-35003698D01*
X26832017Y-34479889D02*
X26879636Y-34432270D01*
X26879636Y-34432270D02*
X26974874Y-34384651D01*
X26974874Y-34384651D02*
X27212969Y-34384651D01*
X27212969Y-34384651D02*
X27308207Y-34432270D01*
X27308207Y-34432270D02*
X27355826Y-34479889D01*
X27355826Y-34479889D02*
X27403445Y-34575127D01*
X27403445Y-34575127D02*
X27403445Y-34670365D01*
X27403445Y-34670365D02*
X27355826Y-34813222D01*
X27355826Y-34813222D02*
X26784398Y-35384651D01*
X26784398Y-35384651D02*
X27403445Y-35384651D01*
X28260588Y-34384651D02*
X28070112Y-34384651D01*
X28070112Y-34384651D02*
X27974874Y-34432270D01*
X27974874Y-34432270D02*
X27927255Y-34479889D01*
X27927255Y-34479889D02*
X27832017Y-34622746D01*
X27832017Y-34622746D02*
X27784398Y-34813222D01*
X27784398Y-34813222D02*
X27784398Y-35194174D01*
X27784398Y-35194174D02*
X27832017Y-35289412D01*
X27832017Y-35289412D02*
X27879636Y-35337032D01*
X27879636Y-35337032D02*
X27974874Y-35384651D01*
X27974874Y-35384651D02*
X28165350Y-35384651D01*
X28165350Y-35384651D02*
X28260588Y-35337032D01*
X28260588Y-35337032D02*
X28308207Y-35289412D01*
X28308207Y-35289412D02*
X28355826Y-35194174D01*
X28355826Y-35194174D02*
X28355826Y-34956079D01*
X28355826Y-34956079D02*
X28308207Y-34860841D01*
X28308207Y-34860841D02*
X28260588Y-34813222D01*
X28260588Y-34813222D02*
X28165350Y-34765603D01*
X28165350Y-34765603D02*
X27974874Y-34765603D01*
X27974874Y-34765603D02*
X27879636Y-34813222D01*
X27879636Y-34813222D02*
X27832017Y-34860841D01*
X27832017Y-34860841D02*
X27784398Y-34956079D01*
X28641541Y-34384651D02*
X28974874Y-35384651D01*
X28974874Y-35384651D02*
X29308207Y-34384651D01*
X30355827Y-35337032D02*
X30498684Y-35384651D01*
X30498684Y-35384651D02*
X30736779Y-35384651D01*
X30736779Y-35384651D02*
X30832017Y-35337032D01*
X30832017Y-35337032D02*
X30879636Y-35289412D01*
X30879636Y-35289412D02*
X30927255Y-35194174D01*
X30927255Y-35194174D02*
X30927255Y-35098936D01*
X30927255Y-35098936D02*
X30879636Y-35003698D01*
X30879636Y-35003698D02*
X30832017Y-34956079D01*
X30832017Y-34956079D02*
X30736779Y-34908460D01*
X30736779Y-34908460D02*
X30546303Y-34860841D01*
X30546303Y-34860841D02*
X30451065Y-34813222D01*
X30451065Y-34813222D02*
X30403446Y-34765603D01*
X30403446Y-34765603D02*
X30355827Y-34670365D01*
X30355827Y-34670365D02*
X30355827Y-34575127D01*
X30355827Y-34575127D02*
X30403446Y-34479889D01*
X30403446Y-34479889D02*
X30451065Y-34432270D01*
X30451065Y-34432270D02*
X30546303Y-34384651D01*
X30546303Y-34384651D02*
X30784398Y-34384651D01*
X30784398Y-34384651D02*
X30927255Y-34432270D01*
X31355827Y-35384651D02*
X31355827Y-34384651D01*
X32355826Y-34432270D02*
X32260588Y-34384651D01*
X32260588Y-34384651D02*
X32117731Y-34384651D01*
X32117731Y-34384651D02*
X31974874Y-34432270D01*
X31974874Y-34432270D02*
X31879636Y-34527508D01*
X31879636Y-34527508D02*
X31832017Y-34622746D01*
X31832017Y-34622746D02*
X31784398Y-34813222D01*
X31784398Y-34813222D02*
X31784398Y-34956079D01*
X31784398Y-34956079D02*
X31832017Y-35146555D01*
X31832017Y-35146555D02*
X31879636Y-35241793D01*
X31879636Y-35241793D02*
X31974874Y-35337032D01*
X31974874Y-35337032D02*
X32117731Y-35384651D01*
X32117731Y-35384651D02*
X32212969Y-35384651D01*
X32212969Y-35384651D02*
X32355826Y-35337032D01*
X32355826Y-35337032D02*
X32403445Y-35289412D01*
X32403445Y-35289412D02*
X32403445Y-34956079D01*
X32403445Y-34956079D02*
X32212969Y-34956079D01*
X32832017Y-35384651D02*
X32832017Y-34384651D01*
X32832017Y-34384651D02*
X33403445Y-35384651D01*
X33403445Y-35384651D02*
X33403445Y-34384651D01*
X33832017Y-35098936D02*
X34308207Y-35098936D01*
X33736779Y-35384651D02*
X34070112Y-34384651D01*
X34070112Y-34384651D02*
X34403445Y-35384651D01*
X35212969Y-35384651D02*
X34736779Y-35384651D01*
X34736779Y-35384651D02*
X34736779Y-34384651D01*
X36593922Y-35765603D02*
X36546303Y-35717984D01*
X36546303Y-35717984D02*
X36451065Y-35575127D01*
X36451065Y-35575127D02*
X36403446Y-35479889D01*
X36403446Y-35479889D02*
X36355827Y-35337032D01*
X36355827Y-35337032D02*
X36308208Y-35098936D01*
X36308208Y-35098936D02*
X36308208Y-34908460D01*
X36308208Y-34908460D02*
X36355827Y-34670365D01*
X36355827Y-34670365D02*
X36403446Y-34527508D01*
X36403446Y-34527508D02*
X36451065Y-34432270D01*
X36451065Y-34432270D02*
X36546303Y-34289412D01*
X36546303Y-34289412D02*
X36593922Y-34241793D01*
X37546303Y-35289412D02*
X37498684Y-35337032D01*
X37498684Y-35337032D02*
X37355827Y-35384651D01*
X37355827Y-35384651D02*
X37260589Y-35384651D01*
X37260589Y-35384651D02*
X37117732Y-35337032D01*
X37117732Y-35337032D02*
X37022494Y-35241793D01*
X37022494Y-35241793D02*
X36974875Y-35146555D01*
X36974875Y-35146555D02*
X36927256Y-34956079D01*
X36927256Y-34956079D02*
X36927256Y-34813222D01*
X36927256Y-34813222D02*
X36974875Y-34622746D01*
X36974875Y-34622746D02*
X37022494Y-34527508D01*
X37022494Y-34527508D02*
X37117732Y-34432270D01*
X37117732Y-34432270D02*
X37260589Y-34384651D01*
X37260589Y-34384651D02*
X37355827Y-34384651D01*
X37355827Y-34384651D02*
X37498684Y-34432270D01*
X37498684Y-34432270D02*
X37546303Y-34479889D01*
X37832018Y-34384651D02*
X38403446Y-34384651D01*
X38117732Y-35384651D02*
X38117732Y-34384651D01*
X39308208Y-35384651D02*
X38974875Y-34908460D01*
X38736780Y-35384651D02*
X38736780Y-34384651D01*
X38736780Y-34384651D02*
X39117732Y-34384651D01*
X39117732Y-34384651D02*
X39212970Y-34432270D01*
X39212970Y-34432270D02*
X39260589Y-34479889D01*
X39260589Y-34479889D02*
X39308208Y-34575127D01*
X39308208Y-34575127D02*
X39308208Y-34717984D01*
X39308208Y-34717984D02*
X39260589Y-34813222D01*
X39260589Y-34813222D02*
X39212970Y-34860841D01*
X39212970Y-34860841D02*
X39117732Y-34908460D01*
X39117732Y-34908460D02*
X38736780Y-34908460D01*
X39641542Y-35765603D02*
X39689161Y-35717984D01*
X39689161Y-35717984D02*
X39784399Y-35575127D01*
X39784399Y-35575127D02*
X39832018Y-35479889D01*
X39832018Y-35479889D02*
X39879637Y-35337032D01*
X39879637Y-35337032D02*
X39927256Y-35098936D01*
X39927256Y-35098936D02*
X39927256Y-34908460D01*
X39927256Y-34908460D02*
X39879637Y-34670365D01*
X39879637Y-34670365D02*
X39832018Y-34527508D01*
X39832018Y-34527508D02*
X39784399Y-34432270D01*
X39784399Y-34432270D02*
X39689161Y-34289412D01*
X39689161Y-34289412D02*
X39641542Y-34241793D01*
X39244875Y-22672744D02*
X39244875Y-22482268D01*
X39244875Y-22482268D02*
X39292494Y-22387030D01*
X39292494Y-22387030D02*
X39387732Y-22291792D01*
X39387732Y-22291792D02*
X39578208Y-22244173D01*
X39578208Y-22244173D02*
X39911541Y-22244173D01*
X39911541Y-22244173D02*
X40102017Y-22291792D01*
X40102017Y-22291792D02*
X40197256Y-22387030D01*
X40197256Y-22387030D02*
X40244875Y-22482268D01*
X40244875Y-22482268D02*
X40244875Y-22672744D01*
X40244875Y-22672744D02*
X40197256Y-22767982D01*
X40197256Y-22767982D02*
X40102017Y-22863220D01*
X40102017Y-22863220D02*
X39911541Y-22910839D01*
X39911541Y-22910839D02*
X39578208Y-22910839D01*
X39578208Y-22910839D02*
X39387732Y-22863220D01*
X39387732Y-22863220D02*
X39292494Y-22767982D01*
X39292494Y-22767982D02*
X39244875Y-22672744D01*
X39244875Y-21815601D02*
X40054398Y-21815601D01*
X40054398Y-21815601D02*
X40149636Y-21767982D01*
X40149636Y-21767982D02*
X40197256Y-21720363D01*
X40197256Y-21720363D02*
X40244875Y-21625125D01*
X40244875Y-21625125D02*
X40244875Y-21434649D01*
X40244875Y-21434649D02*
X40197256Y-21339411D01*
X40197256Y-21339411D02*
X40149636Y-21291792D01*
X40149636Y-21291792D02*
X40054398Y-21244173D01*
X40054398Y-21244173D02*
X39244875Y-21244173D01*
X39244875Y-20910839D02*
X39244875Y-20339411D01*
X40244875Y-20625125D02*
X39244875Y-20625125D01*
X40244875Y-20006077D02*
X39244875Y-20006077D01*
X39244875Y-20006077D02*
X39244875Y-19625125D01*
X39244875Y-19625125D02*
X39292494Y-19529887D01*
X39292494Y-19529887D02*
X39340113Y-19482268D01*
X39340113Y-19482268D02*
X39435351Y-19434649D01*
X39435351Y-19434649D02*
X39578208Y-19434649D01*
X39578208Y-19434649D02*
X39673446Y-19482268D01*
X39673446Y-19482268D02*
X39721065Y-19529887D01*
X39721065Y-19529887D02*
X39768684Y-19625125D01*
X39768684Y-19625125D02*
X39768684Y-20006077D01*
X39244875Y-19006077D02*
X40054398Y-19006077D01*
X40054398Y-19006077D02*
X40149636Y-18958458D01*
X40149636Y-18958458D02*
X40197256Y-18910839D01*
X40197256Y-18910839D02*
X40244875Y-18815601D01*
X40244875Y-18815601D02*
X40244875Y-18625125D01*
X40244875Y-18625125D02*
X40197256Y-18529887D01*
X40197256Y-18529887D02*
X40149636Y-18482268D01*
X40149636Y-18482268D02*
X40054398Y-18434649D01*
X40054398Y-18434649D02*
X39244875Y-18434649D01*
X39244875Y-18101315D02*
X39244875Y-17529887D01*
X40244875Y-17815601D02*
X39244875Y-17815601D01*
X39197256Y-16482268D02*
X40482970Y-17339410D01*
X40244875Y-16148934D02*
X39244875Y-16148934D01*
X39244875Y-16148934D02*
X39244875Y-15767982D01*
X39244875Y-15767982D02*
X39292494Y-15672744D01*
X39292494Y-15672744D02*
X39340113Y-15625125D01*
X39340113Y-15625125D02*
X39435351Y-15577506D01*
X39435351Y-15577506D02*
X39578208Y-15577506D01*
X39578208Y-15577506D02*
X39673446Y-15625125D01*
X39673446Y-15625125D02*
X39721065Y-15672744D01*
X39721065Y-15672744D02*
X39768684Y-15767982D01*
X39768684Y-15767982D02*
X39768684Y-16148934D01*
X40244875Y-15148934D02*
X39244875Y-15148934D01*
X39292494Y-13387030D02*
X39244875Y-13482268D01*
X39244875Y-13482268D02*
X39244875Y-13625125D01*
X39244875Y-13625125D02*
X39292494Y-13767982D01*
X39292494Y-13767982D02*
X39387732Y-13863220D01*
X39387732Y-13863220D02*
X39482970Y-13910839D01*
X39482970Y-13910839D02*
X39673446Y-13958458D01*
X39673446Y-13958458D02*
X39816303Y-13958458D01*
X39816303Y-13958458D02*
X40006779Y-13910839D01*
X40006779Y-13910839D02*
X40102017Y-13863220D01*
X40102017Y-13863220D02*
X40197256Y-13767982D01*
X40197256Y-13767982D02*
X40244875Y-13625125D01*
X40244875Y-13625125D02*
X40244875Y-13529887D01*
X40244875Y-13529887D02*
X40197256Y-13387030D01*
X40197256Y-13387030D02*
X40149636Y-13339411D01*
X40149636Y-13339411D02*
X39816303Y-13339411D01*
X39816303Y-13339411D02*
X39816303Y-13529887D01*
X40244875Y-12910839D02*
X39244875Y-12910839D01*
X39244875Y-12910839D02*
X39244875Y-12529887D01*
X39244875Y-12529887D02*
X39292494Y-12434649D01*
X39292494Y-12434649D02*
X39340113Y-12387030D01*
X39340113Y-12387030D02*
X39435351Y-12339411D01*
X39435351Y-12339411D02*
X39578208Y-12339411D01*
X39578208Y-12339411D02*
X39673446Y-12387030D01*
X39673446Y-12387030D02*
X39721065Y-12434649D01*
X39721065Y-12434649D02*
X39768684Y-12529887D01*
X39768684Y-12529887D02*
X39768684Y-12910839D01*
X40244875Y-11910839D02*
X39244875Y-11910839D01*
X39244875Y-11244173D02*
X39244875Y-11053697D01*
X39244875Y-11053697D02*
X39292494Y-10958459D01*
X39292494Y-10958459D02*
X39387732Y-10863221D01*
X39387732Y-10863221D02*
X39578208Y-10815602D01*
X39578208Y-10815602D02*
X39911541Y-10815602D01*
X39911541Y-10815602D02*
X40102017Y-10863221D01*
X40102017Y-10863221D02*
X40197256Y-10958459D01*
X40197256Y-10958459D02*
X40244875Y-11053697D01*
X40244875Y-11053697D02*
X40244875Y-11244173D01*
X40244875Y-11244173D02*
X40197256Y-11339411D01*
X40197256Y-11339411D02*
X40102017Y-11434649D01*
X40102017Y-11434649D02*
X39911541Y-11482268D01*
X39911541Y-11482268D02*
X39578208Y-11482268D01*
X39578208Y-11482268D02*
X39387732Y-11434649D01*
X39387732Y-11434649D02*
X39292494Y-11339411D01*
X39292494Y-11339411D02*
X39244875Y-11244173D01*
X41188152Y-22910839D02*
X41188152Y-22196554D01*
X40759580Y-22625125D02*
X42045295Y-22910839D01*
X41616723Y-22291792D02*
X41616723Y-23006077D01*
X42045295Y-22577506D02*
X40759580Y-22291792D01*
X41854819Y-21339411D02*
X41854819Y-21910839D01*
X41854819Y-21625125D02*
X40854819Y-21625125D01*
X40854819Y-21625125D02*
X40997676Y-21720363D01*
X40997676Y-21720363D02*
X41092914Y-21815601D01*
X41092914Y-21815601D02*
X41140533Y-21910839D01*
X41188152Y-19434648D02*
X41188152Y-18720363D01*
X40759580Y-19148934D02*
X42045295Y-19434648D01*
X41616723Y-18815601D02*
X41616723Y-19529886D01*
X42045295Y-19101315D02*
X40759580Y-18815601D01*
X40950057Y-18434648D02*
X40902438Y-18387029D01*
X40902438Y-18387029D02*
X40854819Y-18291791D01*
X40854819Y-18291791D02*
X40854819Y-18053696D01*
X40854819Y-18053696D02*
X40902438Y-17958458D01*
X40902438Y-17958458D02*
X40950057Y-17910839D01*
X40950057Y-17910839D02*
X41045295Y-17863220D01*
X41045295Y-17863220D02*
X41140533Y-17863220D01*
X41140533Y-17863220D02*
X41283390Y-17910839D01*
X41283390Y-17910839D02*
X41854819Y-18482267D01*
X41854819Y-18482267D02*
X41854819Y-17863220D01*
X41188152Y-15958457D02*
X41188152Y-15244172D01*
X40759580Y-15672743D02*
X42045295Y-15958457D01*
X41616723Y-15339410D02*
X41616723Y-16053695D01*
X42045295Y-15625124D02*
X40759580Y-15339410D01*
X40854819Y-15006076D02*
X40854819Y-14387029D01*
X40854819Y-14387029D02*
X41235771Y-14720362D01*
X41235771Y-14720362D02*
X41235771Y-14577505D01*
X41235771Y-14577505D02*
X41283390Y-14482267D01*
X41283390Y-14482267D02*
X41331009Y-14434648D01*
X41331009Y-14434648D02*
X41426247Y-14387029D01*
X41426247Y-14387029D02*
X41664342Y-14387029D01*
X41664342Y-14387029D02*
X41759580Y-14434648D01*
X41759580Y-14434648D02*
X41807200Y-14482267D01*
X41807200Y-14482267D02*
X41854819Y-14577505D01*
X41854819Y-14577505D02*
X41854819Y-14863219D01*
X41854819Y-14863219D02*
X41807200Y-14958457D01*
X41807200Y-14958457D02*
X41759580Y-15006076D01*
X41188152Y-12482266D02*
X41188152Y-11767981D01*
X40759580Y-12196552D02*
X42045295Y-12482266D01*
X41616723Y-11863219D02*
X41616723Y-12577504D01*
X42045295Y-12148933D02*
X40759580Y-11863219D01*
X41188152Y-11006076D02*
X41854819Y-11006076D01*
X40807200Y-11244171D02*
X41521485Y-11482266D01*
X41521485Y-11482266D02*
X41521485Y-10863219D01*
X43464763Y-22339411D02*
X43464763Y-22910839D01*
X43464763Y-22625125D02*
X42464763Y-22625125D01*
X42464763Y-22625125D02*
X42607620Y-22720363D01*
X42607620Y-22720363D02*
X42702858Y-22815601D01*
X42702858Y-22815601D02*
X42750477Y-22910839D01*
X42464763Y-22006077D02*
X42464763Y-21387030D01*
X42464763Y-21387030D02*
X42845715Y-21720363D01*
X42845715Y-21720363D02*
X42845715Y-21577506D01*
X42845715Y-21577506D02*
X42893334Y-21482268D01*
X42893334Y-21482268D02*
X42940953Y-21434649D01*
X42940953Y-21434649D02*
X43036191Y-21387030D01*
X43036191Y-21387030D02*
X43274286Y-21387030D01*
X43274286Y-21387030D02*
X43369524Y-21434649D01*
X43369524Y-21434649D02*
X43417144Y-21482268D01*
X43417144Y-21482268D02*
X43464763Y-21577506D01*
X43464763Y-21577506D02*
X43464763Y-21863220D01*
X43464763Y-21863220D02*
X43417144Y-21958458D01*
X43417144Y-21958458D02*
X43369524Y-22006077D01*
X43464763Y-18910839D02*
X43464763Y-19482267D01*
X43464763Y-19196553D02*
X42464763Y-19196553D01*
X42464763Y-19196553D02*
X42607620Y-19291791D01*
X42607620Y-19291791D02*
X42702858Y-19387029D01*
X42702858Y-19387029D02*
X42750477Y-19482267D01*
X42464763Y-18006077D02*
X42464763Y-18482267D01*
X42464763Y-18482267D02*
X42940953Y-18529886D01*
X42940953Y-18529886D02*
X42893334Y-18482267D01*
X42893334Y-18482267D02*
X42845715Y-18387029D01*
X42845715Y-18387029D02*
X42845715Y-18148934D01*
X42845715Y-18148934D02*
X42893334Y-18053696D01*
X42893334Y-18053696D02*
X42940953Y-18006077D01*
X42940953Y-18006077D02*
X43036191Y-17958458D01*
X43036191Y-17958458D02*
X43274286Y-17958458D01*
X43274286Y-17958458D02*
X43369524Y-18006077D01*
X43369524Y-18006077D02*
X43417144Y-18053696D01*
X43417144Y-18053696D02*
X43464763Y-18148934D01*
X43464763Y-18148934D02*
X43464763Y-18387029D01*
X43464763Y-18387029D02*
X43417144Y-18482267D01*
X43417144Y-18482267D02*
X43369524Y-18529886D01*
X43464763Y-15482267D02*
X43464763Y-16053695D01*
X43464763Y-15767981D02*
X42464763Y-15767981D01*
X42464763Y-15767981D02*
X42607620Y-15863219D01*
X42607620Y-15863219D02*
X42702858Y-15958457D01*
X42702858Y-15958457D02*
X42750477Y-16053695D01*
X42464763Y-14625124D02*
X42464763Y-14815600D01*
X42464763Y-14815600D02*
X42512382Y-14910838D01*
X42512382Y-14910838D02*
X42560001Y-14958457D01*
X42560001Y-14958457D02*
X42702858Y-15053695D01*
X42702858Y-15053695D02*
X42893334Y-15101314D01*
X42893334Y-15101314D02*
X43274286Y-15101314D01*
X43274286Y-15101314D02*
X43369524Y-15053695D01*
X43369524Y-15053695D02*
X43417144Y-15006076D01*
X43417144Y-15006076D02*
X43464763Y-14910838D01*
X43464763Y-14910838D02*
X43464763Y-14720362D01*
X43464763Y-14720362D02*
X43417144Y-14625124D01*
X43417144Y-14625124D02*
X43369524Y-14577505D01*
X43369524Y-14577505D02*
X43274286Y-14529886D01*
X43274286Y-14529886D02*
X43036191Y-14529886D01*
X43036191Y-14529886D02*
X42940953Y-14577505D01*
X42940953Y-14577505D02*
X42893334Y-14625124D01*
X42893334Y-14625124D02*
X42845715Y-14720362D01*
X42845715Y-14720362D02*
X42845715Y-14910838D01*
X42845715Y-14910838D02*
X42893334Y-15006076D01*
X42893334Y-15006076D02*
X42940953Y-15053695D01*
X42940953Y-15053695D02*
X43036191Y-15101314D01*
X43464763Y-12053695D02*
X43464763Y-12625123D01*
X43464763Y-12339409D02*
X42464763Y-12339409D01*
X42464763Y-12339409D02*
X42607620Y-12434647D01*
X42607620Y-12434647D02*
X42702858Y-12529885D01*
X42702858Y-12529885D02*
X42750477Y-12625123D01*
X42893334Y-11482266D02*
X42845715Y-11577504D01*
X42845715Y-11577504D02*
X42798096Y-11625123D01*
X42798096Y-11625123D02*
X42702858Y-11672742D01*
X42702858Y-11672742D02*
X42655239Y-11672742D01*
X42655239Y-11672742D02*
X42560001Y-11625123D01*
X42560001Y-11625123D02*
X42512382Y-11577504D01*
X42512382Y-11577504D02*
X42464763Y-11482266D01*
X42464763Y-11482266D02*
X42464763Y-11291790D01*
X42464763Y-11291790D02*
X42512382Y-11196552D01*
X42512382Y-11196552D02*
X42560001Y-11148933D01*
X42560001Y-11148933D02*
X42655239Y-11101314D01*
X42655239Y-11101314D02*
X42702858Y-11101314D01*
X42702858Y-11101314D02*
X42798096Y-11148933D01*
X42798096Y-11148933D02*
X42845715Y-11196552D01*
X42845715Y-11196552D02*
X42893334Y-11291790D01*
X42893334Y-11291790D02*
X42893334Y-11482266D01*
X42893334Y-11482266D02*
X42940953Y-11577504D01*
X42940953Y-11577504D02*
X42988572Y-11625123D01*
X42988572Y-11625123D02*
X43083810Y-11672742D01*
X43083810Y-11672742D02*
X43274286Y-11672742D01*
X43274286Y-11672742D02*
X43369524Y-11625123D01*
X43369524Y-11625123D02*
X43417144Y-11577504D01*
X43417144Y-11577504D02*
X43464763Y-11482266D01*
X43464763Y-11482266D02*
X43464763Y-11291790D01*
X43464763Y-11291790D02*
X43417144Y-11196552D01*
X43417144Y-11196552D02*
X43369524Y-11148933D01*
X43369524Y-11148933D02*
X43274286Y-11101314D01*
X43274286Y-11101314D02*
X43083810Y-11101314D01*
X43083810Y-11101314D02*
X42988572Y-11148933D01*
X42988572Y-11148933D02*
X42940953Y-11196552D01*
X42940953Y-11196552D02*
X42893334Y-11291790D01*
D12*
X46215036Y-44110020D02*
X47357894Y-44110020D01*
D13*
X42499624Y-37740724D02*
X42499624Y-36990724D01*
X42856767Y-37740724D02*
X42856767Y-36990724D01*
X42856767Y-36990724D02*
X43285338Y-37740724D01*
X43285338Y-37740724D02*
X43285338Y-36990724D01*
X43642481Y-37740724D02*
X43642481Y-36990724D01*
X43642481Y-36990724D02*
X43928195Y-36990724D01*
X43928195Y-36990724D02*
X43999624Y-37026438D01*
X43999624Y-37026438D02*
X44035338Y-37062152D01*
X44035338Y-37062152D02*
X44071052Y-37133581D01*
X44071052Y-37133581D02*
X44071052Y-37240724D01*
X44071052Y-37240724D02*
X44035338Y-37312152D01*
X44035338Y-37312152D02*
X43999624Y-37347867D01*
X43999624Y-37347867D02*
X43928195Y-37383581D01*
X43928195Y-37383581D02*
X43642481Y-37383581D01*
X44392481Y-36990724D02*
X44392481Y-37597867D01*
X44392481Y-37597867D02*
X44428195Y-37669295D01*
X44428195Y-37669295D02*
X44463910Y-37705010D01*
X44463910Y-37705010D02*
X44535338Y-37740724D01*
X44535338Y-37740724D02*
X44678195Y-37740724D01*
X44678195Y-37740724D02*
X44749624Y-37705010D01*
X44749624Y-37705010D02*
X44785338Y-37669295D01*
X44785338Y-37669295D02*
X44821052Y-37597867D01*
X44821052Y-37597867D02*
X44821052Y-36990724D01*
X45071052Y-36990724D02*
X45499624Y-36990724D01*
X45285338Y-37740724D02*
X45285338Y-36990724D01*
D12*
X52410020Y-33084963D02*
X52410020Y-31942106D01*
X52981448Y-32513534D02*
X51838591Y-32513534D01*
X52410020Y-12784963D02*
X52410020Y-11642106D01*
D11*
X16614285Y-20554819D02*
X16614285Y-19554819D01*
X16614285Y-19554819D02*
X16995237Y-19554819D01*
X16995237Y-19554819D02*
X17090475Y-19602438D01*
X17090475Y-19602438D02*
X17138094Y-19650057D01*
X17138094Y-19650057D02*
X17185713Y-19745295D01*
X17185713Y-19745295D02*
X17185713Y-19888152D01*
X17185713Y-19888152D02*
X17138094Y-19983390D01*
X17138094Y-19983390D02*
X17090475Y-20031009D01*
X17090475Y-20031009D02*
X16995237Y-20078628D01*
X16995237Y-20078628D02*
X16614285Y-20078628D01*
X17614285Y-20554819D02*
X17614285Y-19554819D01*
X18852380Y-20554819D02*
X18852380Y-19554819D01*
X18852380Y-19554819D02*
X19233332Y-19554819D01*
X19233332Y-19554819D02*
X19328570Y-19602438D01*
X19328570Y-19602438D02*
X19376189Y-19650057D01*
X19376189Y-19650057D02*
X19423808Y-19745295D01*
X19423808Y-19745295D02*
X19423808Y-19888152D01*
X19423808Y-19888152D02*
X19376189Y-19983390D01*
X19376189Y-19983390D02*
X19328570Y-20031009D01*
X19328570Y-20031009D02*
X19233332Y-20078628D01*
X19233332Y-20078628D02*
X18852380Y-20078628D01*
X20042856Y-19554819D02*
X20233332Y-19554819D01*
X20233332Y-19554819D02*
X20328570Y-19602438D01*
X20328570Y-19602438D02*
X20423808Y-19697676D01*
X20423808Y-19697676D02*
X20471427Y-19888152D01*
X20471427Y-19888152D02*
X20471427Y-20221485D01*
X20471427Y-20221485D02*
X20423808Y-20411961D01*
X20423808Y-20411961D02*
X20328570Y-20507200D01*
X20328570Y-20507200D02*
X20233332Y-20554819D01*
X20233332Y-20554819D02*
X20042856Y-20554819D01*
X20042856Y-20554819D02*
X19947618Y-20507200D01*
X19947618Y-20507200D02*
X19852380Y-20411961D01*
X19852380Y-20411961D02*
X19804761Y-20221485D01*
X19804761Y-20221485D02*
X19804761Y-19888152D01*
X19804761Y-19888152D02*
X19852380Y-19697676D01*
X19852380Y-19697676D02*
X19947618Y-19602438D01*
X19947618Y-19602438D02*
X20042856Y-19554819D01*
X20804761Y-19554819D02*
X21042856Y-20554819D01*
X21042856Y-20554819D02*
X21233332Y-19840533D01*
X21233332Y-19840533D02*
X21423808Y-20554819D01*
X21423808Y-20554819D02*
X21661904Y-19554819D01*
X22042856Y-20031009D02*
X22376189Y-20031009D01*
X22519046Y-20554819D02*
X22042856Y-20554819D01*
X22042856Y-20554819D02*
X22042856Y-19554819D01*
X22042856Y-19554819D02*
X22519046Y-19554819D01*
X23519046Y-20554819D02*
X23185713Y-20078628D01*
X22947618Y-20554819D02*
X22947618Y-19554819D01*
X22947618Y-19554819D02*
X23328570Y-19554819D01*
X23328570Y-19554819D02*
X23423808Y-19602438D01*
X23423808Y-19602438D02*
X23471427Y-19650057D01*
X23471427Y-19650057D02*
X23519046Y-19745295D01*
X23519046Y-19745295D02*
X23519046Y-19888152D01*
X23519046Y-19888152D02*
X23471427Y-19983390D01*
X23471427Y-19983390D02*
X23423808Y-20031009D01*
X23423808Y-20031009D02*
X23328570Y-20078628D01*
X23328570Y-20078628D02*
X22947618Y-20078628D01*
X24661904Y-20507200D02*
X24804761Y-20554819D01*
X24804761Y-20554819D02*
X25042856Y-20554819D01*
X25042856Y-20554819D02*
X25138094Y-20507200D01*
X25138094Y-20507200D02*
X25185713Y-20459580D01*
X25185713Y-20459580D02*
X25233332Y-20364342D01*
X25233332Y-20364342D02*
X25233332Y-20269104D01*
X25233332Y-20269104D02*
X25185713Y-20173866D01*
X25185713Y-20173866D02*
X25138094Y-20126247D01*
X25138094Y-20126247D02*
X25042856Y-20078628D01*
X25042856Y-20078628D02*
X24852380Y-20031009D01*
X24852380Y-20031009D02*
X24757142Y-19983390D01*
X24757142Y-19983390D02*
X24709523Y-19935771D01*
X24709523Y-19935771D02*
X24661904Y-19840533D01*
X24661904Y-19840533D02*
X24661904Y-19745295D01*
X24661904Y-19745295D02*
X24709523Y-19650057D01*
X24709523Y-19650057D02*
X24757142Y-19602438D01*
X24757142Y-19602438D02*
X24852380Y-19554819D01*
X24852380Y-19554819D02*
X25090475Y-19554819D01*
X25090475Y-19554819D02*
X25233332Y-19602438D01*
X25661904Y-19554819D02*
X25661904Y-20364342D01*
X25661904Y-20364342D02*
X25709523Y-20459580D01*
X25709523Y-20459580D02*
X25757142Y-20507200D01*
X25757142Y-20507200D02*
X25852380Y-20554819D01*
X25852380Y-20554819D02*
X26042856Y-20554819D01*
X26042856Y-20554819D02*
X26138094Y-20507200D01*
X26138094Y-20507200D02*
X26185713Y-20459580D01*
X26185713Y-20459580D02*
X26233332Y-20364342D01*
X26233332Y-20364342D02*
X26233332Y-19554819D01*
X26709523Y-20554819D02*
X26709523Y-19554819D01*
X26709523Y-19554819D02*
X27090475Y-19554819D01*
X27090475Y-19554819D02*
X27185713Y-19602438D01*
X27185713Y-19602438D02*
X27233332Y-19650057D01*
X27233332Y-19650057D02*
X27280951Y-19745295D01*
X27280951Y-19745295D02*
X27280951Y-19888152D01*
X27280951Y-19888152D02*
X27233332Y-19983390D01*
X27233332Y-19983390D02*
X27185713Y-20031009D01*
X27185713Y-20031009D02*
X27090475Y-20078628D01*
X27090475Y-20078628D02*
X26709523Y-20078628D01*
X27709523Y-20554819D02*
X27709523Y-19554819D01*
X27709523Y-19554819D02*
X28090475Y-19554819D01*
X28090475Y-19554819D02*
X28185713Y-19602438D01*
X28185713Y-19602438D02*
X28233332Y-19650057D01*
X28233332Y-19650057D02*
X28280951Y-19745295D01*
X28280951Y-19745295D02*
X28280951Y-19888152D01*
X28280951Y-19888152D02*
X28233332Y-19983390D01*
X28233332Y-19983390D02*
X28185713Y-20031009D01*
X28185713Y-20031009D02*
X28090475Y-20078628D01*
X28090475Y-20078628D02*
X27709523Y-20078628D01*
X29185713Y-20554819D02*
X28709523Y-20554819D01*
X28709523Y-20554819D02*
X28709523Y-19554819D01*
X29709523Y-20078628D02*
X29709523Y-20554819D01*
X29376190Y-19554819D02*
X29709523Y-20078628D01*
X29709523Y-20078628D02*
X30042856Y-19554819D01*
X31138095Y-20031009D02*
X31471428Y-20031009D01*
X31614285Y-20554819D02*
X31138095Y-20554819D01*
X31138095Y-20554819D02*
X31138095Y-19554819D01*
X31138095Y-19554819D02*
X31614285Y-19554819D01*
X32042857Y-20554819D02*
X32042857Y-19554819D01*
X32042857Y-19554819D02*
X32614285Y-20554819D01*
X32614285Y-20554819D02*
X32614285Y-19554819D01*
X33042857Y-20269104D02*
X33519047Y-20269104D01*
X32947619Y-20554819D02*
X33280952Y-19554819D01*
X33280952Y-19554819D02*
X33614285Y-20554819D01*
X34280952Y-20031009D02*
X34423809Y-20078628D01*
X34423809Y-20078628D02*
X34471428Y-20126247D01*
X34471428Y-20126247D02*
X34519047Y-20221485D01*
X34519047Y-20221485D02*
X34519047Y-20364342D01*
X34519047Y-20364342D02*
X34471428Y-20459580D01*
X34471428Y-20459580D02*
X34423809Y-20507200D01*
X34423809Y-20507200D02*
X34328571Y-20554819D01*
X34328571Y-20554819D02*
X33947619Y-20554819D01*
X33947619Y-20554819D02*
X33947619Y-19554819D01*
X33947619Y-19554819D02*
X34280952Y-19554819D01*
X34280952Y-19554819D02*
X34376190Y-19602438D01*
X34376190Y-19602438D02*
X34423809Y-19650057D01*
X34423809Y-19650057D02*
X34471428Y-19745295D01*
X34471428Y-19745295D02*
X34471428Y-19840533D01*
X34471428Y-19840533D02*
X34423809Y-19935771D01*
X34423809Y-19935771D02*
X34376190Y-19983390D01*
X34376190Y-19983390D02*
X34280952Y-20031009D01*
X34280952Y-20031009D02*
X33947619Y-20031009D01*
X35423809Y-20554819D02*
X34947619Y-20554819D01*
X34947619Y-20554819D02*
X34947619Y-19554819D01*
X35757143Y-20031009D02*
X36090476Y-20031009D01*
X36233333Y-20554819D02*
X35757143Y-20554819D01*
X35757143Y-20554819D02*
X35757143Y-19554819D01*
X35757143Y-19554819D02*
X36233333Y-19554819D01*
X14254819Y-35404761D02*
X13254819Y-35404761D01*
X13350057Y-34976190D02*
X13302438Y-34928571D01*
X13302438Y-34928571D02*
X13254819Y-34833333D01*
X13254819Y-34833333D02*
X13254819Y-34595238D01*
X13254819Y-34595238D02*
X13302438Y-34500000D01*
X13302438Y-34500000D02*
X13350057Y-34452381D01*
X13350057Y-34452381D02*
X13445295Y-34404762D01*
X13445295Y-34404762D02*
X13540533Y-34404762D01*
X13540533Y-34404762D02*
X13683390Y-34452381D01*
X13683390Y-34452381D02*
X14254819Y-35023809D01*
X14254819Y-35023809D02*
X14254819Y-34404762D01*
X14159580Y-33404762D02*
X14207200Y-33452381D01*
X14207200Y-33452381D02*
X14254819Y-33595238D01*
X14254819Y-33595238D02*
X14254819Y-33690476D01*
X14254819Y-33690476D02*
X14207200Y-33833333D01*
X14207200Y-33833333D02*
X14111961Y-33928571D01*
X14111961Y-33928571D02*
X14016723Y-33976190D01*
X14016723Y-33976190D02*
X13826247Y-34023809D01*
X13826247Y-34023809D02*
X13683390Y-34023809D01*
X13683390Y-34023809D02*
X13492914Y-33976190D01*
X13492914Y-33976190D02*
X13397676Y-33928571D01*
X13397676Y-33928571D02*
X13302438Y-33833333D01*
X13302438Y-33833333D02*
X13254819Y-33690476D01*
X13254819Y-33690476D02*
X13254819Y-33595238D01*
X13254819Y-33595238D02*
X13302438Y-33452381D01*
X13302438Y-33452381D02*
X13350057Y-33404762D01*
X13969104Y-32261904D02*
X13969104Y-31785714D01*
X14254819Y-32357142D02*
X13254819Y-32023809D01*
X13254819Y-32023809D02*
X14254819Y-31690476D01*
X14254819Y-31357142D02*
X13254819Y-31357142D01*
X13254819Y-31357142D02*
X13254819Y-31119047D01*
X13254819Y-31119047D02*
X13302438Y-30976190D01*
X13302438Y-30976190D02*
X13397676Y-30880952D01*
X13397676Y-30880952D02*
X13492914Y-30833333D01*
X13492914Y-30833333D02*
X13683390Y-30785714D01*
X13683390Y-30785714D02*
X13826247Y-30785714D01*
X13826247Y-30785714D02*
X14016723Y-30833333D01*
X14016723Y-30833333D02*
X14111961Y-30880952D01*
X14111961Y-30880952D02*
X14207200Y-30976190D01*
X14207200Y-30976190D02*
X14254819Y-31119047D01*
X14254819Y-31119047D02*
X14254819Y-31357142D01*
X14254819Y-30357142D02*
X13254819Y-30357142D01*
X13254819Y-30357142D02*
X13254819Y-30119047D01*
X13254819Y-30119047D02*
X13302438Y-29976190D01*
X13302438Y-29976190D02*
X13397676Y-29880952D01*
X13397676Y-29880952D02*
X13492914Y-29833333D01*
X13492914Y-29833333D02*
X13683390Y-29785714D01*
X13683390Y-29785714D02*
X13826247Y-29785714D01*
X13826247Y-29785714D02*
X14016723Y-29833333D01*
X14016723Y-29833333D02*
X14111961Y-29880952D01*
X14111961Y-29880952D02*
X14207200Y-29976190D01*
X14207200Y-29976190D02*
X14254819Y-30119047D01*
X14254819Y-30119047D02*
X14254819Y-30357142D01*
X14254819Y-28785714D02*
X13778628Y-29119047D01*
X14254819Y-29357142D02*
X13254819Y-29357142D01*
X13254819Y-29357142D02*
X13254819Y-28976190D01*
X13254819Y-28976190D02*
X13302438Y-28880952D01*
X13302438Y-28880952D02*
X13350057Y-28833333D01*
X13350057Y-28833333D02*
X13445295Y-28785714D01*
X13445295Y-28785714D02*
X13588152Y-28785714D01*
X13588152Y-28785714D02*
X13683390Y-28833333D01*
X13683390Y-28833333D02*
X13731009Y-28880952D01*
X13731009Y-28880952D02*
X13778628Y-28976190D01*
X13778628Y-28976190D02*
X13778628Y-29357142D01*
X13254819Y-27404761D02*
X13254819Y-27309523D01*
X13254819Y-27309523D02*
X13302438Y-27214285D01*
X13302438Y-27214285D02*
X13350057Y-27166666D01*
X13350057Y-27166666D02*
X13445295Y-27119047D01*
X13445295Y-27119047D02*
X13635771Y-27071428D01*
X13635771Y-27071428D02*
X13873866Y-27071428D01*
X13873866Y-27071428D02*
X14064342Y-27119047D01*
X14064342Y-27119047D02*
X14159580Y-27166666D01*
X14159580Y-27166666D02*
X14207200Y-27214285D01*
X14207200Y-27214285D02*
X14254819Y-27309523D01*
X14254819Y-27309523D02*
X14254819Y-27404761D01*
X14254819Y-27404761D02*
X14207200Y-27499999D01*
X14207200Y-27499999D02*
X14159580Y-27547618D01*
X14159580Y-27547618D02*
X14064342Y-27595237D01*
X14064342Y-27595237D02*
X13873866Y-27642856D01*
X13873866Y-27642856D02*
X13635771Y-27642856D01*
X13635771Y-27642856D02*
X13445295Y-27595237D01*
X13445295Y-27595237D02*
X13350057Y-27547618D01*
X13350057Y-27547618D02*
X13302438Y-27499999D01*
X13302438Y-27499999D02*
X13254819Y-27404761D01*
X14254819Y-26738094D02*
X13588152Y-26214285D01*
X13588152Y-26738094D02*
X14254819Y-26214285D01*
X13588152Y-25404761D02*
X14254819Y-25404761D01*
X13207200Y-25642856D02*
X13921485Y-25880951D01*
X13921485Y-25880951D02*
X13921485Y-25261904D01*
X14350057Y-25119047D02*
X14350057Y-24357142D01*
D12*
X17715036Y-44135020D02*
X18857894Y-44135020D01*
D13*
X21582142Y-9290724D02*
X21582142Y-8540724D01*
X21903571Y-8612152D02*
X21939285Y-8576438D01*
X21939285Y-8576438D02*
X22010714Y-8540724D01*
X22010714Y-8540724D02*
X22189285Y-8540724D01*
X22189285Y-8540724D02*
X22260714Y-8576438D01*
X22260714Y-8576438D02*
X22296428Y-8612152D01*
X22296428Y-8612152D02*
X22332142Y-8683581D01*
X22332142Y-8683581D02*
X22332142Y-8755010D01*
X22332142Y-8755010D02*
X22296428Y-8862152D01*
X22296428Y-8862152D02*
X21867856Y-9290724D01*
X21867856Y-9290724D02*
X22332142Y-9290724D01*
X23082142Y-9219295D02*
X23046428Y-9255010D01*
X23046428Y-9255010D02*
X22939285Y-9290724D01*
X22939285Y-9290724D02*
X22867857Y-9290724D01*
X22867857Y-9290724D02*
X22760714Y-9255010D01*
X22760714Y-9255010D02*
X22689285Y-9183581D01*
X22689285Y-9183581D02*
X22653571Y-9112152D01*
X22653571Y-9112152D02*
X22617857Y-8969295D01*
X22617857Y-8969295D02*
X22617857Y-8862152D01*
X22617857Y-8862152D02*
X22653571Y-8719295D01*
X22653571Y-8719295D02*
X22689285Y-8647867D01*
X22689285Y-8647867D02*
X22760714Y-8576438D01*
X22760714Y-8576438D02*
X22867857Y-8540724D01*
X22867857Y-8540724D02*
X22939285Y-8540724D01*
X22939285Y-8540724D02*
X23046428Y-8576438D01*
X23046428Y-8576438D02*
X23082142Y-8612152D01*
X23975000Y-9290724D02*
X23975000Y-8540724D01*
X23975000Y-8540724D02*
X24260714Y-8540724D01*
X24260714Y-8540724D02*
X24332143Y-8576438D01*
X24332143Y-8576438D02*
X24367857Y-8612152D01*
X24367857Y-8612152D02*
X24403571Y-8683581D01*
X24403571Y-8683581D02*
X24403571Y-8790724D01*
X24403571Y-8790724D02*
X24367857Y-8862152D01*
X24367857Y-8862152D02*
X24332143Y-8897867D01*
X24332143Y-8897867D02*
X24260714Y-8933581D01*
X24260714Y-8933581D02*
X23975000Y-8933581D01*
X24725000Y-8540724D02*
X24725000Y-9147867D01*
X24725000Y-9147867D02*
X24760714Y-9219295D01*
X24760714Y-9219295D02*
X24796429Y-9255010D01*
X24796429Y-9255010D02*
X24867857Y-9290724D01*
X24867857Y-9290724D02*
X25010714Y-9290724D01*
X25010714Y-9290724D02*
X25082143Y-9255010D01*
X25082143Y-9255010D02*
X25117857Y-9219295D01*
X25117857Y-9219295D02*
X25153571Y-9147867D01*
X25153571Y-9147867D02*
X25153571Y-8540724D01*
X25867857Y-9290724D02*
X25510714Y-9290724D01*
X25510714Y-9290724D02*
X25510714Y-8540724D01*
X26475000Y-9290724D02*
X26117857Y-9290724D01*
X26117857Y-9290724D02*
X26117857Y-8540724D01*
X26725000Y-8540724D02*
X26725000Y-9147867D01*
X26725000Y-9147867D02*
X26760714Y-9219295D01*
X26760714Y-9219295D02*
X26796429Y-9255010D01*
X26796429Y-9255010D02*
X26867857Y-9290724D01*
X26867857Y-9290724D02*
X27010714Y-9290724D01*
X27010714Y-9290724D02*
X27082143Y-9255010D01*
X27082143Y-9255010D02*
X27117857Y-9219295D01*
X27117857Y-9219295D02*
X27153571Y-9147867D01*
X27153571Y-9147867D02*
X27153571Y-8540724D01*
X27510714Y-9290724D02*
X27510714Y-8540724D01*
X27510714Y-8540724D02*
X27796428Y-8540724D01*
X27796428Y-8540724D02*
X27867857Y-8576438D01*
X27867857Y-8576438D02*
X27903571Y-8612152D01*
X27903571Y-8612152D02*
X27939285Y-8683581D01*
X27939285Y-8683581D02*
X27939285Y-8790724D01*
X27939285Y-8790724D02*
X27903571Y-8862152D01*
X27903571Y-8862152D02*
X27867857Y-8897867D01*
X27867857Y-8897867D02*
X27796428Y-8933581D01*
X27796428Y-8933581D02*
X27510714Y-8933581D01*
X28225000Y-9255010D02*
X28332143Y-9290724D01*
X28332143Y-9290724D02*
X28510714Y-9290724D01*
X28510714Y-9290724D02*
X28582143Y-9255010D01*
X28582143Y-9255010D02*
X28617857Y-9219295D01*
X28617857Y-9219295D02*
X28653571Y-9147867D01*
X28653571Y-9147867D02*
X28653571Y-9076438D01*
X28653571Y-9076438D02*
X28617857Y-9005010D01*
X28617857Y-9005010D02*
X28582143Y-8969295D01*
X28582143Y-8969295D02*
X28510714Y-8933581D01*
X28510714Y-8933581D02*
X28367857Y-8897867D01*
X28367857Y-8897867D02*
X28296428Y-8862152D01*
X28296428Y-8862152D02*
X28260714Y-8826438D01*
X28260714Y-8826438D02*
X28225000Y-8755010D01*
X28225000Y-8755010D02*
X28225000Y-8683581D01*
X28225000Y-8683581D02*
X28260714Y-8612152D01*
X28260714Y-8612152D02*
X28296428Y-8576438D01*
X28296428Y-8576438D02*
X28367857Y-8540724D01*
X28367857Y-8540724D02*
X28546428Y-8540724D01*
X28546428Y-8540724D02*
X28653571Y-8576438D01*
D11*
X164286Y-42513152D02*
X878571Y-42513152D01*
X450000Y-42084580D02*
X164286Y-43370295D01*
X783333Y-42941723D02*
X69048Y-42941723D01*
X497619Y-43370295D02*
X783333Y-42084580D01*
X1116667Y-42179819D02*
X1735714Y-42179819D01*
X1735714Y-42179819D02*
X1402381Y-42560771D01*
X1402381Y-42560771D02*
X1545238Y-42560771D01*
X1545238Y-42560771D02*
X1640476Y-42608390D01*
X1640476Y-42608390D02*
X1688095Y-42656009D01*
X1688095Y-42656009D02*
X1735714Y-42751247D01*
X1735714Y-42751247D02*
X1735714Y-42989342D01*
X1735714Y-42989342D02*
X1688095Y-43084580D01*
X1688095Y-43084580D02*
X1640476Y-43132200D01*
X1640476Y-43132200D02*
X1545238Y-43179819D01*
X1545238Y-43179819D02*
X1259524Y-43179819D01*
X1259524Y-43179819D02*
X1164286Y-43132200D01*
X1164286Y-43132200D02*
X1116667Y-43084580D01*
D13*
X43178196Y-39347867D02*
X42928196Y-39347867D01*
X42928196Y-39740724D02*
X42928196Y-38990724D01*
X42928196Y-38990724D02*
X43285339Y-38990724D01*
X43571053Y-38990724D02*
X43571053Y-39597867D01*
X43571053Y-39597867D02*
X43606767Y-39669295D01*
X43606767Y-39669295D02*
X43642482Y-39705010D01*
X43642482Y-39705010D02*
X43713910Y-39740724D01*
X43713910Y-39740724D02*
X43856767Y-39740724D01*
X43856767Y-39740724D02*
X43928196Y-39705010D01*
X43928196Y-39705010D02*
X43963910Y-39669295D01*
X43963910Y-39669295D02*
X43999624Y-39597867D01*
X43999624Y-39597867D02*
X43999624Y-38990724D01*
X44321053Y-39705010D02*
X44428196Y-39740724D01*
X44428196Y-39740724D02*
X44606767Y-39740724D01*
X44606767Y-39740724D02*
X44678196Y-39705010D01*
X44678196Y-39705010D02*
X44713910Y-39669295D01*
X44713910Y-39669295D02*
X44749624Y-39597867D01*
X44749624Y-39597867D02*
X44749624Y-39526438D01*
X44749624Y-39526438D02*
X44713910Y-39455010D01*
X44713910Y-39455010D02*
X44678196Y-39419295D01*
X44678196Y-39419295D02*
X44606767Y-39383581D01*
X44606767Y-39383581D02*
X44463910Y-39347867D01*
X44463910Y-39347867D02*
X44392481Y-39312152D01*
X44392481Y-39312152D02*
X44356767Y-39276438D01*
X44356767Y-39276438D02*
X44321053Y-39205010D01*
X44321053Y-39205010D02*
X44321053Y-39133581D01*
X44321053Y-39133581D02*
X44356767Y-39062152D01*
X44356767Y-39062152D02*
X44392481Y-39026438D01*
X44392481Y-39026438D02*
X44463910Y-38990724D01*
X44463910Y-38990724D02*
X44642481Y-38990724D01*
X44642481Y-38990724D02*
X44749624Y-39026438D01*
X45071053Y-39347867D02*
X45321053Y-39347867D01*
X45428196Y-39740724D02*
X45071053Y-39740724D01*
X45071053Y-39740724D02*
X45071053Y-38990724D01*
X45071053Y-38990724D02*
X45428196Y-38990724D01*
D11*
X6204762Y-24754819D02*
X6204762Y-23754819D01*
X6204762Y-23754819D02*
X6585714Y-23754819D01*
X6585714Y-23754819D02*
X6680952Y-23802438D01*
X6680952Y-23802438D02*
X6728571Y-23850057D01*
X6728571Y-23850057D02*
X6776190Y-23945295D01*
X6776190Y-23945295D02*
X6776190Y-24088152D01*
X6776190Y-24088152D02*
X6728571Y-24183390D01*
X6728571Y-24183390D02*
X6680952Y-24231009D01*
X6680952Y-24231009D02*
X6585714Y-24278628D01*
X6585714Y-24278628D02*
X6204762Y-24278628D01*
X7776190Y-24659580D02*
X7728571Y-24707200D01*
X7728571Y-24707200D02*
X7585714Y-24754819D01*
X7585714Y-24754819D02*
X7490476Y-24754819D01*
X7490476Y-24754819D02*
X7347619Y-24707200D01*
X7347619Y-24707200D02*
X7252381Y-24611961D01*
X7252381Y-24611961D02*
X7204762Y-24516723D01*
X7204762Y-24516723D02*
X7157143Y-24326247D01*
X7157143Y-24326247D02*
X7157143Y-24183390D01*
X7157143Y-24183390D02*
X7204762Y-23992914D01*
X7204762Y-23992914D02*
X7252381Y-23897676D01*
X7252381Y-23897676D02*
X7347619Y-23802438D01*
X7347619Y-23802438D02*
X7490476Y-23754819D01*
X7490476Y-23754819D02*
X7585714Y-23754819D01*
X7585714Y-23754819D02*
X7728571Y-23802438D01*
X7728571Y-23802438D02*
X7776190Y-23850057D01*
X8157143Y-24469104D02*
X8633333Y-24469104D01*
X8061905Y-24754819D02*
X8395238Y-23754819D01*
X8395238Y-23754819D02*
X8728571Y-24754819D01*
X9109524Y-24754819D02*
X9300000Y-24754819D01*
X9300000Y-24754819D02*
X9395238Y-24707200D01*
X9395238Y-24707200D02*
X9442857Y-24659580D01*
X9442857Y-24659580D02*
X9538095Y-24516723D01*
X9538095Y-24516723D02*
X9585714Y-24326247D01*
X9585714Y-24326247D02*
X9585714Y-23945295D01*
X9585714Y-23945295D02*
X9538095Y-23850057D01*
X9538095Y-23850057D02*
X9490476Y-23802438D01*
X9490476Y-23802438D02*
X9395238Y-23754819D01*
X9395238Y-23754819D02*
X9204762Y-23754819D01*
X9204762Y-23754819D02*
X9109524Y-23802438D01*
X9109524Y-23802438D02*
X9061905Y-23850057D01*
X9061905Y-23850057D02*
X9014286Y-23945295D01*
X9014286Y-23945295D02*
X9014286Y-24183390D01*
X9014286Y-24183390D02*
X9061905Y-24278628D01*
X9061905Y-24278628D02*
X9109524Y-24326247D01*
X9109524Y-24326247D02*
X9204762Y-24373866D01*
X9204762Y-24373866D02*
X9395238Y-24373866D01*
X9395238Y-24373866D02*
X9490476Y-24326247D01*
X9490476Y-24326247D02*
X9538095Y-24278628D01*
X9538095Y-24278628D02*
X9585714Y-24183390D01*
X10442857Y-23754819D02*
X10252381Y-23754819D01*
X10252381Y-23754819D02*
X10157143Y-23802438D01*
X10157143Y-23802438D02*
X10109524Y-23850057D01*
X10109524Y-23850057D02*
X10014286Y-23992914D01*
X10014286Y-23992914D02*
X9966667Y-24183390D01*
X9966667Y-24183390D02*
X9966667Y-24564342D01*
X9966667Y-24564342D02*
X10014286Y-24659580D01*
X10014286Y-24659580D02*
X10061905Y-24707200D01*
X10061905Y-24707200D02*
X10157143Y-24754819D01*
X10157143Y-24754819D02*
X10347619Y-24754819D01*
X10347619Y-24754819D02*
X10442857Y-24707200D01*
X10442857Y-24707200D02*
X10490476Y-24659580D01*
X10490476Y-24659580D02*
X10538095Y-24564342D01*
X10538095Y-24564342D02*
X10538095Y-24326247D01*
X10538095Y-24326247D02*
X10490476Y-24231009D01*
X10490476Y-24231009D02*
X10442857Y-24183390D01*
X10442857Y-24183390D02*
X10347619Y-24135771D01*
X10347619Y-24135771D02*
X10157143Y-24135771D01*
X10157143Y-24135771D02*
X10061905Y-24183390D01*
X10061905Y-24183390D02*
X10014286Y-24231009D01*
X10014286Y-24231009D02*
X9966667Y-24326247D01*
X11109524Y-24183390D02*
X11014286Y-24135771D01*
X11014286Y-24135771D02*
X10966667Y-24088152D01*
X10966667Y-24088152D02*
X10919048Y-23992914D01*
X10919048Y-23992914D02*
X10919048Y-23945295D01*
X10919048Y-23945295D02*
X10966667Y-23850057D01*
X10966667Y-23850057D02*
X11014286Y-23802438D01*
X11014286Y-23802438D02*
X11109524Y-23754819D01*
X11109524Y-23754819D02*
X11300000Y-23754819D01*
X11300000Y-23754819D02*
X11395238Y-23802438D01*
X11395238Y-23802438D02*
X11442857Y-23850057D01*
X11442857Y-23850057D02*
X11490476Y-23945295D01*
X11490476Y-23945295D02*
X11490476Y-23992914D01*
X11490476Y-23992914D02*
X11442857Y-24088152D01*
X11442857Y-24088152D02*
X11395238Y-24135771D01*
X11395238Y-24135771D02*
X11300000Y-24183390D01*
X11300000Y-24183390D02*
X11109524Y-24183390D01*
X11109524Y-24183390D02*
X11014286Y-24231009D01*
X11014286Y-24231009D02*
X10966667Y-24278628D01*
X10966667Y-24278628D02*
X10919048Y-24373866D01*
X10919048Y-24373866D02*
X10919048Y-24564342D01*
X10919048Y-24564342D02*
X10966667Y-24659580D01*
X10966667Y-24659580D02*
X11014286Y-24707200D01*
X11014286Y-24707200D02*
X11109524Y-24754819D01*
X11109524Y-24754819D02*
X11300000Y-24754819D01*
X11300000Y-24754819D02*
X11395238Y-24707200D01*
X11395238Y-24707200D02*
X11442857Y-24659580D01*
X11442857Y-24659580D02*
X11490476Y-24564342D01*
X11490476Y-24564342D02*
X11490476Y-24373866D01*
X11490476Y-24373866D02*
X11442857Y-24278628D01*
X11442857Y-24278628D02*
X11395238Y-24231009D01*
X11395238Y-24231009D02*
X11300000Y-24183390D01*
X12395238Y-23754819D02*
X11919048Y-23754819D01*
X11919048Y-23754819D02*
X11871429Y-24231009D01*
X11871429Y-24231009D02*
X11919048Y-24183390D01*
X11919048Y-24183390D02*
X12014286Y-24135771D01*
X12014286Y-24135771D02*
X12252381Y-24135771D01*
X12252381Y-24135771D02*
X12347619Y-24183390D01*
X12347619Y-24183390D02*
X12395238Y-24231009D01*
X12395238Y-24231009D02*
X12442857Y-24326247D01*
X12442857Y-24326247D02*
X12442857Y-24564342D01*
X12442857Y-24564342D02*
X12395238Y-24659580D01*
X12395238Y-24659580D02*
X12347619Y-24707200D01*
X12347619Y-24707200D02*
X12252381Y-24754819D01*
X12252381Y-24754819D02*
X12014286Y-24754819D01*
X12014286Y-24754819D02*
X11919048Y-24707200D01*
X11919048Y-24707200D02*
X11871429Y-24659580D01*
D13*
X7609275Y-48856767D02*
X7609275Y-49392481D01*
X7930704Y-49071052D02*
X6966418Y-48856767D01*
X7287847Y-49321052D02*
X7287847Y-48785338D01*
X6966418Y-49106767D02*
X7930704Y-49321052D01*
X7109275Y-50035338D02*
X7109275Y-49606767D01*
X7109275Y-49821052D02*
X7859275Y-49821052D01*
X7859275Y-49821052D02*
X7752132Y-49749624D01*
X7752132Y-49749624D02*
X7680704Y-49678195D01*
X7680704Y-49678195D02*
X7644990Y-49606767D01*
X7859275Y-51071053D02*
X7859275Y-51213910D01*
X7859275Y-51213910D02*
X7823561Y-51285339D01*
X7823561Y-51285339D02*
X7752132Y-51356767D01*
X7752132Y-51356767D02*
X7609275Y-51392482D01*
X7609275Y-51392482D02*
X7359275Y-51392482D01*
X7359275Y-51392482D02*
X7216418Y-51356767D01*
X7216418Y-51356767D02*
X7144990Y-51285339D01*
X7144990Y-51285339D02*
X7109275Y-51213910D01*
X7109275Y-51213910D02*
X7109275Y-51071053D01*
X7109275Y-51071053D02*
X7144990Y-50999625D01*
X7144990Y-50999625D02*
X7216418Y-50928196D01*
X7216418Y-50928196D02*
X7359275Y-50892482D01*
X7359275Y-50892482D02*
X7609275Y-50892482D01*
X7609275Y-50892482D02*
X7752132Y-50928196D01*
X7752132Y-50928196D02*
X7823561Y-50999625D01*
X7823561Y-50999625D02*
X7859275Y-51071053D01*
X7109275Y-51713910D02*
X7859275Y-51713910D01*
X7859275Y-51713910D02*
X7109275Y-52142481D01*
X7109275Y-52142481D02*
X7859275Y-52142481D01*
D11*
X164286Y-45088152D02*
X878571Y-45088152D01*
X450000Y-44659580D02*
X164286Y-45945295D01*
X783333Y-45516723D02*
X69048Y-45516723D01*
X497619Y-45945295D02*
X783333Y-44659580D01*
X1164286Y-44850057D02*
X1211905Y-44802438D01*
X1211905Y-44802438D02*
X1307143Y-44754819D01*
X1307143Y-44754819D02*
X1545238Y-44754819D01*
X1545238Y-44754819D02*
X1640476Y-44802438D01*
X1640476Y-44802438D02*
X1688095Y-44850057D01*
X1688095Y-44850057D02*
X1735714Y-44945295D01*
X1735714Y-44945295D02*
X1735714Y-45040533D01*
X1735714Y-45040533D02*
X1688095Y-45183390D01*
X1688095Y-45183390D02*
X1116667Y-45754819D01*
X1116667Y-45754819D02*
X1735714Y-45754819D01*
D12*
X28115036Y-44035020D02*
X29257894Y-44035020D01*
X28686465Y-44606448D02*
X28686465Y-43463591D01*
D11*
X5795238Y-38054819D02*
X5795238Y-37054819D01*
X5795238Y-37054819D02*
X6176190Y-37054819D01*
X6176190Y-37054819D02*
X6271428Y-37102438D01*
X6271428Y-37102438D02*
X6319047Y-37150057D01*
X6319047Y-37150057D02*
X6366666Y-37245295D01*
X6366666Y-37245295D02*
X6366666Y-37388152D01*
X6366666Y-37388152D02*
X6319047Y-37483390D01*
X6319047Y-37483390D02*
X6271428Y-37531009D01*
X6271428Y-37531009D02*
X6176190Y-37578628D01*
X6176190Y-37578628D02*
X5795238Y-37578628D01*
X6700000Y-37054819D02*
X6938095Y-38054819D01*
X6938095Y-38054819D02*
X7128571Y-37340533D01*
X7128571Y-37340533D02*
X7319047Y-38054819D01*
X7319047Y-38054819D02*
X7557143Y-37054819D01*
X7938095Y-38054819D02*
X7938095Y-37054819D01*
X7938095Y-37054819D02*
X8271428Y-37769104D01*
X8271428Y-37769104D02*
X8604761Y-37054819D01*
X8604761Y-37054819D02*
X8604761Y-38054819D01*
X3400000Y-38054819D02*
X3400000Y-37054819D01*
X3400000Y-37054819D02*
X3780952Y-37054819D01*
X3780952Y-37054819D02*
X3876190Y-37102438D01*
X3876190Y-37102438D02*
X3923809Y-37150057D01*
X3923809Y-37150057D02*
X3971428Y-37245295D01*
X3971428Y-37245295D02*
X3971428Y-37388152D01*
X3971428Y-37388152D02*
X3923809Y-37483390D01*
X3923809Y-37483390D02*
X3876190Y-37531009D01*
X3876190Y-37531009D02*
X3780952Y-37578628D01*
X3780952Y-37578628D02*
X3400000Y-37578628D01*
X4400000Y-38054819D02*
X4400000Y-37054819D01*
X164286Y-47563152D02*
X878571Y-47563152D01*
X450000Y-47134580D02*
X164286Y-48420295D01*
X783333Y-47991723D02*
X69048Y-47991723D01*
X497619Y-48420295D02*
X783333Y-47134580D01*
X1735714Y-48229819D02*
X1164286Y-48229819D01*
X1450000Y-48229819D02*
X1450000Y-47229819D01*
X1450000Y-47229819D02*
X1354762Y-47372676D01*
X1354762Y-47372676D02*
X1259524Y-47467914D01*
X1259524Y-47467914D02*
X1164286Y-47515533D01*
D13*
X22709275Y-48856767D02*
X22709275Y-49392481D01*
X23030704Y-49071052D02*
X22066418Y-48856767D01*
X22387847Y-49321052D02*
X22387847Y-48785338D01*
X22066418Y-49106767D02*
X23030704Y-49321052D01*
X22887847Y-49606767D02*
X22923561Y-49642481D01*
X22923561Y-49642481D02*
X22959275Y-49713910D01*
X22959275Y-49713910D02*
X22959275Y-49892481D01*
X22959275Y-49892481D02*
X22923561Y-49963910D01*
X22923561Y-49963910D02*
X22887847Y-49999624D01*
X22887847Y-49999624D02*
X22816418Y-50035338D01*
X22816418Y-50035338D02*
X22744990Y-50035338D01*
X22744990Y-50035338D02*
X22637847Y-49999624D01*
X22637847Y-49999624D02*
X22209275Y-49571052D01*
X22209275Y-49571052D02*
X22209275Y-50035338D01*
X22959275Y-51071053D02*
X22959275Y-51213910D01*
X22959275Y-51213910D02*
X22923561Y-51285339D01*
X22923561Y-51285339D02*
X22852132Y-51356767D01*
X22852132Y-51356767D02*
X22709275Y-51392482D01*
X22709275Y-51392482D02*
X22459275Y-51392482D01*
X22459275Y-51392482D02*
X22316418Y-51356767D01*
X22316418Y-51356767D02*
X22244990Y-51285339D01*
X22244990Y-51285339D02*
X22209275Y-51213910D01*
X22209275Y-51213910D02*
X22209275Y-51071053D01*
X22209275Y-51071053D02*
X22244990Y-50999625D01*
X22244990Y-50999625D02*
X22316418Y-50928196D01*
X22316418Y-50928196D02*
X22459275Y-50892482D01*
X22459275Y-50892482D02*
X22709275Y-50892482D01*
X22709275Y-50892482D02*
X22852132Y-50928196D01*
X22852132Y-50928196D02*
X22923561Y-50999625D01*
X22923561Y-50999625D02*
X22959275Y-51071053D01*
X22209275Y-51713910D02*
X22959275Y-51713910D01*
X22959275Y-51713910D02*
X22209275Y-52142481D01*
X22209275Y-52142481D02*
X22959275Y-52142481D01*
D12*
X49381448Y-33399248D02*
X49381448Y-33113534D01*
X49381448Y-33113534D02*
X49452877Y-32970677D01*
X49452877Y-32970677D02*
X49595734Y-32827820D01*
X49595734Y-32827820D02*
X49881448Y-32756391D01*
X49881448Y-32756391D02*
X50381448Y-32756391D01*
X50381448Y-32756391D02*
X50667162Y-32827820D01*
X50667162Y-32827820D02*
X50810020Y-32970677D01*
X50810020Y-32970677D02*
X50881448Y-33113534D01*
X50881448Y-33113534D02*
X50881448Y-33399248D01*
X50881448Y-33399248D02*
X50810020Y-33542106D01*
X50810020Y-33542106D02*
X50667162Y-33684963D01*
X50667162Y-33684963D02*
X50381448Y-33756391D01*
X50381448Y-33756391D02*
X49881448Y-33756391D01*
X49881448Y-33756391D02*
X49595734Y-33684963D01*
X49595734Y-33684963D02*
X49452877Y-33542106D01*
X49452877Y-33542106D02*
X49381448Y-33399248D01*
X49381448Y-32113534D02*
X50595734Y-32113534D01*
X50595734Y-32113534D02*
X50738591Y-32042105D01*
X50738591Y-32042105D02*
X50810020Y-31970677D01*
X50810020Y-31970677D02*
X50881448Y-31827819D01*
X50881448Y-31827819D02*
X50881448Y-31542105D01*
X50881448Y-31542105D02*
X50810020Y-31399248D01*
X50810020Y-31399248D02*
X50738591Y-31327819D01*
X50738591Y-31327819D02*
X50595734Y-31256391D01*
X50595734Y-31256391D02*
X49381448Y-31256391D01*
X49381448Y-30756390D02*
X49381448Y-29899248D01*
X50881448Y-30327819D02*
X49381448Y-30327819D01*
X49881448Y-28327819D02*
X49881448Y-27256391D01*
X49238591Y-27899248D02*
X51167162Y-28327819D01*
X50524305Y-27399248D02*
X50524305Y-28470676D01*
X51167162Y-27827819D02*
X49238591Y-27399248D01*
X49381448Y-26899248D02*
X49381448Y-25970676D01*
X49381448Y-25970676D02*
X49952877Y-26470676D01*
X49952877Y-26470676D02*
X49952877Y-26256391D01*
X49952877Y-26256391D02*
X50024305Y-26113534D01*
X50024305Y-26113534D02*
X50095734Y-26042105D01*
X50095734Y-26042105D02*
X50238591Y-25970676D01*
X50238591Y-25970676D02*
X50595734Y-25970676D01*
X50595734Y-25970676D02*
X50738591Y-26042105D01*
X50738591Y-26042105D02*
X50810020Y-26113534D01*
X50810020Y-26113534D02*
X50881448Y-26256391D01*
X50881448Y-26256391D02*
X50881448Y-26684962D01*
X50881448Y-26684962D02*
X50810020Y-26827819D01*
X50810020Y-26827819D02*
X50738591Y-26899248D01*
X27900751Y-40806448D02*
X28186465Y-40806448D01*
X28186465Y-40806448D02*
X28329322Y-40877877D01*
X28329322Y-40877877D02*
X28472179Y-41020734D01*
X28472179Y-41020734D02*
X28543608Y-41306448D01*
X28543608Y-41306448D02*
X28543608Y-41806448D01*
X28543608Y-41806448D02*
X28472179Y-42092162D01*
X28472179Y-42092162D02*
X28329322Y-42235020D01*
X28329322Y-42235020D02*
X28186465Y-42306448D01*
X28186465Y-42306448D02*
X27900751Y-42306448D01*
X27900751Y-42306448D02*
X27757894Y-42235020D01*
X27757894Y-42235020D02*
X27615036Y-42092162D01*
X27615036Y-42092162D02*
X27543608Y-41806448D01*
X27543608Y-41806448D02*
X27543608Y-41306448D01*
X27543608Y-41306448D02*
X27615036Y-41020734D01*
X27615036Y-41020734D02*
X27757894Y-40877877D01*
X27757894Y-40877877D02*
X27900751Y-40806448D01*
X29186465Y-40806448D02*
X29186465Y-42020734D01*
X29186465Y-42020734D02*
X29257894Y-42163591D01*
X29257894Y-42163591D02*
X29329323Y-42235020D01*
X29329323Y-42235020D02*
X29472180Y-42306448D01*
X29472180Y-42306448D02*
X29757894Y-42306448D01*
X29757894Y-42306448D02*
X29900751Y-42235020D01*
X29900751Y-42235020D02*
X29972180Y-42163591D01*
X29972180Y-42163591D02*
X30043608Y-42020734D01*
X30043608Y-42020734D02*
X30043608Y-40806448D01*
X30543609Y-40806448D02*
X31400752Y-40806448D01*
X30972180Y-42306448D02*
X30972180Y-40806448D01*
X32972180Y-41306448D02*
X34043608Y-41306448D01*
X33400751Y-40663591D02*
X32972180Y-42592162D01*
X33900751Y-41949305D02*
X32829323Y-41949305D01*
X33472180Y-42592162D02*
X33900751Y-40663591D01*
X34472180Y-40949305D02*
X34543608Y-40877877D01*
X34543608Y-40877877D02*
X34686466Y-40806448D01*
X34686466Y-40806448D02*
X35043608Y-40806448D01*
X35043608Y-40806448D02*
X35186466Y-40877877D01*
X35186466Y-40877877D02*
X35257894Y-40949305D01*
X35257894Y-40949305D02*
X35329323Y-41092162D01*
X35329323Y-41092162D02*
X35329323Y-41235020D01*
X35329323Y-41235020D02*
X35257894Y-41449305D01*
X35257894Y-41449305D02*
X34400751Y-42306448D01*
X34400751Y-42306448D02*
X35329323Y-42306448D01*
D13*
X53996428Y-36386995D02*
X54139285Y-36386995D01*
X54139285Y-36386995D02*
X54210714Y-36422709D01*
X54210714Y-36422709D02*
X54282142Y-36494138D01*
X54282142Y-36494138D02*
X54317857Y-36636995D01*
X54317857Y-36636995D02*
X54317857Y-36886995D01*
X54317857Y-36886995D02*
X54282142Y-37029852D01*
X54282142Y-37029852D02*
X54210714Y-37101281D01*
X54210714Y-37101281D02*
X54139285Y-37136995D01*
X54139285Y-37136995D02*
X53996428Y-37136995D01*
X53996428Y-37136995D02*
X53925000Y-37101281D01*
X53925000Y-37101281D02*
X53853571Y-37029852D01*
X53853571Y-37029852D02*
X53817857Y-36886995D01*
X53817857Y-36886995D02*
X53817857Y-36636995D01*
X53817857Y-36636995D02*
X53853571Y-36494138D01*
X53853571Y-36494138D02*
X53925000Y-36422709D01*
X53925000Y-36422709D02*
X53996428Y-36386995D01*
X54639285Y-36386995D02*
X54639285Y-36994138D01*
X54639285Y-36994138D02*
X54674999Y-37065566D01*
X54674999Y-37065566D02*
X54710714Y-37101281D01*
X54710714Y-37101281D02*
X54782142Y-37136995D01*
X54782142Y-37136995D02*
X54924999Y-37136995D01*
X54924999Y-37136995D02*
X54996428Y-37101281D01*
X54996428Y-37101281D02*
X55032142Y-37065566D01*
X55032142Y-37065566D02*
X55067856Y-36994138D01*
X55067856Y-36994138D02*
X55067856Y-36386995D01*
X55317856Y-36386995D02*
X55746428Y-36386995D01*
X55532142Y-37136995D02*
X55532142Y-36386995D01*
X55996428Y-37136995D02*
X55996428Y-36386995D01*
X55996428Y-36386995D02*
X56282142Y-36386995D01*
X56282142Y-36386995D02*
X56353571Y-36422709D01*
X56353571Y-36422709D02*
X56389285Y-36458423D01*
X56389285Y-36458423D02*
X56424999Y-36529852D01*
X56424999Y-36529852D02*
X56424999Y-36636995D01*
X56424999Y-36636995D02*
X56389285Y-36708423D01*
X56389285Y-36708423D02*
X56353571Y-36744138D01*
X56353571Y-36744138D02*
X56282142Y-36779852D01*
X56282142Y-36779852D02*
X55996428Y-36779852D01*
X56746428Y-36386995D02*
X56746428Y-36994138D01*
X56746428Y-36994138D02*
X56782142Y-37065566D01*
X56782142Y-37065566D02*
X56817857Y-37101281D01*
X56817857Y-37101281D02*
X56889285Y-37136995D01*
X56889285Y-37136995D02*
X57032142Y-37136995D01*
X57032142Y-37136995D02*
X57103571Y-37101281D01*
X57103571Y-37101281D02*
X57139285Y-37065566D01*
X57139285Y-37065566D02*
X57174999Y-36994138D01*
X57174999Y-36994138D02*
X57174999Y-36386995D01*
X57424999Y-36386995D02*
X57853571Y-36386995D01*
X57639285Y-37136995D02*
X57639285Y-36386995D01*
X53907143Y-37951596D02*
X54157143Y-37951596D01*
X54264286Y-38344453D02*
X53907143Y-38344453D01*
X53907143Y-38344453D02*
X53907143Y-37594453D01*
X53907143Y-37594453D02*
X54264286Y-37594453D01*
X54585714Y-38344453D02*
X54585714Y-37594453D01*
X54585714Y-37594453D02*
X55014285Y-38344453D01*
X55014285Y-38344453D02*
X55014285Y-37594453D01*
X55335714Y-38130167D02*
X55692857Y-38130167D01*
X55264285Y-38344453D02*
X55514285Y-37594453D01*
X55514285Y-37594453D02*
X55764285Y-38344453D01*
X56264285Y-37951596D02*
X56371428Y-37987310D01*
X56371428Y-37987310D02*
X56407142Y-38023024D01*
X56407142Y-38023024D02*
X56442856Y-38094453D01*
X56442856Y-38094453D02*
X56442856Y-38201596D01*
X56442856Y-38201596D02*
X56407142Y-38273024D01*
X56407142Y-38273024D02*
X56371428Y-38308739D01*
X56371428Y-38308739D02*
X56299999Y-38344453D01*
X56299999Y-38344453D02*
X56014285Y-38344453D01*
X56014285Y-38344453D02*
X56014285Y-37594453D01*
X56014285Y-37594453D02*
X56264285Y-37594453D01*
X56264285Y-37594453D02*
X56335714Y-37630167D01*
X56335714Y-37630167D02*
X56371428Y-37665881D01*
X56371428Y-37665881D02*
X56407142Y-37737310D01*
X56407142Y-37737310D02*
X56407142Y-37808739D01*
X56407142Y-37808739D02*
X56371428Y-37880167D01*
X56371428Y-37880167D02*
X56335714Y-37915881D01*
X56335714Y-37915881D02*
X56264285Y-37951596D01*
X56264285Y-37951596D02*
X56014285Y-37951596D01*
X57121428Y-38344453D02*
X56764285Y-38344453D01*
X56764285Y-38344453D02*
X56764285Y-37594453D01*
X57371428Y-37951596D02*
X57621428Y-37951596D01*
X57728571Y-38344453D02*
X57371428Y-38344453D01*
X57371428Y-38344453D02*
X57371428Y-37594453D01*
X57371428Y-37594453D02*
X57728571Y-37594453D01*
X57756767Y-23040724D02*
X58292481Y-23040724D01*
X57971052Y-22719295D02*
X57756767Y-23683581D01*
X58221052Y-23362152D02*
X57685338Y-23362152D01*
X58006767Y-23683581D02*
X58221052Y-22719295D01*
X58863910Y-23040724D02*
X58863910Y-23540724D01*
X58685338Y-22755010D02*
X58506767Y-23290724D01*
X58506767Y-23290724D02*
X58971052Y-23290724D01*
X59971053Y-22790724D02*
X60113910Y-22790724D01*
X60113910Y-22790724D02*
X60185339Y-22826438D01*
X60185339Y-22826438D02*
X60256767Y-22897867D01*
X60256767Y-22897867D02*
X60292482Y-23040724D01*
X60292482Y-23040724D02*
X60292482Y-23290724D01*
X60292482Y-23290724D02*
X60256767Y-23433581D01*
X60256767Y-23433581D02*
X60185339Y-23505010D01*
X60185339Y-23505010D02*
X60113910Y-23540724D01*
X60113910Y-23540724D02*
X59971053Y-23540724D01*
X59971053Y-23540724D02*
X59899625Y-23505010D01*
X59899625Y-23505010D02*
X59828196Y-23433581D01*
X59828196Y-23433581D02*
X59792482Y-23290724D01*
X59792482Y-23290724D02*
X59792482Y-23040724D01*
X59792482Y-23040724D02*
X59828196Y-22897867D01*
X59828196Y-22897867D02*
X59899625Y-22826438D01*
X59899625Y-22826438D02*
X59971053Y-22790724D01*
X60613910Y-23540724D02*
X60613910Y-22790724D01*
X60613910Y-22790724D02*
X61042481Y-23540724D01*
X61042481Y-23540724D02*
X61042481Y-22790724D01*
X58828196Y-21197867D02*
X58578196Y-21197867D01*
X58578196Y-21590724D02*
X58578196Y-20840724D01*
X58578196Y-20840724D02*
X58935339Y-20840724D01*
X59221053Y-20840724D02*
X59221053Y-21447867D01*
X59221053Y-21447867D02*
X59256767Y-21519295D01*
X59256767Y-21519295D02*
X59292482Y-21555010D01*
X59292482Y-21555010D02*
X59363910Y-21590724D01*
X59363910Y-21590724D02*
X59506767Y-21590724D01*
X59506767Y-21590724D02*
X59578196Y-21555010D01*
X59578196Y-21555010D02*
X59613910Y-21519295D01*
X59613910Y-21519295D02*
X59649624Y-21447867D01*
X59649624Y-21447867D02*
X59649624Y-20840724D01*
X59971053Y-21555010D02*
X60078196Y-21590724D01*
X60078196Y-21590724D02*
X60256767Y-21590724D01*
X60256767Y-21590724D02*
X60328196Y-21555010D01*
X60328196Y-21555010D02*
X60363910Y-21519295D01*
X60363910Y-21519295D02*
X60399624Y-21447867D01*
X60399624Y-21447867D02*
X60399624Y-21376438D01*
X60399624Y-21376438D02*
X60363910Y-21305010D01*
X60363910Y-21305010D02*
X60328196Y-21269295D01*
X60328196Y-21269295D02*
X60256767Y-21233581D01*
X60256767Y-21233581D02*
X60113910Y-21197867D01*
X60113910Y-21197867D02*
X60042481Y-21162152D01*
X60042481Y-21162152D02*
X60006767Y-21126438D01*
X60006767Y-21126438D02*
X59971053Y-21055010D01*
X59971053Y-21055010D02*
X59971053Y-20983581D01*
X59971053Y-20983581D02*
X60006767Y-20912152D01*
X60006767Y-20912152D02*
X60042481Y-20876438D01*
X60042481Y-20876438D02*
X60113910Y-20840724D01*
X60113910Y-20840724D02*
X60292481Y-20840724D01*
X60292481Y-20840724D02*
X60399624Y-20876438D01*
X60721053Y-21197867D02*
X60971053Y-21197867D01*
X61078196Y-21590724D02*
X60721053Y-21590724D01*
X60721053Y-21590724D02*
X60721053Y-20840724D01*
X60721053Y-20840724D02*
X61078196Y-20840724D01*
D12*
X49381448Y-18199248D02*
X49381448Y-17913534D01*
X49381448Y-17913534D02*
X49452877Y-17770677D01*
X49452877Y-17770677D02*
X49595734Y-17627820D01*
X49595734Y-17627820D02*
X49881448Y-17556391D01*
X49881448Y-17556391D02*
X50381448Y-17556391D01*
X50381448Y-17556391D02*
X50667162Y-17627820D01*
X50667162Y-17627820D02*
X50810020Y-17770677D01*
X50810020Y-17770677D02*
X50881448Y-17913534D01*
X50881448Y-17913534D02*
X50881448Y-18199248D01*
X50881448Y-18199248D02*
X50810020Y-18342106D01*
X50810020Y-18342106D02*
X50667162Y-18484963D01*
X50667162Y-18484963D02*
X50381448Y-18556391D01*
X50381448Y-18556391D02*
X49881448Y-18556391D01*
X49881448Y-18556391D02*
X49595734Y-18484963D01*
X49595734Y-18484963D02*
X49452877Y-18342106D01*
X49452877Y-18342106D02*
X49381448Y-18199248D01*
X49381448Y-16913534D02*
X50595734Y-16913534D01*
X50595734Y-16913534D02*
X50738591Y-16842105D01*
X50738591Y-16842105D02*
X50810020Y-16770677D01*
X50810020Y-16770677D02*
X50881448Y-16627819D01*
X50881448Y-16627819D02*
X50881448Y-16342105D01*
X50881448Y-16342105D02*
X50810020Y-16199248D01*
X50810020Y-16199248D02*
X50738591Y-16127819D01*
X50738591Y-16127819D02*
X50595734Y-16056391D01*
X50595734Y-16056391D02*
X49381448Y-16056391D01*
X49381448Y-15556390D02*
X49381448Y-14699248D01*
X50881448Y-15127819D02*
X49381448Y-15127819D01*
X49881448Y-13127819D02*
X49881448Y-12056391D01*
X49238591Y-12699248D02*
X51167162Y-13127819D01*
X50524305Y-12199248D02*
X50524305Y-13270676D01*
X51167162Y-12627819D02*
X49238591Y-12199248D01*
X49881448Y-10913534D02*
X50881448Y-10913534D01*
X49310020Y-11270676D02*
X50381448Y-11627819D01*
X50381448Y-11627819D02*
X50381448Y-10699248D01*
X52410020Y-17784963D02*
X52410020Y-16642106D01*
X52981448Y-17213534D02*
X51838591Y-17213534D01*
D13*
X23536995Y-18417857D02*
X22786995Y-18417857D01*
X22786995Y-18417857D02*
X22786995Y-18132143D01*
X22786995Y-18132143D02*
X22822709Y-18060714D01*
X22822709Y-18060714D02*
X22858423Y-18025000D01*
X22858423Y-18025000D02*
X22929852Y-17989286D01*
X22929852Y-17989286D02*
X23036995Y-17989286D01*
X23036995Y-17989286D02*
X23108423Y-18025000D01*
X23108423Y-18025000D02*
X23144138Y-18060714D01*
X23144138Y-18060714D02*
X23179852Y-18132143D01*
X23179852Y-18132143D02*
X23179852Y-18417857D01*
X23465566Y-17239286D02*
X23501281Y-17275000D01*
X23501281Y-17275000D02*
X23536995Y-17382143D01*
X23536995Y-17382143D02*
X23536995Y-17453571D01*
X23536995Y-17453571D02*
X23501281Y-17560714D01*
X23501281Y-17560714D02*
X23429852Y-17632143D01*
X23429852Y-17632143D02*
X23358423Y-17667857D01*
X23358423Y-17667857D02*
X23215566Y-17703571D01*
X23215566Y-17703571D02*
X23108423Y-17703571D01*
X23108423Y-17703571D02*
X22965566Y-17667857D01*
X22965566Y-17667857D02*
X22894138Y-17632143D01*
X22894138Y-17632143D02*
X22822709Y-17560714D01*
X22822709Y-17560714D02*
X22786995Y-17453571D01*
X22786995Y-17453571D02*
X22786995Y-17382143D01*
X22786995Y-17382143D02*
X22822709Y-17275000D01*
X22822709Y-17275000D02*
X22858423Y-17239286D01*
X23322709Y-16953571D02*
X23322709Y-16596429D01*
X23536995Y-17025000D02*
X22786995Y-16775000D01*
X22786995Y-16775000D02*
X23536995Y-16525000D01*
X23536995Y-16239286D02*
X23536995Y-16096429D01*
X23536995Y-16096429D02*
X23501281Y-16025000D01*
X23501281Y-16025000D02*
X23465566Y-15989286D01*
X23465566Y-15989286D02*
X23358423Y-15917857D01*
X23358423Y-15917857D02*
X23215566Y-15882143D01*
X23215566Y-15882143D02*
X22929852Y-15882143D01*
X22929852Y-15882143D02*
X22858423Y-15917857D01*
X22858423Y-15917857D02*
X22822709Y-15953572D01*
X22822709Y-15953572D02*
X22786995Y-16025000D01*
X22786995Y-16025000D02*
X22786995Y-16167857D01*
X22786995Y-16167857D02*
X22822709Y-16239286D01*
X22822709Y-16239286D02*
X22858423Y-16275000D01*
X22858423Y-16275000D02*
X22929852Y-16310714D01*
X22929852Y-16310714D02*
X23108423Y-16310714D01*
X23108423Y-16310714D02*
X23179852Y-16275000D01*
X23179852Y-16275000D02*
X23215566Y-16239286D01*
X23215566Y-16239286D02*
X23251281Y-16167857D01*
X23251281Y-16167857D02*
X23251281Y-16025000D01*
X23251281Y-16025000D02*
X23215566Y-15953572D01*
X23215566Y-15953572D02*
X23179852Y-15917857D01*
X23179852Y-15917857D02*
X23108423Y-15882143D01*
X22786995Y-15239286D02*
X22786995Y-15382143D01*
X22786995Y-15382143D02*
X22822709Y-15453571D01*
X22822709Y-15453571D02*
X22858423Y-15489286D01*
X22858423Y-15489286D02*
X22965566Y-15560714D01*
X22965566Y-15560714D02*
X23108423Y-15596428D01*
X23108423Y-15596428D02*
X23394138Y-15596428D01*
X23394138Y-15596428D02*
X23465566Y-15560714D01*
X23465566Y-15560714D02*
X23501281Y-15525000D01*
X23501281Y-15525000D02*
X23536995Y-15453571D01*
X23536995Y-15453571D02*
X23536995Y-15310714D01*
X23536995Y-15310714D02*
X23501281Y-15239286D01*
X23501281Y-15239286D02*
X23465566Y-15203571D01*
X23465566Y-15203571D02*
X23394138Y-15167857D01*
X23394138Y-15167857D02*
X23215566Y-15167857D01*
X23215566Y-15167857D02*
X23144138Y-15203571D01*
X23144138Y-15203571D02*
X23108423Y-15239286D01*
X23108423Y-15239286D02*
X23072709Y-15310714D01*
X23072709Y-15310714D02*
X23072709Y-15453571D01*
X23072709Y-15453571D02*
X23108423Y-15525000D01*
X23108423Y-15525000D02*
X23144138Y-15560714D01*
X23144138Y-15560714D02*
X23215566Y-15596428D01*
X23108423Y-14739285D02*
X23072709Y-14810714D01*
X23072709Y-14810714D02*
X23036995Y-14846428D01*
X23036995Y-14846428D02*
X22965566Y-14882142D01*
X22965566Y-14882142D02*
X22929852Y-14882142D01*
X22929852Y-14882142D02*
X22858423Y-14846428D01*
X22858423Y-14846428D02*
X22822709Y-14810714D01*
X22822709Y-14810714D02*
X22786995Y-14739285D01*
X22786995Y-14739285D02*
X22786995Y-14596428D01*
X22786995Y-14596428D02*
X22822709Y-14525000D01*
X22822709Y-14525000D02*
X22858423Y-14489285D01*
X22858423Y-14489285D02*
X22929852Y-14453571D01*
X22929852Y-14453571D02*
X22965566Y-14453571D01*
X22965566Y-14453571D02*
X23036995Y-14489285D01*
X23036995Y-14489285D02*
X23072709Y-14525000D01*
X23072709Y-14525000D02*
X23108423Y-14596428D01*
X23108423Y-14596428D02*
X23108423Y-14739285D01*
X23108423Y-14739285D02*
X23144138Y-14810714D01*
X23144138Y-14810714D02*
X23179852Y-14846428D01*
X23179852Y-14846428D02*
X23251281Y-14882142D01*
X23251281Y-14882142D02*
X23394138Y-14882142D01*
X23394138Y-14882142D02*
X23465566Y-14846428D01*
X23465566Y-14846428D02*
X23501281Y-14810714D01*
X23501281Y-14810714D02*
X23536995Y-14739285D01*
X23536995Y-14739285D02*
X23536995Y-14596428D01*
X23536995Y-14596428D02*
X23501281Y-14525000D01*
X23501281Y-14525000D02*
X23465566Y-14489285D01*
X23465566Y-14489285D02*
X23394138Y-14453571D01*
X23394138Y-14453571D02*
X23251281Y-14453571D01*
X23251281Y-14453571D02*
X23179852Y-14489285D01*
X23179852Y-14489285D02*
X23144138Y-14525000D01*
X23144138Y-14525000D02*
X23108423Y-14596428D01*
X22786995Y-13774999D02*
X22786995Y-14132142D01*
X22786995Y-14132142D02*
X23144138Y-14167856D01*
X23144138Y-14167856D02*
X23108423Y-14132142D01*
X23108423Y-14132142D02*
X23072709Y-14060714D01*
X23072709Y-14060714D02*
X23072709Y-13882142D01*
X23072709Y-13882142D02*
X23108423Y-13810714D01*
X23108423Y-13810714D02*
X23144138Y-13774999D01*
X23144138Y-13774999D02*
X23215566Y-13739285D01*
X23215566Y-13739285D02*
X23394138Y-13739285D01*
X23394138Y-13739285D02*
X23465566Y-13774999D01*
X23465566Y-13774999D02*
X23501281Y-13810714D01*
X23501281Y-13810714D02*
X23536995Y-13882142D01*
X23536995Y-13882142D02*
X23536995Y-14060714D01*
X23536995Y-14060714D02*
X23501281Y-14132142D01*
X23501281Y-14132142D02*
X23465566Y-14167856D01*
X23536995Y-12846427D02*
X22786995Y-12846427D01*
X22858423Y-12524998D02*
X22822709Y-12489284D01*
X22822709Y-12489284D02*
X22786995Y-12417856D01*
X22786995Y-12417856D02*
X22786995Y-12239284D01*
X22786995Y-12239284D02*
X22822709Y-12167856D01*
X22822709Y-12167856D02*
X22858423Y-12132141D01*
X22858423Y-12132141D02*
X22929852Y-12096427D01*
X22929852Y-12096427D02*
X23001281Y-12096427D01*
X23001281Y-12096427D02*
X23108423Y-12132141D01*
X23108423Y-12132141D02*
X23536995Y-12560713D01*
X23536995Y-12560713D02*
X23536995Y-12096427D01*
X23465566Y-11346427D02*
X23501281Y-11382141D01*
X23501281Y-11382141D02*
X23536995Y-11489284D01*
X23536995Y-11489284D02*
X23536995Y-11560712D01*
X23536995Y-11560712D02*
X23501281Y-11667855D01*
X23501281Y-11667855D02*
X23429852Y-11739284D01*
X23429852Y-11739284D02*
X23358423Y-11774998D01*
X23358423Y-11774998D02*
X23215566Y-11810712D01*
X23215566Y-11810712D02*
X23108423Y-11810712D01*
X23108423Y-11810712D02*
X22965566Y-11774998D01*
X22965566Y-11774998D02*
X22894138Y-11739284D01*
X22894138Y-11739284D02*
X22822709Y-11667855D01*
X22822709Y-11667855D02*
X22786995Y-11560712D01*
X22786995Y-11560712D02*
X22786995Y-11489284D01*
X22786995Y-11489284D02*
X22822709Y-11382141D01*
X22822709Y-11382141D02*
X22858423Y-11346427D01*
X24744453Y-18346428D02*
X23994453Y-18346428D01*
X23994453Y-18346428D02*
X23994453Y-18060714D01*
X23994453Y-18060714D02*
X24030167Y-17989285D01*
X24030167Y-17989285D02*
X24065881Y-17953571D01*
X24065881Y-17953571D02*
X24137310Y-17917857D01*
X24137310Y-17917857D02*
X24244453Y-17917857D01*
X24244453Y-17917857D02*
X24315881Y-17953571D01*
X24315881Y-17953571D02*
X24351596Y-17989285D01*
X24351596Y-17989285D02*
X24387310Y-18060714D01*
X24387310Y-18060714D02*
X24387310Y-18346428D01*
X23994453Y-17667857D02*
X24744453Y-17489285D01*
X24744453Y-17489285D02*
X24208739Y-17346428D01*
X24208739Y-17346428D02*
X24744453Y-17203571D01*
X24744453Y-17203571D02*
X23994453Y-17025000D01*
X24744453Y-16739285D02*
X23994453Y-16739285D01*
X23994453Y-16739285D02*
X24530167Y-16489285D01*
X24530167Y-16489285D02*
X23994453Y-16239285D01*
X23994453Y-16239285D02*
X24744453Y-16239285D01*
X24673024Y-14882142D02*
X24708739Y-14917856D01*
X24708739Y-14917856D02*
X24744453Y-15024999D01*
X24744453Y-15024999D02*
X24744453Y-15096427D01*
X24744453Y-15096427D02*
X24708739Y-15203570D01*
X24708739Y-15203570D02*
X24637310Y-15274999D01*
X24637310Y-15274999D02*
X24565881Y-15310713D01*
X24565881Y-15310713D02*
X24423024Y-15346427D01*
X24423024Y-15346427D02*
X24315881Y-15346427D01*
X24315881Y-15346427D02*
X24173024Y-15310713D01*
X24173024Y-15310713D02*
X24101596Y-15274999D01*
X24101596Y-15274999D02*
X24030167Y-15203570D01*
X24030167Y-15203570D02*
X23994453Y-15096427D01*
X23994453Y-15096427D02*
X23994453Y-15024999D01*
X23994453Y-15024999D02*
X24030167Y-14917856D01*
X24030167Y-14917856D02*
X24065881Y-14882142D01*
X24744453Y-14560713D02*
X23994453Y-14560713D01*
X23994453Y-14560713D02*
X24744453Y-14132142D01*
X24744453Y-14132142D02*
X23994453Y-14132142D01*
X23994453Y-13882142D02*
X23994453Y-13453571D01*
X24744453Y-13667856D02*
X23994453Y-13667856D01*
X24744453Y-12774999D02*
X24387310Y-13024999D01*
X24744453Y-13203570D02*
X23994453Y-13203570D01*
X23994453Y-13203570D02*
X23994453Y-12917856D01*
X23994453Y-12917856D02*
X24030167Y-12846427D01*
X24030167Y-12846427D02*
X24065881Y-12810713D01*
X24065881Y-12810713D02*
X24137310Y-12774999D01*
X24137310Y-12774999D02*
X24244453Y-12774999D01*
X24244453Y-12774999D02*
X24315881Y-12810713D01*
X24315881Y-12810713D02*
X24351596Y-12846427D01*
X24351596Y-12846427D02*
X24387310Y-12917856D01*
X24387310Y-12917856D02*
X24387310Y-13203570D01*
X24744453Y-12096427D02*
X24744453Y-12453570D01*
X24744453Y-12453570D02*
X23994453Y-12453570D01*
X24744453Y-11417856D02*
X24387310Y-11667856D01*
X24744453Y-11846427D02*
X23994453Y-11846427D01*
X23994453Y-11846427D02*
X23994453Y-11560713D01*
X23994453Y-11560713D02*
X24030167Y-11489284D01*
X24030167Y-11489284D02*
X24065881Y-11453570D01*
X24065881Y-11453570D02*
X24137310Y-11417856D01*
X24137310Y-11417856D02*
X24244453Y-11417856D01*
X24244453Y-11417856D02*
X24315881Y-11453570D01*
X24315881Y-11453570D02*
X24351596Y-11489284D01*
X24351596Y-11489284D02*
X24387310Y-11560713D01*
X24387310Y-11560713D02*
X24387310Y-11846427D01*
X9402132Y-49928196D02*
X9402132Y-49678196D01*
X9009275Y-49678196D02*
X9759275Y-49678196D01*
X9759275Y-49678196D02*
X9759275Y-50035339D01*
X9759275Y-50321053D02*
X9152132Y-50321053D01*
X9152132Y-50321053D02*
X9080704Y-50356767D01*
X9080704Y-50356767D02*
X9044990Y-50392482D01*
X9044990Y-50392482D02*
X9009275Y-50463910D01*
X9009275Y-50463910D02*
X9009275Y-50606767D01*
X9009275Y-50606767D02*
X9044990Y-50678196D01*
X9044990Y-50678196D02*
X9080704Y-50713910D01*
X9080704Y-50713910D02*
X9152132Y-50749624D01*
X9152132Y-50749624D02*
X9759275Y-50749624D01*
X9044990Y-51071053D02*
X9009275Y-51178196D01*
X9009275Y-51178196D02*
X9009275Y-51356767D01*
X9009275Y-51356767D02*
X9044990Y-51428196D01*
X9044990Y-51428196D02*
X9080704Y-51463910D01*
X9080704Y-51463910D02*
X9152132Y-51499624D01*
X9152132Y-51499624D02*
X9223561Y-51499624D01*
X9223561Y-51499624D02*
X9294990Y-51463910D01*
X9294990Y-51463910D02*
X9330704Y-51428196D01*
X9330704Y-51428196D02*
X9366418Y-51356767D01*
X9366418Y-51356767D02*
X9402132Y-51213910D01*
X9402132Y-51213910D02*
X9437847Y-51142481D01*
X9437847Y-51142481D02*
X9473561Y-51106767D01*
X9473561Y-51106767D02*
X9544990Y-51071053D01*
X9544990Y-51071053D02*
X9616418Y-51071053D01*
X9616418Y-51071053D02*
X9687847Y-51106767D01*
X9687847Y-51106767D02*
X9723561Y-51142481D01*
X9723561Y-51142481D02*
X9759275Y-51213910D01*
X9759275Y-51213910D02*
X9759275Y-51392481D01*
X9759275Y-51392481D02*
X9723561Y-51499624D01*
X9402132Y-51821053D02*
X9402132Y-52071053D01*
X9009275Y-52178196D02*
X9009275Y-51821053D01*
X9009275Y-51821053D02*
X9759275Y-51821053D01*
X9759275Y-51821053D02*
X9759275Y-52178196D01*
D12*
X41457803Y-42231448D02*
X41457803Y-40731448D01*
X42172089Y-42231448D02*
X42172089Y-40731448D01*
X42172089Y-40731448D02*
X43029232Y-42231448D01*
X43029232Y-42231448D02*
X43029232Y-40731448D01*
X43743518Y-42231448D02*
X43743518Y-40731448D01*
X43743518Y-40731448D02*
X44314947Y-40731448D01*
X44314947Y-40731448D02*
X44457804Y-40802877D01*
X44457804Y-40802877D02*
X44529233Y-40874305D01*
X44529233Y-40874305D02*
X44600661Y-41017162D01*
X44600661Y-41017162D02*
X44600661Y-41231448D01*
X44600661Y-41231448D02*
X44529233Y-41374305D01*
X44529233Y-41374305D02*
X44457804Y-41445734D01*
X44457804Y-41445734D02*
X44314947Y-41517162D01*
X44314947Y-41517162D02*
X43743518Y-41517162D01*
X45243518Y-40731448D02*
X45243518Y-41945734D01*
X45243518Y-41945734D02*
X45314947Y-42088591D01*
X45314947Y-42088591D02*
X45386376Y-42160020D01*
X45386376Y-42160020D02*
X45529233Y-42231448D01*
X45529233Y-42231448D02*
X45814947Y-42231448D01*
X45814947Y-42231448D02*
X45957804Y-42160020D01*
X45957804Y-42160020D02*
X46029233Y-42088591D01*
X46029233Y-42088591D02*
X46100661Y-41945734D01*
X46100661Y-41945734D02*
X46100661Y-40731448D01*
X46600662Y-40731448D02*
X47457805Y-40731448D01*
X47029233Y-42231448D02*
X47029233Y-40731448D01*
X52410020Y-28084963D02*
X52410020Y-26942106D01*
D11*
X164286Y-39988152D02*
X878571Y-39988152D01*
X450000Y-39559580D02*
X164286Y-40845295D01*
X783333Y-40416723D02*
X69048Y-40416723D01*
X497619Y-40845295D02*
X783333Y-39559580D01*
X1640476Y-39988152D02*
X1640476Y-40654819D01*
X1402381Y-39607200D02*
X1164286Y-40321485D01*
X1164286Y-40321485D02*
X1783333Y-40321485D01*
D12*
X33115036Y-44135020D02*
X34257894Y-44135020D01*
X12715036Y-44035020D02*
X13857894Y-44035020D01*
X13286465Y-44606448D02*
X13286465Y-43463591D01*
D13*
X60000375Y-37840724D02*
X60143232Y-37840724D01*
X60143232Y-37840724D02*
X60214661Y-37876438D01*
X60214661Y-37876438D02*
X60286089Y-37947867D01*
X60286089Y-37947867D02*
X60321804Y-38090724D01*
X60321804Y-38090724D02*
X60321804Y-38340724D01*
X60321804Y-38340724D02*
X60286089Y-38483581D01*
X60286089Y-38483581D02*
X60214661Y-38555010D01*
X60214661Y-38555010D02*
X60143232Y-38590724D01*
X60143232Y-38590724D02*
X60000375Y-38590724D01*
X60000375Y-38590724D02*
X59928947Y-38555010D01*
X59928947Y-38555010D02*
X59857518Y-38483581D01*
X59857518Y-38483581D02*
X59821804Y-38340724D01*
X59821804Y-38340724D02*
X59821804Y-38090724D01*
X59821804Y-38090724D02*
X59857518Y-37947867D01*
X59857518Y-37947867D02*
X59928947Y-37876438D01*
X59928947Y-37876438D02*
X60000375Y-37840724D01*
X60643232Y-38590724D02*
X60643232Y-37840724D01*
X60643232Y-37840724D02*
X61071803Y-38590724D01*
X61071803Y-38590724D02*
X61071803Y-37840724D01*
X58807518Y-36247867D02*
X58557518Y-36247867D01*
X58557518Y-36640724D02*
X58557518Y-35890724D01*
X58557518Y-35890724D02*
X58914661Y-35890724D01*
X59200375Y-35890724D02*
X59200375Y-36497867D01*
X59200375Y-36497867D02*
X59236089Y-36569295D01*
X59236089Y-36569295D02*
X59271804Y-36605010D01*
X59271804Y-36605010D02*
X59343232Y-36640724D01*
X59343232Y-36640724D02*
X59486089Y-36640724D01*
X59486089Y-36640724D02*
X59557518Y-36605010D01*
X59557518Y-36605010D02*
X59593232Y-36569295D01*
X59593232Y-36569295D02*
X59628946Y-36497867D01*
X59628946Y-36497867D02*
X59628946Y-35890724D01*
X59950375Y-36605010D02*
X60057518Y-36640724D01*
X60057518Y-36640724D02*
X60236089Y-36640724D01*
X60236089Y-36640724D02*
X60307518Y-36605010D01*
X60307518Y-36605010D02*
X60343232Y-36569295D01*
X60343232Y-36569295D02*
X60378946Y-36497867D01*
X60378946Y-36497867D02*
X60378946Y-36426438D01*
X60378946Y-36426438D02*
X60343232Y-36355010D01*
X60343232Y-36355010D02*
X60307518Y-36319295D01*
X60307518Y-36319295D02*
X60236089Y-36283581D01*
X60236089Y-36283581D02*
X60093232Y-36247867D01*
X60093232Y-36247867D02*
X60021803Y-36212152D01*
X60021803Y-36212152D02*
X59986089Y-36176438D01*
X59986089Y-36176438D02*
X59950375Y-36105010D01*
X59950375Y-36105010D02*
X59950375Y-36033581D01*
X59950375Y-36033581D02*
X59986089Y-35962152D01*
X59986089Y-35962152D02*
X60021803Y-35926438D01*
X60021803Y-35926438D02*
X60093232Y-35890724D01*
X60093232Y-35890724D02*
X60271803Y-35890724D01*
X60271803Y-35890724D02*
X60378946Y-35926438D01*
X60700375Y-36247867D02*
X60950375Y-36247867D01*
X61057518Y-36640724D02*
X60700375Y-36640724D01*
X60700375Y-36640724D02*
X60700375Y-35890724D01*
X60700375Y-35890724D02*
X61057518Y-35890724D01*
D12*
X41215036Y-44110020D02*
X42357894Y-44110020D01*
X41786465Y-44681448D02*
X41786465Y-43538591D01*
D11*
X11446805Y-29527593D02*
X11511853Y-29545022D01*
X11511853Y-29545022D02*
X11600712Y-29603692D01*
X11600712Y-29603692D02*
X11719759Y-29809888D01*
X11719759Y-29809888D02*
X11726139Y-29916176D01*
X11726139Y-29916176D02*
X11708709Y-29981225D01*
X11708709Y-29981225D02*
X11650040Y-30070083D01*
X11650040Y-30070083D02*
X11567562Y-30117702D01*
X11567562Y-30117702D02*
X11420034Y-30147892D01*
X11420034Y-30147892D02*
X10639448Y-29938734D01*
X10639448Y-29938734D02*
X10948972Y-30474845D01*
X10420026Y-29636742D02*
X9925155Y-29351027D01*
X10172590Y-29493885D02*
X10672590Y-28627859D01*
X10672590Y-28627859D02*
X10518683Y-28703958D01*
X10518683Y-28703958D02*
X10388586Y-28738818D01*
X10388586Y-28738818D02*
X10282297Y-28732438D01*
X9352381Y-28154819D02*
X9447619Y-28154819D01*
X9447619Y-28154819D02*
X9542857Y-28202438D01*
X9542857Y-28202438D02*
X9590476Y-28250057D01*
X9590476Y-28250057D02*
X9638095Y-28345295D01*
X9638095Y-28345295D02*
X9685714Y-28535771D01*
X9685714Y-28535771D02*
X9685714Y-28773866D01*
X9685714Y-28773866D02*
X9638095Y-28964342D01*
X9638095Y-28964342D02*
X9590476Y-29059580D01*
X9590476Y-29059580D02*
X9542857Y-29107200D01*
X9542857Y-29107200D02*
X9447619Y-29154819D01*
X9447619Y-29154819D02*
X9352381Y-29154819D01*
X9352381Y-29154819D02*
X9257143Y-29107200D01*
X9257143Y-29107200D02*
X9209524Y-29059580D01*
X9209524Y-29059580D02*
X9161905Y-28964342D01*
X9161905Y-28964342D02*
X9114286Y-28773866D01*
X9114286Y-28773866D02*
X9114286Y-28535771D01*
X9114286Y-28535771D02*
X9161905Y-28345295D01*
X9161905Y-28345295D02*
X9209524Y-28250057D01*
X9209524Y-28250057D02*
X9257143Y-28202438D01*
X9257143Y-28202438D02*
X9352381Y-28154819D01*
X6820000Y-5270000D02*
X6820000Y-6820000D01*
X6820000Y-6820000D02*
X8370000Y-6820000D01*
X8250000Y-52700000D02*
X8850000Y-52700000D01*
X8550000Y-53000000D02*
X8550000Y-52400000D01*
X45935000Y-40400000D02*
X45935000Y-39800000D01*
X46235000Y-40100000D02*
X45635000Y-40100000D01*
X63800000Y-34700000D02*
X63800000Y-24700000D01*
X55300000Y-34700000D02*
X64800000Y-34700000D01*
X64800000Y-24700000D01*
X55300000Y-24700000D01*
X55300000Y-34700000D01*
X63800000Y-27950000D02*
X64800000Y-27950000D01*
X64800000Y-26450000D01*
X63800000Y-26450000D01*
X63800000Y-27950000D01*
G36*
X63800000Y-27950000D02*
G01*
X64800000Y-27950000D01*
X64800000Y-26450000D01*
X63800000Y-26450000D01*
X63800000Y-27950000D01*
G37*
X63800000Y-32950000D02*
X64800000Y-32950000D01*
X64800000Y-31450000D01*
X63800000Y-31450000D01*
X63800000Y-32950000D01*
G36*
X63800000Y-32950000D02*
G01*
X64800000Y-32950000D01*
X64800000Y-31450000D01*
X63800000Y-31450000D01*
X63800000Y-32950000D01*
G37*
X63762500Y-49700000D02*
X63762500Y-39700000D01*
X55262500Y-49700000D02*
X64762500Y-49700000D01*
X64762500Y-39700000D01*
X55262500Y-39700000D01*
X55262500Y-49700000D01*
X63762500Y-42950000D02*
X64762500Y-42950000D01*
X64762500Y-41450000D01*
X63762500Y-41450000D01*
X63762500Y-42950000D01*
G36*
X63762500Y-42950000D02*
G01*
X64762500Y-42950000D01*
X64762500Y-41450000D01*
X63762500Y-41450000D01*
X63762500Y-42950000D01*
G37*
X63762500Y-47950000D02*
X64762500Y-47950000D01*
X64762500Y-46450000D01*
X63762500Y-46450000D01*
X63762500Y-47950000D01*
G36*
X63762500Y-47950000D02*
G01*
X64762500Y-47950000D01*
X64762500Y-46450000D01*
X63762500Y-46450000D01*
X63762500Y-47950000D01*
G37*
X39200000Y-55400000D02*
X49200000Y-55400000D01*
X39200000Y-46900000D02*
X49200000Y-46900000D01*
X49200000Y-56400000D01*
X39200000Y-56400000D01*
X39200000Y-46900000D01*
X40950000Y-55400000D02*
X42450000Y-55400000D01*
X42450000Y-56400000D01*
X40950000Y-56400000D01*
X40950000Y-55400000D01*
G36*
X40950000Y-55400000D02*
G01*
X42450000Y-55400000D01*
X42450000Y-56400000D01*
X40950000Y-56400000D01*
X40950000Y-55400000D01*
G37*
X45950000Y-55400000D02*
X47450000Y-55400000D01*
X47450000Y-56400000D01*
X45950000Y-56400000D01*
X45950000Y-55400000D01*
G36*
X45950000Y-55400000D02*
G01*
X47450000Y-55400000D01*
X47450000Y-56400000D01*
X45950000Y-56400000D01*
X45950000Y-55400000D01*
G37*
X10800000Y-55400000D02*
X20800000Y-55400000D01*
X10800000Y-46900000D02*
X20800000Y-46900000D01*
X20800000Y-56400000D01*
X10800000Y-56400000D01*
X10800000Y-46900000D01*
X12550000Y-55400000D02*
X14050000Y-55400000D01*
X14050000Y-56400000D01*
X12550000Y-56400000D01*
X12550000Y-55400000D01*
G36*
X12550000Y-55400000D02*
G01*
X14050000Y-55400000D01*
X14050000Y-56400000D01*
X12550000Y-56400000D01*
X12550000Y-55400000D01*
G37*
X17550000Y-55400000D02*
X19050000Y-55400000D01*
X19050000Y-56400000D01*
X17550000Y-56400000D01*
X17550000Y-55400000D01*
G36*
X17550000Y-55400000D02*
G01*
X19050000Y-55400000D01*
X19050000Y-56400000D01*
X17550000Y-56400000D01*
X17550000Y-55400000D01*
G37*
X45935000Y-38400000D02*
X45935000Y-37800000D01*
X46235000Y-38100000D02*
X45635000Y-38100000D01*
X61500000Y-37400000D02*
X61500000Y-36800000D01*
X61800000Y-37100000D02*
X61200000Y-37100000D01*
X63800000Y-19750000D02*
X63800000Y-9750000D01*
X55300000Y-19750000D02*
X64800000Y-19750000D01*
X64800000Y-9750000D01*
X55300000Y-9750000D01*
X55300000Y-19750000D01*
X63800000Y-13000000D02*
X64800000Y-13000000D01*
X64800000Y-11500000D01*
X63800000Y-11500000D01*
X63800000Y-13000000D01*
G36*
X63800000Y-13000000D02*
G01*
X64800000Y-13000000D01*
X64800000Y-11500000D01*
X63800000Y-11500000D01*
X63800000Y-13000000D01*
G37*
X63800000Y-18000000D02*
X64800000Y-18000000D01*
X64800000Y-16500000D01*
X63800000Y-16500000D01*
X63800000Y-18000000D01*
G36*
X63800000Y-18000000D02*
G01*
X64800000Y-18000000D01*
X64800000Y-16500000D01*
X63800000Y-16500000D01*
X63800000Y-18000000D01*
G37*
X6350000Y-52700000D02*
X6950000Y-52700000D01*
X6650000Y-53000000D02*
X6650000Y-52400000D01*
X23350000Y-52700000D02*
X23950000Y-52700000D01*
X23650000Y-53000000D02*
X23650000Y-52400000D01*
X21450000Y-52700000D02*
X22050000Y-52700000D01*
X21750000Y-53000000D02*
X21750000Y-52400000D01*
D13*
X19288748Y-7965000D02*
X19811252Y-7965000D01*
X19288748Y-9435000D02*
X19811252Y-9435000D01*
D11*
X61500000Y-24350000D02*
X61500000Y-23750000D01*
X61800000Y-24050000D02*
X61200000Y-24050000D01*
D13*
X16012742Y-8377500D02*
X16487258Y-8377500D01*
X16012742Y-9422500D02*
X16487258Y-9422500D01*
X33762742Y-7177500D02*
X34237258Y-7177500D01*
X33762742Y-8222500D02*
X34237258Y-8222500D01*
X11740000Y-11739416D02*
X11740000Y-11500000D01*
X11740000Y-15160584D02*
X11740000Y-16900000D01*
X16860000Y-11739416D02*
X16860000Y-11500000D01*
X16860000Y-15160584D02*
X16860000Y-15400000D01*
D11*
X61500000Y-22350000D02*
X61500000Y-21750000D01*
X61800000Y-22050000D02*
X61200000Y-22050000D01*
X53600000Y-51300000D02*
X54200000Y-51300000D01*
X53900000Y-51600000D02*
X53900000Y-51000000D01*
X12700000Y-26200000D02*
X12700000Y-27500000D01*
D13*
X33762742Y-9477500D02*
X34237258Y-9477500D01*
X33762742Y-10522500D02*
X34237258Y-10522500D01*
X25887936Y-19179378D02*
X25612936Y-19179378D01*
D11*
X26125000Y-55400000D02*
X36125000Y-55400000D01*
X26125000Y-46900000D02*
X36125000Y-46900000D01*
X36125000Y-56400000D01*
X26125000Y-56400000D01*
X26125000Y-46900000D01*
X27875000Y-55400000D02*
X29375000Y-55400000D01*
X29375000Y-56400000D01*
X27875000Y-56400000D01*
X27875000Y-55400000D01*
G36*
X27875000Y-55400000D02*
G01*
X29375000Y-55400000D01*
X29375000Y-56400000D01*
X27875000Y-56400000D01*
X27875000Y-55400000D01*
G37*
X32875000Y-55400000D02*
X34375000Y-55400000D01*
X34375000Y-56400000D01*
X32875000Y-56400000D01*
X32875000Y-55400000D01*
G36*
X32875000Y-55400000D02*
G01*
X34375000Y-55400000D01*
X34375000Y-56400000D01*
X32875000Y-56400000D01*
X32875000Y-55400000D01*
G37*
D13*
X35477500Y-13137258D02*
X35477500Y-12662742D01*
X36522500Y-13137258D02*
X36522500Y-12662742D01*
D11*
X61500000Y-39400000D02*
X61500000Y-38800000D01*
X61800000Y-39100000D02*
X61200000Y-39100000D01*
D13*
X38750000Y-24450000D02*
X40600000Y-24450000D01*
X38750000Y-25650000D02*
X40600000Y-25650000D01*
X40100000Y-25650000D02*
X40100000Y-24450000D01*
X40600000Y-25650000D02*
X40600000Y-24450000D01*
%LPC*%
D14*
X61500000Y-4000000D03*
X3500000Y-4000000D03*
D15*
X3500000Y-53000000D03*
X61500000Y-53000000D03*
D16*
X8370000Y-5270000D03*
D17*
X8370000Y-2730000D03*
X10910000Y-5270000D03*
X10910000Y-2730000D03*
X13450000Y-5270000D03*
X13450000Y-2730000D03*
X15990000Y-5270000D03*
X15990000Y-2730000D03*
X18530000Y-5270000D03*
X18530000Y-2730000D03*
X21070000Y-5270000D03*
X21070000Y-2730000D03*
X23610000Y-5270000D03*
X23610000Y-2730000D03*
X26150000Y-5270000D03*
X26150000Y-2730000D03*
X28690000Y-5270000D03*
X28690000Y-2730000D03*
X31230000Y-5270000D03*
X31230000Y-2730000D03*
X33770000Y-5270000D03*
X33770000Y-2730000D03*
X36310000Y-5270000D03*
X36310000Y-2730000D03*
X38850000Y-5270000D03*
X38850000Y-2730000D03*
X41390000Y-5270000D03*
X41390000Y-2730000D03*
X43930000Y-5270000D03*
X43930000Y-2730000D03*
X46470000Y-5270000D03*
X46470000Y-2730000D03*
X49010000Y-5270000D03*
X49010000Y-2730000D03*
X51550000Y-5270000D03*
X51550000Y-2730000D03*
X54090000Y-5270000D03*
X54090000Y-2730000D03*
X56630000Y-5270000D03*
X56630000Y-2730000D03*
D18*
X2920000Y-40170000D03*
X2920000Y-42710000D03*
X2920000Y-45250000D03*
X2920000Y-47790000D03*
D19*
X9350000Y-55337500D03*
X9350000Y-53462500D03*
D20*
X24600000Y-37925000D03*
X24600000Y-40875000D03*
D21*
X48572500Y-39300000D03*
X46697500Y-39300000D03*
D22*
X18200000Y-17475000D03*
X18200000Y-14525000D03*
D23*
X60050000Y-32200000D03*
X60050000Y-27200000D03*
X60012500Y-47200000D03*
X60012500Y-42200000D03*
D24*
X6000000Y-8750000D03*
X6000000Y-17050000D03*
D23*
X41700000Y-51650000D03*
X46700000Y-51650000D03*
X13300000Y-51650000D03*
X18300000Y-51650000D03*
D25*
X30250000Y-7700000D03*
D26*
X31550000Y-7700000D03*
D21*
X48572500Y-37300000D03*
X46697500Y-37300000D03*
D27*
X17800000Y-10675000D03*
X17800000Y-12225000D03*
D28*
X46225000Y-21300000D03*
X49175000Y-21300000D03*
D21*
X64137500Y-36300000D03*
X62262500Y-36300000D03*
D29*
X10000000Y-20200000D03*
D30*
X7460000Y-20200000D03*
D23*
X60050000Y-17250000D03*
X60050000Y-12250000D03*
D19*
X7450000Y-55337500D03*
X7450000Y-53462500D03*
X24450000Y-55337500D03*
X24450000Y-53462500D03*
D29*
X57250000Y-54275000D03*
D30*
X57250000Y-51735000D03*
D19*
X22550000Y-55337500D03*
X22550000Y-53462500D03*
D31*
X18600000Y-8700000D03*
X20500000Y-8700000D03*
D32*
X21675000Y-18450000D03*
X20125000Y-18450000D03*
D21*
X64137500Y-23250000D03*
X62262500Y-23250000D03*
D33*
X15425000Y-8900000D03*
X17075000Y-8900000D03*
D28*
X12425000Y-22300000D03*
X15375000Y-22300000D03*
D33*
X33175000Y-7700000D03*
X34825000Y-7700000D03*
D34*
X14300000Y-13450000D03*
D35*
X12395000Y-16012500D03*
X13665000Y-16012500D03*
X14935000Y-16012500D03*
X16205000Y-16012500D03*
X16205000Y-10887500D03*
X14935000Y-10887500D03*
X13665000Y-10887500D03*
X12395000Y-10887500D03*
D25*
X30250000Y-10000000D03*
D26*
X31550000Y-10000000D03*
D28*
X46225000Y-23700000D03*
X49175000Y-23700000D03*
D21*
X64137500Y-21250000D03*
X62262500Y-21250000D03*
D19*
X54700000Y-53937500D03*
X54700000Y-52062500D03*
D36*
X9400000Y-26425000D03*
X6860000Y-26425000D03*
X6860000Y-35175000D03*
X9400000Y-35175000D03*
X11940000Y-26425000D03*
X11940000Y-35175000D03*
D32*
X13775000Y-17900000D03*
X12225000Y-17900000D03*
D20*
X39300000Y-37925000D03*
X39300000Y-40875000D03*
D33*
X33175000Y-10000000D03*
X34825000Y-10000000D03*
D20*
X22200000Y-37925000D03*
X22200000Y-40875000D03*
D37*
X15375000Y-19800000D03*
X12425000Y-19800000D03*
D38*
X25750000Y-18187500D03*
X26400000Y-18187500D03*
X27050000Y-18187500D03*
X27700000Y-18187500D03*
X28350000Y-18187500D03*
X29000000Y-18187500D03*
X29650000Y-18187500D03*
X30300000Y-18187500D03*
X30950000Y-18187500D03*
X31600000Y-18187500D03*
X32250000Y-18187500D03*
X32900000Y-18187500D03*
X33550000Y-18187500D03*
X34200000Y-18187500D03*
X34200000Y-12462500D03*
X33550000Y-12462500D03*
X32900000Y-12462500D03*
X32250000Y-12462500D03*
X31600000Y-12462500D03*
X30950000Y-12462500D03*
X30300000Y-12462500D03*
X29650000Y-12462500D03*
X29000000Y-12462500D03*
X28350000Y-12462500D03*
X27700000Y-12462500D03*
X27050000Y-12462500D03*
X26400000Y-12462500D03*
X25750000Y-12462500D03*
D23*
X28625000Y-51650000D03*
X33625000Y-51650000D03*
D39*
X36000000Y-13725000D03*
X36000000Y-12075000D03*
D21*
X64137500Y-38300000D03*
X62262500Y-38300000D03*
D40*
X40700000Y-34325000D03*
X40700000Y-32775000D03*
D41*
X40150000Y-25050000D03*
X38750000Y-25050000D03*
D18*
X8020000Y-47790000D03*
X5480000Y-47790000D03*
X8020000Y-45250000D03*
X5480000Y-45250000D03*
X8020000Y-42710000D03*
X5480000Y-42710000D03*
X8020000Y-40170000D03*
X5480000Y-40170000D03*
D42*
X20250000Y-15300000D03*
X20857769Y-11853173D03*
%LPD*%
M02*
