G04 #@! TF.GenerationSoftware,KiCad,Pcbnew,8.0.2+dfsg-1*
G04 #@! TF.CreationDate,2024-06-08T19:17:01+01:00*
G04 #@! TF.ProjectId,owl-driver-board,6f776c2d-6472-4697-9665-722d626f6172,rev?*
G04 #@! TF.SameCoordinates,Original*
G04 #@! TF.FileFunction,Paste,Bot*
G04 #@! TF.FilePolarity,Positive*
%FSLAX46Y46*%
G04 Gerber Fmt 4.6, Leading zero omitted, Abs format (unit mm)*
G04 Created by KiCad (PCBNEW 8.0.2+dfsg-1) date 2024-06-08 19:17:01*
%MOMM*%
%LPD*%
G01*
G04 APERTURE LIST*
G04 Aperture macros list*
%AMRoundRect*
0 Rectangle with rounded corners*
0 $1 Rounding radius*
0 $2 $3 $4 $5 $6 $7 $8 $9 X,Y pos of 4 corners*
0 Add a 4 corners polygon primitive as box body*
4,1,4,$2,$3,$4,$5,$6,$7,$8,$9,$2,$3,0*
0 Add four circle primitives for the rounded corners*
1,1,$1+$1,$2,$3*
1,1,$1+$1,$4,$5*
1,1,$1+$1,$6,$7*
1,1,$1+$1,$8,$9*
0 Add four rect primitives between the rounded corners*
20,1,$1+$1,$2,$3,$4,$5,0*
20,1,$1+$1,$4,$5,$6,$7,0*
20,1,$1+$1,$6,$7,$8,$9,0*
20,1,$1+$1,$8,$9,$2,$3,0*%
%AMFreePoly0*
4,1,5,0.202500,-0.377500,-0.202500,-0.377500,-0.202500,0.377500,0.202500,0.377500,0.202500,-0.377500,0.202500,-0.377500,$1*%
%AMFreePoly1*
4,1,53,0.118849,1.240000,0.127973,1.217973,0.150000,1.208849,0.168849,1.208849,0.168849,-1.228849,0.150000,-1.228849,0.127973,-1.237973,0.118849,-1.260000,0.118849,-1.828849,-0.118849,-1.828849,-0.118849,-1.260000,-0.127973,-1.237973,-0.150000,-1.228849,-1.318849,-1.228849,-1.318849,-1.210000,-1.327973,-1.187973,-1.350000,-1.178849,-2.018849,-1.178849,-2.018849,-0.791151,-1.350000,-0.791151,
-1.327973,-0.782027,-1.318849,-0.760000,-1.318849,-0.560000,-1.327973,-0.537973,-1.350000,-0.528849,-2.018849,-0.528849,-2.018849,-0.141151,-1.350000,-0.141151,-1.327973,-0.132027,-1.318849,-0.110000,-1.318849,0.090000,-1.327973,0.112027,-1.350000,0.121151,-2.018849,0.121151,-2.018849,0.508849,-1.350000,0.508849,-1.327973,0.517973,-1.318849,0.540000,-1.318849,0.740000,-1.327973,0.762027,
-1.350000,0.771151,-2.018849,0.771151,-2.018849,1.158849,-1.350000,1.158849,-1.327973,1.167973,-1.318849,1.190000,-1.318849,1.208849,-0.150000,1.208849,-0.127973,1.217973,-0.118849,1.240000,-0.118849,1.808849,0.118849,1.808849,0.118849,1.240000,0.118849,1.240000,$1*%
%AMFreePoly2*
4,1,27,0.269134,0.146194,0.285355,0.135355,0.296194,0.119134,0.300000,0.100000,0.300000,-0.450000,0.296194,-0.469134,0.285355,-0.485355,0.269134,-0.496194,0.250000,-0.500000,0.100000,-0.500000,0.080866,-0.496194,0.064645,-0.485355,0.053806,-0.469134,0.050000,-0.450000,0.050000,-0.150000,-0.250000,-0.150000,-0.269134,-0.146194,-0.285355,-0.135355,-0.296194,-0.119134,-0.300000,-0.100000,
-0.300000,0.100000,-0.296194,0.119134,-0.285355,0.135355,-0.269134,0.146194,-0.250000,0.150000,0.250000,0.150000,0.269134,0.146194,0.269134,0.146194,$1*%
%AMFreePoly3*
4,1,28,0.269134,0.496194,0.285355,0.485355,0.296194,0.469134,0.300000,0.450000,0.300000,-0.100000,0.296194,-0.119134,0.285355,-0.135355,0.269134,-0.146194,0.250000,-0.150000,0.000000,-0.150000,-0.250000,-0.150000,-0.269134,-0.146194,-0.285355,-0.135355,-0.296194,-0.119134,-0.300000,-0.100000,-0.300000,0.100000,-0.296194,0.119134,-0.285355,0.135355,-0.269134,0.146194,-0.250000,0.150000,
0.050000,0.150000,0.050000,0.450000,0.053806,0.469134,0.064645,0.485355,0.080866,0.496194,0.100000,0.500000,0.250000,0.500000,0.269134,0.496194,0.269134,0.496194,$1*%
%AMFreePoly4*
4,1,28,-0.080866,0.496194,-0.064645,0.485355,-0.053806,0.469134,-0.050000,0.450000,-0.050000,0.150000,0.250000,0.150000,0.269134,0.146194,0.285355,0.135355,0.296194,0.119134,0.300000,0.100000,0.300000,-0.100000,0.296194,-0.119134,0.285355,-0.135355,0.269134,-0.146194,0.250000,-0.150000,0.000000,-0.150000,-0.250000,-0.150000,-0.269134,-0.146194,-0.285355,-0.135355,-0.296194,-0.119134,
-0.300000,-0.100000,-0.300000,0.450000,-0.296194,0.469134,-0.285355,0.485355,-0.269134,0.496194,-0.250000,0.500000,-0.100000,0.500000,-0.080866,0.496194,-0.080866,0.496194,$1*%
%AMFreePoly5*
4,1,27,0.269134,0.146194,0.285355,0.135355,0.296194,0.119134,0.300000,0.100000,0.300000,-0.100000,0.296194,-0.119134,0.285355,-0.135355,0.269134,-0.146194,0.250000,-0.150000,-0.050000,-0.150000,-0.050000,-0.450000,-0.053806,-0.469134,-0.064645,-0.485355,-0.080866,-0.496194,-0.100000,-0.500000,-0.250000,-0.500000,-0.269134,-0.496194,-0.285355,-0.485355,-0.296194,-0.469134,-0.300000,-0.450000,
-0.300000,0.100000,-0.296194,0.119134,-0.285355,0.135355,-0.269134,0.146194,-0.250000,0.150000,0.250000,0.150000,0.269134,0.146194,0.269134,0.146194,$1*%
G04 Aperture macros list end*
%ADD10R,0.600000X0.700000*%
%ADD11R,1.100000X1.100000*%
%ADD12RoundRect,0.150000X0.587500X0.150000X-0.587500X0.150000X-0.587500X-0.150000X0.587500X-0.150000X0*%
%ADD13RoundRect,0.250000X-0.712500X-2.475000X0.712500X-2.475000X0.712500X2.475000X-0.712500X2.475000X0*%
%ADD14RoundRect,0.200000X-0.200000X-0.275000X0.200000X-0.275000X0.200000X0.275000X-0.200000X0.275000X0*%
%ADD15RoundRect,0.200000X0.200000X0.275000X-0.200000X0.275000X-0.200000X-0.275000X0.200000X-0.275000X0*%
%ADD16RoundRect,0.150000X0.150000X-0.587500X0.150000X0.587500X-0.150000X0.587500X-0.150000X-0.587500X0*%
%ADD17RoundRect,0.250000X0.325000X0.650000X-0.325000X0.650000X-0.325000X-0.650000X0.325000X-0.650000X0*%
%ADD18FreePoly0,180.000000*%
%ADD19FreePoly1,90.000000*%
%ADD20RoundRect,0.200000X-0.275000X0.200000X-0.275000X-0.200000X0.275000X-0.200000X0.275000X0.200000X0*%
%ADD21RoundRect,0.225000X0.250000X-0.225000X0.250000X0.225000X-0.250000X0.225000X-0.250000X-0.225000X0*%
%ADD22RoundRect,0.200000X0.275000X-0.200000X0.275000X0.200000X-0.275000X0.200000X-0.275000X-0.200000X0*%
%ADD23RoundRect,0.225000X-0.250000X0.225000X-0.250000X-0.225000X0.250000X-0.225000X0.250000X0.225000X0*%
%ADD24R,0.700000X0.600000*%
%ADD25RoundRect,0.100000X-0.225000X-0.100000X0.225000X-0.100000X0.225000X0.100000X-0.225000X0.100000X0*%
%ADD26RoundRect,0.150000X-0.150000X0.587500X-0.150000X-0.587500X0.150000X-0.587500X0.150000X0.587500X0*%
%ADD27R,2.300000X2.500000*%
%ADD28RoundRect,0.100000X0.225000X0.100000X-0.225000X0.100000X-0.225000X-0.100000X0.225000X-0.100000X0*%
%ADD29FreePoly0,270.000000*%
%ADD30FreePoly1,180.000000*%
%ADD31RoundRect,0.250000X-0.325000X-0.650000X0.325000X-0.650000X0.325000X0.650000X-0.325000X0.650000X0*%
%ADD32RoundRect,0.250000X-2.475000X0.712500X-2.475000X-0.712500X2.475000X-0.712500X2.475000X0.712500X0*%
%ADD33RoundRect,0.250000X0.712500X2.475000X-0.712500X2.475000X-0.712500X-2.475000X0.712500X-2.475000X0*%
%ADD34RoundRect,0.100000X-0.100000X0.225000X-0.100000X-0.225000X0.100000X-0.225000X0.100000X0.225000X0*%
%ADD35RoundRect,0.150000X-0.587500X-0.150000X0.587500X-0.150000X0.587500X0.150000X-0.587500X0.150000X0*%
%ADD36RoundRect,0.250000X0.650000X-0.325000X0.650000X0.325000X-0.650000X0.325000X-0.650000X-0.325000X0*%
%ADD37R,4.860000X3.360000*%
%ADD38R,1.400000X1.390000*%
%ADD39RoundRect,0.250000X-0.650000X0.325000X-0.650000X-0.325000X0.650000X-0.325000X0.650000X0.325000X0*%
%ADD40RoundRect,0.225000X0.225000X0.250000X-0.225000X0.250000X-0.225000X-0.250000X0.225000X-0.250000X0*%
%ADD41RoundRect,0.225000X-0.225000X-0.250000X0.225000X-0.250000X0.225000X0.250000X-0.225000X0.250000X0*%
%ADD42RoundRect,0.250000X-0.925000X0.412500X-0.925000X-0.412500X0.925000X-0.412500X0.925000X0.412500X0*%
%ADD43FreePoly2,90.000000*%
%ADD44RoundRect,0.050000X0.075000X-0.250000X0.075000X0.250000X-0.075000X0.250000X-0.075000X-0.250000X0*%
%ADD45FreePoly3,90.000000*%
%ADD46RoundRect,0.050000X1.150000X-0.100000X1.150000X0.100000X-1.150000X0.100000X-1.150000X-0.100000X0*%
%ADD47FreePoly4,90.000000*%
%ADD48FreePoly5,90.000000*%
G04 APERTURE END LIST*
D10*
X56350000Y-39600000D03*
X54950000Y-39600000D03*
D11*
X51400000Y-7800000D03*
X54200000Y-7800000D03*
X22600000Y-38400000D03*
X22600000Y-41200000D03*
D12*
X26437500Y-7850000D03*
X26437500Y-9750000D03*
X24562500Y-8800000D03*
D13*
X40812500Y-46200000D03*
X47587500Y-46200000D03*
D14*
X31575000Y-26900000D03*
X33225000Y-26900000D03*
D15*
X43775000Y-42300000D03*
X42125000Y-42300000D03*
D11*
X46900000Y-7800000D03*
X49700000Y-7800000D03*
D16*
X32750000Y-14837500D03*
X30850000Y-14837500D03*
X31800000Y-12962500D03*
D17*
X37075000Y-8000000D03*
X34125000Y-8000000D03*
D18*
X35300000Y-34850000D03*
D19*
X34315000Y-36500000D03*
D18*
X34650000Y-34850000D03*
X34000000Y-34850000D03*
X33350000Y-34850000D03*
D11*
X22650000Y-42900000D03*
X22650000Y-45700000D03*
D20*
X27300000Y-19175000D03*
X27300000Y-20825000D03*
D14*
X21575000Y-48700000D03*
X23225000Y-48700000D03*
D21*
X22200000Y-54775000D03*
X22200000Y-53225000D03*
D15*
X59375000Y-35100000D03*
X57725000Y-35100000D03*
D22*
X25750000Y-51825000D03*
X25750000Y-50175000D03*
D10*
X41400000Y-18550000D03*
X42800000Y-18550000D03*
X30000000Y-36700000D03*
X31400000Y-36700000D03*
D15*
X10250000Y-30375000D03*
X8600000Y-30375000D03*
D23*
X11400000Y-22025000D03*
X11400000Y-23575000D03*
D15*
X57775000Y-45800000D03*
X56125000Y-45800000D03*
D24*
X44900000Y-29800000D03*
X44900000Y-28400000D03*
D11*
X37350000Y-38600000D03*
X37350000Y-41400000D03*
D15*
X59375000Y-19700000D03*
X57725000Y-19700000D03*
D25*
X39900000Y-34600000D03*
X39900000Y-33950000D03*
X39900000Y-33300000D03*
X41800000Y-33300000D03*
X41800000Y-34600000D03*
D22*
X41700000Y-13175000D03*
X41700000Y-11525000D03*
D15*
X56475000Y-44250000D03*
X54825000Y-44250000D03*
X47525000Y-34400000D03*
X45875000Y-34400000D03*
D21*
X40600000Y-21925000D03*
X40600000Y-20375000D03*
D15*
X13875000Y-19400000D03*
X12225000Y-19400000D03*
D14*
X40075000Y-31750000D03*
X41725000Y-31750000D03*
D10*
X15500000Y-36700000D03*
X16900000Y-36700000D03*
D11*
X25000000Y-38400000D03*
X25000000Y-41200000D03*
D18*
X20625000Y-34800000D03*
D19*
X19640000Y-36450000D03*
D18*
X19975000Y-34800000D03*
X19325000Y-34800000D03*
X18675000Y-34800000D03*
D15*
X11375000Y-47300000D03*
X9725000Y-47300000D03*
X10275000Y-35125000D03*
X8625000Y-35125000D03*
D24*
X44900000Y-14700000D03*
X44900000Y-13300000D03*
D26*
X11750000Y-36162500D03*
X13650000Y-36162500D03*
X12700000Y-38037500D03*
D11*
X51350000Y-22750000D03*
X54150000Y-22750000D03*
D14*
X31575000Y-25300000D03*
X33225000Y-25300000D03*
D11*
X46800000Y-22750000D03*
X49600000Y-22750000D03*
D14*
X31575000Y-28500000D03*
X33225000Y-28500000D03*
D15*
X56125000Y-50300000D03*
X54475000Y-50300000D03*
D10*
X10050000Y-44300000D03*
X11450000Y-44300000D03*
D11*
X38850000Y-15100000D03*
X41650000Y-15100000D03*
D22*
X22650000Y-51825000D03*
X22650000Y-50175000D03*
D27*
X26600000Y-31650000D03*
X26600000Y-27350000D03*
D11*
X58000000Y-37650000D03*
X55200000Y-37650000D03*
D20*
X8850000Y-16475000D03*
X8850000Y-18125000D03*
D28*
X56650000Y-47400000D03*
X56650000Y-48050000D03*
X56650000Y-48700000D03*
X54750000Y-48700000D03*
X54750000Y-47400000D03*
D16*
X26650000Y-48137500D03*
X24750000Y-48137500D03*
X25700000Y-46262500D03*
D15*
X41725000Y-30200000D03*
X40075000Y-30200000D03*
D14*
X60775000Y-19700000D03*
X62425000Y-19700000D03*
D22*
X7450000Y-51925000D03*
X7450000Y-50275000D03*
D29*
X43250000Y-24775000D03*
D30*
X44900000Y-25760000D03*
D29*
X43250000Y-25425000D03*
X43250000Y-26075000D03*
X43250000Y-26725000D03*
D31*
X48225000Y-20000000D03*
X51175000Y-20000000D03*
D15*
X11375000Y-45800000D03*
X9725000Y-45800000D03*
D21*
X6950000Y-38300000D03*
X6950000Y-36750000D03*
D15*
X10250000Y-33550000D03*
X8600000Y-33550000D03*
D12*
X17675000Y-17850000D03*
X17675000Y-19750000D03*
X15800000Y-18800000D03*
D32*
X50400000Y-10412500D03*
X50400000Y-17187500D03*
D10*
X23300000Y-47250000D03*
X21900000Y-47250000D03*
D20*
X25200000Y-19187500D03*
X25200000Y-20837500D03*
X29200000Y-19187500D03*
X29200000Y-20837500D03*
D33*
X34637500Y-42200000D03*
X27862500Y-42200000D03*
D16*
X29250000Y-14837500D03*
X27350000Y-14837500D03*
X28300000Y-12962500D03*
D15*
X31425000Y-35100000D03*
X29775000Y-35100000D03*
X20625000Y-54100000D03*
X18975000Y-54100000D03*
D20*
X31200000Y-19187500D03*
X31200000Y-20837500D03*
X33200000Y-19175000D03*
X33200000Y-20825000D03*
D18*
X48600000Y-38792500D03*
D19*
X47615000Y-40442500D03*
D18*
X47950000Y-38792500D03*
X47300000Y-38792500D03*
X46650000Y-38792500D03*
D10*
X51350000Y-35900000D03*
X49950000Y-35900000D03*
D11*
X41300000Y-25800000D03*
X41300000Y-28600000D03*
D34*
X42100000Y-19950000D03*
X42750000Y-19950000D03*
X43400000Y-19950000D03*
X43400000Y-21850000D03*
X42100000Y-21850000D03*
D35*
X44362500Y-18450000D03*
X44362500Y-16550000D03*
X46237500Y-17500000D03*
D25*
X23750000Y-54600000D03*
X23750000Y-53950000D03*
X23750000Y-53300000D03*
X25650000Y-53300000D03*
X25650000Y-54600000D03*
D11*
X37350000Y-43200000D03*
X37350000Y-46000000D03*
D25*
X8350000Y-38000000D03*
X8350000Y-37350000D03*
X8350000Y-36700000D03*
X10250000Y-36700000D03*
X10250000Y-38000000D03*
D36*
X12800000Y-16175000D03*
X12800000Y-13225000D03*
D35*
X43512500Y-33600000D03*
X43512500Y-31700000D03*
X45387500Y-32650000D03*
D15*
X42675000Y-17050000D03*
X41025000Y-17050000D03*
D23*
X25800000Y-14825000D03*
X25800000Y-16375000D03*
D22*
X24200000Y-51825000D03*
X24200000Y-50175000D03*
D20*
X43300000Y-13275000D03*
X43300000Y-14925000D03*
D15*
X13425000Y-34300000D03*
X11775000Y-34300000D03*
D14*
X29775000Y-38300000D03*
X31425000Y-38300000D03*
X31575000Y-23700000D03*
X33225000Y-23700000D03*
X59125000Y-44550000D03*
X60775000Y-44550000D03*
D22*
X10100000Y-53725000D03*
X10100000Y-52075000D03*
X46500000Y-30025000D03*
X46500000Y-28375000D03*
D15*
X10250000Y-31975000D03*
X8600000Y-31975000D03*
D22*
X46500000Y-14925000D03*
X46500000Y-13275000D03*
D20*
X22100000Y-19375000D03*
X22100000Y-21025000D03*
D26*
X30450000Y-8862500D03*
X32350000Y-8862500D03*
X31400000Y-10737500D03*
D15*
X62425000Y-35100000D03*
X60775000Y-35100000D03*
D37*
X10580000Y-9500000D03*
D38*
X14562000Y-8580000D03*
X14562000Y-10420000D03*
D17*
X37075000Y-10500000D03*
X34125000Y-10500000D03*
D15*
X46525000Y-20200000D03*
X44875000Y-20200000D03*
D33*
X20087500Y-42200000D03*
X13312500Y-42200000D03*
D14*
X15275000Y-38300000D03*
X16925000Y-38300000D03*
D39*
X9400000Y-22225000D03*
X9400000Y-25175000D03*
D22*
X10400000Y-18125000D03*
X10400000Y-16475000D03*
D40*
X56425000Y-41150000D03*
X54875000Y-41150000D03*
D29*
X43250000Y-9775000D03*
D30*
X44900000Y-10760000D03*
D29*
X43250000Y-10425000D03*
X43250000Y-11075000D03*
X43250000Y-11725000D03*
D41*
X14725000Y-16250000D03*
X16275000Y-16250000D03*
D15*
X13875000Y-17850000D03*
X12225000Y-17850000D03*
D22*
X7400000Y-23725000D03*
X7400000Y-22075000D03*
D42*
X15000000Y-21462500D03*
X15000000Y-24537500D03*
D43*
X6000000Y-18000000D03*
D44*
X5525000Y-18000000D03*
X5075000Y-18000000D03*
D45*
X4600000Y-18000000D03*
D46*
X5300000Y-17350000D03*
X5300000Y-16850000D03*
D47*
X4600000Y-16200000D03*
D44*
X5075000Y-16200000D03*
X5525000Y-16200000D03*
D48*
X6000000Y-16200000D03*
D40*
X10075000Y-12600000D03*
X8525000Y-12600000D03*
X56425000Y-42700000D03*
X54875000Y-42700000D03*
D15*
X43775000Y-40100000D03*
X42125000Y-40100000D03*
D14*
X49700000Y-34400000D03*
X51350000Y-34400000D03*
D15*
X16925000Y-35100000D03*
X15275000Y-35100000D03*
D20*
X43300000Y-28375000D03*
X43300000Y-30025000D03*
D11*
X10900000Y-39900000D03*
X10900000Y-42700000D03*
D27*
X19000000Y-22250000D03*
X19000000Y-26550000D03*
D32*
X50400000Y-25412500D03*
X50400000Y-32187500D03*
D31*
X3125000Y-8625000D03*
X6075000Y-8625000D03*
M02*
