%TF.GenerationSoftware,KiCad,Pcbnew,6.0.7+dfsg-1+b1*%
%TF.CreationDate,2022-09-05T19:20:09+01:00*%
%TF.ProjectId,owl-driver-board,6f776c2d-6472-4697-9665-722d626f6172,rev?*%
%TF.SameCoordinates,Original*%
%TF.FileFunction,Legend,Top*%
%TF.FilePolarity,Positive*%
%FSLAX46Y46*%
G04 Gerber Fmt 4.6, Leading zero omitted, Abs format (unit mm)*
G04 Created by KiCad (PCBNEW 6.0.7+dfsg-1+b1) date 2022-09-05 19:20:09*
%MOMM*%
%LPD*%
G01*
G04 APERTURE LIST*
%ADD10C,0.150000*%
%ADD11C,0.120000*%
%ADD12R,1.727200X1.727200*%
%ADD13O,1.727200X1.727200*%
G04 APERTURE END LIST*
D10*
X8897469Y-38500000D02*
X8900000Y-38847641D01*
X2097469Y-38500000D02*
X2100000Y-38847641D01*
X5497469Y-38500000D02*
X5500000Y-38847641D01*
X2122469Y-38500000D02*
X8872469Y-38500000D01*
D11*
X6146428Y-38089285D02*
X6146428Y-37339285D01*
X6432142Y-37339285D01*
X6503571Y-37375000D01*
X6539285Y-37410714D01*
X6575000Y-37482142D01*
X6575000Y-37589285D01*
X6539285Y-37660714D01*
X6503571Y-37696428D01*
X6432142Y-37732142D01*
X6146428Y-37732142D01*
X6825000Y-37339285D02*
X7003571Y-38089285D01*
X7146428Y-37553571D01*
X7289285Y-38089285D01*
X7467857Y-37339285D01*
X7753571Y-38089285D02*
X7753571Y-37339285D01*
X8003571Y-37875000D01*
X8253571Y-37339285D01*
X8253571Y-38089285D01*
X3525000Y-38089285D02*
X3525000Y-37339285D01*
X3810714Y-37339285D01*
X3882142Y-37375000D01*
X3917857Y-37410714D01*
X3953571Y-37482142D01*
X3953571Y-37589285D01*
X3917857Y-37660714D01*
X3882142Y-37696428D01*
X3810714Y-37732142D01*
X3525000Y-37732142D01*
X4275000Y-38089285D02*
X4275000Y-37339285D01*
%TO.C,D28*%
X40589285Y-7839285D02*
X40589285Y-7089285D01*
X40767857Y-7089285D01*
X40875000Y-7125000D01*
X40946428Y-7196428D01*
X40982142Y-7267857D01*
X41017857Y-7410714D01*
X41017857Y-7517857D01*
X40982142Y-7660714D01*
X40946428Y-7732142D01*
X40875000Y-7803571D01*
X40767857Y-7839285D01*
X40589285Y-7839285D01*
X41303571Y-7160714D02*
X41339285Y-7125000D01*
X41410714Y-7089285D01*
X41589285Y-7089285D01*
X41660714Y-7125000D01*
X41696428Y-7160714D01*
X41732142Y-7232142D01*
X41732142Y-7303571D01*
X41696428Y-7410714D01*
X41267857Y-7839285D01*
X41732142Y-7839285D01*
X42160714Y-7410714D02*
X42089285Y-7375000D01*
X42053571Y-7339285D01*
X42017857Y-7267857D01*
X42017857Y-7232142D01*
X42053571Y-7160714D01*
X42089285Y-7125000D01*
X42160714Y-7089285D01*
X42303571Y-7089285D01*
X42375000Y-7125000D01*
X42410714Y-7160714D01*
X42446428Y-7232142D01*
X42446428Y-7267857D01*
X42410714Y-7339285D01*
X42375000Y-7375000D01*
X42303571Y-7410714D01*
X42160714Y-7410714D01*
X42089285Y-7446428D01*
X42053571Y-7482142D01*
X42017857Y-7553571D01*
X42017857Y-7696428D01*
X42053571Y-7767857D01*
X42089285Y-7803571D01*
X42160714Y-7839285D01*
X42303571Y-7839285D01*
X42375000Y-7803571D01*
X42410714Y-7767857D01*
X42446428Y-7696428D01*
X42446428Y-7553571D01*
X42410714Y-7482142D01*
X42375000Y-7446428D01*
X42303571Y-7410714D01*
%TO.C,R1*%
X57375000Y-47339285D02*
X57125000Y-46982142D01*
X56946428Y-47339285D02*
X56946428Y-46589285D01*
X57232142Y-46589285D01*
X57303571Y-46625000D01*
X57339285Y-46660714D01*
X57375000Y-46732142D01*
X57375000Y-46839285D01*
X57339285Y-46910714D01*
X57303571Y-46946428D01*
X57232142Y-46982142D01*
X56946428Y-46982142D01*
X58089285Y-47339285D02*
X57660714Y-47339285D01*
X57875000Y-47339285D02*
X57875000Y-46589285D01*
X57803571Y-46696428D01*
X57732142Y-46767857D01*
X57660714Y-46803571D01*
%TO.C,C4*%
X16625000Y-17267857D02*
X16589285Y-17303571D01*
X16482142Y-17339285D01*
X16410714Y-17339285D01*
X16303571Y-17303571D01*
X16232142Y-17232142D01*
X16196428Y-17160714D01*
X16160714Y-17017857D01*
X16160714Y-16910714D01*
X16196428Y-16767857D01*
X16232142Y-16696428D01*
X16303571Y-16625000D01*
X16410714Y-16589285D01*
X16482142Y-16589285D01*
X16589285Y-16625000D01*
X16625000Y-16660714D01*
X17267857Y-16839285D02*
X17267857Y-17339285D01*
X17089285Y-16553571D02*
X16910714Y-17089285D01*
X17375000Y-17089285D01*
%TO.C,D4*%
X10196428Y-48789285D02*
X10196428Y-48039285D01*
X10375000Y-48039285D01*
X10482142Y-48075000D01*
X10553571Y-48146428D01*
X10589285Y-48217857D01*
X10625000Y-48360714D01*
X10625000Y-48467857D01*
X10589285Y-48610714D01*
X10553571Y-48682142D01*
X10482142Y-48753571D01*
X10375000Y-48789285D01*
X10196428Y-48789285D01*
X11267857Y-48289285D02*
X11267857Y-48789285D01*
X11089285Y-48003571D02*
X10910714Y-48539285D01*
X11375000Y-48539285D01*
%TO.C,D1*%
X56946428Y-48839285D02*
X56946428Y-48089285D01*
X57125000Y-48089285D01*
X57232142Y-48125000D01*
X57303571Y-48196428D01*
X57339285Y-48267857D01*
X57375000Y-48410714D01*
X57375000Y-48517857D01*
X57339285Y-48660714D01*
X57303571Y-48732142D01*
X57232142Y-48803571D01*
X57125000Y-48839285D01*
X56946428Y-48839285D01*
X58089285Y-48839285D02*
X57660714Y-48839285D01*
X57875000Y-48839285D02*
X57875000Y-48089285D01*
X57803571Y-48196428D01*
X57732142Y-48267857D01*
X57660714Y-48303571D01*
%TO.C,C5*%
X14125000Y-17267857D02*
X14089285Y-17303571D01*
X13982142Y-17339285D01*
X13910714Y-17339285D01*
X13803571Y-17303571D01*
X13732142Y-17232142D01*
X13696428Y-17160714D01*
X13660714Y-17017857D01*
X13660714Y-16910714D01*
X13696428Y-16767857D01*
X13732142Y-16696428D01*
X13803571Y-16625000D01*
X13910714Y-16589285D01*
X13982142Y-16589285D01*
X14089285Y-16625000D01*
X14125000Y-16660714D01*
X14803571Y-16589285D02*
X14446428Y-16589285D01*
X14410714Y-16946428D01*
X14446428Y-16910714D01*
X14517857Y-16875000D01*
X14696428Y-16875000D01*
X14767857Y-16910714D01*
X14803571Y-16946428D01*
X14839285Y-17017857D01*
X14839285Y-17196428D01*
X14803571Y-17267857D01*
X14767857Y-17303571D01*
X14696428Y-17339285D01*
X14517857Y-17339285D01*
X14446428Y-17303571D01*
X14410714Y-17267857D01*
%TO.C,R21*%
X34339285Y-32982142D02*
X33982142Y-33232142D01*
X34339285Y-33410714D02*
X33589285Y-33410714D01*
X33589285Y-33125000D01*
X33625000Y-33053571D01*
X33660714Y-33017857D01*
X33732142Y-32982142D01*
X33839285Y-32982142D01*
X33910714Y-33017857D01*
X33946428Y-33053571D01*
X33982142Y-33125000D01*
X33982142Y-33410714D01*
X33660714Y-32696428D02*
X33625000Y-32660714D01*
X33589285Y-32589285D01*
X33589285Y-32410714D01*
X33625000Y-32339285D01*
X33660714Y-32303571D01*
X33732142Y-32267857D01*
X33803571Y-32267857D01*
X33910714Y-32303571D01*
X34339285Y-32732142D01*
X34339285Y-32267857D01*
X34339285Y-31553571D02*
X34339285Y-31982142D01*
X34339285Y-31767857D02*
X33589285Y-31767857D01*
X33696428Y-31839285D01*
X33767857Y-31910714D01*
X33803571Y-31982142D01*
%TO.C,C9*%
X10125000Y-18767857D02*
X10089285Y-18803571D01*
X9982142Y-18839285D01*
X9910714Y-18839285D01*
X9803571Y-18803571D01*
X9732142Y-18732142D01*
X9696428Y-18660714D01*
X9660714Y-18517857D01*
X9660714Y-18410714D01*
X9696428Y-18267857D01*
X9732142Y-18196428D01*
X9803571Y-18125000D01*
X9910714Y-18089285D01*
X9982142Y-18089285D01*
X10089285Y-18125000D01*
X10125000Y-18160714D01*
X10482142Y-18839285D02*
X10625000Y-18839285D01*
X10696428Y-18803571D01*
X10732142Y-18767857D01*
X10803571Y-18660714D01*
X10839285Y-18517857D01*
X10839285Y-18232142D01*
X10803571Y-18160714D01*
X10767857Y-18125000D01*
X10696428Y-18089285D01*
X10553571Y-18089285D01*
X10482142Y-18125000D01*
X10446428Y-18160714D01*
X10410714Y-18232142D01*
X10410714Y-18410714D01*
X10446428Y-18482142D01*
X10482142Y-18517857D01*
X10553571Y-18553571D01*
X10696428Y-18553571D01*
X10767857Y-18517857D01*
X10803571Y-18482142D01*
X10839285Y-18410714D01*
%TO.C,R20*%
X36517857Y-15089285D02*
X36267857Y-14732142D01*
X36089285Y-15089285D02*
X36089285Y-14339285D01*
X36375000Y-14339285D01*
X36446428Y-14375000D01*
X36482142Y-14410714D01*
X36517857Y-14482142D01*
X36517857Y-14589285D01*
X36482142Y-14660714D01*
X36446428Y-14696428D01*
X36375000Y-14732142D01*
X36089285Y-14732142D01*
X36803571Y-14410714D02*
X36839285Y-14375000D01*
X36910714Y-14339285D01*
X37089285Y-14339285D01*
X37160714Y-14375000D01*
X37196428Y-14410714D01*
X37232142Y-14482142D01*
X37232142Y-14553571D01*
X37196428Y-14660714D01*
X36767857Y-15089285D01*
X37232142Y-15089285D01*
X37696428Y-14339285D02*
X37767857Y-14339285D01*
X37839285Y-14375000D01*
X37875000Y-14410714D01*
X37910714Y-14482142D01*
X37946428Y-14625000D01*
X37946428Y-14803571D01*
X37910714Y-14946428D01*
X37875000Y-15017857D01*
X37839285Y-15053571D01*
X37767857Y-15089285D01*
X37696428Y-15089285D01*
X37625000Y-15053571D01*
X37589285Y-15017857D01*
X37553571Y-14946428D01*
X37517857Y-14803571D01*
X37517857Y-14625000D01*
X37553571Y-14482142D01*
X37589285Y-14410714D01*
X37625000Y-14375000D01*
X37696428Y-14339285D01*
%TO.C,R12*%
X46839285Y-30507142D02*
X46482142Y-30757142D01*
X46839285Y-30935714D02*
X46089285Y-30935714D01*
X46089285Y-30650000D01*
X46125000Y-30578571D01*
X46160714Y-30542857D01*
X46232142Y-30507142D01*
X46339285Y-30507142D01*
X46410714Y-30542857D01*
X46446428Y-30578571D01*
X46482142Y-30650000D01*
X46482142Y-30935714D01*
X46839285Y-29792857D02*
X46839285Y-30221428D01*
X46839285Y-30007142D02*
X46089285Y-30007142D01*
X46196428Y-30078571D01*
X46267857Y-30150000D01*
X46303571Y-30221428D01*
X46160714Y-29507142D02*
X46125000Y-29471428D01*
X46089285Y-29400000D01*
X46089285Y-29221428D01*
X46125000Y-29150000D01*
X46160714Y-29114285D01*
X46232142Y-29078571D01*
X46303571Y-29078571D01*
X46410714Y-29114285D01*
X46839285Y-29542857D01*
X46839285Y-29078571D01*
%TO.C,R9*%
X17125000Y-30339285D02*
X16875000Y-29982142D01*
X16696428Y-30339285D02*
X16696428Y-29589285D01*
X16982142Y-29589285D01*
X17053571Y-29625000D01*
X17089285Y-29660714D01*
X17125000Y-29732142D01*
X17125000Y-29839285D01*
X17089285Y-29910714D01*
X17053571Y-29946428D01*
X16982142Y-29982142D01*
X16696428Y-29982142D01*
X17482142Y-30339285D02*
X17625000Y-30339285D01*
X17696428Y-30303571D01*
X17732142Y-30267857D01*
X17803571Y-30160714D01*
X17839285Y-30017857D01*
X17839285Y-29732142D01*
X17803571Y-29660714D01*
X17767857Y-29625000D01*
X17696428Y-29589285D01*
X17553571Y-29589285D01*
X17482142Y-29625000D01*
X17446428Y-29660714D01*
X17410714Y-29732142D01*
X17410714Y-29910714D01*
X17446428Y-29982142D01*
X17482142Y-30017857D01*
X17553571Y-30053571D01*
X17696428Y-30053571D01*
X17767857Y-30017857D01*
X17803571Y-29982142D01*
X17839285Y-29910714D01*
%TO.C,D5*%
X62303928Y-39889285D02*
X62303928Y-39139285D01*
X62482500Y-39139285D01*
X62589642Y-39175000D01*
X62661071Y-39246428D01*
X62696785Y-39317857D01*
X62732500Y-39460714D01*
X62732500Y-39567857D01*
X62696785Y-39710714D01*
X62661071Y-39782142D01*
X62589642Y-39853571D01*
X62482500Y-39889285D01*
X62303928Y-39889285D01*
X63411071Y-39139285D02*
X63053928Y-39139285D01*
X63018214Y-39496428D01*
X63053928Y-39460714D01*
X63125357Y-39425000D01*
X63303928Y-39425000D01*
X63375357Y-39460714D01*
X63411071Y-39496428D01*
X63446785Y-39567857D01*
X63446785Y-39746428D01*
X63411071Y-39817857D01*
X63375357Y-39853571D01*
X63303928Y-39889285D01*
X63125357Y-39889285D01*
X63053928Y-39853571D01*
X63018214Y-39817857D01*
%TO.C,Q4*%
X14428571Y-31410714D02*
X14357142Y-31375000D01*
X14285714Y-31303571D01*
X14178571Y-31196428D01*
X14107142Y-31160714D01*
X14035714Y-31160714D01*
X14071428Y-31339285D02*
X14000000Y-31303571D01*
X13928571Y-31232142D01*
X13892857Y-31089285D01*
X13892857Y-30839285D01*
X13928571Y-30696428D01*
X14000000Y-30625000D01*
X14071428Y-30589285D01*
X14214285Y-30589285D01*
X14285714Y-30625000D01*
X14357142Y-30696428D01*
X14392857Y-30839285D01*
X14392857Y-31089285D01*
X14357142Y-31232142D01*
X14285714Y-31303571D01*
X14214285Y-31339285D01*
X14071428Y-31339285D01*
X15035714Y-30839285D02*
X15035714Y-31339285D01*
X14857142Y-30553571D02*
X14678571Y-31089285D01*
X15142857Y-31089285D01*
%TO.C,J9*%
X11410714Y-21589285D02*
X11410714Y-20839285D01*
X11696428Y-20839285D01*
X11767857Y-20875000D01*
X11803571Y-20910714D01*
X11839285Y-20982142D01*
X11839285Y-21089285D01*
X11803571Y-21160714D01*
X11767857Y-21196428D01*
X11696428Y-21232142D01*
X11410714Y-21232142D01*
X12160714Y-21589285D02*
X12160714Y-20839285D01*
X13446428Y-20839285D02*
X13089285Y-20839285D01*
X13053571Y-21196428D01*
X13089285Y-21160714D01*
X13160714Y-21125000D01*
X13339285Y-21125000D01*
X13410714Y-21160714D01*
X13446428Y-21196428D01*
X13482142Y-21267857D01*
X13482142Y-21446428D01*
X13446428Y-21517857D01*
X13410714Y-21553571D01*
X13339285Y-21589285D01*
X13160714Y-21589285D01*
X13089285Y-21553571D01*
X13053571Y-21517857D01*
X13696428Y-20839285D02*
X13946428Y-21589285D01*
X14196428Y-20839285D01*
%TO.C,JP4*%
X9464285Y-30675000D02*
X9821428Y-30675000D01*
X9392857Y-30889285D02*
X9642857Y-30139285D01*
X9892857Y-30889285D01*
X10071428Y-30139285D02*
X10535714Y-30139285D01*
X10285714Y-30425000D01*
X10392857Y-30425000D01*
X10464285Y-30460714D01*
X10500000Y-30496428D01*
X10535714Y-30567857D01*
X10535714Y-30746428D01*
X10500000Y-30817857D01*
X10464285Y-30853571D01*
X10392857Y-30889285D01*
X10178571Y-30889285D01*
X10107142Y-30853571D01*
X10071428Y-30817857D01*
%TO.C,D19*%
X22104285Y-49089285D02*
X22104285Y-48339285D01*
X22282857Y-48339285D01*
X22390000Y-48375000D01*
X22461428Y-48446428D01*
X22497142Y-48517857D01*
X22532857Y-48660714D01*
X22532857Y-48767857D01*
X22497142Y-48910714D01*
X22461428Y-48982142D01*
X22390000Y-49053571D01*
X22282857Y-49089285D01*
X22104285Y-49089285D01*
X23247142Y-49089285D02*
X22818571Y-49089285D01*
X23032857Y-49089285D02*
X23032857Y-48339285D01*
X22961428Y-48446428D01*
X22890000Y-48517857D01*
X22818571Y-48553571D01*
X23604285Y-49089285D02*
X23747142Y-49089285D01*
X23818571Y-49053571D01*
X23854285Y-49017857D01*
X23925714Y-48910714D01*
X23961428Y-48767857D01*
X23961428Y-48482142D01*
X23925714Y-48410714D01*
X23890000Y-48375000D01*
X23818571Y-48339285D01*
X23675714Y-48339285D01*
X23604285Y-48375000D01*
X23568571Y-48410714D01*
X23532857Y-48482142D01*
X23532857Y-48660714D01*
X23568571Y-48732142D01*
X23604285Y-48767857D01*
X23675714Y-48803571D01*
X23818571Y-48803571D01*
X23890000Y-48767857D01*
X23925714Y-48732142D01*
X23961428Y-48660714D01*
%TO.C,JP3*%
X9464285Y-28075000D02*
X9821428Y-28075000D01*
X9392857Y-28289285D02*
X9642857Y-27539285D01*
X9892857Y-28289285D01*
X10107142Y-27610714D02*
X10142857Y-27575000D01*
X10214285Y-27539285D01*
X10392857Y-27539285D01*
X10464285Y-27575000D01*
X10500000Y-27610714D01*
X10535714Y-27682142D01*
X10535714Y-27753571D01*
X10500000Y-27860714D01*
X10071428Y-28289285D01*
X10535714Y-28289285D01*
%TO.C,Q8*%
X26678571Y-34160714D02*
X26607142Y-34125000D01*
X26535714Y-34053571D01*
X26428571Y-33946428D01*
X26357142Y-33910714D01*
X26285714Y-33910714D01*
X26321428Y-34089285D02*
X26250000Y-34053571D01*
X26178571Y-33982142D01*
X26142857Y-33839285D01*
X26142857Y-33589285D01*
X26178571Y-33446428D01*
X26250000Y-33375000D01*
X26321428Y-33339285D01*
X26464285Y-33339285D01*
X26535714Y-33375000D01*
X26607142Y-33446428D01*
X26642857Y-33589285D01*
X26642857Y-33839285D01*
X26607142Y-33982142D01*
X26535714Y-34053571D01*
X26464285Y-34089285D01*
X26321428Y-34089285D01*
X27071428Y-33660714D02*
X27000000Y-33625000D01*
X26964285Y-33589285D01*
X26928571Y-33517857D01*
X26928571Y-33482142D01*
X26964285Y-33410714D01*
X27000000Y-33375000D01*
X27071428Y-33339285D01*
X27214285Y-33339285D01*
X27285714Y-33375000D01*
X27321428Y-33410714D01*
X27357142Y-33482142D01*
X27357142Y-33517857D01*
X27321428Y-33589285D01*
X27285714Y-33625000D01*
X27214285Y-33660714D01*
X27071428Y-33660714D01*
X27000000Y-33696428D01*
X26964285Y-33732142D01*
X26928571Y-33803571D01*
X26928571Y-33946428D01*
X26964285Y-34017857D01*
X27000000Y-34053571D01*
X27071428Y-34089285D01*
X27214285Y-34089285D01*
X27285714Y-34053571D01*
X27321428Y-34017857D01*
X27357142Y-33946428D01*
X27357142Y-33803571D01*
X27321428Y-33732142D01*
X27285714Y-33696428D01*
X27214285Y-33660714D01*
%TO.C,R10*%
X38017857Y-29589285D02*
X37767857Y-29232142D01*
X37589285Y-29589285D02*
X37589285Y-28839285D01*
X37875000Y-28839285D01*
X37946428Y-28875000D01*
X37982142Y-28910714D01*
X38017857Y-28982142D01*
X38017857Y-29089285D01*
X37982142Y-29160714D01*
X37946428Y-29196428D01*
X37875000Y-29232142D01*
X37589285Y-29232142D01*
X38732142Y-29589285D02*
X38303571Y-29589285D01*
X38517857Y-29589285D02*
X38517857Y-28839285D01*
X38446428Y-28946428D01*
X38375000Y-29017857D01*
X38303571Y-29053571D01*
X39196428Y-28839285D02*
X39267857Y-28839285D01*
X39339285Y-28875000D01*
X39375000Y-28910714D01*
X39410714Y-28982142D01*
X39446428Y-29125000D01*
X39446428Y-29303571D01*
X39410714Y-29446428D01*
X39375000Y-29517857D01*
X39339285Y-29553571D01*
X39267857Y-29589285D01*
X39196428Y-29589285D01*
X39125000Y-29553571D01*
X39089285Y-29517857D01*
X39053571Y-29446428D01*
X39017857Y-29303571D01*
X39017857Y-29125000D01*
X39053571Y-28982142D01*
X39089285Y-28910714D01*
X39125000Y-28875000D01*
X39196428Y-28839285D01*
%TO.C,R16*%
X56017857Y-22589285D02*
X55767857Y-22232142D01*
X55589285Y-22589285D02*
X55589285Y-21839285D01*
X55875000Y-21839285D01*
X55946428Y-21875000D01*
X55982142Y-21910714D01*
X56017857Y-21982142D01*
X56017857Y-22089285D01*
X55982142Y-22160714D01*
X55946428Y-22196428D01*
X55875000Y-22232142D01*
X55589285Y-22232142D01*
X56732142Y-22589285D02*
X56303571Y-22589285D01*
X56517857Y-22589285D02*
X56517857Y-21839285D01*
X56446428Y-21946428D01*
X56375000Y-22017857D01*
X56303571Y-22053571D01*
X57375000Y-21839285D02*
X57232142Y-21839285D01*
X57160714Y-21875000D01*
X57125000Y-21910714D01*
X57053571Y-22017857D01*
X57017857Y-22160714D01*
X57017857Y-22446428D01*
X57053571Y-22517857D01*
X57089285Y-22553571D01*
X57160714Y-22589285D01*
X57303571Y-22589285D01*
X57375000Y-22553571D01*
X57410714Y-22517857D01*
X57446428Y-22446428D01*
X57446428Y-22267857D01*
X57410714Y-22196428D01*
X57375000Y-22160714D01*
X57303571Y-22125000D01*
X57160714Y-22125000D01*
X57089285Y-22160714D01*
X57053571Y-22196428D01*
X57017857Y-22267857D01*
%TO.C,C12*%
X46267857Y-23017857D02*
X46232142Y-23053571D01*
X46125000Y-23089285D01*
X46053571Y-23089285D01*
X45946428Y-23053571D01*
X45875000Y-22982142D01*
X45839285Y-22910714D01*
X45803571Y-22767857D01*
X45803571Y-22660714D01*
X45839285Y-22517857D01*
X45875000Y-22446428D01*
X45946428Y-22375000D01*
X46053571Y-22339285D01*
X46125000Y-22339285D01*
X46232142Y-22375000D01*
X46267857Y-22410714D01*
X46982142Y-23089285D02*
X46553571Y-23089285D01*
X46767857Y-23089285D02*
X46767857Y-22339285D01*
X46696428Y-22446428D01*
X46625000Y-22517857D01*
X46553571Y-22553571D01*
X47267857Y-22410714D02*
X47303571Y-22375000D01*
X47375000Y-22339285D01*
X47553571Y-22339285D01*
X47625000Y-22375000D01*
X47660714Y-22410714D01*
X47696428Y-22482142D01*
X47696428Y-22553571D01*
X47660714Y-22660714D01*
X47232142Y-23089285D01*
X47696428Y-23089285D01*
%TO.C,U1*%
X12428571Y-8589285D02*
X12428571Y-9196428D01*
X12464285Y-9267857D01*
X12500000Y-9303571D01*
X12571428Y-9339285D01*
X12714285Y-9339285D01*
X12785714Y-9303571D01*
X12821428Y-9267857D01*
X12857142Y-9196428D01*
X12857142Y-8589285D01*
X13607142Y-9339285D02*
X13178571Y-9339285D01*
X13392857Y-9339285D02*
X13392857Y-8589285D01*
X13321428Y-8696428D01*
X13250000Y-8767857D01*
X13178571Y-8803571D01*
%TO.C,D29*%
X3589285Y-19339285D02*
X3589285Y-18589285D01*
X3767857Y-18589285D01*
X3875000Y-18625000D01*
X3946428Y-18696428D01*
X3982142Y-18767857D01*
X4017857Y-18910714D01*
X4017857Y-19017857D01*
X3982142Y-19160714D01*
X3946428Y-19232142D01*
X3875000Y-19303571D01*
X3767857Y-19339285D01*
X3589285Y-19339285D01*
X4303571Y-18660714D02*
X4339285Y-18625000D01*
X4410714Y-18589285D01*
X4589285Y-18589285D01*
X4660714Y-18625000D01*
X4696428Y-18660714D01*
X4732142Y-18732142D01*
X4732142Y-18803571D01*
X4696428Y-18910714D01*
X4267857Y-19339285D01*
X4732142Y-19339285D01*
X5089285Y-19339285D02*
X5232142Y-19339285D01*
X5303571Y-19303571D01*
X5339285Y-19267857D01*
X5410714Y-19160714D01*
X5446428Y-19017857D01*
X5446428Y-18732142D01*
X5410714Y-18660714D01*
X5375000Y-18625000D01*
X5303571Y-18589285D01*
X5160714Y-18589285D01*
X5089285Y-18625000D01*
X5053571Y-18660714D01*
X5017857Y-18732142D01*
X5017857Y-18910714D01*
X5053571Y-18982142D01*
X5089285Y-19017857D01*
X5160714Y-19053571D01*
X5303571Y-19053571D01*
X5375000Y-19017857D01*
X5410714Y-18982142D01*
X5446428Y-18910714D01*
%TO.C,R13*%
X32517857Y-38589285D02*
X32267857Y-38232142D01*
X32089285Y-38589285D02*
X32089285Y-37839285D01*
X32375000Y-37839285D01*
X32446428Y-37875000D01*
X32482142Y-37910714D01*
X32517857Y-37982142D01*
X32517857Y-38089285D01*
X32482142Y-38160714D01*
X32446428Y-38196428D01*
X32375000Y-38232142D01*
X32089285Y-38232142D01*
X33232142Y-38589285D02*
X32803571Y-38589285D01*
X33017857Y-38589285D02*
X33017857Y-37839285D01*
X32946428Y-37946428D01*
X32875000Y-38017857D01*
X32803571Y-38053571D01*
X33482142Y-37839285D02*
X33946428Y-37839285D01*
X33696428Y-38125000D01*
X33803571Y-38125000D01*
X33875000Y-38160714D01*
X33910714Y-38196428D01*
X33946428Y-38267857D01*
X33946428Y-38446428D01*
X33910714Y-38517857D01*
X33875000Y-38553571D01*
X33803571Y-38589285D01*
X33589285Y-38589285D01*
X33517857Y-38553571D01*
X33482142Y-38517857D01*
%TO.C,R19*%
X31767857Y-30089285D02*
X31517857Y-29732142D01*
X31339285Y-30089285D02*
X31339285Y-29339285D01*
X31625000Y-29339285D01*
X31696428Y-29375000D01*
X31732142Y-29410714D01*
X31767857Y-29482142D01*
X31767857Y-29589285D01*
X31732142Y-29660714D01*
X31696428Y-29696428D01*
X31625000Y-29732142D01*
X31339285Y-29732142D01*
X32482142Y-30089285D02*
X32053571Y-30089285D01*
X32267857Y-30089285D02*
X32267857Y-29339285D01*
X32196428Y-29446428D01*
X32125000Y-29517857D01*
X32053571Y-29553571D01*
X32839285Y-30089285D02*
X32982142Y-30089285D01*
X33053571Y-30053571D01*
X33089285Y-30017857D01*
X33160714Y-29910714D01*
X33196428Y-29767857D01*
X33196428Y-29482142D01*
X33160714Y-29410714D01*
X33125000Y-29375000D01*
X33053571Y-29339285D01*
X32910714Y-29339285D01*
X32839285Y-29375000D01*
X32803571Y-29410714D01*
X32767857Y-29482142D01*
X32767857Y-29660714D01*
X32803571Y-29732142D01*
X32839285Y-29767857D01*
X32910714Y-29803571D01*
X33053571Y-29803571D01*
X33125000Y-29767857D01*
X33160714Y-29732142D01*
X33196428Y-29660714D01*
%TO.C,D20*%
X55589285Y-23839285D02*
X55589285Y-23089285D01*
X55767857Y-23089285D01*
X55875000Y-23125000D01*
X55946428Y-23196428D01*
X55982142Y-23267857D01*
X56017857Y-23410714D01*
X56017857Y-23517857D01*
X55982142Y-23660714D01*
X55946428Y-23732142D01*
X55875000Y-23803571D01*
X55767857Y-23839285D01*
X55589285Y-23839285D01*
X56303571Y-23160714D02*
X56339285Y-23125000D01*
X56410714Y-23089285D01*
X56589285Y-23089285D01*
X56660714Y-23125000D01*
X56696428Y-23160714D01*
X56732142Y-23232142D01*
X56732142Y-23303571D01*
X56696428Y-23410714D01*
X56267857Y-23839285D01*
X56732142Y-23839285D01*
X57196428Y-23089285D02*
X57267857Y-23089285D01*
X57339285Y-23125000D01*
X57375000Y-23160714D01*
X57410714Y-23232142D01*
X57446428Y-23375000D01*
X57446428Y-23553571D01*
X57410714Y-23696428D01*
X57375000Y-23767857D01*
X57339285Y-23803571D01*
X57267857Y-23839285D01*
X57196428Y-23839285D01*
X57125000Y-23803571D01*
X57089285Y-23767857D01*
X57053571Y-23696428D01*
X57017857Y-23553571D01*
X57017857Y-23375000D01*
X57053571Y-23232142D01*
X57089285Y-23160714D01*
X57125000Y-23125000D01*
X57196428Y-23089285D01*
%TO.C,JP6*%
X9464285Y-35875000D02*
X9821428Y-35875000D01*
X9392857Y-36089285D02*
X9642857Y-35339285D01*
X9892857Y-36089285D01*
X10500000Y-35339285D02*
X10142857Y-35339285D01*
X10107142Y-35696428D01*
X10142857Y-35660714D01*
X10214285Y-35625000D01*
X10392857Y-35625000D01*
X10464285Y-35660714D01*
X10500000Y-35696428D01*
X10535714Y-35767857D01*
X10535714Y-35946428D01*
X10500000Y-36017857D01*
X10464285Y-36053571D01*
X10392857Y-36089285D01*
X10214285Y-36089285D01*
X10142857Y-36053571D01*
X10107142Y-36017857D01*
%TO.C,R23*%
X7267857Y-18839285D02*
X7017857Y-18482142D01*
X6839285Y-18839285D02*
X6839285Y-18089285D01*
X7125000Y-18089285D01*
X7196428Y-18125000D01*
X7232142Y-18160714D01*
X7267857Y-18232142D01*
X7267857Y-18339285D01*
X7232142Y-18410714D01*
X7196428Y-18446428D01*
X7125000Y-18482142D01*
X6839285Y-18482142D01*
X7553571Y-18160714D02*
X7589285Y-18125000D01*
X7660714Y-18089285D01*
X7839285Y-18089285D01*
X7910714Y-18125000D01*
X7946428Y-18160714D01*
X7982142Y-18232142D01*
X7982142Y-18303571D01*
X7946428Y-18410714D01*
X7517857Y-18839285D01*
X7982142Y-18839285D01*
X8232142Y-18089285D02*
X8696428Y-18089285D01*
X8446428Y-18375000D01*
X8553571Y-18375000D01*
X8625000Y-18410714D01*
X8660714Y-18446428D01*
X8696428Y-18517857D01*
X8696428Y-18696428D01*
X8660714Y-18767857D01*
X8625000Y-18803571D01*
X8553571Y-18839285D01*
X8339285Y-18839285D01*
X8267857Y-18803571D01*
X8232142Y-18767857D01*
%TO.C,Q9*%
X38928571Y-17910714D02*
X38857142Y-17875000D01*
X38785714Y-17803571D01*
X38678571Y-17696428D01*
X38607142Y-17660714D01*
X38535714Y-17660714D01*
X38571428Y-17839285D02*
X38500000Y-17803571D01*
X38428571Y-17732142D01*
X38392857Y-17589285D01*
X38392857Y-17339285D01*
X38428571Y-17196428D01*
X38500000Y-17125000D01*
X38571428Y-17089285D01*
X38714285Y-17089285D01*
X38785714Y-17125000D01*
X38857142Y-17196428D01*
X38892857Y-17339285D01*
X38892857Y-17589285D01*
X38857142Y-17732142D01*
X38785714Y-17803571D01*
X38714285Y-17839285D01*
X38571428Y-17839285D01*
X39250000Y-17839285D02*
X39392857Y-17839285D01*
X39464285Y-17803571D01*
X39500000Y-17767857D01*
X39571428Y-17660714D01*
X39607142Y-17517857D01*
X39607142Y-17232142D01*
X39571428Y-17160714D01*
X39535714Y-17125000D01*
X39464285Y-17089285D01*
X39321428Y-17089285D01*
X39250000Y-17125000D01*
X39214285Y-17160714D01*
X39178571Y-17232142D01*
X39178571Y-17410714D01*
X39214285Y-17482142D01*
X39250000Y-17517857D01*
X39321428Y-17553571D01*
X39464285Y-17553571D01*
X39535714Y-17517857D01*
X39571428Y-17482142D01*
X39607142Y-17410714D01*
%TO.C,JP1*%
X9464285Y-22875000D02*
X9821428Y-22875000D01*
X9392857Y-23089285D02*
X9642857Y-22339285D01*
X9892857Y-23089285D01*
X10285714Y-22339285D02*
X10357142Y-22339285D01*
X10428571Y-22375000D01*
X10464285Y-22410714D01*
X10500000Y-22482142D01*
X10535714Y-22625000D01*
X10535714Y-22803571D01*
X10500000Y-22946428D01*
X10464285Y-23017857D01*
X10428571Y-23053571D01*
X10357142Y-23089285D01*
X10285714Y-23089285D01*
X10214285Y-23053571D01*
X10178571Y-23017857D01*
X10142857Y-22946428D01*
X10107142Y-22803571D01*
X10107142Y-22625000D01*
X10142857Y-22482142D01*
X10178571Y-22410714D01*
X10214285Y-22375000D01*
X10285714Y-22339285D01*
%TO.C,C6*%
X12125000Y-18767857D02*
X12089285Y-18803571D01*
X11982142Y-18839285D01*
X11910714Y-18839285D01*
X11803571Y-18803571D01*
X11732142Y-18732142D01*
X11696428Y-18660714D01*
X11660714Y-18517857D01*
X11660714Y-18410714D01*
X11696428Y-18267857D01*
X11732142Y-18196428D01*
X11803571Y-18125000D01*
X11910714Y-18089285D01*
X11982142Y-18089285D01*
X12089285Y-18125000D01*
X12125000Y-18160714D01*
X12767857Y-18089285D02*
X12625000Y-18089285D01*
X12553571Y-18125000D01*
X12517857Y-18160714D01*
X12446428Y-18267857D01*
X12410714Y-18410714D01*
X12410714Y-18696428D01*
X12446428Y-18767857D01*
X12482142Y-18803571D01*
X12553571Y-18839285D01*
X12696428Y-18839285D01*
X12767857Y-18803571D01*
X12803571Y-18767857D01*
X12839285Y-18696428D01*
X12839285Y-18517857D01*
X12803571Y-18446428D01*
X12767857Y-18410714D01*
X12696428Y-18375000D01*
X12553571Y-18375000D01*
X12482142Y-18410714D01*
X12446428Y-18446428D01*
X12410714Y-18517857D01*
%TO.C,C1*%
X39125000Y-44017857D02*
X39089285Y-44053571D01*
X38982142Y-44089285D01*
X38910714Y-44089285D01*
X38803571Y-44053571D01*
X38732142Y-43982142D01*
X38696428Y-43910714D01*
X38660714Y-43767857D01*
X38660714Y-43660714D01*
X38696428Y-43517857D01*
X38732142Y-43446428D01*
X38803571Y-43375000D01*
X38910714Y-43339285D01*
X38982142Y-43339285D01*
X39089285Y-43375000D01*
X39125000Y-43410714D01*
X39839285Y-44089285D02*
X39410714Y-44089285D01*
X39625000Y-44089285D02*
X39625000Y-43339285D01*
X39553571Y-43446428D01*
X39482142Y-43517857D01*
X39410714Y-43553571D01*
%TO.C,D15*%
X41339285Y-24339285D02*
X41339285Y-23589285D01*
X41517857Y-23589285D01*
X41625000Y-23625000D01*
X41696428Y-23696428D01*
X41732142Y-23767857D01*
X41767857Y-23910714D01*
X41767857Y-24017857D01*
X41732142Y-24160714D01*
X41696428Y-24232142D01*
X41625000Y-24303571D01*
X41517857Y-24339285D01*
X41339285Y-24339285D01*
X42482142Y-24339285D02*
X42053571Y-24339285D01*
X42267857Y-24339285D02*
X42267857Y-23589285D01*
X42196428Y-23696428D01*
X42125000Y-23767857D01*
X42053571Y-23803571D01*
X43160714Y-23589285D02*
X42803571Y-23589285D01*
X42767857Y-23946428D01*
X42803571Y-23910714D01*
X42875000Y-23875000D01*
X43053571Y-23875000D01*
X43125000Y-23910714D01*
X43160714Y-23946428D01*
X43196428Y-24017857D01*
X43196428Y-24196428D01*
X43160714Y-24267857D01*
X43125000Y-24303571D01*
X43053571Y-24339285D01*
X42875000Y-24339285D01*
X42803571Y-24303571D01*
X42767857Y-24267857D01*
%TO.C,C7*%
X4375000Y-11017857D02*
X4339285Y-11053571D01*
X4232142Y-11089285D01*
X4160714Y-11089285D01*
X4053571Y-11053571D01*
X3982142Y-10982142D01*
X3946428Y-10910714D01*
X3910714Y-10767857D01*
X3910714Y-10660714D01*
X3946428Y-10517857D01*
X3982142Y-10446428D01*
X4053571Y-10375000D01*
X4160714Y-10339285D01*
X4232142Y-10339285D01*
X4339285Y-10375000D01*
X4375000Y-10410714D01*
X4625000Y-10339285D02*
X5125000Y-10339285D01*
X4803571Y-11089285D01*
%TO.C,D27*%
X38839285Y-37839285D02*
X38839285Y-37089285D01*
X39017857Y-37089285D01*
X39125000Y-37125000D01*
X39196428Y-37196428D01*
X39232142Y-37267857D01*
X39267857Y-37410714D01*
X39267857Y-37517857D01*
X39232142Y-37660714D01*
X39196428Y-37732142D01*
X39125000Y-37803571D01*
X39017857Y-37839285D01*
X38839285Y-37839285D01*
X39553571Y-37160714D02*
X39589285Y-37125000D01*
X39660714Y-37089285D01*
X39839285Y-37089285D01*
X39910714Y-37125000D01*
X39946428Y-37160714D01*
X39982142Y-37232142D01*
X39982142Y-37303571D01*
X39946428Y-37410714D01*
X39517857Y-37839285D01*
X39982142Y-37839285D01*
X40232142Y-37089285D02*
X40732142Y-37089285D01*
X40410714Y-37839285D01*
%TO.C,Q5*%
X39178571Y-33910714D02*
X39107142Y-33875000D01*
X39035714Y-33803571D01*
X38928571Y-33696428D01*
X38857142Y-33660714D01*
X38785714Y-33660714D01*
X38821428Y-33839285D02*
X38750000Y-33803571D01*
X38678571Y-33732142D01*
X38642857Y-33589285D01*
X38642857Y-33339285D01*
X38678571Y-33196428D01*
X38750000Y-33125000D01*
X38821428Y-33089285D01*
X38964285Y-33089285D01*
X39035714Y-33125000D01*
X39107142Y-33196428D01*
X39142857Y-33339285D01*
X39142857Y-33589285D01*
X39107142Y-33732142D01*
X39035714Y-33803571D01*
X38964285Y-33839285D01*
X38821428Y-33839285D01*
X39821428Y-33089285D02*
X39464285Y-33089285D01*
X39428571Y-33446428D01*
X39464285Y-33410714D01*
X39535714Y-33375000D01*
X39714285Y-33375000D01*
X39785714Y-33410714D01*
X39821428Y-33446428D01*
X39857142Y-33517857D01*
X39857142Y-33696428D01*
X39821428Y-33767857D01*
X39785714Y-33803571D01*
X39714285Y-33839285D01*
X39535714Y-33839285D01*
X39464285Y-33803571D01*
X39428571Y-33767857D01*
%TO.C,R15*%
X22517857Y-47589285D02*
X22267857Y-47232142D01*
X22089285Y-47589285D02*
X22089285Y-46839285D01*
X22375000Y-46839285D01*
X22446428Y-46875000D01*
X22482142Y-46910714D01*
X22517857Y-46982142D01*
X22517857Y-47089285D01*
X22482142Y-47160714D01*
X22446428Y-47196428D01*
X22375000Y-47232142D01*
X22089285Y-47232142D01*
X23232142Y-47589285D02*
X22803571Y-47589285D01*
X23017857Y-47589285D02*
X23017857Y-46839285D01*
X22946428Y-46946428D01*
X22875000Y-47017857D01*
X22803571Y-47053571D01*
X23910714Y-46839285D02*
X23553571Y-46839285D01*
X23517857Y-47196428D01*
X23553571Y-47160714D01*
X23625000Y-47125000D01*
X23803571Y-47125000D01*
X23875000Y-47160714D01*
X23910714Y-47196428D01*
X23946428Y-47267857D01*
X23946428Y-47446428D01*
X23910714Y-47517857D01*
X23875000Y-47553571D01*
X23803571Y-47589285D01*
X23625000Y-47589285D01*
X23553571Y-47553571D01*
X23517857Y-47517857D01*
%TO.C,R14*%
X46839285Y-14532142D02*
X46482142Y-14782142D01*
X46839285Y-14960714D02*
X46089285Y-14960714D01*
X46089285Y-14675000D01*
X46125000Y-14603571D01*
X46160714Y-14567857D01*
X46232142Y-14532142D01*
X46339285Y-14532142D01*
X46410714Y-14567857D01*
X46446428Y-14603571D01*
X46482142Y-14675000D01*
X46482142Y-14960714D01*
X46839285Y-13817857D02*
X46839285Y-14246428D01*
X46839285Y-14032142D02*
X46089285Y-14032142D01*
X46196428Y-14103571D01*
X46267857Y-14175000D01*
X46303571Y-14246428D01*
X46339285Y-13175000D02*
X46839285Y-13175000D01*
X46053571Y-13353571D02*
X46589285Y-13532142D01*
X46589285Y-13067857D01*
%TO.C,R11*%
X19089285Y-32982142D02*
X18732142Y-33232142D01*
X19089285Y-33410714D02*
X18339285Y-33410714D01*
X18339285Y-33125000D01*
X18375000Y-33053571D01*
X18410714Y-33017857D01*
X18482142Y-32982142D01*
X18589285Y-32982142D01*
X18660714Y-33017857D01*
X18696428Y-33053571D01*
X18732142Y-33125000D01*
X18732142Y-33410714D01*
X19089285Y-32267857D02*
X19089285Y-32696428D01*
X19089285Y-32482142D02*
X18339285Y-32482142D01*
X18446428Y-32553571D01*
X18517857Y-32625000D01*
X18553571Y-32696428D01*
X19089285Y-31553571D02*
X19089285Y-31982142D01*
X19089285Y-31767857D02*
X18339285Y-31767857D01*
X18446428Y-31839285D01*
X18517857Y-31910714D01*
X18553571Y-31982142D01*
%TO.C,R17*%
X29017857Y-38589285D02*
X28767857Y-38232142D01*
X28589285Y-38589285D02*
X28589285Y-37839285D01*
X28875000Y-37839285D01*
X28946428Y-37875000D01*
X28982142Y-37910714D01*
X29017857Y-37982142D01*
X29017857Y-38089285D01*
X28982142Y-38160714D01*
X28946428Y-38196428D01*
X28875000Y-38232142D01*
X28589285Y-38232142D01*
X29732142Y-38589285D02*
X29303571Y-38589285D01*
X29517857Y-38589285D02*
X29517857Y-37839285D01*
X29446428Y-37946428D01*
X29375000Y-38017857D01*
X29303571Y-38053571D01*
X29982142Y-37839285D02*
X30482142Y-37839285D01*
X30160714Y-38589285D01*
%TO.C,R4*%
X10625000Y-47339285D02*
X10375000Y-46982142D01*
X10196428Y-47339285D02*
X10196428Y-46589285D01*
X10482142Y-46589285D01*
X10553571Y-46625000D01*
X10589285Y-46660714D01*
X10625000Y-46732142D01*
X10625000Y-46839285D01*
X10589285Y-46910714D01*
X10553571Y-46946428D01*
X10482142Y-46982142D01*
X10196428Y-46982142D01*
X11267857Y-46839285D02*
X11267857Y-47339285D01*
X11089285Y-46553571D02*
X10910714Y-47089285D01*
X11375000Y-47089285D01*
%TO.C,R7*%
X46839285Y-33575000D02*
X46482142Y-33825000D01*
X46839285Y-34003571D02*
X46089285Y-34003571D01*
X46089285Y-33717857D01*
X46125000Y-33646428D01*
X46160714Y-33610714D01*
X46232142Y-33575000D01*
X46339285Y-33575000D01*
X46410714Y-33610714D01*
X46446428Y-33646428D01*
X46482142Y-33717857D01*
X46482142Y-34003571D01*
X46089285Y-33325000D02*
X46089285Y-32825000D01*
X46839285Y-33146428D01*
%TO.C,JP2*%
X9464285Y-25475000D02*
X9821428Y-25475000D01*
X9392857Y-25689285D02*
X9642857Y-24939285D01*
X9892857Y-25689285D01*
X10535714Y-25689285D02*
X10107142Y-25689285D01*
X10321428Y-25689285D02*
X10321428Y-24939285D01*
X10250000Y-25046428D01*
X10178571Y-25117857D01*
X10107142Y-25153571D01*
%TO.C,R18*%
X46839285Y-17982142D02*
X46482142Y-18232142D01*
X46839285Y-18410714D02*
X46089285Y-18410714D01*
X46089285Y-18125000D01*
X46125000Y-18053571D01*
X46160714Y-18017857D01*
X46232142Y-17982142D01*
X46339285Y-17982142D01*
X46410714Y-18017857D01*
X46446428Y-18053571D01*
X46482142Y-18125000D01*
X46482142Y-18410714D01*
X46839285Y-17267857D02*
X46839285Y-17696428D01*
X46839285Y-17482142D02*
X46089285Y-17482142D01*
X46196428Y-17553571D01*
X46267857Y-17625000D01*
X46303571Y-17696428D01*
X46410714Y-16839285D02*
X46375000Y-16910714D01*
X46339285Y-16946428D01*
X46267857Y-16982142D01*
X46232142Y-16982142D01*
X46160714Y-16946428D01*
X46125000Y-16910714D01*
X46089285Y-16839285D01*
X46089285Y-16696428D01*
X46125000Y-16625000D01*
X46160714Y-16589285D01*
X46232142Y-16553571D01*
X46267857Y-16553571D01*
X46339285Y-16589285D01*
X46375000Y-16625000D01*
X46410714Y-16696428D01*
X46410714Y-16839285D01*
X46446428Y-16910714D01*
X46482142Y-16946428D01*
X46553571Y-16982142D01*
X46696428Y-16982142D01*
X46767857Y-16946428D01*
X46803571Y-16910714D01*
X46839285Y-16839285D01*
X46839285Y-16696428D01*
X46803571Y-16625000D01*
X46767857Y-16589285D01*
X46696428Y-16553571D01*
X46553571Y-16553571D01*
X46482142Y-16589285D01*
X46446428Y-16625000D01*
X46410714Y-16696428D01*
%TO.C,R5*%
X59575000Y-39889285D02*
X59325000Y-39532142D01*
X59146428Y-39889285D02*
X59146428Y-39139285D01*
X59432142Y-39139285D01*
X59503571Y-39175000D01*
X59539285Y-39210714D01*
X59575000Y-39282142D01*
X59575000Y-39389285D01*
X59539285Y-39460714D01*
X59503571Y-39496428D01*
X59432142Y-39532142D01*
X59146428Y-39532142D01*
X60253571Y-39139285D02*
X59896428Y-39139285D01*
X59860714Y-39496428D01*
X59896428Y-39460714D01*
X59967857Y-39425000D01*
X60146428Y-39425000D01*
X60217857Y-39460714D01*
X60253571Y-39496428D01*
X60289285Y-39567857D01*
X60289285Y-39746428D01*
X60253571Y-39817857D01*
X60217857Y-39853571D01*
X60146428Y-39889285D01*
X59967857Y-39889285D01*
X59896428Y-39853571D01*
X59860714Y-39817857D01*
%TO.C,C3*%
X23375000Y-44267857D02*
X23339285Y-44303571D01*
X23232142Y-44339285D01*
X23160714Y-44339285D01*
X23053571Y-44303571D01*
X22982142Y-44232142D01*
X22946428Y-44160714D01*
X22910714Y-44017857D01*
X22910714Y-43910714D01*
X22946428Y-43767857D01*
X22982142Y-43696428D01*
X23053571Y-43625000D01*
X23160714Y-43589285D01*
X23232142Y-43589285D01*
X23339285Y-43625000D01*
X23375000Y-43660714D01*
X23625000Y-43589285D02*
X24089285Y-43589285D01*
X23839285Y-43875000D01*
X23946428Y-43875000D01*
X24017857Y-43910714D01*
X24053571Y-43946428D01*
X24089285Y-44017857D01*
X24089285Y-44196428D01*
X24053571Y-44267857D01*
X24017857Y-44303571D01*
X23946428Y-44339285D01*
X23732142Y-44339285D01*
X23660714Y-44303571D01*
X23625000Y-44267857D01*
%TO.C,U2*%
X23764285Y-15896428D02*
X24371428Y-15896428D01*
X24442857Y-15860714D01*
X24478571Y-15825000D01*
X24514285Y-15753571D01*
X24514285Y-15610714D01*
X24478571Y-15539285D01*
X24442857Y-15503571D01*
X24371428Y-15467857D01*
X23764285Y-15467857D01*
X23835714Y-15146428D02*
X23800000Y-15110714D01*
X23764285Y-15039285D01*
X23764285Y-14860714D01*
X23800000Y-14789285D01*
X23835714Y-14753571D01*
X23907142Y-14717857D01*
X23978571Y-14717857D01*
X24085714Y-14753571D01*
X24514285Y-15182142D01*
X24514285Y-14717857D01*
%TO.C,R22*%
X40044921Y-13339285D02*
X39794921Y-12982142D01*
X39616349Y-13339285D02*
X39616349Y-12589285D01*
X39902064Y-12589285D01*
X39973492Y-12625000D01*
X40009206Y-12660714D01*
X40044921Y-12732142D01*
X40044921Y-12839285D01*
X40009206Y-12910714D01*
X39973492Y-12946428D01*
X39902064Y-12982142D01*
X39616349Y-12982142D01*
X40330635Y-12660714D02*
X40366349Y-12625000D01*
X40437778Y-12589285D01*
X40616349Y-12589285D01*
X40687778Y-12625000D01*
X40723492Y-12660714D01*
X40759206Y-12732142D01*
X40759206Y-12803571D01*
X40723492Y-12910714D01*
X40294921Y-13339285D01*
X40759206Y-13339285D01*
X41044921Y-12660714D02*
X41080635Y-12625000D01*
X41152064Y-12589285D01*
X41330635Y-12589285D01*
X41402064Y-12625000D01*
X41437778Y-12660714D01*
X41473492Y-12732142D01*
X41473492Y-12803571D01*
X41437778Y-12910714D01*
X41009206Y-13339285D01*
X41473492Y-13339285D01*
%TO.C,R6*%
X14211972Y-38839285D02*
X13961972Y-38482142D01*
X13783400Y-38839285D02*
X13783400Y-38089285D01*
X14069114Y-38089285D01*
X14140543Y-38125000D01*
X14176257Y-38160714D01*
X14211972Y-38232142D01*
X14211972Y-38339285D01*
X14176257Y-38410714D01*
X14140543Y-38446428D01*
X14069114Y-38482142D01*
X13783400Y-38482142D01*
X14854829Y-38089285D02*
X14711972Y-38089285D01*
X14640543Y-38125000D01*
X14604829Y-38160714D01*
X14533400Y-38267857D01*
X14497686Y-38410714D01*
X14497686Y-38696428D01*
X14533400Y-38767857D01*
X14569114Y-38803571D01*
X14640543Y-38839285D01*
X14783400Y-38839285D01*
X14854829Y-38803571D01*
X14890543Y-38767857D01*
X14926257Y-38696428D01*
X14926257Y-38517857D01*
X14890543Y-38446428D01*
X14854829Y-38410714D01*
X14783400Y-38375000D01*
X14640543Y-38375000D01*
X14569114Y-38410714D01*
X14533400Y-38446428D01*
X14497686Y-38517857D01*
%TO.C,JP5*%
X9464285Y-33275000D02*
X9821428Y-33275000D01*
X9392857Y-33489285D02*
X9642857Y-32739285D01*
X9892857Y-33489285D01*
X10464285Y-32989285D02*
X10464285Y-33489285D01*
X10285714Y-32703571D02*
X10107142Y-33239285D01*
X10571428Y-33239285D01*
%TO.C,R28*%
X29517857Y-9589285D02*
X29267857Y-9232142D01*
X29089285Y-9589285D02*
X29089285Y-8839285D01*
X29375000Y-8839285D01*
X29446428Y-8875000D01*
X29482142Y-8910714D01*
X29517857Y-8982142D01*
X29517857Y-9089285D01*
X29482142Y-9160714D01*
X29446428Y-9196428D01*
X29375000Y-9232142D01*
X29089285Y-9232142D01*
X29803571Y-8910714D02*
X29839285Y-8875000D01*
X29910714Y-8839285D01*
X30089285Y-8839285D01*
X30160714Y-8875000D01*
X30196428Y-8910714D01*
X30232142Y-8982142D01*
X30232142Y-9053571D01*
X30196428Y-9160714D01*
X29767857Y-9589285D01*
X30232142Y-9589285D01*
X30660714Y-9160714D02*
X30589285Y-9125000D01*
X30553571Y-9089285D01*
X30517857Y-9017857D01*
X30517857Y-8982142D01*
X30553571Y-8910714D01*
X30589285Y-8875000D01*
X30660714Y-8839285D01*
X30803571Y-8839285D01*
X30875000Y-8875000D01*
X30910714Y-8910714D01*
X30946428Y-8982142D01*
X30946428Y-9017857D01*
X30910714Y-9089285D01*
X30875000Y-9125000D01*
X30803571Y-9160714D01*
X30660714Y-9160714D01*
X30589285Y-9196428D01*
X30553571Y-9232142D01*
X30517857Y-9303571D01*
X30517857Y-9446428D01*
X30553571Y-9517857D01*
X30589285Y-9553571D01*
X30660714Y-9589285D01*
X30803571Y-9589285D01*
X30875000Y-9553571D01*
X30910714Y-9517857D01*
X30946428Y-9446428D01*
X30946428Y-9303571D01*
X30910714Y-9232142D01*
X30875000Y-9196428D01*
X30803571Y-9160714D01*
%TO.C,C8*%
X2125000Y-11017857D02*
X2089285Y-11053571D01*
X1982142Y-11089285D01*
X1910714Y-11089285D01*
X1803571Y-11053571D01*
X1732142Y-10982142D01*
X1696428Y-10910714D01*
X1660714Y-10767857D01*
X1660714Y-10660714D01*
X1696428Y-10517857D01*
X1732142Y-10446428D01*
X1803571Y-10375000D01*
X1910714Y-10339285D01*
X1982142Y-10339285D01*
X2089285Y-10375000D01*
X2125000Y-10410714D01*
X2553571Y-10660714D02*
X2482142Y-10625000D01*
X2446428Y-10589285D01*
X2410714Y-10517857D01*
X2410714Y-10482142D01*
X2446428Y-10410714D01*
X2482142Y-10375000D01*
X2553571Y-10339285D01*
X2696428Y-10339285D01*
X2767857Y-10375000D01*
X2803571Y-10410714D01*
X2839285Y-10482142D01*
X2839285Y-10517857D01*
X2803571Y-10589285D01*
X2767857Y-10625000D01*
X2696428Y-10660714D01*
X2553571Y-10660714D01*
X2482142Y-10696428D01*
X2446428Y-10732142D01*
X2410714Y-10803571D01*
X2410714Y-10946428D01*
X2446428Y-11017857D01*
X2482142Y-11053571D01*
X2553571Y-11089285D01*
X2696428Y-11089285D01*
X2767857Y-11053571D01*
X2803571Y-11017857D01*
X2839285Y-10946428D01*
X2839285Y-10803571D01*
X2803571Y-10732142D01*
X2767857Y-10696428D01*
X2696428Y-10660714D01*
%TO.C,D14*%
X23839285Y-37839285D02*
X23839285Y-37089285D01*
X24017857Y-37089285D01*
X24125000Y-37125000D01*
X24196428Y-37196428D01*
X24232142Y-37267857D01*
X24267857Y-37410714D01*
X24267857Y-37517857D01*
X24232142Y-37660714D01*
X24196428Y-37732142D01*
X24125000Y-37803571D01*
X24017857Y-37839285D01*
X23839285Y-37839285D01*
X24982142Y-37839285D02*
X24553571Y-37839285D01*
X24767857Y-37839285D02*
X24767857Y-37089285D01*
X24696428Y-37196428D01*
X24625000Y-37267857D01*
X24553571Y-37303571D01*
X25625000Y-37339285D02*
X25625000Y-37839285D01*
X25446428Y-37053571D02*
X25267857Y-37589285D01*
X25732142Y-37589285D01*
%TO.C,R8*%
X42875000Y-42589285D02*
X42625000Y-42232142D01*
X42446428Y-42589285D02*
X42446428Y-41839285D01*
X42732142Y-41839285D01*
X42803571Y-41875000D01*
X42839285Y-41910714D01*
X42875000Y-41982142D01*
X42875000Y-42089285D01*
X42839285Y-42160714D01*
X42803571Y-42196428D01*
X42732142Y-42232142D01*
X42446428Y-42232142D01*
X43303571Y-42160714D02*
X43232142Y-42125000D01*
X43196428Y-42089285D01*
X43160714Y-42017857D01*
X43160714Y-41982142D01*
X43196428Y-41910714D01*
X43232142Y-41875000D01*
X43303571Y-41839285D01*
X43446428Y-41839285D01*
X43517857Y-41875000D01*
X43553571Y-41910714D01*
X43589285Y-41982142D01*
X43589285Y-42017857D01*
X43553571Y-42089285D01*
X43517857Y-42125000D01*
X43446428Y-42160714D01*
X43303571Y-42160714D01*
X43232142Y-42196428D01*
X43196428Y-42232142D01*
X43160714Y-42303571D01*
X43160714Y-42446428D01*
X43196428Y-42517857D01*
X43232142Y-42553571D01*
X43303571Y-42589285D01*
X43446428Y-42589285D01*
X43517857Y-42553571D01*
X43553571Y-42517857D01*
X43589285Y-42446428D01*
X43589285Y-42303571D01*
X43553571Y-42232142D01*
X43517857Y-42196428D01*
X43446428Y-42160714D01*
%TO.C,R2*%
X17875000Y-38839285D02*
X17625000Y-38482142D01*
X17446428Y-38839285D02*
X17446428Y-38089285D01*
X17732142Y-38089285D01*
X17803571Y-38125000D01*
X17839285Y-38160714D01*
X17875000Y-38232142D01*
X17875000Y-38339285D01*
X17839285Y-38410714D01*
X17803571Y-38446428D01*
X17732142Y-38482142D01*
X17446428Y-38482142D01*
X18160714Y-38160714D02*
X18196428Y-38125000D01*
X18267857Y-38089285D01*
X18446428Y-38089285D01*
X18517857Y-38125000D01*
X18553571Y-38160714D01*
X18589285Y-38232142D01*
X18589285Y-38303571D01*
X18553571Y-38410714D01*
X18125000Y-38839285D01*
X18589285Y-38839285D01*
%TO.C,R3*%
X40875000Y-29589285D02*
X40625000Y-29232142D01*
X40446428Y-29589285D02*
X40446428Y-28839285D01*
X40732142Y-28839285D01*
X40803571Y-28875000D01*
X40839285Y-28910714D01*
X40875000Y-28982142D01*
X40875000Y-29089285D01*
X40839285Y-29160714D01*
X40803571Y-29196428D01*
X40732142Y-29232142D01*
X40446428Y-29232142D01*
X41125000Y-28839285D02*
X41589285Y-28839285D01*
X41339285Y-29125000D01*
X41446428Y-29125000D01*
X41517857Y-29160714D01*
X41553571Y-29196428D01*
X41589285Y-29267857D01*
X41589285Y-29446428D01*
X41553571Y-29517857D01*
X41517857Y-29553571D01*
X41446428Y-29589285D01*
X41232142Y-29589285D01*
X41160714Y-29553571D01*
X41125000Y-29517857D01*
%TO.C,D6*%
X50696428Y-37839285D02*
X50696428Y-37089285D01*
X50875000Y-37089285D01*
X50982142Y-37125000D01*
X51053571Y-37196428D01*
X51089285Y-37267857D01*
X51125000Y-37410714D01*
X51125000Y-37517857D01*
X51089285Y-37660714D01*
X51053571Y-37732142D01*
X50982142Y-37803571D01*
X50875000Y-37839285D01*
X50696428Y-37839285D01*
X51767857Y-37089285D02*
X51625000Y-37089285D01*
X51553571Y-37125000D01*
X51517857Y-37160714D01*
X51446428Y-37267857D01*
X51410714Y-37410714D01*
X51410714Y-37696428D01*
X51446428Y-37767857D01*
X51482142Y-37803571D01*
X51553571Y-37839285D01*
X51696428Y-37839285D01*
X51767857Y-37803571D01*
X51803571Y-37767857D01*
X51839285Y-37696428D01*
X51839285Y-37517857D01*
X51803571Y-37446428D01*
X51767857Y-37410714D01*
X51696428Y-37375000D01*
X51553571Y-37375000D01*
X51482142Y-37410714D01*
X51446428Y-37446428D01*
X51410714Y-37517857D01*
%TO.C,J7*%
X48628400Y-36281700D02*
X64071600Y-36281700D01*
X64071600Y-31773462D02*
X64071600Y-28826538D01*
X64071600Y-25773458D02*
X64071600Y-24318300D01*
X48628400Y-24318300D02*
X48628400Y-25773458D01*
X64071600Y-36281700D02*
X64071600Y-34826542D01*
X48628400Y-28826538D02*
X48628400Y-31773462D01*
X48628400Y-34826542D02*
X48628400Y-36281700D01*
X64071600Y-24318300D02*
X48628400Y-24318300D01*
%TO.C,J8*%
X63971600Y-8768300D02*
X48528400Y-8768300D01*
X63971600Y-16223462D02*
X63971600Y-13276538D01*
X48528400Y-20731700D02*
X63971600Y-20731700D01*
X48528400Y-8768300D02*
X48528400Y-10223458D01*
X63971600Y-10223458D02*
X63971600Y-8768300D01*
X48528400Y-13276538D02*
X48528400Y-16223462D01*
X48528400Y-19276542D02*
X48528400Y-20731700D01*
X63971600Y-20731700D02*
X63971600Y-19276542D01*
%TO.C,J4*%
X19976542Y-55871600D02*
X21431700Y-55871600D01*
X21431700Y-55871600D02*
X21431700Y-40428400D01*
X9468300Y-55871600D02*
X10923458Y-55871600D01*
X9468300Y-40428400D02*
X9468300Y-55871600D01*
X16923462Y-40428400D02*
X13976538Y-40428400D01*
X21431700Y-40428400D02*
X19976542Y-40428400D01*
X10923458Y-40428400D02*
X9468300Y-40428400D01*
X13976538Y-55871600D02*
X16923462Y-55871600D01*
%TO.C,J5*%
X29651538Y-55871600D02*
X32598462Y-55871600D01*
X26598458Y-40428400D02*
X25143300Y-40428400D01*
X32598462Y-40428400D02*
X29651538Y-40428400D01*
X37106700Y-40428400D02*
X35651542Y-40428400D01*
X35651542Y-55871600D02*
X37106700Y-55871600D01*
X25143300Y-40428400D02*
X25143300Y-55871600D01*
X37106700Y-55871600D02*
X37106700Y-40428400D01*
X25143300Y-55871600D02*
X26598458Y-55871600D01*
%TO.C,J3*%
X56181700Y-55921600D02*
X56181700Y-40478400D01*
X44218300Y-55921600D02*
X45673458Y-55921600D01*
X51673462Y-40478400D02*
X48726538Y-40478400D01*
X45673458Y-40478400D02*
X44218300Y-40478400D01*
X44218300Y-40478400D02*
X44218300Y-55921600D01*
X48726538Y-55921600D02*
X51673462Y-55921600D01*
X56181700Y-40478400D02*
X54726542Y-40478400D01*
X54726542Y-55921600D02*
X56181700Y-55921600D01*
D10*
%TO.C,J2*%
X6820000Y-5270000D02*
X6820000Y-6820000D01*
X6820000Y-6820000D02*
X8370000Y-6820000D01*
D11*
%TO.C,D28*%
X45650000Y-11600000D02*
X40250000Y-11600000D01*
X45650000Y-8300000D02*
X40250000Y-8300000D01*
X45650000Y-11600000D02*
X45650000Y-8300000D01*
%TO.C,R1*%
X56665000Y-51227064D02*
X56665000Y-50772936D01*
X58135000Y-51227064D02*
X58135000Y-50772936D01*
%TO.C,C4*%
X15790000Y-14711252D02*
X15790000Y-13288748D01*
X17610000Y-14711252D02*
X17610000Y-13288748D01*
%TO.C,D4*%
X8960000Y-55500000D02*
X8960000Y-52815000D01*
X7040000Y-52815000D02*
X7040000Y-55500000D01*
X8960000Y-52815000D02*
X7040000Y-52815000D01*
%TO.C,D1*%
X58360000Y-55554315D02*
X58360000Y-52869315D01*
X56440000Y-52869315D02*
X56440000Y-55554315D01*
X58360000Y-52869315D02*
X56440000Y-52869315D01*
%TO.C,C5*%
X15235000Y-14711252D02*
X15235000Y-13288748D01*
X13415000Y-14711252D02*
X13415000Y-13288748D01*
%TO.C,R21*%
X33227064Y-35485000D02*
X32772936Y-35485000D01*
X33227064Y-34015000D02*
X32772936Y-34015000D01*
%TO.C,C9*%
X8340580Y-16715000D02*
X8059420Y-16715000D01*
X8340580Y-17735000D02*
X8059420Y-17735000D01*
%TO.C,R20*%
X40527064Y-14015000D02*
X40072936Y-14015000D01*
X40527064Y-15485000D02*
X40072936Y-15485000D01*
%TO.C,R12*%
X42190000Y-29797936D02*
X42190000Y-30252064D01*
X43660000Y-29797936D02*
X43660000Y-30252064D01*
%TO.C,R9*%
X17960000Y-32352064D02*
X17960000Y-31897936D01*
X16490000Y-32352064D02*
X16490000Y-31897936D01*
%TO.C,D5*%
X61515000Y-36790000D02*
X61515000Y-38710000D01*
X64200000Y-36790000D02*
X61515000Y-36790000D01*
X61515000Y-38710000D02*
X64200000Y-38710000D01*
%TO.C,Q4*%
X12965000Y-33875000D02*
X12965000Y-34525000D01*
X16085000Y-33875000D02*
X16085000Y-32200000D01*
X16085000Y-33875000D02*
X16085000Y-34525000D01*
X12965000Y-33875000D02*
X12965000Y-33225000D01*
%TO.C,JP4*%
X8750000Y-30200000D02*
X8750000Y-30800000D01*
X5950000Y-30800000D02*
X5950000Y-30200000D01*
X8050000Y-31500000D02*
X6650000Y-31500000D01*
X6650000Y-29500000D02*
X8050000Y-29500000D01*
X8050000Y-31500000D02*
G75*
G03*
X8750000Y-30800000I0J700000D01*
G01*
X8750000Y-30200000D02*
G75*
G03*
X8050000Y-29500000I-700000J0D01*
G01*
X6650000Y-29500000D02*
G75*
G03*
X5950000Y-30200000I-1J-699999D01*
G01*
X5950000Y-30800000D02*
G75*
G03*
X6650000Y-31500000I699999J-1D01*
G01*
%TO.C,D19*%
X24710000Y-55650000D02*
X24710000Y-52965000D01*
X22790000Y-52965000D02*
X22790000Y-55650000D01*
X24710000Y-52965000D02*
X22790000Y-52965000D01*
%TO.C,JP3*%
X8050000Y-28900000D02*
X6650000Y-28900000D01*
X6650000Y-26900000D02*
X8050000Y-26900000D01*
X5950000Y-28200000D02*
X5950000Y-27600000D01*
X8750000Y-27600000D02*
X8750000Y-28200000D01*
X6650000Y-26900000D02*
G75*
G03*
X5950000Y-27600000I-1J-699999D01*
G01*
X5950000Y-28200000D02*
G75*
G03*
X6650000Y-28900000I699999J-1D01*
G01*
X8050000Y-28900000D02*
G75*
G03*
X8750000Y-28200000I0J700000D01*
G01*
X8750000Y-27600000D02*
G75*
G03*
X8050000Y-26900000I-700000J0D01*
G01*
%TO.C,Q8*%
X31060000Y-33750000D02*
X31060000Y-32075000D01*
X27940000Y-33750000D02*
X27940000Y-34400000D01*
X31060000Y-33750000D02*
X31060000Y-34400000D01*
X27940000Y-33750000D02*
X27940000Y-33100000D01*
%TO.C,R10*%
X40452064Y-31485000D02*
X39997936Y-31485000D01*
X40452064Y-30015000D02*
X39997936Y-30015000D01*
%TO.C,R16*%
X59877064Y-21515000D02*
X59422936Y-21515000D01*
X59877064Y-22985000D02*
X59422936Y-22985000D01*
%TO.C,C12*%
X50038748Y-21840000D02*
X51461252Y-21840000D01*
X50038748Y-23660000D02*
X51461252Y-23660000D01*
%TO.C,U1*%
X12860000Y-13800000D02*
X12860000Y-10040000D01*
X6040000Y-10040000D02*
X7300000Y-10040000D01*
X12860000Y-10040000D02*
X11600000Y-10040000D01*
X6040000Y-16050000D02*
X6040000Y-10040000D01*
%TO.C,D29*%
X840000Y-19585000D02*
X2760000Y-19585000D01*
X2760000Y-19585000D02*
X2760000Y-16900000D01*
X840000Y-16900000D02*
X840000Y-19585000D01*
%TO.C,R13*%
X32772936Y-37485000D02*
X33227064Y-37485000D01*
X32772936Y-36015000D02*
X33227064Y-36015000D01*
%TO.C,R19*%
X31515000Y-32227064D02*
X31515000Y-31772936D01*
X32985000Y-32227064D02*
X32985000Y-31772936D01*
%TO.C,D20*%
X64150000Y-21290000D02*
X61465000Y-21290000D01*
X61465000Y-23210000D02*
X64150000Y-23210000D01*
X61465000Y-21290000D02*
X61465000Y-23210000D01*
%TO.C,JP6*%
X6650000Y-34700000D02*
X8050000Y-34700000D01*
X8050000Y-36700000D02*
X6650000Y-36700000D01*
X8750000Y-35400000D02*
X8750000Y-36000000D01*
X5950000Y-36000000D02*
X5950000Y-35400000D01*
X6650000Y-34700000D02*
G75*
G03*
X5950000Y-35400000I-1J-699999D01*
G01*
X5950000Y-36000000D02*
G75*
G03*
X6650000Y-36700000I699999J-1D01*
G01*
X8750000Y-35400000D02*
G75*
G03*
X8050000Y-34700000I-700000J0D01*
G01*
X8050000Y-36700000D02*
G75*
G03*
X8750000Y-36000000I0J700000D01*
G01*
%TO.C,R23*%
X4372936Y-16565000D02*
X4827064Y-16565000D01*
X4372936Y-18035000D02*
X4827064Y-18035000D01*
%TO.C,Q9*%
X42000000Y-19060000D02*
X42650000Y-19060000D01*
X42000000Y-15940000D02*
X40325000Y-15940000D01*
X42000000Y-15940000D02*
X42650000Y-15940000D01*
X42000000Y-19060000D02*
X41350000Y-19060000D01*
%TO.C,JP1*%
X8050000Y-23700000D02*
X6650000Y-23700000D01*
X5950000Y-23000000D02*
X5950000Y-22400000D01*
X6650000Y-21700000D02*
X8050000Y-21700000D01*
X8750000Y-22400000D02*
X8750000Y-23000000D01*
X8050000Y-23700000D02*
G75*
G03*
X8750000Y-23000000I0J700000D01*
G01*
X6650000Y-21700000D02*
G75*
G03*
X5950000Y-22400000I-1J-699999D01*
G01*
X8750000Y-22400000D02*
G75*
G03*
X8050000Y-21700000I-700000J0D01*
G01*
X5950000Y-23000000D02*
G75*
G03*
X6650000Y-23700000I699999J-1D01*
G01*
%TO.C,C6*%
X11415580Y-16715000D02*
X11134420Y-16715000D01*
X11415580Y-17735000D02*
X11134420Y-17735000D01*
%TO.C,C1*%
X38340000Y-40038748D02*
X38340000Y-41461252D01*
X40160000Y-40038748D02*
X40160000Y-41461252D01*
%TO.C,D15*%
X46400000Y-28150000D02*
X41000000Y-28150000D01*
X46400000Y-28150000D02*
X46400000Y-24850000D01*
X46400000Y-24850000D02*
X41000000Y-24850000D01*
%TO.C,C7*%
X5510000Y-13138748D02*
X5510000Y-14561252D01*
X3690000Y-13138748D02*
X3690000Y-14561252D01*
%TO.C,D27*%
X34850000Y-37900000D02*
X34850000Y-32500000D01*
X34850000Y-37900000D02*
X38150000Y-37900000D01*
X38150000Y-37900000D02*
X38150000Y-32500000D01*
%TO.C,Q5*%
X41950000Y-31890000D02*
X40275000Y-31890000D01*
X41950000Y-35010000D02*
X41300000Y-35010000D01*
X41950000Y-31890000D02*
X42600000Y-31890000D01*
X41950000Y-35010000D02*
X42600000Y-35010000D01*
%TO.C,R15*%
X23015000Y-51277064D02*
X23015000Y-50822936D01*
X24485000Y-51277064D02*
X24485000Y-50822936D01*
%TO.C,R14*%
X44265000Y-14277064D02*
X44265000Y-13822936D01*
X45735000Y-14277064D02*
X45735000Y-13822936D01*
%TO.C,R11*%
X18177064Y-34115000D02*
X17722936Y-34115000D01*
X18177064Y-35585000D02*
X17722936Y-35585000D01*
%TO.C,R17*%
X29272936Y-37485000D02*
X29727064Y-37485000D01*
X29272936Y-36015000D02*
X29727064Y-36015000D01*
%TO.C,R4*%
X8735000Y-51127064D02*
X8735000Y-50672936D01*
X7265000Y-51127064D02*
X7265000Y-50672936D01*
%TO.C,R7*%
X45635000Y-33677064D02*
X45635000Y-33222936D01*
X44165000Y-33677064D02*
X44165000Y-33222936D01*
%TO.C,JP2*%
X8050000Y-26300000D02*
X6650000Y-26300000D01*
X6650000Y-24300000D02*
X8050000Y-24300000D01*
X8750000Y-25000000D02*
X8750000Y-25600000D01*
X5950000Y-25600000D02*
X5950000Y-25000000D01*
X8750000Y-25000000D02*
G75*
G03*
X8050000Y-24300000I-700000J0D01*
G01*
X6650000Y-24300000D02*
G75*
G03*
X5950000Y-25000000I-1J-699999D01*
G01*
X8050000Y-26300000D02*
G75*
G03*
X8750000Y-25600000I0J700000D01*
G01*
X5950000Y-25600000D02*
G75*
G03*
X6650000Y-26300000I699999J-1D01*
G01*
%TO.C,R18*%
X45735000Y-17702064D02*
X45735000Y-17247936D01*
X44265000Y-17702064D02*
X44265000Y-17247936D01*
%TO.C,R5*%
X59927064Y-38485000D02*
X59472936Y-38485000D01*
X59927064Y-37015000D02*
X59472936Y-37015000D01*
%TO.C,C3*%
X22590000Y-40288748D02*
X22590000Y-41711252D01*
X24410000Y-40288748D02*
X24410000Y-41711252D01*
%TO.C,U2*%
X25015000Y-17635000D02*
X25290000Y-17635000D01*
X34935000Y-13015000D02*
X34660000Y-13015000D01*
X25290000Y-17635000D02*
X25290000Y-18925000D01*
X25015000Y-15325000D02*
X25015000Y-17635000D01*
X25015000Y-13015000D02*
X25290000Y-13015000D01*
X34935000Y-15325000D02*
X34935000Y-17635000D01*
X25015000Y-15325000D02*
X25015000Y-13015000D01*
X34935000Y-17635000D02*
X34660000Y-17635000D01*
X34935000Y-15325000D02*
X34935000Y-13015000D01*
%TO.C,R22*%
X42290000Y-13822936D02*
X42290000Y-14277064D01*
X43760000Y-13822936D02*
X43760000Y-14277064D01*
%TO.C,R6*%
X14109908Y-36110799D02*
X14564036Y-36110799D01*
X14109908Y-37580799D02*
X14564036Y-37580799D01*
%TO.C,JP5*%
X6650000Y-32100000D02*
X8050000Y-32100000D01*
X5950000Y-33400000D02*
X5950000Y-32800000D01*
X8050000Y-34100000D02*
X6650000Y-34100000D01*
X8750000Y-32800000D02*
X8750000Y-33400000D01*
X6650000Y-32100000D02*
G75*
G03*
X5950000Y-32800000I-1J-699999D01*
G01*
X8050000Y-34100000D02*
G75*
G03*
X8750000Y-33400000I0J700000D01*
G01*
X8750000Y-32800000D02*
G75*
G03*
X8050000Y-32100000I-700000J0D01*
G01*
X5950000Y-33400000D02*
G75*
G03*
X6650000Y-34100000I699999J-1D01*
G01*
%TO.C,R28*%
X33727064Y-9985000D02*
X33272936Y-9985000D01*
X33727064Y-8515000D02*
X33272936Y-8515000D01*
%TO.C,C8*%
X1315000Y-13138748D02*
X1315000Y-14561252D01*
X3135000Y-13138748D02*
X3135000Y-14561252D01*
%TO.C,D14*%
X19850000Y-38150000D02*
X23150000Y-38150000D01*
X23150000Y-38150000D02*
X23150000Y-32750000D01*
X19850000Y-38150000D02*
X19850000Y-32750000D01*
%TO.C,R8*%
X43735000Y-40227064D02*
X43735000Y-39772936D01*
X42265000Y-40227064D02*
X42265000Y-39772936D01*
%TO.C,R2*%
X17722936Y-36115000D02*
X18177064Y-36115000D01*
X17722936Y-37585000D02*
X18177064Y-37585000D01*
%TO.C,R3*%
X45635000Y-30252064D02*
X45635000Y-29797936D01*
X44165000Y-30252064D02*
X44165000Y-29797936D01*
%TO.C,D6*%
X50050000Y-36500000D02*
X45750000Y-36500000D01*
X45750000Y-38500000D02*
X50050000Y-38500000D01*
X50050000Y-38500000D02*
X50050000Y-36500000D01*
%TD*%
D12*
%TO.C,J2*%
X8370000Y-5270000D03*
D13*
X8370000Y-2730000D03*
X10910000Y-5270000D03*
X10910000Y-2730000D03*
X13450000Y-5270000D03*
X13450000Y-2730000D03*
X15990000Y-5270000D03*
X15990000Y-2730000D03*
X18530000Y-5270000D03*
X18530000Y-2730000D03*
X21070000Y-5270000D03*
X21070000Y-2730000D03*
X23610000Y-5270000D03*
X23610000Y-2730000D03*
X26150000Y-5270000D03*
X26150000Y-2730000D03*
X28690000Y-5270000D03*
X28690000Y-2730000D03*
X31230000Y-5270000D03*
X31230000Y-2730000D03*
X33770000Y-5270000D03*
X33770000Y-2730000D03*
X36310000Y-5270000D03*
X36310000Y-2730000D03*
X38850000Y-5270000D03*
X38850000Y-2730000D03*
X41390000Y-5270000D03*
X41390000Y-2730000D03*
X43930000Y-5270000D03*
X43930000Y-2730000D03*
X46470000Y-5270000D03*
X46470000Y-2730000D03*
X49010000Y-5270000D03*
X49010000Y-2730000D03*
X51550000Y-5270000D03*
X51550000Y-2730000D03*
X54090000Y-5270000D03*
X54090000Y-2730000D03*
X56630000Y-5270000D03*
X56630000Y-2730000D03*
%TD*%
M02*
