%TF.GenerationSoftware,KiCad,Pcbnew,6.0.7+dfsg-1+b1*%
%TF.CreationDate,2022-09-05T19:20:09+01:00*%
%TF.ProjectId,owl-driver-board,6f776c2d-6472-4697-9665-722d626f6172,rev?*%
%TF.SameCoordinates,Original*%
%TF.FileFunction,Soldermask,Bot*%
%TF.FilePolarity,Negative*%
%FSLAX46Y46*%
G04 Gerber Fmt 4.6, Leading zero omitted, Abs format (unit mm)*
G04 Created by KiCad (PCBNEW 6.0.7+dfsg-1+b1) date 2022-09-05 19:20:09*
%MOMM*%
%LPD*%
G01*
G04 APERTURE LIST*
G04 Aperture macros list*
%AMRoundRect*
0 Rectangle with rounded corners*
0 $1 Rounding radius*
0 $2 $3 $4 $5 $6 $7 $8 $9 X,Y pos of 4 corners*
0 Add a 4 corners polygon primitive as box body*
4,1,4,$2,$3,$4,$5,$6,$7,$8,$9,$2,$3,0*
0 Add four circle primitives for the rounded corners*
1,1,$1+$1,$2,$3*
1,1,$1+$1,$4,$5*
1,1,$1+$1,$6,$7*
1,1,$1+$1,$8,$9*
0 Add four rect primitives between the rounded corners*
20,1,$1+$1,$2,$3,$4,$5,0*
20,1,$1+$1,$4,$5,$6,$7,0*
20,1,$1+$1,$6,$7,$8,$9,0*
20,1,$1+$1,$8,$9,$2,$3,0*%
G04 Aperture macros list end*
%ADD10R,1.727200X1.727200*%
%ADD11O,1.727200X1.727200*%
%ADD12C,2.082800*%
%ADD13C,6.200000*%
%ADD14R,2.500000X1.800000*%
%ADD15R,1.800000X2.500000*%
%ADD16RoundRect,0.150000X0.587500X0.150000X-0.587500X0.150000X-0.587500X-0.150000X0.587500X-0.150000X0*%
%ADD17RoundRect,0.250001X-0.799999X-2.474999X0.799999X-2.474999X0.799999X2.474999X-0.799999X2.474999X0*%
%ADD18RoundRect,0.250000X-0.450000X0.262500X-0.450000X-0.262500X0.450000X-0.262500X0.450000X0.262500X0*%
%ADD19RoundRect,0.150000X0.150000X-0.587500X0.150000X0.587500X-0.150000X0.587500X-0.150000X-0.587500X0*%
%ADD20R,1.200000X2.200000*%
%ADD21R,5.800000X6.400000*%
%ADD22R,1.300000X1.700000*%
%ADD23RoundRect,0.250000X0.262500X0.450000X-0.262500X0.450000X-0.262500X-0.450000X0.262500X-0.450000X0*%
%ADD24RoundRect,0.250000X-0.325000X-0.650000X0.325000X-0.650000X0.325000X0.650000X-0.325000X0.650000X0*%
%ADD25RoundRect,0.225000X-0.225000X-0.250000X0.225000X-0.250000X0.225000X0.250000X-0.225000X0.250000X0*%
%ADD26R,2.300000X3.500000*%
%ADD27R,2.200000X1.200000*%
%ADD28R,6.400000X5.800000*%
%ADD29RoundRect,0.250001X-2.474999X0.799999X-2.474999X-0.799999X2.474999X-0.799999X2.474999X0.799999X0*%
%ADD30RoundRect,0.250001X0.799999X2.474999X-0.799999X2.474999X-0.799999X-2.474999X0.799999X-2.474999X0*%
%ADD31RoundRect,0.150000X-0.150000X0.587500X-0.150000X-0.587500X0.150000X-0.587500X0.150000X0.587500X0*%
%ADD32RoundRect,0.250000X0.325000X0.650000X-0.325000X0.650000X-0.325000X-0.650000X0.325000X-0.650000X0*%
%ADD33RoundRect,0.250001X2.474999X-0.799999X2.474999X0.799999X-2.474999X0.799999X-2.474999X-0.799999X0*%
G04 APERTURE END LIST*
D10*
%TO.C,J2*%
X8370000Y-5270000D03*
D11*
X8370000Y-2730000D03*
X10910000Y-5270000D03*
X10910000Y-2730000D03*
X13450000Y-5270000D03*
X13450000Y-2730000D03*
X15990000Y-5270000D03*
X15990000Y-2730000D03*
X18530000Y-5270000D03*
X18530000Y-2730000D03*
X21070000Y-5270000D03*
X21070000Y-2730000D03*
X23610000Y-5270000D03*
X23610000Y-2730000D03*
X26150000Y-5270000D03*
X26150000Y-2730000D03*
X28690000Y-5270000D03*
X28690000Y-2730000D03*
X31230000Y-5270000D03*
X31230000Y-2730000D03*
X33770000Y-5270000D03*
X33770000Y-2730000D03*
X36310000Y-5270000D03*
X36310000Y-2730000D03*
X38850000Y-5270000D03*
X38850000Y-2730000D03*
X41390000Y-5270000D03*
X41390000Y-2730000D03*
X43930000Y-5270000D03*
X43930000Y-2730000D03*
X46470000Y-5270000D03*
X46470000Y-2730000D03*
X49010000Y-5270000D03*
X49010000Y-2730000D03*
X51550000Y-5270000D03*
X51550000Y-2730000D03*
X54090000Y-5270000D03*
X54090000Y-2730000D03*
X56630000Y-5270000D03*
X56630000Y-2730000D03*
%TD*%
D12*
%TO.C,J10*%
X41999379Y-54706800D03*
X39459379Y-54706800D03*
X41999379Y-52166800D03*
X39459379Y-52166800D03*
X41999379Y-49626800D03*
X39459379Y-49626800D03*
%TD*%
%TO.C,J1*%
X2920000Y-40170000D03*
X2920000Y-42710000D03*
X2920000Y-45250000D03*
X2920000Y-47790000D03*
%TD*%
%TO.C,J6*%
X8020000Y-47790000D03*
X5480000Y-47790000D03*
X8020000Y-45250000D03*
X5480000Y-45250000D03*
X8020000Y-42710000D03*
X5480000Y-42710000D03*
X8020000Y-40170000D03*
X5480000Y-40170000D03*
%TD*%
D13*
%TO.C,*%
X61500000Y-4000000D03*
%TD*%
%TO.C,*%
X3500000Y-4000000D03*
%TD*%
%TO.C,*%
X3500000Y-53000000D03*
%TD*%
%TO.C,*%
X61500000Y-53000000D03*
%TD*%
D12*
%TO.C,J9*%
X10140000Y-20090000D03*
X7600000Y-20090000D03*
%TD*%
D14*
%TO.C,D24*%
X55750000Y-8400000D03*
X51750000Y-8400000D03*
%TD*%
D15*
%TO.C,D8*%
X23000000Y-43500000D03*
X23000000Y-39500000D03*
%TD*%
D16*
%TO.C,D35*%
X24187500Y-7800000D03*
X24187500Y-9700000D03*
X22312500Y-8750000D03*
%TD*%
D17*
%TO.C,F1*%
X47325000Y-52400000D03*
X54275000Y-52400000D03*
%TD*%
D18*
%TO.C,R25*%
X41250000Y-20087500D03*
X41250000Y-21912500D03*
%TD*%
D14*
%TO.C,D22*%
X48600000Y-8400000D03*
X44600000Y-8400000D03*
%TD*%
D19*
%TO.C,D32*%
X32750000Y-14837500D03*
X30850000Y-14837500D03*
X31800000Y-12962500D03*
%TD*%
D20*
%TO.C,Q6*%
X30845000Y-39300000D03*
D21*
X33125000Y-45600000D03*
D20*
X35405000Y-39300000D03*
%TD*%
D15*
%TO.C,D10*%
X23000000Y-51000000D03*
X23000000Y-47000000D03*
%TD*%
D18*
%TO.C,R35*%
X27200000Y-20337500D03*
X27200000Y-22162500D03*
%TD*%
D15*
%TO.C,D30*%
X14780000Y-12700000D03*
X14780000Y-16700000D03*
%TD*%
D22*
%TO.C,D17*%
X34000000Y-36500000D03*
X30500000Y-36500000D03*
%TD*%
D23*
%TO.C,R38*%
X10512500Y-27200000D03*
X8687500Y-27200000D03*
%TD*%
D22*
%TO.C,D3*%
X41250000Y-31000000D03*
X44750000Y-31000000D03*
%TD*%
D15*
%TO.C,D21*%
X39250000Y-43000000D03*
X39250000Y-39000000D03*
%TD*%
D24*
%TO.C,C10*%
X13325000Y-9975000D03*
X16275000Y-9975000D03*
%TD*%
D22*
%TO.C,D2*%
X18750000Y-36900000D03*
X15250000Y-36900000D03*
%TD*%
D14*
%TO.C,D25*%
X32250000Y-33000000D03*
X36250000Y-33000000D03*
%TD*%
D20*
%TO.C,Q2*%
X15270000Y-39350000D03*
D21*
X17550000Y-45650000D03*
D20*
X19830000Y-39350000D03*
%TD*%
D25*
%TO.C,C11*%
X12175000Y-8000000D03*
X13725000Y-8000000D03*
%TD*%
D23*
%TO.C,R31*%
X10512500Y-32600000D03*
X8687500Y-32600000D03*
%TD*%
D22*
%TO.C,D18*%
X41250000Y-16250000D03*
X44750000Y-16250000D03*
%TD*%
D14*
%TO.C,D11*%
X59750000Y-22750000D03*
X55750000Y-22750000D03*
%TD*%
D18*
%TO.C,R26*%
X39250000Y-20087500D03*
X39250000Y-21912500D03*
%TD*%
D14*
%TO.C,D9*%
X51750000Y-22750000D03*
X47750000Y-22750000D03*
%TD*%
D18*
%TO.C,R24*%
X43250000Y-20087500D03*
X43250000Y-21912500D03*
%TD*%
D14*
%TO.C,D26*%
X37400000Y-8400000D03*
X41400000Y-8400000D03*
%TD*%
D26*
%TO.C,D7*%
X43500000Y-37050000D03*
X43500000Y-42450000D03*
%TD*%
D27*
%TO.C,Q3*%
X47550000Y-30530000D03*
D28*
X53850000Y-28250000D03*
D27*
X47550000Y-25970000D03*
%TD*%
D23*
%TO.C,R30*%
X10512500Y-30800000D03*
X8687500Y-30800000D03*
%TD*%
D29*
%TO.C,F5*%
X61000000Y-11025000D03*
X61000000Y-17975000D03*
%TD*%
D18*
%TO.C,R36*%
X25200000Y-20350000D03*
X25200000Y-22175000D03*
%TD*%
%TO.C,R34*%
X29200000Y-20350000D03*
X29200000Y-22175000D03*
%TD*%
D30*
%TO.C,F4*%
X35000000Y-52650000D03*
X28050000Y-52650000D03*
%TD*%
D19*
%TO.C,D33*%
X29250000Y-14837500D03*
X27350000Y-14837500D03*
X28300000Y-12962500D03*
%TD*%
D18*
%TO.C,R33*%
X31200000Y-20350000D03*
X31200000Y-22175000D03*
%TD*%
%TO.C,R32*%
X33200000Y-20337500D03*
X33200000Y-22162500D03*
%TD*%
D20*
%TO.C,Q1*%
X51220000Y-39400000D03*
D21*
X53500000Y-45700000D03*
D20*
X55780000Y-39400000D03*
%TD*%
D14*
%TO.C,D13*%
X38750000Y-28000000D03*
X42750000Y-28000000D03*
%TD*%
%TO.C,D23*%
X42500000Y-46400000D03*
X38500000Y-46400000D03*
%TD*%
D18*
%TO.C,R27*%
X37250000Y-20087500D03*
X37250000Y-21912500D03*
%TD*%
D23*
%TO.C,R29*%
X10512500Y-29000000D03*
X8687500Y-29000000D03*
%TD*%
D18*
%TO.C,R37*%
X23200000Y-19587500D03*
X23200000Y-21412500D03*
%TD*%
D31*
%TO.C,D34*%
X27050000Y-8812500D03*
X28950000Y-8812500D03*
X28000000Y-10687500D03*
%TD*%
D32*
%TO.C,C2*%
X44975000Y-11600000D03*
X42025000Y-11600000D03*
%TD*%
D30*
%TO.C,F2*%
X19375000Y-52400000D03*
X12425000Y-52400000D03*
%TD*%
D33*
%TO.C,F6*%
X4850000Y-16700000D03*
X4850000Y-9750000D03*
%TD*%
D27*
%TO.C,Q7*%
X47550000Y-16030000D03*
D28*
X53850000Y-13750000D03*
D27*
X47550000Y-11470000D03*
%TD*%
D15*
%TO.C,D31*%
X18400000Y-16700000D03*
X18400000Y-12700000D03*
%TD*%
D14*
%TO.C,D12*%
X19375000Y-34000000D03*
X23375000Y-34000000D03*
%TD*%
D26*
%TO.C,D16*%
X16400000Y-20300000D03*
X16400000Y-25700000D03*
%TD*%
D29*
%TO.C,F3*%
X61000000Y-26275000D03*
X61000000Y-33225000D03*
%TD*%
M02*
