M48
; DRILL file {KiCad 8.0.2+dfsg-1} date 2024-06-08T19:17:02+0100
; FORMAT={-:-/ absolute / metric / decimal}
; #@! TF.CreationDate,2024-06-08T19:17:02+01:00
; #@! TF.GenerationSoftware,Kicad,Pcbnew,8.0.2+dfsg-1
; #@! TF.FileFunction,Plated,1,2,PTH
FMAT,2
METRIC
; #@! TA.AperFunction,Plated,PTH,ComponentDrill
T1C0.300
; #@! TA.AperFunction,Plated,PTH,ViaDrill
T2C0.400
; #@! TA.AperFunction,Plated,PTH,ComponentDrill
T3C0.800
; #@! TA.AperFunction,Plated,PTH,ComponentDrill
T4C1.000
; #@! TA.AperFunction,Plated,PTH,ComponentDrill
T5C1.016
; #@! TA.AperFunction,Plated,PTH,ComponentDrill
T6C1.300
%
G90
G05
T1
X13.0Y-14.1
X14.3Y-12.8
X14.3Y-14.1
X15.6Y-12.8
X15.6Y-14.1
T2
X4.8Y-12.0
X4.8Y-13.3
X4.8Y-14.5
X6.0Y-12.0
X6.0Y-13.3
X6.0Y-14.5
X6.0Y-55.6
X6.1Y-28.4
X6.2Y-38.55
X6.8Y-24.7
X6.9Y-32.8
X7.2Y-12.0
X7.2Y-13.3
X7.2Y-14.5
X7.45Y-52.85
X8.066Y-33.121
X8.16Y-35.15
X8.95Y-9.3
X8.95Y-10.5
X8.95Y-52.3
X9.3Y-23.6
X9.41Y-37.8
X9.755Y-49.455
X10.2Y-9.3
X10.2Y-10.5
X10.9Y-44.95
X10.9Y-49.65
X10.9Y-52.9
X11.101Y-37.245
X11.2Y-14.2
X11.4Y-10.5
X12.688Y-29.198
X13.0Y-24.1
X13.0Y-54.3
X13.15Y-20.925
X13.275Y-33.175
X13.5Y-27.1
X13.531Y-28.499
X13.707Y-16.726
X14.1Y-8.5
X14.284Y-27.799
X14.3Y-26.3
X14.6Y-33.9
X14.925Y-17.5
X15.1Y-43.4
X15.2Y-48.8
X15.9Y-22.7
X16.2Y-17.5
X16.85Y-11.35
X17.6Y-44.8
X17.6Y-46.8
X17.6Y-48.8
X17.7Y-54.1
X17.78Y-13.4
X17.78Y-16.0
X18.1Y-28.5
X18.4Y-18.8
X19.7Y-19.7
X19.75Y-28.5
X20.5Y-13.653
X20.524Y-10.054
X20.8Y-55.3
X21.3Y-46.0
X21.3Y-53.241
X22.15Y-26.1
X22.2Y-36.7
X22.351Y-22.021
X22.749Y-9.696
X23.0Y-44.7
X23.118Y-52.605
X23.65Y-11.9
X23.9Y-10.8
X24.155Y-9.555
X24.187Y-12.743
X24.361Y-52.673
X24.6Y-36.7
X24.7Y-46.75
X24.895Y-49.446
X25.201Y-22.168
X25.25Y-43.3
X25.7Y-47.7
X25.899Y-13.93
X25.9Y-51.3
X26.4Y-10.8
X27.242Y-22.174
X27.4Y-16.2
X27.75Y-27.7
X27.75Y-28.9
X28.2Y-10.6
X28.3Y-15.5
X29.205Y-22.182
X29.3Y-16.2
X30.2Y-42.4
X30.6Y-40.4
X30.9Y-16.2
X31.205Y-22.182
X31.7Y-40.15
X31.8Y-15.5
X31.9Y-46.8
X31.9Y-48.5
X32.8Y-16.2
X33.8Y-8.8
X33.8Y-13.9
X33.801Y-15.4
X33.9Y-46.8
X33.9Y-48.5
X34.353Y-23.129
X35.0Y-24.75
X35.0Y-25.75
X35.0Y-26.75
X35.0Y-27.75
X35.3Y-15.9
X35.6Y-11.2
X35.9Y-48.5
X37.35Y-44.8
X39.0Y-33.95
X39.3Y-36.7
X39.9Y-28.9
X39.9Y-32.65
X40.4Y-26.9
X40.9Y-11.55
X41.135Y-34.4
X42.15Y-22.4
X42.75Y-20.75
X43.75Y-39.2
X43.75Y-41.4
X44.05Y-23.7
X44.4Y-17.5
X45.0Y-31.7
X46.5Y-19.2
X47.65Y-35.85
X48.6Y-34.4
X48.65Y-35.35
X49.4Y-43.25
X52.769Y-19.037
X52.9Y-15.5
X52.9Y-22.4
X52.9Y-30.2
X53.8Y-35.5
X54.5Y-38.8
X54.5Y-45.4
X54.6Y-24.6
X54.9Y-35.5
X55.3Y-51.1
X56.0Y-20.7
X57.7Y-39.5
X58.675Y-35.405
X59.847Y-19.24
X60.15Y-20.5
X60.3Y-34.3
X61.692Y-35.605
X61.774Y-19.8
X63.6Y-46.8
X63.8Y-42.3
T3
X20.25Y-15.3
X20.858Y-11.853
T4
X7.46Y-20.2
X10.0Y-20.2
X57.25Y-51.735
X57.25Y-54.275
T5
X2.92Y-40.17
X2.92Y-42.71
X2.92Y-45.25
X2.92Y-47.79
X5.48Y-40.17
X5.48Y-42.71
X5.48Y-45.25
X5.48Y-47.79
X8.02Y-40.17
X8.02Y-42.71
X8.02Y-45.25
X8.02Y-47.79
X8.37Y-2.73
X8.37Y-5.27
X10.91Y-2.73
X10.91Y-5.27
X13.45Y-2.73
X13.45Y-5.27
X15.99Y-2.73
X15.99Y-5.27
X18.53Y-2.73
X18.53Y-5.27
X21.07Y-2.73
X21.07Y-5.27
X23.61Y-2.73
X23.61Y-5.27
X26.15Y-2.73
X26.15Y-5.27
X28.69Y-2.73
X28.69Y-5.27
X31.23Y-2.73
X31.23Y-5.27
X33.77Y-2.73
X33.77Y-5.27
X36.31Y-2.73
X36.31Y-5.27
X38.85Y-2.73
X38.85Y-5.27
X41.39Y-2.73
X41.39Y-5.27
X43.93Y-2.73
X43.93Y-5.27
X46.47Y-2.73
X46.47Y-5.27
X49.01Y-2.73
X49.01Y-5.27
X51.55Y-2.73
X51.55Y-5.27
X54.09Y-2.73
X54.09Y-5.27
X56.63Y-2.73
X56.63Y-5.27
T6
X13.3Y-51.65
X18.3Y-51.65
X28.625Y-51.65
X33.625Y-51.65
X41.7Y-51.65
X46.7Y-51.65
X60.012Y-42.2
X60.012Y-47.2
X60.05Y-12.25
X60.05Y-17.25
X60.05Y-27.2
X60.05Y-32.2
M30
