%TF.GenerationSoftware,KiCad,Pcbnew,6.0.7+dfsg-1+b1*%
%TF.CreationDate,2022-09-05T19:20:09+01:00*%
%TF.ProjectId,owl-driver-board,6f776c2d-6472-4697-9665-722d626f6172,rev?*%
%TF.SameCoordinates,Original*%
%TF.FileFunction,Soldermask,Top*%
%TF.FilePolarity,Negative*%
%FSLAX46Y46*%
G04 Gerber Fmt 4.6, Leading zero omitted, Abs format (unit mm)*
G04 Created by KiCad (PCBNEW 6.0.7+dfsg-1+b1) date 2022-09-05 19:20:09*
%MOMM*%
%LPD*%
G01*
G04 APERTURE LIST*
G04 Aperture macros list*
%AMRoundRect*
0 Rectangle with rounded corners*
0 $1 Rounding radius*
0 $2 $3 $4 $5 $6 $7 $8 $9 X,Y pos of 4 corners*
0 Add a 4 corners polygon primitive as box body*
4,1,4,$2,$3,$4,$5,$6,$7,$8,$9,$2,$3,0*
0 Add four circle primitives for the rounded corners*
1,1,$1+$1,$2,$3*
1,1,$1+$1,$4,$5*
1,1,$1+$1,$6,$7*
1,1,$1+$1,$8,$9*
0 Add four rect primitives between the rounded corners*
20,1,$1+$1,$2,$3,$4,$5,0*
20,1,$1+$1,$4,$5,$6,$7,0*
20,1,$1+$1,$6,$7,$8,$9,0*
20,1,$1+$1,$8,$9,$2,$3,0*%
%AMFreePoly0*
4,1,22,0.500000,-0.750000,0.000000,-0.750000,0.000000,-0.745033,-0.079941,-0.743568,-0.215256,-0.701293,-0.333266,-0.622738,-0.424486,-0.514219,-0.481581,-0.384460,-0.499164,-0.250000,-0.500000,-0.250000,-0.500000,0.250000,-0.499164,0.250000,-0.499963,0.256109,-0.478152,0.396186,-0.417904,0.524511,-0.324060,0.630769,-0.204165,0.706417,-0.067858,0.745374,0.000000,0.744959,0.000000,0.750000,
0.500000,0.750000,0.500000,-0.750000,0.500000,-0.750000,$1*%
%AMFreePoly1*
4,1,20,0.000000,0.744959,0.073905,0.744508,0.209726,0.703889,0.328688,0.626782,0.421226,0.519385,0.479903,0.390333,0.500000,0.250000,0.500000,-0.250000,0.499851,-0.262216,0.476331,-0.402017,0.414519,-0.529596,0.319384,-0.634700,0.198574,-0.708877,0.061801,-0.746166,0.000000,-0.745033,0.000000,-0.750000,-0.500000,-0.750000,-0.500000,0.750000,0.000000,0.750000,0.000000,0.744959,
0.000000,0.744959,$1*%
G04 Aperture macros list end*
%ADD10R,6.502400X2.387600*%
%ADD11R,4.495800X2.387600*%
%ADD12R,2.387600X6.502400*%
%ADD13R,2.387600X4.495800*%
%ADD14R,1.727200X1.727200*%
%ADD15O,1.727200X1.727200*%
%ADD16C,2.082800*%
%ADD17C,6.200000*%
%ADD18R,2.500000X1.800000*%
%ADD19RoundRect,0.250000X0.450000X-0.262500X0.450000X0.262500X-0.450000X0.262500X-0.450000X-0.262500X0*%
%ADD20RoundRect,0.250000X0.650000X-0.325000X0.650000X0.325000X-0.650000X0.325000X-0.650000X-0.325000X0*%
%ADD21RoundRect,0.243750X-0.456250X0.243750X-0.456250X-0.243750X0.456250X-0.243750X0.456250X0.243750X0*%
%ADD22RoundRect,0.250000X0.262500X0.450000X-0.262500X0.450000X-0.262500X-0.450000X0.262500X-0.450000X0*%
%ADD23RoundRect,0.225000X0.225000X0.250000X-0.225000X0.250000X-0.225000X-0.250000X0.225000X-0.250000X0*%
%ADD24RoundRect,0.250000X-0.450000X0.262500X-0.450000X-0.262500X0.450000X-0.262500X0.450000X0.262500X0*%
%ADD25RoundRect,0.243750X-0.243750X-0.456250X0.243750X-0.456250X0.243750X0.456250X-0.243750X0.456250X0*%
%ADD26RoundRect,0.150000X-0.150000X0.587500X-0.150000X-0.587500X0.150000X-0.587500X0.150000X0.587500X0*%
%ADD27FreePoly0,0.000000*%
%ADD28FreePoly1,0.000000*%
%ADD29RoundRect,0.250000X-0.325000X-0.650000X0.325000X-0.650000X0.325000X0.650000X-0.325000X0.650000X0*%
%ADD30R,1.500000X2.000000*%
%ADD31R,3.800000X2.000000*%
%ADD32RoundRect,0.243750X0.456250X-0.243750X0.456250X0.243750X-0.456250X0.243750X-0.456250X-0.243750X0*%
%ADD33RoundRect,0.250000X-0.262500X-0.450000X0.262500X-0.450000X0.262500X0.450000X-0.262500X0.450000X0*%
%ADD34RoundRect,0.150000X-0.587500X-0.150000X0.587500X-0.150000X0.587500X0.150000X-0.587500X0.150000X0*%
%ADD35RoundRect,0.250000X-0.650000X0.325000X-0.650000X-0.325000X0.650000X-0.325000X0.650000X0.325000X0*%
%ADD36R,1.800000X2.500000*%
%ADD37RoundRect,0.100000X0.100000X-0.637500X0.100000X0.637500X-0.100000X0.637500X-0.100000X-0.637500X0*%
%ADD38R,1.300000X1.700000*%
G04 APERTURE END LIST*
D10*
%TO.C,J7*%
X61093448Y-33300002D03*
X61093448Y-27299998D03*
D11*
X49593450Y-33300002D03*
X49593450Y-27299998D03*
%TD*%
D10*
%TO.C,J8*%
X60993448Y-17750002D03*
X60993448Y-11749998D03*
D11*
X49493450Y-17750002D03*
X49493450Y-11749998D03*
%TD*%
D12*
%TO.C,J4*%
X12449998Y-52893448D03*
X18450002Y-52893448D03*
D13*
X12449998Y-41393450D03*
X18450002Y-41393450D03*
%TD*%
D12*
%TO.C,J5*%
X28124998Y-52893448D03*
X34125002Y-52893448D03*
D13*
X28124998Y-41393450D03*
X34125002Y-41393450D03*
%TD*%
D12*
%TO.C,J3*%
X47199998Y-52943448D03*
X53200002Y-52943448D03*
D13*
X47199998Y-41443450D03*
X53200002Y-41443450D03*
%TD*%
D14*
%TO.C,J2*%
X8370000Y-5270000D03*
D15*
X8370000Y-2730000D03*
X10910000Y-5270000D03*
X10910000Y-2730000D03*
X13450000Y-5270000D03*
X13450000Y-2730000D03*
X15990000Y-5270000D03*
X15990000Y-2730000D03*
X18530000Y-5270000D03*
X18530000Y-2730000D03*
X21070000Y-5270000D03*
X21070000Y-2730000D03*
X23610000Y-5270000D03*
X23610000Y-2730000D03*
X26150000Y-5270000D03*
X26150000Y-2730000D03*
X28690000Y-5270000D03*
X28690000Y-2730000D03*
X31230000Y-5270000D03*
X31230000Y-2730000D03*
X33770000Y-5270000D03*
X33770000Y-2730000D03*
X36310000Y-5270000D03*
X36310000Y-2730000D03*
X38850000Y-5270000D03*
X38850000Y-2730000D03*
X41390000Y-5270000D03*
X41390000Y-2730000D03*
X43930000Y-5270000D03*
X43930000Y-2730000D03*
X46470000Y-5270000D03*
X46470000Y-2730000D03*
X49010000Y-5270000D03*
X49010000Y-2730000D03*
X51550000Y-5270000D03*
X51550000Y-2730000D03*
X54090000Y-5270000D03*
X54090000Y-2730000D03*
X56630000Y-5270000D03*
X56630000Y-2730000D03*
%TD*%
D16*
%TO.C,J10*%
X41999379Y-54706800D03*
X39459379Y-54706800D03*
X41999379Y-52166800D03*
X39459379Y-52166800D03*
X41999379Y-49626800D03*
X39459379Y-49626800D03*
%TD*%
%TO.C,J1*%
X2920000Y-40170000D03*
X2920000Y-42710000D03*
X2920000Y-45250000D03*
X2920000Y-47790000D03*
%TD*%
%TO.C,J6*%
X8020000Y-47790000D03*
X5480000Y-47790000D03*
X8020000Y-45250000D03*
X5480000Y-45250000D03*
X8020000Y-42710000D03*
X5480000Y-42710000D03*
X8020000Y-40170000D03*
X5480000Y-40170000D03*
%TD*%
D17*
%TO.C,*%
X61500000Y-4000000D03*
%TD*%
%TO.C,*%
X3500000Y-4000000D03*
%TD*%
%TO.C,*%
X3500000Y-53000000D03*
%TD*%
%TO.C,*%
X61500000Y-53000000D03*
%TD*%
D18*
%TO.C,D28*%
X44250000Y-9950000D03*
X40250000Y-9950000D03*
%TD*%
D19*
%TO.C,R1*%
X57400000Y-51912500D03*
X57400000Y-50087500D03*
%TD*%
D20*
%TO.C,C4*%
X16700000Y-15475000D03*
X16700000Y-12525000D03*
%TD*%
D21*
%TO.C,D4*%
X8000000Y-53562500D03*
X8000000Y-55437500D03*
%TD*%
%TO.C,D1*%
X57400000Y-53616815D03*
X57400000Y-55491815D03*
%TD*%
D20*
%TO.C,C5*%
X14325000Y-15475000D03*
X14325000Y-12525000D03*
%TD*%
D22*
%TO.C,R21*%
X33912500Y-34750000D03*
X32087500Y-34750000D03*
%TD*%
D23*
%TO.C,C9*%
X8975000Y-17225000D03*
X7425000Y-17225000D03*
%TD*%
D22*
%TO.C,R20*%
X41212500Y-14750000D03*
X39387500Y-14750000D03*
%TD*%
D24*
%TO.C,R12*%
X42925000Y-29112500D03*
X42925000Y-30937500D03*
%TD*%
D19*
%TO.C,R9*%
X17225000Y-33037500D03*
X17225000Y-31212500D03*
%TD*%
D25*
%TO.C,D5*%
X62262500Y-37750000D03*
X64137500Y-37750000D03*
%TD*%
D26*
%TO.C,Q4*%
X15475000Y-32937500D03*
X13575000Y-32937500D03*
X14525000Y-34812500D03*
%TD*%
D16*
%TO.C,J9*%
X10140000Y-20090000D03*
X7600000Y-20090000D03*
%TD*%
D27*
%TO.C,JP4*%
X6700000Y-30500000D03*
D28*
X8000000Y-30500000D03*
%TD*%
D21*
%TO.C,D19*%
X23750000Y-53712500D03*
X23750000Y-55587500D03*
%TD*%
D27*
%TO.C,JP3*%
X6700000Y-27900000D03*
D28*
X8000000Y-27900000D03*
%TD*%
D26*
%TO.C,Q8*%
X30450000Y-32812500D03*
X28550000Y-32812500D03*
X29500000Y-34687500D03*
%TD*%
D22*
%TO.C,R10*%
X41137500Y-30750000D03*
X39312500Y-30750000D03*
%TD*%
%TO.C,R16*%
X60562500Y-22250000D03*
X58737500Y-22250000D03*
%TD*%
D29*
%TO.C,C12*%
X49275000Y-22750000D03*
X52225000Y-22750000D03*
%TD*%
D30*
%TO.C,U1*%
X7150000Y-15100000D03*
D31*
X9450000Y-8800000D03*
D30*
X9450000Y-15100000D03*
X11750000Y-15100000D03*
%TD*%
D32*
%TO.C,D29*%
X1800000Y-18837500D03*
X1800000Y-16962500D03*
%TD*%
D33*
%TO.C,R13*%
X32087500Y-36750000D03*
X33912500Y-36750000D03*
%TD*%
D19*
%TO.C,R19*%
X32250000Y-32912500D03*
X32250000Y-31087500D03*
%TD*%
D25*
%TO.C,D20*%
X62212500Y-22250000D03*
X64087500Y-22250000D03*
%TD*%
D27*
%TO.C,JP6*%
X6700000Y-35700000D03*
D28*
X8000000Y-35700000D03*
%TD*%
D33*
%TO.C,R23*%
X3687500Y-17300000D03*
X5512500Y-17300000D03*
%TD*%
D34*
%TO.C,Q9*%
X41062500Y-16550000D03*
X41062500Y-18450000D03*
X42937500Y-17500000D03*
%TD*%
D27*
%TO.C,JP1*%
X6700000Y-22700000D03*
D28*
X8000000Y-22700000D03*
%TD*%
D23*
%TO.C,C6*%
X12050000Y-17225000D03*
X10500000Y-17225000D03*
%TD*%
D35*
%TO.C,C1*%
X39250000Y-39275000D03*
X39250000Y-42225000D03*
%TD*%
D18*
%TO.C,D15*%
X45000000Y-26500000D03*
X41000000Y-26500000D03*
%TD*%
D35*
%TO.C,C7*%
X4600000Y-12375000D03*
X4600000Y-15325000D03*
%TD*%
D36*
%TO.C,D27*%
X36500000Y-36500000D03*
X36500000Y-32500000D03*
%TD*%
D34*
%TO.C,Q5*%
X41012500Y-32500000D03*
X41012500Y-34400000D03*
X42887500Y-33450000D03*
%TD*%
D19*
%TO.C,R15*%
X23750000Y-51962500D03*
X23750000Y-50137500D03*
%TD*%
%TO.C,R14*%
X45000000Y-14962500D03*
X45000000Y-13137500D03*
%TD*%
D22*
%TO.C,R11*%
X18862500Y-34850000D03*
X17037500Y-34850000D03*
%TD*%
D33*
%TO.C,R17*%
X28587500Y-36750000D03*
X30412500Y-36750000D03*
%TD*%
D19*
%TO.C,R4*%
X8000000Y-51812500D03*
X8000000Y-49987500D03*
%TD*%
%TO.C,R7*%
X44900000Y-34362500D03*
X44900000Y-32537500D03*
%TD*%
D27*
%TO.C,JP2*%
X6700000Y-25300000D03*
D28*
X8000000Y-25300000D03*
%TD*%
D19*
%TO.C,R18*%
X45000000Y-18387500D03*
X45000000Y-16562500D03*
%TD*%
D22*
%TO.C,R5*%
X60612500Y-37750000D03*
X58787500Y-37750000D03*
%TD*%
D35*
%TO.C,C3*%
X23500000Y-39525000D03*
X23500000Y-42475000D03*
%TD*%
D37*
%TO.C,U2*%
X25750000Y-18187500D03*
X26400000Y-18187500D03*
X27050000Y-18187500D03*
X27700000Y-18187500D03*
X28350000Y-18187500D03*
X29000000Y-18187500D03*
X29650000Y-18187500D03*
X30300000Y-18187500D03*
X30950000Y-18187500D03*
X31600000Y-18187500D03*
X32250000Y-18187500D03*
X32900000Y-18187500D03*
X33550000Y-18187500D03*
X34200000Y-18187500D03*
X34200000Y-12462500D03*
X33550000Y-12462500D03*
X32900000Y-12462500D03*
X32250000Y-12462500D03*
X31600000Y-12462500D03*
X30950000Y-12462500D03*
X30300000Y-12462500D03*
X29650000Y-12462500D03*
X29000000Y-12462500D03*
X28350000Y-12462500D03*
X27700000Y-12462500D03*
X27050000Y-12462500D03*
X26400000Y-12462500D03*
X25750000Y-12462500D03*
%TD*%
D24*
%TO.C,R22*%
X43025000Y-13137500D03*
X43025000Y-14962500D03*
%TD*%
D33*
%TO.C,R6*%
X13424472Y-36845799D03*
X15249472Y-36845799D03*
%TD*%
D27*
%TO.C,JP5*%
X6700000Y-33100000D03*
D28*
X8000000Y-33100000D03*
%TD*%
D22*
%TO.C,R28*%
X34412500Y-9250000D03*
X32587500Y-9250000D03*
%TD*%
D35*
%TO.C,C8*%
X2225000Y-12375000D03*
X2225000Y-15325000D03*
%TD*%
D36*
%TO.C,D14*%
X21500000Y-36750000D03*
X21500000Y-32750000D03*
%TD*%
D19*
%TO.C,R8*%
X43000000Y-40912500D03*
X43000000Y-39087500D03*
%TD*%
D33*
%TO.C,R2*%
X17037500Y-36850000D03*
X18862500Y-36850000D03*
%TD*%
D19*
%TO.C,R3*%
X44900000Y-30937500D03*
X44900000Y-29112500D03*
%TD*%
D38*
%TO.C,D6*%
X49250000Y-37500000D03*
X45750000Y-37500000D03*
%TD*%
M02*
