G04 #@! TF.GenerationSoftware,KiCad,Pcbnew,6.0.7+dfsg-1+b1*
G04 #@! TF.CreationDate,2022-09-08T18:59:39+01:00*
G04 #@! TF.ProjectId,owl-driver-board,6f776c2d-6472-4697-9665-722d626f6172,rev?*
G04 #@! TF.SameCoordinates,Original*
G04 #@! TF.FileFunction,Soldermask,Bot*
G04 #@! TF.FilePolarity,Negative*
%FSLAX46Y46*%
G04 Gerber Fmt 4.6, Leading zero omitted, Abs format (unit mm)*
G04 Created by KiCad (PCBNEW 6.0.7+dfsg-1+b1) date 2022-09-08 18:59:39*
%MOMM*%
%LPD*%
G01*
G04 APERTURE LIST*
G04 Aperture macros list*
%AMRoundRect*
0 Rectangle with rounded corners*
0 $1 Rounding radius*
0 $2 $3 $4 $5 $6 $7 $8 $9 X,Y pos of 4 corners*
0 Add a 4 corners polygon primitive as box body*
4,1,4,$2,$3,$4,$5,$6,$7,$8,$9,$2,$3,0*
0 Add four circle primitives for the rounded corners*
1,1,$1+$1,$2,$3*
1,1,$1+$1,$4,$5*
1,1,$1+$1,$6,$7*
1,1,$1+$1,$8,$9*
0 Add four rect primitives between the rounded corners*
20,1,$1+$1,$2,$3,$4,$5,0*
20,1,$1+$1,$4,$5,$6,$7,0*
20,1,$1+$1,$6,$7,$8,$9,0*
20,1,$1+$1,$8,$9,$2,$3,0*%
%AMRotRect*
0 Rectangle, with rotation*
0 The origin of the aperture is its center*
0 $1 length*
0 $2 width*
0 $3 Rotation angle, in degrees counterclockwise*
0 Add horizontal line*
21,1,$1,$2,0,0,$3*%
G04 Aperture macros list end*
%ADD10C,6.200000*%
%ADD11R,1.727200X1.727200*%
%ADD12O,1.727200X1.727200*%
%ADD13C,2.082800*%
%ADD14R,2.500000X1.800000*%
%ADD15R,1.800000X2.500000*%
%ADD16RoundRect,0.150000X0.587500X0.150000X-0.587500X0.150000X-0.587500X-0.150000X0.587500X-0.150000X0*%
%ADD17RoundRect,0.250000X-0.712500X-2.475000X0.712500X-2.475000X0.712500X2.475000X-0.712500X2.475000X0*%
%ADD18RoundRect,0.250000X-0.450000X0.262500X-0.450000X-0.262500X0.450000X-0.262500X0.450000X0.262500X0*%
%ADD19RoundRect,0.150000X0.150000X-0.587500X0.150000X0.587500X-0.150000X0.587500X-0.150000X-0.587500X0*%
%ADD20R,1.200000X2.200000*%
%ADD21R,5.800000X6.400000*%
%ADD22RoundRect,0.250000X0.325000X0.650000X-0.325000X0.650000X-0.325000X-0.650000X0.325000X-0.650000X0*%
%ADD23R,1.300000X1.700000*%
%ADD24RoundRect,0.250000X0.262500X0.450000X-0.262500X0.450000X-0.262500X-0.450000X0.262500X-0.450000X0*%
%ADD25R,2.300000X3.500000*%
%ADD26R,2.200000X1.200000*%
%ADD27R,6.400000X5.800000*%
%ADD28RoundRect,0.250000X-0.325000X-0.650000X0.325000X-0.650000X0.325000X0.650000X-0.325000X0.650000X0*%
%ADD29RoundRect,0.250000X-2.475000X0.712500X-2.475000X-0.712500X2.475000X-0.712500X2.475000X0.712500X0*%
%ADD30RoundRect,0.250000X0.712500X2.475000X-0.712500X2.475000X-0.712500X-2.475000X0.712500X-2.475000X0*%
%ADD31RoundRect,0.150000X-0.150000X0.587500X-0.150000X-0.587500X0.150000X-0.587500X0.150000X0.587500X0*%
%ADD32RoundRect,0.250000X-0.412500X-0.925000X0.412500X-0.925000X0.412500X0.925000X-0.412500X0.925000X0*%
%ADD33RotRect,1.600000X1.600000X335.000000*%
%ADD34C,1.600000*%
G04 APERTURE END LIST*
D10*
X61500000Y-4000000D03*
X3500000Y-4000000D03*
X3500000Y-53000000D03*
X61500000Y-53000000D03*
D11*
X8370000Y-5270000D03*
D12*
X8370000Y-2730000D03*
X10910000Y-5270000D03*
X10910000Y-2730000D03*
X13450000Y-5270000D03*
X13450000Y-2730000D03*
X15990000Y-5270000D03*
X15990000Y-2730000D03*
X18530000Y-5270000D03*
X18530000Y-2730000D03*
X21070000Y-5270000D03*
X21070000Y-2730000D03*
X23610000Y-5270000D03*
X23610000Y-2730000D03*
X26150000Y-5270000D03*
X26150000Y-2730000D03*
X28690000Y-5270000D03*
X28690000Y-2730000D03*
X31230000Y-5270000D03*
X31230000Y-2730000D03*
X33770000Y-5270000D03*
X33770000Y-2730000D03*
X36310000Y-5270000D03*
X36310000Y-2730000D03*
X38850000Y-5270000D03*
X38850000Y-2730000D03*
X41390000Y-5270000D03*
X41390000Y-2730000D03*
X43930000Y-5270000D03*
X43930000Y-2730000D03*
X46470000Y-5270000D03*
X46470000Y-2730000D03*
X49010000Y-5270000D03*
X49010000Y-2730000D03*
X51550000Y-5270000D03*
X51550000Y-2730000D03*
X54090000Y-5270000D03*
X54090000Y-2730000D03*
X56630000Y-5270000D03*
X56630000Y-2730000D03*
D13*
X2920000Y-40170000D03*
X2920000Y-42710000D03*
X2920000Y-45250000D03*
X2920000Y-47790000D03*
X41999379Y-54706800D03*
X39459379Y-54706800D03*
X41999379Y-52166800D03*
X39459379Y-52166800D03*
X41999379Y-49626800D03*
X39459379Y-49626800D03*
X10140000Y-20090000D03*
X7600000Y-20090000D03*
X8020000Y-47790000D03*
X5480000Y-47790000D03*
X8020000Y-45250000D03*
X5480000Y-45250000D03*
X8020000Y-42710000D03*
X5480000Y-42710000D03*
X8020000Y-40170000D03*
X5480000Y-40170000D03*
D14*
X51750000Y-8400000D03*
X55750000Y-8400000D03*
D15*
X23000000Y-39500000D03*
X23000000Y-43500000D03*
D16*
X26437500Y-7850000D03*
X26437500Y-9750000D03*
X24562500Y-8800000D03*
D17*
X47412500Y-52500000D03*
X54187500Y-52500000D03*
D18*
X41250000Y-20087500D03*
X41250000Y-21912500D03*
D14*
X44600000Y-8400000D03*
X48600000Y-8400000D03*
D19*
X32750000Y-14837500D03*
X30850000Y-14837500D03*
X31800000Y-12962500D03*
D20*
X30845000Y-39300000D03*
D21*
X33125000Y-45600000D03*
D20*
X35405000Y-39300000D03*
D15*
X23000000Y-47000000D03*
X23000000Y-51000000D03*
D18*
X27200000Y-20337500D03*
X27200000Y-22162500D03*
D22*
X21975000Y-16800000D03*
X19025000Y-16800000D03*
D23*
X34000000Y-36500000D03*
X30500000Y-36500000D03*
D24*
X10512500Y-27200000D03*
X8687500Y-27200000D03*
D23*
X41250000Y-31000000D03*
X44750000Y-31000000D03*
D15*
X39250000Y-39000000D03*
X39250000Y-43000000D03*
D23*
X18750000Y-36900000D03*
X15250000Y-36900000D03*
D14*
X36250000Y-33000000D03*
X32250000Y-33000000D03*
D20*
X15270000Y-39350000D03*
D21*
X17550000Y-45650000D03*
D20*
X19830000Y-39350000D03*
D24*
X10512500Y-32600000D03*
X8687500Y-32600000D03*
D23*
X41250000Y-16250000D03*
X44750000Y-16250000D03*
D14*
X55750000Y-22750000D03*
X59750000Y-22750000D03*
D18*
X39250000Y-20087500D03*
X39250000Y-21912500D03*
D14*
X47750000Y-22750000D03*
X51750000Y-22750000D03*
D18*
X43250000Y-20087500D03*
X43250000Y-21912500D03*
D14*
X41400000Y-8400000D03*
X37400000Y-8400000D03*
D25*
X43500000Y-37050000D03*
X43500000Y-42450000D03*
D26*
X47550000Y-30530000D03*
D27*
X53850000Y-28250000D03*
D26*
X47550000Y-25970000D03*
D24*
X10512500Y-30800000D03*
X8687500Y-30800000D03*
D28*
X12475000Y-10000000D03*
X9525000Y-10000000D03*
D29*
X60800000Y-11112500D03*
X60800000Y-17887500D03*
D18*
X25200000Y-20350000D03*
X25200000Y-22175000D03*
X29200000Y-20350000D03*
X29200000Y-22175000D03*
D30*
X34887500Y-52500000D03*
X28112500Y-52500000D03*
D19*
X29250000Y-14837500D03*
X27350000Y-14837500D03*
X28300000Y-12962500D03*
D18*
X31200000Y-20350000D03*
X31200000Y-22175000D03*
X33200000Y-20337500D03*
X33200000Y-22162500D03*
D20*
X51220000Y-39400000D03*
D21*
X53500000Y-45700000D03*
D20*
X55780000Y-39400000D03*
D14*
X42750000Y-28000000D03*
X38750000Y-28000000D03*
X38500000Y-46400000D03*
X42500000Y-46400000D03*
D18*
X37250000Y-20087500D03*
X37250000Y-21912500D03*
D24*
X10512500Y-29000000D03*
X8687500Y-29000000D03*
D18*
X23200000Y-19587500D03*
X23200000Y-21412500D03*
D31*
X28750000Y-8862500D03*
X30650000Y-8862500D03*
X29700000Y-10737500D03*
D14*
X9700000Y-16900000D03*
X13700000Y-16900000D03*
D22*
X44975000Y-11600000D03*
X42025000Y-11600000D03*
D30*
X19287500Y-52500000D03*
X12512500Y-52500000D03*
D26*
X47550000Y-16030000D03*
D27*
X53850000Y-13750000D03*
D26*
X47550000Y-11470000D03*
D32*
X13337500Y-13000000D03*
X10262500Y-13000000D03*
D33*
X17200000Y-10200000D03*
D34*
X20372077Y-11679164D03*
D14*
X23375000Y-34000000D03*
X19375000Y-34000000D03*
D25*
X17700000Y-20100000D03*
X17700000Y-25500000D03*
D29*
X60800000Y-26312500D03*
X60800000Y-33087500D03*
M02*
