G04 #@! TF.GenerationSoftware,KiCad,Pcbnew,8.0.2+dfsg-1*
G04 #@! TF.CreationDate,2024-06-08T19:17:01+01:00*
G04 #@! TF.ProjectId,owl-driver-board,6f776c2d-6472-4697-9665-722d626f6172,rev?*
G04 #@! TF.SameCoordinates,Original*
G04 #@! TF.FileFunction,Profile,NP*
%FSLAX46Y46*%
G04 Gerber Fmt 4.6, Leading zero omitted, Abs format (unit mm)*
G04 Created by KiCad (PCBNEW 8.0.2+dfsg-1) date 2024-06-08 19:17:01*
%MOMM*%
%LPD*%
G01*
G04 APERTURE LIST*
G04 #@! TA.AperFunction,Profile*
%ADD10C,0.150000*%
G04 #@! TD*
G04 APERTURE END LIST*
D10*
X3000000Y-56500000D02*
G75*
G02*
X0Y-53500000I0J3000000D01*
G01*
X65000000Y-53500000D02*
G75*
G02*
X62000000Y-56500000I-3000000J0D01*
G01*
X1000000Y-20000000D02*
G75*
G02*
X0Y-19000000I0J1000000D01*
G01*
X4000000Y-20000000D02*
G75*
G02*
X5000000Y-21000000I0J-1000000D01*
G01*
X5000000Y-36000000D02*
G75*
G02*
X4000000Y-37000000I-1000000J0D01*
G01*
X0Y-38000000D02*
G75*
G02*
X1000000Y-37000000I1000000J0D01*
G01*
X0Y-3000000D02*
G75*
G02*
X3000000Y-500000I3000000J-550000D01*
G01*
X3000000Y-500000D02*
X62000000Y-500000D01*
X62000000Y-500000D02*
G75*
G02*
X65000000Y-3500000I0J-3000000D01*
G01*
X65000000Y-3500000D02*
X65000000Y-53500000D01*
X50346447Y-56000000D02*
G75*
G02*
X49846447Y-56500047I-500047J0D01*
G01*
X53446447Y-37500000D02*
X53450000Y-55996447D01*
X3000000Y-56500000D02*
X49846447Y-56500000D01*
X1000000Y-37000000D02*
X4000000Y-37000000D01*
X0Y-3000000D02*
X0Y-19000000D01*
X53950000Y-56496447D02*
G75*
G02*
X53449953Y-55996447I0J500047D01*
G01*
X50350000Y-37500000D02*
X50346447Y-56000000D01*
X50350000Y-37500000D02*
G75*
G02*
X50850000Y-37000000I500000J0D01*
G01*
X5000000Y-21000000D02*
X5000000Y-36000000D01*
X0Y-38000000D02*
X0Y-53500000D01*
X1000000Y-20000000D02*
X4000000Y-20000000D01*
X52946447Y-37000000D02*
G75*
G02*
X53446400Y-37500000I-47J-500000D01*
G01*
X53950000Y-56496447D02*
X62000000Y-56500000D01*
X52946447Y-37000000D02*
X50850000Y-37000000D01*
M02*
