G04 #@! TF.GenerationSoftware,KiCad,Pcbnew,8.0.2+dfsg-1*
G04 #@! TF.CreationDate,2024-06-08T19:17:01+01:00*
G04 #@! TF.ProjectId,owl-driver-board,6f776c2d-6472-4697-9665-722d626f6172,rev?*
G04 #@! TF.SameCoordinates,Original*
G04 #@! TF.FileFunction,Other,Comment*
%FSLAX46Y46*%
G04 Gerber Fmt 4.6, Leading zero omitted, Abs format (unit mm)*
G04 Created by KiCad (PCBNEW 8.0.2+dfsg-1) date 2024-06-08 19:17:01*
%MOMM*%
%LPD*%
G01*
G04 APERTURE LIST*
%ADD10C,0.120000*%
G04 APERTURE END LIST*
D10*
X30120537Y-66736995D02*
X30214287Y-65986995D01*
X30214287Y-65986995D02*
X30392858Y-65986995D01*
X30392858Y-65986995D02*
X30495537Y-66022709D01*
X30495537Y-66022709D02*
X30558037Y-66094138D01*
X30558037Y-66094138D02*
X30584822Y-66165566D01*
X30584822Y-66165566D02*
X30602680Y-66308423D01*
X30602680Y-66308423D02*
X30589287Y-66415566D01*
X30589287Y-66415566D02*
X30535715Y-66558423D01*
X30535715Y-66558423D02*
X30491072Y-66629852D01*
X30491072Y-66629852D02*
X30410715Y-66701281D01*
X30410715Y-66701281D02*
X30299108Y-66736995D01*
X30299108Y-66736995D02*
X30120537Y-66736995D01*
X30870537Y-66736995D02*
X30933037Y-66236995D01*
X30964287Y-65986995D02*
X30924108Y-66022709D01*
X30924108Y-66022709D02*
X30955358Y-66058423D01*
X30955358Y-66058423D02*
X30995537Y-66022709D01*
X30995537Y-66022709D02*
X30964287Y-65986995D01*
X30964287Y-65986995D02*
X30955358Y-66058423D01*
X31227680Y-66736995D02*
X31290180Y-66236995D01*
X31281251Y-66308423D02*
X31321430Y-66272709D01*
X31321430Y-66272709D02*
X31397323Y-66236995D01*
X31397323Y-66236995D02*
X31504465Y-66236995D01*
X31504465Y-66236995D02*
X31571430Y-66272709D01*
X31571430Y-66272709D02*
X31598215Y-66344138D01*
X31598215Y-66344138D02*
X31549108Y-66736995D01*
X31598215Y-66344138D02*
X31642858Y-66272709D01*
X31642858Y-66272709D02*
X31718751Y-66236995D01*
X31718751Y-66236995D02*
X31825894Y-66236995D01*
X31825894Y-66236995D02*
X31892858Y-66272709D01*
X31892858Y-66272709D02*
X31919644Y-66344138D01*
X31919644Y-66344138D02*
X31870537Y-66736995D01*
X32517858Y-66701281D02*
X32441965Y-66736995D01*
X32441965Y-66736995D02*
X32299108Y-66736995D01*
X32299108Y-66736995D02*
X32232144Y-66701281D01*
X32232144Y-66701281D02*
X32205358Y-66629852D01*
X32205358Y-66629852D02*
X32241073Y-66344138D01*
X32241073Y-66344138D02*
X32285715Y-66272709D01*
X32285715Y-66272709D02*
X32361608Y-66236995D01*
X32361608Y-66236995D02*
X32504465Y-66236995D01*
X32504465Y-66236995D02*
X32571430Y-66272709D01*
X32571430Y-66272709D02*
X32598215Y-66344138D01*
X32598215Y-66344138D02*
X32589287Y-66415566D01*
X32589287Y-66415566D02*
X32223215Y-66486995D01*
X32933037Y-66236995D02*
X32870537Y-66736995D01*
X32924108Y-66308423D02*
X32964287Y-66272709D01*
X32964287Y-66272709D02*
X33040180Y-66236995D01*
X33040180Y-66236995D02*
X33147322Y-66236995D01*
X33147322Y-66236995D02*
X33214287Y-66272709D01*
X33214287Y-66272709D02*
X33241072Y-66344138D01*
X33241072Y-66344138D02*
X33191965Y-66736995D01*
X33517858Y-66701281D02*
X33584822Y-66736995D01*
X33584822Y-66736995D02*
X33727679Y-66736995D01*
X33727679Y-66736995D02*
X33803572Y-66701281D01*
X33803572Y-66701281D02*
X33848215Y-66629852D01*
X33848215Y-66629852D02*
X33852679Y-66594138D01*
X33852679Y-66594138D02*
X33825893Y-66522709D01*
X33825893Y-66522709D02*
X33758929Y-66486995D01*
X33758929Y-66486995D02*
X33651786Y-66486995D01*
X33651786Y-66486995D02*
X33584822Y-66451281D01*
X33584822Y-66451281D02*
X33558036Y-66379852D01*
X33558036Y-66379852D02*
X33562501Y-66344138D01*
X33562501Y-66344138D02*
X33607143Y-66272709D01*
X33607143Y-66272709D02*
X33683036Y-66236995D01*
X33683036Y-66236995D02*
X33790179Y-66236995D01*
X33790179Y-66236995D02*
X33857143Y-66272709D01*
X34156251Y-66736995D02*
X34218751Y-66236995D01*
X34250001Y-65986995D02*
X34209822Y-66022709D01*
X34209822Y-66022709D02*
X34241072Y-66058423D01*
X34241072Y-66058423D02*
X34281251Y-66022709D01*
X34281251Y-66022709D02*
X34250001Y-65986995D01*
X34250001Y-65986995D02*
X34241072Y-66058423D01*
X34620537Y-66736995D02*
X34553572Y-66701281D01*
X34553572Y-66701281D02*
X34522322Y-66665566D01*
X34522322Y-66665566D02*
X34495537Y-66594138D01*
X34495537Y-66594138D02*
X34522322Y-66379852D01*
X34522322Y-66379852D02*
X34566965Y-66308423D01*
X34566965Y-66308423D02*
X34607144Y-66272709D01*
X34607144Y-66272709D02*
X34683037Y-66236995D01*
X34683037Y-66236995D02*
X34790179Y-66236995D01*
X34790179Y-66236995D02*
X34857144Y-66272709D01*
X34857144Y-66272709D02*
X34888394Y-66308423D01*
X34888394Y-66308423D02*
X34915179Y-66379852D01*
X34915179Y-66379852D02*
X34888394Y-66594138D01*
X34888394Y-66594138D02*
X34843751Y-66665566D01*
X34843751Y-66665566D02*
X34803572Y-66701281D01*
X34803572Y-66701281D02*
X34727679Y-66736995D01*
X34727679Y-66736995D02*
X34620537Y-66736995D01*
X35254465Y-66236995D02*
X35191965Y-66736995D01*
X35245536Y-66308423D02*
X35285715Y-66272709D01*
X35285715Y-66272709D02*
X35361608Y-66236995D01*
X35361608Y-66236995D02*
X35468750Y-66236995D01*
X35468750Y-66236995D02*
X35535715Y-66272709D01*
X35535715Y-66272709D02*
X35562500Y-66344138D01*
X35562500Y-66344138D02*
X35513393Y-66736995D01*
X35839286Y-66701281D02*
X35906250Y-66736995D01*
X35906250Y-66736995D02*
X36049107Y-66736995D01*
X36049107Y-66736995D02*
X36125000Y-66701281D01*
X36125000Y-66701281D02*
X36169643Y-66629852D01*
X36169643Y-66629852D02*
X36174107Y-66594138D01*
X36174107Y-66594138D02*
X36147321Y-66522709D01*
X36147321Y-66522709D02*
X36080357Y-66486995D01*
X36080357Y-66486995D02*
X35973214Y-66486995D01*
X35973214Y-66486995D02*
X35906250Y-66451281D01*
X35906250Y-66451281D02*
X35879464Y-66379852D01*
X35879464Y-66379852D02*
X35883929Y-66344138D01*
X35883929Y-66344138D02*
X35928571Y-66272709D01*
X35928571Y-66272709D02*
X36004464Y-66236995D01*
X36004464Y-66236995D02*
X36111607Y-66236995D01*
X36111607Y-66236995D02*
X36178571Y-66272709D01*
X37004465Y-66236995D02*
X37290179Y-66236995D01*
X37142858Y-65986995D02*
X37062501Y-66629852D01*
X37062501Y-66629852D02*
X37089286Y-66701281D01*
X37089286Y-66701281D02*
X37156251Y-66736995D01*
X37156251Y-66736995D02*
X37227679Y-66736995D01*
X37799107Y-66736995D02*
X37848214Y-66344138D01*
X37848214Y-66344138D02*
X37821429Y-66272709D01*
X37821429Y-66272709D02*
X37754464Y-66236995D01*
X37754464Y-66236995D02*
X37611607Y-66236995D01*
X37611607Y-66236995D02*
X37535714Y-66272709D01*
X37803572Y-66701281D02*
X37727679Y-66736995D01*
X37727679Y-66736995D02*
X37549107Y-66736995D01*
X37549107Y-66736995D02*
X37482143Y-66701281D01*
X37482143Y-66701281D02*
X37455357Y-66629852D01*
X37455357Y-66629852D02*
X37464286Y-66558423D01*
X37464286Y-66558423D02*
X37508929Y-66486995D01*
X37508929Y-66486995D02*
X37584822Y-66451281D01*
X37584822Y-66451281D02*
X37763393Y-66451281D01*
X37763393Y-66451281D02*
X37839286Y-66415566D01*
X38156250Y-66736995D02*
X38250000Y-65986995D01*
X38263393Y-66451281D02*
X38441964Y-66736995D01*
X38504464Y-66236995D02*
X38183035Y-66522709D01*
X39053571Y-66701281D02*
X38977678Y-66736995D01*
X38977678Y-66736995D02*
X38834821Y-66736995D01*
X38834821Y-66736995D02*
X38767857Y-66701281D01*
X38767857Y-66701281D02*
X38741071Y-66629852D01*
X38741071Y-66629852D02*
X38776786Y-66344138D01*
X38776786Y-66344138D02*
X38821428Y-66272709D01*
X38821428Y-66272709D02*
X38897321Y-66236995D01*
X38897321Y-66236995D02*
X39040178Y-66236995D01*
X39040178Y-66236995D02*
X39107143Y-66272709D01*
X39107143Y-66272709D02*
X39133928Y-66344138D01*
X39133928Y-66344138D02*
X39125000Y-66415566D01*
X39125000Y-66415566D02*
X38758928Y-66486995D01*
X39468750Y-66236995D02*
X39406250Y-66736995D01*
X39459821Y-66308423D02*
X39500000Y-66272709D01*
X39500000Y-66272709D02*
X39575893Y-66236995D01*
X39575893Y-66236995D02*
X39683035Y-66236995D01*
X39683035Y-66236995D02*
X39750000Y-66272709D01*
X39750000Y-66272709D02*
X39776785Y-66344138D01*
X39776785Y-66344138D02*
X39727678Y-66736995D01*
X40611607Y-66236995D02*
X40897321Y-66236995D01*
X40656250Y-66736995D02*
X40736607Y-66094138D01*
X40736607Y-66094138D02*
X40781250Y-66022709D01*
X40781250Y-66022709D02*
X40857143Y-65986995D01*
X40857143Y-65986995D02*
X40928571Y-65986995D01*
X41084821Y-66736995D02*
X41147321Y-66236995D01*
X41129464Y-66379852D02*
X41174106Y-66308423D01*
X41174106Y-66308423D02*
X41214285Y-66272709D01*
X41214285Y-66272709D02*
X41290178Y-66236995D01*
X41290178Y-66236995D02*
X41361606Y-66236995D01*
X41656250Y-66736995D02*
X41589285Y-66701281D01*
X41589285Y-66701281D02*
X41558035Y-66665566D01*
X41558035Y-66665566D02*
X41531250Y-66594138D01*
X41531250Y-66594138D02*
X41558035Y-66379852D01*
X41558035Y-66379852D02*
X41602678Y-66308423D01*
X41602678Y-66308423D02*
X41642857Y-66272709D01*
X41642857Y-66272709D02*
X41718750Y-66236995D01*
X41718750Y-66236995D02*
X41825892Y-66236995D01*
X41825892Y-66236995D02*
X41892857Y-66272709D01*
X41892857Y-66272709D02*
X41924107Y-66308423D01*
X41924107Y-66308423D02*
X41950892Y-66379852D01*
X41950892Y-66379852D02*
X41924107Y-66594138D01*
X41924107Y-66594138D02*
X41879464Y-66665566D01*
X41879464Y-66665566D02*
X41839285Y-66701281D01*
X41839285Y-66701281D02*
X41763392Y-66736995D01*
X41763392Y-66736995D02*
X41656250Y-66736995D01*
X42227678Y-66736995D02*
X42290178Y-66236995D01*
X42281249Y-66308423D02*
X42321428Y-66272709D01*
X42321428Y-66272709D02*
X42397321Y-66236995D01*
X42397321Y-66236995D02*
X42504463Y-66236995D01*
X42504463Y-66236995D02*
X42571428Y-66272709D01*
X42571428Y-66272709D02*
X42598213Y-66344138D01*
X42598213Y-66344138D02*
X42549106Y-66736995D01*
X42598213Y-66344138D02*
X42642856Y-66272709D01*
X42642856Y-66272709D02*
X42718749Y-66236995D01*
X42718749Y-66236995D02*
X42825892Y-66236995D01*
X42825892Y-66236995D02*
X42892856Y-66272709D01*
X42892856Y-66272709D02*
X42919642Y-66344138D01*
X42919642Y-66344138D02*
X42870535Y-66736995D01*
X14102687Y-67944453D02*
X14196437Y-67194453D01*
X14424115Y-67944453D02*
X14473222Y-67551596D01*
X14473222Y-67551596D02*
X14446437Y-67480167D01*
X14446437Y-67480167D02*
X14379472Y-67444453D01*
X14379472Y-67444453D02*
X14272330Y-67444453D01*
X14272330Y-67444453D02*
X14196437Y-67480167D01*
X14196437Y-67480167D02*
X14156258Y-67515881D01*
X14736615Y-67444453D02*
X15022329Y-67444453D01*
X14875008Y-67194453D02*
X14794651Y-67837310D01*
X14794651Y-67837310D02*
X14821436Y-67908739D01*
X14821436Y-67908739D02*
X14888401Y-67944453D01*
X14888401Y-67944453D02*
X14959829Y-67944453D01*
X15165186Y-67444453D02*
X15450900Y-67444453D01*
X15303579Y-67194453D02*
X15223222Y-67837310D01*
X15223222Y-67837310D02*
X15250007Y-67908739D01*
X15250007Y-67908739D02*
X15316972Y-67944453D01*
X15316972Y-67944453D02*
X15388400Y-67944453D01*
X15700900Y-67444453D02*
X15607150Y-68194453D01*
X15696435Y-67480167D02*
X15772328Y-67444453D01*
X15772328Y-67444453D02*
X15915185Y-67444453D01*
X15915185Y-67444453D02*
X15982150Y-67480167D01*
X15982150Y-67480167D02*
X16013400Y-67515881D01*
X16013400Y-67515881D02*
X16040185Y-67587310D01*
X16040185Y-67587310D02*
X16013400Y-67801596D01*
X16013400Y-67801596D02*
X15968757Y-67873024D01*
X15968757Y-67873024D02*
X15928578Y-67908739D01*
X15928578Y-67908739D02*
X15852685Y-67944453D01*
X15852685Y-67944453D02*
X15709828Y-67944453D01*
X15709828Y-67944453D02*
X15642864Y-67908739D01*
X16285721Y-67908739D02*
X16352685Y-67944453D01*
X16352685Y-67944453D02*
X16495542Y-67944453D01*
X16495542Y-67944453D02*
X16571435Y-67908739D01*
X16571435Y-67908739D02*
X16616078Y-67837310D01*
X16616078Y-67837310D02*
X16620542Y-67801596D01*
X16620542Y-67801596D02*
X16593756Y-67730167D01*
X16593756Y-67730167D02*
X16526792Y-67694453D01*
X16526792Y-67694453D02*
X16419649Y-67694453D01*
X16419649Y-67694453D02*
X16352685Y-67658739D01*
X16352685Y-67658739D02*
X16325899Y-67587310D01*
X16325899Y-67587310D02*
X16330364Y-67551596D01*
X16330364Y-67551596D02*
X16375006Y-67480167D01*
X16375006Y-67480167D02*
X16450899Y-67444453D01*
X16450899Y-67444453D02*
X16558042Y-67444453D01*
X16558042Y-67444453D02*
X16625006Y-67480167D01*
X16933042Y-67873024D02*
X16964292Y-67908739D01*
X16964292Y-67908739D02*
X16924114Y-67944453D01*
X16924114Y-67944453D02*
X16892864Y-67908739D01*
X16892864Y-67908739D02*
X16933042Y-67873024D01*
X16933042Y-67873024D02*
X16924114Y-67944453D01*
X16982149Y-67480167D02*
X17013399Y-67515881D01*
X17013399Y-67515881D02*
X16973221Y-67551596D01*
X16973221Y-67551596D02*
X16941971Y-67515881D01*
X16941971Y-67515881D02*
X16982149Y-67480167D01*
X16982149Y-67480167D02*
X16973221Y-67551596D01*
X17915185Y-67158739D02*
X17151792Y-68123024D01*
X18700899Y-67158739D02*
X17937506Y-68123024D01*
X19236613Y-67444453D02*
X19160720Y-68051596D01*
X19160720Y-68051596D02*
X19116078Y-68123024D01*
X19116078Y-68123024D02*
X19075899Y-68158739D01*
X19075899Y-68158739D02*
X19000006Y-68194453D01*
X19000006Y-68194453D02*
X18892863Y-68194453D01*
X18892863Y-68194453D02*
X18825899Y-68158739D01*
X19178578Y-67908739D02*
X19102685Y-67944453D01*
X19102685Y-67944453D02*
X18959828Y-67944453D01*
X18959828Y-67944453D02*
X18892863Y-67908739D01*
X18892863Y-67908739D02*
X18861613Y-67873024D01*
X18861613Y-67873024D02*
X18834828Y-67801596D01*
X18834828Y-67801596D02*
X18861613Y-67587310D01*
X18861613Y-67587310D02*
X18906256Y-67515881D01*
X18906256Y-67515881D02*
X18946435Y-67480167D01*
X18946435Y-67480167D02*
X19022328Y-67444453D01*
X19022328Y-67444453D02*
X19165185Y-67444453D01*
X19165185Y-67444453D02*
X19232149Y-67480167D01*
X19531256Y-67944453D02*
X19593756Y-67444453D01*
X19625006Y-67194453D02*
X19584827Y-67230167D01*
X19584827Y-67230167D02*
X19616077Y-67265881D01*
X19616077Y-67265881D02*
X19656256Y-67230167D01*
X19656256Y-67230167D02*
X19625006Y-67194453D01*
X19625006Y-67194453D02*
X19616077Y-67265881D01*
X19843756Y-67444453D02*
X20129470Y-67444453D01*
X19982149Y-67194453D02*
X19901792Y-67837310D01*
X19901792Y-67837310D02*
X19928577Y-67908739D01*
X19928577Y-67908739D02*
X19995542Y-67944453D01*
X19995542Y-67944453D02*
X20066970Y-67944453D01*
X20316970Y-67944453D02*
X20410720Y-67194453D01*
X20638398Y-67944453D02*
X20687505Y-67551596D01*
X20687505Y-67551596D02*
X20660720Y-67480167D01*
X20660720Y-67480167D02*
X20593755Y-67444453D01*
X20593755Y-67444453D02*
X20486613Y-67444453D01*
X20486613Y-67444453D02*
X20410720Y-67480167D01*
X20410720Y-67480167D02*
X20370541Y-67515881D01*
X21379469Y-67444453D02*
X21316969Y-67944453D01*
X21058041Y-67444453D02*
X21008934Y-67837310D01*
X21008934Y-67837310D02*
X21035719Y-67908739D01*
X21035719Y-67908739D02*
X21102684Y-67944453D01*
X21102684Y-67944453D02*
X21209826Y-67944453D01*
X21209826Y-67944453D02*
X21285719Y-67908739D01*
X21285719Y-67908739D02*
X21325898Y-67873024D01*
X21674112Y-67944453D02*
X21767862Y-67194453D01*
X21732147Y-67480167D02*
X21808040Y-67444453D01*
X21808040Y-67444453D02*
X21950897Y-67444453D01*
X21950897Y-67444453D02*
X22017862Y-67480167D01*
X22017862Y-67480167D02*
X22049112Y-67515881D01*
X22049112Y-67515881D02*
X22075897Y-67587310D01*
X22075897Y-67587310D02*
X22049112Y-67801596D01*
X22049112Y-67801596D02*
X22004469Y-67873024D01*
X22004469Y-67873024D02*
X21964290Y-67908739D01*
X21964290Y-67908739D02*
X21888397Y-67944453D01*
X21888397Y-67944453D02*
X21745540Y-67944453D01*
X21745540Y-67944453D02*
X21678576Y-67908739D01*
X22361611Y-67873024D02*
X22392861Y-67908739D01*
X22392861Y-67908739D02*
X22352683Y-67944453D01*
X22352683Y-67944453D02*
X22321433Y-67908739D01*
X22321433Y-67908739D02*
X22361611Y-67873024D01*
X22361611Y-67873024D02*
X22352683Y-67944453D01*
X23035719Y-67908739D02*
X22959826Y-67944453D01*
X22959826Y-67944453D02*
X22816969Y-67944453D01*
X22816969Y-67944453D02*
X22750004Y-67908739D01*
X22750004Y-67908739D02*
X22718754Y-67873024D01*
X22718754Y-67873024D02*
X22691969Y-67801596D01*
X22691969Y-67801596D02*
X22718754Y-67587310D01*
X22718754Y-67587310D02*
X22763397Y-67515881D01*
X22763397Y-67515881D02*
X22803576Y-67480167D01*
X22803576Y-67480167D02*
X22879469Y-67444453D01*
X22879469Y-67444453D02*
X23022326Y-67444453D01*
X23022326Y-67444453D02*
X23089290Y-67480167D01*
X23459826Y-67944453D02*
X23392861Y-67908739D01*
X23392861Y-67908739D02*
X23361611Y-67873024D01*
X23361611Y-67873024D02*
X23334826Y-67801596D01*
X23334826Y-67801596D02*
X23361611Y-67587310D01*
X23361611Y-67587310D02*
X23406254Y-67515881D01*
X23406254Y-67515881D02*
X23446433Y-67480167D01*
X23446433Y-67480167D02*
X23522326Y-67444453D01*
X23522326Y-67444453D02*
X23629468Y-67444453D01*
X23629468Y-67444453D02*
X23696433Y-67480167D01*
X23696433Y-67480167D02*
X23727683Y-67515881D01*
X23727683Y-67515881D02*
X23754468Y-67587310D01*
X23754468Y-67587310D02*
X23727683Y-67801596D01*
X23727683Y-67801596D02*
X23683040Y-67873024D01*
X23683040Y-67873024D02*
X23642861Y-67908739D01*
X23642861Y-67908739D02*
X23566968Y-67944453D01*
X23566968Y-67944453D02*
X23459826Y-67944453D01*
X24031254Y-67944453D02*
X24093754Y-67444453D01*
X24084825Y-67515881D02*
X24125004Y-67480167D01*
X24125004Y-67480167D02*
X24200897Y-67444453D01*
X24200897Y-67444453D02*
X24308039Y-67444453D01*
X24308039Y-67444453D02*
X24375004Y-67480167D01*
X24375004Y-67480167D02*
X24401789Y-67551596D01*
X24401789Y-67551596D02*
X24352682Y-67944453D01*
X24401789Y-67551596D02*
X24446432Y-67480167D01*
X24446432Y-67480167D02*
X24522325Y-67444453D01*
X24522325Y-67444453D02*
X24629468Y-67444453D01*
X24629468Y-67444453D02*
X24696432Y-67480167D01*
X24696432Y-67480167D02*
X24723218Y-67551596D01*
X24723218Y-67551596D02*
X24674111Y-67944453D01*
X25665182Y-67158739D02*
X24901789Y-68123024D01*
X25816968Y-67944453D02*
X25879468Y-67444453D01*
X25861611Y-67587310D02*
X25906253Y-67515881D01*
X25906253Y-67515881D02*
X25946432Y-67480167D01*
X25946432Y-67480167D02*
X26022325Y-67444453D01*
X26022325Y-67444453D02*
X26093753Y-67444453D01*
X26602682Y-67944453D02*
X26651789Y-67551596D01*
X26651789Y-67551596D02*
X26625004Y-67480167D01*
X26625004Y-67480167D02*
X26558039Y-67444453D01*
X26558039Y-67444453D02*
X26415182Y-67444453D01*
X26415182Y-67444453D02*
X26339289Y-67480167D01*
X26607147Y-67908739D02*
X26531254Y-67944453D01*
X26531254Y-67944453D02*
X26352682Y-67944453D01*
X26352682Y-67944453D02*
X26285718Y-67908739D01*
X26285718Y-67908739D02*
X26258932Y-67837310D01*
X26258932Y-67837310D02*
X26267861Y-67765881D01*
X26267861Y-67765881D02*
X26312504Y-67694453D01*
X26312504Y-67694453D02*
X26388397Y-67658739D01*
X26388397Y-67658739D02*
X26566968Y-67658739D01*
X26566968Y-67658739D02*
X26642861Y-67623024D01*
X26928575Y-67908739D02*
X26995539Y-67944453D01*
X26995539Y-67944453D02*
X27138396Y-67944453D01*
X27138396Y-67944453D02*
X27214289Y-67908739D01*
X27214289Y-67908739D02*
X27258932Y-67837310D01*
X27258932Y-67837310D02*
X27263396Y-67801596D01*
X27263396Y-67801596D02*
X27236610Y-67730167D01*
X27236610Y-67730167D02*
X27169646Y-67694453D01*
X27169646Y-67694453D02*
X27062503Y-67694453D01*
X27062503Y-67694453D02*
X26995539Y-67658739D01*
X26995539Y-67658739D02*
X26968753Y-67587310D01*
X26968753Y-67587310D02*
X26973218Y-67551596D01*
X26973218Y-67551596D02*
X27017860Y-67480167D01*
X27017860Y-67480167D02*
X27093753Y-67444453D01*
X27093753Y-67444453D02*
X27200896Y-67444453D01*
X27200896Y-67444453D02*
X27267860Y-67480167D01*
X27629468Y-67444453D02*
X27535718Y-68194453D01*
X27625003Y-67480167D02*
X27700896Y-67444453D01*
X27700896Y-67444453D02*
X27843753Y-67444453D01*
X27843753Y-67444453D02*
X27910718Y-67480167D01*
X27910718Y-67480167D02*
X27941968Y-67515881D01*
X27941968Y-67515881D02*
X27968753Y-67587310D01*
X27968753Y-67587310D02*
X27941968Y-67801596D01*
X27941968Y-67801596D02*
X27897325Y-67873024D01*
X27897325Y-67873024D02*
X27857146Y-67908739D01*
X27857146Y-67908739D02*
X27781253Y-67944453D01*
X27781253Y-67944453D02*
X27638396Y-67944453D01*
X27638396Y-67944453D02*
X27571432Y-67908739D01*
X28245539Y-67944453D02*
X28339289Y-67194453D01*
X28303574Y-67480167D02*
X28379467Y-67444453D01*
X28379467Y-67444453D02*
X28522324Y-67444453D01*
X28522324Y-67444453D02*
X28589289Y-67480167D01*
X28589289Y-67480167D02*
X28620539Y-67515881D01*
X28620539Y-67515881D02*
X28647324Y-67587310D01*
X28647324Y-67587310D02*
X28620539Y-67801596D01*
X28620539Y-67801596D02*
X28575896Y-67873024D01*
X28575896Y-67873024D02*
X28535717Y-67908739D01*
X28535717Y-67908739D02*
X28459824Y-67944453D01*
X28459824Y-67944453D02*
X28316967Y-67944453D01*
X28316967Y-67944453D02*
X28250003Y-67908739D01*
X29214288Y-67908739D02*
X29138395Y-67944453D01*
X29138395Y-67944453D02*
X28995538Y-67944453D01*
X28995538Y-67944453D02*
X28928574Y-67908739D01*
X28928574Y-67908739D02*
X28901788Y-67837310D01*
X28901788Y-67837310D02*
X28937503Y-67551596D01*
X28937503Y-67551596D02*
X28982145Y-67480167D01*
X28982145Y-67480167D02*
X29058038Y-67444453D01*
X29058038Y-67444453D02*
X29200895Y-67444453D01*
X29200895Y-67444453D02*
X29267860Y-67480167D01*
X29267860Y-67480167D02*
X29294645Y-67551596D01*
X29294645Y-67551596D02*
X29285717Y-67623024D01*
X29285717Y-67623024D02*
X28919645Y-67694453D01*
X29566967Y-67944453D02*
X29629467Y-67444453D01*
X29611610Y-67587310D02*
X29656252Y-67515881D01*
X29656252Y-67515881D02*
X29696431Y-67480167D01*
X29696431Y-67480167D02*
X29772324Y-67444453D01*
X29772324Y-67444453D02*
X29843752Y-67444453D01*
X30031253Y-67944453D02*
X30093753Y-67444453D01*
X30075896Y-67587310D02*
X30120538Y-67515881D01*
X30120538Y-67515881D02*
X30160717Y-67480167D01*
X30160717Y-67480167D02*
X30236610Y-67444453D01*
X30236610Y-67444453D02*
X30308038Y-67444453D01*
X30486610Y-67444453D02*
X30602682Y-67944453D01*
X30843753Y-67444453D02*
X30602682Y-67944453D01*
X30602682Y-67944453D02*
X30508932Y-68123024D01*
X30508932Y-68123024D02*
X30468753Y-68158739D01*
X30468753Y-68158739D02*
X30392860Y-68194453D01*
X31129468Y-67444453D02*
X31035718Y-68194453D01*
X31125003Y-67480167D02*
X31200896Y-67444453D01*
X31200896Y-67444453D02*
X31343753Y-67444453D01*
X31343753Y-67444453D02*
X31410718Y-67480167D01*
X31410718Y-67480167D02*
X31441968Y-67515881D01*
X31441968Y-67515881D02*
X31468753Y-67587310D01*
X31468753Y-67587310D02*
X31441968Y-67801596D01*
X31441968Y-67801596D02*
X31397325Y-67873024D01*
X31397325Y-67873024D02*
X31357146Y-67908739D01*
X31357146Y-67908739D02*
X31281253Y-67944453D01*
X31281253Y-67944453D02*
X31138396Y-67944453D01*
X31138396Y-67944453D02*
X31071432Y-67908739D01*
X31745539Y-67944453D02*
X31808039Y-67444453D01*
X31839289Y-67194453D02*
X31799110Y-67230167D01*
X31799110Y-67230167D02*
X31830360Y-67265881D01*
X31830360Y-67265881D02*
X31870539Y-67230167D01*
X31870539Y-67230167D02*
X31839289Y-67194453D01*
X31839289Y-67194453D02*
X31830360Y-67265881D01*
X32736610Y-67158739D02*
X31973217Y-68123024D01*
X32888396Y-67944453D02*
X32982146Y-67194453D01*
X33209824Y-67944453D02*
X33258931Y-67551596D01*
X33258931Y-67551596D02*
X33232146Y-67480167D01*
X33232146Y-67480167D02*
X33165181Y-67444453D01*
X33165181Y-67444453D02*
X33058039Y-67444453D01*
X33058039Y-67444453D02*
X32982146Y-67480167D01*
X32982146Y-67480167D02*
X32941967Y-67515881D01*
X33888395Y-67944453D02*
X33937502Y-67551596D01*
X33937502Y-67551596D02*
X33910717Y-67480167D01*
X33910717Y-67480167D02*
X33843752Y-67444453D01*
X33843752Y-67444453D02*
X33700895Y-67444453D01*
X33700895Y-67444453D02*
X33625002Y-67480167D01*
X33892860Y-67908739D02*
X33816967Y-67944453D01*
X33816967Y-67944453D02*
X33638395Y-67944453D01*
X33638395Y-67944453D02*
X33571431Y-67908739D01*
X33571431Y-67908739D02*
X33544645Y-67837310D01*
X33544645Y-67837310D02*
X33553574Y-67765881D01*
X33553574Y-67765881D02*
X33598217Y-67694453D01*
X33598217Y-67694453D02*
X33674110Y-67658739D01*
X33674110Y-67658739D02*
X33852681Y-67658739D01*
X33852681Y-67658739D02*
X33928574Y-67623024D01*
X34200895Y-67444453D02*
X34486609Y-67444453D01*
X34339288Y-67194453D02*
X34258931Y-67837310D01*
X34258931Y-67837310D02*
X34285716Y-67908739D01*
X34285716Y-67908739D02*
X34352681Y-67944453D01*
X34352681Y-67944453D02*
X34424109Y-67944453D01*
X34642859Y-67908739D02*
X34709823Y-67944453D01*
X34709823Y-67944453D02*
X34852680Y-67944453D01*
X34852680Y-67944453D02*
X34928573Y-67908739D01*
X34928573Y-67908739D02*
X34973216Y-67837310D01*
X34973216Y-67837310D02*
X34977680Y-67801596D01*
X34977680Y-67801596D02*
X34950894Y-67730167D01*
X34950894Y-67730167D02*
X34883930Y-67694453D01*
X34883930Y-67694453D02*
X34776787Y-67694453D01*
X34776787Y-67694453D02*
X34709823Y-67658739D01*
X34709823Y-67658739D02*
X34683037Y-67587310D01*
X34683037Y-67587310D02*
X34687502Y-67551596D01*
X34687502Y-67551596D02*
X34732144Y-67480167D01*
X34732144Y-67480167D02*
X34808037Y-67444453D01*
X34808037Y-67444453D02*
X34915180Y-67444453D01*
X34915180Y-67444453D02*
X34982144Y-67480167D01*
X35915180Y-67158739D02*
X35151787Y-68123024D01*
X36066966Y-67944453D02*
X36160716Y-67194453D01*
X36125001Y-67480167D02*
X36200894Y-67444453D01*
X36200894Y-67444453D02*
X36343751Y-67444453D01*
X36343751Y-67444453D02*
X36410716Y-67480167D01*
X36410716Y-67480167D02*
X36441966Y-67515881D01*
X36441966Y-67515881D02*
X36468751Y-67587310D01*
X36468751Y-67587310D02*
X36441966Y-67801596D01*
X36441966Y-67801596D02*
X36397323Y-67873024D01*
X36397323Y-67873024D02*
X36357144Y-67908739D01*
X36357144Y-67908739D02*
X36281251Y-67944453D01*
X36281251Y-67944453D02*
X36138394Y-67944453D01*
X36138394Y-67944453D02*
X36071430Y-67908739D01*
X36852680Y-67944453D02*
X36785715Y-67908739D01*
X36785715Y-67908739D02*
X36758930Y-67837310D01*
X36758930Y-67837310D02*
X36839287Y-67194453D01*
X37245537Y-67944453D02*
X37178572Y-67908739D01*
X37178572Y-67908739D02*
X37147322Y-67873024D01*
X37147322Y-67873024D02*
X37120537Y-67801596D01*
X37120537Y-67801596D02*
X37147322Y-67587310D01*
X37147322Y-67587310D02*
X37191965Y-67515881D01*
X37191965Y-67515881D02*
X37232144Y-67480167D01*
X37232144Y-67480167D02*
X37308037Y-67444453D01*
X37308037Y-67444453D02*
X37415179Y-67444453D01*
X37415179Y-67444453D02*
X37482144Y-67480167D01*
X37482144Y-67480167D02*
X37513394Y-67515881D01*
X37513394Y-67515881D02*
X37540179Y-67587310D01*
X37540179Y-67587310D02*
X37513394Y-67801596D01*
X37513394Y-67801596D02*
X37468751Y-67873024D01*
X37468751Y-67873024D02*
X37428572Y-67908739D01*
X37428572Y-67908739D02*
X37352679Y-67944453D01*
X37352679Y-67944453D02*
X37245537Y-67944453D01*
X37816965Y-67944453D02*
X37910715Y-67194453D01*
X37875000Y-67480167D02*
X37950893Y-67444453D01*
X37950893Y-67444453D02*
X38093750Y-67444453D01*
X38093750Y-67444453D02*
X38160715Y-67480167D01*
X38160715Y-67480167D02*
X38191965Y-67515881D01*
X38191965Y-67515881D02*
X38218750Y-67587310D01*
X38218750Y-67587310D02*
X38191965Y-67801596D01*
X38191965Y-67801596D02*
X38147322Y-67873024D01*
X38147322Y-67873024D02*
X38107143Y-67908739D01*
X38107143Y-67908739D02*
X38031250Y-67944453D01*
X38031250Y-67944453D02*
X37888393Y-67944453D01*
X37888393Y-67944453D02*
X37821429Y-67908739D01*
X39129464Y-67158739D02*
X38366071Y-68123024D01*
X39281250Y-67944453D02*
X39343750Y-67444453D01*
X39334821Y-67515881D02*
X39375000Y-67480167D01*
X39375000Y-67480167D02*
X39450893Y-67444453D01*
X39450893Y-67444453D02*
X39558035Y-67444453D01*
X39558035Y-67444453D02*
X39625000Y-67480167D01*
X39625000Y-67480167D02*
X39651785Y-67551596D01*
X39651785Y-67551596D02*
X39602678Y-67944453D01*
X39651785Y-67551596D02*
X39696428Y-67480167D01*
X39696428Y-67480167D02*
X39772321Y-67444453D01*
X39772321Y-67444453D02*
X39879464Y-67444453D01*
X39879464Y-67444453D02*
X39946428Y-67480167D01*
X39946428Y-67480167D02*
X39973214Y-67551596D01*
X39973214Y-67551596D02*
X39924107Y-67944453D01*
X40602678Y-67944453D02*
X40651785Y-67551596D01*
X40651785Y-67551596D02*
X40625000Y-67480167D01*
X40625000Y-67480167D02*
X40558035Y-67444453D01*
X40558035Y-67444453D02*
X40415178Y-67444453D01*
X40415178Y-67444453D02*
X40339285Y-67480167D01*
X40607143Y-67908739D02*
X40531250Y-67944453D01*
X40531250Y-67944453D02*
X40352678Y-67944453D01*
X40352678Y-67944453D02*
X40285714Y-67908739D01*
X40285714Y-67908739D02*
X40258928Y-67837310D01*
X40258928Y-67837310D02*
X40267857Y-67765881D01*
X40267857Y-67765881D02*
X40312500Y-67694453D01*
X40312500Y-67694453D02*
X40388393Y-67658739D01*
X40388393Y-67658739D02*
X40566964Y-67658739D01*
X40566964Y-67658739D02*
X40642857Y-67623024D01*
X40928571Y-67908739D02*
X40995535Y-67944453D01*
X40995535Y-67944453D02*
X41138392Y-67944453D01*
X41138392Y-67944453D02*
X41214285Y-67908739D01*
X41214285Y-67908739D02*
X41258928Y-67837310D01*
X41258928Y-67837310D02*
X41263392Y-67801596D01*
X41263392Y-67801596D02*
X41236606Y-67730167D01*
X41236606Y-67730167D02*
X41169642Y-67694453D01*
X41169642Y-67694453D02*
X41062499Y-67694453D01*
X41062499Y-67694453D02*
X40995535Y-67658739D01*
X40995535Y-67658739D02*
X40968749Y-67587310D01*
X40968749Y-67587310D02*
X40973214Y-67551596D01*
X40973214Y-67551596D02*
X41017856Y-67480167D01*
X41017856Y-67480167D02*
X41093749Y-67444453D01*
X41093749Y-67444453D02*
X41200892Y-67444453D01*
X41200892Y-67444453D02*
X41267856Y-67480167D01*
X41522321Y-67444453D02*
X41808035Y-67444453D01*
X41660714Y-67194453D02*
X41580357Y-67837310D01*
X41580357Y-67837310D02*
X41607142Y-67908739D01*
X41607142Y-67908739D02*
X41674107Y-67944453D01*
X41674107Y-67944453D02*
X41745535Y-67944453D01*
X42285713Y-67908739D02*
X42209820Y-67944453D01*
X42209820Y-67944453D02*
X42066963Y-67944453D01*
X42066963Y-67944453D02*
X41999999Y-67908739D01*
X41999999Y-67908739D02*
X41973213Y-67837310D01*
X41973213Y-67837310D02*
X42008928Y-67551596D01*
X42008928Y-67551596D02*
X42053570Y-67480167D01*
X42053570Y-67480167D02*
X42129463Y-67444453D01*
X42129463Y-67444453D02*
X42272320Y-67444453D01*
X42272320Y-67444453D02*
X42339285Y-67480167D01*
X42339285Y-67480167D02*
X42366070Y-67551596D01*
X42366070Y-67551596D02*
X42357142Y-67623024D01*
X42357142Y-67623024D02*
X41991070Y-67694453D01*
X42638392Y-67944453D02*
X42700892Y-67444453D01*
X42683035Y-67587310D02*
X42727677Y-67515881D01*
X42727677Y-67515881D02*
X42767856Y-67480167D01*
X42767856Y-67480167D02*
X42843749Y-67444453D01*
X42843749Y-67444453D02*
X42915177Y-67444453D01*
X43736606Y-67158739D02*
X42973213Y-68123024D01*
X43888392Y-67944453D02*
X43982142Y-67194453D01*
X44209820Y-67944453D02*
X44258927Y-67551596D01*
X44258927Y-67551596D02*
X44232142Y-67480167D01*
X44232142Y-67480167D02*
X44165177Y-67444453D01*
X44165177Y-67444453D02*
X44058035Y-67444453D01*
X44058035Y-67444453D02*
X43982142Y-67480167D01*
X43982142Y-67480167D02*
X43941963Y-67515881D01*
X44888391Y-67944453D02*
X44937498Y-67551596D01*
X44937498Y-67551596D02*
X44910713Y-67480167D01*
X44910713Y-67480167D02*
X44843748Y-67444453D01*
X44843748Y-67444453D02*
X44700891Y-67444453D01*
X44700891Y-67444453D02*
X44624998Y-67480167D01*
X44892856Y-67908739D02*
X44816963Y-67944453D01*
X44816963Y-67944453D02*
X44638391Y-67944453D01*
X44638391Y-67944453D02*
X44571427Y-67908739D01*
X44571427Y-67908739D02*
X44544641Y-67837310D01*
X44544641Y-67837310D02*
X44553570Y-67765881D01*
X44553570Y-67765881D02*
X44598213Y-67694453D01*
X44598213Y-67694453D02*
X44674106Y-67658739D01*
X44674106Y-67658739D02*
X44852677Y-67658739D01*
X44852677Y-67658739D02*
X44928570Y-67623024D01*
X45200891Y-67444453D02*
X45486605Y-67444453D01*
X45339284Y-67194453D02*
X45258927Y-67837310D01*
X45258927Y-67837310D02*
X45285712Y-67908739D01*
X45285712Y-67908739D02*
X45352677Y-67944453D01*
X45352677Y-67944453D02*
X45424105Y-67944453D01*
X45709819Y-67658739D02*
X46281248Y-67658739D01*
X46602676Y-67944453D02*
X46696426Y-67194453D01*
X46660711Y-67480167D02*
X46736604Y-67444453D01*
X46736604Y-67444453D02*
X46879461Y-67444453D01*
X46879461Y-67444453D02*
X46946426Y-67480167D01*
X46946426Y-67480167D02*
X46977676Y-67515881D01*
X46977676Y-67515881D02*
X47004461Y-67587310D01*
X47004461Y-67587310D02*
X46977676Y-67801596D01*
X46977676Y-67801596D02*
X46933033Y-67873024D01*
X46933033Y-67873024D02*
X46892854Y-67908739D01*
X46892854Y-67908739D02*
X46816961Y-67944453D01*
X46816961Y-67944453D02*
X46674104Y-67944453D01*
X46674104Y-67944453D02*
X46607140Y-67908739D01*
X47388390Y-67944453D02*
X47321425Y-67908739D01*
X47321425Y-67908739D02*
X47290175Y-67873024D01*
X47290175Y-67873024D02*
X47263390Y-67801596D01*
X47263390Y-67801596D02*
X47290175Y-67587310D01*
X47290175Y-67587310D02*
X47334818Y-67515881D01*
X47334818Y-67515881D02*
X47374997Y-67480167D01*
X47374997Y-67480167D02*
X47450890Y-67444453D01*
X47450890Y-67444453D02*
X47558032Y-67444453D01*
X47558032Y-67444453D02*
X47624997Y-67480167D01*
X47624997Y-67480167D02*
X47656247Y-67515881D01*
X47656247Y-67515881D02*
X47683032Y-67587310D01*
X47683032Y-67587310D02*
X47656247Y-67801596D01*
X47656247Y-67801596D02*
X47611604Y-67873024D01*
X47611604Y-67873024D02*
X47571425Y-67908739D01*
X47571425Y-67908739D02*
X47495532Y-67944453D01*
X47495532Y-67944453D02*
X47388390Y-67944453D01*
X48281246Y-67944453D02*
X48330353Y-67551596D01*
X48330353Y-67551596D02*
X48303568Y-67480167D01*
X48303568Y-67480167D02*
X48236603Y-67444453D01*
X48236603Y-67444453D02*
X48093746Y-67444453D01*
X48093746Y-67444453D02*
X48017853Y-67480167D01*
X48285711Y-67908739D02*
X48209818Y-67944453D01*
X48209818Y-67944453D02*
X48031246Y-67944453D01*
X48031246Y-67944453D02*
X47964282Y-67908739D01*
X47964282Y-67908739D02*
X47937496Y-67837310D01*
X47937496Y-67837310D02*
X47946425Y-67765881D01*
X47946425Y-67765881D02*
X47991068Y-67694453D01*
X47991068Y-67694453D02*
X48066961Y-67658739D01*
X48066961Y-67658739D02*
X48245532Y-67658739D01*
X48245532Y-67658739D02*
X48321425Y-67623024D01*
X48638389Y-67944453D02*
X48700889Y-67444453D01*
X48683032Y-67587310D02*
X48727674Y-67515881D01*
X48727674Y-67515881D02*
X48767853Y-67480167D01*
X48767853Y-67480167D02*
X48843746Y-67444453D01*
X48843746Y-67444453D02*
X48915174Y-67444453D01*
X49424103Y-67944453D02*
X49517853Y-67194453D01*
X49428568Y-67908739D02*
X49352675Y-67944453D01*
X49352675Y-67944453D02*
X49209818Y-67944453D01*
X49209818Y-67944453D02*
X49142853Y-67908739D01*
X49142853Y-67908739D02*
X49111603Y-67873024D01*
X49111603Y-67873024D02*
X49084818Y-67801596D01*
X49084818Y-67801596D02*
X49111603Y-67587310D01*
X49111603Y-67587310D02*
X49156246Y-67515881D01*
X49156246Y-67515881D02*
X49196425Y-67480167D01*
X49196425Y-67480167D02*
X49272318Y-67444453D01*
X49272318Y-67444453D02*
X49415175Y-67444453D01*
X49415175Y-67444453D02*
X49482139Y-67480167D01*
X49816960Y-67658739D02*
X50388389Y-67658739D01*
X50709817Y-67944453D02*
X50772317Y-67444453D01*
X50763388Y-67515881D02*
X50803567Y-67480167D01*
X50803567Y-67480167D02*
X50879460Y-67444453D01*
X50879460Y-67444453D02*
X50986602Y-67444453D01*
X50986602Y-67444453D02*
X51053567Y-67480167D01*
X51053567Y-67480167D02*
X51080352Y-67551596D01*
X51080352Y-67551596D02*
X51031245Y-67944453D01*
X51080352Y-67551596D02*
X51124995Y-67480167D01*
X51124995Y-67480167D02*
X51200888Y-67444453D01*
X51200888Y-67444453D02*
X51308031Y-67444453D01*
X51308031Y-67444453D02*
X51374995Y-67480167D01*
X51374995Y-67480167D02*
X51401781Y-67551596D01*
X51401781Y-67551596D02*
X51352674Y-67944453D01*
X51999995Y-67908739D02*
X51924102Y-67944453D01*
X51924102Y-67944453D02*
X51781245Y-67944453D01*
X51781245Y-67944453D02*
X51714281Y-67908739D01*
X51714281Y-67908739D02*
X51687495Y-67837310D01*
X51687495Y-67837310D02*
X51723210Y-67551596D01*
X51723210Y-67551596D02*
X51767852Y-67480167D01*
X51767852Y-67480167D02*
X51843745Y-67444453D01*
X51843745Y-67444453D02*
X51986602Y-67444453D01*
X51986602Y-67444453D02*
X52053567Y-67480167D01*
X52053567Y-67480167D02*
X52080352Y-67551596D01*
X52080352Y-67551596D02*
X52071424Y-67623024D01*
X52071424Y-67623024D02*
X51705352Y-67694453D01*
X52678567Y-67908739D02*
X52602674Y-67944453D01*
X52602674Y-67944453D02*
X52459817Y-67944453D01*
X52459817Y-67944453D02*
X52392852Y-67908739D01*
X52392852Y-67908739D02*
X52361602Y-67873024D01*
X52361602Y-67873024D02*
X52334817Y-67801596D01*
X52334817Y-67801596D02*
X52361602Y-67587310D01*
X52361602Y-67587310D02*
X52406245Y-67515881D01*
X52406245Y-67515881D02*
X52446424Y-67480167D01*
X52446424Y-67480167D02*
X52522317Y-67444453D01*
X52522317Y-67444453D02*
X52665174Y-67444453D01*
X52665174Y-67444453D02*
X52732138Y-67480167D01*
X52995531Y-67944453D02*
X53089281Y-67194453D01*
X53316959Y-67944453D02*
X53366066Y-67551596D01*
X53366066Y-67551596D02*
X53339281Y-67480167D01*
X53339281Y-67480167D02*
X53272316Y-67444453D01*
X53272316Y-67444453D02*
X53165174Y-67444453D01*
X53165174Y-67444453D02*
X53089281Y-67480167D01*
X53089281Y-67480167D02*
X53049102Y-67515881D01*
X53995530Y-67944453D02*
X54044637Y-67551596D01*
X54044637Y-67551596D02*
X54017852Y-67480167D01*
X54017852Y-67480167D02*
X53950887Y-67444453D01*
X53950887Y-67444453D02*
X53808030Y-67444453D01*
X53808030Y-67444453D02*
X53732137Y-67480167D01*
X53999995Y-67908739D02*
X53924102Y-67944453D01*
X53924102Y-67944453D02*
X53745530Y-67944453D01*
X53745530Y-67944453D02*
X53678566Y-67908739D01*
X53678566Y-67908739D02*
X53651780Y-67837310D01*
X53651780Y-67837310D02*
X53660709Y-67765881D01*
X53660709Y-67765881D02*
X53705352Y-67694453D01*
X53705352Y-67694453D02*
X53781245Y-67658739D01*
X53781245Y-67658739D02*
X53959816Y-67658739D01*
X53959816Y-67658739D02*
X54035709Y-67623024D01*
X54415173Y-67444453D02*
X54352673Y-67944453D01*
X54406244Y-67515881D02*
X54446423Y-67480167D01*
X54446423Y-67480167D02*
X54522316Y-67444453D01*
X54522316Y-67444453D02*
X54629458Y-67444453D01*
X54629458Y-67444453D02*
X54696423Y-67480167D01*
X54696423Y-67480167D02*
X54723208Y-67551596D01*
X54723208Y-67551596D02*
X54674101Y-67944453D01*
X55031244Y-67944453D02*
X55093744Y-67444453D01*
X55124994Y-67194453D02*
X55084815Y-67230167D01*
X55084815Y-67230167D02*
X55116065Y-67265881D01*
X55116065Y-67265881D02*
X55156244Y-67230167D01*
X55156244Y-67230167D02*
X55124994Y-67194453D01*
X55124994Y-67194453D02*
X55116065Y-67265881D01*
X55714280Y-67908739D02*
X55638387Y-67944453D01*
X55638387Y-67944453D02*
X55495530Y-67944453D01*
X55495530Y-67944453D02*
X55428565Y-67908739D01*
X55428565Y-67908739D02*
X55397315Y-67873024D01*
X55397315Y-67873024D02*
X55370530Y-67801596D01*
X55370530Y-67801596D02*
X55397315Y-67587310D01*
X55397315Y-67587310D02*
X55441958Y-67515881D01*
X55441958Y-67515881D02*
X55482137Y-67480167D01*
X55482137Y-67480167D02*
X55558030Y-67444453D01*
X55558030Y-67444453D02*
X55700887Y-67444453D01*
X55700887Y-67444453D02*
X55767851Y-67480167D01*
X56352672Y-67944453D02*
X56401779Y-67551596D01*
X56401779Y-67551596D02*
X56374994Y-67480167D01*
X56374994Y-67480167D02*
X56308029Y-67444453D01*
X56308029Y-67444453D02*
X56165172Y-67444453D01*
X56165172Y-67444453D02*
X56089279Y-67480167D01*
X56357137Y-67908739D02*
X56281244Y-67944453D01*
X56281244Y-67944453D02*
X56102672Y-67944453D01*
X56102672Y-67944453D02*
X56035708Y-67908739D01*
X56035708Y-67908739D02*
X56008922Y-67837310D01*
X56008922Y-67837310D02*
X56017851Y-67765881D01*
X56017851Y-67765881D02*
X56062494Y-67694453D01*
X56062494Y-67694453D02*
X56138387Y-67658739D01*
X56138387Y-67658739D02*
X56316958Y-67658739D01*
X56316958Y-67658739D02*
X56392851Y-67623024D01*
X56816958Y-67944453D02*
X56749993Y-67908739D01*
X56749993Y-67908739D02*
X56723208Y-67837310D01*
X56723208Y-67837310D02*
X56803565Y-67194453D01*
X57111600Y-67873024D02*
X57142850Y-67908739D01*
X57142850Y-67908739D02*
X57102672Y-67944453D01*
X57102672Y-67944453D02*
X57071422Y-67908739D01*
X57071422Y-67908739D02*
X57111600Y-67873024D01*
X57111600Y-67873024D02*
X57102672Y-67944453D01*
X57522315Y-67444453D02*
X57428565Y-68194453D01*
X57517850Y-67480167D02*
X57593743Y-67444453D01*
X57593743Y-67444453D02*
X57736600Y-67444453D01*
X57736600Y-67444453D02*
X57803565Y-67480167D01*
X57803565Y-67480167D02*
X57834815Y-67515881D01*
X57834815Y-67515881D02*
X57861600Y-67587310D01*
X57861600Y-67587310D02*
X57834815Y-67801596D01*
X57834815Y-67801596D02*
X57790172Y-67873024D01*
X57790172Y-67873024D02*
X57749993Y-67908739D01*
X57749993Y-67908739D02*
X57674100Y-67944453D01*
X57674100Y-67944453D02*
X57531243Y-67944453D01*
X57531243Y-67944453D02*
X57464279Y-67908739D01*
X58459814Y-67944453D02*
X58553564Y-67194453D01*
X58464279Y-67908739D02*
X58388386Y-67944453D01*
X58388386Y-67944453D02*
X58245529Y-67944453D01*
X58245529Y-67944453D02*
X58178564Y-67908739D01*
X58178564Y-67908739D02*
X58147314Y-67873024D01*
X58147314Y-67873024D02*
X58120529Y-67801596D01*
X58120529Y-67801596D02*
X58147314Y-67587310D01*
X58147314Y-67587310D02*
X58191957Y-67515881D01*
X58191957Y-67515881D02*
X58232136Y-67480167D01*
X58232136Y-67480167D02*
X58308029Y-67444453D01*
X58308029Y-67444453D02*
X58450886Y-67444453D01*
X58450886Y-67444453D02*
X58517850Y-67480167D01*
X58772314Y-67444453D02*
X59058028Y-67444453D01*
X58816957Y-67944453D02*
X58897314Y-67301596D01*
X58897314Y-67301596D02*
X58941957Y-67230167D01*
X58941957Y-67230167D02*
X59017850Y-67194453D01*
X59017850Y-67194453D02*
X59089278Y-67194453D01*
M02*
