M48
; DRILL file {KiCad 6.0.7+dfsg-1+b1} date Mon 05 Sep 2022 19:20:12 BST
; FORMAT={-:-/ absolute / metric / decimal}
; #@! TF.CreationDate,2022-09-05T19:20:12+01:00
; #@! TF.GenerationSoftware,Kicad,Pcbnew,6.0.7+dfsg-1+b1
; #@! TF.FileFunction,Plated,1,2,PTH
FMAT,2
METRIC
; #@! TA.AperFunction,Plated,PTH,ViaDrill
T1C0.400
; #@! TA.AperFunction,Plated,PTH,ViaDrill
T2C0.500
; #@! TA.AperFunction,Plated,PTH,ComponentDrill
T3C1.016
%
G90
G05
T1
X2.7Y-9.75
X3.75Y-19.0
X4.75Y-19.0
X5.5Y-17.2
X5.75Y-19.0
X9.5Y-8.7
X9.5Y-15.4
X10.4Y-24.0
X11.5Y-24.0
X12.2Y-19.0
X12.2Y-20.2
X12.5Y-24.0
X13.4Y-19.0
X13.4Y-20.2
X13.6Y-24.0
X14.321Y-31.321
X14.51Y-32.633
X14.6Y-16.8
X14.6Y-19.0
X14.6Y-20.2
X15.25Y-36.9
X15.4Y-30.4
X15.75Y-48.0
X15.8Y-19.0
X17.037Y-34.85
X17.225Y-31.212
X17.6Y-29.4
X18.0Y-17.0
X18.4Y-14.6
X18.8Y-16.2
X18.8Y-28.2
X18.8Y-29.4
X18.863Y-36.85
X20.0Y-28.2
X20.0Y-29.4
X20.2Y-13.2
X20.2Y-14.2
X20.2Y-19.8
X20.2Y-21.0
X21.2Y-28.2
X21.2Y-29.4
X21.25Y-11.25
X21.25Y-50.75
X21.25Y-51.75
X22.2Y-18.0
X22.4Y-28.2
X22.4Y-29.4
X22.5Y-7.25
X22.5Y-10.5
X23.2Y-19.6
X23.25Y-21.412
X23.4Y-18.0
X23.5Y-11.25
X24.5Y-11.25
X25.201Y-22.168
X26.25Y-14.0
X27.242Y-22.174
X27.4Y-16.2
X28.25Y-14.75
X29.205Y-22.182
X29.3Y-16.2
X30.5Y-36.5
X30.9Y-16.2
X31.0Y-48.25
X31.2Y-28.2
X31.2Y-29.4
X31.205Y-22.182
X32.25Y-32.913
X32.8Y-16.2
X33.2Y-28.2
X33.2Y-29.4
X33.205Y-22.17
X33.902Y-36.5
X34.0Y-16.5
X34.25Y-14.0
X34.25Y-23.25
X34.5Y-15.25
X35.0Y-18.25
X35.0Y-24.75
X35.0Y-25.75
X35.0Y-26.75
X35.0Y-27.75
X36.5Y-14.75
X37.25Y-20.0
X37.75Y-9.0
X38.8Y-28.4
X39.0Y-20.087
X41.25Y-20.087
X42.0Y-11.5
X43.25Y-20.087
X44.9Y-30.938
X45.0Y-13.25
X45.0Y-16.5
X45.0Y-29.0
X45.75Y-37.5
X49.25Y-23.0
X49.25Y-37.5
X55.944Y-55.502
X56.25Y-15.75
X56.25Y-30.25
X57.413Y-55.505
T2
X12.425Y-40.109
X12.425Y-41.342
X12.425Y-42.575
X12.5Y-50.5
X12.5Y-51.75
X12.5Y-53.0
X12.5Y-54.25
X16.0Y-41.5
X16.2Y-51.0
X16.2Y-52.2
X16.2Y-53.4
X16.2Y-54.6
X23.5Y-39.5
X28.086Y-50.481
X28.086Y-51.731
X28.086Y-52.924
X28.086Y-54.281
X28.128Y-40.061
X28.128Y-41.211
X28.128Y-42.461
X31.8Y-51.0
X31.8Y-52.2
X31.8Y-53.4
X31.8Y-54.6
X39.25Y-39.25
X47.2Y-40.2
X47.2Y-41.4
X47.2Y-42.6
X47.2Y-50.588
X47.2Y-51.838
X47.2Y-53.161
X47.2Y-54.4
X48.25Y-18.0
X48.5Y-33.25
X49.5Y-18.0
X49.75Y-33.25
X50.4Y-52.2
X50.4Y-53.4
X50.4Y-54.6
X50.75Y-18.0
X51.0Y-33.25
X57.75Y-43.5
X59.0Y-18.0
X59.25Y-33.25
X60.25Y-18.0
X60.5Y-33.25
X61.5Y-18.0
X61.75Y-33.25
X62.75Y-18.0
X63.0Y-33.25
T3
X2.92Y-40.17
X2.92Y-42.71
X2.92Y-45.25
X2.92Y-47.79
X5.48Y-40.17
X5.48Y-42.71
X5.48Y-45.25
X5.48Y-47.79
X7.6Y-20.09
X8.02Y-40.17
X8.02Y-42.71
X8.02Y-45.25
X8.02Y-47.79
X8.37Y-2.73
X8.37Y-5.27
X10.14Y-20.09
X10.91Y-2.73
X10.91Y-5.27
X13.45Y-2.73
X13.45Y-5.27
X15.99Y-2.73
X15.99Y-5.27
X18.53Y-2.73
X18.53Y-5.27
X21.07Y-2.73
X21.07Y-5.27
X23.61Y-2.73
X23.61Y-5.27
X26.15Y-2.73
X26.15Y-5.27
X28.69Y-2.73
X28.69Y-5.27
X31.23Y-2.73
X31.23Y-5.27
X33.77Y-2.73
X33.77Y-5.27
X36.31Y-2.73
X36.31Y-5.27
X38.85Y-2.73
X38.85Y-5.27
X39.459Y-49.627
X39.459Y-52.167
X39.459Y-54.707
X41.39Y-2.73
X41.39Y-5.27
X41.999Y-49.627
X41.999Y-52.167
X41.999Y-54.707
X43.93Y-2.73
X43.93Y-5.27
X46.47Y-2.73
X46.47Y-5.27
X49.01Y-2.73
X49.01Y-5.27
X51.55Y-2.73
X51.55Y-5.27
X54.09Y-2.73
X54.09Y-5.27
X56.63Y-2.73
X56.63Y-5.27
T0
M30
