G04 #@! TF.GenerationSoftware,KiCad,Pcbnew,6.0.7+dfsg-1+b1*
G04 #@! TF.CreationDate,2022-09-08T18:59:39+01:00*
G04 #@! TF.ProjectId,owl-driver-board,6f776c2d-6472-4697-9665-722d626f6172,rev?*
G04 #@! TF.SameCoordinates,Original*
G04 #@! TF.FileFunction,Legend,Top*
G04 #@! TF.FilePolarity,Positive*
%FSLAX46Y46*%
G04 Gerber Fmt 4.6, Leading zero omitted, Abs format (unit mm)*
G04 Created by KiCad (PCBNEW 6.0.7+dfsg-1+b1) date 2022-09-08 18:59:39*
%MOMM*%
%LPD*%
G01*
G04 APERTURE LIST*
G04 Aperture macros list*
%AMRoundRect*
0 Rectangle with rounded corners*
0 $1 Rounding radius*
0 $2 $3 $4 $5 $6 $7 $8 $9 X,Y pos of 4 corners*
0 Add a 4 corners polygon primitive as box body*
4,1,4,$2,$3,$4,$5,$6,$7,$8,$9,$2,$3,0*
0 Add four circle primitives for the rounded corners*
1,1,$1+$1,$2,$3*
1,1,$1+$1,$4,$5*
1,1,$1+$1,$6,$7*
1,1,$1+$1,$8,$9*
0 Add four rect primitives between the rounded corners*
20,1,$1+$1,$2,$3,$4,$5,0*
20,1,$1+$1,$4,$5,$6,$7,0*
20,1,$1+$1,$6,$7,$8,$9,0*
20,1,$1+$1,$8,$9,$2,$3,0*%
%AMRotRect*
0 Rectangle, with rotation*
0 The origin of the aperture is its center*
0 $1 length*
0 $2 width*
0 $3 Rotation angle, in degrees counterclockwise*
0 Add horizontal line*
21,1,$1,$2,0,0,$3*%
%AMFreePoly0*
4,1,22,0.500000,-0.750000,0.000000,-0.750000,0.000000,-0.745033,-0.079941,-0.743568,-0.215256,-0.701293,-0.333266,-0.622738,-0.424486,-0.514219,-0.481581,-0.384460,-0.499164,-0.250000,-0.500000,-0.250000,-0.500000,0.250000,-0.499164,0.250000,-0.499963,0.256109,-0.478152,0.396186,-0.417904,0.524511,-0.324060,0.630769,-0.204165,0.706417,-0.067858,0.745374,0.000000,0.744959,0.000000,0.750000,
0.500000,0.750000,0.500000,-0.750000,0.500000,-0.750000,$1*%
%AMFreePoly1*
4,1,20,0.000000,0.744959,0.073905,0.744508,0.209726,0.703889,0.328688,0.626782,0.421226,0.519385,0.479903,0.390333,0.500000,0.250000,0.500000,-0.250000,0.499851,-0.262216,0.476331,-0.402017,0.414519,-0.529596,0.319384,-0.634700,0.198574,-0.708877,0.061801,-0.746166,0.000000,-0.745033,0.000000,-0.750000,-0.500000,-0.750000,-0.500000,0.750000,0.000000,0.750000,0.000000,0.744959,
0.000000,0.744959,$1*%
G04 Aperture macros list end*
%ADD10C,0.150000*%
%ADD11C,0.010000*%
%ADD12C,0.120000*%
%ADD13C,6.200000*%
%ADD14R,1.727200X1.727200*%
%ADD15O,1.727200X1.727200*%
%ADD16R,2.500000X1.800000*%
%ADD17RoundRect,0.250000X0.450000X-0.262500X0.450000X0.262500X-0.450000X0.262500X-0.450000X-0.262500X0*%
%ADD18C,2.082800*%
%ADD19RoundRect,0.243750X0.456250X-0.243750X0.456250X0.243750X-0.456250X0.243750X-0.456250X-0.243750X0*%
%ADD20R,6.502400X2.387600*%
%ADD21R,4.495800X2.387600*%
%ADD22RoundRect,0.250000X0.262500X0.450000X-0.262500X0.450000X-0.262500X-0.450000X0.262500X-0.450000X0*%
%ADD23RoundRect,0.225000X-0.225000X-0.250000X0.225000X-0.250000X0.225000X0.250000X-0.225000X0.250000X0*%
%ADD24R,3.600000X2.700000*%
%ADD25R,2.387600X6.502400*%
%ADD26R,2.387600X4.495800*%
%ADD27RoundRect,0.250000X-0.450000X0.262500X-0.450000X-0.262500X0.450000X-0.262500X0.450000X0.262500X0*%
%ADD28RoundRect,0.243750X0.243750X0.456250X-0.243750X0.456250X-0.243750X-0.456250X0.243750X-0.456250X0*%
%ADD29RoundRect,0.150000X-0.150000X0.587500X-0.150000X-0.587500X0.150000X-0.587500X0.150000X0.587500X0*%
%ADD30FreePoly0,0.000000*%
%ADD31FreePoly1,0.000000*%
%ADD32RoundRect,0.250000X-0.325000X-0.650000X0.325000X-0.650000X0.325000X0.650000X-0.325000X0.650000X0*%
%ADD33RoundRect,0.150000X-0.825000X-0.150000X0.825000X-0.150000X0.825000X0.150000X-0.825000X0.150000X0*%
%ADD34RoundRect,0.250000X-0.262500X-0.450000X0.262500X-0.450000X0.262500X0.450000X-0.262500X0.450000X0*%
%ADD35R,1.300000X1.700000*%
%ADD36RoundRect,0.150000X-0.587500X-0.150000X0.587500X-0.150000X0.587500X0.150000X-0.587500X0.150000X0*%
%ADD37RoundRect,0.250000X-0.650000X0.325000X-0.650000X-0.325000X0.650000X-0.325000X0.650000X0.325000X0*%
%ADD38R,1.800000X2.500000*%
%ADD39RoundRect,0.100000X0.100000X-0.637500X0.100000X0.637500X-0.100000X0.637500X-0.100000X-0.637500X0*%
%ADD40RotRect,1.600000X1.600000X335.000000*%
%ADD41C,1.600000*%
G04 APERTURE END LIST*
D10*
X9310714Y-36391666D02*
X9786904Y-36391666D01*
X9215476Y-36677380D02*
X9548809Y-35677380D01*
X9882142Y-36677380D01*
X10691666Y-35677380D02*
X10215476Y-35677380D01*
X10167857Y-36153571D01*
X10215476Y-36105952D01*
X10310714Y-36058333D01*
X10548809Y-36058333D01*
X10644047Y-36105952D01*
X10691666Y-36153571D01*
X10739285Y-36248809D01*
X10739285Y-36486904D01*
X10691666Y-36582142D01*
X10644047Y-36629761D01*
X10548809Y-36677380D01*
X10310714Y-36677380D01*
X10215476Y-36629761D01*
X10167857Y-36582142D01*
X9310714Y-33791666D02*
X9786904Y-33791666D01*
X9215476Y-34077380D02*
X9548809Y-33077380D01*
X9882142Y-34077380D01*
X10644047Y-33410714D02*
X10644047Y-34077380D01*
X10405952Y-33029761D02*
X10167857Y-33744047D01*
X10786904Y-33744047D01*
X9310714Y-31191666D02*
X9786904Y-31191666D01*
X9215476Y-31477380D02*
X9548809Y-30477380D01*
X9882142Y-31477380D01*
X10120238Y-30477380D02*
X10739285Y-30477380D01*
X10405952Y-30858333D01*
X10548809Y-30858333D01*
X10644047Y-30905952D01*
X10691666Y-30953571D01*
X10739285Y-31048809D01*
X10739285Y-31286904D01*
X10691666Y-31382142D01*
X10644047Y-31429761D01*
X10548809Y-31477380D01*
X10263095Y-31477380D01*
X10167857Y-31429761D01*
X10120238Y-31382142D01*
X9310714Y-28616666D02*
X9786904Y-28616666D01*
X9215476Y-28902380D02*
X9548809Y-27902380D01*
X9882142Y-28902380D01*
X10167857Y-27997619D02*
X10215476Y-27950000D01*
X10310714Y-27902380D01*
X10548809Y-27902380D01*
X10644047Y-27950000D01*
X10691666Y-27997619D01*
X10739285Y-28092857D01*
X10739285Y-28188095D01*
X10691666Y-28330952D01*
X10120238Y-28902380D01*
X10739285Y-28902380D01*
X9310714Y-25991666D02*
X9786904Y-25991666D01*
X9215476Y-26277380D02*
X9548809Y-25277380D01*
X9882142Y-26277380D01*
X10739285Y-26277380D02*
X10167857Y-26277380D01*
X10453571Y-26277380D02*
X10453571Y-25277380D01*
X10358333Y-25420238D01*
X10263095Y-25515476D01*
X10167857Y-25563095D01*
X9310714Y-23391666D02*
X9786904Y-23391666D01*
X9215476Y-23677380D02*
X9548809Y-22677380D01*
X9882142Y-23677380D01*
X10405952Y-22677380D02*
X10501190Y-22677380D01*
X10596428Y-22725000D01*
X10644047Y-22772619D01*
X10691666Y-22867857D01*
X10739285Y-23058333D01*
X10739285Y-23296428D01*
X10691666Y-23486904D01*
X10644047Y-23582142D01*
X10596428Y-23629761D01*
X10501190Y-23677380D01*
X10405952Y-23677380D01*
X10310714Y-23629761D01*
X10263095Y-23582142D01*
X10215476Y-23486904D01*
X10167857Y-23296428D01*
X10167857Y-23058333D01*
X10215476Y-22867857D01*
X10263095Y-22772619D01*
X10310714Y-22725000D01*
X10405952Y-22677380D01*
X11864285Y-21102380D02*
X11864285Y-20102380D01*
X12245238Y-20102380D01*
X12340476Y-20150000D01*
X12388095Y-20197619D01*
X12435714Y-20292857D01*
X12435714Y-20435714D01*
X12388095Y-20530952D01*
X12340476Y-20578571D01*
X12245238Y-20626190D01*
X11864285Y-20626190D01*
X12864285Y-21102380D02*
X12864285Y-20102380D01*
X14578571Y-20102380D02*
X14102380Y-20102380D01*
X14054761Y-20578571D01*
X14102380Y-20530952D01*
X14197619Y-20483333D01*
X14435714Y-20483333D01*
X14530952Y-20530952D01*
X14578571Y-20578571D01*
X14626190Y-20673809D01*
X14626190Y-20911904D01*
X14578571Y-21007142D01*
X14530952Y-21054761D01*
X14435714Y-21102380D01*
X14197619Y-21102380D01*
X14102380Y-21054761D01*
X14054761Y-21007142D01*
X14911904Y-20102380D02*
X15245238Y-21102380D01*
X15578571Y-20102380D01*
X164285Y-47560714D02*
X878571Y-47560714D01*
X449999Y-47132142D02*
X164285Y-48417857D01*
X783333Y-47989285D02*
X69047Y-47989285D01*
X497619Y-48417857D02*
X783333Y-47132142D01*
X1640476Y-47560714D02*
X1640476Y-48227380D01*
X1402380Y-47179761D02*
X1164285Y-47894047D01*
X1783333Y-47894047D01*
X164285Y-45085714D02*
X878571Y-45085714D01*
X449999Y-44657142D02*
X164285Y-45942857D01*
X783333Y-45514285D02*
X69047Y-45514285D01*
X497619Y-45942857D02*
X783333Y-44657142D01*
X1116666Y-44752380D02*
X1735714Y-44752380D01*
X1402380Y-45133333D01*
X1545238Y-45133333D01*
X1640476Y-45180952D01*
X1688095Y-45228571D01*
X1735714Y-45323809D01*
X1735714Y-45561904D01*
X1688095Y-45657142D01*
X1640476Y-45704761D01*
X1545238Y-45752380D01*
X1259523Y-45752380D01*
X1164285Y-45704761D01*
X1116666Y-45657142D01*
X164285Y-42510714D02*
X878571Y-42510714D01*
X449999Y-42082142D02*
X164285Y-43367857D01*
X783333Y-42939285D02*
X69047Y-42939285D01*
X497619Y-43367857D02*
X783333Y-42082142D01*
X1164285Y-42272619D02*
X1211904Y-42225000D01*
X1307142Y-42177380D01*
X1545238Y-42177380D01*
X1640476Y-42225000D01*
X1688095Y-42272619D01*
X1735714Y-42367857D01*
X1735714Y-42463095D01*
X1688095Y-42605952D01*
X1116666Y-43177380D01*
X1735714Y-43177380D01*
X164285Y-39985714D02*
X878571Y-39985714D01*
X449999Y-39557142D02*
X164285Y-40842857D01*
X783333Y-40414285D02*
X69047Y-40414285D01*
X497619Y-40842857D02*
X783333Y-39557142D01*
X1735714Y-40652380D02*
X1164285Y-40652380D01*
X1449999Y-40652380D02*
X1449999Y-39652380D01*
X1354761Y-39795238D01*
X1259523Y-39890476D01*
X1164285Y-39938095D01*
D11*
G36*
X25978772Y-25357009D02*
G01*
X25980926Y-25358995D01*
X25986322Y-25366663D01*
X25993022Y-25378864D01*
X26000850Y-25395126D01*
X26009627Y-25414976D01*
X26019179Y-25437940D01*
X26039896Y-25491318D01*
X26061589Y-25551476D01*
X26082842Y-25614630D01*
X26102243Y-25676993D01*
X26110807Y-25706696D01*
X26118378Y-25734782D01*
X26134422Y-25800145D01*
X26148609Y-25865362D01*
X26160958Y-25931052D01*
X26171490Y-25997837D01*
X26180225Y-26066336D01*
X26187185Y-26137170D01*
X26192388Y-26210958D01*
X26195856Y-26288321D01*
X26197609Y-26369880D01*
X26197667Y-26456254D01*
X26196051Y-26548063D01*
X26192780Y-26645929D01*
X26181360Y-26862308D01*
X26163568Y-27110352D01*
X26145254Y-27352721D01*
X26134512Y-27528997D01*
X26131381Y-27604688D01*
X26129424Y-27678663D01*
X26128069Y-27841205D01*
X26129023Y-27959673D01*
X26132200Y-28067956D01*
X26137796Y-28167917D01*
X26146007Y-28261423D01*
X26157029Y-28350337D01*
X26171057Y-28436525D01*
X26188289Y-28521852D01*
X26208919Y-28608182D01*
X26220514Y-28650272D01*
X26235014Y-28697950D01*
X26251544Y-28748740D01*
X26269229Y-28800164D01*
X26287195Y-28849743D01*
X26304568Y-28895000D01*
X26320473Y-28933458D01*
X26334036Y-28962638D01*
X26337651Y-28969818D01*
X26341023Y-28976708D01*
X26344078Y-28983142D01*
X26346743Y-28988957D01*
X26348944Y-28993987D01*
X26350607Y-28998068D01*
X26351659Y-29001037D01*
X26351933Y-29002052D01*
X26352026Y-29002727D01*
X26351962Y-29003513D01*
X26351762Y-29004218D01*
X26351607Y-29004540D01*
X26351414Y-29004841D01*
X26351182Y-29005120D01*
X26350908Y-29005378D01*
X26350592Y-29005614D01*
X26350232Y-29005828D01*
X26349374Y-29006188D01*
X26348323Y-29006456D01*
X26347068Y-29006629D01*
X26345597Y-29006704D01*
X26343899Y-29006681D01*
X26341963Y-29006555D01*
X26339776Y-29006325D01*
X26337329Y-29005988D01*
X26334608Y-29005542D01*
X26331603Y-29004985D01*
X26328303Y-29004314D01*
X26324695Y-29003526D01*
X26320769Y-29002619D01*
X26311917Y-29000441D01*
X26301654Y-28997758D01*
X26289890Y-28994553D01*
X26276532Y-28990805D01*
X26261491Y-28986496D01*
X26244674Y-28981607D01*
X26225990Y-28976117D01*
X26225967Y-28976179D01*
X26156553Y-28954836D01*
X26088113Y-28932021D01*
X26020738Y-28907770D01*
X25954518Y-28882121D01*
X25889546Y-28855109D01*
X25825911Y-28826773D01*
X25763706Y-28797147D01*
X25703022Y-28766269D01*
X25580704Y-28698885D01*
X25460934Y-28626772D01*
X25343950Y-28550170D01*
X25229993Y-28469317D01*
X25119303Y-28384454D01*
X25012120Y-28295818D01*
X24908684Y-28203649D01*
X24809234Y-28108186D01*
X24714010Y-28009668D01*
X24623254Y-27908335D01*
X24537203Y-27804425D01*
X24456099Y-27698177D01*
X24380181Y-27589830D01*
X24309690Y-27479624D01*
X24244865Y-27367798D01*
X24185945Y-27254590D01*
X24161706Y-27204067D01*
X24139152Y-27154631D01*
X24118252Y-27106170D01*
X24098975Y-27058571D01*
X24081292Y-27011723D01*
X24065171Y-26965513D01*
X24050581Y-26919829D01*
X24037492Y-26874559D01*
X24025874Y-26829590D01*
X24015694Y-26784810D01*
X24006924Y-26740108D01*
X23999531Y-26695371D01*
X23993486Y-26650487D01*
X23988757Y-26605343D01*
X23985314Y-26559827D01*
X23983126Y-26513828D01*
X23981843Y-26460366D01*
X23981869Y-26411247D01*
X23983271Y-26365634D01*
X23986121Y-26322689D01*
X23990487Y-26281574D01*
X23996440Y-26241453D01*
X24004050Y-26201487D01*
X24013386Y-26160840D01*
X24028045Y-26101700D01*
X24073635Y-26085490D01*
X24117515Y-26068881D01*
X24173637Y-26046102D01*
X24238548Y-26018672D01*
X24308797Y-25988113D01*
X24451496Y-25923693D01*
X24517041Y-25892874D01*
X24574112Y-25865010D01*
X24636498Y-25833231D01*
X24694773Y-25802420D01*
X24749083Y-25772488D01*
X24799575Y-25743351D01*
X24846396Y-25714920D01*
X24889692Y-25687109D01*
X24929612Y-25659832D01*
X24966301Y-25633001D01*
X25034811Y-25581041D01*
X25096062Y-25590541D01*
X25115400Y-25593092D01*
X25136630Y-25595045D01*
X25159496Y-25596414D01*
X25183746Y-25597213D01*
X25235387Y-25597161D01*
X25289529Y-25595003D01*
X25344146Y-25590858D01*
X25397216Y-25584840D01*
X25422538Y-25581165D01*
X25446713Y-25577066D01*
X25469490Y-25572556D01*
X25490614Y-25567651D01*
X25518605Y-25560200D01*
X25547759Y-25551677D01*
X25608560Y-25531832D01*
X25671028Y-25508956D01*
X25733172Y-25483889D01*
X25793005Y-25457471D01*
X25848537Y-25430541D01*
X25897778Y-25403938D01*
X25919418Y-25391023D01*
X25938740Y-25378504D01*
X25945407Y-25374051D01*
X25951851Y-25369897D01*
X25957913Y-25366132D01*
X25963436Y-25362848D01*
X25968265Y-25360134D01*
X25972241Y-25358084D01*
X25973861Y-25357335D01*
X25975209Y-25356786D01*
X25976265Y-25356449D01*
X25977011Y-25356334D01*
X25978772Y-25357009D01*
G37*
X25978772Y-25357009D02*
X25980926Y-25358995D01*
X25986322Y-25366663D01*
X25993022Y-25378864D01*
X26000850Y-25395126D01*
X26009627Y-25414976D01*
X26019179Y-25437940D01*
X26039896Y-25491318D01*
X26061589Y-25551476D01*
X26082842Y-25614630D01*
X26102243Y-25676993D01*
X26110807Y-25706696D01*
X26118378Y-25734782D01*
X26134422Y-25800145D01*
X26148609Y-25865362D01*
X26160958Y-25931052D01*
X26171490Y-25997837D01*
X26180225Y-26066336D01*
X26187185Y-26137170D01*
X26192388Y-26210958D01*
X26195856Y-26288321D01*
X26197609Y-26369880D01*
X26197667Y-26456254D01*
X26196051Y-26548063D01*
X26192780Y-26645929D01*
X26181360Y-26862308D01*
X26163568Y-27110352D01*
X26145254Y-27352721D01*
X26134512Y-27528997D01*
X26131381Y-27604688D01*
X26129424Y-27678663D01*
X26128069Y-27841205D01*
X26129023Y-27959673D01*
X26132200Y-28067956D01*
X26137796Y-28167917D01*
X26146007Y-28261423D01*
X26157029Y-28350337D01*
X26171057Y-28436525D01*
X26188289Y-28521852D01*
X26208919Y-28608182D01*
X26220514Y-28650272D01*
X26235014Y-28697950D01*
X26251544Y-28748740D01*
X26269229Y-28800164D01*
X26287195Y-28849743D01*
X26304568Y-28895000D01*
X26320473Y-28933458D01*
X26334036Y-28962638D01*
X26337651Y-28969818D01*
X26341023Y-28976708D01*
X26344078Y-28983142D01*
X26346743Y-28988957D01*
X26348944Y-28993987D01*
X26350607Y-28998068D01*
X26351659Y-29001037D01*
X26351933Y-29002052D01*
X26352026Y-29002727D01*
X26351962Y-29003513D01*
X26351762Y-29004218D01*
X26351607Y-29004540D01*
X26351414Y-29004841D01*
X26351182Y-29005120D01*
X26350908Y-29005378D01*
X26350592Y-29005614D01*
X26350232Y-29005828D01*
X26349374Y-29006188D01*
X26348323Y-29006456D01*
X26347068Y-29006629D01*
X26345597Y-29006704D01*
X26343899Y-29006681D01*
X26341963Y-29006555D01*
X26339776Y-29006325D01*
X26337329Y-29005988D01*
X26334608Y-29005542D01*
X26331603Y-29004985D01*
X26328303Y-29004314D01*
X26324695Y-29003526D01*
X26320769Y-29002619D01*
X26311917Y-29000441D01*
X26301654Y-28997758D01*
X26289890Y-28994553D01*
X26276532Y-28990805D01*
X26261491Y-28986496D01*
X26244674Y-28981607D01*
X26225990Y-28976117D01*
X26225967Y-28976179D01*
X26156553Y-28954836D01*
X26088113Y-28932021D01*
X26020738Y-28907770D01*
X25954518Y-28882121D01*
X25889546Y-28855109D01*
X25825911Y-28826773D01*
X25763706Y-28797147D01*
X25703022Y-28766269D01*
X25580704Y-28698885D01*
X25460934Y-28626772D01*
X25343950Y-28550170D01*
X25229993Y-28469317D01*
X25119303Y-28384454D01*
X25012120Y-28295818D01*
X24908684Y-28203649D01*
X24809234Y-28108186D01*
X24714010Y-28009668D01*
X24623254Y-27908335D01*
X24537203Y-27804425D01*
X24456099Y-27698177D01*
X24380181Y-27589830D01*
X24309690Y-27479624D01*
X24244865Y-27367798D01*
X24185945Y-27254590D01*
X24161706Y-27204067D01*
X24139152Y-27154631D01*
X24118252Y-27106170D01*
X24098975Y-27058571D01*
X24081292Y-27011723D01*
X24065171Y-26965513D01*
X24050581Y-26919829D01*
X24037492Y-26874559D01*
X24025874Y-26829590D01*
X24015694Y-26784810D01*
X24006924Y-26740108D01*
X23999531Y-26695371D01*
X23993486Y-26650487D01*
X23988757Y-26605343D01*
X23985314Y-26559827D01*
X23983126Y-26513828D01*
X23981843Y-26460366D01*
X23981869Y-26411247D01*
X23983271Y-26365634D01*
X23986121Y-26322689D01*
X23990487Y-26281574D01*
X23996440Y-26241453D01*
X24004050Y-26201487D01*
X24013386Y-26160840D01*
X24028045Y-26101700D01*
X24073635Y-26085490D01*
X24117515Y-26068881D01*
X24173637Y-26046102D01*
X24238548Y-26018672D01*
X24308797Y-25988113D01*
X24451496Y-25923693D01*
X24517041Y-25892874D01*
X24574112Y-25865010D01*
X24636498Y-25833231D01*
X24694773Y-25802420D01*
X24749083Y-25772488D01*
X24799575Y-25743351D01*
X24846396Y-25714920D01*
X24889692Y-25687109D01*
X24929612Y-25659832D01*
X24966301Y-25633001D01*
X25034811Y-25581041D01*
X25096062Y-25590541D01*
X25115400Y-25593092D01*
X25136630Y-25595045D01*
X25159496Y-25596414D01*
X25183746Y-25597213D01*
X25235387Y-25597161D01*
X25289529Y-25595003D01*
X25344146Y-25590858D01*
X25397216Y-25584840D01*
X25422538Y-25581165D01*
X25446713Y-25577066D01*
X25469490Y-25572556D01*
X25490614Y-25567651D01*
X25518605Y-25560200D01*
X25547759Y-25551677D01*
X25608560Y-25531832D01*
X25671028Y-25508956D01*
X25733172Y-25483889D01*
X25793005Y-25457471D01*
X25848537Y-25430541D01*
X25897778Y-25403938D01*
X25919418Y-25391023D01*
X25938740Y-25378504D01*
X25945407Y-25374051D01*
X25951851Y-25369897D01*
X25957913Y-25366132D01*
X25963436Y-25362848D01*
X25968265Y-25360134D01*
X25972241Y-25358084D01*
X25973861Y-25357335D01*
X25975209Y-25356786D01*
X25976265Y-25356449D01*
X25977011Y-25356334D01*
X25978772Y-25357009D01*
G36*
X22082852Y-25360996D02*
G01*
X22084089Y-25361104D01*
X22085408Y-25361316D01*
X22086814Y-25361633D01*
X22088311Y-25362058D01*
X22089905Y-25362591D01*
X22091600Y-25363234D01*
X22093401Y-25363989D01*
X22095313Y-25364858D01*
X22097341Y-25365843D01*
X22099488Y-25366945D01*
X22101761Y-25368165D01*
X22104164Y-25369506D01*
X22106702Y-25370970D01*
X22112201Y-25374270D01*
X22118297Y-25378080D01*
X22125027Y-25382412D01*
X22132431Y-25387280D01*
X22145387Y-25395518D01*
X22160523Y-25404515D01*
X22196191Y-25424240D01*
X22237147Y-25445370D01*
X22281106Y-25466818D01*
X22325781Y-25487498D01*
X22368886Y-25506322D01*
X22408135Y-25522204D01*
X22425599Y-25528702D01*
X22441242Y-25534058D01*
X22477574Y-25545268D01*
X22514088Y-25555450D01*
X22550703Y-25564594D01*
X22587336Y-25572695D01*
X22623903Y-25579743D01*
X22660322Y-25585731D01*
X22696509Y-25590653D01*
X22732383Y-25594499D01*
X22767859Y-25597262D01*
X22802856Y-25598935D01*
X22837290Y-25599511D01*
X22871079Y-25598980D01*
X22904139Y-25597336D01*
X22936387Y-25594571D01*
X22967742Y-25590677D01*
X22998119Y-25585648D01*
X23003031Y-25584812D01*
X23007623Y-25584247D01*
X23009828Y-25584080D01*
X23011987Y-25583998D01*
X23014114Y-25584006D01*
X23016218Y-25584109D01*
X23018312Y-25584314D01*
X23020408Y-25584625D01*
X23022518Y-25585049D01*
X23024652Y-25585591D01*
X23026823Y-25586256D01*
X23029042Y-25587051D01*
X23031322Y-25587980D01*
X23033673Y-25589050D01*
X23036107Y-25590265D01*
X23038637Y-25591632D01*
X23041273Y-25593156D01*
X23044028Y-25594842D01*
X23049940Y-25598726D01*
X23056466Y-25603327D01*
X23063700Y-25608690D01*
X23071734Y-25614859D01*
X23080663Y-25621881D01*
X23090580Y-25629798D01*
X23113360Y-25647516D01*
X23138193Y-25665768D01*
X23164987Y-25684501D01*
X23193648Y-25703661D01*
X23256201Y-25743053D01*
X23325107Y-25783520D01*
X23399621Y-25824639D01*
X23478998Y-25865987D01*
X23562494Y-25907139D01*
X23649364Y-25947673D01*
X23722855Y-25981307D01*
X23745840Y-25992038D01*
X23755028Y-25996572D01*
X23755148Y-25996811D01*
X23755229Y-25997299D01*
X23755275Y-25998994D01*
X23755171Y-26001608D01*
X23754925Y-26005089D01*
X23754029Y-26014448D01*
X23752637Y-26026664D01*
X23750798Y-26041329D01*
X23748564Y-26058036D01*
X23745983Y-26076376D01*
X23743107Y-26095942D01*
X23734818Y-26161969D01*
X23729667Y-26229309D01*
X23727644Y-26297903D01*
X23728735Y-26367689D01*
X23732928Y-26438606D01*
X23740212Y-26510595D01*
X23750573Y-26583593D01*
X23763999Y-26657539D01*
X23780479Y-26732374D01*
X23800000Y-26808036D01*
X23822550Y-26884464D01*
X23848116Y-26961597D01*
X23876687Y-27039374D01*
X23908250Y-27117735D01*
X23942792Y-27196618D01*
X23980303Y-27275963D01*
X24030102Y-27373772D01*
X24082863Y-27470000D01*
X24138640Y-27564708D01*
X24197483Y-27657959D01*
X24259446Y-27749815D01*
X24324580Y-27840338D01*
X24392937Y-27929589D01*
X24464570Y-28017632D01*
X24539530Y-28104528D01*
X24617869Y-28190340D01*
X24699640Y-28275130D01*
X24784895Y-28358959D01*
X24873685Y-28441890D01*
X24966064Y-28523985D01*
X25062082Y-28605307D01*
X25161793Y-28685917D01*
X25200728Y-28715627D01*
X25247325Y-28749388D01*
X25300072Y-28786192D01*
X25357459Y-28825029D01*
X25417974Y-28864891D01*
X25480106Y-28904771D01*
X25542344Y-28943659D01*
X25603178Y-28980547D01*
X25607935Y-28983443D01*
X25612239Y-28986191D01*
X25616103Y-28988811D01*
X25619543Y-28991323D01*
X25622572Y-28993745D01*
X25625205Y-28996096D01*
X25627456Y-28998396D01*
X25629340Y-29000663D01*
X25630149Y-29001791D01*
X25630871Y-29002918D01*
X25631509Y-29004046D01*
X25632065Y-29005179D01*
X25632539Y-29006317D01*
X25632934Y-29007465D01*
X25633252Y-29008624D01*
X25633494Y-29009796D01*
X25633662Y-29010984D01*
X25633759Y-29012190D01*
X25633785Y-29013417D01*
X25633743Y-29014667D01*
X25633462Y-29017247D01*
X25632929Y-29019947D01*
X25627892Y-29044265D01*
X25617534Y-29096445D01*
X25586868Y-29253709D01*
X25528610Y-29536481D01*
X25461243Y-29834050D01*
X25391528Y-30117751D01*
X25357904Y-30245444D01*
X25326227Y-30358920D01*
X25256256Y-30589225D01*
X25187344Y-30793129D01*
X25153443Y-30884851D01*
X25119997Y-30969579D01*
X25087069Y-31047179D01*
X25054721Y-31117520D01*
X25023018Y-31180472D01*
X24992023Y-31235901D01*
X24961798Y-31283677D01*
X24932407Y-31323668D01*
X24903914Y-31355742D01*
X24876382Y-31379768D01*
X24849873Y-31395614D01*
X24824451Y-31403148D01*
X24818535Y-31403905D01*
X24813211Y-31404459D01*
X24808390Y-31404762D01*
X24806140Y-31404806D01*
X24803983Y-31404769D01*
X24801908Y-31404647D01*
X24799903Y-31404433D01*
X24797957Y-31404121D01*
X24796060Y-31403706D01*
X24794199Y-31403182D01*
X24792365Y-31402543D01*
X24790545Y-31401783D01*
X24788729Y-31400896D01*
X24786906Y-31399877D01*
X24785065Y-31398720D01*
X24783194Y-31397419D01*
X24781282Y-31395967D01*
X24779319Y-31394360D01*
X24777293Y-31392592D01*
X24773008Y-31388547D01*
X24768340Y-31383785D01*
X24763198Y-31378261D01*
X24757494Y-31371927D01*
X24751140Y-31364737D01*
X24751154Y-31364751D01*
X24735772Y-31345925D01*
X24719890Y-31323841D01*
X24703525Y-31298536D01*
X24686694Y-31270051D01*
X24669415Y-31238425D01*
X24651705Y-31203698D01*
X24633582Y-31165908D01*
X24615063Y-31125096D01*
X24596165Y-31081301D01*
X24576906Y-31034562D01*
X24557304Y-30984918D01*
X24537375Y-30932410D01*
X24517137Y-30877077D01*
X24496608Y-30818957D01*
X24454746Y-30694518D01*
X24401075Y-30531358D01*
X24362245Y-30415549D01*
X24333986Y-30333459D01*
X24052873Y-30044160D01*
X23860240Y-29844567D01*
X23699292Y-29674043D01*
X23542759Y-29503271D01*
X23363373Y-29302937D01*
X23268155Y-29194843D01*
X23176057Y-29087675D01*
X23069422Y-28960625D01*
X22930595Y-28792885D01*
X22883520Y-28734059D01*
X22824855Y-28658080D01*
X22688423Y-28475918D01*
X22552645Y-28288907D01*
X22494797Y-28206868D01*
X22448866Y-28139558D01*
X22379979Y-28034087D01*
X22315167Y-27931054D01*
X22254365Y-27830314D01*
X22197510Y-27731721D01*
X22144537Y-27635129D01*
X22095383Y-27540392D01*
X22049982Y-27447364D01*
X22008271Y-27355899D01*
X21970186Y-27265852D01*
X21935663Y-27177076D01*
X21904638Y-27089426D01*
X21877046Y-27002757D01*
X21852823Y-26916921D01*
X21831906Y-26831774D01*
X21814229Y-26747168D01*
X21799730Y-26662960D01*
X21795557Y-26632457D01*
X21791997Y-26599456D01*
X21786707Y-26527409D01*
X21783833Y-26449727D01*
X21783350Y-26369315D01*
X21785234Y-26289079D01*
X21789459Y-26211926D01*
X21795999Y-26140762D01*
X21800130Y-26108333D01*
X21804830Y-26078492D01*
X21815064Y-26023766D01*
X21826245Y-25971049D01*
X21838495Y-25919920D01*
X21851933Y-25869958D01*
X21866679Y-25820742D01*
X21882853Y-25771850D01*
X21900574Y-25722861D01*
X21919962Y-25673353D01*
X21935536Y-25636697D01*
X21954398Y-25595012D01*
X21975418Y-25550562D01*
X21997464Y-25505615D01*
X22019406Y-25462436D01*
X22040112Y-25423290D01*
X22058451Y-25390443D01*
X22073292Y-25366160D01*
X22073942Y-25365240D01*
X22074622Y-25364406D01*
X22075336Y-25363657D01*
X22076089Y-25362998D01*
X22076886Y-25362428D01*
X22077731Y-25361950D01*
X22078629Y-25361565D01*
X22079586Y-25361276D01*
X22080605Y-25361084D01*
X22081693Y-25360990D01*
X22082852Y-25360996D01*
G37*
X22082852Y-25360996D02*
X22084089Y-25361104D01*
X22085408Y-25361316D01*
X22086814Y-25361633D01*
X22088311Y-25362058D01*
X22089905Y-25362591D01*
X22091600Y-25363234D01*
X22093401Y-25363989D01*
X22095313Y-25364858D01*
X22097341Y-25365843D01*
X22099488Y-25366945D01*
X22101761Y-25368165D01*
X22104164Y-25369506D01*
X22106702Y-25370970D01*
X22112201Y-25374270D01*
X22118297Y-25378080D01*
X22125027Y-25382412D01*
X22132431Y-25387280D01*
X22145387Y-25395518D01*
X22160523Y-25404515D01*
X22196191Y-25424240D01*
X22237147Y-25445370D01*
X22281106Y-25466818D01*
X22325781Y-25487498D01*
X22368886Y-25506322D01*
X22408135Y-25522204D01*
X22425599Y-25528702D01*
X22441242Y-25534058D01*
X22477574Y-25545268D01*
X22514088Y-25555450D01*
X22550703Y-25564594D01*
X22587336Y-25572695D01*
X22623903Y-25579743D01*
X22660322Y-25585731D01*
X22696509Y-25590653D01*
X22732383Y-25594499D01*
X22767859Y-25597262D01*
X22802856Y-25598935D01*
X22837290Y-25599511D01*
X22871079Y-25598980D01*
X22904139Y-25597336D01*
X22936387Y-25594571D01*
X22967742Y-25590677D01*
X22998119Y-25585648D01*
X23003031Y-25584812D01*
X23007623Y-25584247D01*
X23009828Y-25584080D01*
X23011987Y-25583998D01*
X23014114Y-25584006D01*
X23016218Y-25584109D01*
X23018312Y-25584314D01*
X23020408Y-25584625D01*
X23022518Y-25585049D01*
X23024652Y-25585591D01*
X23026823Y-25586256D01*
X23029042Y-25587051D01*
X23031322Y-25587980D01*
X23033673Y-25589050D01*
X23036107Y-25590265D01*
X23038637Y-25591632D01*
X23041273Y-25593156D01*
X23044028Y-25594842D01*
X23049940Y-25598726D01*
X23056466Y-25603327D01*
X23063700Y-25608690D01*
X23071734Y-25614859D01*
X23080663Y-25621881D01*
X23090580Y-25629798D01*
X23113360Y-25647516D01*
X23138193Y-25665768D01*
X23164987Y-25684501D01*
X23193648Y-25703661D01*
X23256201Y-25743053D01*
X23325107Y-25783520D01*
X23399621Y-25824639D01*
X23478998Y-25865987D01*
X23562494Y-25907139D01*
X23649364Y-25947673D01*
X23722855Y-25981307D01*
X23745840Y-25992038D01*
X23755028Y-25996572D01*
X23755148Y-25996811D01*
X23755229Y-25997299D01*
X23755275Y-25998994D01*
X23755171Y-26001608D01*
X23754925Y-26005089D01*
X23754029Y-26014448D01*
X23752637Y-26026664D01*
X23750798Y-26041329D01*
X23748564Y-26058036D01*
X23745983Y-26076376D01*
X23743107Y-26095942D01*
X23734818Y-26161969D01*
X23729667Y-26229309D01*
X23727644Y-26297903D01*
X23728735Y-26367689D01*
X23732928Y-26438606D01*
X23740212Y-26510595D01*
X23750573Y-26583593D01*
X23763999Y-26657539D01*
X23780479Y-26732374D01*
X23800000Y-26808036D01*
X23822550Y-26884464D01*
X23848116Y-26961597D01*
X23876687Y-27039374D01*
X23908250Y-27117735D01*
X23942792Y-27196618D01*
X23980303Y-27275963D01*
X24030102Y-27373772D01*
X24082863Y-27470000D01*
X24138640Y-27564708D01*
X24197483Y-27657959D01*
X24259446Y-27749815D01*
X24324580Y-27840338D01*
X24392937Y-27929589D01*
X24464570Y-28017632D01*
X24539530Y-28104528D01*
X24617869Y-28190340D01*
X24699640Y-28275130D01*
X24784895Y-28358959D01*
X24873685Y-28441890D01*
X24966064Y-28523985D01*
X25062082Y-28605307D01*
X25161793Y-28685917D01*
X25200728Y-28715627D01*
X25247325Y-28749388D01*
X25300072Y-28786192D01*
X25357459Y-28825029D01*
X25417974Y-28864891D01*
X25480106Y-28904771D01*
X25542344Y-28943659D01*
X25603178Y-28980547D01*
X25607935Y-28983443D01*
X25612239Y-28986191D01*
X25616103Y-28988811D01*
X25619543Y-28991323D01*
X25622572Y-28993745D01*
X25625205Y-28996096D01*
X25627456Y-28998396D01*
X25629340Y-29000663D01*
X25630149Y-29001791D01*
X25630871Y-29002918D01*
X25631509Y-29004046D01*
X25632065Y-29005179D01*
X25632539Y-29006317D01*
X25632934Y-29007465D01*
X25633252Y-29008624D01*
X25633494Y-29009796D01*
X25633662Y-29010984D01*
X25633759Y-29012190D01*
X25633785Y-29013417D01*
X25633743Y-29014667D01*
X25633462Y-29017247D01*
X25632929Y-29019947D01*
X25627892Y-29044265D01*
X25617534Y-29096445D01*
X25586868Y-29253709D01*
X25528610Y-29536481D01*
X25461243Y-29834050D01*
X25391528Y-30117751D01*
X25357904Y-30245444D01*
X25326227Y-30358920D01*
X25256256Y-30589225D01*
X25187344Y-30793129D01*
X25153443Y-30884851D01*
X25119997Y-30969579D01*
X25087069Y-31047179D01*
X25054721Y-31117520D01*
X25023018Y-31180472D01*
X24992023Y-31235901D01*
X24961798Y-31283677D01*
X24932407Y-31323668D01*
X24903914Y-31355742D01*
X24876382Y-31379768D01*
X24849873Y-31395614D01*
X24824451Y-31403148D01*
X24818535Y-31403905D01*
X24813211Y-31404459D01*
X24808390Y-31404762D01*
X24806140Y-31404806D01*
X24803983Y-31404769D01*
X24801908Y-31404647D01*
X24799903Y-31404433D01*
X24797957Y-31404121D01*
X24796060Y-31403706D01*
X24794199Y-31403182D01*
X24792365Y-31402543D01*
X24790545Y-31401783D01*
X24788729Y-31400896D01*
X24786906Y-31399877D01*
X24785065Y-31398720D01*
X24783194Y-31397419D01*
X24781282Y-31395967D01*
X24779319Y-31394360D01*
X24777293Y-31392592D01*
X24773008Y-31388547D01*
X24768340Y-31383785D01*
X24763198Y-31378261D01*
X24757494Y-31371927D01*
X24751140Y-31364737D01*
X24751154Y-31364751D01*
X24735772Y-31345925D01*
X24719890Y-31323841D01*
X24703525Y-31298536D01*
X24686694Y-31270051D01*
X24669415Y-31238425D01*
X24651705Y-31203698D01*
X24633582Y-31165908D01*
X24615063Y-31125096D01*
X24596165Y-31081301D01*
X24576906Y-31034562D01*
X24557304Y-30984918D01*
X24537375Y-30932410D01*
X24517137Y-30877077D01*
X24496608Y-30818957D01*
X24454746Y-30694518D01*
X24401075Y-30531358D01*
X24362245Y-30415549D01*
X24333986Y-30333459D01*
X24052873Y-30044160D01*
X23860240Y-29844567D01*
X23699292Y-29674043D01*
X23542759Y-29503271D01*
X23363373Y-29302937D01*
X23268155Y-29194843D01*
X23176057Y-29087675D01*
X23069422Y-28960625D01*
X22930595Y-28792885D01*
X22883520Y-28734059D01*
X22824855Y-28658080D01*
X22688423Y-28475918D01*
X22552645Y-28288907D01*
X22494797Y-28206868D01*
X22448866Y-28139558D01*
X22379979Y-28034087D01*
X22315167Y-27931054D01*
X22254365Y-27830314D01*
X22197510Y-27731721D01*
X22144537Y-27635129D01*
X22095383Y-27540392D01*
X22049982Y-27447364D01*
X22008271Y-27355899D01*
X21970186Y-27265852D01*
X21935663Y-27177076D01*
X21904638Y-27089426D01*
X21877046Y-27002757D01*
X21852823Y-26916921D01*
X21831906Y-26831774D01*
X21814229Y-26747168D01*
X21799730Y-26662960D01*
X21795557Y-26632457D01*
X21791997Y-26599456D01*
X21786707Y-26527409D01*
X21783833Y-26449727D01*
X21783350Y-26369315D01*
X21785234Y-26289079D01*
X21789459Y-26211926D01*
X21795999Y-26140762D01*
X21800130Y-26108333D01*
X21804830Y-26078492D01*
X21815064Y-26023766D01*
X21826245Y-25971049D01*
X21838495Y-25919920D01*
X21851933Y-25869958D01*
X21866679Y-25820742D01*
X21882853Y-25771850D01*
X21900574Y-25722861D01*
X21919962Y-25673353D01*
X21935536Y-25636697D01*
X21954398Y-25595012D01*
X21975418Y-25550562D01*
X21997464Y-25505615D01*
X22019406Y-25462436D01*
X22040112Y-25423290D01*
X22058451Y-25390443D01*
X22073292Y-25366160D01*
X22073942Y-25365240D01*
X22074622Y-25364406D01*
X22075336Y-25363657D01*
X22076089Y-25362998D01*
X22076886Y-25362428D01*
X22077731Y-25361950D01*
X22078629Y-25361565D01*
X22079586Y-25361276D01*
X22080605Y-25361084D01*
X22081693Y-25360990D01*
X22082852Y-25360996D01*
D10*
X6500000Y-21000000D02*
X6500000Y-21400000D01*
D11*
G36*
X21654581Y-22127700D02*
G01*
X21683089Y-22150832D01*
X21711157Y-22172638D01*
X21739006Y-22193235D01*
X21766857Y-22212738D01*
X21794932Y-22231262D01*
X21823451Y-22248924D01*
X21852636Y-22265839D01*
X21882708Y-22282123D01*
X21913887Y-22297892D01*
X21946396Y-22313260D01*
X21980455Y-22328345D01*
X22016286Y-22343262D01*
X22054109Y-22358125D01*
X22094145Y-22373052D01*
X22136616Y-22388158D01*
X22181743Y-22403559D01*
X22253442Y-22428225D01*
X22326272Y-22454389D01*
X22391719Y-22478927D01*
X22441267Y-22498716D01*
X22482429Y-22516892D01*
X22530196Y-22539249D01*
X22581508Y-22564225D01*
X22633306Y-22590260D01*
X22682530Y-22615791D01*
X22726121Y-22639257D01*
X22761019Y-22659095D01*
X22784164Y-22673744D01*
X22809364Y-22691635D01*
X22905174Y-22646694D01*
X22995911Y-22606677D01*
X23089564Y-22570319D01*
X23185881Y-22537650D01*
X23284613Y-22508696D01*
X23385509Y-22483487D01*
X23488320Y-22462049D01*
X23592794Y-22444411D01*
X23698683Y-22430600D01*
X23805735Y-22420645D01*
X23913701Y-22414573D01*
X24022330Y-22412413D01*
X24131371Y-22414192D01*
X24240576Y-22419938D01*
X24349694Y-22429680D01*
X24458473Y-22443444D01*
X24566665Y-22461260D01*
X24642339Y-22476206D01*
X24715994Y-22492858D01*
X24788251Y-22511406D01*
X24859731Y-22532038D01*
X24931056Y-22554944D01*
X25002846Y-22580314D01*
X25075724Y-22608336D01*
X25150310Y-22639201D01*
X25268602Y-22689786D01*
X25369564Y-22631529D01*
X25419875Y-22603461D01*
X25472341Y-22576073D01*
X25526932Y-22549377D01*
X25583616Y-22523389D01*
X25642363Y-22498121D01*
X25703141Y-22473587D01*
X25765921Y-22449801D01*
X25830671Y-22426777D01*
X25937397Y-22389123D01*
X26028448Y-22354805D01*
X26106511Y-22322475D01*
X26141511Y-22306635D01*
X26174273Y-22290787D01*
X26205131Y-22274764D01*
X26234422Y-22258396D01*
X26262482Y-22241515D01*
X26289646Y-22223954D01*
X26316251Y-22205543D01*
X26342632Y-22186115D01*
X26396066Y-22143534D01*
X26416162Y-22126803D01*
X26424277Y-22120342D01*
X26427916Y-22117620D01*
X26431301Y-22115249D01*
X26434451Y-22113240D01*
X26437384Y-22111602D01*
X26440119Y-22110344D01*
X26442675Y-22109475D01*
X26445071Y-22109006D01*
X26447324Y-22108944D01*
X26449454Y-22109301D01*
X26451479Y-22110084D01*
X26453418Y-22111305D01*
X26455290Y-22112971D01*
X26457113Y-22115093D01*
X26458906Y-22117680D01*
X26460687Y-22120742D01*
X26462475Y-22124287D01*
X26464290Y-22128325D01*
X26466149Y-22132866D01*
X26470074Y-22143494D01*
X26474401Y-22156245D01*
X26484857Y-22188421D01*
X26501601Y-22244647D01*
X26515034Y-22299998D01*
X26525179Y-22354334D01*
X26532058Y-22407515D01*
X26535695Y-22459402D01*
X26536111Y-22509857D01*
X26533330Y-22558740D01*
X26527375Y-22605911D01*
X26518267Y-22651231D01*
X26506030Y-22694561D01*
X26490686Y-22735762D01*
X26472258Y-22774694D01*
X26450769Y-22811218D01*
X26426241Y-22845195D01*
X26398697Y-22876485D01*
X26368160Y-22904950D01*
X26355113Y-22915721D01*
X26342157Y-22925934D01*
X26329201Y-22935640D01*
X26316148Y-22944888D01*
X26302906Y-22953729D01*
X26289380Y-22962212D01*
X26275477Y-22970389D01*
X26261102Y-22978308D01*
X26246162Y-22986021D01*
X26230562Y-22993577D01*
X26214208Y-23001026D01*
X26197007Y-23008418D01*
X26178865Y-23015804D01*
X26159687Y-23023233D01*
X26139380Y-23030757D01*
X26117849Y-23038424D01*
X25951684Y-23099325D01*
X25790283Y-23164063D01*
X25634318Y-23232303D01*
X25484458Y-23303712D01*
X25341374Y-23377956D01*
X25205737Y-23454703D01*
X25078217Y-23533619D01*
X24959484Y-23614369D01*
X24875891Y-23676011D01*
X24796044Y-23738778D01*
X24719928Y-23802689D01*
X24647526Y-23867766D01*
X24578821Y-23934030D01*
X24513798Y-24001501D01*
X24452439Y-24070199D01*
X24394730Y-24140146D01*
X24340652Y-24211361D01*
X24290191Y-24283866D01*
X24243330Y-24357681D01*
X24200052Y-24432827D01*
X24160341Y-24509323D01*
X24124180Y-24587192D01*
X24091554Y-24666453D01*
X24062446Y-24747128D01*
X24029497Y-24845158D01*
X23994970Y-24738638D01*
X23962514Y-24647581D01*
X23924612Y-24557638D01*
X23881331Y-24468882D01*
X23832735Y-24381387D01*
X23778888Y-24295226D01*
X23719857Y-24210472D01*
X23655704Y-24127199D01*
X23586496Y-24045478D01*
X23512297Y-23965385D01*
X23433173Y-23886991D01*
X23349187Y-23810371D01*
X23260405Y-23735597D01*
X23166891Y-23662743D01*
X23068712Y-23591881D01*
X22965930Y-23523086D01*
X22858612Y-23456429D01*
X22757922Y-23398265D01*
X22652676Y-23341521D01*
X22543148Y-23286323D01*
X22429612Y-23232796D01*
X22312340Y-23181063D01*
X22191607Y-23131251D01*
X22067687Y-23083483D01*
X21940853Y-23037886D01*
X21889960Y-23018813D01*
X21842709Y-22998135D01*
X21799050Y-22975788D01*
X21778553Y-22963968D01*
X21758936Y-22951707D01*
X21740193Y-22938996D01*
X21722318Y-22925828D01*
X21705305Y-22912195D01*
X21689147Y-22898088D01*
X21673839Y-22883500D01*
X21659375Y-22868422D01*
X21645748Y-22852846D01*
X21632952Y-22836766D01*
X21620982Y-22820171D01*
X21609831Y-22803055D01*
X21599493Y-22785409D01*
X21589962Y-22767226D01*
X21581232Y-22748496D01*
X21573297Y-22729214D01*
X21566151Y-22709369D01*
X21559788Y-22688955D01*
X21554201Y-22667963D01*
X21549385Y-22646385D01*
X21545334Y-22624214D01*
X21542041Y-22601440D01*
X21537705Y-22554056D01*
X21536331Y-22504168D01*
X21536917Y-22461502D01*
X21537638Y-22441793D01*
X21538687Y-22422923D01*
X21540093Y-22404706D01*
X21541886Y-22386958D01*
X21544099Y-22369496D01*
X21546761Y-22352136D01*
X21549903Y-22334693D01*
X21553556Y-22316983D01*
X21557750Y-22298822D01*
X21562516Y-22280027D01*
X21573886Y-22239797D01*
X21587911Y-22194818D01*
X21619051Y-22098299D01*
X21654581Y-22127700D01*
G37*
X21654581Y-22127700D02*
X21683089Y-22150832D01*
X21711157Y-22172638D01*
X21739006Y-22193235D01*
X21766857Y-22212738D01*
X21794932Y-22231262D01*
X21823451Y-22248924D01*
X21852636Y-22265839D01*
X21882708Y-22282123D01*
X21913887Y-22297892D01*
X21946396Y-22313260D01*
X21980455Y-22328345D01*
X22016286Y-22343262D01*
X22054109Y-22358125D01*
X22094145Y-22373052D01*
X22136616Y-22388158D01*
X22181743Y-22403559D01*
X22253442Y-22428225D01*
X22326272Y-22454389D01*
X22391719Y-22478927D01*
X22441267Y-22498716D01*
X22482429Y-22516892D01*
X22530196Y-22539249D01*
X22581508Y-22564225D01*
X22633306Y-22590260D01*
X22682530Y-22615791D01*
X22726121Y-22639257D01*
X22761019Y-22659095D01*
X22784164Y-22673744D01*
X22809364Y-22691635D01*
X22905174Y-22646694D01*
X22995911Y-22606677D01*
X23089564Y-22570319D01*
X23185881Y-22537650D01*
X23284613Y-22508696D01*
X23385509Y-22483487D01*
X23488320Y-22462049D01*
X23592794Y-22444411D01*
X23698683Y-22430600D01*
X23805735Y-22420645D01*
X23913701Y-22414573D01*
X24022330Y-22412413D01*
X24131371Y-22414192D01*
X24240576Y-22419938D01*
X24349694Y-22429680D01*
X24458473Y-22443444D01*
X24566665Y-22461260D01*
X24642339Y-22476206D01*
X24715994Y-22492858D01*
X24788251Y-22511406D01*
X24859731Y-22532038D01*
X24931056Y-22554944D01*
X25002846Y-22580314D01*
X25075724Y-22608336D01*
X25150310Y-22639201D01*
X25268602Y-22689786D01*
X25369564Y-22631529D01*
X25419875Y-22603461D01*
X25472341Y-22576073D01*
X25526932Y-22549377D01*
X25583616Y-22523389D01*
X25642363Y-22498121D01*
X25703141Y-22473587D01*
X25765921Y-22449801D01*
X25830671Y-22426777D01*
X25937397Y-22389123D01*
X26028448Y-22354805D01*
X26106511Y-22322475D01*
X26141511Y-22306635D01*
X26174273Y-22290787D01*
X26205131Y-22274764D01*
X26234422Y-22258396D01*
X26262482Y-22241515D01*
X26289646Y-22223954D01*
X26316251Y-22205543D01*
X26342632Y-22186115D01*
X26396066Y-22143534D01*
X26416162Y-22126803D01*
X26424277Y-22120342D01*
X26427916Y-22117620D01*
X26431301Y-22115249D01*
X26434451Y-22113240D01*
X26437384Y-22111602D01*
X26440119Y-22110344D01*
X26442675Y-22109475D01*
X26445071Y-22109006D01*
X26447324Y-22108944D01*
X26449454Y-22109301D01*
X26451479Y-22110084D01*
X26453418Y-22111305D01*
X26455290Y-22112971D01*
X26457113Y-22115093D01*
X26458906Y-22117680D01*
X26460687Y-22120742D01*
X26462475Y-22124287D01*
X26464290Y-22128325D01*
X26466149Y-22132866D01*
X26470074Y-22143494D01*
X26474401Y-22156245D01*
X26484857Y-22188421D01*
X26501601Y-22244647D01*
X26515034Y-22299998D01*
X26525179Y-22354334D01*
X26532058Y-22407515D01*
X26535695Y-22459402D01*
X26536111Y-22509857D01*
X26533330Y-22558740D01*
X26527375Y-22605911D01*
X26518267Y-22651231D01*
X26506030Y-22694561D01*
X26490686Y-22735762D01*
X26472258Y-22774694D01*
X26450769Y-22811218D01*
X26426241Y-22845195D01*
X26398697Y-22876485D01*
X26368160Y-22904950D01*
X26355113Y-22915721D01*
X26342157Y-22925934D01*
X26329201Y-22935640D01*
X26316148Y-22944888D01*
X26302906Y-22953729D01*
X26289380Y-22962212D01*
X26275477Y-22970389D01*
X26261102Y-22978308D01*
X26246162Y-22986021D01*
X26230562Y-22993577D01*
X26214208Y-23001026D01*
X26197007Y-23008418D01*
X26178865Y-23015804D01*
X26159687Y-23023233D01*
X26139380Y-23030757D01*
X26117849Y-23038424D01*
X25951684Y-23099325D01*
X25790283Y-23164063D01*
X25634318Y-23232303D01*
X25484458Y-23303712D01*
X25341374Y-23377956D01*
X25205737Y-23454703D01*
X25078217Y-23533619D01*
X24959484Y-23614369D01*
X24875891Y-23676011D01*
X24796044Y-23738778D01*
X24719928Y-23802689D01*
X24647526Y-23867766D01*
X24578821Y-23934030D01*
X24513798Y-24001501D01*
X24452439Y-24070199D01*
X24394730Y-24140146D01*
X24340652Y-24211361D01*
X24290191Y-24283866D01*
X24243330Y-24357681D01*
X24200052Y-24432827D01*
X24160341Y-24509323D01*
X24124180Y-24587192D01*
X24091554Y-24666453D01*
X24062446Y-24747128D01*
X24029497Y-24845158D01*
X23994970Y-24738638D01*
X23962514Y-24647581D01*
X23924612Y-24557638D01*
X23881331Y-24468882D01*
X23832735Y-24381387D01*
X23778888Y-24295226D01*
X23719857Y-24210472D01*
X23655704Y-24127199D01*
X23586496Y-24045478D01*
X23512297Y-23965385D01*
X23433173Y-23886991D01*
X23349187Y-23810371D01*
X23260405Y-23735597D01*
X23166891Y-23662743D01*
X23068712Y-23591881D01*
X22965930Y-23523086D01*
X22858612Y-23456429D01*
X22757922Y-23398265D01*
X22652676Y-23341521D01*
X22543148Y-23286323D01*
X22429612Y-23232796D01*
X22312340Y-23181063D01*
X22191607Y-23131251D01*
X22067687Y-23083483D01*
X21940853Y-23037886D01*
X21889960Y-23018813D01*
X21842709Y-22998135D01*
X21799050Y-22975788D01*
X21778553Y-22963968D01*
X21758936Y-22951707D01*
X21740193Y-22938996D01*
X21722318Y-22925828D01*
X21705305Y-22912195D01*
X21689147Y-22898088D01*
X21673839Y-22883500D01*
X21659375Y-22868422D01*
X21645748Y-22852846D01*
X21632952Y-22836766D01*
X21620982Y-22820171D01*
X21609831Y-22803055D01*
X21599493Y-22785409D01*
X21589962Y-22767226D01*
X21581232Y-22748496D01*
X21573297Y-22729214D01*
X21566151Y-22709369D01*
X21559788Y-22688955D01*
X21554201Y-22667963D01*
X21549385Y-22646385D01*
X21545334Y-22624214D01*
X21542041Y-22601440D01*
X21537705Y-22554056D01*
X21536331Y-22504168D01*
X21536917Y-22461502D01*
X21537638Y-22441793D01*
X21538687Y-22422923D01*
X21540093Y-22404706D01*
X21541886Y-22386958D01*
X21544099Y-22369496D01*
X21546761Y-22352136D01*
X21549903Y-22334693D01*
X21553556Y-22316983D01*
X21557750Y-22298822D01*
X21562516Y-22280027D01*
X21573886Y-22239797D01*
X21587911Y-22194818D01*
X21619051Y-22098299D01*
X21654581Y-22127700D01*
D10*
X2097469Y-38500000D02*
X2100000Y-38847641D01*
X8897469Y-38500000D02*
X8900000Y-38847641D01*
D11*
G36*
X25441561Y-23648108D02*
G01*
X25463499Y-23659213D01*
X25481969Y-23668765D01*
X25495030Y-23675745D01*
X25498925Y-23677953D01*
X25500740Y-23679135D01*
X25500873Y-23679320D01*
X25500938Y-23679560D01*
X25500934Y-23679853D01*
X25500863Y-23680198D01*
X25500728Y-23680594D01*
X25500529Y-23681038D01*
X25500267Y-23681529D01*
X25499945Y-23682065D01*
X25499124Y-23683268D01*
X25498078Y-23684633D01*
X25496817Y-23686147D01*
X25495354Y-23687798D01*
X25493700Y-23689572D01*
X25491867Y-23691456D01*
X25489866Y-23693438D01*
X25487709Y-23695504D01*
X25485407Y-23697642D01*
X25482973Y-23699838D01*
X25480416Y-23702080D01*
X25477751Y-23704354D01*
X25472859Y-23708740D01*
X25468234Y-23713432D01*
X25463878Y-23718412D01*
X25459790Y-23723665D01*
X25455973Y-23729174D01*
X25452428Y-23734922D01*
X25449157Y-23740892D01*
X25446160Y-23747069D01*
X25443440Y-23753434D01*
X25440998Y-23759972D01*
X25438834Y-23766665D01*
X25436951Y-23773498D01*
X25435349Y-23780453D01*
X25434031Y-23787515D01*
X25432997Y-23794665D01*
X25432249Y-23801888D01*
X25431617Y-23816486D01*
X25431735Y-23823827D01*
X25432145Y-23831174D01*
X25432847Y-23838510D01*
X25433844Y-23845819D01*
X25435136Y-23853084D01*
X25436726Y-23860289D01*
X25438614Y-23867416D01*
X25440801Y-23874449D01*
X25443290Y-23881372D01*
X25446082Y-23888168D01*
X25449177Y-23894820D01*
X25452578Y-23901311D01*
X25456285Y-23907625D01*
X25460300Y-23913746D01*
X25466440Y-23922198D01*
X25472730Y-23930037D01*
X25479190Y-23937274D01*
X25485842Y-23943920D01*
X25489245Y-23947025D01*
X25492703Y-23949985D01*
X25496219Y-23952804D01*
X25499796Y-23955481D01*
X25503435Y-23958018D01*
X25507139Y-23960417D01*
X25510911Y-23962679D01*
X25514753Y-23964805D01*
X25518667Y-23966796D01*
X25522658Y-23968654D01*
X25526725Y-23970381D01*
X25530873Y-23971977D01*
X25535104Y-23973444D01*
X25539420Y-23974783D01*
X25543824Y-23975995D01*
X25548318Y-23977082D01*
X25557587Y-23978887D01*
X25567247Y-23980207D01*
X25577319Y-23981054D01*
X25587822Y-23981437D01*
X25594960Y-23981480D01*
X25601580Y-23981382D01*
X25607746Y-23981123D01*
X25613520Y-23980683D01*
X25618965Y-23980042D01*
X25624144Y-23979182D01*
X25629120Y-23978082D01*
X25633956Y-23976723D01*
X25638714Y-23975085D01*
X25643457Y-23973149D01*
X25648249Y-23970894D01*
X25653152Y-23968302D01*
X25658229Y-23965352D01*
X25663543Y-23962025D01*
X25669156Y-23958301D01*
X25675133Y-23954161D01*
X25714804Y-23926197D01*
X25739054Y-23999200D01*
X25744920Y-24018115D01*
X25750182Y-24037663D01*
X25754834Y-24057740D01*
X25758869Y-24078244D01*
X25762282Y-24099072D01*
X25765068Y-24120122D01*
X25767220Y-24141292D01*
X25768734Y-24162478D01*
X25769602Y-24183580D01*
X25769819Y-24204493D01*
X25769380Y-24225115D01*
X25768278Y-24245345D01*
X25766508Y-24265079D01*
X25764065Y-24284215D01*
X25760942Y-24302651D01*
X25757133Y-24320284D01*
X25747779Y-24355095D01*
X25736779Y-24388945D01*
X25724162Y-24421797D01*
X25709956Y-24453615D01*
X25694188Y-24484364D01*
X25676888Y-24514007D01*
X25658083Y-24542509D01*
X25637802Y-24569833D01*
X25616072Y-24595945D01*
X25592922Y-24620807D01*
X25568381Y-24644385D01*
X25542476Y-24666642D01*
X25515235Y-24687543D01*
X25486687Y-24707051D01*
X25456861Y-24725130D01*
X25425783Y-24741746D01*
X25403705Y-24752259D01*
X25381288Y-24761866D01*
X25358575Y-24770562D01*
X25335609Y-24778339D01*
X25312435Y-24785191D01*
X25289096Y-24791112D01*
X25265635Y-24796094D01*
X25242096Y-24800131D01*
X25218522Y-24803216D01*
X25194958Y-24805344D01*
X25171447Y-24806507D01*
X25148032Y-24806698D01*
X25124757Y-24805911D01*
X25101666Y-24804139D01*
X25078802Y-24801377D01*
X25056209Y-24797616D01*
X25056225Y-24797617D01*
X25031233Y-24792424D01*
X25006883Y-24786449D01*
X24983149Y-24779679D01*
X24960002Y-24772097D01*
X24937415Y-24763689D01*
X24915362Y-24754441D01*
X24893815Y-24744337D01*
X24872747Y-24733362D01*
X24852131Y-24721501D01*
X24831940Y-24708741D01*
X24812146Y-24695064D01*
X24792722Y-24680458D01*
X24773641Y-24664907D01*
X24754876Y-24648395D01*
X24736400Y-24630909D01*
X24718185Y-24612433D01*
X24706743Y-24600100D01*
X24695575Y-24587396D01*
X24684705Y-24574360D01*
X24674155Y-24561029D01*
X24663949Y-24547438D01*
X24654110Y-24533625D01*
X24644659Y-24519627D01*
X24635621Y-24505481D01*
X24627017Y-24491223D01*
X24618872Y-24476890D01*
X24611207Y-24462519D01*
X24604045Y-24448148D01*
X24597410Y-24433811D01*
X24591324Y-24419548D01*
X24585811Y-24405394D01*
X24580892Y-24391386D01*
X24569286Y-24356723D01*
X24564877Y-24342686D01*
X24561579Y-24330338D01*
X24560389Y-24324679D01*
X24559527Y-24319299D01*
X24559011Y-24314152D01*
X24558858Y-24309190D01*
X24559085Y-24304366D01*
X24559709Y-24299631D01*
X24560746Y-24294938D01*
X24562214Y-24290241D01*
X24564130Y-24285491D01*
X24566510Y-24280640D01*
X24569373Y-24275643D01*
X24572734Y-24270450D01*
X24576612Y-24265014D01*
X24581022Y-24259289D01*
X24591508Y-24246778D01*
X24604331Y-24232536D01*
X24619625Y-24216185D01*
X24658172Y-24175631D01*
X24691959Y-24140610D01*
X24726308Y-24106234D01*
X24761232Y-24072494D01*
X24796745Y-24039378D01*
X24832860Y-24006876D01*
X24869590Y-23974978D01*
X24906949Y-23943673D01*
X24944951Y-23912950D01*
X24983608Y-23882799D01*
X25022934Y-23853208D01*
X25062943Y-23824168D01*
X25103647Y-23795668D01*
X25145061Y-23767697D01*
X25187196Y-23740245D01*
X25230068Y-23713300D01*
X25273689Y-23686852D01*
X25385740Y-23620126D01*
X25441561Y-23648108D01*
G37*
X25441561Y-23648108D02*
X25463499Y-23659213D01*
X25481969Y-23668765D01*
X25495030Y-23675745D01*
X25498925Y-23677953D01*
X25500740Y-23679135D01*
X25500873Y-23679320D01*
X25500938Y-23679560D01*
X25500934Y-23679853D01*
X25500863Y-23680198D01*
X25500728Y-23680594D01*
X25500529Y-23681038D01*
X25500267Y-23681529D01*
X25499945Y-23682065D01*
X25499124Y-23683268D01*
X25498078Y-23684633D01*
X25496817Y-23686147D01*
X25495354Y-23687798D01*
X25493700Y-23689572D01*
X25491867Y-23691456D01*
X25489866Y-23693438D01*
X25487709Y-23695504D01*
X25485407Y-23697642D01*
X25482973Y-23699838D01*
X25480416Y-23702080D01*
X25477751Y-23704354D01*
X25472859Y-23708740D01*
X25468234Y-23713432D01*
X25463878Y-23718412D01*
X25459790Y-23723665D01*
X25455973Y-23729174D01*
X25452428Y-23734922D01*
X25449157Y-23740892D01*
X25446160Y-23747069D01*
X25443440Y-23753434D01*
X25440998Y-23759972D01*
X25438834Y-23766665D01*
X25436951Y-23773498D01*
X25435349Y-23780453D01*
X25434031Y-23787515D01*
X25432997Y-23794665D01*
X25432249Y-23801888D01*
X25431617Y-23816486D01*
X25431735Y-23823827D01*
X25432145Y-23831174D01*
X25432847Y-23838510D01*
X25433844Y-23845819D01*
X25435136Y-23853084D01*
X25436726Y-23860289D01*
X25438614Y-23867416D01*
X25440801Y-23874449D01*
X25443290Y-23881372D01*
X25446082Y-23888168D01*
X25449177Y-23894820D01*
X25452578Y-23901311D01*
X25456285Y-23907625D01*
X25460300Y-23913746D01*
X25466440Y-23922198D01*
X25472730Y-23930037D01*
X25479190Y-23937274D01*
X25485842Y-23943920D01*
X25489245Y-23947025D01*
X25492703Y-23949985D01*
X25496219Y-23952804D01*
X25499796Y-23955481D01*
X25503435Y-23958018D01*
X25507139Y-23960417D01*
X25510911Y-23962679D01*
X25514753Y-23964805D01*
X25518667Y-23966796D01*
X25522658Y-23968654D01*
X25526725Y-23970381D01*
X25530873Y-23971977D01*
X25535104Y-23973444D01*
X25539420Y-23974783D01*
X25543824Y-23975995D01*
X25548318Y-23977082D01*
X25557587Y-23978887D01*
X25567247Y-23980207D01*
X25577319Y-23981054D01*
X25587822Y-23981437D01*
X25594960Y-23981480D01*
X25601580Y-23981382D01*
X25607746Y-23981123D01*
X25613520Y-23980683D01*
X25618965Y-23980042D01*
X25624144Y-23979182D01*
X25629120Y-23978082D01*
X25633956Y-23976723D01*
X25638714Y-23975085D01*
X25643457Y-23973149D01*
X25648249Y-23970894D01*
X25653152Y-23968302D01*
X25658229Y-23965352D01*
X25663543Y-23962025D01*
X25669156Y-23958301D01*
X25675133Y-23954161D01*
X25714804Y-23926197D01*
X25739054Y-23999200D01*
X25744920Y-24018115D01*
X25750182Y-24037663D01*
X25754834Y-24057740D01*
X25758869Y-24078244D01*
X25762282Y-24099072D01*
X25765068Y-24120122D01*
X25767220Y-24141292D01*
X25768734Y-24162478D01*
X25769602Y-24183580D01*
X25769819Y-24204493D01*
X25769380Y-24225115D01*
X25768278Y-24245345D01*
X25766508Y-24265079D01*
X25764065Y-24284215D01*
X25760942Y-24302651D01*
X25757133Y-24320284D01*
X25747779Y-24355095D01*
X25736779Y-24388945D01*
X25724162Y-24421797D01*
X25709956Y-24453615D01*
X25694188Y-24484364D01*
X25676888Y-24514007D01*
X25658083Y-24542509D01*
X25637802Y-24569833D01*
X25616072Y-24595945D01*
X25592922Y-24620807D01*
X25568381Y-24644385D01*
X25542476Y-24666642D01*
X25515235Y-24687543D01*
X25486687Y-24707051D01*
X25456861Y-24725130D01*
X25425783Y-24741746D01*
X25403705Y-24752259D01*
X25381288Y-24761866D01*
X25358575Y-24770562D01*
X25335609Y-24778339D01*
X25312435Y-24785191D01*
X25289096Y-24791112D01*
X25265635Y-24796094D01*
X25242096Y-24800131D01*
X25218522Y-24803216D01*
X25194958Y-24805344D01*
X25171447Y-24806507D01*
X25148032Y-24806698D01*
X25124757Y-24805911D01*
X25101666Y-24804139D01*
X25078802Y-24801377D01*
X25056209Y-24797616D01*
X25056225Y-24797617D01*
X25031233Y-24792424D01*
X25006883Y-24786449D01*
X24983149Y-24779679D01*
X24960002Y-24772097D01*
X24937415Y-24763689D01*
X24915362Y-24754441D01*
X24893815Y-24744337D01*
X24872747Y-24733362D01*
X24852131Y-24721501D01*
X24831940Y-24708741D01*
X24812146Y-24695064D01*
X24792722Y-24680458D01*
X24773641Y-24664907D01*
X24754876Y-24648395D01*
X24736400Y-24630909D01*
X24718185Y-24612433D01*
X24706743Y-24600100D01*
X24695575Y-24587396D01*
X24684705Y-24574360D01*
X24674155Y-24561029D01*
X24663949Y-24547438D01*
X24654110Y-24533625D01*
X24644659Y-24519627D01*
X24635621Y-24505481D01*
X24627017Y-24491223D01*
X24618872Y-24476890D01*
X24611207Y-24462519D01*
X24604045Y-24448148D01*
X24597410Y-24433811D01*
X24591324Y-24419548D01*
X24585811Y-24405394D01*
X24580892Y-24391386D01*
X24569286Y-24356723D01*
X24564877Y-24342686D01*
X24561579Y-24330338D01*
X24560389Y-24324679D01*
X24559527Y-24319299D01*
X24559011Y-24314152D01*
X24558858Y-24309190D01*
X24559085Y-24304366D01*
X24559709Y-24299631D01*
X24560746Y-24294938D01*
X24562214Y-24290241D01*
X24564130Y-24285491D01*
X24566510Y-24280640D01*
X24569373Y-24275643D01*
X24572734Y-24270450D01*
X24576612Y-24265014D01*
X24581022Y-24259289D01*
X24591508Y-24246778D01*
X24604331Y-24232536D01*
X24619625Y-24216185D01*
X24658172Y-24175631D01*
X24691959Y-24140610D01*
X24726308Y-24106234D01*
X24761232Y-24072494D01*
X24796745Y-24039378D01*
X24832860Y-24006876D01*
X24869590Y-23974978D01*
X24906949Y-23943673D01*
X24944951Y-23912950D01*
X24983608Y-23882799D01*
X25022934Y-23853208D01*
X25062943Y-23824168D01*
X25103647Y-23795668D01*
X25145061Y-23767697D01*
X25187196Y-23740245D01*
X25230068Y-23713300D01*
X25273689Y-23686852D01*
X25385740Y-23620126D01*
X25441561Y-23648108D01*
D10*
X5497469Y-38500000D02*
X5500000Y-38847641D01*
X11300000Y-21000000D02*
X11300000Y-21400000D01*
D11*
G36*
X22821428Y-23694602D02*
G01*
X22910248Y-23750238D01*
X22995127Y-23807036D01*
X23076254Y-23865145D01*
X23153817Y-23924715D01*
X23228003Y-23985895D01*
X23299002Y-24048836D01*
X23367001Y-24113686D01*
X23432188Y-24180596D01*
X23531017Y-24285838D01*
X23513567Y-24348808D01*
X23501369Y-24387921D01*
X23486822Y-24425861D01*
X23470015Y-24462537D01*
X23451039Y-24497857D01*
X23429983Y-24531731D01*
X23406937Y-24564066D01*
X23381990Y-24594772D01*
X23355233Y-24623757D01*
X23326755Y-24650931D01*
X23296647Y-24676200D01*
X23264997Y-24699476D01*
X23231897Y-24720664D01*
X23197435Y-24739676D01*
X23161701Y-24756419D01*
X23124786Y-24770802D01*
X23086778Y-24782733D01*
X23069970Y-24787131D01*
X23052962Y-24791069D01*
X23035793Y-24794546D01*
X23018500Y-24797559D01*
X23001121Y-24800106D01*
X22983691Y-24802185D01*
X22966250Y-24803795D01*
X22948834Y-24804933D01*
X22931480Y-24805598D01*
X22914225Y-24805787D01*
X22897108Y-24805500D01*
X22880165Y-24804733D01*
X22863434Y-24803484D01*
X22846952Y-24801753D01*
X22830756Y-24799536D01*
X22814884Y-24796833D01*
X22814873Y-24796828D01*
X22781323Y-24789547D01*
X22748619Y-24780498D01*
X22716798Y-24769742D01*
X22685897Y-24757344D01*
X22655953Y-24743365D01*
X22627002Y-24727867D01*
X22599082Y-24710914D01*
X22572229Y-24692568D01*
X22546480Y-24672892D01*
X22521872Y-24651947D01*
X22498442Y-24629798D01*
X22476227Y-24606505D01*
X22455263Y-24582133D01*
X22435587Y-24556742D01*
X22417237Y-24530397D01*
X22400249Y-24503159D01*
X22384660Y-24475092D01*
X22370506Y-24446257D01*
X22357825Y-24416717D01*
X22346654Y-24386535D01*
X22337029Y-24355773D01*
X22328987Y-24324495D01*
X22322566Y-24292761D01*
X22317801Y-24260636D01*
X22314730Y-24228182D01*
X22313389Y-24195460D01*
X22313816Y-24162535D01*
X22316048Y-24129468D01*
X22320120Y-24096321D01*
X22326071Y-24063158D01*
X22333936Y-24030041D01*
X22343754Y-23997033D01*
X22352187Y-23971369D01*
X22355646Y-23961149D01*
X22358719Y-23952558D01*
X22361493Y-23945515D01*
X22364055Y-23939935D01*
X22366496Y-23935735D01*
X22367697Y-23934127D01*
X22368901Y-23932833D01*
X22370119Y-23931842D01*
X22371361Y-23931145D01*
X22372638Y-23930730D01*
X22373962Y-23930588D01*
X22375343Y-23930708D01*
X22376793Y-23931079D01*
X22378322Y-23931691D01*
X22379942Y-23932534D01*
X22383498Y-23934871D01*
X22387548Y-23938006D01*
X22397484Y-23946338D01*
X22402206Y-23950044D01*
X22407531Y-23953747D01*
X22413376Y-23957413D01*
X22419662Y-23961012D01*
X22426306Y-23964510D01*
X22433228Y-23967875D01*
X22440347Y-23971075D01*
X22447583Y-23974078D01*
X22454853Y-23976852D01*
X22462078Y-23979364D01*
X22469176Y-23981582D01*
X22476066Y-23983474D01*
X22482667Y-23985007D01*
X22488899Y-23986150D01*
X22494680Y-23986869D01*
X22499929Y-23987134D01*
X22501128Y-23987021D01*
X22502756Y-23986681D01*
X22504785Y-23986124D01*
X22507187Y-23985363D01*
X22509934Y-23984409D01*
X22512998Y-23983274D01*
X22519964Y-23980506D01*
X22527860Y-23977152D01*
X22536461Y-23973305D01*
X22545542Y-23969057D01*
X22554880Y-23964501D01*
X22564235Y-23959507D01*
X22573239Y-23954034D01*
X22581872Y-23948105D01*
X22590116Y-23941743D01*
X22597953Y-23934974D01*
X22605365Y-23927819D01*
X22612333Y-23920302D01*
X22618839Y-23912448D01*
X22624864Y-23904278D01*
X22630390Y-23895818D01*
X22635399Y-23887090D01*
X22639872Y-23878119D01*
X22643792Y-23868926D01*
X22647138Y-23859537D01*
X22649894Y-23849974D01*
X22652040Y-23840261D01*
X22653178Y-23832032D01*
X22653612Y-23823429D01*
X22653369Y-23814529D01*
X22652478Y-23805405D01*
X22650966Y-23796134D01*
X22648863Y-23786790D01*
X22646195Y-23777448D01*
X22642993Y-23768185D01*
X22639282Y-23759075D01*
X22635093Y-23750193D01*
X22630452Y-23741614D01*
X22625389Y-23733414D01*
X22619931Y-23725668D01*
X22614107Y-23718451D01*
X22607944Y-23711838D01*
X22601471Y-23705905D01*
X22575010Y-23683640D01*
X22604351Y-23667929D01*
X22618382Y-23660608D01*
X22634891Y-23652288D01*
X22651820Y-23643993D01*
X22667110Y-23636745D01*
X22700531Y-23621273D01*
X22821428Y-23694602D01*
G37*
X22821428Y-23694602D02*
X22910248Y-23750238D01*
X22995127Y-23807036D01*
X23076254Y-23865145D01*
X23153817Y-23924715D01*
X23228003Y-23985895D01*
X23299002Y-24048836D01*
X23367001Y-24113686D01*
X23432188Y-24180596D01*
X23531017Y-24285838D01*
X23513567Y-24348808D01*
X23501369Y-24387921D01*
X23486822Y-24425861D01*
X23470015Y-24462537D01*
X23451039Y-24497857D01*
X23429983Y-24531731D01*
X23406937Y-24564066D01*
X23381990Y-24594772D01*
X23355233Y-24623757D01*
X23326755Y-24650931D01*
X23296647Y-24676200D01*
X23264997Y-24699476D01*
X23231897Y-24720664D01*
X23197435Y-24739676D01*
X23161701Y-24756419D01*
X23124786Y-24770802D01*
X23086778Y-24782733D01*
X23069970Y-24787131D01*
X23052962Y-24791069D01*
X23035793Y-24794546D01*
X23018500Y-24797559D01*
X23001121Y-24800106D01*
X22983691Y-24802185D01*
X22966250Y-24803795D01*
X22948834Y-24804933D01*
X22931480Y-24805598D01*
X22914225Y-24805787D01*
X22897108Y-24805500D01*
X22880165Y-24804733D01*
X22863434Y-24803484D01*
X22846952Y-24801753D01*
X22830756Y-24799536D01*
X22814884Y-24796833D01*
X22814873Y-24796828D01*
X22781323Y-24789547D01*
X22748619Y-24780498D01*
X22716798Y-24769742D01*
X22685897Y-24757344D01*
X22655953Y-24743365D01*
X22627002Y-24727867D01*
X22599082Y-24710914D01*
X22572229Y-24692568D01*
X22546480Y-24672892D01*
X22521872Y-24651947D01*
X22498442Y-24629798D01*
X22476227Y-24606505D01*
X22455263Y-24582133D01*
X22435587Y-24556742D01*
X22417237Y-24530397D01*
X22400249Y-24503159D01*
X22384660Y-24475092D01*
X22370506Y-24446257D01*
X22357825Y-24416717D01*
X22346654Y-24386535D01*
X22337029Y-24355773D01*
X22328987Y-24324495D01*
X22322566Y-24292761D01*
X22317801Y-24260636D01*
X22314730Y-24228182D01*
X22313389Y-24195460D01*
X22313816Y-24162535D01*
X22316048Y-24129468D01*
X22320120Y-24096321D01*
X22326071Y-24063158D01*
X22333936Y-24030041D01*
X22343754Y-23997033D01*
X22352187Y-23971369D01*
X22355646Y-23961149D01*
X22358719Y-23952558D01*
X22361493Y-23945515D01*
X22364055Y-23939935D01*
X22366496Y-23935735D01*
X22367697Y-23934127D01*
X22368901Y-23932833D01*
X22370119Y-23931842D01*
X22371361Y-23931145D01*
X22372638Y-23930730D01*
X22373962Y-23930588D01*
X22375343Y-23930708D01*
X22376793Y-23931079D01*
X22378322Y-23931691D01*
X22379942Y-23932534D01*
X22383498Y-23934871D01*
X22387548Y-23938006D01*
X22397484Y-23946338D01*
X22402206Y-23950044D01*
X22407531Y-23953747D01*
X22413376Y-23957413D01*
X22419662Y-23961012D01*
X22426306Y-23964510D01*
X22433228Y-23967875D01*
X22440347Y-23971075D01*
X22447583Y-23974078D01*
X22454853Y-23976852D01*
X22462078Y-23979364D01*
X22469176Y-23981582D01*
X22476066Y-23983474D01*
X22482667Y-23985007D01*
X22488899Y-23986150D01*
X22494680Y-23986869D01*
X22499929Y-23987134D01*
X22501128Y-23987021D01*
X22502756Y-23986681D01*
X22504785Y-23986124D01*
X22507187Y-23985363D01*
X22509934Y-23984409D01*
X22512998Y-23983274D01*
X22519964Y-23980506D01*
X22527860Y-23977152D01*
X22536461Y-23973305D01*
X22545542Y-23969057D01*
X22554880Y-23964501D01*
X22564235Y-23959507D01*
X22573239Y-23954034D01*
X22581872Y-23948105D01*
X22590116Y-23941743D01*
X22597953Y-23934974D01*
X22605365Y-23927819D01*
X22612333Y-23920302D01*
X22618839Y-23912448D01*
X22624864Y-23904278D01*
X22630390Y-23895818D01*
X22635399Y-23887090D01*
X22639872Y-23878119D01*
X22643792Y-23868926D01*
X22647138Y-23859537D01*
X22649894Y-23849974D01*
X22652040Y-23840261D01*
X22653178Y-23832032D01*
X22653612Y-23823429D01*
X22653369Y-23814529D01*
X22652478Y-23805405D01*
X22650966Y-23796134D01*
X22648863Y-23786790D01*
X22646195Y-23777448D01*
X22642993Y-23768185D01*
X22639282Y-23759075D01*
X22635093Y-23750193D01*
X22630452Y-23741614D01*
X22625389Y-23733414D01*
X22619931Y-23725668D01*
X22614107Y-23718451D01*
X22607944Y-23711838D01*
X22601471Y-23705905D01*
X22575010Y-23683640D01*
X22604351Y-23667929D01*
X22618382Y-23660608D01*
X22634891Y-23652288D01*
X22651820Y-23643993D01*
X22667110Y-23636745D01*
X22700531Y-23621273D01*
X22821428Y-23694602D01*
D10*
X6500000Y-21400000D02*
X15900000Y-21400000D01*
X2122469Y-38500000D02*
X8872469Y-38500000D01*
D11*
G36*
X26055591Y-23343401D02*
G01*
X26057883Y-23344796D01*
X26063869Y-23350158D01*
X26071541Y-23358675D01*
X26080685Y-23370018D01*
X26091084Y-23383859D01*
X26102524Y-23399868D01*
X26114789Y-23417715D01*
X26127664Y-23437074D01*
X26154379Y-23479006D01*
X26180946Y-23523034D01*
X26193635Y-23545011D01*
X26205641Y-23566525D01*
X26216748Y-23587247D01*
X26226740Y-23606849D01*
X26242414Y-23639581D01*
X26256978Y-23672169D01*
X26270445Y-23704672D01*
X26282829Y-23737150D01*
X26294145Y-23769663D01*
X26304405Y-23802269D01*
X26313624Y-23835028D01*
X26321816Y-23868000D01*
X26328993Y-23901243D01*
X26335170Y-23934818D01*
X26340362Y-23968784D01*
X26344580Y-24003200D01*
X26347840Y-24038125D01*
X26350155Y-24073620D01*
X26351539Y-24109743D01*
X26352005Y-24146554D01*
X26351575Y-24182813D01*
X26350246Y-24218321D01*
X26348001Y-24253162D01*
X26344820Y-24287414D01*
X26340683Y-24321162D01*
X26335573Y-24354484D01*
X26329469Y-24387464D01*
X26322353Y-24420182D01*
X26314206Y-24452720D01*
X26305009Y-24485160D01*
X26294742Y-24517581D01*
X26283387Y-24550067D01*
X26270925Y-24582698D01*
X26257336Y-24615556D01*
X26242602Y-24648721D01*
X26226703Y-24682277D01*
X26199104Y-24735457D01*
X26169077Y-24786936D01*
X26136695Y-24836651D01*
X26102026Y-24884539D01*
X26065141Y-24930540D01*
X26026110Y-24974590D01*
X25985004Y-25016628D01*
X25941892Y-25056593D01*
X25896846Y-25094421D01*
X25849935Y-25130051D01*
X25801230Y-25163422D01*
X25750800Y-25194470D01*
X25698717Y-25223134D01*
X25645049Y-25249353D01*
X25589869Y-25273063D01*
X25533245Y-25294204D01*
X25486184Y-25309860D01*
X25464467Y-25316494D01*
X25443527Y-25322399D01*
X25423041Y-25327621D01*
X25402685Y-25332209D01*
X25382135Y-25336212D01*
X25361068Y-25339679D01*
X25339161Y-25342658D01*
X25316089Y-25345197D01*
X25291530Y-25347345D01*
X25265159Y-25349152D01*
X25205690Y-25351931D01*
X25135092Y-25353924D01*
X24942810Y-25358224D01*
X24911360Y-25382724D01*
X24890230Y-25398702D01*
X24867011Y-25415355D01*
X24814916Y-25450340D01*
X24756298Y-25486977D01*
X24692378Y-25524569D01*
X24624381Y-25562415D01*
X24553528Y-25599818D01*
X24481042Y-25636077D01*
X24408146Y-25670494D01*
X24297308Y-25719588D01*
X24174042Y-25772019D01*
X24072348Y-25813582D01*
X24040215Y-25825849D01*
X24026226Y-25830072D01*
X24025578Y-25829967D01*
X24024766Y-25829784D01*
X24023803Y-25829528D01*
X24022700Y-25829202D01*
X24020124Y-25828360D01*
X24017131Y-25827293D01*
X24013818Y-25826036D01*
X24010280Y-25824624D01*
X24006611Y-25823091D01*
X24002907Y-25821472D01*
X24002870Y-25821462D01*
X23942930Y-25795690D01*
X23823889Y-25744982D01*
X23723528Y-25701282D01*
X23628521Y-25657779D01*
X23539156Y-25614622D01*
X23455719Y-25571965D01*
X23378497Y-25529957D01*
X23307778Y-25488750D01*
X23243848Y-25448495D01*
X23186994Y-25409344D01*
X23113895Y-25356394D01*
X22951254Y-25356394D01*
X22888968Y-25355741D01*
X22832993Y-25353626D01*
X22781679Y-25349810D01*
X22757254Y-25347191D01*
X22733375Y-25344058D01*
X22709836Y-25340381D01*
X22686431Y-25336132D01*
X22662953Y-25331280D01*
X22639196Y-25325795D01*
X22590021Y-25312812D01*
X22537254Y-25296944D01*
X22484467Y-25278550D01*
X22431944Y-25256840D01*
X22379897Y-25231995D01*
X22328537Y-25204195D01*
X22278076Y-25173620D01*
X22228726Y-25140450D01*
X22180698Y-25104866D01*
X22134205Y-25067047D01*
X22089457Y-25027174D01*
X22046666Y-24985428D01*
X22006044Y-24941987D01*
X21967802Y-24897033D01*
X21932152Y-24850746D01*
X21899306Y-24803306D01*
X21869476Y-24754892D01*
X21842872Y-24705687D01*
X21817075Y-24651234D01*
X21793960Y-24595859D01*
X21773541Y-24539687D01*
X21755828Y-24482846D01*
X21740835Y-24425462D01*
X21728571Y-24367663D01*
X21719050Y-24309576D01*
X21712283Y-24251328D01*
X21708281Y-24193045D01*
X21707057Y-24134855D01*
X21708621Y-24076886D01*
X21712987Y-24019263D01*
X21720165Y-23962114D01*
X21730167Y-23905566D01*
X21743005Y-23849746D01*
X21758692Y-23794781D01*
X21767422Y-23768424D01*
X21777180Y-23741613D01*
X21787896Y-23714475D01*
X21799500Y-23687133D01*
X21811924Y-23659716D01*
X21825097Y-23632347D01*
X21838951Y-23605153D01*
X21853415Y-23578259D01*
X21868421Y-23551791D01*
X21883900Y-23525875D01*
X21899781Y-23500637D01*
X21915995Y-23476202D01*
X21932473Y-23452695D01*
X21949146Y-23430243D01*
X21965944Y-23408971D01*
X21982797Y-23389006D01*
X22016798Y-23350142D01*
X22101507Y-23379307D01*
X22134700Y-23390873D01*
X22162456Y-23400808D01*
X22181870Y-23408053D01*
X22187541Y-23410337D01*
X22190037Y-23411550D01*
X22190202Y-23411740D01*
X22190307Y-23411991D01*
X22190351Y-23412301D01*
X22190335Y-23412668D01*
X22190262Y-23413092D01*
X22190133Y-23413569D01*
X22189948Y-23414099D01*
X22189708Y-23414679D01*
X22189072Y-23415984D01*
X22188232Y-23417470D01*
X22187200Y-23419122D01*
X22185985Y-23420926D01*
X22184596Y-23422869D01*
X22183044Y-23424936D01*
X22181337Y-23427113D01*
X22179485Y-23429385D01*
X22177499Y-23431739D01*
X22175387Y-23434160D01*
X22173159Y-23436634D01*
X22170826Y-23439148D01*
X22163015Y-23447998D01*
X22154278Y-23458856D01*
X22144760Y-23471486D01*
X22134605Y-23485653D01*
X22112967Y-23517663D01*
X22090523Y-23553008D01*
X22068431Y-23589809D01*
X22047851Y-23626188D01*
X22029942Y-23660269D01*
X22022351Y-23675861D01*
X22015863Y-23690173D01*
X21995209Y-23741309D01*
X21977252Y-23793047D01*
X21961993Y-23845271D01*
X21949434Y-23897862D01*
X21939574Y-23950706D01*
X21932415Y-24003684D01*
X21927958Y-24056680D01*
X21926204Y-24109577D01*
X21927153Y-24162259D01*
X21930806Y-24214608D01*
X21937164Y-24266508D01*
X21946229Y-24317842D01*
X21958000Y-24368493D01*
X21972479Y-24418344D01*
X21989666Y-24467279D01*
X22009563Y-24515181D01*
X22040096Y-24577701D01*
X22074223Y-24637398D01*
X22111793Y-24694161D01*
X22152656Y-24747884D01*
X22196662Y-24798458D01*
X22243659Y-24845774D01*
X22293498Y-24889724D01*
X22346027Y-24930201D01*
X22401096Y-24967095D01*
X22458555Y-25000299D01*
X22518252Y-25029705D01*
X22580039Y-25055203D01*
X22643763Y-25076686D01*
X22709274Y-25094046D01*
X22776422Y-25107174D01*
X22810563Y-25112117D01*
X22845056Y-25115962D01*
X22875663Y-25118312D01*
X22906714Y-25119609D01*
X22938119Y-25119866D01*
X22969791Y-25119098D01*
X23001641Y-25117319D01*
X23033581Y-25114545D01*
X23065522Y-25110789D01*
X23097376Y-25106066D01*
X23129055Y-25100390D01*
X23160469Y-25093776D01*
X23191531Y-25086239D01*
X23222152Y-25077792D01*
X23252244Y-25068451D01*
X23281719Y-25058229D01*
X23310487Y-25047141D01*
X23338461Y-25035202D01*
X23365493Y-25022261D01*
X23393505Y-25007313D01*
X23422257Y-24990556D01*
X23451507Y-24972184D01*
X23481015Y-24952394D01*
X23510539Y-24931383D01*
X23539838Y-24909347D01*
X23568671Y-24886481D01*
X23596797Y-24862982D01*
X23623976Y-24839046D01*
X23649966Y-24814869D01*
X23674526Y-24790649D01*
X23697415Y-24766579D01*
X23718392Y-24742858D01*
X23737216Y-24719681D01*
X23753647Y-24697244D01*
X23760753Y-24686923D01*
X23767015Y-24678053D01*
X23769880Y-24674197D01*
X23772594Y-24670748D01*
X23775176Y-24667718D01*
X23777647Y-24665122D01*
X23780027Y-24662975D01*
X23782336Y-24661290D01*
X23784593Y-24660083D01*
X23786818Y-24659367D01*
X23787925Y-24659197D01*
X23789032Y-24659156D01*
X23790141Y-24659245D01*
X23791254Y-24659465D01*
X23792374Y-24659820D01*
X23793504Y-24660309D01*
X23795802Y-24661701D01*
X23798168Y-24663656D01*
X23800622Y-24666188D01*
X23803184Y-24669311D01*
X23805873Y-24673040D01*
X23808710Y-24677389D01*
X23811715Y-24682373D01*
X23814907Y-24688004D01*
X23818307Y-24694299D01*
X23825807Y-24708934D01*
X23834377Y-24726392D01*
X23855358Y-24770234D01*
X23869206Y-24800421D01*
X23883132Y-24833003D01*
X23910819Y-24904023D01*
X23937623Y-24980634D01*
X23962745Y-25060176D01*
X23985389Y-25139989D01*
X24004758Y-25217414D01*
X24020053Y-25289791D01*
X24025924Y-25323255D01*
X24030477Y-25354460D01*
X24031766Y-25363904D01*
X24033059Y-25372616D01*
X24034324Y-25380411D01*
X24035528Y-25387105D01*
X24036638Y-25392514D01*
X24037621Y-25396456D01*
X24038055Y-25397819D01*
X24038446Y-25398745D01*
X24038788Y-25399213D01*
X24038939Y-25399268D01*
X24039078Y-25399199D01*
X24039395Y-25398499D01*
X24039854Y-25396954D01*
X24041158Y-25391505D01*
X24042922Y-25383212D01*
X24045072Y-25372435D01*
X24047539Y-25359531D01*
X24050251Y-25344859D01*
X24056127Y-25311649D01*
X24063596Y-25270151D01*
X24071619Y-25229495D01*
X24080213Y-25189616D01*
X24089394Y-25150448D01*
X24099177Y-25111927D01*
X24109578Y-25073985D01*
X24120613Y-25036559D01*
X24132297Y-24999582D01*
X24145249Y-24962907D01*
X24162365Y-24918700D01*
X24182255Y-24870143D01*
X24203533Y-24820415D01*
X24224807Y-24772699D01*
X24244688Y-24730174D01*
X24261789Y-24696023D01*
X24268862Y-24683081D01*
X24274719Y-24673425D01*
X24291328Y-24648214D01*
X24331728Y-24704744D01*
X24342111Y-24718630D01*
X24354170Y-24733627D01*
X24367706Y-24749544D01*
X24382520Y-24766190D01*
X24398416Y-24783372D01*
X24415195Y-24800899D01*
X24450610Y-24836221D01*
X24487182Y-24870621D01*
X24505406Y-24886996D01*
X24523325Y-24902565D01*
X24540742Y-24917137D01*
X24557457Y-24930520D01*
X24573274Y-24942521D01*
X24587993Y-24952950D01*
X24629390Y-24979553D01*
X24671709Y-25003810D01*
X24714865Y-25025736D01*
X24758777Y-25045346D01*
X24803359Y-25062654D01*
X24848530Y-25077675D01*
X24894204Y-25090423D01*
X24940300Y-25100914D01*
X24986733Y-25109161D01*
X25033420Y-25115180D01*
X25080277Y-25118986D01*
X25127222Y-25120591D01*
X25174170Y-25120012D01*
X25221038Y-25117263D01*
X25267742Y-25112358D01*
X25314200Y-25105313D01*
X25360328Y-25096141D01*
X25406041Y-25084858D01*
X25451258Y-25071478D01*
X25495894Y-25056015D01*
X25539865Y-25038485D01*
X25583089Y-25018901D01*
X25625482Y-24997279D01*
X25666960Y-24973633D01*
X25707441Y-24947978D01*
X25746839Y-24920328D01*
X25785073Y-24890698D01*
X25822059Y-24859102D01*
X25857712Y-24825556D01*
X25891950Y-24790074D01*
X25924690Y-24752670D01*
X25955847Y-24713359D01*
X25966715Y-24698494D01*
X25977730Y-24682577D01*
X25988823Y-24665739D01*
X25999924Y-24648113D01*
X26021874Y-24611022D01*
X26043026Y-24572358D01*
X26062824Y-24533174D01*
X26080714Y-24494526D01*
X26088771Y-24475732D01*
X26096142Y-24457467D01*
X26102759Y-24439862D01*
X26108553Y-24423051D01*
X26118247Y-24390974D01*
X26126809Y-24357541D01*
X26134234Y-24322931D01*
X26140517Y-24287327D01*
X26145653Y-24250910D01*
X26149636Y-24213861D01*
X26152462Y-24176360D01*
X26154125Y-24138590D01*
X26154620Y-24100732D01*
X26153942Y-24062966D01*
X26152086Y-24025475D01*
X26149047Y-23988439D01*
X26144819Y-23952040D01*
X26139397Y-23916458D01*
X26132777Y-23881876D01*
X26124952Y-23848474D01*
X26119047Y-23827117D01*
X26112128Y-23804905D01*
X26104266Y-23781986D01*
X26095534Y-23758509D01*
X26086004Y-23734622D01*
X26075749Y-23710473D01*
X26064841Y-23686212D01*
X26053352Y-23661986D01*
X26041354Y-23637944D01*
X26028919Y-23614235D01*
X26016120Y-23591007D01*
X26003029Y-23568408D01*
X25989718Y-23546587D01*
X25976260Y-23525693D01*
X25962727Y-23505874D01*
X25949190Y-23487278D01*
X25928399Y-23459346D01*
X25911371Y-23435827D01*
X25904818Y-23426495D01*
X25899865Y-23419193D01*
X25896732Y-23414231D01*
X25895917Y-23412723D01*
X25895639Y-23411917D01*
X25896061Y-23411282D01*
X25897293Y-23410323D01*
X25901979Y-23407524D01*
X25918787Y-23399029D01*
X25942748Y-23387879D01*
X25970546Y-23375519D01*
X25998866Y-23363397D01*
X26024393Y-23352959D01*
X26043809Y-23345650D01*
X26050190Y-23343621D01*
X26053800Y-23342917D01*
X26055591Y-23343401D01*
G37*
X26055591Y-23343401D02*
X26057883Y-23344796D01*
X26063869Y-23350158D01*
X26071541Y-23358675D01*
X26080685Y-23370018D01*
X26091084Y-23383859D01*
X26102524Y-23399868D01*
X26114789Y-23417715D01*
X26127664Y-23437074D01*
X26154379Y-23479006D01*
X26180946Y-23523034D01*
X26193635Y-23545011D01*
X26205641Y-23566525D01*
X26216748Y-23587247D01*
X26226740Y-23606849D01*
X26242414Y-23639581D01*
X26256978Y-23672169D01*
X26270445Y-23704672D01*
X26282829Y-23737150D01*
X26294145Y-23769663D01*
X26304405Y-23802269D01*
X26313624Y-23835028D01*
X26321816Y-23868000D01*
X26328993Y-23901243D01*
X26335170Y-23934818D01*
X26340362Y-23968784D01*
X26344580Y-24003200D01*
X26347840Y-24038125D01*
X26350155Y-24073620D01*
X26351539Y-24109743D01*
X26352005Y-24146554D01*
X26351575Y-24182813D01*
X26350246Y-24218321D01*
X26348001Y-24253162D01*
X26344820Y-24287414D01*
X26340683Y-24321162D01*
X26335573Y-24354484D01*
X26329469Y-24387464D01*
X26322353Y-24420182D01*
X26314206Y-24452720D01*
X26305009Y-24485160D01*
X26294742Y-24517581D01*
X26283387Y-24550067D01*
X26270925Y-24582698D01*
X26257336Y-24615556D01*
X26242602Y-24648721D01*
X26226703Y-24682277D01*
X26199104Y-24735457D01*
X26169077Y-24786936D01*
X26136695Y-24836651D01*
X26102026Y-24884539D01*
X26065141Y-24930540D01*
X26026110Y-24974590D01*
X25985004Y-25016628D01*
X25941892Y-25056593D01*
X25896846Y-25094421D01*
X25849935Y-25130051D01*
X25801230Y-25163422D01*
X25750800Y-25194470D01*
X25698717Y-25223134D01*
X25645049Y-25249353D01*
X25589869Y-25273063D01*
X25533245Y-25294204D01*
X25486184Y-25309860D01*
X25464467Y-25316494D01*
X25443527Y-25322399D01*
X25423041Y-25327621D01*
X25402685Y-25332209D01*
X25382135Y-25336212D01*
X25361068Y-25339679D01*
X25339161Y-25342658D01*
X25316089Y-25345197D01*
X25291530Y-25347345D01*
X25265159Y-25349152D01*
X25205690Y-25351931D01*
X25135092Y-25353924D01*
X24942810Y-25358224D01*
X24911360Y-25382724D01*
X24890230Y-25398702D01*
X24867011Y-25415355D01*
X24814916Y-25450340D01*
X24756298Y-25486977D01*
X24692378Y-25524569D01*
X24624381Y-25562415D01*
X24553528Y-25599818D01*
X24481042Y-25636077D01*
X24408146Y-25670494D01*
X24297308Y-25719588D01*
X24174042Y-25772019D01*
X24072348Y-25813582D01*
X24040215Y-25825849D01*
X24026226Y-25830072D01*
X24025578Y-25829967D01*
X24024766Y-25829784D01*
X24023803Y-25829528D01*
X24022700Y-25829202D01*
X24020124Y-25828360D01*
X24017131Y-25827293D01*
X24013818Y-25826036D01*
X24010280Y-25824624D01*
X24006611Y-25823091D01*
X24002907Y-25821472D01*
X24002870Y-25821462D01*
X23942930Y-25795690D01*
X23823889Y-25744982D01*
X23723528Y-25701282D01*
X23628521Y-25657779D01*
X23539156Y-25614622D01*
X23455719Y-25571965D01*
X23378497Y-25529957D01*
X23307778Y-25488750D01*
X23243848Y-25448495D01*
X23186994Y-25409344D01*
X23113895Y-25356394D01*
X22951254Y-25356394D01*
X22888968Y-25355741D01*
X22832993Y-25353626D01*
X22781679Y-25349810D01*
X22757254Y-25347191D01*
X22733375Y-25344058D01*
X22709836Y-25340381D01*
X22686431Y-25336132D01*
X22662953Y-25331280D01*
X22639196Y-25325795D01*
X22590021Y-25312812D01*
X22537254Y-25296944D01*
X22484467Y-25278550D01*
X22431944Y-25256840D01*
X22379897Y-25231995D01*
X22328537Y-25204195D01*
X22278076Y-25173620D01*
X22228726Y-25140450D01*
X22180698Y-25104866D01*
X22134205Y-25067047D01*
X22089457Y-25027174D01*
X22046666Y-24985428D01*
X22006044Y-24941987D01*
X21967802Y-24897033D01*
X21932152Y-24850746D01*
X21899306Y-24803306D01*
X21869476Y-24754892D01*
X21842872Y-24705687D01*
X21817075Y-24651234D01*
X21793960Y-24595859D01*
X21773541Y-24539687D01*
X21755828Y-24482846D01*
X21740835Y-24425462D01*
X21728571Y-24367663D01*
X21719050Y-24309576D01*
X21712283Y-24251328D01*
X21708281Y-24193045D01*
X21707057Y-24134855D01*
X21708621Y-24076886D01*
X21712987Y-24019263D01*
X21720165Y-23962114D01*
X21730167Y-23905566D01*
X21743005Y-23849746D01*
X21758692Y-23794781D01*
X21767422Y-23768424D01*
X21777180Y-23741613D01*
X21787896Y-23714475D01*
X21799500Y-23687133D01*
X21811924Y-23659716D01*
X21825097Y-23632347D01*
X21838951Y-23605153D01*
X21853415Y-23578259D01*
X21868421Y-23551791D01*
X21883900Y-23525875D01*
X21899781Y-23500637D01*
X21915995Y-23476202D01*
X21932473Y-23452695D01*
X21949146Y-23430243D01*
X21965944Y-23408971D01*
X21982797Y-23389006D01*
X22016798Y-23350142D01*
X22101507Y-23379307D01*
X22134700Y-23390873D01*
X22162456Y-23400808D01*
X22181870Y-23408053D01*
X22187541Y-23410337D01*
X22190037Y-23411550D01*
X22190202Y-23411740D01*
X22190307Y-23411991D01*
X22190351Y-23412301D01*
X22190335Y-23412668D01*
X22190262Y-23413092D01*
X22190133Y-23413569D01*
X22189948Y-23414099D01*
X22189708Y-23414679D01*
X22189072Y-23415984D01*
X22188232Y-23417470D01*
X22187200Y-23419122D01*
X22185985Y-23420926D01*
X22184596Y-23422869D01*
X22183044Y-23424936D01*
X22181337Y-23427113D01*
X22179485Y-23429385D01*
X22177499Y-23431739D01*
X22175387Y-23434160D01*
X22173159Y-23436634D01*
X22170826Y-23439148D01*
X22163015Y-23447998D01*
X22154278Y-23458856D01*
X22144760Y-23471486D01*
X22134605Y-23485653D01*
X22112967Y-23517663D01*
X22090523Y-23553008D01*
X22068431Y-23589809D01*
X22047851Y-23626188D01*
X22029942Y-23660269D01*
X22022351Y-23675861D01*
X22015863Y-23690173D01*
X21995209Y-23741309D01*
X21977252Y-23793047D01*
X21961993Y-23845271D01*
X21949434Y-23897862D01*
X21939574Y-23950706D01*
X21932415Y-24003684D01*
X21927958Y-24056680D01*
X21926204Y-24109577D01*
X21927153Y-24162259D01*
X21930806Y-24214608D01*
X21937164Y-24266508D01*
X21946229Y-24317842D01*
X21958000Y-24368493D01*
X21972479Y-24418344D01*
X21989666Y-24467279D01*
X22009563Y-24515181D01*
X22040096Y-24577701D01*
X22074223Y-24637398D01*
X22111793Y-24694161D01*
X22152656Y-24747884D01*
X22196662Y-24798458D01*
X22243659Y-24845774D01*
X22293498Y-24889724D01*
X22346027Y-24930201D01*
X22401096Y-24967095D01*
X22458555Y-25000299D01*
X22518252Y-25029705D01*
X22580039Y-25055203D01*
X22643763Y-25076686D01*
X22709274Y-25094046D01*
X22776422Y-25107174D01*
X22810563Y-25112117D01*
X22845056Y-25115962D01*
X22875663Y-25118312D01*
X22906714Y-25119609D01*
X22938119Y-25119866D01*
X22969791Y-25119098D01*
X23001641Y-25117319D01*
X23033581Y-25114545D01*
X23065522Y-25110789D01*
X23097376Y-25106066D01*
X23129055Y-25100390D01*
X23160469Y-25093776D01*
X23191531Y-25086239D01*
X23222152Y-25077792D01*
X23252244Y-25068451D01*
X23281719Y-25058229D01*
X23310487Y-25047141D01*
X23338461Y-25035202D01*
X23365493Y-25022261D01*
X23393505Y-25007313D01*
X23422257Y-24990556D01*
X23451507Y-24972184D01*
X23481015Y-24952394D01*
X23510539Y-24931383D01*
X23539838Y-24909347D01*
X23568671Y-24886481D01*
X23596797Y-24862982D01*
X23623976Y-24839046D01*
X23649966Y-24814869D01*
X23674526Y-24790649D01*
X23697415Y-24766579D01*
X23718392Y-24742858D01*
X23737216Y-24719681D01*
X23753647Y-24697244D01*
X23760753Y-24686923D01*
X23767015Y-24678053D01*
X23769880Y-24674197D01*
X23772594Y-24670748D01*
X23775176Y-24667718D01*
X23777647Y-24665122D01*
X23780027Y-24662975D01*
X23782336Y-24661290D01*
X23784593Y-24660083D01*
X23786818Y-24659367D01*
X23787925Y-24659197D01*
X23789032Y-24659156D01*
X23790141Y-24659245D01*
X23791254Y-24659465D01*
X23792374Y-24659820D01*
X23793504Y-24660309D01*
X23795802Y-24661701D01*
X23798168Y-24663656D01*
X23800622Y-24666188D01*
X23803184Y-24669311D01*
X23805873Y-24673040D01*
X23808710Y-24677389D01*
X23811715Y-24682373D01*
X23814907Y-24688004D01*
X23818307Y-24694299D01*
X23825807Y-24708934D01*
X23834377Y-24726392D01*
X23855358Y-24770234D01*
X23869206Y-24800421D01*
X23883132Y-24833003D01*
X23910819Y-24904023D01*
X23937623Y-24980634D01*
X23962745Y-25060176D01*
X23985389Y-25139989D01*
X24004758Y-25217414D01*
X24020053Y-25289791D01*
X24025924Y-25323255D01*
X24030477Y-25354460D01*
X24031766Y-25363904D01*
X24033059Y-25372616D01*
X24034324Y-25380411D01*
X24035528Y-25387105D01*
X24036638Y-25392514D01*
X24037621Y-25396456D01*
X24038055Y-25397819D01*
X24038446Y-25398745D01*
X24038788Y-25399213D01*
X24038939Y-25399268D01*
X24039078Y-25399199D01*
X24039395Y-25398499D01*
X24039854Y-25396954D01*
X24041158Y-25391505D01*
X24042922Y-25383212D01*
X24045072Y-25372435D01*
X24047539Y-25359531D01*
X24050251Y-25344859D01*
X24056127Y-25311649D01*
X24063596Y-25270151D01*
X24071619Y-25229495D01*
X24080213Y-25189616D01*
X24089394Y-25150448D01*
X24099177Y-25111927D01*
X24109578Y-25073985D01*
X24120613Y-25036559D01*
X24132297Y-24999582D01*
X24145249Y-24962907D01*
X24162365Y-24918700D01*
X24182255Y-24870143D01*
X24203533Y-24820415D01*
X24224807Y-24772699D01*
X24244688Y-24730174D01*
X24261789Y-24696023D01*
X24268862Y-24683081D01*
X24274719Y-24673425D01*
X24291328Y-24648214D01*
X24331728Y-24704744D01*
X24342111Y-24718630D01*
X24354170Y-24733627D01*
X24367706Y-24749544D01*
X24382520Y-24766190D01*
X24398416Y-24783372D01*
X24415195Y-24800899D01*
X24450610Y-24836221D01*
X24487182Y-24870621D01*
X24505406Y-24886996D01*
X24523325Y-24902565D01*
X24540742Y-24917137D01*
X24557457Y-24930520D01*
X24573274Y-24942521D01*
X24587993Y-24952950D01*
X24629390Y-24979553D01*
X24671709Y-25003810D01*
X24714865Y-25025736D01*
X24758777Y-25045346D01*
X24803359Y-25062654D01*
X24848530Y-25077675D01*
X24894204Y-25090423D01*
X24940300Y-25100914D01*
X24986733Y-25109161D01*
X25033420Y-25115180D01*
X25080277Y-25118986D01*
X25127222Y-25120591D01*
X25174170Y-25120012D01*
X25221038Y-25117263D01*
X25267742Y-25112358D01*
X25314200Y-25105313D01*
X25360328Y-25096141D01*
X25406041Y-25084858D01*
X25451258Y-25071478D01*
X25495894Y-25056015D01*
X25539865Y-25038485D01*
X25583089Y-25018901D01*
X25625482Y-24997279D01*
X25666960Y-24973633D01*
X25707441Y-24947978D01*
X25746839Y-24920328D01*
X25785073Y-24890698D01*
X25822059Y-24859102D01*
X25857712Y-24825556D01*
X25891950Y-24790074D01*
X25924690Y-24752670D01*
X25955847Y-24713359D01*
X25966715Y-24698494D01*
X25977730Y-24682577D01*
X25988823Y-24665739D01*
X25999924Y-24648113D01*
X26021874Y-24611022D01*
X26043026Y-24572358D01*
X26062824Y-24533174D01*
X26080714Y-24494526D01*
X26088771Y-24475732D01*
X26096142Y-24457467D01*
X26102759Y-24439862D01*
X26108553Y-24423051D01*
X26118247Y-24390974D01*
X26126809Y-24357541D01*
X26134234Y-24322931D01*
X26140517Y-24287327D01*
X26145653Y-24250910D01*
X26149636Y-24213861D01*
X26152462Y-24176360D01*
X26154125Y-24138590D01*
X26154620Y-24100732D01*
X26153942Y-24062966D01*
X26152086Y-24025475D01*
X26149047Y-23988439D01*
X26144819Y-23952040D01*
X26139397Y-23916458D01*
X26132777Y-23881876D01*
X26124952Y-23848474D01*
X26119047Y-23827117D01*
X26112128Y-23804905D01*
X26104266Y-23781986D01*
X26095534Y-23758509D01*
X26086004Y-23734622D01*
X26075749Y-23710473D01*
X26064841Y-23686212D01*
X26053352Y-23661986D01*
X26041354Y-23637944D01*
X26028919Y-23614235D01*
X26016120Y-23591007D01*
X26003029Y-23568408D01*
X25989718Y-23546587D01*
X25976260Y-23525693D01*
X25962727Y-23505874D01*
X25949190Y-23487278D01*
X25928399Y-23459346D01*
X25911371Y-23435827D01*
X25904818Y-23426495D01*
X25899865Y-23419193D01*
X25896732Y-23414231D01*
X25895917Y-23412723D01*
X25895639Y-23411917D01*
X25896061Y-23411282D01*
X25897293Y-23410323D01*
X25901979Y-23407524D01*
X25918787Y-23399029D01*
X25942748Y-23387879D01*
X25970546Y-23375519D01*
X25998866Y-23363397D01*
X26024393Y-23352959D01*
X26043809Y-23345650D01*
X26050190Y-23343621D01*
X26053800Y-23342917D01*
X26055591Y-23343401D01*
D12*
X63671964Y-40756571D02*
X64421964Y-40756571D01*
X63886250Y-41006571D01*
X64421964Y-41256571D01*
X63671964Y-41256571D01*
X63886250Y-41578000D02*
X63886250Y-41935142D01*
X63671964Y-41506571D02*
X64421964Y-41756571D01*
X63671964Y-42006571D01*
X64421964Y-42185142D02*
X63671964Y-42685142D01*
X64421964Y-42685142D02*
X63671964Y-42185142D01*
X63957678Y-43542285D02*
X63957678Y-44113714D01*
X63671964Y-43828000D02*
X64243392Y-43828000D01*
X64350535Y-44435142D02*
X64386250Y-44470857D01*
X64421964Y-44542285D01*
X64421964Y-44720857D01*
X64386250Y-44792285D01*
X64350535Y-44828000D01*
X64279107Y-44863714D01*
X64207678Y-44863714D01*
X64100535Y-44828000D01*
X63671964Y-44399428D01*
X63671964Y-44863714D01*
X64421964Y-45506571D02*
X64421964Y-45363714D01*
X64386250Y-45292285D01*
X64350535Y-45256571D01*
X64243392Y-45185142D01*
X64100535Y-45149428D01*
X63814821Y-45149428D01*
X63743392Y-45185142D01*
X63707678Y-45220857D01*
X63671964Y-45292285D01*
X63671964Y-45435142D01*
X63707678Y-45506571D01*
X63743392Y-45542285D01*
X63814821Y-45578000D01*
X63993392Y-45578000D01*
X64064821Y-45542285D01*
X64100535Y-45506571D01*
X64136250Y-45435142D01*
X64136250Y-45292285D01*
X64100535Y-45220857D01*
X64064821Y-45185142D01*
X63993392Y-45149428D01*
X64421964Y-45792285D02*
X63671964Y-46042285D01*
X64421964Y-46292285D01*
X64421964Y-47042285D02*
X64421964Y-47542285D01*
X63671964Y-47220857D01*
X63886250Y-47792285D02*
X63886250Y-48149428D01*
X63671964Y-47720857D02*
X64421964Y-47970857D01*
X63671964Y-48220857D01*
X63143035Y-40720857D02*
X63178750Y-40756571D01*
X63214464Y-40828000D01*
X63214464Y-41006571D01*
X63178750Y-41078000D01*
X63143035Y-41113714D01*
X63071607Y-41149428D01*
X63000178Y-41149428D01*
X62893035Y-41113714D01*
X62464464Y-40685142D01*
X62464464Y-41149428D01*
X62678750Y-41435142D02*
X62678750Y-41792285D01*
X62464464Y-41363714D02*
X63214464Y-41613714D01*
X62464464Y-41863714D01*
X62464464Y-42685142D02*
X63214464Y-42685142D01*
X63214464Y-42970857D01*
X63178750Y-43042285D01*
X63143035Y-43078000D01*
X63071607Y-43113714D01*
X62964464Y-43113714D01*
X62893035Y-43078000D01*
X62857321Y-43042285D01*
X62821607Y-42970857D01*
X62821607Y-42685142D01*
X62857321Y-43435142D02*
X62857321Y-43685142D01*
X62464464Y-43792285D02*
X62464464Y-43435142D01*
X63214464Y-43435142D01*
X63214464Y-43792285D01*
X62464464Y-44542285D02*
X62821607Y-44292285D01*
X62464464Y-44113714D02*
X63214464Y-44113714D01*
X63214464Y-44399428D01*
X63178750Y-44470857D01*
X63143035Y-44506571D01*
X63071607Y-44542285D01*
X62964464Y-44542285D01*
X62893035Y-44506571D01*
X62857321Y-44470857D01*
X62821607Y-44399428D01*
X62821607Y-44113714D01*
X63214464Y-45578000D02*
X63214464Y-45720857D01*
X63178750Y-45792285D01*
X63107321Y-45863714D01*
X62964464Y-45899428D01*
X62714464Y-45899428D01*
X62571607Y-45863714D01*
X62500178Y-45792285D01*
X62464464Y-45720857D01*
X62464464Y-45578000D01*
X62500178Y-45506571D01*
X62571607Y-45435142D01*
X62714464Y-45399428D01*
X62964464Y-45399428D01*
X63107321Y-45435142D01*
X63178750Y-45506571D01*
X63214464Y-45578000D01*
X63214464Y-46220857D02*
X62607321Y-46220857D01*
X62535892Y-46256571D01*
X62500178Y-46292285D01*
X62464464Y-46363714D01*
X62464464Y-46506571D01*
X62500178Y-46578000D01*
X62535892Y-46613714D01*
X62607321Y-46649428D01*
X63214464Y-46649428D01*
X63214464Y-46899428D02*
X63214464Y-47328000D01*
X62464464Y-47113714D02*
X63214464Y-47113714D01*
X62464464Y-47578000D02*
X63214464Y-47578000D01*
X63214464Y-47863714D01*
X63178750Y-47935142D01*
X63143035Y-47970857D01*
X63071607Y-48006571D01*
X62964464Y-48006571D01*
X62893035Y-47970857D01*
X62857321Y-47935142D01*
X62821607Y-47863714D01*
X62821607Y-47578000D01*
X63214464Y-48328000D02*
X62607321Y-48328000D01*
X62535892Y-48363714D01*
X62500178Y-48399428D01*
X62464464Y-48470857D01*
X62464464Y-48613714D01*
X62500178Y-48685142D01*
X62535892Y-48720857D01*
X62607321Y-48756571D01*
X63214464Y-48756571D01*
X63214464Y-49006571D02*
X63214464Y-49435142D01*
X62464464Y-49220857D02*
X63214464Y-49220857D01*
X60085178Y-40720857D02*
X60049464Y-40828000D01*
X60049464Y-41006571D01*
X60085178Y-41078000D01*
X60120892Y-41113714D01*
X60192321Y-41149428D01*
X60263750Y-41149428D01*
X60335178Y-41113714D01*
X60370892Y-41078000D01*
X60406607Y-41006571D01*
X60442321Y-40863714D01*
X60478035Y-40792285D01*
X60513750Y-40756571D01*
X60585178Y-40720857D01*
X60656607Y-40720857D01*
X60728035Y-40756571D01*
X60763750Y-40792285D01*
X60799464Y-40863714D01*
X60799464Y-41042285D01*
X60763750Y-41149428D01*
X60799464Y-41399428D02*
X60049464Y-41578000D01*
X60585178Y-41720857D01*
X60049464Y-41863714D01*
X60799464Y-42042285D01*
X60049464Y-42328000D02*
X60799464Y-42328000D01*
X60799464Y-42578000D02*
X60799464Y-43006571D01*
X60049464Y-42792285D02*
X60799464Y-42792285D01*
X60120892Y-43685142D02*
X60085178Y-43649428D01*
X60049464Y-43542285D01*
X60049464Y-43470857D01*
X60085178Y-43363714D01*
X60156607Y-43292285D01*
X60228035Y-43256571D01*
X60370892Y-43220857D01*
X60478035Y-43220857D01*
X60620892Y-43256571D01*
X60692321Y-43292285D01*
X60763750Y-43363714D01*
X60799464Y-43470857D01*
X60799464Y-43542285D01*
X60763750Y-43649428D01*
X60728035Y-43685142D01*
X60049464Y-44006571D02*
X60799464Y-44006571D01*
X60442321Y-44006571D02*
X60442321Y-44435142D01*
X60049464Y-44435142D02*
X60799464Y-44435142D01*
X60442321Y-44792285D02*
X60442321Y-45042285D01*
X60049464Y-45149428D02*
X60049464Y-44792285D01*
X60799464Y-44792285D01*
X60799464Y-45149428D01*
X60049464Y-45470857D02*
X60799464Y-45470857D01*
X60799464Y-45649428D01*
X60763750Y-45756571D01*
X60692321Y-45828000D01*
X60620892Y-45863714D01*
X60478035Y-45899428D01*
X60370892Y-45899428D01*
X60228035Y-45863714D01*
X60156607Y-45828000D01*
X60085178Y-45756571D01*
X60049464Y-45649428D01*
X60049464Y-45470857D01*
X60335178Y-46792285D02*
X60335178Y-47363714D01*
X60049464Y-47078000D02*
X60620892Y-47078000D01*
X60799464Y-47613714D02*
X60049464Y-47863714D01*
X60799464Y-48113714D01*
X60442321Y-48363714D02*
X60442321Y-48613714D01*
X60049464Y-48720857D02*
X60049464Y-48363714D01*
X60799464Y-48363714D01*
X60799464Y-48720857D01*
D10*
X31783214Y-22932380D02*
X31783214Y-21932380D01*
X32164166Y-21932380D01*
X32259404Y-21980000D01*
X32307023Y-22027619D01*
X32354642Y-22122857D01*
X32354642Y-22265714D01*
X32307023Y-22360952D01*
X32259404Y-22408571D01*
X32164166Y-22456190D01*
X31783214Y-22456190D01*
X32783214Y-22932380D02*
X32783214Y-21932380D01*
X34021309Y-22932380D02*
X34021309Y-21932380D01*
X34402261Y-21932380D01*
X34497500Y-21980000D01*
X34545119Y-22027619D01*
X34592738Y-22122857D01*
X34592738Y-22265714D01*
X34545119Y-22360952D01*
X34497500Y-22408571D01*
X34402261Y-22456190D01*
X34021309Y-22456190D01*
X35021309Y-22932380D02*
X35021309Y-21932380D01*
X35497500Y-22932380D02*
X35497500Y-21932380D01*
X36068928Y-22932380D01*
X36068928Y-21932380D01*
X28687976Y-23875714D02*
X29402261Y-23875714D01*
X28973690Y-23447142D02*
X28687976Y-24732857D01*
X29307023Y-24304285D02*
X28592738Y-24304285D01*
X29021309Y-24732857D02*
X29307023Y-23447142D01*
X30259404Y-24542380D02*
X29687976Y-24542380D01*
X29973690Y-24542380D02*
X29973690Y-23542380D01*
X29878452Y-23685238D01*
X29783214Y-23780476D01*
X29687976Y-23828095D01*
X33497500Y-24542380D02*
X32926071Y-24542380D01*
X33211785Y-24542380D02*
X33211785Y-23542380D01*
X33116547Y-23685238D01*
X33021309Y-23780476D01*
X32926071Y-23828095D01*
X33830833Y-23542380D02*
X34449880Y-23542380D01*
X34116547Y-23923333D01*
X34259404Y-23923333D01*
X34354642Y-23970952D01*
X34402261Y-24018571D01*
X34449880Y-24113809D01*
X34449880Y-24351904D01*
X34402261Y-24447142D01*
X34354642Y-24494761D01*
X34259404Y-24542380D01*
X33973690Y-24542380D01*
X33878452Y-24494761D01*
X33830833Y-24447142D01*
X28687976Y-25485714D02*
X29402261Y-25485714D01*
X28973690Y-25057142D02*
X28687976Y-26342857D01*
X29307023Y-25914285D02*
X28592738Y-25914285D01*
X29021309Y-26342857D02*
X29307023Y-25057142D01*
X29687976Y-25247619D02*
X29735595Y-25200000D01*
X29830833Y-25152380D01*
X30068928Y-25152380D01*
X30164166Y-25200000D01*
X30211785Y-25247619D01*
X30259404Y-25342857D01*
X30259404Y-25438095D01*
X30211785Y-25580952D01*
X29640357Y-26152380D01*
X30259404Y-26152380D01*
X33497500Y-26152380D02*
X32926071Y-26152380D01*
X33211785Y-26152380D02*
X33211785Y-25152380D01*
X33116547Y-25295238D01*
X33021309Y-25390476D01*
X32926071Y-25438095D01*
X34402261Y-25152380D02*
X33926071Y-25152380D01*
X33878452Y-25628571D01*
X33926071Y-25580952D01*
X34021309Y-25533333D01*
X34259404Y-25533333D01*
X34354642Y-25580952D01*
X34402261Y-25628571D01*
X34449880Y-25723809D01*
X34449880Y-25961904D01*
X34402261Y-26057142D01*
X34354642Y-26104761D01*
X34259404Y-26152380D01*
X34021309Y-26152380D01*
X33926071Y-26104761D01*
X33878452Y-26057142D01*
X28687976Y-27095714D02*
X29402261Y-27095714D01*
X28973690Y-26667142D02*
X28687976Y-27952857D01*
X29307023Y-27524285D02*
X28592738Y-27524285D01*
X29021309Y-27952857D02*
X29307023Y-26667142D01*
X29640357Y-26762380D02*
X30259404Y-26762380D01*
X29926071Y-27143333D01*
X30068928Y-27143333D01*
X30164166Y-27190952D01*
X30211785Y-27238571D01*
X30259404Y-27333809D01*
X30259404Y-27571904D01*
X30211785Y-27667142D01*
X30164166Y-27714761D01*
X30068928Y-27762380D01*
X29783214Y-27762380D01*
X29687976Y-27714761D01*
X29640357Y-27667142D01*
X33497500Y-27762380D02*
X32926071Y-27762380D01*
X33211785Y-27762380D02*
X33211785Y-26762380D01*
X33116547Y-26905238D01*
X33021309Y-27000476D01*
X32926071Y-27048095D01*
X34354642Y-26762380D02*
X34164166Y-26762380D01*
X34068928Y-26810000D01*
X34021309Y-26857619D01*
X33926071Y-27000476D01*
X33878452Y-27190952D01*
X33878452Y-27571904D01*
X33926071Y-27667142D01*
X33973690Y-27714761D01*
X34068928Y-27762380D01*
X34259404Y-27762380D01*
X34354642Y-27714761D01*
X34402261Y-27667142D01*
X34449880Y-27571904D01*
X34449880Y-27333809D01*
X34402261Y-27238571D01*
X34354642Y-27190952D01*
X34259404Y-27143333D01*
X34068928Y-27143333D01*
X33973690Y-27190952D01*
X33926071Y-27238571D01*
X33878452Y-27333809D01*
X28687976Y-28705714D02*
X29402261Y-28705714D01*
X28973690Y-28277142D02*
X28687976Y-29562857D01*
X29307023Y-29134285D02*
X28592738Y-29134285D01*
X29021309Y-29562857D02*
X29307023Y-28277142D01*
X30164166Y-28705714D02*
X30164166Y-29372380D01*
X29926071Y-28324761D02*
X29687976Y-29039047D01*
X30307023Y-29039047D01*
X33497500Y-29372380D02*
X32926071Y-29372380D01*
X33211785Y-29372380D02*
X33211785Y-28372380D01*
X33116547Y-28515238D01*
X33021309Y-28610476D01*
X32926071Y-28658095D01*
X34068928Y-28800952D02*
X33973690Y-28753333D01*
X33926071Y-28705714D01*
X33878452Y-28610476D01*
X33878452Y-28562857D01*
X33926071Y-28467619D01*
X33973690Y-28420000D01*
X34068928Y-28372380D01*
X34259404Y-28372380D01*
X34354642Y-28420000D01*
X34402261Y-28467619D01*
X34449880Y-28562857D01*
X34449880Y-28610476D01*
X34402261Y-28705714D01*
X34354642Y-28753333D01*
X34259404Y-28800952D01*
X34068928Y-28800952D01*
X33973690Y-28848571D01*
X33926071Y-28896190D01*
X33878452Y-28991428D01*
X33878452Y-29181904D01*
X33926071Y-29277142D01*
X33973690Y-29324761D01*
X34068928Y-29372380D01*
X34259404Y-29372380D01*
X34354642Y-29324761D01*
X34402261Y-29277142D01*
X34449880Y-29181904D01*
X34449880Y-28991428D01*
X34402261Y-28896190D01*
X34354642Y-28848571D01*
X34259404Y-28800952D01*
X12752380Y-33890476D02*
X11752380Y-33890476D01*
X11847619Y-33461904D02*
X11800000Y-33414285D01*
X11752380Y-33319047D01*
X11752380Y-33080952D01*
X11800000Y-32985714D01*
X11847619Y-32938095D01*
X11942857Y-32890476D01*
X12038095Y-32890476D01*
X12180952Y-32938095D01*
X12752380Y-33509523D01*
X12752380Y-32890476D01*
X12657142Y-31890476D02*
X12704761Y-31938095D01*
X12752380Y-32080952D01*
X12752380Y-32176190D01*
X12704761Y-32319047D01*
X12609523Y-32414285D01*
X12514285Y-32461904D01*
X12323809Y-32509523D01*
X12180952Y-32509523D01*
X11990476Y-32461904D01*
X11895238Y-32414285D01*
X11800000Y-32319047D01*
X11752380Y-32176190D01*
X11752380Y-32080952D01*
X11800000Y-31938095D01*
X11847619Y-31890476D01*
X12466666Y-30747619D02*
X12466666Y-30271428D01*
X12752380Y-30842857D02*
X11752380Y-30509523D01*
X12752380Y-30176190D01*
X12752380Y-29842857D02*
X11752380Y-29842857D01*
X11752380Y-29604761D01*
X11800000Y-29461904D01*
X11895238Y-29366666D01*
X11990476Y-29319047D01*
X12180952Y-29271428D01*
X12323809Y-29271428D01*
X12514285Y-29319047D01*
X12609523Y-29366666D01*
X12704761Y-29461904D01*
X12752380Y-29604761D01*
X12752380Y-29842857D01*
X12752380Y-28842857D02*
X11752380Y-28842857D01*
X11752380Y-28604761D01*
X11800000Y-28461904D01*
X11895238Y-28366666D01*
X11990476Y-28319047D01*
X12180952Y-28271428D01*
X12323809Y-28271428D01*
X12514285Y-28319047D01*
X12609523Y-28366666D01*
X12704761Y-28461904D01*
X12752380Y-28604761D01*
X12752380Y-28842857D01*
X12752380Y-27271428D02*
X12276190Y-27604761D01*
X12752380Y-27842857D02*
X11752380Y-27842857D01*
X11752380Y-27461904D01*
X11800000Y-27366666D01*
X11847619Y-27319047D01*
X11942857Y-27271428D01*
X12085714Y-27271428D01*
X12180952Y-27319047D01*
X12228571Y-27366666D01*
X12276190Y-27461904D01*
X12276190Y-27842857D01*
X12228571Y-26842857D02*
X12228571Y-26509523D01*
X12752380Y-26366666D02*
X12752380Y-26842857D01*
X11752380Y-26842857D01*
X11752380Y-26366666D01*
X12704761Y-25985714D02*
X12752380Y-25842857D01*
X12752380Y-25604761D01*
X12704761Y-25509523D01*
X12657142Y-25461904D01*
X12561904Y-25414285D01*
X12466666Y-25414285D01*
X12371428Y-25461904D01*
X12323809Y-25509523D01*
X12276190Y-25604761D01*
X12228571Y-25795238D01*
X12180952Y-25890476D01*
X12133333Y-25938095D01*
X12038095Y-25985714D01*
X11942857Y-25985714D01*
X11847619Y-25938095D01*
X11800000Y-25890476D01*
X11752380Y-25795238D01*
X11752380Y-25557142D01*
X11800000Y-25414285D01*
X12704761Y-25033333D02*
X12752380Y-24890476D01*
X12752380Y-24652380D01*
X12704761Y-24557142D01*
X12657142Y-24509523D01*
X12561904Y-24461904D01*
X12466666Y-24461904D01*
X12371428Y-24509523D01*
X12323809Y-24557142D01*
X12276190Y-24652380D01*
X12228571Y-24842857D01*
X12180952Y-24938095D01*
X12133333Y-24985714D01*
X12038095Y-25033333D01*
X11942857Y-25033333D01*
X11847619Y-24985714D01*
X11800000Y-24938095D01*
X11752380Y-24842857D01*
X11752380Y-24604761D01*
X11800000Y-24461904D01*
X17538095Y-20385714D02*
X17538095Y-21195238D01*
X17490476Y-21290476D01*
X17442857Y-21338095D01*
X17347619Y-21385714D01*
X17204761Y-21385714D01*
X17109523Y-21338095D01*
X17538095Y-21004761D02*
X17442857Y-21052380D01*
X17252380Y-21052380D01*
X17157142Y-21004761D01*
X17109523Y-20957142D01*
X17061904Y-20861904D01*
X17061904Y-20576190D01*
X17109523Y-20480952D01*
X17157142Y-20433333D01*
X17252380Y-20385714D01*
X17442857Y-20385714D01*
X17538095Y-20433333D01*
X18014285Y-21052380D02*
X18014285Y-20385714D01*
X18014285Y-20052380D02*
X17966666Y-20100000D01*
X18014285Y-20147619D01*
X18061904Y-20100000D01*
X18014285Y-20052380D01*
X18014285Y-20147619D01*
X18347619Y-20385714D02*
X18728571Y-20385714D01*
X18490476Y-20052380D02*
X18490476Y-20909523D01*
X18538095Y-21004761D01*
X18633333Y-21052380D01*
X18728571Y-21052380D01*
X19061904Y-21052380D02*
X19061904Y-20052380D01*
X19490476Y-21052380D02*
X19490476Y-20528571D01*
X19442857Y-20433333D01*
X19347619Y-20385714D01*
X19204761Y-20385714D01*
X19109523Y-20433333D01*
X19061904Y-20480952D01*
X20395238Y-20385714D02*
X20395238Y-21052380D01*
X19966666Y-20385714D02*
X19966666Y-20909523D01*
X20014285Y-21004761D01*
X20109523Y-21052380D01*
X20252380Y-21052380D01*
X20347619Y-21004761D01*
X20395238Y-20957142D01*
X20871428Y-21052380D02*
X20871428Y-20052380D01*
X20871428Y-20433333D02*
X20966666Y-20385714D01*
X21157142Y-20385714D01*
X21252380Y-20433333D01*
X21299999Y-20480952D01*
X21347619Y-20576190D01*
X21347619Y-20861904D01*
X21299999Y-20957142D01*
X21252380Y-21004761D01*
X21157142Y-21052380D01*
X20966666Y-21052380D01*
X20871428Y-21004761D01*
X21776190Y-20957142D02*
X21823809Y-21004761D01*
X21776190Y-21052380D01*
X21728571Y-21004761D01*
X21776190Y-20957142D01*
X21776190Y-21052380D01*
X21776190Y-20433333D02*
X21823809Y-20480952D01*
X21776190Y-20528571D01*
X21728571Y-20480952D01*
X21776190Y-20433333D01*
X21776190Y-20528571D01*
X22680952Y-20385714D02*
X22680952Y-21195238D01*
X22633333Y-21290476D01*
X22585714Y-21338095D01*
X22490476Y-21385714D01*
X22347619Y-21385714D01*
X22252380Y-21338095D01*
X22680952Y-21004761D02*
X22585714Y-21052380D01*
X22395238Y-21052380D01*
X22299999Y-21004761D01*
X22252380Y-20957142D01*
X22204761Y-20861904D01*
X22204761Y-20576190D01*
X22252380Y-20480952D01*
X22299999Y-20433333D01*
X22395238Y-20385714D01*
X22585714Y-20385714D01*
X22680952Y-20433333D01*
X23538095Y-21004761D02*
X23442857Y-21052380D01*
X23252380Y-21052380D01*
X23157142Y-21004761D01*
X23109523Y-20909523D01*
X23109523Y-20528571D01*
X23157142Y-20433333D01*
X23252380Y-20385714D01*
X23442857Y-20385714D01*
X23538095Y-20433333D01*
X23585714Y-20528571D01*
X23585714Y-20623809D01*
X23109523Y-20719047D01*
X24395238Y-21004761D02*
X24299999Y-21052380D01*
X24109523Y-21052380D01*
X24014285Y-21004761D01*
X23966666Y-20909523D01*
X23966666Y-20528571D01*
X24014285Y-20433333D01*
X24109523Y-20385714D01*
X24299999Y-20385714D01*
X24395238Y-20433333D01*
X24442857Y-20528571D01*
X24442857Y-20623809D01*
X23966666Y-20719047D01*
X24776190Y-20385714D02*
X25299999Y-20385714D01*
X24776190Y-21052380D01*
X25299999Y-21052380D01*
X26109523Y-21052380D02*
X26109523Y-20528571D01*
X26061904Y-20433333D01*
X25966666Y-20385714D01*
X25776190Y-20385714D01*
X25680952Y-20433333D01*
X26109523Y-21004761D02*
X26014285Y-21052380D01*
X25776190Y-21052380D01*
X25680952Y-21004761D01*
X25633333Y-20909523D01*
X25633333Y-20814285D01*
X25680952Y-20719047D01*
X25776190Y-20671428D01*
X26014285Y-20671428D01*
X26109523Y-20623809D01*
X27014285Y-21004761D02*
X26919047Y-21052380D01*
X26728571Y-21052380D01*
X26633333Y-21004761D01*
X26585714Y-20957142D01*
X26538095Y-20861904D01*
X26538095Y-20576190D01*
X26585714Y-20480952D01*
X26633333Y-20433333D01*
X26728571Y-20385714D01*
X26919047Y-20385714D01*
X27014285Y-20433333D01*
X27585714Y-21052380D02*
X27490476Y-21004761D01*
X27442857Y-20957142D01*
X27395238Y-20861904D01*
X27395238Y-20576190D01*
X27442857Y-20480952D01*
X27490476Y-20433333D01*
X27585714Y-20385714D01*
X27728571Y-20385714D01*
X27823809Y-20433333D01*
X27871428Y-20480952D01*
X27919047Y-20576190D01*
X27919047Y-20861904D01*
X27871428Y-20957142D01*
X27823809Y-21004761D01*
X27728571Y-21052380D01*
X27585714Y-21052380D01*
X28490476Y-21052380D02*
X28395238Y-21004761D01*
X28347619Y-20909523D01*
X28347619Y-20052380D01*
X29252380Y-21004761D02*
X29157142Y-21052380D01*
X28966666Y-21052380D01*
X28871428Y-21004761D01*
X28823809Y-20909523D01*
X28823809Y-20528571D01*
X28871428Y-20433333D01*
X28966666Y-20385714D01*
X29157142Y-20385714D01*
X29252380Y-20433333D01*
X29299999Y-20528571D01*
X29299999Y-20623809D01*
X28823809Y-20719047D01*
X29728571Y-21052380D02*
X29728571Y-20385714D01*
X29728571Y-20480952D02*
X29776190Y-20433333D01*
X29871428Y-20385714D01*
X30014285Y-20385714D01*
X30109523Y-20433333D01*
X30157142Y-20528571D01*
X30157142Y-21052380D01*
X30157142Y-20528571D02*
X30204761Y-20433333D01*
X30299999Y-20385714D01*
X30442857Y-20385714D01*
X30538095Y-20433333D01*
X30585714Y-20528571D01*
X30585714Y-21052380D01*
X31490476Y-21052380D02*
X31490476Y-20528571D01*
X31442857Y-20433333D01*
X31347619Y-20385714D01*
X31157142Y-20385714D01*
X31061904Y-20433333D01*
X31490476Y-21004761D02*
X31395238Y-21052380D01*
X31157142Y-21052380D01*
X31061904Y-21004761D01*
X31014285Y-20909523D01*
X31014285Y-20814285D01*
X31061904Y-20719047D01*
X31157142Y-20671428D01*
X31395238Y-20671428D01*
X31490476Y-20623809D01*
X31966666Y-20385714D02*
X31966666Y-21052380D01*
X31966666Y-20480952D02*
X32014285Y-20433333D01*
X32109523Y-20385714D01*
X32252380Y-20385714D01*
X32347619Y-20433333D01*
X32395238Y-20528571D01*
X32395238Y-21052380D01*
X33585714Y-20004761D02*
X32728571Y-21290476D01*
X34109523Y-20052380D02*
X34300000Y-20052380D01*
X34395238Y-20100000D01*
X34490476Y-20195238D01*
X34538095Y-20385714D01*
X34538095Y-20719047D01*
X34490476Y-20909523D01*
X34395238Y-21004761D01*
X34300000Y-21052380D01*
X34109523Y-21052380D01*
X34014285Y-21004761D01*
X33919047Y-20909523D01*
X33871428Y-20719047D01*
X33871428Y-20385714D01*
X33919047Y-20195238D01*
X34014285Y-20100000D01*
X34109523Y-20052380D01*
X34966666Y-20385714D02*
X34966666Y-21385714D01*
X34966666Y-20433333D02*
X35061904Y-20385714D01*
X35252380Y-20385714D01*
X35347619Y-20433333D01*
X35395238Y-20480952D01*
X35442857Y-20576190D01*
X35442857Y-20861904D01*
X35395238Y-20957142D01*
X35347619Y-21004761D01*
X35252380Y-21052380D01*
X35061904Y-21052380D01*
X34966666Y-21004761D01*
X36252380Y-21004761D02*
X36157142Y-21052380D01*
X35966666Y-21052380D01*
X35871428Y-21004761D01*
X35823809Y-20909523D01*
X35823809Y-20528571D01*
X35871428Y-20433333D01*
X35966666Y-20385714D01*
X36157142Y-20385714D01*
X36252380Y-20433333D01*
X36300000Y-20528571D01*
X36300000Y-20623809D01*
X35823809Y-20719047D01*
X36728571Y-20385714D02*
X36728571Y-21052380D01*
X36728571Y-20480952D02*
X36776190Y-20433333D01*
X36871428Y-20385714D01*
X37014285Y-20385714D01*
X37109523Y-20433333D01*
X37157142Y-20528571D01*
X37157142Y-21052380D01*
X37538095Y-20052380D02*
X37776190Y-21052380D01*
X37966666Y-20338095D01*
X38157142Y-21052380D01*
X38395238Y-20052380D01*
X39157142Y-21004761D02*
X39061904Y-21052380D01*
X38871428Y-21052380D01*
X38776190Y-21004761D01*
X38728571Y-20909523D01*
X38728571Y-20528571D01*
X38776190Y-20433333D01*
X38871428Y-20385714D01*
X39061904Y-20385714D01*
X39157142Y-20433333D01*
X39204761Y-20528571D01*
X39204761Y-20623809D01*
X38728571Y-20719047D01*
X40014285Y-21004761D02*
X39919047Y-21052380D01*
X39728571Y-21052380D01*
X39633333Y-21004761D01*
X39585714Y-20909523D01*
X39585714Y-20528571D01*
X39633333Y-20433333D01*
X39728571Y-20385714D01*
X39919047Y-20385714D01*
X40014285Y-20433333D01*
X40061904Y-20528571D01*
X40061904Y-20623809D01*
X39585714Y-20719047D01*
X40919047Y-21052380D02*
X40919047Y-20052380D01*
X40919047Y-21004761D02*
X40823809Y-21052380D01*
X40633333Y-21052380D01*
X40538095Y-21004761D01*
X40490476Y-20957142D01*
X40442857Y-20861904D01*
X40442857Y-20576190D01*
X40490476Y-20480952D01*
X40538095Y-20433333D01*
X40633333Y-20385714D01*
X40823809Y-20385714D01*
X40919047Y-20433333D01*
X41871428Y-21052380D02*
X41395238Y-21052380D01*
X41395238Y-20052380D01*
X42347619Y-21052380D02*
X42252380Y-21004761D01*
X42204761Y-20957142D01*
X42157142Y-20861904D01*
X42157142Y-20576190D01*
X42204761Y-20480952D01*
X42252380Y-20433333D01*
X42347619Y-20385714D01*
X42490476Y-20385714D01*
X42585714Y-20433333D01*
X42633333Y-20480952D01*
X42680952Y-20576190D01*
X42680952Y-20861904D01*
X42633333Y-20957142D01*
X42585714Y-21004761D01*
X42490476Y-21052380D01*
X42347619Y-21052380D01*
X43538095Y-21004761D02*
X43442857Y-21052380D01*
X43252380Y-21052380D01*
X43157142Y-21004761D01*
X43109523Y-20957142D01*
X43061904Y-20861904D01*
X43061904Y-20576190D01*
X43109523Y-20480952D01*
X43157142Y-20433333D01*
X43252380Y-20385714D01*
X43442857Y-20385714D01*
X43538095Y-20433333D01*
X44395238Y-21052380D02*
X44395238Y-20528571D01*
X44347619Y-20433333D01*
X44252380Y-20385714D01*
X44061904Y-20385714D01*
X43966666Y-20433333D01*
X44395238Y-21004761D02*
X44299999Y-21052380D01*
X44061904Y-21052380D01*
X43966666Y-21004761D01*
X43919047Y-20909523D01*
X43919047Y-20814285D01*
X43966666Y-20719047D01*
X44061904Y-20671428D01*
X44299999Y-20671428D01*
X44395238Y-20623809D01*
X44728571Y-20385714D02*
X45109523Y-20385714D01*
X44871428Y-20052380D02*
X44871428Y-20909523D01*
X44919047Y-21004761D01*
X45014285Y-21052380D01*
X45109523Y-21052380D01*
X45585714Y-21052380D02*
X45490476Y-21004761D01*
X45442857Y-20957142D01*
X45395238Y-20861904D01*
X45395238Y-20576190D01*
X45442857Y-20480952D01*
X45490476Y-20433333D01*
X45585714Y-20385714D01*
X45728571Y-20385714D01*
X45823809Y-20433333D01*
X45871428Y-20480952D01*
X45919047Y-20576190D01*
X45919047Y-20861904D01*
X45871428Y-20957142D01*
X45823809Y-21004761D01*
X45728571Y-21052380D01*
X45585714Y-21052380D01*
X46347619Y-21052380D02*
X46347619Y-20385714D01*
X46347619Y-20576190D02*
X46395238Y-20480952D01*
X46442857Y-20433333D01*
X46538095Y-20385714D01*
X46633333Y-20385714D01*
X5795238Y-38202380D02*
X5795238Y-37202380D01*
X6176190Y-37202380D01*
X6271428Y-37250000D01*
X6319047Y-37297619D01*
X6366666Y-37392857D01*
X6366666Y-37535714D01*
X6319047Y-37630952D01*
X6271428Y-37678571D01*
X6176190Y-37726190D01*
X5795238Y-37726190D01*
X6700000Y-37202380D02*
X6938095Y-38202380D01*
X7128571Y-37488095D01*
X7319047Y-38202380D01*
X7557142Y-37202380D01*
X7938095Y-38202380D02*
X7938095Y-37202380D01*
X8271428Y-37916666D01*
X8604761Y-37202380D01*
X8604761Y-38202380D01*
X3400000Y-38202380D02*
X3400000Y-37202380D01*
X3780952Y-37202380D01*
X3876190Y-37250000D01*
X3923809Y-37297619D01*
X3971428Y-37392857D01*
X3971428Y-37535714D01*
X3923809Y-37630952D01*
X3876190Y-37678571D01*
X3780952Y-37726190D01*
X3400000Y-37726190D01*
X4400000Y-38202380D02*
X4400000Y-37202380D01*
X17013393Y-21952380D02*
X17346726Y-22952380D01*
X17680060Y-21952380D01*
X18537203Y-22952380D02*
X17965774Y-22952380D01*
X18251488Y-22952380D02*
X18251488Y-21952380D01*
X18156250Y-22095238D01*
X18061012Y-22190476D01*
X17965774Y-22238095D01*
X18965774Y-22857142D02*
X19013393Y-22904761D01*
X18965774Y-22952380D01*
X18918155Y-22904761D01*
X18965774Y-22857142D01*
X18965774Y-22952380D01*
X19632441Y-21952380D02*
X19727679Y-21952380D01*
X19822917Y-22000000D01*
X19870536Y-22047619D01*
X19918155Y-22142857D01*
X19965774Y-22333333D01*
X19965774Y-22571428D01*
X19918155Y-22761904D01*
X19870536Y-22857142D01*
X19822917Y-22904761D01*
X19727679Y-22952380D01*
X19632441Y-22952380D01*
X19537203Y-22904761D01*
X19489583Y-22857142D01*
X19441964Y-22761904D01*
X19394345Y-22571428D01*
X19394345Y-22333333D01*
X19441964Y-22142857D01*
X19489583Y-22047619D01*
X19537203Y-22000000D01*
X19632441Y-21952380D01*
D12*
X36589285Y-11439285D02*
X36589285Y-10689285D01*
X36767857Y-10689285D01*
X36875000Y-10725000D01*
X36946428Y-10796428D01*
X36982142Y-10867857D01*
X37017857Y-11010714D01*
X37017857Y-11117857D01*
X36982142Y-11260714D01*
X36946428Y-11332142D01*
X36875000Y-11403571D01*
X36767857Y-11439285D01*
X36589285Y-11439285D01*
X37303571Y-10760714D02*
X37339285Y-10725000D01*
X37410714Y-10689285D01*
X37589285Y-10689285D01*
X37660714Y-10725000D01*
X37696428Y-10760714D01*
X37732142Y-10832142D01*
X37732142Y-10903571D01*
X37696428Y-11010714D01*
X37267857Y-11439285D01*
X37732142Y-11439285D01*
X38160714Y-11010714D02*
X38089285Y-10975000D01*
X38053571Y-10939285D01*
X38017857Y-10867857D01*
X38017857Y-10832142D01*
X38053571Y-10760714D01*
X38089285Y-10725000D01*
X38160714Y-10689285D01*
X38303571Y-10689285D01*
X38375000Y-10725000D01*
X38410714Y-10760714D01*
X38446428Y-10832142D01*
X38446428Y-10867857D01*
X38410714Y-10939285D01*
X38375000Y-10975000D01*
X38303571Y-11010714D01*
X38160714Y-11010714D01*
X38089285Y-11046428D01*
X38053571Y-11082142D01*
X38017857Y-11153571D01*
X38017857Y-11296428D01*
X38053571Y-11367857D01*
X38089285Y-11403571D01*
X38160714Y-11439285D01*
X38303571Y-11439285D01*
X38375000Y-11403571D01*
X38410714Y-11367857D01*
X38446428Y-11296428D01*
X38446428Y-11153571D01*
X38410714Y-11082142D01*
X38375000Y-11046428D01*
X38303571Y-11010714D01*
X57325000Y-47339285D02*
X57075000Y-46982142D01*
X56896428Y-47339285D02*
X56896428Y-46589285D01*
X57182142Y-46589285D01*
X57253571Y-46625000D01*
X57289285Y-46660714D01*
X57325000Y-46732142D01*
X57325000Y-46839285D01*
X57289285Y-46910714D01*
X57253571Y-46946428D01*
X57182142Y-46982142D01*
X56896428Y-46982142D01*
X58039285Y-47339285D02*
X57610714Y-47339285D01*
X57825000Y-47339285D02*
X57825000Y-46589285D01*
X57753571Y-46696428D01*
X57682142Y-46767857D01*
X57610714Y-46803571D01*
X9246428Y-55339285D02*
X9246428Y-54589285D01*
X9425000Y-54589285D01*
X9532142Y-54625000D01*
X9603571Y-54696428D01*
X9639285Y-54767857D01*
X9675000Y-54910714D01*
X9675000Y-55017857D01*
X9639285Y-55160714D01*
X9603571Y-55232142D01*
X9532142Y-55303571D01*
X9425000Y-55339285D01*
X9246428Y-55339285D01*
X10317857Y-54839285D02*
X10317857Y-55339285D01*
X10139285Y-54553571D02*
X9960714Y-55089285D01*
X10425000Y-55089285D01*
X56896428Y-48389285D02*
X56896428Y-47639285D01*
X57075000Y-47639285D01*
X57182142Y-47675000D01*
X57253571Y-47746428D01*
X57289285Y-47817857D01*
X57325000Y-47960714D01*
X57325000Y-48067857D01*
X57289285Y-48210714D01*
X57253571Y-48282142D01*
X57182142Y-48353571D01*
X57075000Y-48389285D01*
X56896428Y-48389285D01*
X58039285Y-48389285D02*
X57610714Y-48389285D01*
X57825000Y-48389285D02*
X57825000Y-47639285D01*
X57753571Y-47746428D01*
X57682142Y-47817857D01*
X57610714Y-47853571D01*
X34339285Y-32982142D02*
X33982142Y-33232142D01*
X34339285Y-33410714D02*
X33589285Y-33410714D01*
X33589285Y-33125000D01*
X33625000Y-33053571D01*
X33660714Y-33017857D01*
X33732142Y-32982142D01*
X33839285Y-32982142D01*
X33910714Y-33017857D01*
X33946428Y-33053571D01*
X33982142Y-33125000D01*
X33982142Y-33410714D01*
X33660714Y-32696428D02*
X33625000Y-32660714D01*
X33589285Y-32589285D01*
X33589285Y-32410714D01*
X33625000Y-32339285D01*
X33660714Y-32303571D01*
X33732142Y-32267857D01*
X33803571Y-32267857D01*
X33910714Y-32303571D01*
X34339285Y-32732142D01*
X34339285Y-32267857D01*
X34339285Y-31553571D02*
X34339285Y-31982142D01*
X34339285Y-31767857D02*
X33589285Y-31767857D01*
X33696428Y-31839285D01*
X33767857Y-31910714D01*
X33803571Y-31982142D01*
X10475000Y-18167857D02*
X10439285Y-18203571D01*
X10332142Y-18239285D01*
X10260714Y-18239285D01*
X10153571Y-18203571D01*
X10082142Y-18132142D01*
X10046428Y-18060714D01*
X10010714Y-17917857D01*
X10010714Y-17810714D01*
X10046428Y-17667857D01*
X10082142Y-17596428D01*
X10153571Y-17525000D01*
X10260714Y-17489285D01*
X10332142Y-17489285D01*
X10439285Y-17525000D01*
X10475000Y-17560714D01*
X10832142Y-18239285D02*
X10975000Y-18239285D01*
X11046428Y-18203571D01*
X11082142Y-18167857D01*
X11153571Y-18060714D01*
X11189285Y-17917857D01*
X11189285Y-17632142D01*
X11153571Y-17560714D01*
X11117857Y-17525000D01*
X11046428Y-17489285D01*
X10903571Y-17489285D01*
X10832142Y-17525000D01*
X10796428Y-17560714D01*
X10760714Y-17632142D01*
X10760714Y-17810714D01*
X10796428Y-17882142D01*
X10832142Y-17917857D01*
X10903571Y-17953571D01*
X11046428Y-17953571D01*
X11117857Y-17917857D01*
X11153571Y-17882142D01*
X11189285Y-17810714D01*
X1775000Y-8839285D02*
X1417857Y-8839285D01*
X1417857Y-8089285D01*
X2417857Y-8839285D02*
X1989285Y-8839285D01*
X2203571Y-8839285D02*
X2203571Y-8089285D01*
X2132142Y-8196428D01*
X2060714Y-8267857D01*
X1989285Y-8303571D01*
X36517857Y-15089285D02*
X36267857Y-14732142D01*
X36089285Y-15089285D02*
X36089285Y-14339285D01*
X36375000Y-14339285D01*
X36446428Y-14375000D01*
X36482142Y-14410714D01*
X36517857Y-14482142D01*
X36517857Y-14589285D01*
X36482142Y-14660714D01*
X36446428Y-14696428D01*
X36375000Y-14732142D01*
X36089285Y-14732142D01*
X36803571Y-14410714D02*
X36839285Y-14375000D01*
X36910714Y-14339285D01*
X37089285Y-14339285D01*
X37160714Y-14375000D01*
X37196428Y-14410714D01*
X37232142Y-14482142D01*
X37232142Y-14553571D01*
X37196428Y-14660714D01*
X36767857Y-15089285D01*
X37232142Y-15089285D01*
X37696428Y-14339285D02*
X37767857Y-14339285D01*
X37839285Y-14375000D01*
X37875000Y-14410714D01*
X37910714Y-14482142D01*
X37946428Y-14625000D01*
X37946428Y-14803571D01*
X37910714Y-14946428D01*
X37875000Y-15017857D01*
X37839285Y-15053571D01*
X37767857Y-15089285D01*
X37696428Y-15089285D01*
X37625000Y-15053571D01*
X37589285Y-15017857D01*
X37553571Y-14946428D01*
X37517857Y-14803571D01*
X37517857Y-14625000D01*
X37553571Y-14482142D01*
X37589285Y-14410714D01*
X37625000Y-14375000D01*
X37696428Y-14339285D01*
X46839285Y-30507142D02*
X46482142Y-30757142D01*
X46839285Y-30935714D02*
X46089285Y-30935714D01*
X46089285Y-30650000D01*
X46125000Y-30578571D01*
X46160714Y-30542857D01*
X46232142Y-30507142D01*
X46339285Y-30507142D01*
X46410714Y-30542857D01*
X46446428Y-30578571D01*
X46482142Y-30650000D01*
X46482142Y-30935714D01*
X46839285Y-29792857D02*
X46839285Y-30221428D01*
X46839285Y-30007142D02*
X46089285Y-30007142D01*
X46196428Y-30078571D01*
X46267857Y-30150000D01*
X46303571Y-30221428D01*
X46160714Y-29507142D02*
X46125000Y-29471428D01*
X46089285Y-29400000D01*
X46089285Y-29221428D01*
X46125000Y-29150000D01*
X46160714Y-29114285D01*
X46232142Y-29078571D01*
X46303571Y-29078571D01*
X46410714Y-29114285D01*
X46839285Y-29542857D01*
X46839285Y-29078571D01*
X17125000Y-30339285D02*
X16875000Y-29982142D01*
X16696428Y-30339285D02*
X16696428Y-29589285D01*
X16982142Y-29589285D01*
X17053571Y-29625000D01*
X17089285Y-29660714D01*
X17125000Y-29732142D01*
X17125000Y-29839285D01*
X17089285Y-29910714D01*
X17053571Y-29946428D01*
X16982142Y-29982142D01*
X16696428Y-29982142D01*
X17482142Y-30339285D02*
X17625000Y-30339285D01*
X17696428Y-30303571D01*
X17732142Y-30267857D01*
X17803571Y-30160714D01*
X17839285Y-30017857D01*
X17839285Y-29732142D01*
X17803571Y-29660714D01*
X17767857Y-29625000D01*
X17696428Y-29589285D01*
X17553571Y-29589285D01*
X17482142Y-29625000D01*
X17446428Y-29660714D01*
X17410714Y-29732142D01*
X17410714Y-29910714D01*
X17446428Y-29982142D01*
X17482142Y-30017857D01*
X17553571Y-30053571D01*
X17696428Y-30053571D01*
X17767857Y-30017857D01*
X17803571Y-29982142D01*
X17839285Y-29910714D01*
X56246428Y-38589285D02*
X56246428Y-37839285D01*
X56425000Y-37839285D01*
X56532142Y-37875000D01*
X56603571Y-37946428D01*
X56639285Y-38017857D01*
X56675000Y-38160714D01*
X56675000Y-38267857D01*
X56639285Y-38410714D01*
X56603571Y-38482142D01*
X56532142Y-38553571D01*
X56425000Y-38589285D01*
X56246428Y-38589285D01*
X57353571Y-37839285D02*
X56996428Y-37839285D01*
X56960714Y-38196428D01*
X56996428Y-38160714D01*
X57067857Y-38125000D01*
X57246428Y-38125000D01*
X57317857Y-38160714D01*
X57353571Y-38196428D01*
X57389285Y-38267857D01*
X57389285Y-38446428D01*
X57353571Y-38517857D01*
X57317857Y-38553571D01*
X57246428Y-38589285D01*
X57067857Y-38589285D01*
X56996428Y-38553571D01*
X56960714Y-38517857D01*
X14428571Y-31410714D02*
X14357142Y-31375000D01*
X14285714Y-31303571D01*
X14178571Y-31196428D01*
X14107142Y-31160714D01*
X14035714Y-31160714D01*
X14071428Y-31339285D02*
X14000000Y-31303571D01*
X13928571Y-31232142D01*
X13892857Y-31089285D01*
X13892857Y-30839285D01*
X13928571Y-30696428D01*
X14000000Y-30625000D01*
X14071428Y-30589285D01*
X14214285Y-30589285D01*
X14285714Y-30625000D01*
X14357142Y-30696428D01*
X14392857Y-30839285D01*
X14392857Y-31089285D01*
X14357142Y-31232142D01*
X14285714Y-31303571D01*
X14214285Y-31339285D01*
X14071428Y-31339285D01*
X15035714Y-30839285D02*
X15035714Y-31339285D01*
X14857142Y-30553571D02*
X14678571Y-31089285D01*
X15142857Y-31089285D01*
X22889285Y-48689285D02*
X22889285Y-47939285D01*
X23067857Y-47939285D01*
X23175000Y-47975000D01*
X23246428Y-48046428D01*
X23282142Y-48117857D01*
X23317857Y-48260714D01*
X23317857Y-48367857D01*
X23282142Y-48510714D01*
X23246428Y-48582142D01*
X23175000Y-48653571D01*
X23067857Y-48689285D01*
X22889285Y-48689285D01*
X24032142Y-48689285D02*
X23603571Y-48689285D01*
X23817857Y-48689285D02*
X23817857Y-47939285D01*
X23746428Y-48046428D01*
X23675000Y-48117857D01*
X23603571Y-48153571D01*
X24389285Y-48689285D02*
X24532142Y-48689285D01*
X24603571Y-48653571D01*
X24639285Y-48617857D01*
X24710714Y-48510714D01*
X24746428Y-48367857D01*
X24746428Y-48082142D01*
X24710714Y-48010714D01*
X24675000Y-47975000D01*
X24603571Y-47939285D01*
X24460714Y-47939285D01*
X24389285Y-47975000D01*
X24353571Y-48010714D01*
X24317857Y-48082142D01*
X24317857Y-48260714D01*
X24353571Y-48332142D01*
X24389285Y-48367857D01*
X24460714Y-48403571D01*
X24603571Y-48403571D01*
X24675000Y-48367857D01*
X24710714Y-48332142D01*
X24746428Y-48260714D01*
X26678571Y-34160714D02*
X26607142Y-34125000D01*
X26535714Y-34053571D01*
X26428571Y-33946428D01*
X26357142Y-33910714D01*
X26285714Y-33910714D01*
X26321428Y-34089285D02*
X26250000Y-34053571D01*
X26178571Y-33982142D01*
X26142857Y-33839285D01*
X26142857Y-33589285D01*
X26178571Y-33446428D01*
X26250000Y-33375000D01*
X26321428Y-33339285D01*
X26464285Y-33339285D01*
X26535714Y-33375000D01*
X26607142Y-33446428D01*
X26642857Y-33589285D01*
X26642857Y-33839285D01*
X26607142Y-33982142D01*
X26535714Y-34053571D01*
X26464285Y-34089285D01*
X26321428Y-34089285D01*
X27071428Y-33660714D02*
X27000000Y-33625000D01*
X26964285Y-33589285D01*
X26928571Y-33517857D01*
X26928571Y-33482142D01*
X26964285Y-33410714D01*
X27000000Y-33375000D01*
X27071428Y-33339285D01*
X27214285Y-33339285D01*
X27285714Y-33375000D01*
X27321428Y-33410714D01*
X27357142Y-33482142D01*
X27357142Y-33517857D01*
X27321428Y-33589285D01*
X27285714Y-33625000D01*
X27214285Y-33660714D01*
X27071428Y-33660714D01*
X27000000Y-33696428D01*
X26964285Y-33732142D01*
X26928571Y-33803571D01*
X26928571Y-33946428D01*
X26964285Y-34017857D01*
X27000000Y-34053571D01*
X27071428Y-34089285D01*
X27214285Y-34089285D01*
X27285714Y-34053571D01*
X27321428Y-34017857D01*
X27357142Y-33946428D01*
X27357142Y-33803571D01*
X27321428Y-33732142D01*
X27285714Y-33696428D01*
X27214285Y-33660714D01*
X36817857Y-30839285D02*
X36567857Y-30482142D01*
X36389285Y-30839285D02*
X36389285Y-30089285D01*
X36675000Y-30089285D01*
X36746428Y-30125000D01*
X36782142Y-30160714D01*
X36817857Y-30232142D01*
X36817857Y-30339285D01*
X36782142Y-30410714D01*
X36746428Y-30446428D01*
X36675000Y-30482142D01*
X36389285Y-30482142D01*
X37532142Y-30839285D02*
X37103571Y-30839285D01*
X37317857Y-30839285D02*
X37317857Y-30089285D01*
X37246428Y-30196428D01*
X37175000Y-30267857D01*
X37103571Y-30303571D01*
X37996428Y-30089285D02*
X38067857Y-30089285D01*
X38139285Y-30125000D01*
X38175000Y-30160714D01*
X38210714Y-30232142D01*
X38246428Y-30375000D01*
X38246428Y-30553571D01*
X38210714Y-30696428D01*
X38175000Y-30767857D01*
X38139285Y-30803571D01*
X38067857Y-30839285D01*
X37996428Y-30839285D01*
X37925000Y-30803571D01*
X37889285Y-30767857D01*
X37853571Y-30696428D01*
X37817857Y-30553571D01*
X37817857Y-30375000D01*
X37853571Y-30232142D01*
X37889285Y-30160714D01*
X37925000Y-30125000D01*
X37996428Y-30089285D01*
X56117857Y-22139285D02*
X55867857Y-21782142D01*
X55689285Y-22139285D02*
X55689285Y-21389285D01*
X55975000Y-21389285D01*
X56046428Y-21425000D01*
X56082142Y-21460714D01*
X56117857Y-21532142D01*
X56117857Y-21639285D01*
X56082142Y-21710714D01*
X56046428Y-21746428D01*
X55975000Y-21782142D01*
X55689285Y-21782142D01*
X56832142Y-22139285D02*
X56403571Y-22139285D01*
X56617857Y-22139285D02*
X56617857Y-21389285D01*
X56546428Y-21496428D01*
X56475000Y-21567857D01*
X56403571Y-21603571D01*
X57475000Y-21389285D02*
X57332142Y-21389285D01*
X57260714Y-21425000D01*
X57225000Y-21460714D01*
X57153571Y-21567857D01*
X57117857Y-21710714D01*
X57117857Y-21996428D01*
X57153571Y-22067857D01*
X57189285Y-22103571D01*
X57260714Y-22139285D01*
X57403571Y-22139285D01*
X57475000Y-22103571D01*
X57510714Y-22067857D01*
X57546428Y-21996428D01*
X57546428Y-21817857D01*
X57510714Y-21746428D01*
X57475000Y-21710714D01*
X57403571Y-21675000D01*
X57260714Y-21675000D01*
X57189285Y-21710714D01*
X57153571Y-21746428D01*
X57117857Y-21817857D01*
X45617857Y-23017857D02*
X45582142Y-23053571D01*
X45475000Y-23089285D01*
X45403571Y-23089285D01*
X45296428Y-23053571D01*
X45225000Y-22982142D01*
X45189285Y-22910714D01*
X45153571Y-22767857D01*
X45153571Y-22660714D01*
X45189285Y-22517857D01*
X45225000Y-22446428D01*
X45296428Y-22375000D01*
X45403571Y-22339285D01*
X45475000Y-22339285D01*
X45582142Y-22375000D01*
X45617857Y-22410714D01*
X46332142Y-23089285D02*
X45903571Y-23089285D01*
X46117857Y-23089285D02*
X46117857Y-22339285D01*
X46046428Y-22446428D01*
X45975000Y-22517857D01*
X45903571Y-22553571D01*
X46617857Y-22410714D02*
X46653571Y-22375000D01*
X46725000Y-22339285D01*
X46903571Y-22339285D01*
X46975000Y-22375000D01*
X47010714Y-22410714D01*
X47046428Y-22482142D01*
X47046428Y-22553571D01*
X47010714Y-22660714D01*
X46582142Y-23089285D01*
X47046428Y-23089285D01*
X14928571Y-10889285D02*
X14928571Y-11496428D01*
X14964285Y-11567857D01*
X15000000Y-11603571D01*
X15071428Y-11639285D01*
X15214285Y-11639285D01*
X15285714Y-11603571D01*
X15321428Y-11567857D01*
X15357142Y-11496428D01*
X15357142Y-10889285D01*
X16107142Y-11639285D02*
X15678571Y-11639285D01*
X15892857Y-11639285D02*
X15892857Y-10889285D01*
X15821428Y-10996428D01*
X15750000Y-11067857D01*
X15678571Y-11103571D01*
X32517857Y-38589285D02*
X32267857Y-38232142D01*
X32089285Y-38589285D02*
X32089285Y-37839285D01*
X32375000Y-37839285D01*
X32446428Y-37875000D01*
X32482142Y-37910714D01*
X32517857Y-37982142D01*
X32517857Y-38089285D01*
X32482142Y-38160714D01*
X32446428Y-38196428D01*
X32375000Y-38232142D01*
X32089285Y-38232142D01*
X33232142Y-38589285D02*
X32803571Y-38589285D01*
X33017857Y-38589285D02*
X33017857Y-37839285D01*
X32946428Y-37946428D01*
X32875000Y-38017857D01*
X32803571Y-38053571D01*
X33482142Y-37839285D02*
X33946428Y-37839285D01*
X33696428Y-38125000D01*
X33803571Y-38125000D01*
X33875000Y-38160714D01*
X33910714Y-38196428D01*
X33946428Y-38267857D01*
X33946428Y-38446428D01*
X33910714Y-38517857D01*
X33875000Y-38553571D01*
X33803571Y-38589285D01*
X33589285Y-38589285D01*
X33517857Y-38553571D01*
X33482142Y-38517857D01*
X29617857Y-31439285D02*
X29367857Y-31082142D01*
X29189285Y-31439285D02*
X29189285Y-30689285D01*
X29475000Y-30689285D01*
X29546428Y-30725000D01*
X29582142Y-30760714D01*
X29617857Y-30832142D01*
X29617857Y-30939285D01*
X29582142Y-31010714D01*
X29546428Y-31046428D01*
X29475000Y-31082142D01*
X29189285Y-31082142D01*
X30332142Y-31439285D02*
X29903571Y-31439285D01*
X30117857Y-31439285D02*
X30117857Y-30689285D01*
X30046428Y-30796428D01*
X29975000Y-30867857D01*
X29903571Y-30903571D01*
X30689285Y-31439285D02*
X30832142Y-31439285D01*
X30903571Y-31403571D01*
X30939285Y-31367857D01*
X31010714Y-31260714D01*
X31046428Y-31117857D01*
X31046428Y-30832142D01*
X31010714Y-30760714D01*
X30975000Y-30725000D01*
X30903571Y-30689285D01*
X30760714Y-30689285D01*
X30689285Y-30725000D01*
X30653571Y-30760714D01*
X30617857Y-30832142D01*
X30617857Y-31010714D01*
X30653571Y-31082142D01*
X30689285Y-31117857D01*
X30760714Y-31153571D01*
X30903571Y-31153571D01*
X30975000Y-31117857D01*
X31010714Y-31082142D01*
X31046428Y-31010714D01*
X55689285Y-23139285D02*
X55689285Y-22389285D01*
X55867857Y-22389285D01*
X55975000Y-22425000D01*
X56046428Y-22496428D01*
X56082142Y-22567857D01*
X56117857Y-22710714D01*
X56117857Y-22817857D01*
X56082142Y-22960714D01*
X56046428Y-23032142D01*
X55975000Y-23103571D01*
X55867857Y-23139285D01*
X55689285Y-23139285D01*
X56403571Y-22460714D02*
X56439285Y-22425000D01*
X56510714Y-22389285D01*
X56689285Y-22389285D01*
X56760714Y-22425000D01*
X56796428Y-22460714D01*
X56832142Y-22532142D01*
X56832142Y-22603571D01*
X56796428Y-22710714D01*
X56367857Y-23139285D01*
X56832142Y-23139285D01*
X57296428Y-22389285D02*
X57367857Y-22389285D01*
X57439285Y-22425000D01*
X57475000Y-22460714D01*
X57510714Y-22532142D01*
X57546428Y-22675000D01*
X57546428Y-22853571D01*
X57510714Y-22996428D01*
X57475000Y-23067857D01*
X57439285Y-23103571D01*
X57367857Y-23139285D01*
X57296428Y-23139285D01*
X57225000Y-23103571D01*
X57189285Y-23067857D01*
X57153571Y-22996428D01*
X57117857Y-22853571D01*
X57117857Y-22675000D01*
X57153571Y-22532142D01*
X57189285Y-22460714D01*
X57225000Y-22425000D01*
X57296428Y-22389285D01*
X50696428Y-37839285D02*
X50696428Y-37089285D01*
X50875000Y-37089285D01*
X50982142Y-37125000D01*
X51053571Y-37196428D01*
X51089285Y-37267857D01*
X51125000Y-37410714D01*
X51125000Y-37517857D01*
X51089285Y-37660714D01*
X51053571Y-37732142D01*
X50982142Y-37803571D01*
X50875000Y-37839285D01*
X50696428Y-37839285D01*
X51767857Y-37089285D02*
X51625000Y-37089285D01*
X51553571Y-37125000D01*
X51517857Y-37160714D01*
X51446428Y-37267857D01*
X51410714Y-37410714D01*
X51410714Y-37696428D01*
X51446428Y-37767857D01*
X51482142Y-37803571D01*
X51553571Y-37839285D01*
X51696428Y-37839285D01*
X51767857Y-37803571D01*
X51803571Y-37767857D01*
X51839285Y-37696428D01*
X51839285Y-37517857D01*
X51803571Y-37446428D01*
X51767857Y-37410714D01*
X51696428Y-37375000D01*
X51553571Y-37375000D01*
X51482142Y-37410714D01*
X51446428Y-37446428D01*
X51410714Y-37517857D01*
X38928571Y-17910714D02*
X38857142Y-17875000D01*
X38785714Y-17803571D01*
X38678571Y-17696428D01*
X38607142Y-17660714D01*
X38535714Y-17660714D01*
X38571428Y-17839285D02*
X38500000Y-17803571D01*
X38428571Y-17732142D01*
X38392857Y-17589285D01*
X38392857Y-17339285D01*
X38428571Y-17196428D01*
X38500000Y-17125000D01*
X38571428Y-17089285D01*
X38714285Y-17089285D01*
X38785714Y-17125000D01*
X38857142Y-17196428D01*
X38892857Y-17339285D01*
X38892857Y-17589285D01*
X38857142Y-17732142D01*
X38785714Y-17803571D01*
X38714285Y-17839285D01*
X38571428Y-17839285D01*
X39250000Y-17839285D02*
X39392857Y-17839285D01*
X39464285Y-17803571D01*
X39500000Y-17767857D01*
X39571428Y-17660714D01*
X39607142Y-17517857D01*
X39607142Y-17232142D01*
X39571428Y-17160714D01*
X39535714Y-17125000D01*
X39464285Y-17089285D01*
X39321428Y-17089285D01*
X39250000Y-17125000D01*
X39214285Y-17160714D01*
X39178571Y-17232142D01*
X39178571Y-17410714D01*
X39214285Y-17482142D01*
X39250000Y-17517857D01*
X39321428Y-17553571D01*
X39464285Y-17553571D01*
X39535714Y-17517857D01*
X39571428Y-17482142D01*
X39607142Y-17410714D01*
X13050000Y-9792857D02*
X13014285Y-9828571D01*
X12907142Y-9864285D01*
X12835714Y-9864285D01*
X12728571Y-9828571D01*
X12657142Y-9757142D01*
X12621428Y-9685714D01*
X12585714Y-9542857D01*
X12585714Y-9435714D01*
X12621428Y-9292857D01*
X12657142Y-9221428D01*
X12728571Y-9150000D01*
X12835714Y-9114285D01*
X12907142Y-9114285D01*
X13014285Y-9150000D01*
X13050000Y-9185714D01*
X13692857Y-9114285D02*
X13550000Y-9114285D01*
X13478571Y-9150000D01*
X13442857Y-9185714D01*
X13371428Y-9292857D01*
X13335714Y-9435714D01*
X13335714Y-9721428D01*
X13371428Y-9792857D01*
X13407142Y-9828571D01*
X13478571Y-9864285D01*
X13621428Y-9864285D01*
X13692857Y-9828571D01*
X13728571Y-9792857D01*
X13764285Y-9721428D01*
X13764285Y-9542857D01*
X13728571Y-9471428D01*
X13692857Y-9435714D01*
X13621428Y-9400000D01*
X13478571Y-9400000D01*
X13407142Y-9435714D01*
X13371428Y-9471428D01*
X13335714Y-9542857D01*
X39125000Y-44017857D02*
X39089285Y-44053571D01*
X38982142Y-44089285D01*
X38910714Y-44089285D01*
X38803571Y-44053571D01*
X38732142Y-43982142D01*
X38696428Y-43910714D01*
X38660714Y-43767857D01*
X38660714Y-43660714D01*
X38696428Y-43517857D01*
X38732142Y-43446428D01*
X38803571Y-43375000D01*
X38910714Y-43339285D01*
X38982142Y-43339285D01*
X39089285Y-43375000D01*
X39125000Y-43410714D01*
X39839285Y-44089285D02*
X39410714Y-44089285D01*
X39625000Y-44089285D02*
X39625000Y-43339285D01*
X39553571Y-43446428D01*
X39482142Y-43517857D01*
X39410714Y-43553571D01*
X39589285Y-24439285D02*
X39589285Y-23689285D01*
X39767857Y-23689285D01*
X39875000Y-23725000D01*
X39946428Y-23796428D01*
X39982142Y-23867857D01*
X40017857Y-24010714D01*
X40017857Y-24117857D01*
X39982142Y-24260714D01*
X39946428Y-24332142D01*
X39875000Y-24403571D01*
X39767857Y-24439285D01*
X39589285Y-24439285D01*
X40732142Y-24439285D02*
X40303571Y-24439285D01*
X40517857Y-24439285D02*
X40517857Y-23689285D01*
X40446428Y-23796428D01*
X40375000Y-23867857D01*
X40303571Y-23903571D01*
X41410714Y-23689285D02*
X41053571Y-23689285D01*
X41017857Y-24046428D01*
X41053571Y-24010714D01*
X41125000Y-23975000D01*
X41303571Y-23975000D01*
X41375000Y-24010714D01*
X41410714Y-24046428D01*
X41446428Y-24117857D01*
X41446428Y-24296428D01*
X41410714Y-24367857D01*
X41375000Y-24403571D01*
X41303571Y-24439285D01*
X41125000Y-24439285D01*
X41053571Y-24403571D01*
X41017857Y-24367857D01*
X38489285Y-36439285D02*
X38489285Y-35689285D01*
X38667857Y-35689285D01*
X38775000Y-35725000D01*
X38846428Y-35796428D01*
X38882142Y-35867857D01*
X38917857Y-36010714D01*
X38917857Y-36117857D01*
X38882142Y-36260714D01*
X38846428Y-36332142D01*
X38775000Y-36403571D01*
X38667857Y-36439285D01*
X38489285Y-36439285D01*
X39203571Y-35760714D02*
X39239285Y-35725000D01*
X39310714Y-35689285D01*
X39489285Y-35689285D01*
X39560714Y-35725000D01*
X39596428Y-35760714D01*
X39632142Y-35832142D01*
X39632142Y-35903571D01*
X39596428Y-36010714D01*
X39167857Y-36439285D01*
X39632142Y-36439285D01*
X39882142Y-35689285D02*
X40382142Y-35689285D01*
X40060714Y-36439285D01*
X39178571Y-33910714D02*
X39107142Y-33875000D01*
X39035714Y-33803571D01*
X38928571Y-33696428D01*
X38857142Y-33660714D01*
X38785714Y-33660714D01*
X38821428Y-33839285D02*
X38750000Y-33803571D01*
X38678571Y-33732142D01*
X38642857Y-33589285D01*
X38642857Y-33339285D01*
X38678571Y-33196428D01*
X38750000Y-33125000D01*
X38821428Y-33089285D01*
X38964285Y-33089285D01*
X39035714Y-33125000D01*
X39107142Y-33196428D01*
X39142857Y-33339285D01*
X39142857Y-33589285D01*
X39107142Y-33732142D01*
X39035714Y-33803571D01*
X38964285Y-33839285D01*
X38821428Y-33839285D01*
X39821428Y-33089285D02*
X39464285Y-33089285D01*
X39428571Y-33446428D01*
X39464285Y-33410714D01*
X39535714Y-33375000D01*
X39714285Y-33375000D01*
X39785714Y-33410714D01*
X39821428Y-33446428D01*
X39857142Y-33517857D01*
X39857142Y-33696428D01*
X39821428Y-33767857D01*
X39785714Y-33803571D01*
X39714285Y-33839285D01*
X39535714Y-33839285D01*
X39464285Y-33803571D01*
X39428571Y-33767857D01*
X23302857Y-47589285D02*
X23052857Y-47232142D01*
X22874285Y-47589285D02*
X22874285Y-46839285D01*
X23160000Y-46839285D01*
X23231428Y-46875000D01*
X23267142Y-46910714D01*
X23302857Y-46982142D01*
X23302857Y-47089285D01*
X23267142Y-47160714D01*
X23231428Y-47196428D01*
X23160000Y-47232142D01*
X22874285Y-47232142D01*
X24017142Y-47589285D02*
X23588571Y-47589285D01*
X23802857Y-47589285D02*
X23802857Y-46839285D01*
X23731428Y-46946428D01*
X23660000Y-47017857D01*
X23588571Y-47053571D01*
X24695714Y-46839285D02*
X24338571Y-46839285D01*
X24302857Y-47196428D01*
X24338571Y-47160714D01*
X24410000Y-47125000D01*
X24588571Y-47125000D01*
X24660000Y-47160714D01*
X24695714Y-47196428D01*
X24731428Y-47267857D01*
X24731428Y-47446428D01*
X24695714Y-47517857D01*
X24660000Y-47553571D01*
X24588571Y-47589285D01*
X24410000Y-47589285D01*
X24338571Y-47553571D01*
X24302857Y-47517857D01*
X46939285Y-14857142D02*
X46582142Y-15107142D01*
X46939285Y-15285714D02*
X46189285Y-15285714D01*
X46189285Y-15000000D01*
X46225000Y-14928571D01*
X46260714Y-14892857D01*
X46332142Y-14857142D01*
X46439285Y-14857142D01*
X46510714Y-14892857D01*
X46546428Y-14928571D01*
X46582142Y-15000000D01*
X46582142Y-15285714D01*
X46939285Y-14142857D02*
X46939285Y-14571428D01*
X46939285Y-14357142D02*
X46189285Y-14357142D01*
X46296428Y-14428571D01*
X46367857Y-14500000D01*
X46403571Y-14571428D01*
X46439285Y-13500000D02*
X46939285Y-13500000D01*
X46153571Y-13678571D02*
X46689285Y-13857142D01*
X46689285Y-13392857D01*
X19089285Y-32982142D02*
X18732142Y-33232142D01*
X19089285Y-33410714D02*
X18339285Y-33410714D01*
X18339285Y-33125000D01*
X18375000Y-33053571D01*
X18410714Y-33017857D01*
X18482142Y-32982142D01*
X18589285Y-32982142D01*
X18660714Y-33017857D01*
X18696428Y-33053571D01*
X18732142Y-33125000D01*
X18732142Y-33410714D01*
X19089285Y-32267857D02*
X19089285Y-32696428D01*
X19089285Y-32482142D02*
X18339285Y-32482142D01*
X18446428Y-32553571D01*
X18517857Y-32625000D01*
X18553571Y-32696428D01*
X19089285Y-31553571D02*
X19089285Y-31982142D01*
X19089285Y-31767857D02*
X18339285Y-31767857D01*
X18446428Y-31839285D01*
X18517857Y-31910714D01*
X18553571Y-31982142D01*
X29017857Y-38589285D02*
X28767857Y-38232142D01*
X28589285Y-38589285D02*
X28589285Y-37839285D01*
X28875000Y-37839285D01*
X28946428Y-37875000D01*
X28982142Y-37910714D01*
X29017857Y-37982142D01*
X29017857Y-38089285D01*
X28982142Y-38160714D01*
X28946428Y-38196428D01*
X28875000Y-38232142D01*
X28589285Y-38232142D01*
X29732142Y-38589285D02*
X29303571Y-38589285D01*
X29517857Y-38589285D02*
X29517857Y-37839285D01*
X29446428Y-37946428D01*
X29375000Y-38017857D01*
X29303571Y-38053571D01*
X29982142Y-37839285D02*
X30482142Y-37839285D01*
X30160714Y-38589285D01*
X9575000Y-50489285D02*
X9325000Y-50132142D01*
X9146428Y-50489285D02*
X9146428Y-49739285D01*
X9432142Y-49739285D01*
X9503571Y-49775000D01*
X9539285Y-49810714D01*
X9575000Y-49882142D01*
X9575000Y-49989285D01*
X9539285Y-50060714D01*
X9503571Y-50096428D01*
X9432142Y-50132142D01*
X9146428Y-50132142D01*
X10217857Y-49989285D02*
X10217857Y-50489285D01*
X10039285Y-49703571D02*
X9860714Y-50239285D01*
X10325000Y-50239285D01*
X46839285Y-33575000D02*
X46482142Y-33825000D01*
X46839285Y-34003571D02*
X46089285Y-34003571D01*
X46089285Y-33717857D01*
X46125000Y-33646428D01*
X46160714Y-33610714D01*
X46232142Y-33575000D01*
X46339285Y-33575000D01*
X46410714Y-33610714D01*
X46446428Y-33646428D01*
X46482142Y-33717857D01*
X46482142Y-34003571D01*
X46089285Y-33325000D02*
X46089285Y-32825000D01*
X46839285Y-33146428D01*
X46914285Y-18332142D02*
X46557142Y-18582142D01*
X46914285Y-18760714D02*
X46164285Y-18760714D01*
X46164285Y-18475000D01*
X46200000Y-18403571D01*
X46235714Y-18367857D01*
X46307142Y-18332142D01*
X46414285Y-18332142D01*
X46485714Y-18367857D01*
X46521428Y-18403571D01*
X46557142Y-18475000D01*
X46557142Y-18760714D01*
X46914285Y-17617857D02*
X46914285Y-18046428D01*
X46914285Y-17832142D02*
X46164285Y-17832142D01*
X46271428Y-17903571D01*
X46342857Y-17975000D01*
X46378571Y-18046428D01*
X46485714Y-17189285D02*
X46450000Y-17260714D01*
X46414285Y-17296428D01*
X46342857Y-17332142D01*
X46307142Y-17332142D01*
X46235714Y-17296428D01*
X46200000Y-17260714D01*
X46164285Y-17189285D01*
X46164285Y-17046428D01*
X46200000Y-16975000D01*
X46235714Y-16939285D01*
X46307142Y-16903571D01*
X46342857Y-16903571D01*
X46414285Y-16939285D01*
X46450000Y-16975000D01*
X46485714Y-17046428D01*
X46485714Y-17189285D01*
X46521428Y-17260714D01*
X46557142Y-17296428D01*
X46628571Y-17332142D01*
X46771428Y-17332142D01*
X46842857Y-17296428D01*
X46878571Y-17260714D01*
X46914285Y-17189285D01*
X46914285Y-17046428D01*
X46878571Y-16975000D01*
X46842857Y-16939285D01*
X46771428Y-16903571D01*
X46628571Y-16903571D01*
X46557142Y-16939285D01*
X46521428Y-16975000D01*
X46485714Y-17046428D01*
X56675000Y-37439285D02*
X56425000Y-37082142D01*
X56246428Y-37439285D02*
X56246428Y-36689285D01*
X56532142Y-36689285D01*
X56603571Y-36725000D01*
X56639285Y-36760714D01*
X56675000Y-36832142D01*
X56675000Y-36939285D01*
X56639285Y-37010714D01*
X56603571Y-37046428D01*
X56532142Y-37082142D01*
X56246428Y-37082142D01*
X57353571Y-36689285D02*
X56996428Y-36689285D01*
X56960714Y-37046428D01*
X56996428Y-37010714D01*
X57067857Y-36975000D01*
X57246428Y-36975000D01*
X57317857Y-37010714D01*
X57353571Y-37046428D01*
X57389285Y-37117857D01*
X57389285Y-37296428D01*
X57353571Y-37367857D01*
X57317857Y-37403571D01*
X57246428Y-37439285D01*
X57067857Y-37439285D01*
X56996428Y-37403571D01*
X56960714Y-37367857D01*
X23375000Y-44267857D02*
X23339285Y-44303571D01*
X23232142Y-44339285D01*
X23160714Y-44339285D01*
X23053571Y-44303571D01*
X22982142Y-44232142D01*
X22946428Y-44160714D01*
X22910714Y-44017857D01*
X22910714Y-43910714D01*
X22946428Y-43767857D01*
X22982142Y-43696428D01*
X23053571Y-43625000D01*
X23160714Y-43589285D01*
X23232142Y-43589285D01*
X23339285Y-43625000D01*
X23375000Y-43660714D01*
X23625000Y-43589285D02*
X24089285Y-43589285D01*
X23839285Y-43875000D01*
X23946428Y-43875000D01*
X24017857Y-43910714D01*
X24053571Y-43946428D01*
X24089285Y-44017857D01*
X24089285Y-44196428D01*
X24053571Y-44267857D01*
X24017857Y-44303571D01*
X23946428Y-44339285D01*
X23732142Y-44339285D01*
X23660714Y-44303571D01*
X23625000Y-44267857D01*
X23428571Y-18114285D02*
X23428571Y-18721428D01*
X23464285Y-18792857D01*
X23500000Y-18828571D01*
X23571428Y-18864285D01*
X23714285Y-18864285D01*
X23785714Y-18828571D01*
X23821428Y-18792857D01*
X23857142Y-18721428D01*
X23857142Y-18114285D01*
X24178571Y-18185714D02*
X24214285Y-18150000D01*
X24285714Y-18114285D01*
X24464285Y-18114285D01*
X24535714Y-18150000D01*
X24571428Y-18185714D01*
X24607142Y-18257142D01*
X24607142Y-18328571D01*
X24571428Y-18435714D01*
X24142857Y-18864285D01*
X24607142Y-18864285D01*
X40044921Y-13339285D02*
X39794921Y-12982142D01*
X39616349Y-13339285D02*
X39616349Y-12589285D01*
X39902064Y-12589285D01*
X39973492Y-12625000D01*
X40009206Y-12660714D01*
X40044921Y-12732142D01*
X40044921Y-12839285D01*
X40009206Y-12910714D01*
X39973492Y-12946428D01*
X39902064Y-12982142D01*
X39616349Y-12982142D01*
X40330635Y-12660714D02*
X40366349Y-12625000D01*
X40437778Y-12589285D01*
X40616349Y-12589285D01*
X40687778Y-12625000D01*
X40723492Y-12660714D01*
X40759206Y-12732142D01*
X40759206Y-12803571D01*
X40723492Y-12910714D01*
X40294921Y-13339285D01*
X40759206Y-13339285D01*
X41044921Y-12660714D02*
X41080635Y-12625000D01*
X41152064Y-12589285D01*
X41330635Y-12589285D01*
X41402064Y-12625000D01*
X41437778Y-12660714D01*
X41473492Y-12732142D01*
X41473492Y-12803571D01*
X41437778Y-12910714D01*
X41009206Y-13339285D01*
X41473492Y-13339285D01*
X14211972Y-38839285D02*
X13961972Y-38482142D01*
X13783400Y-38839285D02*
X13783400Y-38089285D01*
X14069114Y-38089285D01*
X14140543Y-38125000D01*
X14176257Y-38160714D01*
X14211972Y-38232142D01*
X14211972Y-38339285D01*
X14176257Y-38410714D01*
X14140543Y-38446428D01*
X14069114Y-38482142D01*
X13783400Y-38482142D01*
X14854829Y-38089285D02*
X14711972Y-38089285D01*
X14640543Y-38125000D01*
X14604829Y-38160714D01*
X14533400Y-38267857D01*
X14497686Y-38410714D01*
X14497686Y-38696428D01*
X14533400Y-38767857D01*
X14569114Y-38803571D01*
X14640543Y-38839285D01*
X14783400Y-38839285D01*
X14854829Y-38803571D01*
X14890543Y-38767857D01*
X14926257Y-38696428D01*
X14926257Y-38517857D01*
X14890543Y-38446428D01*
X14854829Y-38410714D01*
X14783400Y-38375000D01*
X14640543Y-38375000D01*
X14569114Y-38410714D01*
X14533400Y-38446428D01*
X14497686Y-38517857D01*
X29517857Y-9589285D02*
X29267857Y-9232142D01*
X29089285Y-9589285D02*
X29089285Y-8839285D01*
X29375000Y-8839285D01*
X29446428Y-8875000D01*
X29482142Y-8910714D01*
X29517857Y-8982142D01*
X29517857Y-9089285D01*
X29482142Y-9160714D01*
X29446428Y-9196428D01*
X29375000Y-9232142D01*
X29089285Y-9232142D01*
X29803571Y-8910714D02*
X29839285Y-8875000D01*
X29910714Y-8839285D01*
X30089285Y-8839285D01*
X30160714Y-8875000D01*
X30196428Y-8910714D01*
X30232142Y-8982142D01*
X30232142Y-9053571D01*
X30196428Y-9160714D01*
X29767857Y-9589285D01*
X30232142Y-9589285D01*
X30660714Y-9160714D02*
X30589285Y-9125000D01*
X30553571Y-9089285D01*
X30517857Y-9017857D01*
X30517857Y-8982142D01*
X30553571Y-8910714D01*
X30589285Y-8875000D01*
X30660714Y-8839285D01*
X30803571Y-8839285D01*
X30875000Y-8875000D01*
X30910714Y-8910714D01*
X30946428Y-8982142D01*
X30946428Y-9017857D01*
X30910714Y-9089285D01*
X30875000Y-9125000D01*
X30803571Y-9160714D01*
X30660714Y-9160714D01*
X30589285Y-9196428D01*
X30553571Y-9232142D01*
X30517857Y-9303571D01*
X30517857Y-9446428D01*
X30553571Y-9517857D01*
X30589285Y-9553571D01*
X30660714Y-9589285D01*
X30803571Y-9589285D01*
X30875000Y-9553571D01*
X30910714Y-9517857D01*
X30946428Y-9446428D01*
X30946428Y-9303571D01*
X30910714Y-9232142D01*
X30875000Y-9196428D01*
X30803571Y-9160714D01*
X23539285Y-36639285D02*
X23539285Y-35889285D01*
X23717857Y-35889285D01*
X23825000Y-35925000D01*
X23896428Y-35996428D01*
X23932142Y-36067857D01*
X23967857Y-36210714D01*
X23967857Y-36317857D01*
X23932142Y-36460714D01*
X23896428Y-36532142D01*
X23825000Y-36603571D01*
X23717857Y-36639285D01*
X23539285Y-36639285D01*
X24682142Y-36639285D02*
X24253571Y-36639285D01*
X24467857Y-36639285D02*
X24467857Y-35889285D01*
X24396428Y-35996428D01*
X24325000Y-36067857D01*
X24253571Y-36103571D01*
X25325000Y-36139285D02*
X25325000Y-36639285D01*
X25146428Y-35853571D02*
X24967857Y-36389285D01*
X25432142Y-36389285D01*
X42875000Y-42589285D02*
X42625000Y-42232142D01*
X42446428Y-42589285D02*
X42446428Y-41839285D01*
X42732142Y-41839285D01*
X42803571Y-41875000D01*
X42839285Y-41910714D01*
X42875000Y-41982142D01*
X42875000Y-42089285D01*
X42839285Y-42160714D01*
X42803571Y-42196428D01*
X42732142Y-42232142D01*
X42446428Y-42232142D01*
X43303571Y-42160714D02*
X43232142Y-42125000D01*
X43196428Y-42089285D01*
X43160714Y-42017857D01*
X43160714Y-41982142D01*
X43196428Y-41910714D01*
X43232142Y-41875000D01*
X43303571Y-41839285D01*
X43446428Y-41839285D01*
X43517857Y-41875000D01*
X43553571Y-41910714D01*
X43589285Y-41982142D01*
X43589285Y-42017857D01*
X43553571Y-42089285D01*
X43517857Y-42125000D01*
X43446428Y-42160714D01*
X43303571Y-42160714D01*
X43232142Y-42196428D01*
X43196428Y-42232142D01*
X43160714Y-42303571D01*
X43160714Y-42446428D01*
X43196428Y-42517857D01*
X43232142Y-42553571D01*
X43303571Y-42589285D01*
X43446428Y-42589285D01*
X43517857Y-42553571D01*
X43553571Y-42517857D01*
X43589285Y-42446428D01*
X43589285Y-42303571D01*
X43553571Y-42232142D01*
X43517857Y-42196428D01*
X43446428Y-42160714D01*
X17875000Y-38839285D02*
X17625000Y-38482142D01*
X17446428Y-38839285D02*
X17446428Y-38089285D01*
X17732142Y-38089285D01*
X17803571Y-38125000D01*
X17839285Y-38160714D01*
X17875000Y-38232142D01*
X17875000Y-38339285D01*
X17839285Y-38410714D01*
X17803571Y-38446428D01*
X17732142Y-38482142D01*
X17446428Y-38482142D01*
X18160714Y-38160714D02*
X18196428Y-38125000D01*
X18267857Y-38089285D01*
X18446428Y-38089285D01*
X18517857Y-38125000D01*
X18553571Y-38160714D01*
X18589285Y-38232142D01*
X18589285Y-38303571D01*
X18553571Y-38410714D01*
X18125000Y-38839285D01*
X18589285Y-38839285D01*
X40875000Y-29589285D02*
X40625000Y-29232142D01*
X40446428Y-29589285D02*
X40446428Y-28839285D01*
X40732142Y-28839285D01*
X40803571Y-28875000D01*
X40839285Y-28910714D01*
X40875000Y-28982142D01*
X40875000Y-29089285D01*
X40839285Y-29160714D01*
X40803571Y-29196428D01*
X40732142Y-29232142D01*
X40446428Y-29232142D01*
X41125000Y-28839285D02*
X41589285Y-28839285D01*
X41339285Y-29125000D01*
X41446428Y-29125000D01*
X41517857Y-29160714D01*
X41553571Y-29196428D01*
X41589285Y-29267857D01*
X41589285Y-29446428D01*
X41553571Y-29517857D01*
X41517857Y-29553571D01*
X41446428Y-29589285D01*
X41232142Y-29589285D01*
X41160714Y-29553571D01*
X41125000Y-29517857D01*
D10*
X6820000Y-5270000D02*
X6820000Y-6820000D01*
X6820000Y-6820000D02*
X8370000Y-6820000D01*
D12*
X38850000Y-8300000D02*
X44250000Y-8300000D01*
X38850000Y-11600000D02*
X44250000Y-11600000D01*
X38850000Y-8300000D02*
X38850000Y-11600000D01*
X7040000Y-53500000D02*
X7040000Y-56185000D01*
X8960000Y-56185000D02*
X8960000Y-53500000D01*
X7040000Y-56185000D02*
X8960000Y-56185000D01*
X56440000Y-53554315D02*
X56440000Y-56239315D01*
X58360000Y-56239315D02*
X58360000Y-53554315D01*
X56440000Y-56239315D02*
X58360000Y-56239315D01*
X64885000Y-38710000D02*
X64885000Y-36790000D01*
X62200000Y-38710000D02*
X64885000Y-38710000D01*
X64885000Y-36790000D02*
X62200000Y-36790000D01*
X22790000Y-53650000D02*
X22790000Y-56335000D01*
X24710000Y-56335000D02*
X24710000Y-53650000D01*
X22790000Y-56335000D02*
X24710000Y-56335000D01*
D10*
X11500000Y-12100000D02*
X11500000Y-12700000D01*
D12*
X62150000Y-23210000D02*
X64835000Y-23210000D01*
X64835000Y-21290000D02*
X62150000Y-21290000D01*
X64835000Y-23210000D02*
X64835000Y-21290000D01*
X50050000Y-36500000D02*
X45750000Y-36500000D01*
X45750000Y-38500000D02*
X50050000Y-38500000D01*
X50050000Y-38500000D02*
X50050000Y-36500000D01*
X39600000Y-24850000D02*
X45000000Y-24850000D01*
X39600000Y-24850000D02*
X39600000Y-28150000D01*
X39600000Y-28150000D02*
X45000000Y-28150000D01*
X38150000Y-31100000D02*
X38150000Y-36500000D01*
X38150000Y-31100000D02*
X34850000Y-31100000D01*
X34850000Y-31100000D02*
X34850000Y-36500000D01*
X25887936Y-19179378D02*
X25612936Y-19179378D01*
X23150000Y-31350000D02*
X19850000Y-31350000D01*
X19850000Y-31350000D02*
X19850000Y-36750000D01*
X23150000Y-31350000D02*
X23150000Y-36750000D01*
%LPC*%
D13*
X61500000Y-4000000D03*
X3500000Y-4000000D03*
X3500000Y-53000000D03*
X61500000Y-53000000D03*
D14*
X8370000Y-5270000D03*
D15*
X8370000Y-2730000D03*
X10910000Y-5270000D03*
X10910000Y-2730000D03*
X13450000Y-5270000D03*
X13450000Y-2730000D03*
X15990000Y-5270000D03*
X15990000Y-2730000D03*
X18530000Y-5270000D03*
X18530000Y-2730000D03*
X21070000Y-5270000D03*
X21070000Y-2730000D03*
X23610000Y-5270000D03*
X23610000Y-2730000D03*
X26150000Y-5270000D03*
X26150000Y-2730000D03*
X28690000Y-5270000D03*
X28690000Y-2730000D03*
X31230000Y-5270000D03*
X31230000Y-2730000D03*
X33770000Y-5270000D03*
X33770000Y-2730000D03*
X36310000Y-5270000D03*
X36310000Y-2730000D03*
X38850000Y-5270000D03*
X38850000Y-2730000D03*
X41390000Y-5270000D03*
X41390000Y-2730000D03*
X43930000Y-5270000D03*
X43930000Y-2730000D03*
X46470000Y-5270000D03*
X46470000Y-2730000D03*
X49010000Y-5270000D03*
X49010000Y-2730000D03*
X51550000Y-5270000D03*
X51550000Y-2730000D03*
X54090000Y-5270000D03*
X54090000Y-2730000D03*
X56630000Y-5270000D03*
X56630000Y-2730000D03*
D16*
X40250000Y-9950000D03*
X44250000Y-9950000D03*
D17*
X57400000Y-51912500D03*
X57400000Y-50087500D03*
D18*
X2920000Y-40170000D03*
X2920000Y-42710000D03*
X2920000Y-45250000D03*
X2920000Y-47790000D03*
D19*
X8000000Y-55437500D03*
X8000000Y-53562500D03*
X57400000Y-55491815D03*
X57400000Y-53616815D03*
D20*
X61443448Y-33300002D03*
X61443448Y-27299998D03*
D21*
X49943450Y-33300002D03*
X49943450Y-27299998D03*
D22*
X33912500Y-34750000D03*
X32087500Y-34750000D03*
D23*
X12325000Y-17900000D03*
X13875000Y-17900000D03*
D24*
X6000000Y-17050000D03*
X6000000Y-8750000D03*
D25*
X47199998Y-52943448D03*
X53200002Y-52943448D03*
D26*
X47199998Y-41443450D03*
X53200002Y-41443450D03*
D25*
X12799998Y-52893448D03*
X18800002Y-52893448D03*
D26*
X12799998Y-41393450D03*
X18800002Y-41393450D03*
D18*
X41999379Y-54706800D03*
X39459379Y-54706800D03*
X41999379Y-52166800D03*
X39459379Y-52166800D03*
X41999379Y-49626800D03*
X39459379Y-49626800D03*
D22*
X41212500Y-14750000D03*
X39387500Y-14750000D03*
D27*
X42925000Y-29112500D03*
X42925000Y-30937500D03*
D17*
X17225000Y-33037500D03*
X17225000Y-31212500D03*
D28*
X64137500Y-37750000D03*
X62262500Y-37750000D03*
D29*
X15475000Y-32937500D03*
X13575000Y-32937500D03*
X14525000Y-34812500D03*
D18*
X10140000Y-20090000D03*
X7600000Y-20090000D03*
D30*
X6700000Y-31000000D03*
D31*
X8000000Y-31000000D03*
D20*
X61443448Y-17750002D03*
X61443448Y-11749998D03*
D21*
X49943450Y-17750002D03*
X49943450Y-11749998D03*
D19*
X23750000Y-55587500D03*
X23750000Y-53712500D03*
D30*
X6700000Y-28400000D03*
D31*
X8000000Y-28400000D03*
D29*
X30450000Y-32812500D03*
X28550000Y-32812500D03*
X29500000Y-34687500D03*
D22*
X41137500Y-30750000D03*
X39312500Y-30750000D03*
X60562500Y-22250000D03*
X58737500Y-22250000D03*
D32*
X48625000Y-22750000D03*
X51575000Y-22750000D03*
D33*
X12925000Y-12395000D03*
X12925000Y-13665000D03*
X12925000Y-14935000D03*
X12925000Y-16205000D03*
X17875000Y-16205000D03*
X17875000Y-14935000D03*
X17875000Y-13665000D03*
X17875000Y-12395000D03*
D34*
X32087500Y-36750000D03*
X33912500Y-36750000D03*
D17*
X32250000Y-32912500D03*
X32250000Y-31087500D03*
D28*
X64087500Y-22250000D03*
X62212500Y-22250000D03*
D30*
X6700000Y-36200000D03*
D31*
X8000000Y-36200000D03*
D35*
X49250000Y-37500000D03*
X45750000Y-37500000D03*
D36*
X41062500Y-16550000D03*
X41062500Y-18450000D03*
X42937500Y-17500000D03*
D30*
X6700000Y-23200000D03*
D31*
X8000000Y-23200000D03*
D23*
X12425000Y-10700000D03*
X13975000Y-10700000D03*
D37*
X39250000Y-39275000D03*
X39250000Y-42225000D03*
D16*
X41000000Y-26500000D03*
X45000000Y-26500000D03*
D38*
X36500000Y-32500000D03*
X36500000Y-36500000D03*
D36*
X41012500Y-32500000D03*
X41012500Y-34400000D03*
X42887500Y-33450000D03*
D17*
X23750000Y-51962500D03*
X23750000Y-50137500D03*
X45000000Y-14962500D03*
X45000000Y-13137500D03*
D22*
X18862500Y-34850000D03*
X17037500Y-34850000D03*
D34*
X28587500Y-36750000D03*
X30412500Y-36750000D03*
D17*
X8000000Y-51812500D03*
X8000000Y-49987500D03*
X44900000Y-34362500D03*
X44900000Y-32537500D03*
D30*
X6700000Y-25800000D03*
D31*
X8000000Y-25800000D03*
D17*
X45000000Y-18387500D03*
X45000000Y-16562500D03*
D22*
X60612500Y-37750000D03*
X58787500Y-37750000D03*
D37*
X23500000Y-39525000D03*
X23500000Y-42475000D03*
D39*
X25750000Y-18187500D03*
X26400000Y-18187500D03*
X27050000Y-18187500D03*
X27700000Y-18187500D03*
X28350000Y-18187500D03*
X29000000Y-18187500D03*
X29650000Y-18187500D03*
X30300000Y-18187500D03*
X30950000Y-18187500D03*
X31600000Y-18187500D03*
X32250000Y-18187500D03*
X32900000Y-18187500D03*
X33550000Y-18187500D03*
X34200000Y-18187500D03*
X34200000Y-12462500D03*
X33550000Y-12462500D03*
X32900000Y-12462500D03*
X32250000Y-12462500D03*
X31600000Y-12462500D03*
X30950000Y-12462500D03*
X30300000Y-12462500D03*
X29650000Y-12462500D03*
X29000000Y-12462500D03*
X28350000Y-12462500D03*
X27700000Y-12462500D03*
X27050000Y-12462500D03*
X26400000Y-12462500D03*
X25750000Y-12462500D03*
D27*
X43025000Y-13137500D03*
X43025000Y-14962500D03*
D25*
X28124998Y-52893448D03*
X34125002Y-52893448D03*
D26*
X28124998Y-41393450D03*
X34125002Y-41393450D03*
D34*
X13424472Y-36845799D03*
X15249472Y-36845799D03*
D30*
X6700000Y-33600000D03*
D31*
X8000000Y-33600000D03*
D22*
X34412500Y-9250000D03*
X32587500Y-9250000D03*
D38*
X21500000Y-32750000D03*
X21500000Y-36750000D03*
D17*
X43000000Y-40912500D03*
X43000000Y-39087500D03*
D34*
X17037500Y-36850000D03*
X18862500Y-36850000D03*
D17*
X44900000Y-30937500D03*
X44900000Y-29112500D03*
D18*
X8020000Y-47790000D03*
X5480000Y-47790000D03*
X8020000Y-45250000D03*
X5480000Y-45250000D03*
X8020000Y-42710000D03*
X5480000Y-42710000D03*
X8020000Y-40170000D03*
X5480000Y-40170000D03*
D40*
X17200000Y-10200000D03*
D41*
X20372077Y-11679164D03*
M02*
