%TF.GenerationSoftware,KiCad,Pcbnew,6.0.11+dfsg-1*%
%TF.CreationDate,2024-03-16T14:36:40+00:00*%
%TF.ProjectId,panel,70616e65-6c2e-46b6-9963-61645f706362,rev?*%
%TF.SameCoordinates,Original*%
%TF.FileFunction,Paste,Top*%
%TF.FilePolarity,Positive*%
%FSLAX46Y46*%
G04 Gerber Fmt 4.6, Leading zero omitted, Abs format (unit mm)*
G04 Created by KiCad (PCBNEW 6.0.11+dfsg-1) date 2024-03-16 14:36:40*
%MOMM*%
%LPD*%
G01*
G04 APERTURE LIST*
G04 Aperture macros list*
%AMRoundRect*
0 Rectangle with rounded corners*
0 $1 Rounding radius*
0 $2 $3 $4 $5 $6 $7 $8 $9 X,Y pos of 4 corners*
0 Add a 4 corners polygon primitive as box body*
4,1,4,$2,$3,$4,$5,$6,$7,$8,$9,$2,$3,0*
0 Add four circle primitives for the rounded corners*
1,1,$1+$1,$2,$3*
1,1,$1+$1,$4,$5*
1,1,$1+$1,$6,$7*
1,1,$1+$1,$8,$9*
0 Add four rect primitives between the rounded corners*
20,1,$1+$1,$2,$3,$4,$5,0*
20,1,$1+$1,$4,$5,$6,$7,0*
20,1,$1+$1,$6,$7,$8,$9,0*
20,1,$1+$1,$8,$9,$2,$3,0*%
G04 Aperture macros list end*
%ADD10RoundRect,0.243750X0.456250X-0.243750X0.456250X0.243750X-0.456250X0.243750X-0.456250X-0.243750X0*%
%ADD11RoundRect,0.200000X0.275000X-0.200000X0.275000X0.200000X-0.275000X0.200000X-0.275000X-0.200000X0*%
%ADD12RoundRect,0.200000X0.335876X0.053033X0.053033X0.335876X-0.335876X-0.053033X-0.053033X-0.335876X0*%
%ADD13RoundRect,0.200000X-0.200000X-0.275000X0.200000X-0.275000X0.200000X0.275000X-0.200000X0.275000X0*%
%ADD14R,1.100000X1.100000*%
%ADD15RoundRect,0.243750X0.243750X0.456250X-0.243750X0.456250X-0.243750X-0.456250X0.243750X-0.456250X0*%
%ADD16R,3.600000X2.700000*%
%ADD17RoundRect,0.225000X-0.225000X-0.250000X0.225000X-0.250000X0.225000X0.250000X-0.225000X0.250000X0*%
%ADD18RoundRect,0.150000X0.150000X-0.587500X0.150000X0.587500X-0.150000X0.587500X-0.150000X-0.587500X0*%
%ADD19RoundRect,0.250000X-0.325000X-0.650000X0.325000X-0.650000X0.325000X0.650000X-0.325000X0.650000X0*%
%ADD20RoundRect,0.150000X-0.825000X-0.150000X0.825000X-0.150000X0.825000X0.150000X-0.825000X0.150000X0*%
%ADD21RoundRect,0.250000X-0.650000X0.325000X-0.650000X-0.325000X0.650000X-0.325000X0.650000X0.325000X0*%
%ADD22RoundRect,0.100000X0.100000X-0.637500X0.100000X0.637500X-0.100000X0.637500X-0.100000X-0.637500X0*%
G04 APERTURE END LIST*
D10*
%TO.C,D29*%
X123600000Y-141837500D03*
X123600000Y-139962500D03*
%TD*%
D11*
%TO.C,R28*%
X152000000Y-100225000D03*
X152000000Y-98575000D03*
%TD*%
D12*
%TO.C,R23*%
X177083363Y-127883363D03*
X175916637Y-126716637D03*
%TD*%
D10*
%TO.C,D29*%
X123600000Y-82837500D03*
X123600000Y-80962500D03*
%TD*%
D13*
%TO.C,R12*%
X171775000Y-123000000D03*
X173425000Y-123000000D03*
%TD*%
D14*
%TO.C,D15*%
X156400000Y-111700000D03*
X159200000Y-111700000D03*
%TD*%
D15*
%TO.C,D30*%
X180137500Y-125500000D03*
X178262500Y-125500000D03*
%TD*%
%TO.C,D37*%
X180137500Y-110000000D03*
X178262500Y-110000000D03*
%TD*%
D12*
%TO.C,R1*%
X174883363Y-128083363D03*
X173716637Y-126916637D03*
%TD*%
D16*
%TO.C,L1*%
X122000000Y-103550000D03*
X122000000Y-95250000D03*
%TD*%
D17*
%TO.C,C6*%
X128425000Y-38200000D03*
X129975000Y-38200000D03*
%TD*%
D13*
%TO.C,R39*%
X149175000Y-37500000D03*
X150825000Y-37500000D03*
%TD*%
D12*
%TO.C,R1*%
X174883363Y-69083363D03*
X173716637Y-67916637D03*
%TD*%
D15*
%TO.C,D5*%
X180137500Y-64400000D03*
X178262500Y-64400000D03*
%TD*%
D17*
%TO.C,C9*%
X128325000Y-104400000D03*
X129875000Y-104400000D03*
%TD*%
D10*
%TO.C,D4*%
X125500000Y-141837500D03*
X125500000Y-139962500D03*
%TD*%
D13*
%TO.C,R39*%
X149175000Y-96500000D03*
X150825000Y-96500000D03*
%TD*%
D18*
%TO.C,Q5*%
X163150000Y-63737500D03*
X165050000Y-63737500D03*
X164100000Y-61862500D03*
%TD*%
D11*
%TO.C,R28*%
X152000000Y-41225000D03*
X152000000Y-39575000D03*
%TD*%
D13*
%TO.C,R12*%
X171775000Y-64000000D03*
X173425000Y-64000000D03*
%TD*%
D10*
%TO.C,D31*%
X138400000Y-82837500D03*
X138400000Y-80962500D03*
%TD*%
D13*
%TO.C,R40*%
X149175000Y-94200000D03*
X150825000Y-94200000D03*
%TD*%
D19*
%TO.C,C16*%
X162225000Y-51200000D03*
X165175000Y-51200000D03*
%TD*%
D20*
%TO.C,U1*%
X128925000Y-98895000D03*
X128925000Y-100165000D03*
X128925000Y-101435000D03*
X128925000Y-102705000D03*
X133875000Y-102705000D03*
X133875000Y-101435000D03*
X133875000Y-100165000D03*
X133875000Y-98895000D03*
%TD*%
D10*
%TO.C,D31*%
X138400000Y-141837500D03*
X138400000Y-139962500D03*
%TD*%
%TO.C,D19*%
X140450000Y-82837500D03*
X140450000Y-80962500D03*
%TD*%
D19*
%TO.C,C15*%
X162225000Y-48800000D03*
X165175000Y-48800000D03*
%TD*%
D16*
%TO.C,L1*%
X122000000Y-44550000D03*
X122000000Y-36250000D03*
%TD*%
D12*
%TO.C,R23*%
X177083363Y-68883363D03*
X175916637Y-67716637D03*
%TD*%
D15*
%TO.C,D20*%
X180137500Y-107900000D03*
X178262500Y-107900000D03*
%TD*%
D17*
%TO.C,C6*%
X128425000Y-97200000D03*
X129975000Y-97200000D03*
%TD*%
D19*
%TO.C,C15*%
X162225000Y-107800000D03*
X165175000Y-107800000D03*
%TD*%
D10*
%TO.C,D4*%
X125500000Y-82837500D03*
X125500000Y-80962500D03*
%TD*%
D21*
%TO.C,C11*%
X140600000Y-124425000D03*
X140600000Y-127375000D03*
%TD*%
D18*
%TO.C,Q5*%
X163150000Y-122737500D03*
X165050000Y-122737500D03*
X164100000Y-120862500D03*
%TD*%
D15*
%TO.C,D37*%
X180137500Y-51000000D03*
X178262500Y-51000000D03*
%TD*%
D10*
%TO.C,D1*%
X174600000Y-131737500D03*
X174600000Y-129862500D03*
%TD*%
%TO.C,D38*%
X176800000Y-72737500D03*
X176800000Y-70862500D03*
%TD*%
D15*
%TO.C,D30*%
X180137500Y-66500000D03*
X178262500Y-66500000D03*
%TD*%
D17*
%TO.C,C9*%
X128325000Y-45400000D03*
X129875000Y-45400000D03*
%TD*%
D21*
%TO.C,C3*%
X138200000Y-124425000D03*
X138200000Y-127375000D03*
%TD*%
D14*
%TO.C,D15*%
X156400000Y-52700000D03*
X159200000Y-52700000D03*
%TD*%
D20*
%TO.C,U1*%
X128925000Y-39895000D03*
X128925000Y-41165000D03*
X128925000Y-42435000D03*
X128925000Y-43705000D03*
X133875000Y-43705000D03*
X133875000Y-42435000D03*
X133875000Y-41165000D03*
X133875000Y-39895000D03*
%TD*%
D21*
%TO.C,C11*%
X140600000Y-65425000D03*
X140600000Y-68375000D03*
%TD*%
%TO.C,C3*%
X138200000Y-65425000D03*
X138200000Y-68375000D03*
%TD*%
D10*
%TO.C,D38*%
X176800000Y-131737500D03*
X176800000Y-129862500D03*
%TD*%
D22*
%TO.C,U2*%
X141750000Y-45687500D03*
X142400000Y-45687500D03*
X143050000Y-45687500D03*
X143700000Y-45687500D03*
X144350000Y-45687500D03*
X145000000Y-45687500D03*
X145650000Y-45687500D03*
X146300000Y-45687500D03*
X146950000Y-45687500D03*
X147600000Y-45687500D03*
X148250000Y-45687500D03*
X148900000Y-45687500D03*
X149550000Y-45687500D03*
X150200000Y-45687500D03*
X150200000Y-39962500D03*
X149550000Y-39962500D03*
X148900000Y-39962500D03*
X148250000Y-39962500D03*
X147600000Y-39962500D03*
X146950000Y-39962500D03*
X146300000Y-39962500D03*
X145650000Y-39962500D03*
X145000000Y-39962500D03*
X144350000Y-39962500D03*
X143700000Y-39962500D03*
X143050000Y-39962500D03*
X142400000Y-39962500D03*
X141750000Y-39962500D03*
%TD*%
D10*
%TO.C,D19*%
X140450000Y-141837500D03*
X140450000Y-139962500D03*
%TD*%
D19*
%TO.C,C16*%
X162225000Y-110200000D03*
X165175000Y-110200000D03*
%TD*%
D15*
%TO.C,D5*%
X180137500Y-123400000D03*
X178262500Y-123400000D03*
%TD*%
D10*
%TO.C,D1*%
X174600000Y-72737500D03*
X174600000Y-70862500D03*
%TD*%
D15*
%TO.C,D20*%
X180137500Y-48900000D03*
X178262500Y-48900000D03*
%TD*%
D22*
%TO.C,U2*%
X141750000Y-104687500D03*
X142400000Y-104687500D03*
X143050000Y-104687500D03*
X143700000Y-104687500D03*
X144350000Y-104687500D03*
X145000000Y-104687500D03*
X145650000Y-104687500D03*
X146300000Y-104687500D03*
X146950000Y-104687500D03*
X147600000Y-104687500D03*
X148250000Y-104687500D03*
X148900000Y-104687500D03*
X149550000Y-104687500D03*
X150200000Y-104687500D03*
X150200000Y-98962500D03*
X149550000Y-98962500D03*
X148900000Y-98962500D03*
X148250000Y-98962500D03*
X147600000Y-98962500D03*
X146950000Y-98962500D03*
X146300000Y-98962500D03*
X145650000Y-98962500D03*
X145000000Y-98962500D03*
X144350000Y-98962500D03*
X143700000Y-98962500D03*
X143050000Y-98962500D03*
X142400000Y-98962500D03*
X141750000Y-98962500D03*
%TD*%
D13*
%TO.C,R40*%
X149175000Y-35200000D03*
X150825000Y-35200000D03*
%TD*%
M02*
