M48
; DRILL file {KiCad 6.0.11+dfsg-1} date Tue 19 Mar 2024 05:37:26 GMT
; FORMAT={-:-/ absolute / metric / decimal}
; #@! TF.CreationDate,2024-03-19T05:37:26+00:00
; #@! TF.GenerationSoftware,Kicad,Pcbnew,6.0.11+dfsg-1
; #@! TF.FileFunction,Plated,1,2,PTH
FMAT,2
METRIC
; #@! TA.AperFunction,Plated,PTH,ViaDrill
T1C0.400
; #@! TA.AperFunction,Plated,PTH,ViaDrill
T2C0.500
; #@! TA.AperFunction,Plated,PTH,ComponentDrill
T3C0.800
; #@! TA.AperFunction,Plated,PTH,ComponentDrill
T4C0.900
; #@! TA.AperFunction,Plated,PTH,ComponentDrill
T5C1.016
%
G90
G05
T1
X122.0Y-83.1
X122.0Y-142.1
X122.5Y-78.5
X122.5Y-137.5
X124.4Y-79.6
X124.4Y-138.6
X125.8Y-77.5
X125.8Y-136.5
X126.0Y-42.8
X126.0Y-101.8
X126.4Y-51.5
X126.4Y-110.5
X126.9Y-80.4
X126.9Y-139.4
X127.2Y-42.8
X127.2Y-101.8
X127.5Y-51.5
X127.5Y-110.5
X128.5Y-51.5
X128.5Y-110.5
X129.0Y-81.8
X129.0Y-140.8
X129.575Y-51.475
X129.575Y-110.475
X129.96Y-38.233
X129.96Y-97.233
X130.6Y-61.4
X130.6Y-120.4
X131.1Y-70.9
X131.1Y-129.9
X131.2Y-76.3
X131.2Y-135.3
X133.3Y-44.8
X133.3Y-103.8
X133.7Y-81.6
X133.7Y-140.6
X134.8Y-55.2
X134.8Y-56.4
X134.8Y-114.2
X134.8Y-115.4
X135.7Y-41.1
X135.7Y-42.5
X135.7Y-100.1
X135.7Y-101.5
X135.75Y-48.443
X135.75Y-107.443
X136.8Y-82.8
X136.8Y-141.8
X137.2Y-55.2
X137.2Y-56.4
X137.2Y-81.0
X137.2Y-114.2
X137.2Y-115.4
X137.2Y-140.0
X137.3Y-73.5
X137.3Y-132.5
X138.1Y-47.2
X138.1Y-48.8
X138.1Y-106.2
X138.1Y-107.8
X138.2Y-64.2
X138.2Y-123.2
X138.4Y-80.0
X138.4Y-139.0
X138.674Y-37.196
X138.674Y-96.196
X139.0Y-72.2
X139.0Y-131.2
X139.399Y-39.167
X139.399Y-98.167
X139.6Y-44.0
X139.6Y-103.0
X139.9Y-38.3
X139.9Y-97.3
X140.0Y-40.0
X140.0Y-99.0
X140.1Y-76.8
X140.1Y-135.8
X140.155Y-37.055
X140.155Y-96.055
X140.4Y-80.0
X140.4Y-139.0
X140.6Y-64.2
X140.6Y-123.2
X140.7Y-74.25
X140.7Y-133.25
X141.1Y-55.2
X141.1Y-56.4
X141.1Y-114.2
X141.1Y-115.4
X141.201Y-49.668
X141.201Y-108.668
X141.4Y-70.8
X141.4Y-129.8
X141.7Y-75.2
X141.7Y-76.3
X141.7Y-134.2
X141.7Y-135.3
X141.8Y-41.399
X141.8Y-100.399
X142.4Y-38.3
X142.4Y-97.3
X143.242Y-49.674
X143.242Y-108.674
X143.4Y-43.7
X143.4Y-102.7
X143.5Y-55.2
X143.5Y-56.4
X143.5Y-114.2
X143.5Y-115.4
X144.2Y-38.1
X144.2Y-97.1
X144.3Y-43.0
X144.3Y-102.0
X145.205Y-49.682
X145.205Y-108.682
X145.3Y-43.7
X145.3Y-102.7
X146.2Y-69.9
X146.2Y-128.9
X146.9Y-43.7
X146.9Y-102.7
X147.205Y-49.682
X147.205Y-108.682
X147.8Y-43.0
X147.8Y-102.0
X148.8Y-43.7
X148.8Y-102.7
X149.205Y-49.67
X149.205Y-108.67
X149.8Y-36.3
X149.8Y-41.4
X149.8Y-95.3
X149.8Y-100.4
X149.801Y-44.01
X149.801Y-103.01
X150.353Y-50.629
X150.353Y-109.629
X151.0Y-52.25
X151.0Y-53.25
X151.0Y-54.25
X151.0Y-55.25
X151.0Y-111.25
X151.0Y-112.25
X151.0Y-113.25
X151.0Y-114.25
X151.3Y-43.4
X151.3Y-102.4
X151.6Y-38.7
X151.6Y-97.7
X155.9Y-56.4
X155.9Y-115.4
X156.4Y-54.4
X156.4Y-113.4
X156.787Y-40.387
X156.787Y-99.387
X158.0Y-47.2
X158.0Y-106.2
X160.4Y-45.0
X160.4Y-104.0
X160.9Y-48.8
X160.9Y-51.2
X160.9Y-107.8
X160.9Y-110.2
X162.5Y-46.7
X162.5Y-58.9
X162.5Y-60.3
X162.5Y-105.7
X162.5Y-117.9
X162.5Y-119.3
X168.9Y-43.0
X168.9Y-49.9
X168.9Y-57.7
X168.9Y-102.0
X168.9Y-108.9
X168.9Y-116.7
X169.0Y-46.8
X169.0Y-105.8
X169.2Y-68.4
X169.2Y-127.4
X169.555Y-61.945
X169.555Y-120.945
X170.6Y-52.1
X170.6Y-111.1
X172.0Y-48.2
X172.0Y-107.2
X172.2Y-66.0
X172.2Y-125.0
X172.8Y-71.4
X172.8Y-130.4
X173.1Y-51.0
X173.1Y-110.0
X175.8Y-47.3
X175.8Y-106.3
X177.0Y-61.8
X177.0Y-120.8
X177.774Y-47.3
X177.774Y-106.3
X177.8Y-62.6
X177.8Y-121.6
T2
X120.8Y-38.4
X120.8Y-39.7
X120.8Y-40.9
X120.8Y-97.4
X120.8Y-98.7
X120.8Y-99.9
X122.0Y-38.4
X122.0Y-39.7
X122.0Y-40.9
X122.0Y-97.4
X122.0Y-98.7
X122.0Y-99.9
X123.2Y-38.4
X123.2Y-39.7
X123.2Y-40.9
X123.2Y-97.4
X123.2Y-98.7
X123.2Y-99.9
X123.9Y-42.4
X123.9Y-101.4
X126.3Y-39.9
X126.3Y-98.9
X127.0Y-45.9
X127.0Y-104.9
X127.1Y-35.4
X127.1Y-94.4
X128.4Y-46.9
X128.4Y-105.9
X129.6Y-46.9
X129.6Y-48.1
X129.6Y-105.9
X129.6Y-107.1
X130.9Y-39.2
X130.9Y-40.6
X130.9Y-41.9
X130.9Y-43.1
X130.9Y-98.2
X130.9Y-99.6
X130.9Y-100.9
X130.9Y-102.1
X131.2Y-35.9
X131.2Y-94.9
X132.0Y-39.9
X132.0Y-41.2
X132.0Y-42.5
X132.0Y-43.8
X132.0Y-98.9
X132.0Y-100.2
X132.0Y-101.5
X132.0Y-102.8
X133.5Y-35.9
X133.5Y-94.9
X135.3Y-37.5
X135.3Y-96.5
T3
X133.2Y-37.7
X133.2Y-96.7
X136.372Y-39.179
X136.372Y-98.179
T4
X129.3Y-74.405
X129.3Y-79.405
X129.3Y-133.405
X129.3Y-138.405
X134.3Y-74.405
X134.3Y-79.405
X134.3Y-133.405
X134.3Y-138.405
X144.625Y-74.405
X144.625Y-79.405
X144.625Y-133.405
X144.625Y-138.405
X149.625Y-74.405
X149.625Y-79.405
X149.625Y-133.405
X149.625Y-138.405
X165.0Y-74.405
X165.0Y-79.405
X165.0Y-133.405
X165.0Y-138.405
X170.0Y-74.405
X170.0Y-79.405
X170.0Y-133.405
X170.0Y-138.405
X171.105Y-39.75
X171.105Y-44.75
X171.105Y-55.2
X171.105Y-60.2
X171.105Y-98.75
X171.105Y-103.75
X171.105Y-114.2
X171.105Y-119.2
X176.105Y-39.75
X176.105Y-44.75
X176.105Y-55.2
X176.105Y-60.2
X176.105Y-98.75
X176.105Y-103.75
X176.105Y-114.2
X176.105Y-119.2
T5
X118.92Y-67.67
X118.92Y-70.21
X118.92Y-72.75
X118.92Y-75.29
X118.92Y-126.67
X118.92Y-129.21
X118.92Y-131.75
X118.92Y-134.29
X121.48Y-67.67
X121.48Y-70.21
X121.48Y-72.75
X121.48Y-75.29
X121.48Y-126.67
X121.48Y-129.21
X121.48Y-131.75
X121.48Y-134.29
X123.6Y-47.59
X123.6Y-106.59
X124.02Y-67.67
X124.02Y-70.21
X124.02Y-72.75
X124.02Y-75.29
X124.02Y-126.67
X124.02Y-129.21
X124.02Y-131.75
X124.02Y-134.29
X124.37Y-30.23
X124.37Y-32.77
X124.37Y-89.23
X124.37Y-91.77
X126.14Y-47.59
X126.14Y-106.59
X126.91Y-30.23
X126.91Y-32.77
X126.91Y-89.23
X126.91Y-91.77
X129.45Y-30.23
X129.45Y-32.77
X129.45Y-89.23
X129.45Y-91.77
X131.99Y-30.23
X131.99Y-32.77
X131.99Y-89.23
X131.99Y-91.77
X134.53Y-30.23
X134.53Y-32.77
X134.53Y-89.23
X134.53Y-91.77
X137.07Y-30.23
X137.07Y-32.77
X137.07Y-89.23
X137.07Y-91.77
X139.61Y-30.23
X139.61Y-32.77
X139.61Y-89.23
X139.61Y-91.77
X142.15Y-30.23
X142.15Y-32.77
X142.15Y-89.23
X142.15Y-91.77
X144.69Y-30.23
X144.69Y-32.77
X144.69Y-89.23
X144.69Y-91.77
X147.23Y-30.23
X147.23Y-32.77
X147.23Y-89.23
X147.23Y-91.77
X149.77Y-30.23
X149.77Y-32.77
X149.77Y-89.23
X149.77Y-91.77
X152.31Y-30.23
X152.31Y-32.77
X152.31Y-89.23
X152.31Y-91.77
X154.63Y-77.127
X154.63Y-79.667
X154.63Y-82.207
X154.63Y-136.127
X154.63Y-138.667
X154.63Y-141.207
X154.85Y-30.23
X154.85Y-32.77
X154.85Y-89.23
X154.85Y-91.77
X157.17Y-77.127
X157.17Y-79.667
X157.17Y-82.207
X157.17Y-136.127
X157.17Y-138.667
X157.17Y-141.207
X157.39Y-30.23
X157.39Y-32.77
X157.39Y-89.23
X157.39Y-91.77
X159.93Y-30.23
X159.93Y-32.77
X159.93Y-89.23
X159.93Y-91.77
X162.47Y-30.23
X162.47Y-32.77
X162.47Y-89.23
X162.47Y-91.77
X165.01Y-30.23
X165.01Y-32.77
X165.01Y-89.23
X165.01Y-91.77
X167.55Y-30.23
X167.55Y-32.77
X167.55Y-89.23
X167.55Y-91.77
X170.09Y-30.23
X170.09Y-32.77
X170.09Y-89.23
X170.09Y-91.77
X172.63Y-30.23
X172.63Y-32.77
X172.63Y-89.23
X172.63Y-91.77
T0
M30
