%TF.GenerationSoftware,KiCad,Pcbnew,6.0.11+dfsg-1*%
%TF.CreationDate,2024-03-19T05:37:22+00:00*%
%TF.ProjectId,panel,70616e65-6c2e-46b6-9963-61645f706362,rev?*%
%TF.SameCoordinates,Original*%
%TF.FileFunction,Other,Comment*%
%FSLAX46Y46*%
G04 Gerber Fmt 4.6, Leading zero omitted, Abs format (unit mm)*
G04 Created by KiCad (PCBNEW 6.0.11+dfsg-1) date 2024-03-19 05:37:22*
%MOMM*%
%LPD*%
G01*
G04 APERTURE LIST*
%ADD10C,0.400000*%
%ADD11C,0.120000*%
G04 APERTURE END LIST*
D10*
X105000000Y-87000000D02*
X192000000Y-87000000D01*
X116000000Y-17000000D02*
X116000000Y-154000000D01*
X105000000Y-143000000D02*
X192000000Y-143000000D01*
X105000000Y-28000000D02*
X192000000Y-28000000D01*
X181000000Y-17000000D02*
X181000000Y-154000000D01*
X105000000Y-84000000D02*
X192000000Y-84000000D01*
X195450476Y-26904761D02*
X196117142Y-28904761D01*
X196783809Y-26904761D01*
X197450476Y-28142857D02*
X198974285Y-28142857D01*
X201069523Y-28714285D02*
X200974285Y-28809523D01*
X200688571Y-28904761D01*
X200498095Y-28904761D01*
X200212380Y-28809523D01*
X200021904Y-28619047D01*
X199926666Y-28428571D01*
X199831428Y-28047619D01*
X199831428Y-27761904D01*
X199926666Y-27380952D01*
X200021904Y-27190476D01*
X200212380Y-27000000D01*
X200498095Y-26904761D01*
X200688571Y-26904761D01*
X200974285Y-27000000D01*
X201069523Y-27095238D01*
X201926666Y-26904761D02*
X201926666Y-28523809D01*
X202021904Y-28714285D01*
X202117142Y-28809523D01*
X202307619Y-28904761D01*
X202688571Y-28904761D01*
X202879047Y-28809523D01*
X202974285Y-28714285D01*
X203069523Y-28523809D01*
X203069523Y-26904761D01*
X203736190Y-26904761D02*
X204879047Y-26904761D01*
X204307619Y-28904761D02*
X204307619Y-26904761D01*
X114904761Y-13549523D02*
X116904761Y-12882857D01*
X114904761Y-12216190D01*
X116142857Y-11549523D02*
X116142857Y-10025714D01*
X116714285Y-7930476D02*
X116809523Y-8025714D01*
X116904761Y-8311428D01*
X116904761Y-8501904D01*
X116809523Y-8787619D01*
X116619047Y-8978095D01*
X116428571Y-9073333D01*
X116047619Y-9168571D01*
X115761904Y-9168571D01*
X115380952Y-9073333D01*
X115190476Y-8978095D01*
X115000000Y-8787619D01*
X114904761Y-8501904D01*
X114904761Y-8311428D01*
X115000000Y-8025714D01*
X115095238Y-7930476D01*
X114904761Y-7073333D02*
X116523809Y-7073333D01*
X116714285Y-6978095D01*
X116809523Y-6882857D01*
X116904761Y-6692380D01*
X116904761Y-6311428D01*
X116809523Y-6120952D01*
X116714285Y-6025714D01*
X116523809Y-5930476D01*
X114904761Y-5930476D01*
X114904761Y-5263809D02*
X114904761Y-4120952D01*
X116904761Y-4692380D02*
X114904761Y-4692380D01*
X195450476Y-82904761D02*
X196117142Y-84904761D01*
X196783809Y-82904761D01*
X197450476Y-84142857D02*
X198974285Y-84142857D01*
X201069523Y-84714285D02*
X200974285Y-84809523D01*
X200688571Y-84904761D01*
X200498095Y-84904761D01*
X200212380Y-84809523D01*
X200021904Y-84619047D01*
X199926666Y-84428571D01*
X199831428Y-84047619D01*
X199831428Y-83761904D01*
X199926666Y-83380952D01*
X200021904Y-83190476D01*
X200212380Y-83000000D01*
X200498095Y-82904761D01*
X200688571Y-82904761D01*
X200974285Y-83000000D01*
X201069523Y-83095238D01*
X201926666Y-82904761D02*
X201926666Y-84523809D01*
X202021904Y-84714285D01*
X202117142Y-84809523D01*
X202307619Y-84904761D01*
X202688571Y-84904761D01*
X202879047Y-84809523D01*
X202974285Y-84714285D01*
X203069523Y-84523809D01*
X203069523Y-82904761D01*
X203736190Y-82904761D02*
X204879047Y-82904761D01*
X204307619Y-84904761D02*
X204307619Y-82904761D01*
X195450476Y-141904761D02*
X196117142Y-143904761D01*
X196783809Y-141904761D01*
X197450476Y-143142857D02*
X198974285Y-143142857D01*
X201069523Y-143714285D02*
X200974285Y-143809523D01*
X200688571Y-143904761D01*
X200498095Y-143904761D01*
X200212380Y-143809523D01*
X200021904Y-143619047D01*
X199926666Y-143428571D01*
X199831428Y-143047619D01*
X199831428Y-142761904D01*
X199926666Y-142380952D01*
X200021904Y-142190476D01*
X200212380Y-142000000D01*
X200498095Y-141904761D01*
X200688571Y-141904761D01*
X200974285Y-142000000D01*
X201069523Y-142095238D01*
X201926666Y-141904761D02*
X201926666Y-143523809D01*
X202021904Y-143714285D01*
X202117142Y-143809523D01*
X202307619Y-143904761D01*
X202688571Y-143904761D01*
X202879047Y-143809523D01*
X202974285Y-143714285D01*
X203069523Y-143523809D01*
X203069523Y-141904761D01*
X203736190Y-141904761D02*
X204879047Y-141904761D01*
X204307619Y-143904761D02*
X204307619Y-141904761D01*
X179904761Y-13549523D02*
X181904761Y-12882857D01*
X179904761Y-12216190D01*
X181142857Y-11549523D02*
X181142857Y-10025714D01*
X181714285Y-7930476D02*
X181809523Y-8025714D01*
X181904761Y-8311428D01*
X181904761Y-8501904D01*
X181809523Y-8787619D01*
X181619047Y-8978095D01*
X181428571Y-9073333D01*
X181047619Y-9168571D01*
X180761904Y-9168571D01*
X180380952Y-9073333D01*
X180190476Y-8978095D01*
X180000000Y-8787619D01*
X179904761Y-8501904D01*
X179904761Y-8311428D01*
X180000000Y-8025714D01*
X180095238Y-7930476D01*
X179904761Y-7073333D02*
X181523809Y-7073333D01*
X181714285Y-6978095D01*
X181809523Y-6882857D01*
X181904761Y-6692380D01*
X181904761Y-6311428D01*
X181809523Y-6120952D01*
X181714285Y-6025714D01*
X181523809Y-5930476D01*
X179904761Y-5930476D01*
X179904761Y-5263809D02*
X179904761Y-4120952D01*
X181904761Y-4692380D02*
X179904761Y-4692380D01*
X195450476Y-85904761D02*
X196117142Y-87904761D01*
X196783809Y-85904761D01*
X197450476Y-87142857D02*
X198974285Y-87142857D01*
X201069523Y-87714285D02*
X200974285Y-87809523D01*
X200688571Y-87904761D01*
X200498095Y-87904761D01*
X200212380Y-87809523D01*
X200021904Y-87619047D01*
X199926666Y-87428571D01*
X199831428Y-87047619D01*
X199831428Y-86761904D01*
X199926666Y-86380952D01*
X200021904Y-86190476D01*
X200212380Y-86000000D01*
X200498095Y-85904761D01*
X200688571Y-85904761D01*
X200974285Y-86000000D01*
X201069523Y-86095238D01*
X201926666Y-85904761D02*
X201926666Y-87523809D01*
X202021904Y-87714285D01*
X202117142Y-87809523D01*
X202307619Y-87904761D01*
X202688571Y-87904761D01*
X202879047Y-87809523D01*
X202974285Y-87714285D01*
X203069523Y-87523809D01*
X203069523Y-85904761D01*
X203736190Y-85904761D02*
X204879047Y-85904761D01*
X204307619Y-87904761D02*
X204307619Y-85904761D01*
D11*
X146053995Y-94235535D02*
X146147745Y-93485535D01*
X146326316Y-93485535D01*
X146428995Y-93521250D01*
X146491495Y-93592678D01*
X146518281Y-93664107D01*
X146536138Y-93806964D01*
X146522745Y-93914107D01*
X146469174Y-94056964D01*
X146424531Y-94128392D01*
X146344174Y-94199821D01*
X146232566Y-94235535D01*
X146053995Y-94235535D01*
X146803995Y-94235535D02*
X146866495Y-93735535D01*
X146897745Y-93485535D02*
X146857566Y-93521250D01*
X146888816Y-93556964D01*
X146928995Y-93521250D01*
X146897745Y-93485535D01*
X146888816Y-93556964D01*
X147161138Y-94235535D02*
X147223638Y-93735535D01*
X147214709Y-93806964D02*
X147254888Y-93771250D01*
X147330781Y-93735535D01*
X147437924Y-93735535D01*
X147504888Y-93771250D01*
X147531674Y-93842678D01*
X147482566Y-94235535D01*
X147531674Y-93842678D02*
X147576316Y-93771250D01*
X147652209Y-93735535D01*
X147759352Y-93735535D01*
X147826316Y-93771250D01*
X147853102Y-93842678D01*
X147803995Y-94235535D01*
X148451316Y-94199821D02*
X148375424Y-94235535D01*
X148232566Y-94235535D01*
X148165602Y-94199821D01*
X148138816Y-94128392D01*
X148174531Y-93842678D01*
X148219174Y-93771250D01*
X148295066Y-93735535D01*
X148437924Y-93735535D01*
X148504888Y-93771250D01*
X148531674Y-93842678D01*
X148522745Y-93914107D01*
X148156674Y-93985535D01*
X148866495Y-93735535D02*
X148803995Y-94235535D01*
X148857566Y-93806964D02*
X148897745Y-93771250D01*
X148973638Y-93735535D01*
X149080781Y-93735535D01*
X149147745Y-93771250D01*
X149174531Y-93842678D01*
X149125424Y-94235535D01*
X149451316Y-94199821D02*
X149518281Y-94235535D01*
X149661138Y-94235535D01*
X149737031Y-94199821D01*
X149781674Y-94128392D01*
X149786138Y-94092678D01*
X149759352Y-94021250D01*
X149692388Y-93985535D01*
X149585245Y-93985535D01*
X149518281Y-93949821D01*
X149491495Y-93878392D01*
X149495959Y-93842678D01*
X149540602Y-93771250D01*
X149616495Y-93735535D01*
X149723638Y-93735535D01*
X149790602Y-93771250D01*
X150089709Y-94235535D02*
X150152209Y-93735535D01*
X150183459Y-93485535D02*
X150143281Y-93521250D01*
X150174531Y-93556964D01*
X150214709Y-93521250D01*
X150183459Y-93485535D01*
X150174531Y-93556964D01*
X150553995Y-94235535D02*
X150487031Y-94199821D01*
X150455781Y-94164107D01*
X150428995Y-94092678D01*
X150455781Y-93878392D01*
X150500424Y-93806964D01*
X150540602Y-93771250D01*
X150616495Y-93735535D01*
X150723638Y-93735535D01*
X150790602Y-93771250D01*
X150821852Y-93806964D01*
X150848638Y-93878392D01*
X150821852Y-94092678D01*
X150777209Y-94164107D01*
X150737031Y-94199821D01*
X150661138Y-94235535D01*
X150553995Y-94235535D01*
X151187924Y-93735535D02*
X151125424Y-94235535D01*
X151178995Y-93806964D02*
X151219174Y-93771250D01*
X151295066Y-93735535D01*
X151402209Y-93735535D01*
X151469174Y-93771250D01*
X151495959Y-93842678D01*
X151446852Y-94235535D01*
X151772745Y-94199821D02*
X151839709Y-94235535D01*
X151982566Y-94235535D01*
X152058459Y-94199821D01*
X152103102Y-94128392D01*
X152107566Y-94092678D01*
X152080781Y-94021250D01*
X152013816Y-93985535D01*
X151906674Y-93985535D01*
X151839709Y-93949821D01*
X151812924Y-93878392D01*
X151817388Y-93842678D01*
X151862031Y-93771250D01*
X151937924Y-93735535D01*
X152045066Y-93735535D01*
X152112031Y-93771250D01*
X152937924Y-93735535D02*
X153223638Y-93735535D01*
X153076316Y-93485535D02*
X152995959Y-94128392D01*
X153022745Y-94199821D01*
X153089709Y-94235535D01*
X153161138Y-94235535D01*
X153732566Y-94235535D02*
X153781674Y-93842678D01*
X153754888Y-93771250D01*
X153687924Y-93735535D01*
X153545066Y-93735535D01*
X153469174Y-93771250D01*
X153737031Y-94199821D02*
X153661138Y-94235535D01*
X153482566Y-94235535D01*
X153415602Y-94199821D01*
X153388816Y-94128392D01*
X153397745Y-94056964D01*
X153442388Y-93985535D01*
X153518281Y-93949821D01*
X153696852Y-93949821D01*
X153772745Y-93914107D01*
X154089709Y-94235535D02*
X154183459Y-93485535D01*
X154196852Y-93949821D02*
X154375424Y-94235535D01*
X154437924Y-93735535D02*
X154116495Y-94021250D01*
X154987031Y-94199821D02*
X154911138Y-94235535D01*
X154768281Y-94235535D01*
X154701316Y-94199821D01*
X154674531Y-94128392D01*
X154710245Y-93842678D01*
X154754888Y-93771250D01*
X154830781Y-93735535D01*
X154973638Y-93735535D01*
X155040602Y-93771250D01*
X155067388Y-93842678D01*
X155058459Y-93914107D01*
X154692388Y-93985535D01*
X155402209Y-93735535D02*
X155339709Y-94235535D01*
X155393281Y-93806964D02*
X155433459Y-93771250D01*
X155509352Y-93735535D01*
X155616495Y-93735535D01*
X155683459Y-93771250D01*
X155710245Y-93842678D01*
X155661138Y-94235535D01*
X156545066Y-93735535D02*
X156830781Y-93735535D01*
X156589709Y-94235535D02*
X156670066Y-93592678D01*
X156714709Y-93521250D01*
X156790602Y-93485535D01*
X156862031Y-93485535D01*
X157018281Y-94235535D02*
X157080781Y-93735535D01*
X157062924Y-93878392D02*
X157107566Y-93806964D01*
X157147745Y-93771250D01*
X157223638Y-93735535D01*
X157295066Y-93735535D01*
X157589709Y-94235535D02*
X157522745Y-94199821D01*
X157491495Y-94164107D01*
X157464709Y-94092678D01*
X157491495Y-93878392D01*
X157536138Y-93806964D01*
X157576316Y-93771250D01*
X157652209Y-93735535D01*
X157759352Y-93735535D01*
X157826316Y-93771250D01*
X157857566Y-93806964D01*
X157884352Y-93878392D01*
X157857566Y-94092678D01*
X157812924Y-94164107D01*
X157772745Y-94199821D01*
X157696852Y-94235535D01*
X157589709Y-94235535D01*
X158161138Y-94235535D02*
X158223638Y-93735535D01*
X158214709Y-93806964D02*
X158254888Y-93771250D01*
X158330781Y-93735535D01*
X158437924Y-93735535D01*
X158504888Y-93771250D01*
X158531674Y-93842678D01*
X158482566Y-94235535D01*
X158531674Y-93842678D02*
X158576316Y-93771250D01*
X158652209Y-93735535D01*
X158759352Y-93735535D01*
X158826316Y-93771250D01*
X158853102Y-93842678D01*
X158803995Y-94235535D01*
X130036138Y-95443035D02*
X130129888Y-94693035D01*
X130357566Y-95443035D02*
X130406674Y-95050178D01*
X130379888Y-94978750D01*
X130312924Y-94943035D01*
X130205781Y-94943035D01*
X130129888Y-94978750D01*
X130089709Y-95014464D01*
X130670066Y-94943035D02*
X130955781Y-94943035D01*
X130808459Y-94693035D02*
X130728102Y-95335892D01*
X130754888Y-95407321D01*
X130821852Y-95443035D01*
X130893281Y-95443035D01*
X131098638Y-94943035D02*
X131384352Y-94943035D01*
X131237031Y-94693035D02*
X131156674Y-95335892D01*
X131183459Y-95407321D01*
X131250424Y-95443035D01*
X131321852Y-95443035D01*
X131634352Y-94943035D02*
X131540602Y-95693035D01*
X131629888Y-94978750D02*
X131705781Y-94943035D01*
X131848638Y-94943035D01*
X131915602Y-94978750D01*
X131946852Y-95014464D01*
X131973638Y-95085892D01*
X131946852Y-95300178D01*
X131902209Y-95371607D01*
X131862031Y-95407321D01*
X131786138Y-95443035D01*
X131643281Y-95443035D01*
X131576316Y-95407321D01*
X132219174Y-95407321D02*
X132286138Y-95443035D01*
X132428995Y-95443035D01*
X132504888Y-95407321D01*
X132549531Y-95335892D01*
X132553995Y-95300178D01*
X132527209Y-95228750D01*
X132460245Y-95193035D01*
X132353102Y-95193035D01*
X132286138Y-95157321D01*
X132259352Y-95085892D01*
X132263816Y-95050178D01*
X132308459Y-94978750D01*
X132384352Y-94943035D01*
X132491495Y-94943035D01*
X132558459Y-94978750D01*
X132866495Y-95371607D02*
X132897745Y-95407321D01*
X132857566Y-95443035D01*
X132826316Y-95407321D01*
X132866495Y-95371607D01*
X132857566Y-95443035D01*
X132915602Y-94978750D02*
X132946852Y-95014464D01*
X132906674Y-95050178D01*
X132875424Y-95014464D01*
X132915602Y-94978750D01*
X132906674Y-95050178D01*
X133848638Y-94657321D02*
X133085245Y-95621607D01*
X134634352Y-94657321D02*
X133870959Y-95621607D01*
X135170066Y-94943035D02*
X135094174Y-95550178D01*
X135049531Y-95621607D01*
X135009352Y-95657321D01*
X134933459Y-95693035D01*
X134826316Y-95693035D01*
X134759352Y-95657321D01*
X135112031Y-95407321D02*
X135036138Y-95443035D01*
X134893281Y-95443035D01*
X134826316Y-95407321D01*
X134795066Y-95371607D01*
X134768281Y-95300178D01*
X134795066Y-95085892D01*
X134839709Y-95014464D01*
X134879888Y-94978750D01*
X134955781Y-94943035D01*
X135098638Y-94943035D01*
X135165602Y-94978750D01*
X135464709Y-95443035D02*
X135527209Y-94943035D01*
X135558459Y-94693035D02*
X135518281Y-94728750D01*
X135549531Y-94764464D01*
X135589709Y-94728750D01*
X135558459Y-94693035D01*
X135549531Y-94764464D01*
X135777209Y-94943035D02*
X136062924Y-94943035D01*
X135915602Y-94693035D02*
X135835245Y-95335892D01*
X135862031Y-95407321D01*
X135928995Y-95443035D01*
X136000424Y-95443035D01*
X136250424Y-95443035D02*
X136344174Y-94693035D01*
X136571852Y-95443035D02*
X136620959Y-95050178D01*
X136594174Y-94978750D01*
X136527209Y-94943035D01*
X136420066Y-94943035D01*
X136344174Y-94978750D01*
X136303995Y-95014464D01*
X137312924Y-94943035D02*
X137250424Y-95443035D01*
X136991495Y-94943035D02*
X136942388Y-95335892D01*
X136969174Y-95407321D01*
X137036138Y-95443035D01*
X137143281Y-95443035D01*
X137219174Y-95407321D01*
X137259352Y-95371607D01*
X137607566Y-95443035D02*
X137701316Y-94693035D01*
X137665602Y-94978750D02*
X137741495Y-94943035D01*
X137884352Y-94943035D01*
X137951316Y-94978750D01*
X137982566Y-95014464D01*
X138009352Y-95085892D01*
X137982566Y-95300178D01*
X137937924Y-95371607D01*
X137897745Y-95407321D01*
X137821852Y-95443035D01*
X137678995Y-95443035D01*
X137612031Y-95407321D01*
X138295066Y-95371607D02*
X138326316Y-95407321D01*
X138286138Y-95443035D01*
X138254888Y-95407321D01*
X138295066Y-95371607D01*
X138286138Y-95443035D01*
X138969174Y-95407321D02*
X138893281Y-95443035D01*
X138750424Y-95443035D01*
X138683459Y-95407321D01*
X138652209Y-95371607D01*
X138625424Y-95300178D01*
X138652209Y-95085892D01*
X138696852Y-95014464D01*
X138737031Y-94978750D01*
X138812924Y-94943035D01*
X138955781Y-94943035D01*
X139022745Y-94978750D01*
X139393281Y-95443035D02*
X139326316Y-95407321D01*
X139295066Y-95371607D01*
X139268281Y-95300178D01*
X139295066Y-95085892D01*
X139339709Y-95014464D01*
X139379888Y-94978750D01*
X139455781Y-94943035D01*
X139562924Y-94943035D01*
X139629888Y-94978750D01*
X139661138Y-95014464D01*
X139687924Y-95085892D01*
X139661138Y-95300178D01*
X139616495Y-95371607D01*
X139576316Y-95407321D01*
X139500424Y-95443035D01*
X139393281Y-95443035D01*
X139964709Y-95443035D02*
X140027209Y-94943035D01*
X140018281Y-95014464D02*
X140058459Y-94978750D01*
X140134352Y-94943035D01*
X140241495Y-94943035D01*
X140308459Y-94978750D01*
X140335245Y-95050178D01*
X140286138Y-95443035D01*
X140335245Y-95050178D02*
X140379888Y-94978750D01*
X140455781Y-94943035D01*
X140562924Y-94943035D01*
X140629888Y-94978750D01*
X140656674Y-95050178D01*
X140607566Y-95443035D01*
X141598638Y-94657321D02*
X140835245Y-95621607D01*
X141750424Y-95443035D02*
X141812924Y-94943035D01*
X141795066Y-95085892D02*
X141839709Y-95014464D01*
X141879888Y-94978750D01*
X141955781Y-94943035D01*
X142027209Y-94943035D01*
X142536138Y-95443035D02*
X142585245Y-95050178D01*
X142558459Y-94978750D01*
X142491495Y-94943035D01*
X142348638Y-94943035D01*
X142272745Y-94978750D01*
X142540602Y-95407321D02*
X142464709Y-95443035D01*
X142286138Y-95443035D01*
X142219174Y-95407321D01*
X142192388Y-95335892D01*
X142201316Y-95264464D01*
X142245959Y-95193035D01*
X142321852Y-95157321D01*
X142500424Y-95157321D01*
X142576316Y-95121607D01*
X142862031Y-95407321D02*
X142928995Y-95443035D01*
X143071852Y-95443035D01*
X143147745Y-95407321D01*
X143192388Y-95335892D01*
X143196852Y-95300178D01*
X143170066Y-95228750D01*
X143103102Y-95193035D01*
X142995959Y-95193035D01*
X142928995Y-95157321D01*
X142902209Y-95085892D01*
X142906674Y-95050178D01*
X142951316Y-94978750D01*
X143027209Y-94943035D01*
X143134352Y-94943035D01*
X143201316Y-94978750D01*
X143562924Y-94943035D02*
X143469174Y-95693035D01*
X143558459Y-94978750D02*
X143634352Y-94943035D01*
X143777209Y-94943035D01*
X143844174Y-94978750D01*
X143875424Y-95014464D01*
X143902209Y-95085892D01*
X143875424Y-95300178D01*
X143830781Y-95371607D01*
X143790602Y-95407321D01*
X143714709Y-95443035D01*
X143571852Y-95443035D01*
X143504888Y-95407321D01*
X144178995Y-95443035D02*
X144272745Y-94693035D01*
X144237031Y-94978750D02*
X144312924Y-94943035D01*
X144455781Y-94943035D01*
X144522745Y-94978750D01*
X144553995Y-95014464D01*
X144580781Y-95085892D01*
X144553995Y-95300178D01*
X144509352Y-95371607D01*
X144469174Y-95407321D01*
X144393281Y-95443035D01*
X144250424Y-95443035D01*
X144183459Y-95407321D01*
X145147745Y-95407321D02*
X145071852Y-95443035D01*
X144928995Y-95443035D01*
X144862031Y-95407321D01*
X144835245Y-95335892D01*
X144870959Y-95050178D01*
X144915602Y-94978750D01*
X144991495Y-94943035D01*
X145134352Y-94943035D01*
X145201316Y-94978750D01*
X145228102Y-95050178D01*
X145219174Y-95121607D01*
X144853102Y-95193035D01*
X145500424Y-95443035D02*
X145562924Y-94943035D01*
X145545066Y-95085892D02*
X145589709Y-95014464D01*
X145629888Y-94978750D01*
X145705781Y-94943035D01*
X145777209Y-94943035D01*
X145964709Y-95443035D02*
X146027209Y-94943035D01*
X146009352Y-95085892D02*
X146053995Y-95014464D01*
X146094174Y-94978750D01*
X146170066Y-94943035D01*
X146241495Y-94943035D01*
X146420066Y-94943035D02*
X146536138Y-95443035D01*
X146777209Y-94943035D02*
X146536138Y-95443035D01*
X146442388Y-95621607D01*
X146402209Y-95657321D01*
X146326316Y-95693035D01*
X147062924Y-94943035D02*
X146969174Y-95693035D01*
X147058459Y-94978750D02*
X147134352Y-94943035D01*
X147277209Y-94943035D01*
X147344174Y-94978750D01*
X147375424Y-95014464D01*
X147402209Y-95085892D01*
X147375424Y-95300178D01*
X147330781Y-95371607D01*
X147290602Y-95407321D01*
X147214709Y-95443035D01*
X147071852Y-95443035D01*
X147004888Y-95407321D01*
X147678995Y-95443035D02*
X147741495Y-94943035D01*
X147772745Y-94693035D02*
X147732566Y-94728750D01*
X147763816Y-94764464D01*
X147803995Y-94728750D01*
X147772745Y-94693035D01*
X147763816Y-94764464D01*
X148670066Y-94657321D02*
X147906674Y-95621607D01*
X148821852Y-95443035D02*
X148915602Y-94693035D01*
X149143281Y-95443035D02*
X149192388Y-95050178D01*
X149165602Y-94978750D01*
X149098638Y-94943035D01*
X148991495Y-94943035D01*
X148915602Y-94978750D01*
X148875424Y-95014464D01*
X149821852Y-95443035D02*
X149870959Y-95050178D01*
X149844174Y-94978750D01*
X149777209Y-94943035D01*
X149634352Y-94943035D01*
X149558459Y-94978750D01*
X149826316Y-95407321D02*
X149750424Y-95443035D01*
X149571852Y-95443035D01*
X149504888Y-95407321D01*
X149478102Y-95335892D01*
X149487031Y-95264464D01*
X149531674Y-95193035D01*
X149607566Y-95157321D01*
X149786138Y-95157321D01*
X149862031Y-95121607D01*
X150134352Y-94943035D02*
X150420066Y-94943035D01*
X150272745Y-94693035D02*
X150192388Y-95335892D01*
X150219174Y-95407321D01*
X150286138Y-95443035D01*
X150357566Y-95443035D01*
X150576316Y-95407321D02*
X150643281Y-95443035D01*
X150786138Y-95443035D01*
X150862031Y-95407321D01*
X150906674Y-95335892D01*
X150911138Y-95300178D01*
X150884352Y-95228750D01*
X150817388Y-95193035D01*
X150710245Y-95193035D01*
X150643281Y-95157321D01*
X150616495Y-95085892D01*
X150620959Y-95050178D01*
X150665602Y-94978750D01*
X150741495Y-94943035D01*
X150848638Y-94943035D01*
X150915602Y-94978750D01*
X151848638Y-94657321D02*
X151085245Y-95621607D01*
X152000424Y-95443035D02*
X152094174Y-94693035D01*
X152058459Y-94978750D02*
X152134352Y-94943035D01*
X152277209Y-94943035D01*
X152344174Y-94978750D01*
X152375424Y-95014464D01*
X152402209Y-95085892D01*
X152375424Y-95300178D01*
X152330781Y-95371607D01*
X152290602Y-95407321D01*
X152214709Y-95443035D01*
X152071852Y-95443035D01*
X152004888Y-95407321D01*
X152786138Y-95443035D02*
X152719174Y-95407321D01*
X152692388Y-95335892D01*
X152772745Y-94693035D01*
X153178995Y-95443035D02*
X153112031Y-95407321D01*
X153080781Y-95371607D01*
X153053995Y-95300178D01*
X153080781Y-95085892D01*
X153125424Y-95014464D01*
X153165602Y-94978750D01*
X153241495Y-94943035D01*
X153348638Y-94943035D01*
X153415602Y-94978750D01*
X153446852Y-95014464D01*
X153473638Y-95085892D01*
X153446852Y-95300178D01*
X153402209Y-95371607D01*
X153362031Y-95407321D01*
X153286138Y-95443035D01*
X153178995Y-95443035D01*
X153750424Y-95443035D02*
X153844174Y-94693035D01*
X153808459Y-94978750D02*
X153884352Y-94943035D01*
X154027209Y-94943035D01*
X154094174Y-94978750D01*
X154125424Y-95014464D01*
X154152209Y-95085892D01*
X154125424Y-95300178D01*
X154080781Y-95371607D01*
X154040602Y-95407321D01*
X153964709Y-95443035D01*
X153821852Y-95443035D01*
X153754888Y-95407321D01*
X155062924Y-94657321D02*
X154299531Y-95621607D01*
X155214709Y-95443035D02*
X155277209Y-94943035D01*
X155268281Y-95014464D02*
X155308459Y-94978750D01*
X155384352Y-94943035D01*
X155491495Y-94943035D01*
X155558459Y-94978750D01*
X155585245Y-95050178D01*
X155536138Y-95443035D01*
X155585245Y-95050178D02*
X155629888Y-94978750D01*
X155705781Y-94943035D01*
X155812924Y-94943035D01*
X155879888Y-94978750D01*
X155906674Y-95050178D01*
X155857566Y-95443035D01*
X156536138Y-95443035D02*
X156585245Y-95050178D01*
X156558459Y-94978750D01*
X156491495Y-94943035D01*
X156348638Y-94943035D01*
X156272745Y-94978750D01*
X156540602Y-95407321D02*
X156464709Y-95443035D01*
X156286138Y-95443035D01*
X156219174Y-95407321D01*
X156192388Y-95335892D01*
X156201316Y-95264464D01*
X156245959Y-95193035D01*
X156321852Y-95157321D01*
X156500424Y-95157321D01*
X156576316Y-95121607D01*
X156862031Y-95407321D02*
X156928995Y-95443035D01*
X157071852Y-95443035D01*
X157147745Y-95407321D01*
X157192388Y-95335892D01*
X157196852Y-95300178D01*
X157170066Y-95228750D01*
X157103102Y-95193035D01*
X156995959Y-95193035D01*
X156928995Y-95157321D01*
X156902209Y-95085892D01*
X156906674Y-95050178D01*
X156951316Y-94978750D01*
X157027209Y-94943035D01*
X157134352Y-94943035D01*
X157201316Y-94978750D01*
X157455781Y-94943035D02*
X157741495Y-94943035D01*
X157594174Y-94693035D02*
X157513816Y-95335892D01*
X157540602Y-95407321D01*
X157607566Y-95443035D01*
X157678995Y-95443035D01*
X158219174Y-95407321D02*
X158143281Y-95443035D01*
X158000424Y-95443035D01*
X157933459Y-95407321D01*
X157906674Y-95335892D01*
X157942388Y-95050178D01*
X157987031Y-94978750D01*
X158062924Y-94943035D01*
X158205781Y-94943035D01*
X158272745Y-94978750D01*
X158299531Y-95050178D01*
X158290602Y-95121607D01*
X157924531Y-95193035D01*
X158571852Y-95443035D02*
X158634352Y-94943035D01*
X158616495Y-95085892D02*
X158661138Y-95014464D01*
X158701316Y-94978750D01*
X158777209Y-94943035D01*
X158848638Y-94943035D01*
X159670066Y-94657321D02*
X158906674Y-95621607D01*
X159821852Y-95443035D02*
X159915602Y-94693035D01*
X160143281Y-95443035D02*
X160192388Y-95050178D01*
X160165602Y-94978750D01*
X160098638Y-94943035D01*
X159991495Y-94943035D01*
X159915602Y-94978750D01*
X159875424Y-95014464D01*
X160821852Y-95443035D02*
X160870959Y-95050178D01*
X160844174Y-94978750D01*
X160777209Y-94943035D01*
X160634352Y-94943035D01*
X160558459Y-94978750D01*
X160826316Y-95407321D02*
X160750424Y-95443035D01*
X160571852Y-95443035D01*
X160504888Y-95407321D01*
X160478102Y-95335892D01*
X160487031Y-95264464D01*
X160531674Y-95193035D01*
X160607566Y-95157321D01*
X160786138Y-95157321D01*
X160862031Y-95121607D01*
X161134352Y-94943035D02*
X161420066Y-94943035D01*
X161272745Y-94693035D02*
X161192388Y-95335892D01*
X161219174Y-95407321D01*
X161286138Y-95443035D01*
X161357566Y-95443035D01*
X161643281Y-95157321D02*
X162214709Y-95157321D01*
X162536138Y-95443035D02*
X162629888Y-94693035D01*
X162594174Y-94978750D02*
X162670066Y-94943035D01*
X162812924Y-94943035D01*
X162879888Y-94978750D01*
X162911138Y-95014464D01*
X162937924Y-95085892D01*
X162911138Y-95300178D01*
X162866495Y-95371607D01*
X162826316Y-95407321D01*
X162750424Y-95443035D01*
X162607566Y-95443035D01*
X162540602Y-95407321D01*
X163321852Y-95443035D02*
X163254888Y-95407321D01*
X163223638Y-95371607D01*
X163196852Y-95300178D01*
X163223638Y-95085892D01*
X163268281Y-95014464D01*
X163308459Y-94978750D01*
X163384352Y-94943035D01*
X163491495Y-94943035D01*
X163558459Y-94978750D01*
X163589709Y-95014464D01*
X163616495Y-95085892D01*
X163589709Y-95300178D01*
X163545066Y-95371607D01*
X163504888Y-95407321D01*
X163428995Y-95443035D01*
X163321852Y-95443035D01*
X164214709Y-95443035D02*
X164263816Y-95050178D01*
X164237031Y-94978750D01*
X164170066Y-94943035D01*
X164027209Y-94943035D01*
X163951316Y-94978750D01*
X164219174Y-95407321D02*
X164143281Y-95443035D01*
X163964709Y-95443035D01*
X163897745Y-95407321D01*
X163870959Y-95335892D01*
X163879888Y-95264464D01*
X163924531Y-95193035D01*
X164000424Y-95157321D01*
X164178995Y-95157321D01*
X164254888Y-95121607D01*
X164571852Y-95443035D02*
X164634352Y-94943035D01*
X164616495Y-95085892D02*
X164661138Y-95014464D01*
X164701316Y-94978750D01*
X164777209Y-94943035D01*
X164848638Y-94943035D01*
X165357566Y-95443035D02*
X165451316Y-94693035D01*
X165362031Y-95407321D02*
X165286138Y-95443035D01*
X165143281Y-95443035D01*
X165076316Y-95407321D01*
X165045066Y-95371607D01*
X165018281Y-95300178D01*
X165045066Y-95085892D01*
X165089709Y-95014464D01*
X165129888Y-94978750D01*
X165205781Y-94943035D01*
X165348638Y-94943035D01*
X165415602Y-94978750D01*
X165750424Y-95157321D02*
X166321852Y-95157321D01*
X166643281Y-95443035D02*
X166705781Y-94943035D01*
X166696852Y-95014464D02*
X166737031Y-94978750D01*
X166812924Y-94943035D01*
X166920066Y-94943035D01*
X166987031Y-94978750D01*
X167013816Y-95050178D01*
X166964709Y-95443035D01*
X167013816Y-95050178D02*
X167058459Y-94978750D01*
X167134352Y-94943035D01*
X167241495Y-94943035D01*
X167308459Y-94978750D01*
X167335245Y-95050178D01*
X167286138Y-95443035D01*
X167933459Y-95407321D02*
X167857566Y-95443035D01*
X167714709Y-95443035D01*
X167647745Y-95407321D01*
X167620959Y-95335892D01*
X167656674Y-95050178D01*
X167701316Y-94978750D01*
X167777209Y-94943035D01*
X167920066Y-94943035D01*
X167987031Y-94978750D01*
X168013816Y-95050178D01*
X168004888Y-95121607D01*
X167638816Y-95193035D01*
X168612031Y-95407321D02*
X168536138Y-95443035D01*
X168393281Y-95443035D01*
X168326316Y-95407321D01*
X168295066Y-95371607D01*
X168268281Y-95300178D01*
X168295066Y-95085892D01*
X168339709Y-95014464D01*
X168379888Y-94978750D01*
X168455781Y-94943035D01*
X168598638Y-94943035D01*
X168665602Y-94978750D01*
X168928995Y-95443035D02*
X169022745Y-94693035D01*
X169250424Y-95443035D02*
X169299531Y-95050178D01*
X169272745Y-94978750D01*
X169205781Y-94943035D01*
X169098638Y-94943035D01*
X169022745Y-94978750D01*
X168982566Y-95014464D01*
X169928995Y-95443035D02*
X169978102Y-95050178D01*
X169951316Y-94978750D01*
X169884352Y-94943035D01*
X169741495Y-94943035D01*
X169665602Y-94978750D01*
X169933459Y-95407321D02*
X169857566Y-95443035D01*
X169678995Y-95443035D01*
X169612031Y-95407321D01*
X169585245Y-95335892D01*
X169594174Y-95264464D01*
X169638816Y-95193035D01*
X169714709Y-95157321D01*
X169893281Y-95157321D01*
X169969174Y-95121607D01*
X170348638Y-94943035D02*
X170286138Y-95443035D01*
X170339709Y-95014464D02*
X170379888Y-94978750D01*
X170455781Y-94943035D01*
X170562924Y-94943035D01*
X170629888Y-94978750D01*
X170656674Y-95050178D01*
X170607566Y-95443035D01*
X170964709Y-95443035D02*
X171027209Y-94943035D01*
X171058459Y-94693035D02*
X171018281Y-94728750D01*
X171049531Y-94764464D01*
X171089709Y-94728750D01*
X171058459Y-94693035D01*
X171049531Y-94764464D01*
X171647745Y-95407321D02*
X171571852Y-95443035D01*
X171428995Y-95443035D01*
X171362031Y-95407321D01*
X171330781Y-95371607D01*
X171303995Y-95300178D01*
X171330781Y-95085892D01*
X171375424Y-95014464D01*
X171415602Y-94978750D01*
X171491495Y-94943035D01*
X171634352Y-94943035D01*
X171701316Y-94978750D01*
X172286138Y-95443035D02*
X172335245Y-95050178D01*
X172308459Y-94978750D01*
X172241495Y-94943035D01*
X172098638Y-94943035D01*
X172022745Y-94978750D01*
X172290602Y-95407321D02*
X172214709Y-95443035D01*
X172036138Y-95443035D01*
X171969174Y-95407321D01*
X171942388Y-95335892D01*
X171951316Y-95264464D01*
X171995959Y-95193035D01*
X172071852Y-95157321D01*
X172250424Y-95157321D01*
X172326316Y-95121607D01*
X172750424Y-95443035D02*
X172683459Y-95407321D01*
X172656674Y-95335892D01*
X172737031Y-94693035D01*
X173045066Y-95371607D02*
X173076316Y-95407321D01*
X173036138Y-95443035D01*
X173004888Y-95407321D01*
X173045066Y-95371607D01*
X173036138Y-95443035D01*
X173455781Y-94943035D02*
X173362031Y-95693035D01*
X173451316Y-94978750D02*
X173527209Y-94943035D01*
X173670066Y-94943035D01*
X173737031Y-94978750D01*
X173768281Y-95014464D01*
X173795066Y-95085892D01*
X173768281Y-95300178D01*
X173723638Y-95371607D01*
X173683459Y-95407321D01*
X173607566Y-95443035D01*
X173464709Y-95443035D01*
X173397745Y-95407321D01*
X174393281Y-95443035D02*
X174487031Y-94693035D01*
X174397745Y-95407321D02*
X174321852Y-95443035D01*
X174178995Y-95443035D01*
X174112031Y-95407321D01*
X174080781Y-95371607D01*
X174053995Y-95300178D01*
X174080781Y-95085892D01*
X174125424Y-95014464D01*
X174165602Y-94978750D01*
X174241495Y-94943035D01*
X174384352Y-94943035D01*
X174451316Y-94978750D01*
X174705781Y-94943035D02*
X174991495Y-94943035D01*
X174750424Y-95443035D02*
X174830781Y-94800178D01*
X174875424Y-94728750D01*
X174951316Y-94693035D01*
X175022745Y-94693035D01*
X146053995Y-153235535D02*
X146147745Y-152485535D01*
X146326316Y-152485535D01*
X146428995Y-152521250D01*
X146491495Y-152592678D01*
X146518281Y-152664107D01*
X146536138Y-152806964D01*
X146522745Y-152914107D01*
X146469174Y-153056964D01*
X146424531Y-153128392D01*
X146344174Y-153199821D01*
X146232566Y-153235535D01*
X146053995Y-153235535D01*
X146803995Y-153235535D02*
X146866495Y-152735535D01*
X146897745Y-152485535D02*
X146857566Y-152521250D01*
X146888816Y-152556964D01*
X146928995Y-152521250D01*
X146897745Y-152485535D01*
X146888816Y-152556964D01*
X147161138Y-153235535D02*
X147223638Y-152735535D01*
X147214709Y-152806964D02*
X147254888Y-152771250D01*
X147330781Y-152735535D01*
X147437924Y-152735535D01*
X147504888Y-152771250D01*
X147531674Y-152842678D01*
X147482566Y-153235535D01*
X147531674Y-152842678D02*
X147576316Y-152771250D01*
X147652209Y-152735535D01*
X147759352Y-152735535D01*
X147826316Y-152771250D01*
X147853102Y-152842678D01*
X147803995Y-153235535D01*
X148451316Y-153199821D02*
X148375424Y-153235535D01*
X148232566Y-153235535D01*
X148165602Y-153199821D01*
X148138816Y-153128392D01*
X148174531Y-152842678D01*
X148219174Y-152771250D01*
X148295066Y-152735535D01*
X148437924Y-152735535D01*
X148504888Y-152771250D01*
X148531674Y-152842678D01*
X148522745Y-152914107D01*
X148156674Y-152985535D01*
X148866495Y-152735535D02*
X148803995Y-153235535D01*
X148857566Y-152806964D02*
X148897745Y-152771250D01*
X148973638Y-152735535D01*
X149080781Y-152735535D01*
X149147745Y-152771250D01*
X149174531Y-152842678D01*
X149125424Y-153235535D01*
X149451316Y-153199821D02*
X149518281Y-153235535D01*
X149661138Y-153235535D01*
X149737031Y-153199821D01*
X149781674Y-153128392D01*
X149786138Y-153092678D01*
X149759352Y-153021250D01*
X149692388Y-152985535D01*
X149585245Y-152985535D01*
X149518281Y-152949821D01*
X149491495Y-152878392D01*
X149495959Y-152842678D01*
X149540602Y-152771250D01*
X149616495Y-152735535D01*
X149723638Y-152735535D01*
X149790602Y-152771250D01*
X150089709Y-153235535D02*
X150152209Y-152735535D01*
X150183459Y-152485535D02*
X150143281Y-152521250D01*
X150174531Y-152556964D01*
X150214709Y-152521250D01*
X150183459Y-152485535D01*
X150174531Y-152556964D01*
X150553995Y-153235535D02*
X150487031Y-153199821D01*
X150455781Y-153164107D01*
X150428995Y-153092678D01*
X150455781Y-152878392D01*
X150500424Y-152806964D01*
X150540602Y-152771250D01*
X150616495Y-152735535D01*
X150723638Y-152735535D01*
X150790602Y-152771250D01*
X150821852Y-152806964D01*
X150848638Y-152878392D01*
X150821852Y-153092678D01*
X150777209Y-153164107D01*
X150737031Y-153199821D01*
X150661138Y-153235535D01*
X150553995Y-153235535D01*
X151187924Y-152735535D02*
X151125424Y-153235535D01*
X151178995Y-152806964D02*
X151219174Y-152771250D01*
X151295066Y-152735535D01*
X151402209Y-152735535D01*
X151469174Y-152771250D01*
X151495959Y-152842678D01*
X151446852Y-153235535D01*
X151772745Y-153199821D02*
X151839709Y-153235535D01*
X151982566Y-153235535D01*
X152058459Y-153199821D01*
X152103102Y-153128392D01*
X152107566Y-153092678D01*
X152080781Y-153021250D01*
X152013816Y-152985535D01*
X151906674Y-152985535D01*
X151839709Y-152949821D01*
X151812924Y-152878392D01*
X151817388Y-152842678D01*
X151862031Y-152771250D01*
X151937924Y-152735535D01*
X152045066Y-152735535D01*
X152112031Y-152771250D01*
X152937924Y-152735535D02*
X153223638Y-152735535D01*
X153076316Y-152485535D02*
X152995959Y-153128392D01*
X153022745Y-153199821D01*
X153089709Y-153235535D01*
X153161138Y-153235535D01*
X153732566Y-153235535D02*
X153781674Y-152842678D01*
X153754888Y-152771250D01*
X153687924Y-152735535D01*
X153545066Y-152735535D01*
X153469174Y-152771250D01*
X153737031Y-153199821D02*
X153661138Y-153235535D01*
X153482566Y-153235535D01*
X153415602Y-153199821D01*
X153388816Y-153128392D01*
X153397745Y-153056964D01*
X153442388Y-152985535D01*
X153518281Y-152949821D01*
X153696852Y-152949821D01*
X153772745Y-152914107D01*
X154089709Y-153235535D02*
X154183459Y-152485535D01*
X154196852Y-152949821D02*
X154375424Y-153235535D01*
X154437924Y-152735535D02*
X154116495Y-153021250D01*
X154987031Y-153199821D02*
X154911138Y-153235535D01*
X154768281Y-153235535D01*
X154701316Y-153199821D01*
X154674531Y-153128392D01*
X154710245Y-152842678D01*
X154754888Y-152771250D01*
X154830781Y-152735535D01*
X154973638Y-152735535D01*
X155040602Y-152771250D01*
X155067388Y-152842678D01*
X155058459Y-152914107D01*
X154692388Y-152985535D01*
X155402209Y-152735535D02*
X155339709Y-153235535D01*
X155393281Y-152806964D02*
X155433459Y-152771250D01*
X155509352Y-152735535D01*
X155616495Y-152735535D01*
X155683459Y-152771250D01*
X155710245Y-152842678D01*
X155661138Y-153235535D01*
X156545066Y-152735535D02*
X156830781Y-152735535D01*
X156589709Y-153235535D02*
X156670066Y-152592678D01*
X156714709Y-152521250D01*
X156790602Y-152485535D01*
X156862031Y-152485535D01*
X157018281Y-153235535D02*
X157080781Y-152735535D01*
X157062924Y-152878392D02*
X157107566Y-152806964D01*
X157147745Y-152771250D01*
X157223638Y-152735535D01*
X157295066Y-152735535D01*
X157589709Y-153235535D02*
X157522745Y-153199821D01*
X157491495Y-153164107D01*
X157464709Y-153092678D01*
X157491495Y-152878392D01*
X157536138Y-152806964D01*
X157576316Y-152771250D01*
X157652209Y-152735535D01*
X157759352Y-152735535D01*
X157826316Y-152771250D01*
X157857566Y-152806964D01*
X157884352Y-152878392D01*
X157857566Y-153092678D01*
X157812924Y-153164107D01*
X157772745Y-153199821D01*
X157696852Y-153235535D01*
X157589709Y-153235535D01*
X158161138Y-153235535D02*
X158223638Y-152735535D01*
X158214709Y-152806964D02*
X158254888Y-152771250D01*
X158330781Y-152735535D01*
X158437924Y-152735535D01*
X158504888Y-152771250D01*
X158531674Y-152842678D01*
X158482566Y-153235535D01*
X158531674Y-152842678D02*
X158576316Y-152771250D01*
X158652209Y-152735535D01*
X158759352Y-152735535D01*
X158826316Y-152771250D01*
X158853102Y-152842678D01*
X158803995Y-153235535D01*
X130036138Y-154443035D02*
X130129888Y-153693035D01*
X130357566Y-154443035D02*
X130406674Y-154050178D01*
X130379888Y-153978750D01*
X130312924Y-153943035D01*
X130205781Y-153943035D01*
X130129888Y-153978750D01*
X130089709Y-154014464D01*
X130670066Y-153943035D02*
X130955781Y-153943035D01*
X130808459Y-153693035D02*
X130728102Y-154335892D01*
X130754888Y-154407321D01*
X130821852Y-154443035D01*
X130893281Y-154443035D01*
X131098638Y-153943035D02*
X131384352Y-153943035D01*
X131237031Y-153693035D02*
X131156674Y-154335892D01*
X131183459Y-154407321D01*
X131250424Y-154443035D01*
X131321852Y-154443035D01*
X131634352Y-153943035D02*
X131540602Y-154693035D01*
X131629888Y-153978750D02*
X131705781Y-153943035D01*
X131848638Y-153943035D01*
X131915602Y-153978750D01*
X131946852Y-154014464D01*
X131973638Y-154085892D01*
X131946852Y-154300178D01*
X131902209Y-154371607D01*
X131862031Y-154407321D01*
X131786138Y-154443035D01*
X131643281Y-154443035D01*
X131576316Y-154407321D01*
X132219174Y-154407321D02*
X132286138Y-154443035D01*
X132428995Y-154443035D01*
X132504888Y-154407321D01*
X132549531Y-154335892D01*
X132553995Y-154300178D01*
X132527209Y-154228750D01*
X132460245Y-154193035D01*
X132353102Y-154193035D01*
X132286138Y-154157321D01*
X132259352Y-154085892D01*
X132263816Y-154050178D01*
X132308459Y-153978750D01*
X132384352Y-153943035D01*
X132491495Y-153943035D01*
X132558459Y-153978750D01*
X132866495Y-154371607D02*
X132897745Y-154407321D01*
X132857566Y-154443035D01*
X132826316Y-154407321D01*
X132866495Y-154371607D01*
X132857566Y-154443035D01*
X132915602Y-153978750D02*
X132946852Y-154014464D01*
X132906674Y-154050178D01*
X132875424Y-154014464D01*
X132915602Y-153978750D01*
X132906674Y-154050178D01*
X133848638Y-153657321D02*
X133085245Y-154621607D01*
X134634352Y-153657321D02*
X133870959Y-154621607D01*
X135170066Y-153943035D02*
X135094174Y-154550178D01*
X135049531Y-154621607D01*
X135009352Y-154657321D01*
X134933459Y-154693035D01*
X134826316Y-154693035D01*
X134759352Y-154657321D01*
X135112031Y-154407321D02*
X135036138Y-154443035D01*
X134893281Y-154443035D01*
X134826316Y-154407321D01*
X134795066Y-154371607D01*
X134768281Y-154300178D01*
X134795066Y-154085892D01*
X134839709Y-154014464D01*
X134879888Y-153978750D01*
X134955781Y-153943035D01*
X135098638Y-153943035D01*
X135165602Y-153978750D01*
X135464709Y-154443035D02*
X135527209Y-153943035D01*
X135558459Y-153693035D02*
X135518281Y-153728750D01*
X135549531Y-153764464D01*
X135589709Y-153728750D01*
X135558459Y-153693035D01*
X135549531Y-153764464D01*
X135777209Y-153943035D02*
X136062924Y-153943035D01*
X135915602Y-153693035D02*
X135835245Y-154335892D01*
X135862031Y-154407321D01*
X135928995Y-154443035D01*
X136000424Y-154443035D01*
X136250424Y-154443035D02*
X136344174Y-153693035D01*
X136571852Y-154443035D02*
X136620959Y-154050178D01*
X136594174Y-153978750D01*
X136527209Y-153943035D01*
X136420066Y-153943035D01*
X136344174Y-153978750D01*
X136303995Y-154014464D01*
X137312924Y-153943035D02*
X137250424Y-154443035D01*
X136991495Y-153943035D02*
X136942388Y-154335892D01*
X136969174Y-154407321D01*
X137036138Y-154443035D01*
X137143281Y-154443035D01*
X137219174Y-154407321D01*
X137259352Y-154371607D01*
X137607566Y-154443035D02*
X137701316Y-153693035D01*
X137665602Y-153978750D02*
X137741495Y-153943035D01*
X137884352Y-153943035D01*
X137951316Y-153978750D01*
X137982566Y-154014464D01*
X138009352Y-154085892D01*
X137982566Y-154300178D01*
X137937924Y-154371607D01*
X137897745Y-154407321D01*
X137821852Y-154443035D01*
X137678995Y-154443035D01*
X137612031Y-154407321D01*
X138295066Y-154371607D02*
X138326316Y-154407321D01*
X138286138Y-154443035D01*
X138254888Y-154407321D01*
X138295066Y-154371607D01*
X138286138Y-154443035D01*
X138969174Y-154407321D02*
X138893281Y-154443035D01*
X138750424Y-154443035D01*
X138683459Y-154407321D01*
X138652209Y-154371607D01*
X138625424Y-154300178D01*
X138652209Y-154085892D01*
X138696852Y-154014464D01*
X138737031Y-153978750D01*
X138812924Y-153943035D01*
X138955781Y-153943035D01*
X139022745Y-153978750D01*
X139393281Y-154443035D02*
X139326316Y-154407321D01*
X139295066Y-154371607D01*
X139268281Y-154300178D01*
X139295066Y-154085892D01*
X139339709Y-154014464D01*
X139379888Y-153978750D01*
X139455781Y-153943035D01*
X139562924Y-153943035D01*
X139629888Y-153978750D01*
X139661138Y-154014464D01*
X139687924Y-154085892D01*
X139661138Y-154300178D01*
X139616495Y-154371607D01*
X139576316Y-154407321D01*
X139500424Y-154443035D01*
X139393281Y-154443035D01*
X139964709Y-154443035D02*
X140027209Y-153943035D01*
X140018281Y-154014464D02*
X140058459Y-153978750D01*
X140134352Y-153943035D01*
X140241495Y-153943035D01*
X140308459Y-153978750D01*
X140335245Y-154050178D01*
X140286138Y-154443035D01*
X140335245Y-154050178D02*
X140379888Y-153978750D01*
X140455781Y-153943035D01*
X140562924Y-153943035D01*
X140629888Y-153978750D01*
X140656674Y-154050178D01*
X140607566Y-154443035D01*
X141598638Y-153657321D02*
X140835245Y-154621607D01*
X141750424Y-154443035D02*
X141812924Y-153943035D01*
X141795066Y-154085892D02*
X141839709Y-154014464D01*
X141879888Y-153978750D01*
X141955781Y-153943035D01*
X142027209Y-153943035D01*
X142536138Y-154443035D02*
X142585245Y-154050178D01*
X142558459Y-153978750D01*
X142491495Y-153943035D01*
X142348638Y-153943035D01*
X142272745Y-153978750D01*
X142540602Y-154407321D02*
X142464709Y-154443035D01*
X142286138Y-154443035D01*
X142219174Y-154407321D01*
X142192388Y-154335892D01*
X142201316Y-154264464D01*
X142245959Y-154193035D01*
X142321852Y-154157321D01*
X142500424Y-154157321D01*
X142576316Y-154121607D01*
X142862031Y-154407321D02*
X142928995Y-154443035D01*
X143071852Y-154443035D01*
X143147745Y-154407321D01*
X143192388Y-154335892D01*
X143196852Y-154300178D01*
X143170066Y-154228750D01*
X143103102Y-154193035D01*
X142995959Y-154193035D01*
X142928995Y-154157321D01*
X142902209Y-154085892D01*
X142906674Y-154050178D01*
X142951316Y-153978750D01*
X143027209Y-153943035D01*
X143134352Y-153943035D01*
X143201316Y-153978750D01*
X143562924Y-153943035D02*
X143469174Y-154693035D01*
X143558459Y-153978750D02*
X143634352Y-153943035D01*
X143777209Y-153943035D01*
X143844174Y-153978750D01*
X143875424Y-154014464D01*
X143902209Y-154085892D01*
X143875424Y-154300178D01*
X143830781Y-154371607D01*
X143790602Y-154407321D01*
X143714709Y-154443035D01*
X143571852Y-154443035D01*
X143504888Y-154407321D01*
X144178995Y-154443035D02*
X144272745Y-153693035D01*
X144237031Y-153978750D02*
X144312924Y-153943035D01*
X144455781Y-153943035D01*
X144522745Y-153978750D01*
X144553995Y-154014464D01*
X144580781Y-154085892D01*
X144553995Y-154300178D01*
X144509352Y-154371607D01*
X144469174Y-154407321D01*
X144393281Y-154443035D01*
X144250424Y-154443035D01*
X144183459Y-154407321D01*
X145147745Y-154407321D02*
X145071852Y-154443035D01*
X144928995Y-154443035D01*
X144862031Y-154407321D01*
X144835245Y-154335892D01*
X144870959Y-154050178D01*
X144915602Y-153978750D01*
X144991495Y-153943035D01*
X145134352Y-153943035D01*
X145201316Y-153978750D01*
X145228102Y-154050178D01*
X145219174Y-154121607D01*
X144853102Y-154193035D01*
X145500424Y-154443035D02*
X145562924Y-153943035D01*
X145545066Y-154085892D02*
X145589709Y-154014464D01*
X145629888Y-153978750D01*
X145705781Y-153943035D01*
X145777209Y-153943035D01*
X145964709Y-154443035D02*
X146027209Y-153943035D01*
X146009352Y-154085892D02*
X146053995Y-154014464D01*
X146094174Y-153978750D01*
X146170066Y-153943035D01*
X146241495Y-153943035D01*
X146420066Y-153943035D02*
X146536138Y-154443035D01*
X146777209Y-153943035D02*
X146536138Y-154443035D01*
X146442388Y-154621607D01*
X146402209Y-154657321D01*
X146326316Y-154693035D01*
X147062924Y-153943035D02*
X146969174Y-154693035D01*
X147058459Y-153978750D02*
X147134352Y-153943035D01*
X147277209Y-153943035D01*
X147344174Y-153978750D01*
X147375424Y-154014464D01*
X147402209Y-154085892D01*
X147375424Y-154300178D01*
X147330781Y-154371607D01*
X147290602Y-154407321D01*
X147214709Y-154443035D01*
X147071852Y-154443035D01*
X147004888Y-154407321D01*
X147678995Y-154443035D02*
X147741495Y-153943035D01*
X147772745Y-153693035D02*
X147732566Y-153728750D01*
X147763816Y-153764464D01*
X147803995Y-153728750D01*
X147772745Y-153693035D01*
X147763816Y-153764464D01*
X148670066Y-153657321D02*
X147906674Y-154621607D01*
X148821852Y-154443035D02*
X148915602Y-153693035D01*
X149143281Y-154443035D02*
X149192388Y-154050178D01*
X149165602Y-153978750D01*
X149098638Y-153943035D01*
X148991495Y-153943035D01*
X148915602Y-153978750D01*
X148875424Y-154014464D01*
X149821852Y-154443035D02*
X149870959Y-154050178D01*
X149844174Y-153978750D01*
X149777209Y-153943035D01*
X149634352Y-153943035D01*
X149558459Y-153978750D01*
X149826316Y-154407321D02*
X149750424Y-154443035D01*
X149571852Y-154443035D01*
X149504888Y-154407321D01*
X149478102Y-154335892D01*
X149487031Y-154264464D01*
X149531674Y-154193035D01*
X149607566Y-154157321D01*
X149786138Y-154157321D01*
X149862031Y-154121607D01*
X150134352Y-153943035D02*
X150420066Y-153943035D01*
X150272745Y-153693035D02*
X150192388Y-154335892D01*
X150219174Y-154407321D01*
X150286138Y-154443035D01*
X150357566Y-154443035D01*
X150576316Y-154407321D02*
X150643281Y-154443035D01*
X150786138Y-154443035D01*
X150862031Y-154407321D01*
X150906674Y-154335892D01*
X150911138Y-154300178D01*
X150884352Y-154228750D01*
X150817388Y-154193035D01*
X150710245Y-154193035D01*
X150643281Y-154157321D01*
X150616495Y-154085892D01*
X150620959Y-154050178D01*
X150665602Y-153978750D01*
X150741495Y-153943035D01*
X150848638Y-153943035D01*
X150915602Y-153978750D01*
X151848638Y-153657321D02*
X151085245Y-154621607D01*
X152000424Y-154443035D02*
X152094174Y-153693035D01*
X152058459Y-153978750D02*
X152134352Y-153943035D01*
X152277209Y-153943035D01*
X152344174Y-153978750D01*
X152375424Y-154014464D01*
X152402209Y-154085892D01*
X152375424Y-154300178D01*
X152330781Y-154371607D01*
X152290602Y-154407321D01*
X152214709Y-154443035D01*
X152071852Y-154443035D01*
X152004888Y-154407321D01*
X152786138Y-154443035D02*
X152719174Y-154407321D01*
X152692388Y-154335892D01*
X152772745Y-153693035D01*
X153178995Y-154443035D02*
X153112031Y-154407321D01*
X153080781Y-154371607D01*
X153053995Y-154300178D01*
X153080781Y-154085892D01*
X153125424Y-154014464D01*
X153165602Y-153978750D01*
X153241495Y-153943035D01*
X153348638Y-153943035D01*
X153415602Y-153978750D01*
X153446852Y-154014464D01*
X153473638Y-154085892D01*
X153446852Y-154300178D01*
X153402209Y-154371607D01*
X153362031Y-154407321D01*
X153286138Y-154443035D01*
X153178995Y-154443035D01*
X153750424Y-154443035D02*
X153844174Y-153693035D01*
X153808459Y-153978750D02*
X153884352Y-153943035D01*
X154027209Y-153943035D01*
X154094174Y-153978750D01*
X154125424Y-154014464D01*
X154152209Y-154085892D01*
X154125424Y-154300178D01*
X154080781Y-154371607D01*
X154040602Y-154407321D01*
X153964709Y-154443035D01*
X153821852Y-154443035D01*
X153754888Y-154407321D01*
X155062924Y-153657321D02*
X154299531Y-154621607D01*
X155214709Y-154443035D02*
X155277209Y-153943035D01*
X155268281Y-154014464D02*
X155308459Y-153978750D01*
X155384352Y-153943035D01*
X155491495Y-153943035D01*
X155558459Y-153978750D01*
X155585245Y-154050178D01*
X155536138Y-154443035D01*
X155585245Y-154050178D02*
X155629888Y-153978750D01*
X155705781Y-153943035D01*
X155812924Y-153943035D01*
X155879888Y-153978750D01*
X155906674Y-154050178D01*
X155857566Y-154443035D01*
X156536138Y-154443035D02*
X156585245Y-154050178D01*
X156558459Y-153978750D01*
X156491495Y-153943035D01*
X156348638Y-153943035D01*
X156272745Y-153978750D01*
X156540602Y-154407321D02*
X156464709Y-154443035D01*
X156286138Y-154443035D01*
X156219174Y-154407321D01*
X156192388Y-154335892D01*
X156201316Y-154264464D01*
X156245959Y-154193035D01*
X156321852Y-154157321D01*
X156500424Y-154157321D01*
X156576316Y-154121607D01*
X156862031Y-154407321D02*
X156928995Y-154443035D01*
X157071852Y-154443035D01*
X157147745Y-154407321D01*
X157192388Y-154335892D01*
X157196852Y-154300178D01*
X157170066Y-154228750D01*
X157103102Y-154193035D01*
X156995959Y-154193035D01*
X156928995Y-154157321D01*
X156902209Y-154085892D01*
X156906674Y-154050178D01*
X156951316Y-153978750D01*
X157027209Y-153943035D01*
X157134352Y-153943035D01*
X157201316Y-153978750D01*
X157455781Y-153943035D02*
X157741495Y-153943035D01*
X157594174Y-153693035D02*
X157513816Y-154335892D01*
X157540602Y-154407321D01*
X157607566Y-154443035D01*
X157678995Y-154443035D01*
X158219174Y-154407321D02*
X158143281Y-154443035D01*
X158000424Y-154443035D01*
X157933459Y-154407321D01*
X157906674Y-154335892D01*
X157942388Y-154050178D01*
X157987031Y-153978750D01*
X158062924Y-153943035D01*
X158205781Y-153943035D01*
X158272745Y-153978750D01*
X158299531Y-154050178D01*
X158290602Y-154121607D01*
X157924531Y-154193035D01*
X158571852Y-154443035D02*
X158634352Y-153943035D01*
X158616495Y-154085892D02*
X158661138Y-154014464D01*
X158701316Y-153978750D01*
X158777209Y-153943035D01*
X158848638Y-153943035D01*
X159670066Y-153657321D02*
X158906674Y-154621607D01*
X159821852Y-154443035D02*
X159915602Y-153693035D01*
X160143281Y-154443035D02*
X160192388Y-154050178D01*
X160165602Y-153978750D01*
X160098638Y-153943035D01*
X159991495Y-153943035D01*
X159915602Y-153978750D01*
X159875424Y-154014464D01*
X160821852Y-154443035D02*
X160870959Y-154050178D01*
X160844174Y-153978750D01*
X160777209Y-153943035D01*
X160634352Y-153943035D01*
X160558459Y-153978750D01*
X160826316Y-154407321D02*
X160750424Y-154443035D01*
X160571852Y-154443035D01*
X160504888Y-154407321D01*
X160478102Y-154335892D01*
X160487031Y-154264464D01*
X160531674Y-154193035D01*
X160607566Y-154157321D01*
X160786138Y-154157321D01*
X160862031Y-154121607D01*
X161134352Y-153943035D02*
X161420066Y-153943035D01*
X161272745Y-153693035D02*
X161192388Y-154335892D01*
X161219174Y-154407321D01*
X161286138Y-154443035D01*
X161357566Y-154443035D01*
X161643281Y-154157321D02*
X162214709Y-154157321D01*
X162536138Y-154443035D02*
X162629888Y-153693035D01*
X162594174Y-153978750D02*
X162670066Y-153943035D01*
X162812924Y-153943035D01*
X162879888Y-153978750D01*
X162911138Y-154014464D01*
X162937924Y-154085892D01*
X162911138Y-154300178D01*
X162866495Y-154371607D01*
X162826316Y-154407321D01*
X162750424Y-154443035D01*
X162607566Y-154443035D01*
X162540602Y-154407321D01*
X163321852Y-154443035D02*
X163254888Y-154407321D01*
X163223638Y-154371607D01*
X163196852Y-154300178D01*
X163223638Y-154085892D01*
X163268281Y-154014464D01*
X163308459Y-153978750D01*
X163384352Y-153943035D01*
X163491495Y-153943035D01*
X163558459Y-153978750D01*
X163589709Y-154014464D01*
X163616495Y-154085892D01*
X163589709Y-154300178D01*
X163545066Y-154371607D01*
X163504888Y-154407321D01*
X163428995Y-154443035D01*
X163321852Y-154443035D01*
X164214709Y-154443035D02*
X164263816Y-154050178D01*
X164237031Y-153978750D01*
X164170066Y-153943035D01*
X164027209Y-153943035D01*
X163951316Y-153978750D01*
X164219174Y-154407321D02*
X164143281Y-154443035D01*
X163964709Y-154443035D01*
X163897745Y-154407321D01*
X163870959Y-154335892D01*
X163879888Y-154264464D01*
X163924531Y-154193035D01*
X164000424Y-154157321D01*
X164178995Y-154157321D01*
X164254888Y-154121607D01*
X164571852Y-154443035D02*
X164634352Y-153943035D01*
X164616495Y-154085892D02*
X164661138Y-154014464D01*
X164701316Y-153978750D01*
X164777209Y-153943035D01*
X164848638Y-153943035D01*
X165357566Y-154443035D02*
X165451316Y-153693035D01*
X165362031Y-154407321D02*
X165286138Y-154443035D01*
X165143281Y-154443035D01*
X165076316Y-154407321D01*
X165045066Y-154371607D01*
X165018281Y-154300178D01*
X165045066Y-154085892D01*
X165089709Y-154014464D01*
X165129888Y-153978750D01*
X165205781Y-153943035D01*
X165348638Y-153943035D01*
X165415602Y-153978750D01*
X165750424Y-154157321D02*
X166321852Y-154157321D01*
X166643281Y-154443035D02*
X166705781Y-153943035D01*
X166696852Y-154014464D02*
X166737031Y-153978750D01*
X166812924Y-153943035D01*
X166920066Y-153943035D01*
X166987031Y-153978750D01*
X167013816Y-154050178D01*
X166964709Y-154443035D01*
X167013816Y-154050178D02*
X167058459Y-153978750D01*
X167134352Y-153943035D01*
X167241495Y-153943035D01*
X167308459Y-153978750D01*
X167335245Y-154050178D01*
X167286138Y-154443035D01*
X167933459Y-154407321D02*
X167857566Y-154443035D01*
X167714709Y-154443035D01*
X167647745Y-154407321D01*
X167620959Y-154335892D01*
X167656674Y-154050178D01*
X167701316Y-153978750D01*
X167777209Y-153943035D01*
X167920066Y-153943035D01*
X167987031Y-153978750D01*
X168013816Y-154050178D01*
X168004888Y-154121607D01*
X167638816Y-154193035D01*
X168612031Y-154407321D02*
X168536138Y-154443035D01*
X168393281Y-154443035D01*
X168326316Y-154407321D01*
X168295066Y-154371607D01*
X168268281Y-154300178D01*
X168295066Y-154085892D01*
X168339709Y-154014464D01*
X168379888Y-153978750D01*
X168455781Y-153943035D01*
X168598638Y-153943035D01*
X168665602Y-153978750D01*
X168928995Y-154443035D02*
X169022745Y-153693035D01*
X169250424Y-154443035D02*
X169299531Y-154050178D01*
X169272745Y-153978750D01*
X169205781Y-153943035D01*
X169098638Y-153943035D01*
X169022745Y-153978750D01*
X168982566Y-154014464D01*
X169928995Y-154443035D02*
X169978102Y-154050178D01*
X169951316Y-153978750D01*
X169884352Y-153943035D01*
X169741495Y-153943035D01*
X169665602Y-153978750D01*
X169933459Y-154407321D02*
X169857566Y-154443035D01*
X169678995Y-154443035D01*
X169612031Y-154407321D01*
X169585245Y-154335892D01*
X169594174Y-154264464D01*
X169638816Y-154193035D01*
X169714709Y-154157321D01*
X169893281Y-154157321D01*
X169969174Y-154121607D01*
X170348638Y-153943035D02*
X170286138Y-154443035D01*
X170339709Y-154014464D02*
X170379888Y-153978750D01*
X170455781Y-153943035D01*
X170562924Y-153943035D01*
X170629888Y-153978750D01*
X170656674Y-154050178D01*
X170607566Y-154443035D01*
X170964709Y-154443035D02*
X171027209Y-153943035D01*
X171058459Y-153693035D02*
X171018281Y-153728750D01*
X171049531Y-153764464D01*
X171089709Y-153728750D01*
X171058459Y-153693035D01*
X171049531Y-153764464D01*
X171647745Y-154407321D02*
X171571852Y-154443035D01*
X171428995Y-154443035D01*
X171362031Y-154407321D01*
X171330781Y-154371607D01*
X171303995Y-154300178D01*
X171330781Y-154085892D01*
X171375424Y-154014464D01*
X171415602Y-153978750D01*
X171491495Y-153943035D01*
X171634352Y-153943035D01*
X171701316Y-153978750D01*
X172286138Y-154443035D02*
X172335245Y-154050178D01*
X172308459Y-153978750D01*
X172241495Y-153943035D01*
X172098638Y-153943035D01*
X172022745Y-153978750D01*
X172290602Y-154407321D02*
X172214709Y-154443035D01*
X172036138Y-154443035D01*
X171969174Y-154407321D01*
X171942388Y-154335892D01*
X171951316Y-154264464D01*
X171995959Y-154193035D01*
X172071852Y-154157321D01*
X172250424Y-154157321D01*
X172326316Y-154121607D01*
X172750424Y-154443035D02*
X172683459Y-154407321D01*
X172656674Y-154335892D01*
X172737031Y-153693035D01*
X173045066Y-154371607D02*
X173076316Y-154407321D01*
X173036138Y-154443035D01*
X173004888Y-154407321D01*
X173045066Y-154371607D01*
X173036138Y-154443035D01*
X173455781Y-153943035D02*
X173362031Y-154693035D01*
X173451316Y-153978750D02*
X173527209Y-153943035D01*
X173670066Y-153943035D01*
X173737031Y-153978750D01*
X173768281Y-154014464D01*
X173795066Y-154085892D01*
X173768281Y-154300178D01*
X173723638Y-154371607D01*
X173683459Y-154407321D01*
X173607566Y-154443035D01*
X173464709Y-154443035D01*
X173397745Y-154407321D01*
X174393281Y-154443035D02*
X174487031Y-153693035D01*
X174397745Y-154407321D02*
X174321852Y-154443035D01*
X174178995Y-154443035D01*
X174112031Y-154407321D01*
X174080781Y-154371607D01*
X174053995Y-154300178D01*
X174080781Y-154085892D01*
X174125424Y-154014464D01*
X174165602Y-153978750D01*
X174241495Y-153943035D01*
X174384352Y-153943035D01*
X174451316Y-153978750D01*
X174705781Y-153943035D02*
X174991495Y-153943035D01*
X174750424Y-154443035D02*
X174830781Y-153800178D01*
X174875424Y-153728750D01*
X174951316Y-153693035D01*
X175022745Y-153693035D01*
M02*
